G04 ================== begin FILE IDENTIFICATION RECORD ==================*
G04 Layout Name:  C:/Users/teaves/Desktop/LNA/LNA/pcb/LNAv2.brd*
G04 Film Name:    TOP*
G04 File Format:  Gerber RS274X*
G04 File Origin:  Cadence Allegro 17.2-S022*
G04 Origin Date:  Thu May 31 16:49:38 2018*
G04 *
G04 Layer:  ETCH/TOP*
G04 Layer:  PIN/TOP*
G04 Layer:  VIA CLASS/TOP*
G04 *
G04 Offset:    (0.0 0.0)*
G04 Mirror:    No*
G04 Mode:      Positive*
G04 Rotation:  0*
G04 FullContactRelief:  No*
G04 UndefLineWidth:     0.0*
G04 ================== end FILE IDENTIFICATION RECORD ====================*
%FSLAX25Y25*MOIN*%
%IR0*IPPOS*OFA0.00000B0.00000*MIA0B0*SFA1.00000B1.00000*%
%ADD10R,.2X.09*%
%ADD18R,.09X.2*%
%ADD11R,.2X.095*%
%ADD16R,.095X.2*%
%ADD19R,.04X.034*%
%ADD20R,.05X.034*%
%ADD17C,.03*%
%ADD15C,.07*%
%ADD13R,.043X.055*%
%ADD14C,.045*%
%ADD12R,.05X.05*%
%ADD21C,.012*%
%ADD22C,.05*%
%ADD23C,.0614*%
%ADD24C,.0864*%
G75*
%LPD*%
G75*
G36*
G01X1442680Y802460D02*
Y915250D01*
X1632680D01*
Y802460D01*
X1442680D01*
G37*
%LPC*%
G75*
G36*
G01X1465810Y855000D02*
G02X1465000Y854190I-810J0D01*
G01X1445000D01*
G02X1444190Y855000I0J810D01*
G01Y864000D01*
G02X1445000Y864810I810J0D01*
G01X1465000D01*
G02X1465810Y864000I0J-810D01*
G01Y862810D01*
X1476600D01*
X1479100D01*
G02X1479910Y862000I0J-810D01*
G01Y857000D01*
G02X1479100Y856190I-810J0D01*
G01X1476600D01*
X1465810D01*
Y855000D01*
G37*
G36*
G01X1513460Y856750D02*
G02X1512650Y855940I-810J0D01*
G01X1508350D01*
G02X1507540Y856750I0J810D01*
G01Y858020D01*
X1507520Y858060D01*
G02X1507190Y859500I2977J1440D01*
G01Y874000D01*
G02X1513810I3310J0D01*
G01Y859500D01*
G02X1513480Y858060I-3307J0D01*
G01X1513460Y858020D01*
Y856750D01*
G37*
G36*
G01X1538200Y882740D02*
G02X1536100Y881990I-2100J2565D01*
G01X1528930D01*
X1528730Y882190D01*
X1524500D01*
G02Y888810I0J3310D01*
G01X1531470D01*
X1531670Y888610D01*
X1536100D01*
G02X1538200Y887860I0J-3315D01*
G01X1538260Y887810D01*
X1538600D01*
G02X1539410Y887000I0J-810D01*
G01Y885360D01*
G02Y885240I-3310J-60D01*
G01Y883600D01*
G02X1538600Y882790I-810J0D01*
G01X1538260D01*
X1538200Y882740D01*
G37*
G36*
G01X1481690Y833000D02*
Y838000D01*
G02X1482500Y838810I810J0D01*
G01X1487500D01*
G02X1488310Y838000I0J-810D01*
G01Y833000D01*
G02X1487500Y832190I-810J0D01*
G01X1482500D01*
G02X1481690Y833000I0J810D01*
G37*
G36*
G01X1444190Y871950D02*
Y881450D01*
G02X1445000Y882260I810J0D01*
G01X1465000D01*
G02X1465810Y881450I0J-810D01*
G01Y871950D01*
G02X1465000Y871140I-810J0D01*
G01X1445000D01*
G02X1444190Y871950I0J810D01*
G37*
G36*
G01X1550670Y884910D02*
X1550770Y884810D01*
X1559760D01*
G02X1560350Y885060I590J-571D01*
G01X1564650D01*
G02X1565460Y884250I0J-810D01*
G01Y882980D01*
X1565480Y882940D01*
G02Y880060I-2980J-1440D01*
G01X1565460Y880020D01*
Y878750D01*
G02X1564650Y877940I-810J0D01*
G01X1560350D01*
G02X1559760Y878190I0J821D01*
G01X1548030D01*
X1547930Y878290D01*
X1547310D01*
Y872000D01*
G02X1540690I-3310J0D01*
G01Y881600D01*
G02X1541190Y883350I3312J0D01*
G02X1541820Y884090I809J-51D01*
G02X1544000Y884910I2180J-2488D01*
G01X1550670D01*
G37*
G36*
G01X1609690Y859550D02*
Y869050D01*
G02X1610500Y869860I810J0D01*
G01X1630500D01*
G02X1631310Y869050I0J-810D01*
G01Y859550D01*
G02X1630500Y858740I-810J0D01*
G01X1610500D01*
G02X1609690Y859550I0J810D01*
G37*
G36*
G01X1573690Y901900D02*
Y906900D01*
G02X1574500Y907710I810J0D01*
G01X1579500D01*
G02X1580310Y906900I0J-810D01*
G01Y901900D01*
G02X1579500Y901090I-810J0D01*
G01X1574500D01*
G02X1573690Y901900I0J810D01*
G37*
G36*
G01X1541190Y887300D02*
Y890700D01*
G02X1542000Y891510I810J0D01*
G01X1546000D01*
G02X1546810Y890700I0J-810D01*
G01Y887300D01*
G02X1546000Y886490I-810J0D01*
G01X1542000D01*
G02X1541190Y887300I0J810D01*
G37*
G36*
G01X1521240Y804500D02*
Y824500D01*
G02X1522050Y825310I810J0D01*
G01X1531550D01*
G02X1532360Y824500I0J-810D01*
G01Y804500D01*
G02X1531550Y803690I-810J0D01*
G01X1522050D01*
G02X1521240Y804500I0J810D01*
G37*
G36*
G01X1579740Y878190D02*
G02X1579150Y877940I-590J571D01*
G01X1574850D01*
G02X1574040Y878750I0J810D01*
G01Y880020D01*
X1574020Y880060D01*
G02X1573690Y881500I2977J1440D01*
G01Y898500D01*
G02X1574500Y899310I810J0D01*
G01X1579500D01*
G02X1580310Y898500I0J-810D01*
G01Y884810D01*
X1591500D01*
G02X1592310Y884000I0J-810D01*
G01Y879000D01*
G02X1591500Y878190I-810J0D01*
G01X1579740D01*
G37*
G36*
G01X1631310Y877000D02*
G02X1630500Y876190I-810J0D01*
G01X1610500D01*
G02X1609690Y877000I0J810D01*
G01Y878190D01*
X1594900D01*
G02X1594090Y879000I0J810D01*
G01Y884000D01*
G02X1594900Y884810I810J0D01*
G01X1609690D01*
Y886000D01*
G02X1610500Y886810I810J0D01*
G01X1630500D01*
G02X1631310Y886000I0J-810D01*
G01Y877000D01*
G37*
G36*
G01X1549310Y804500D02*
G02X1548500Y803690I-810J0D01*
G01X1539500D01*
G02X1538690Y804500I0J810D01*
G01Y824500D01*
G02X1539500Y825310I810J0D01*
G01X1540690D01*
Y831500D01*
G02X1547310I3310J0D01*
G01Y825310D01*
X1548500D01*
G02X1549310Y824500I0J-810D01*
G01Y804500D01*
G37*
G36*
G01X1488310Y841400D02*
G02X1487500Y840590I-810J0D01*
G01X1482500D01*
G02X1481690Y841400I0J810D01*
G01Y843900D01*
Y859500D01*
Y862000D01*
G02X1482500Y862810I810J0D01*
G01X1485000D01*
X1493270D01*
G02X1493850Y863060I580J-548D01*
G01X1498150D01*
G02X1498960Y862250I0J-810D01*
G01Y860980D01*
X1498980Y860940D01*
G02Y858060I-2980J-1440D01*
G01X1498960Y858020D01*
Y856750D01*
G02X1498150Y855940I-810J0D01*
G01X1493850D01*
G02X1493270Y856190I0J798D01*
G01X1488310D01*
Y843900D01*
Y841400D01*
G37*
G36*
G01X1508290Y840000D02*
Y845000D01*
G02X1509100Y845810I810J0D01*
G01X1514100D01*
G02X1514910Y845000I0J-810D01*
G01Y840000D01*
G02X1514100Y839190I-810J0D01*
G01X1509100D01*
G02X1508290Y840000I0J810D01*
G37*
G36*
G01X1532000Y845810D02*
G02Y839190I0J-3310D01*
G01X1520000D01*
X1517500D01*
G02X1516690Y840000I0J810D01*
G01Y845000D01*
G02X1517500Y845810I810J0D01*
G01X1520000D01*
X1532000D01*
G37*
G54D23*
X1501650Y885500D03*
X1492800Y903200D03*
X1510500D03*
X1492800Y885500D03*
X1510500D03*
X1544000Y860200D03*
Y851350D03*
X1561700Y860200D03*
Y842500D03*
X1544000D03*
G54D24*
X1487400Y894600D03*
X1515900D03*
X1553100Y837100D03*
Y865600D03*
%LPD*%
G75*
G54D10*
X1455000Y859500D03*
X1620500Y881500D03*
G54D20*
X1536100Y885300D03*
G54D11*
X1455000Y876700D03*
X1620500Y864300D03*
G54D21*
G01X1455000Y870940D02*
Y876700D01*
G01D02*
Y882460D01*
G01X1443990Y876700D02*
X1455000D01*
G01D02*
X1466010D01*
G01X1485000Y831990D02*
Y835500D01*
G01D02*
Y839010D01*
G01X1481490Y835500D02*
X1485000D01*
G01D02*
X1488510D01*
G01X1492800Y882240D02*
Y885500D01*
G01D02*
Y888760D01*
G01X1489540Y885500D02*
X1492800D01*
G01D02*
X1496060D01*
G01X1526800Y803490D02*
Y814500D01*
G01D02*
Y825510D01*
G01X1521040Y814500D02*
X1526800D01*
G01D02*
X1532560D01*
G01X1511600Y838990D02*
Y842500D01*
G01D02*
Y846010D01*
G01X1508090Y842500D02*
X1511600D01*
G01D02*
X1515110D01*
G01X1544000Y886290D02*
Y889000D01*
G01D02*
Y891710D01*
G01X1540990Y889000D02*
X1544000D01*
G01D02*
X1547010D01*
G01X1577000Y900890D02*
Y904400D01*
G01D02*
Y907910D01*
G01X1573490Y904400D02*
X1577000D01*
G01D02*
X1580510D01*
G01X1620500Y858540D02*
Y864300D01*
G01D02*
Y870060D01*
G01X1609490Y864300D02*
X1620500D01*
G01D02*
X1631510D01*
G54D12*
X1485000Y835500D03*
Y859500D03*
X1476600D03*
X1485000Y843900D03*
X1520000Y842500D03*
X1511600D03*
X1577000Y896000D03*
X1589000Y881500D03*
X1577000Y904400D03*
X1597400Y881500D03*
G54D22*
G01X1476600Y859500D02*
X1455000D01*
G01X1496000D02*
X1485000D01*
G01Y843900D02*
Y859500D01*
G01X1532000Y842500D02*
X1520000D01*
G01X1510500Y874000D02*
Y859500D01*
G01X1524500Y885500D02*
X1530100D01*
X1530300Y885300D01*
X1536100D01*
G01X1544000Y831500D02*
Y814500D01*
G01Y872000D02*
Y881600D01*
G01X1562500Y881500D02*
X1549400D01*
X1549300Y881600D01*
X1544000D01*
G01X1577000Y881500D02*
Y896000D01*
G01X1589000Y881500D02*
X1577000D01*
G01X1620500D02*
X1597400D01*
G54D13*
X1496000Y859500D03*
X1510500D03*
X1577000Y881500D03*
X1562500D03*
G54D14*
X1501650Y885500D03*
X1492800D03*
Y903200D03*
X1510500Y885500D03*
Y903200D03*
X1544000Y851350D03*
X1561700Y860200D03*
Y842500D03*
X1544000Y860200D03*
Y842500D03*
G54D15*
X1487400Y894600D03*
X1515900D03*
X1553100Y837100D03*
Y865600D03*
G54D16*
X1526800Y814500D03*
G54D17*
X1532000Y842500D03*
X1524500Y885500D03*
X1510500Y874000D03*
X1544000Y831500D03*
Y872000D03*
G54D18*
Y814500D03*
G54D19*
Y889000D03*
Y881600D03*
M02*
