G04 #@! TF.GenerationSoftware,KiCad,Pcbnew,(6.0.0-rc1-dev-305-gf0b8b21)*
G04 #@! TF.CreationDate,2020-01-09T18:10:56-08:00*
G04 #@! TF.ProjectId,29.4MHz Bandpass Filter Rev0.1,32392E344D487A2042616E6470617373,rev?*
G04 #@! TF.SameCoordinates,Original*
G04 #@! TF.FileFunction,Copper,L2,Bot,Signal*
G04 #@! TF.FilePolarity,Positive*
%FSLAX46Y46*%
G04 Gerber Fmt 4.6, Leading zero omitted, Abs format (unit mm)*
G04 Created by KiCad (PCBNEW (6.0.0-rc1-dev-305-gf0b8b21)) date Thursday, January 09, 2020 at 06:10:56 PM*
%MOMM*%
%LPD*%
G01*
G04 APERTURE LIST*
G04 #@! TA.AperFunction,SMDPad,CuDef*
%ADD10R,5.080000X1.500000*%
G04 #@! TD*
G04 #@! TA.AperFunction,Conductor*
%ADD11C,0.254000*%
G04 #@! TD*
G04 APERTURE END LIST*
D10*
G04 #@! TO.P,J1,2*
G04 #@! TO.N,GND*
X117779800Y-64227600D03*
X117779800Y-55727600D03*
G04 #@! TD*
G04 #@! TO.P,J2,2*
G04 #@! TO.N,GND*
X185826400Y-64194000D03*
X185826400Y-55694000D03*
G04 #@! TD*
D11*
G04 #@! TO.N,GND*
G36*
X188032712Y-51662285D02*
X188017143Y-54309000D01*
X186112150Y-54309000D01*
X185953400Y-54467750D01*
X185953400Y-55567000D01*
X185973400Y-55567000D01*
X185973400Y-55821000D01*
X185953400Y-55821000D01*
X185953400Y-56920250D01*
X186112150Y-57079000D01*
X188000849Y-57079000D01*
X187967143Y-62809000D01*
X186112150Y-62809000D01*
X185953400Y-62967750D01*
X185953400Y-64067000D01*
X185973400Y-64067000D01*
X185973400Y-64321000D01*
X185953400Y-64321000D01*
X185953400Y-65420250D01*
X186112150Y-65579000D01*
X187950849Y-65579000D01*
X187938869Y-67615653D01*
X115646764Y-67665545D01*
X115649762Y-65612600D01*
X117494050Y-65612600D01*
X117652800Y-65453850D01*
X117652800Y-64354600D01*
X117906800Y-64354600D01*
X117906800Y-65453850D01*
X118065550Y-65612600D01*
X120446110Y-65612600D01*
X120679499Y-65515927D01*
X120858127Y-65337298D01*
X120954800Y-65103909D01*
X120954800Y-64513350D01*
X120921200Y-64479750D01*
X182651400Y-64479750D01*
X182651400Y-65070309D01*
X182748073Y-65303698D01*
X182926701Y-65482327D01*
X183160090Y-65579000D01*
X185540650Y-65579000D01*
X185699400Y-65420250D01*
X185699400Y-64321000D01*
X182810150Y-64321000D01*
X182651400Y-64479750D01*
X120921200Y-64479750D01*
X120796050Y-64354600D01*
X117906800Y-64354600D01*
X117652800Y-64354600D01*
X117632800Y-64354600D01*
X117632800Y-64100600D01*
X117652800Y-64100600D01*
X117652800Y-63001350D01*
X117906800Y-63001350D01*
X117906800Y-64100600D01*
X120796050Y-64100600D01*
X120954800Y-63941850D01*
X120954800Y-63351291D01*
X120940883Y-63317691D01*
X182651400Y-63317691D01*
X182651400Y-63908250D01*
X182810150Y-64067000D01*
X185699400Y-64067000D01*
X185699400Y-62967750D01*
X185540650Y-62809000D01*
X183160090Y-62809000D01*
X182926701Y-62905673D01*
X182748073Y-63084302D01*
X182651400Y-63317691D01*
X120940883Y-63317691D01*
X120858127Y-63117902D01*
X120679499Y-62939273D01*
X120446110Y-62842600D01*
X118065550Y-62842600D01*
X117906800Y-63001350D01*
X117652800Y-63001350D01*
X117494050Y-62842600D01*
X115653805Y-62842600D01*
X115662170Y-57112600D01*
X117494050Y-57112600D01*
X117652800Y-56953850D01*
X117652800Y-55854600D01*
X117906800Y-55854600D01*
X117906800Y-56953850D01*
X118065550Y-57112600D01*
X120446110Y-57112600D01*
X120679499Y-57015927D01*
X120858127Y-56837298D01*
X120954800Y-56603909D01*
X120954800Y-56013350D01*
X120921200Y-55979750D01*
X182651400Y-55979750D01*
X182651400Y-56570309D01*
X182748073Y-56803698D01*
X182926701Y-56982327D01*
X183160090Y-57079000D01*
X185540650Y-57079000D01*
X185699400Y-56920250D01*
X185699400Y-55821000D01*
X182810150Y-55821000D01*
X182651400Y-55979750D01*
X120921200Y-55979750D01*
X120796050Y-55854600D01*
X117906800Y-55854600D01*
X117652800Y-55854600D01*
X117632800Y-55854600D01*
X117632800Y-55600600D01*
X117652800Y-55600600D01*
X117652800Y-54501350D01*
X117906800Y-54501350D01*
X117906800Y-55600600D01*
X120796050Y-55600600D01*
X120954800Y-55441850D01*
X120954800Y-54851291D01*
X120940883Y-54817691D01*
X182651400Y-54817691D01*
X182651400Y-55408250D01*
X182810150Y-55567000D01*
X185699400Y-55567000D01*
X185699400Y-54467750D01*
X185540650Y-54309000D01*
X183160090Y-54309000D01*
X182926701Y-54405673D01*
X182748073Y-54584302D01*
X182651400Y-54817691D01*
X120940883Y-54817691D01*
X120858127Y-54617902D01*
X120679499Y-54439273D01*
X120446110Y-54342600D01*
X118065550Y-54342600D01*
X117906800Y-54501350D01*
X117652800Y-54501350D01*
X117494050Y-54342600D01*
X115666214Y-54342600D01*
X115670273Y-51562474D01*
X188032712Y-51662285D01*
X188032712Y-51662285D01*
G37*
X188032712Y-51662285D02*
X188017143Y-54309000D01*
X186112150Y-54309000D01*
X185953400Y-54467750D01*
X185953400Y-55567000D01*
X185973400Y-55567000D01*
X185973400Y-55821000D01*
X185953400Y-55821000D01*
X185953400Y-56920250D01*
X186112150Y-57079000D01*
X188000849Y-57079000D01*
X187967143Y-62809000D01*
X186112150Y-62809000D01*
X185953400Y-62967750D01*
X185953400Y-64067000D01*
X185973400Y-64067000D01*
X185973400Y-64321000D01*
X185953400Y-64321000D01*
X185953400Y-65420250D01*
X186112150Y-65579000D01*
X187950849Y-65579000D01*
X187938869Y-67615653D01*
X115646764Y-67665545D01*
X115649762Y-65612600D01*
X117494050Y-65612600D01*
X117652800Y-65453850D01*
X117652800Y-64354600D01*
X117906800Y-64354600D01*
X117906800Y-65453850D01*
X118065550Y-65612600D01*
X120446110Y-65612600D01*
X120679499Y-65515927D01*
X120858127Y-65337298D01*
X120954800Y-65103909D01*
X120954800Y-64513350D01*
X120921200Y-64479750D01*
X182651400Y-64479750D01*
X182651400Y-65070309D01*
X182748073Y-65303698D01*
X182926701Y-65482327D01*
X183160090Y-65579000D01*
X185540650Y-65579000D01*
X185699400Y-65420250D01*
X185699400Y-64321000D01*
X182810150Y-64321000D01*
X182651400Y-64479750D01*
X120921200Y-64479750D01*
X120796050Y-64354600D01*
X117906800Y-64354600D01*
X117652800Y-64354600D01*
X117632800Y-64354600D01*
X117632800Y-64100600D01*
X117652800Y-64100600D01*
X117652800Y-63001350D01*
X117906800Y-63001350D01*
X117906800Y-64100600D01*
X120796050Y-64100600D01*
X120954800Y-63941850D01*
X120954800Y-63351291D01*
X120940883Y-63317691D01*
X182651400Y-63317691D01*
X182651400Y-63908250D01*
X182810150Y-64067000D01*
X185699400Y-64067000D01*
X185699400Y-62967750D01*
X185540650Y-62809000D01*
X183160090Y-62809000D01*
X182926701Y-62905673D01*
X182748073Y-63084302D01*
X182651400Y-63317691D01*
X120940883Y-63317691D01*
X120858127Y-63117902D01*
X120679499Y-62939273D01*
X120446110Y-62842600D01*
X118065550Y-62842600D01*
X117906800Y-63001350D01*
X117652800Y-63001350D01*
X117494050Y-62842600D01*
X115653805Y-62842600D01*
X115662170Y-57112600D01*
X117494050Y-57112600D01*
X117652800Y-56953850D01*
X117652800Y-55854600D01*
X117906800Y-55854600D01*
X117906800Y-56953850D01*
X118065550Y-57112600D01*
X120446110Y-57112600D01*
X120679499Y-57015927D01*
X120858127Y-56837298D01*
X120954800Y-56603909D01*
X120954800Y-56013350D01*
X120921200Y-55979750D01*
X182651400Y-55979750D01*
X182651400Y-56570309D01*
X182748073Y-56803698D01*
X182926701Y-56982327D01*
X183160090Y-57079000D01*
X185540650Y-57079000D01*
X185699400Y-56920250D01*
X185699400Y-55821000D01*
X182810150Y-55821000D01*
X182651400Y-55979750D01*
X120921200Y-55979750D01*
X120796050Y-55854600D01*
X117906800Y-55854600D01*
X117652800Y-55854600D01*
X117632800Y-55854600D01*
X117632800Y-55600600D01*
X117652800Y-55600600D01*
X117652800Y-54501350D01*
X117906800Y-54501350D01*
X117906800Y-55600600D01*
X120796050Y-55600600D01*
X120954800Y-55441850D01*
X120954800Y-54851291D01*
X120940883Y-54817691D01*
X182651400Y-54817691D01*
X182651400Y-55408250D01*
X182810150Y-55567000D01*
X185699400Y-55567000D01*
X185699400Y-54467750D01*
X185540650Y-54309000D01*
X183160090Y-54309000D01*
X182926701Y-54405673D01*
X182748073Y-54584302D01*
X182651400Y-54817691D01*
X120940883Y-54817691D01*
X120858127Y-54617902D01*
X120679499Y-54439273D01*
X120446110Y-54342600D01*
X118065550Y-54342600D01*
X117906800Y-54501350D01*
X117652800Y-54501350D01*
X117494050Y-54342600D01*
X115666214Y-54342600D01*
X115670273Y-51562474D01*
X188032712Y-51662285D01*
G04 #@! TD*
M02*
