M48
; DRILL file {KiCad (5.1.5)-3} date 2/1/2020 1:19:20 PM
; FORMAT={-:-/ absolute / inch / decimal}
; #@! TF.CreationDate,2020-02-01T13:19:20-08:00
; #@! TF.GenerationSoftware,Kicad,Pcbnew,(5.1.5)-3
; #@! TF.FileFunction,Plated,1,2,PTH
FMAT,2
INCH
T1C0.0300
T2C0.0315
T3C0.0394
T4C0.0433
%
G90
G05
T1
X1.707Y-2.161
X2.0285Y-2.159
X2.385Y-2.1635
X1.253Y-2.061
X1.253Y-2.261
X1.553Y-1.961
X1.553Y-2.161
X1.553Y-2.361
X2.51Y-1.9635
X2.51Y-2.1635
X2.51Y-2.3635
X2.81Y-2.0635
X2.81Y-2.2635
T2
X0.9275Y-1.585
X1.4275Y-1.585
T3
X2.0285Y-1.861
X2.0285Y-1.961
X2.0285Y-2.061
X0.735Y-1.585
X0.735Y-1.685
X0.734Y-2.061
X0.734Y-2.161
X1.087Y-1.961
X1.087Y-2.061
X2.0285Y-2.261
X2.0285Y-2.361
X2.0285Y-2.461
T4
X1.735Y-1.585
X1.835Y-1.585
X1.935Y-1.585
T0
M30
