G04 #@! TF.GenerationSoftware,KiCad,Pcbnew,(5.1.5)-3*
G04 #@! TF.CreationDate,2020-01-15T20:57:35-08:00*
G04 #@! TF.ProjectId,29MHz-LPF,32394d48-7a2d-44c5-9046-2e6b69636164,rev?*
G04 #@! TF.SameCoordinates,Original*
G04 #@! TF.FileFunction,Copper,L1,Top*
G04 #@! TF.FilePolarity,Positive*
%FSLAX46Y46*%
G04 Gerber Fmt 4.6, Leading zero omitted, Abs format (unit mm)*
G04 Created by KiCad (PCBNEW (5.1.5)-3) date 2020-01-15 20:57:35*
%MOMM*%
%LPD*%
G04 APERTURE LIST*
%ADD10C,0.300000*%
%ADD11C,0.100000*%
%ADD12R,2.000000X1.500000*%
%ADD13R,5.080000X2.290000*%
%ADD14R,5.080000X2.420000*%
%ADD15C,0.970000*%
%ADD16R,0.950000X0.460000*%
%ADD17C,0.800000*%
%ADD18C,0.250000*%
%ADD19C,0.254000*%
G04 APERTURE END LIST*
D10*
X161032285Y-84752571D02*
X161032285Y-83752571D01*
X161032285Y-84038285D02*
X161103714Y-83895428D01*
X161175142Y-83824000D01*
X161318000Y-83752571D01*
X161460857Y-83752571D01*
X162532285Y-84681142D02*
X162389428Y-84752571D01*
X162103714Y-84752571D01*
X161960857Y-84681142D01*
X161889428Y-84538285D01*
X161889428Y-83966857D01*
X161960857Y-83824000D01*
X162103714Y-83752571D01*
X162389428Y-83752571D01*
X162532285Y-83824000D01*
X162603714Y-83966857D01*
X162603714Y-84109714D01*
X161889428Y-84252571D01*
X163103714Y-83752571D02*
X163460857Y-84752571D01*
X163818000Y-83752571D01*
X164675142Y-83252571D02*
X164818000Y-83252571D01*
X164960857Y-83324000D01*
X165032285Y-83395428D01*
X165103714Y-83538285D01*
X165175142Y-83824000D01*
X165175142Y-84181142D01*
X165103714Y-84466857D01*
X165032285Y-84609714D01*
X164960857Y-84681142D01*
X164818000Y-84752571D01*
X164675142Y-84752571D01*
X164532285Y-84681142D01*
X164460857Y-84609714D01*
X164389428Y-84466857D01*
X164318000Y-84181142D01*
X164318000Y-83824000D01*
X164389428Y-83538285D01*
X164460857Y-83395428D01*
X164532285Y-83324000D01*
X164675142Y-83252571D01*
X107835142Y-99230571D02*
X107335142Y-98516285D01*
X106978000Y-99230571D02*
X106978000Y-97730571D01*
X107549428Y-97730571D01*
X107692285Y-97802000D01*
X107763714Y-97873428D01*
X107835142Y-98016285D01*
X107835142Y-98230571D01*
X107763714Y-98373428D01*
X107692285Y-98444857D01*
X107549428Y-98516285D01*
X106978000Y-98516285D01*
X108978000Y-98444857D02*
X108478000Y-98444857D01*
X108478000Y-99230571D02*
X108478000Y-97730571D01*
X109192285Y-97730571D01*
X110906571Y-99230571D02*
X110906571Y-97730571D01*
X111620857Y-99230571D02*
X111620857Y-97730571D01*
X112478000Y-99230571D01*
X112478000Y-97730571D01*
G04 #@! TA.AperFunction,SMDPad,CuDef*
D11*
G36*
X117187505Y-88308204D02*
G01*
X117211773Y-88311804D01*
X117235572Y-88317765D01*
X117258671Y-88326030D01*
X117280850Y-88336520D01*
X117301893Y-88349132D01*
X117321599Y-88363747D01*
X117339777Y-88380223D01*
X117356253Y-88398401D01*
X117370868Y-88418107D01*
X117383480Y-88439150D01*
X117393970Y-88461329D01*
X117402235Y-88484428D01*
X117408196Y-88508227D01*
X117411796Y-88532495D01*
X117413000Y-88556999D01*
X117413000Y-89207001D01*
X117411796Y-89231505D01*
X117408196Y-89255773D01*
X117402235Y-89279572D01*
X117393970Y-89302671D01*
X117383480Y-89324850D01*
X117370868Y-89345893D01*
X117356253Y-89365599D01*
X117339777Y-89383777D01*
X117321599Y-89400253D01*
X117301893Y-89414868D01*
X117280850Y-89427480D01*
X117258671Y-89437970D01*
X117235572Y-89446235D01*
X117211773Y-89452196D01*
X117187505Y-89455796D01*
X117163001Y-89457000D01*
X116262999Y-89457000D01*
X116238495Y-89455796D01*
X116214227Y-89452196D01*
X116190428Y-89446235D01*
X116167329Y-89437970D01*
X116145150Y-89427480D01*
X116124107Y-89414868D01*
X116104401Y-89400253D01*
X116086223Y-89383777D01*
X116069747Y-89365599D01*
X116055132Y-89345893D01*
X116042520Y-89324850D01*
X116032030Y-89302671D01*
X116023765Y-89279572D01*
X116017804Y-89255773D01*
X116014204Y-89231505D01*
X116013000Y-89207001D01*
X116013000Y-88556999D01*
X116014204Y-88532495D01*
X116017804Y-88508227D01*
X116023765Y-88484428D01*
X116032030Y-88461329D01*
X116042520Y-88439150D01*
X116055132Y-88418107D01*
X116069747Y-88398401D01*
X116086223Y-88380223D01*
X116104401Y-88363747D01*
X116124107Y-88349132D01*
X116145150Y-88336520D01*
X116167329Y-88326030D01*
X116190428Y-88317765D01*
X116214227Y-88311804D01*
X116238495Y-88308204D01*
X116262999Y-88307000D01*
X117163001Y-88307000D01*
X117187505Y-88308204D01*
G37*
G04 #@! TD.AperFunction*
G04 #@! TA.AperFunction,SMDPad,CuDef*
G36*
X117187505Y-90358204D02*
G01*
X117211773Y-90361804D01*
X117235572Y-90367765D01*
X117258671Y-90376030D01*
X117280850Y-90386520D01*
X117301893Y-90399132D01*
X117321599Y-90413747D01*
X117339777Y-90430223D01*
X117356253Y-90448401D01*
X117370868Y-90468107D01*
X117383480Y-90489150D01*
X117393970Y-90511329D01*
X117402235Y-90534428D01*
X117408196Y-90558227D01*
X117411796Y-90582495D01*
X117413000Y-90606999D01*
X117413000Y-91257001D01*
X117411796Y-91281505D01*
X117408196Y-91305773D01*
X117402235Y-91329572D01*
X117393970Y-91352671D01*
X117383480Y-91374850D01*
X117370868Y-91395893D01*
X117356253Y-91415599D01*
X117339777Y-91433777D01*
X117321599Y-91450253D01*
X117301893Y-91464868D01*
X117280850Y-91477480D01*
X117258671Y-91487970D01*
X117235572Y-91496235D01*
X117211773Y-91502196D01*
X117187505Y-91505796D01*
X117163001Y-91507000D01*
X116262999Y-91507000D01*
X116238495Y-91505796D01*
X116214227Y-91502196D01*
X116190428Y-91496235D01*
X116167329Y-91487970D01*
X116145150Y-91477480D01*
X116124107Y-91464868D01*
X116104401Y-91450253D01*
X116086223Y-91433777D01*
X116069747Y-91415599D01*
X116055132Y-91395893D01*
X116042520Y-91374850D01*
X116032030Y-91352671D01*
X116023765Y-91329572D01*
X116017804Y-91305773D01*
X116014204Y-91281505D01*
X116013000Y-91257001D01*
X116013000Y-90606999D01*
X116014204Y-90582495D01*
X116017804Y-90558227D01*
X116023765Y-90534428D01*
X116032030Y-90511329D01*
X116042520Y-90489150D01*
X116055132Y-90468107D01*
X116069747Y-90448401D01*
X116086223Y-90430223D01*
X116104401Y-90413747D01*
X116124107Y-90399132D01*
X116145150Y-90386520D01*
X116167329Y-90376030D01*
X116190428Y-90367765D01*
X116214227Y-90361804D01*
X116238495Y-90358204D01*
X116262999Y-90357000D01*
X117163001Y-90357000D01*
X117187505Y-90358204D01*
G37*
G04 #@! TD.AperFunction*
D12*
X122174000Y-88900000D03*
X122174000Y-94900000D03*
G04 #@! TA.AperFunction,SMDPad,CuDef*
D11*
G36*
X140174505Y-90376204D02*
G01*
X140198773Y-90379804D01*
X140222572Y-90385765D01*
X140245671Y-90394030D01*
X140267850Y-90404520D01*
X140288893Y-90417132D01*
X140308599Y-90431747D01*
X140326777Y-90448223D01*
X140343253Y-90466401D01*
X140357868Y-90486107D01*
X140370480Y-90507150D01*
X140380970Y-90529329D01*
X140389235Y-90552428D01*
X140395196Y-90576227D01*
X140398796Y-90600495D01*
X140400000Y-90624999D01*
X140400000Y-91275001D01*
X140398796Y-91299505D01*
X140395196Y-91323773D01*
X140389235Y-91347572D01*
X140380970Y-91370671D01*
X140370480Y-91392850D01*
X140357868Y-91413893D01*
X140343253Y-91433599D01*
X140326777Y-91451777D01*
X140308599Y-91468253D01*
X140288893Y-91482868D01*
X140267850Y-91495480D01*
X140245671Y-91505970D01*
X140222572Y-91514235D01*
X140198773Y-91520196D01*
X140174505Y-91523796D01*
X140150001Y-91525000D01*
X139249999Y-91525000D01*
X139225495Y-91523796D01*
X139201227Y-91520196D01*
X139177428Y-91514235D01*
X139154329Y-91505970D01*
X139132150Y-91495480D01*
X139111107Y-91482868D01*
X139091401Y-91468253D01*
X139073223Y-91451777D01*
X139056747Y-91433599D01*
X139042132Y-91413893D01*
X139029520Y-91392850D01*
X139019030Y-91370671D01*
X139010765Y-91347572D01*
X139004804Y-91323773D01*
X139001204Y-91299505D01*
X139000000Y-91275001D01*
X139000000Y-90624999D01*
X139001204Y-90600495D01*
X139004804Y-90576227D01*
X139010765Y-90552428D01*
X139019030Y-90529329D01*
X139029520Y-90507150D01*
X139042132Y-90486107D01*
X139056747Y-90466401D01*
X139073223Y-90448223D01*
X139091401Y-90431747D01*
X139111107Y-90417132D01*
X139132150Y-90404520D01*
X139154329Y-90394030D01*
X139177428Y-90385765D01*
X139201227Y-90379804D01*
X139225495Y-90376204D01*
X139249999Y-90375000D01*
X140150001Y-90375000D01*
X140174505Y-90376204D01*
G37*
G04 #@! TD.AperFunction*
G04 #@! TA.AperFunction,SMDPad,CuDef*
G36*
X140174505Y-88326204D02*
G01*
X140198773Y-88329804D01*
X140222572Y-88335765D01*
X140245671Y-88344030D01*
X140267850Y-88354520D01*
X140288893Y-88367132D01*
X140308599Y-88381747D01*
X140326777Y-88398223D01*
X140343253Y-88416401D01*
X140357868Y-88436107D01*
X140370480Y-88457150D01*
X140380970Y-88479329D01*
X140389235Y-88502428D01*
X140395196Y-88526227D01*
X140398796Y-88550495D01*
X140400000Y-88574999D01*
X140400000Y-89225001D01*
X140398796Y-89249505D01*
X140395196Y-89273773D01*
X140389235Y-89297572D01*
X140380970Y-89320671D01*
X140370480Y-89342850D01*
X140357868Y-89363893D01*
X140343253Y-89383599D01*
X140326777Y-89401777D01*
X140308599Y-89418253D01*
X140288893Y-89432868D01*
X140267850Y-89445480D01*
X140245671Y-89455970D01*
X140222572Y-89464235D01*
X140198773Y-89470196D01*
X140174505Y-89473796D01*
X140150001Y-89475000D01*
X139249999Y-89475000D01*
X139225495Y-89473796D01*
X139201227Y-89470196D01*
X139177428Y-89464235D01*
X139154329Y-89455970D01*
X139132150Y-89445480D01*
X139111107Y-89432868D01*
X139091401Y-89418253D01*
X139073223Y-89401777D01*
X139056747Y-89383599D01*
X139042132Y-89363893D01*
X139029520Y-89342850D01*
X139019030Y-89320671D01*
X139010765Y-89297572D01*
X139004804Y-89273773D01*
X139001204Y-89249505D01*
X139000000Y-89225001D01*
X139000000Y-88574999D01*
X139001204Y-88550495D01*
X139004804Y-88526227D01*
X139010765Y-88502428D01*
X139019030Y-88479329D01*
X139029520Y-88457150D01*
X139042132Y-88436107D01*
X139056747Y-88416401D01*
X139073223Y-88398223D01*
X139091401Y-88381747D01*
X139111107Y-88367132D01*
X139132150Y-88354520D01*
X139154329Y-88344030D01*
X139177428Y-88335765D01*
X139201227Y-88329804D01*
X139225495Y-88326204D01*
X139249999Y-88325000D01*
X140150001Y-88325000D01*
X140174505Y-88326204D01*
G37*
G04 #@! TD.AperFunction*
D12*
X144780000Y-94900000D03*
X144780000Y-88900000D03*
G04 #@! TA.AperFunction,SMDPad,CuDef*
D11*
G36*
X160875505Y-90467204D02*
G01*
X160899773Y-90470804D01*
X160923572Y-90476765D01*
X160946671Y-90485030D01*
X160968850Y-90495520D01*
X160989893Y-90508132D01*
X161009599Y-90522747D01*
X161027777Y-90539223D01*
X161044253Y-90557401D01*
X161058868Y-90577107D01*
X161071480Y-90598150D01*
X161081970Y-90620329D01*
X161090235Y-90643428D01*
X161096196Y-90667227D01*
X161099796Y-90691495D01*
X161101000Y-90715999D01*
X161101000Y-91366001D01*
X161099796Y-91390505D01*
X161096196Y-91414773D01*
X161090235Y-91438572D01*
X161081970Y-91461671D01*
X161071480Y-91483850D01*
X161058868Y-91504893D01*
X161044253Y-91524599D01*
X161027777Y-91542777D01*
X161009599Y-91559253D01*
X160989893Y-91573868D01*
X160968850Y-91586480D01*
X160946671Y-91596970D01*
X160923572Y-91605235D01*
X160899773Y-91611196D01*
X160875505Y-91614796D01*
X160851001Y-91616000D01*
X159950999Y-91616000D01*
X159926495Y-91614796D01*
X159902227Y-91611196D01*
X159878428Y-91605235D01*
X159855329Y-91596970D01*
X159833150Y-91586480D01*
X159812107Y-91573868D01*
X159792401Y-91559253D01*
X159774223Y-91542777D01*
X159757747Y-91524599D01*
X159743132Y-91504893D01*
X159730520Y-91483850D01*
X159720030Y-91461671D01*
X159711765Y-91438572D01*
X159705804Y-91414773D01*
X159702204Y-91390505D01*
X159701000Y-91366001D01*
X159701000Y-90715999D01*
X159702204Y-90691495D01*
X159705804Y-90667227D01*
X159711765Y-90643428D01*
X159720030Y-90620329D01*
X159730520Y-90598150D01*
X159743132Y-90577107D01*
X159757747Y-90557401D01*
X159774223Y-90539223D01*
X159792401Y-90522747D01*
X159812107Y-90508132D01*
X159833150Y-90495520D01*
X159855329Y-90485030D01*
X159878428Y-90476765D01*
X159902227Y-90470804D01*
X159926495Y-90467204D01*
X159950999Y-90466000D01*
X160851001Y-90466000D01*
X160875505Y-90467204D01*
G37*
G04 #@! TD.AperFunction*
G04 #@! TA.AperFunction,SMDPad,CuDef*
G36*
X160875505Y-92517204D02*
G01*
X160899773Y-92520804D01*
X160923572Y-92526765D01*
X160946671Y-92535030D01*
X160968850Y-92545520D01*
X160989893Y-92558132D01*
X161009599Y-92572747D01*
X161027777Y-92589223D01*
X161044253Y-92607401D01*
X161058868Y-92627107D01*
X161071480Y-92648150D01*
X161081970Y-92670329D01*
X161090235Y-92693428D01*
X161096196Y-92717227D01*
X161099796Y-92741495D01*
X161101000Y-92765999D01*
X161101000Y-93416001D01*
X161099796Y-93440505D01*
X161096196Y-93464773D01*
X161090235Y-93488572D01*
X161081970Y-93511671D01*
X161071480Y-93533850D01*
X161058868Y-93554893D01*
X161044253Y-93574599D01*
X161027777Y-93592777D01*
X161009599Y-93609253D01*
X160989893Y-93623868D01*
X160968850Y-93636480D01*
X160946671Y-93646970D01*
X160923572Y-93655235D01*
X160899773Y-93661196D01*
X160875505Y-93664796D01*
X160851001Y-93666000D01*
X159950999Y-93666000D01*
X159926495Y-93664796D01*
X159902227Y-93661196D01*
X159878428Y-93655235D01*
X159855329Y-93646970D01*
X159833150Y-93636480D01*
X159812107Y-93623868D01*
X159792401Y-93609253D01*
X159774223Y-93592777D01*
X159757747Y-93574599D01*
X159743132Y-93554893D01*
X159730520Y-93533850D01*
X159720030Y-93511671D01*
X159711765Y-93488572D01*
X159705804Y-93464773D01*
X159702204Y-93440505D01*
X159701000Y-93416001D01*
X159701000Y-92765999D01*
X159702204Y-92741495D01*
X159705804Y-92717227D01*
X159711765Y-92693428D01*
X159720030Y-92670329D01*
X159730520Y-92648150D01*
X159743132Y-92627107D01*
X159757747Y-92607401D01*
X159774223Y-92589223D01*
X159792401Y-92572747D01*
X159812107Y-92558132D01*
X159833150Y-92545520D01*
X159855329Y-92535030D01*
X159878428Y-92526765D01*
X159902227Y-92520804D01*
X159926495Y-92517204D01*
X159950999Y-92516000D01*
X160851001Y-92516000D01*
X160875505Y-92517204D01*
G37*
G04 #@! TD.AperFunction*
D12*
X164719000Y-91059000D03*
X164719000Y-97059000D03*
D13*
X107500000Y-88900000D03*
D14*
X107500000Y-84520000D03*
X107500000Y-93280000D03*
D15*
X110940000Y-84520000D03*
X110940000Y-93280000D03*
D16*
X110490000Y-84520000D03*
X110490000Y-93280000D03*
X170688000Y-86933000D03*
X170688000Y-95693000D03*
D15*
X170238000Y-86933000D03*
X170238000Y-95693000D03*
D14*
X173678000Y-86933000D03*
X173678000Y-95693000D03*
D13*
X173678000Y-91313000D03*
G04 #@! TA.AperFunction,SMDPad,CuDef*
D11*
G36*
X133572505Y-88201204D02*
G01*
X133596773Y-88204804D01*
X133620572Y-88210765D01*
X133643671Y-88219030D01*
X133665850Y-88229520D01*
X133686893Y-88242132D01*
X133706599Y-88256747D01*
X133724777Y-88273223D01*
X133741253Y-88291401D01*
X133755868Y-88311107D01*
X133768480Y-88332150D01*
X133778970Y-88354329D01*
X133787235Y-88377428D01*
X133793196Y-88401227D01*
X133796796Y-88425495D01*
X133798000Y-88449999D01*
X133798000Y-89350001D01*
X133796796Y-89374505D01*
X133793196Y-89398773D01*
X133787235Y-89422572D01*
X133778970Y-89445671D01*
X133768480Y-89467850D01*
X133755868Y-89488893D01*
X133741253Y-89508599D01*
X133724777Y-89526777D01*
X133706599Y-89543253D01*
X133686893Y-89557868D01*
X133665850Y-89570480D01*
X133643671Y-89580970D01*
X133620572Y-89589235D01*
X133596773Y-89595196D01*
X133572505Y-89598796D01*
X133548001Y-89600000D01*
X132897999Y-89600000D01*
X132873495Y-89598796D01*
X132849227Y-89595196D01*
X132825428Y-89589235D01*
X132802329Y-89580970D01*
X132780150Y-89570480D01*
X132759107Y-89557868D01*
X132739401Y-89543253D01*
X132721223Y-89526777D01*
X132704747Y-89508599D01*
X132690132Y-89488893D01*
X132677520Y-89467850D01*
X132667030Y-89445671D01*
X132658765Y-89422572D01*
X132652804Y-89398773D01*
X132649204Y-89374505D01*
X132648000Y-89350001D01*
X132648000Y-88449999D01*
X132649204Y-88425495D01*
X132652804Y-88401227D01*
X132658765Y-88377428D01*
X132667030Y-88354329D01*
X132677520Y-88332150D01*
X132690132Y-88311107D01*
X132704747Y-88291401D01*
X132721223Y-88273223D01*
X132739401Y-88256747D01*
X132759107Y-88242132D01*
X132780150Y-88229520D01*
X132802329Y-88219030D01*
X132825428Y-88210765D01*
X132849227Y-88204804D01*
X132873495Y-88201204D01*
X132897999Y-88200000D01*
X133548001Y-88200000D01*
X133572505Y-88201204D01*
G37*
G04 #@! TD.AperFunction*
G04 #@! TA.AperFunction,SMDPad,CuDef*
G36*
X135622505Y-88201204D02*
G01*
X135646773Y-88204804D01*
X135670572Y-88210765D01*
X135693671Y-88219030D01*
X135715850Y-88229520D01*
X135736893Y-88242132D01*
X135756599Y-88256747D01*
X135774777Y-88273223D01*
X135791253Y-88291401D01*
X135805868Y-88311107D01*
X135818480Y-88332150D01*
X135828970Y-88354329D01*
X135837235Y-88377428D01*
X135843196Y-88401227D01*
X135846796Y-88425495D01*
X135848000Y-88449999D01*
X135848000Y-89350001D01*
X135846796Y-89374505D01*
X135843196Y-89398773D01*
X135837235Y-89422572D01*
X135828970Y-89445671D01*
X135818480Y-89467850D01*
X135805868Y-89488893D01*
X135791253Y-89508599D01*
X135774777Y-89526777D01*
X135756599Y-89543253D01*
X135736893Y-89557868D01*
X135715850Y-89570480D01*
X135693671Y-89580970D01*
X135670572Y-89589235D01*
X135646773Y-89595196D01*
X135622505Y-89598796D01*
X135598001Y-89600000D01*
X134947999Y-89600000D01*
X134923495Y-89598796D01*
X134899227Y-89595196D01*
X134875428Y-89589235D01*
X134852329Y-89580970D01*
X134830150Y-89570480D01*
X134809107Y-89557868D01*
X134789401Y-89543253D01*
X134771223Y-89526777D01*
X134754747Y-89508599D01*
X134740132Y-89488893D01*
X134727520Y-89467850D01*
X134717030Y-89445671D01*
X134708765Y-89422572D01*
X134702804Y-89398773D01*
X134699204Y-89374505D01*
X134698000Y-89350001D01*
X134698000Y-88449999D01*
X134699204Y-88425495D01*
X134702804Y-88401227D01*
X134708765Y-88377428D01*
X134717030Y-88354329D01*
X134727520Y-88332150D01*
X134740132Y-88311107D01*
X134754747Y-88291401D01*
X134771223Y-88273223D01*
X134789401Y-88256747D01*
X134809107Y-88242132D01*
X134830150Y-88229520D01*
X134852329Y-88219030D01*
X134875428Y-88210765D01*
X134899227Y-88204804D01*
X134923495Y-88201204D01*
X134947999Y-88200000D01*
X135598001Y-88200000D01*
X135622505Y-88201204D01*
G37*
G04 #@! TD.AperFunction*
G04 #@! TA.AperFunction,SMDPad,CuDef*
G36*
X156811505Y-90376204D02*
G01*
X156835773Y-90379804D01*
X156859572Y-90385765D01*
X156882671Y-90394030D01*
X156904850Y-90404520D01*
X156925893Y-90417132D01*
X156945599Y-90431747D01*
X156963777Y-90448223D01*
X156980253Y-90466401D01*
X156994868Y-90486107D01*
X157007480Y-90507150D01*
X157017970Y-90529329D01*
X157026235Y-90552428D01*
X157032196Y-90576227D01*
X157035796Y-90600495D01*
X157037000Y-90624999D01*
X157037000Y-91275001D01*
X157035796Y-91299505D01*
X157032196Y-91323773D01*
X157026235Y-91347572D01*
X157017970Y-91370671D01*
X157007480Y-91392850D01*
X156994868Y-91413893D01*
X156980253Y-91433599D01*
X156963777Y-91451777D01*
X156945599Y-91468253D01*
X156925893Y-91482868D01*
X156904850Y-91495480D01*
X156882671Y-91505970D01*
X156859572Y-91514235D01*
X156835773Y-91520196D01*
X156811505Y-91523796D01*
X156787001Y-91525000D01*
X155886999Y-91525000D01*
X155862495Y-91523796D01*
X155838227Y-91520196D01*
X155814428Y-91514235D01*
X155791329Y-91505970D01*
X155769150Y-91495480D01*
X155748107Y-91482868D01*
X155728401Y-91468253D01*
X155710223Y-91451777D01*
X155693747Y-91433599D01*
X155679132Y-91413893D01*
X155666520Y-91392850D01*
X155656030Y-91370671D01*
X155647765Y-91347572D01*
X155641804Y-91323773D01*
X155638204Y-91299505D01*
X155637000Y-91275001D01*
X155637000Y-90624999D01*
X155638204Y-90600495D01*
X155641804Y-90576227D01*
X155647765Y-90552428D01*
X155656030Y-90529329D01*
X155666520Y-90507150D01*
X155679132Y-90486107D01*
X155693747Y-90466401D01*
X155710223Y-90448223D01*
X155728401Y-90431747D01*
X155748107Y-90417132D01*
X155769150Y-90404520D01*
X155791329Y-90394030D01*
X155814428Y-90385765D01*
X155838227Y-90379804D01*
X155862495Y-90376204D01*
X155886999Y-90375000D01*
X156787001Y-90375000D01*
X156811505Y-90376204D01*
G37*
G04 #@! TD.AperFunction*
G04 #@! TA.AperFunction,SMDPad,CuDef*
G36*
X156811505Y-88326204D02*
G01*
X156835773Y-88329804D01*
X156859572Y-88335765D01*
X156882671Y-88344030D01*
X156904850Y-88354520D01*
X156925893Y-88367132D01*
X156945599Y-88381747D01*
X156963777Y-88398223D01*
X156980253Y-88416401D01*
X156994868Y-88436107D01*
X157007480Y-88457150D01*
X157017970Y-88479329D01*
X157026235Y-88502428D01*
X157032196Y-88526227D01*
X157035796Y-88550495D01*
X157037000Y-88574999D01*
X157037000Y-89225001D01*
X157035796Y-89249505D01*
X157032196Y-89273773D01*
X157026235Y-89297572D01*
X157017970Y-89320671D01*
X157007480Y-89342850D01*
X156994868Y-89363893D01*
X156980253Y-89383599D01*
X156963777Y-89401777D01*
X156945599Y-89418253D01*
X156925893Y-89432868D01*
X156904850Y-89445480D01*
X156882671Y-89455970D01*
X156859572Y-89464235D01*
X156835773Y-89470196D01*
X156811505Y-89473796D01*
X156787001Y-89475000D01*
X155886999Y-89475000D01*
X155862495Y-89473796D01*
X155838227Y-89470196D01*
X155814428Y-89464235D01*
X155791329Y-89455970D01*
X155769150Y-89445480D01*
X155748107Y-89432868D01*
X155728401Y-89418253D01*
X155710223Y-89401777D01*
X155693747Y-89383599D01*
X155679132Y-89363893D01*
X155666520Y-89342850D01*
X155656030Y-89320671D01*
X155647765Y-89297572D01*
X155641804Y-89273773D01*
X155638204Y-89249505D01*
X155637000Y-89225001D01*
X155637000Y-88574999D01*
X155638204Y-88550495D01*
X155641804Y-88526227D01*
X155647765Y-88502428D01*
X155656030Y-88479329D01*
X155666520Y-88457150D01*
X155679132Y-88436107D01*
X155693747Y-88416401D01*
X155710223Y-88398223D01*
X155728401Y-88381747D01*
X155748107Y-88367132D01*
X155769150Y-88354520D01*
X155791329Y-88344030D01*
X155814428Y-88335765D01*
X155838227Y-88329804D01*
X155862495Y-88326204D01*
X155886999Y-88325000D01*
X156787001Y-88325000D01*
X156811505Y-88326204D01*
G37*
G04 #@! TD.AperFunction*
G04 #@! TA.AperFunction,SMDPad,CuDef*
G36*
X130415505Y-88201204D02*
G01*
X130439773Y-88204804D01*
X130463572Y-88210765D01*
X130486671Y-88219030D01*
X130508850Y-88229520D01*
X130529893Y-88242132D01*
X130549599Y-88256747D01*
X130567777Y-88273223D01*
X130584253Y-88291401D01*
X130598868Y-88311107D01*
X130611480Y-88332150D01*
X130621970Y-88354329D01*
X130630235Y-88377428D01*
X130636196Y-88401227D01*
X130639796Y-88425495D01*
X130641000Y-88449999D01*
X130641000Y-89350001D01*
X130639796Y-89374505D01*
X130636196Y-89398773D01*
X130630235Y-89422572D01*
X130621970Y-89445671D01*
X130611480Y-89467850D01*
X130598868Y-89488893D01*
X130584253Y-89508599D01*
X130567777Y-89526777D01*
X130549599Y-89543253D01*
X130529893Y-89557868D01*
X130508850Y-89570480D01*
X130486671Y-89580970D01*
X130463572Y-89589235D01*
X130439773Y-89595196D01*
X130415505Y-89598796D01*
X130391001Y-89600000D01*
X129740999Y-89600000D01*
X129716495Y-89598796D01*
X129692227Y-89595196D01*
X129668428Y-89589235D01*
X129645329Y-89580970D01*
X129623150Y-89570480D01*
X129602107Y-89557868D01*
X129582401Y-89543253D01*
X129564223Y-89526777D01*
X129547747Y-89508599D01*
X129533132Y-89488893D01*
X129520520Y-89467850D01*
X129510030Y-89445671D01*
X129501765Y-89422572D01*
X129495804Y-89398773D01*
X129492204Y-89374505D01*
X129491000Y-89350001D01*
X129491000Y-88449999D01*
X129492204Y-88425495D01*
X129495804Y-88401227D01*
X129501765Y-88377428D01*
X129510030Y-88354329D01*
X129520520Y-88332150D01*
X129533132Y-88311107D01*
X129547747Y-88291401D01*
X129564223Y-88273223D01*
X129582401Y-88256747D01*
X129602107Y-88242132D01*
X129623150Y-88229520D01*
X129645329Y-88219030D01*
X129668428Y-88210765D01*
X129692227Y-88204804D01*
X129716495Y-88201204D01*
X129740999Y-88200000D01*
X130391001Y-88200000D01*
X130415505Y-88201204D01*
G37*
G04 #@! TD.AperFunction*
G04 #@! TA.AperFunction,SMDPad,CuDef*
G36*
X128365505Y-88201204D02*
G01*
X128389773Y-88204804D01*
X128413572Y-88210765D01*
X128436671Y-88219030D01*
X128458850Y-88229520D01*
X128479893Y-88242132D01*
X128499599Y-88256747D01*
X128517777Y-88273223D01*
X128534253Y-88291401D01*
X128548868Y-88311107D01*
X128561480Y-88332150D01*
X128571970Y-88354329D01*
X128580235Y-88377428D01*
X128586196Y-88401227D01*
X128589796Y-88425495D01*
X128591000Y-88449999D01*
X128591000Y-89350001D01*
X128589796Y-89374505D01*
X128586196Y-89398773D01*
X128580235Y-89422572D01*
X128571970Y-89445671D01*
X128561480Y-89467850D01*
X128548868Y-89488893D01*
X128534253Y-89508599D01*
X128517777Y-89526777D01*
X128499599Y-89543253D01*
X128479893Y-89557868D01*
X128458850Y-89570480D01*
X128436671Y-89580970D01*
X128413572Y-89589235D01*
X128389773Y-89595196D01*
X128365505Y-89598796D01*
X128341001Y-89600000D01*
X127690999Y-89600000D01*
X127666495Y-89598796D01*
X127642227Y-89595196D01*
X127618428Y-89589235D01*
X127595329Y-89580970D01*
X127573150Y-89570480D01*
X127552107Y-89557868D01*
X127532401Y-89543253D01*
X127514223Y-89526777D01*
X127497747Y-89508599D01*
X127483132Y-89488893D01*
X127470520Y-89467850D01*
X127460030Y-89445671D01*
X127451765Y-89422572D01*
X127445804Y-89398773D01*
X127442204Y-89374505D01*
X127441000Y-89350001D01*
X127441000Y-88449999D01*
X127442204Y-88425495D01*
X127445804Y-88401227D01*
X127451765Y-88377428D01*
X127460030Y-88354329D01*
X127470520Y-88332150D01*
X127483132Y-88311107D01*
X127497747Y-88291401D01*
X127514223Y-88273223D01*
X127532401Y-88256747D01*
X127552107Y-88242132D01*
X127573150Y-88229520D01*
X127595329Y-88219030D01*
X127618428Y-88210765D01*
X127642227Y-88204804D01*
X127666495Y-88201204D01*
X127690999Y-88200000D01*
X128341001Y-88200000D01*
X128365505Y-88201204D01*
G37*
G04 #@! TD.AperFunction*
G04 #@! TA.AperFunction,SMDPad,CuDef*
G36*
X150082505Y-88201204D02*
G01*
X150106773Y-88204804D01*
X150130572Y-88210765D01*
X150153671Y-88219030D01*
X150175850Y-88229520D01*
X150196893Y-88242132D01*
X150216599Y-88256747D01*
X150234777Y-88273223D01*
X150251253Y-88291401D01*
X150265868Y-88311107D01*
X150278480Y-88332150D01*
X150288970Y-88354329D01*
X150297235Y-88377428D01*
X150303196Y-88401227D01*
X150306796Y-88425495D01*
X150308000Y-88449999D01*
X150308000Y-89350001D01*
X150306796Y-89374505D01*
X150303196Y-89398773D01*
X150297235Y-89422572D01*
X150288970Y-89445671D01*
X150278480Y-89467850D01*
X150265868Y-89488893D01*
X150251253Y-89508599D01*
X150234777Y-89526777D01*
X150216599Y-89543253D01*
X150196893Y-89557868D01*
X150175850Y-89570480D01*
X150153671Y-89580970D01*
X150130572Y-89589235D01*
X150106773Y-89595196D01*
X150082505Y-89598796D01*
X150058001Y-89600000D01*
X149407999Y-89600000D01*
X149383495Y-89598796D01*
X149359227Y-89595196D01*
X149335428Y-89589235D01*
X149312329Y-89580970D01*
X149290150Y-89570480D01*
X149269107Y-89557868D01*
X149249401Y-89543253D01*
X149231223Y-89526777D01*
X149214747Y-89508599D01*
X149200132Y-89488893D01*
X149187520Y-89467850D01*
X149177030Y-89445671D01*
X149168765Y-89422572D01*
X149162804Y-89398773D01*
X149159204Y-89374505D01*
X149158000Y-89350001D01*
X149158000Y-88449999D01*
X149159204Y-88425495D01*
X149162804Y-88401227D01*
X149168765Y-88377428D01*
X149177030Y-88354329D01*
X149187520Y-88332150D01*
X149200132Y-88311107D01*
X149214747Y-88291401D01*
X149231223Y-88273223D01*
X149249401Y-88256747D01*
X149269107Y-88242132D01*
X149290150Y-88229520D01*
X149312329Y-88219030D01*
X149335428Y-88210765D01*
X149359227Y-88204804D01*
X149383495Y-88201204D01*
X149407999Y-88200000D01*
X150058001Y-88200000D01*
X150082505Y-88201204D01*
G37*
G04 #@! TD.AperFunction*
G04 #@! TA.AperFunction,SMDPad,CuDef*
G36*
X152132505Y-88201204D02*
G01*
X152156773Y-88204804D01*
X152180572Y-88210765D01*
X152203671Y-88219030D01*
X152225850Y-88229520D01*
X152246893Y-88242132D01*
X152266599Y-88256747D01*
X152284777Y-88273223D01*
X152301253Y-88291401D01*
X152315868Y-88311107D01*
X152328480Y-88332150D01*
X152338970Y-88354329D01*
X152347235Y-88377428D01*
X152353196Y-88401227D01*
X152356796Y-88425495D01*
X152358000Y-88449999D01*
X152358000Y-89350001D01*
X152356796Y-89374505D01*
X152353196Y-89398773D01*
X152347235Y-89422572D01*
X152338970Y-89445671D01*
X152328480Y-89467850D01*
X152315868Y-89488893D01*
X152301253Y-89508599D01*
X152284777Y-89526777D01*
X152266599Y-89543253D01*
X152246893Y-89557868D01*
X152225850Y-89570480D01*
X152203671Y-89580970D01*
X152180572Y-89589235D01*
X152156773Y-89595196D01*
X152132505Y-89598796D01*
X152108001Y-89600000D01*
X151457999Y-89600000D01*
X151433495Y-89598796D01*
X151409227Y-89595196D01*
X151385428Y-89589235D01*
X151362329Y-89580970D01*
X151340150Y-89570480D01*
X151319107Y-89557868D01*
X151299401Y-89543253D01*
X151281223Y-89526777D01*
X151264747Y-89508599D01*
X151250132Y-89488893D01*
X151237520Y-89467850D01*
X151227030Y-89445671D01*
X151218765Y-89422572D01*
X151212804Y-89398773D01*
X151209204Y-89374505D01*
X151208000Y-89350001D01*
X151208000Y-88449999D01*
X151209204Y-88425495D01*
X151212804Y-88401227D01*
X151218765Y-88377428D01*
X151227030Y-88354329D01*
X151237520Y-88332150D01*
X151250132Y-88311107D01*
X151264747Y-88291401D01*
X151281223Y-88273223D01*
X151299401Y-88256747D01*
X151319107Y-88242132D01*
X151340150Y-88229520D01*
X151362329Y-88219030D01*
X151385428Y-88210765D01*
X151409227Y-88204804D01*
X151433495Y-88201204D01*
X151457999Y-88200000D01*
X152108001Y-88200000D01*
X152132505Y-88201204D01*
G37*
G04 #@! TD.AperFunction*
D17*
X139954000Y-94234000D03*
X139954000Y-84582000D03*
D18*
X116695000Y-88900000D02*
X116713000Y-88882000D01*
X107500000Y-88900000D02*
X116695000Y-88900000D01*
X122156000Y-88882000D02*
X122174000Y-88900000D01*
X116713000Y-88882000D02*
X122156000Y-88882000D01*
X122174000Y-88900000D02*
X128016000Y-88900000D01*
X135273000Y-88900000D02*
X139700000Y-88900000D01*
X140400000Y-88900000D02*
X144780000Y-88900000D01*
X139700000Y-88900000D02*
X140400000Y-88900000D01*
X144780000Y-88900000D02*
X149733000Y-88900000D01*
X160310000Y-90950000D02*
X160401000Y-91041000D01*
X156337000Y-90950000D02*
X160310000Y-90950000D01*
X160419000Y-91059000D02*
X160401000Y-91041000D01*
X164719000Y-91059000D02*
X160419000Y-91059000D01*
X173424000Y-91059000D02*
X173678000Y-91313000D01*
X164719000Y-91059000D02*
X173424000Y-91059000D01*
X130066000Y-88900000D02*
X133223000Y-88900000D01*
X152358000Y-88900000D02*
X156337000Y-88900000D01*
X151783000Y-88900000D02*
X152358000Y-88900000D01*
D19*
G36*
X120535928Y-89650000D02*
G01*
X120548188Y-89774482D01*
X120584498Y-89894180D01*
X120643463Y-90004494D01*
X120722815Y-90101185D01*
X120819506Y-90180537D01*
X120929820Y-90239502D01*
X121049518Y-90275812D01*
X121174000Y-90288072D01*
X123174000Y-90288072D01*
X123298482Y-90275812D01*
X123418180Y-90239502D01*
X123528494Y-90180537D01*
X123625185Y-90101185D01*
X123704537Y-90004494D01*
X123763502Y-89894180D01*
X123799812Y-89774482D01*
X123811087Y-89660000D01*
X126861473Y-89660000D01*
X126870528Y-89689851D01*
X126952595Y-89843387D01*
X127063038Y-89977962D01*
X127197613Y-90088405D01*
X127351149Y-90170472D01*
X127517745Y-90221008D01*
X127690999Y-90238072D01*
X128341001Y-90238072D01*
X128514255Y-90221008D01*
X128680851Y-90170472D01*
X128834387Y-90088405D01*
X128968962Y-89977962D01*
X129041000Y-89890184D01*
X129113038Y-89977962D01*
X129247613Y-90088405D01*
X129401149Y-90170472D01*
X129567745Y-90221008D01*
X129740999Y-90238072D01*
X130391001Y-90238072D01*
X130564255Y-90221008D01*
X130730851Y-90170472D01*
X130884387Y-90088405D01*
X131018962Y-89977962D01*
X131129405Y-89843387D01*
X131211472Y-89689851D01*
X131220527Y-89660000D01*
X132068473Y-89660000D01*
X132077528Y-89689851D01*
X132159595Y-89843387D01*
X132270038Y-89977962D01*
X132404613Y-90088405D01*
X132558149Y-90170472D01*
X132724745Y-90221008D01*
X132897999Y-90238072D01*
X133548001Y-90238072D01*
X133721255Y-90221008D01*
X133887851Y-90170472D01*
X134041387Y-90088405D01*
X134175962Y-89977962D01*
X134248000Y-89890184D01*
X134320038Y-89977962D01*
X134454613Y-90088405D01*
X134608149Y-90170472D01*
X134774745Y-90221008D01*
X134947999Y-90238072D01*
X135598001Y-90238072D01*
X135771255Y-90221008D01*
X135937851Y-90170472D01*
X136091387Y-90088405D01*
X136225962Y-89977962D01*
X136336405Y-89843387D01*
X136418472Y-89689851D01*
X136427527Y-89660000D01*
X138480386Y-89660000D01*
X138511595Y-89718387D01*
X138622038Y-89852962D01*
X138756613Y-89963405D01*
X138910149Y-90045472D01*
X139076745Y-90096008D01*
X139249999Y-90113072D01*
X140150001Y-90113072D01*
X140323255Y-90096008D01*
X140489851Y-90045472D01*
X140643387Y-89963405D01*
X140777962Y-89852962D01*
X140888405Y-89718387D01*
X140919614Y-89660000D01*
X143142913Y-89660000D01*
X143154188Y-89774482D01*
X143190498Y-89894180D01*
X143249463Y-90004494D01*
X143328815Y-90101185D01*
X143425506Y-90180537D01*
X143535820Y-90239502D01*
X143655518Y-90275812D01*
X143780000Y-90288072D01*
X145780000Y-90288072D01*
X145904482Y-90275812D01*
X146024180Y-90239502D01*
X146134494Y-90180537D01*
X146231185Y-90101185D01*
X146310537Y-90004494D01*
X146369502Y-89894180D01*
X146405812Y-89774482D01*
X146417087Y-89660000D01*
X148578473Y-89660000D01*
X148587528Y-89689851D01*
X148669595Y-89843387D01*
X148780038Y-89977962D01*
X148914613Y-90088405D01*
X149068149Y-90170472D01*
X149234745Y-90221008D01*
X149407999Y-90238072D01*
X150058001Y-90238072D01*
X150231255Y-90221008D01*
X150397851Y-90170472D01*
X150551387Y-90088405D01*
X150685962Y-89977962D01*
X150758000Y-89890184D01*
X150830038Y-89977962D01*
X150964613Y-90088405D01*
X151118149Y-90170472D01*
X151284745Y-90221008D01*
X151457999Y-90238072D01*
X152108001Y-90238072D01*
X152281255Y-90221008D01*
X152447851Y-90170472D01*
X152601387Y-90088405D01*
X152735962Y-89977962D01*
X152846405Y-89843387D01*
X152928472Y-89689851D01*
X152937527Y-89660000D01*
X155117386Y-89660000D01*
X155148595Y-89718387D01*
X155259038Y-89852962D01*
X155346816Y-89925000D01*
X155259038Y-89997038D01*
X155148595Y-90131613D01*
X155066528Y-90285149D01*
X155015992Y-90451745D01*
X154998928Y-90624999D01*
X154998928Y-91275001D01*
X155015992Y-91448255D01*
X155066528Y-91614851D01*
X155148595Y-91768387D01*
X155259038Y-91902962D01*
X155393613Y-92013405D01*
X155547149Y-92095472D01*
X155713745Y-92146008D01*
X155886999Y-92163072D01*
X156787001Y-92163072D01*
X156960255Y-92146008D01*
X157126851Y-92095472D01*
X157280387Y-92013405D01*
X157414962Y-91902962D01*
X157525405Y-91768387D01*
X157556614Y-91710000D01*
X159132746Y-91710000D01*
X159212595Y-91859387D01*
X159323038Y-91993962D01*
X159457613Y-92104405D01*
X159611149Y-92186472D01*
X159777745Y-92237008D01*
X159950999Y-92254072D01*
X160851001Y-92254072D01*
X161024255Y-92237008D01*
X161190851Y-92186472D01*
X161344387Y-92104405D01*
X161478962Y-91993962D01*
X161589405Y-91859387D01*
X161610992Y-91819000D01*
X163081913Y-91819000D01*
X163093188Y-91933482D01*
X163129498Y-92053180D01*
X163188463Y-92163494D01*
X163267815Y-92260185D01*
X163364506Y-92339537D01*
X163474820Y-92398502D01*
X163594518Y-92434812D01*
X163719000Y-92447072D01*
X165719000Y-92447072D01*
X165843482Y-92434812D01*
X165963180Y-92398502D01*
X166073494Y-92339537D01*
X166170185Y-92260185D01*
X166249537Y-92163494D01*
X166308502Y-92053180D01*
X166344812Y-91933482D01*
X166356087Y-91819000D01*
X170499928Y-91819000D01*
X170499928Y-92458000D01*
X170512188Y-92582482D01*
X170548498Y-92702180D01*
X170607463Y-92812494D01*
X170686815Y-92909185D01*
X170783506Y-92988537D01*
X170893820Y-93047502D01*
X171013518Y-93083812D01*
X171138000Y-93096072D01*
X175870000Y-93096072D01*
X175870000Y-100305000D01*
X113620143Y-100305000D01*
X113620143Y-96762000D01*
X105835857Y-96762000D01*
X105835857Y-100305000D01*
X105435000Y-100305000D01*
X105435000Y-90683072D01*
X110040000Y-90683072D01*
X110164482Y-90670812D01*
X110284180Y-90634502D01*
X110394494Y-90575537D01*
X110491185Y-90496185D01*
X110570537Y-90399494D01*
X110629502Y-90289180D01*
X110665812Y-90169482D01*
X110678072Y-90045000D01*
X110678072Y-89660000D01*
X115503008Y-89660000D01*
X115524595Y-89700387D01*
X115635038Y-89834962D01*
X115769613Y-89945405D01*
X115923149Y-90027472D01*
X116089745Y-90078008D01*
X116262999Y-90095072D01*
X117163001Y-90095072D01*
X117336255Y-90078008D01*
X117502851Y-90027472D01*
X117656387Y-89945405D01*
X117790962Y-89834962D01*
X117901405Y-89700387D01*
X117932614Y-89642000D01*
X120535928Y-89642000D01*
X120535928Y-89650000D01*
G37*
X120535928Y-89650000D02*
X120548188Y-89774482D01*
X120584498Y-89894180D01*
X120643463Y-90004494D01*
X120722815Y-90101185D01*
X120819506Y-90180537D01*
X120929820Y-90239502D01*
X121049518Y-90275812D01*
X121174000Y-90288072D01*
X123174000Y-90288072D01*
X123298482Y-90275812D01*
X123418180Y-90239502D01*
X123528494Y-90180537D01*
X123625185Y-90101185D01*
X123704537Y-90004494D01*
X123763502Y-89894180D01*
X123799812Y-89774482D01*
X123811087Y-89660000D01*
X126861473Y-89660000D01*
X126870528Y-89689851D01*
X126952595Y-89843387D01*
X127063038Y-89977962D01*
X127197613Y-90088405D01*
X127351149Y-90170472D01*
X127517745Y-90221008D01*
X127690999Y-90238072D01*
X128341001Y-90238072D01*
X128514255Y-90221008D01*
X128680851Y-90170472D01*
X128834387Y-90088405D01*
X128968962Y-89977962D01*
X129041000Y-89890184D01*
X129113038Y-89977962D01*
X129247613Y-90088405D01*
X129401149Y-90170472D01*
X129567745Y-90221008D01*
X129740999Y-90238072D01*
X130391001Y-90238072D01*
X130564255Y-90221008D01*
X130730851Y-90170472D01*
X130884387Y-90088405D01*
X131018962Y-89977962D01*
X131129405Y-89843387D01*
X131211472Y-89689851D01*
X131220527Y-89660000D01*
X132068473Y-89660000D01*
X132077528Y-89689851D01*
X132159595Y-89843387D01*
X132270038Y-89977962D01*
X132404613Y-90088405D01*
X132558149Y-90170472D01*
X132724745Y-90221008D01*
X132897999Y-90238072D01*
X133548001Y-90238072D01*
X133721255Y-90221008D01*
X133887851Y-90170472D01*
X134041387Y-90088405D01*
X134175962Y-89977962D01*
X134248000Y-89890184D01*
X134320038Y-89977962D01*
X134454613Y-90088405D01*
X134608149Y-90170472D01*
X134774745Y-90221008D01*
X134947999Y-90238072D01*
X135598001Y-90238072D01*
X135771255Y-90221008D01*
X135937851Y-90170472D01*
X136091387Y-90088405D01*
X136225962Y-89977962D01*
X136336405Y-89843387D01*
X136418472Y-89689851D01*
X136427527Y-89660000D01*
X138480386Y-89660000D01*
X138511595Y-89718387D01*
X138622038Y-89852962D01*
X138756613Y-89963405D01*
X138910149Y-90045472D01*
X139076745Y-90096008D01*
X139249999Y-90113072D01*
X140150001Y-90113072D01*
X140323255Y-90096008D01*
X140489851Y-90045472D01*
X140643387Y-89963405D01*
X140777962Y-89852962D01*
X140888405Y-89718387D01*
X140919614Y-89660000D01*
X143142913Y-89660000D01*
X143154188Y-89774482D01*
X143190498Y-89894180D01*
X143249463Y-90004494D01*
X143328815Y-90101185D01*
X143425506Y-90180537D01*
X143535820Y-90239502D01*
X143655518Y-90275812D01*
X143780000Y-90288072D01*
X145780000Y-90288072D01*
X145904482Y-90275812D01*
X146024180Y-90239502D01*
X146134494Y-90180537D01*
X146231185Y-90101185D01*
X146310537Y-90004494D01*
X146369502Y-89894180D01*
X146405812Y-89774482D01*
X146417087Y-89660000D01*
X148578473Y-89660000D01*
X148587528Y-89689851D01*
X148669595Y-89843387D01*
X148780038Y-89977962D01*
X148914613Y-90088405D01*
X149068149Y-90170472D01*
X149234745Y-90221008D01*
X149407999Y-90238072D01*
X150058001Y-90238072D01*
X150231255Y-90221008D01*
X150397851Y-90170472D01*
X150551387Y-90088405D01*
X150685962Y-89977962D01*
X150758000Y-89890184D01*
X150830038Y-89977962D01*
X150964613Y-90088405D01*
X151118149Y-90170472D01*
X151284745Y-90221008D01*
X151457999Y-90238072D01*
X152108001Y-90238072D01*
X152281255Y-90221008D01*
X152447851Y-90170472D01*
X152601387Y-90088405D01*
X152735962Y-89977962D01*
X152846405Y-89843387D01*
X152928472Y-89689851D01*
X152937527Y-89660000D01*
X155117386Y-89660000D01*
X155148595Y-89718387D01*
X155259038Y-89852962D01*
X155346816Y-89925000D01*
X155259038Y-89997038D01*
X155148595Y-90131613D01*
X155066528Y-90285149D01*
X155015992Y-90451745D01*
X154998928Y-90624999D01*
X154998928Y-91275001D01*
X155015992Y-91448255D01*
X155066528Y-91614851D01*
X155148595Y-91768387D01*
X155259038Y-91902962D01*
X155393613Y-92013405D01*
X155547149Y-92095472D01*
X155713745Y-92146008D01*
X155886999Y-92163072D01*
X156787001Y-92163072D01*
X156960255Y-92146008D01*
X157126851Y-92095472D01*
X157280387Y-92013405D01*
X157414962Y-91902962D01*
X157525405Y-91768387D01*
X157556614Y-91710000D01*
X159132746Y-91710000D01*
X159212595Y-91859387D01*
X159323038Y-91993962D01*
X159457613Y-92104405D01*
X159611149Y-92186472D01*
X159777745Y-92237008D01*
X159950999Y-92254072D01*
X160851001Y-92254072D01*
X161024255Y-92237008D01*
X161190851Y-92186472D01*
X161344387Y-92104405D01*
X161478962Y-91993962D01*
X161589405Y-91859387D01*
X161610992Y-91819000D01*
X163081913Y-91819000D01*
X163093188Y-91933482D01*
X163129498Y-92053180D01*
X163188463Y-92163494D01*
X163267815Y-92260185D01*
X163364506Y-92339537D01*
X163474820Y-92398502D01*
X163594518Y-92434812D01*
X163719000Y-92447072D01*
X165719000Y-92447072D01*
X165843482Y-92434812D01*
X165963180Y-92398502D01*
X166073494Y-92339537D01*
X166170185Y-92260185D01*
X166249537Y-92163494D01*
X166308502Y-92053180D01*
X166344812Y-91933482D01*
X166356087Y-91819000D01*
X170499928Y-91819000D01*
X170499928Y-92458000D01*
X170512188Y-92582482D01*
X170548498Y-92702180D01*
X170607463Y-92812494D01*
X170686815Y-92909185D01*
X170783506Y-92988537D01*
X170893820Y-93047502D01*
X171013518Y-93083812D01*
X171138000Y-93096072D01*
X175870000Y-93096072D01*
X175870000Y-100305000D01*
X113620143Y-100305000D01*
X113620143Y-96762000D01*
X105835857Y-96762000D01*
X105835857Y-100305000D01*
X105435000Y-100305000D01*
X105435000Y-90683072D01*
X110040000Y-90683072D01*
X110164482Y-90670812D01*
X110284180Y-90634502D01*
X110394494Y-90575537D01*
X110491185Y-90496185D01*
X110570537Y-90399494D01*
X110629502Y-90289180D01*
X110665812Y-90169482D01*
X110678072Y-90045000D01*
X110678072Y-89660000D01*
X115503008Y-89660000D01*
X115524595Y-89700387D01*
X115635038Y-89834962D01*
X115769613Y-89945405D01*
X115923149Y-90027472D01*
X116089745Y-90078008D01*
X116262999Y-90095072D01*
X117163001Y-90095072D01*
X117336255Y-90078008D01*
X117502851Y-90027472D01*
X117656387Y-89945405D01*
X117790962Y-89834962D01*
X117901405Y-89700387D01*
X117932614Y-89642000D01*
X120535928Y-89642000D01*
X120535928Y-89650000D01*
G36*
X175870001Y-89529928D02*
G01*
X171138000Y-89529928D01*
X171013518Y-89542188D01*
X170893820Y-89578498D01*
X170783506Y-89637463D01*
X170686815Y-89716815D01*
X170607463Y-89813506D01*
X170548498Y-89923820D01*
X170512188Y-90043518D01*
X170499928Y-90168000D01*
X170499928Y-90299000D01*
X166356087Y-90299000D01*
X166344812Y-90184518D01*
X166308502Y-90064820D01*
X166249537Y-89954506D01*
X166170185Y-89857815D01*
X166073494Y-89778463D01*
X165963180Y-89719498D01*
X165843482Y-89683188D01*
X165719000Y-89670928D01*
X163719000Y-89670928D01*
X163594518Y-89683188D01*
X163474820Y-89719498D01*
X163364506Y-89778463D01*
X163267815Y-89857815D01*
X163188463Y-89954506D01*
X163129498Y-90064820D01*
X163093188Y-90184518D01*
X163081913Y-90299000D01*
X161630235Y-90299000D01*
X161589405Y-90222613D01*
X161478962Y-90088038D01*
X161344387Y-89977595D01*
X161190851Y-89895528D01*
X161024255Y-89844992D01*
X160851001Y-89827928D01*
X159950999Y-89827928D01*
X159777745Y-89844992D01*
X159611149Y-89895528D01*
X159457613Y-89977595D01*
X159323038Y-90088038D01*
X159239360Y-90190000D01*
X157556614Y-90190000D01*
X157525405Y-90131613D01*
X157414962Y-89997038D01*
X157327184Y-89925000D01*
X157414962Y-89852962D01*
X157525405Y-89718387D01*
X157607472Y-89564851D01*
X157658008Y-89398255D01*
X157675072Y-89225001D01*
X157675072Y-88574999D01*
X157658008Y-88401745D01*
X157607472Y-88235149D01*
X157525405Y-88081613D01*
X157414962Y-87947038D01*
X157280387Y-87836595D01*
X157126851Y-87754528D01*
X156960255Y-87703992D01*
X156787001Y-87686928D01*
X155886999Y-87686928D01*
X155713745Y-87703992D01*
X155547149Y-87754528D01*
X155393613Y-87836595D01*
X155259038Y-87947038D01*
X155148595Y-88081613D01*
X155117386Y-88140000D01*
X152937527Y-88140000D01*
X152928472Y-88110149D01*
X152846405Y-87956613D01*
X152735962Y-87822038D01*
X152601387Y-87711595D01*
X152447851Y-87629528D01*
X152281255Y-87578992D01*
X152108001Y-87561928D01*
X151457999Y-87561928D01*
X151284745Y-87578992D01*
X151118149Y-87629528D01*
X150964613Y-87711595D01*
X150830038Y-87822038D01*
X150758000Y-87909816D01*
X150685962Y-87822038D01*
X150551387Y-87711595D01*
X150397851Y-87629528D01*
X150231255Y-87578992D01*
X150058001Y-87561928D01*
X149407999Y-87561928D01*
X149234745Y-87578992D01*
X149068149Y-87629528D01*
X148914613Y-87711595D01*
X148780038Y-87822038D01*
X148669595Y-87956613D01*
X148587528Y-88110149D01*
X148578473Y-88140000D01*
X146417087Y-88140000D01*
X146405812Y-88025518D01*
X146369502Y-87905820D01*
X146310537Y-87795506D01*
X146231185Y-87698815D01*
X146134494Y-87619463D01*
X146024180Y-87560498D01*
X145904482Y-87524188D01*
X145780000Y-87511928D01*
X143780000Y-87511928D01*
X143655518Y-87524188D01*
X143535820Y-87560498D01*
X143425506Y-87619463D01*
X143328815Y-87698815D01*
X143249463Y-87795506D01*
X143190498Y-87905820D01*
X143154188Y-88025518D01*
X143142913Y-88140000D01*
X140919614Y-88140000D01*
X140888405Y-88081613D01*
X140777962Y-87947038D01*
X140643387Y-87836595D01*
X140489851Y-87754528D01*
X140323255Y-87703992D01*
X140150001Y-87686928D01*
X139249999Y-87686928D01*
X139076745Y-87703992D01*
X138910149Y-87754528D01*
X138756613Y-87836595D01*
X138622038Y-87947038D01*
X138511595Y-88081613D01*
X138480386Y-88140000D01*
X136427527Y-88140000D01*
X136418472Y-88110149D01*
X136336405Y-87956613D01*
X136225962Y-87822038D01*
X136091387Y-87711595D01*
X135937851Y-87629528D01*
X135771255Y-87578992D01*
X135598001Y-87561928D01*
X134947999Y-87561928D01*
X134774745Y-87578992D01*
X134608149Y-87629528D01*
X134454613Y-87711595D01*
X134320038Y-87822038D01*
X134248000Y-87909816D01*
X134175962Y-87822038D01*
X134041387Y-87711595D01*
X133887851Y-87629528D01*
X133721255Y-87578992D01*
X133548001Y-87561928D01*
X132897999Y-87561928D01*
X132724745Y-87578992D01*
X132558149Y-87629528D01*
X132404613Y-87711595D01*
X132270038Y-87822038D01*
X132159595Y-87956613D01*
X132077528Y-88110149D01*
X132068473Y-88140000D01*
X131220527Y-88140000D01*
X131211472Y-88110149D01*
X131129405Y-87956613D01*
X131018962Y-87822038D01*
X130884387Y-87711595D01*
X130730851Y-87629528D01*
X130564255Y-87578992D01*
X130391001Y-87561928D01*
X129740999Y-87561928D01*
X129567745Y-87578992D01*
X129401149Y-87629528D01*
X129247613Y-87711595D01*
X129113038Y-87822038D01*
X129041000Y-87909816D01*
X128968962Y-87822038D01*
X128834387Y-87711595D01*
X128680851Y-87629528D01*
X128514255Y-87578992D01*
X128341001Y-87561928D01*
X127690999Y-87561928D01*
X127517745Y-87578992D01*
X127351149Y-87629528D01*
X127197613Y-87711595D01*
X127063038Y-87822038D01*
X126952595Y-87956613D01*
X126870528Y-88110149D01*
X126861473Y-88140000D01*
X123811087Y-88140000D01*
X123799812Y-88025518D01*
X123763502Y-87905820D01*
X123704537Y-87795506D01*
X123625185Y-87698815D01*
X123528494Y-87619463D01*
X123418180Y-87560498D01*
X123298482Y-87524188D01*
X123174000Y-87511928D01*
X121174000Y-87511928D01*
X121049518Y-87524188D01*
X120929820Y-87560498D01*
X120819506Y-87619463D01*
X120722815Y-87698815D01*
X120643463Y-87795506D01*
X120584498Y-87905820D01*
X120548188Y-88025518D01*
X120538686Y-88122000D01*
X117932614Y-88122000D01*
X117901405Y-88063613D01*
X117790962Y-87929038D01*
X117656387Y-87818595D01*
X117502851Y-87736528D01*
X117336255Y-87685992D01*
X117163001Y-87668928D01*
X116262999Y-87668928D01*
X116089745Y-87685992D01*
X115923149Y-87736528D01*
X115769613Y-87818595D01*
X115635038Y-87929038D01*
X115524595Y-88063613D01*
X115483765Y-88140000D01*
X110678072Y-88140000D01*
X110678072Y-87755000D01*
X110665812Y-87630518D01*
X110629502Y-87510820D01*
X110570537Y-87400506D01*
X110491185Y-87303815D01*
X110394494Y-87224463D01*
X110284180Y-87165498D01*
X110164482Y-87129188D01*
X110040000Y-87116928D01*
X105435000Y-87116928D01*
X105435000Y-82284000D01*
X159890143Y-82284000D01*
X159890143Y-86104000D01*
X166245857Y-86104000D01*
X166245857Y-82284000D01*
X159890143Y-82284000D01*
X105435000Y-82284000D01*
X105435000Y-81940000D01*
X175870001Y-81940000D01*
X175870001Y-89529928D01*
G37*
X175870001Y-89529928D02*
X171138000Y-89529928D01*
X171013518Y-89542188D01*
X170893820Y-89578498D01*
X170783506Y-89637463D01*
X170686815Y-89716815D01*
X170607463Y-89813506D01*
X170548498Y-89923820D01*
X170512188Y-90043518D01*
X170499928Y-90168000D01*
X170499928Y-90299000D01*
X166356087Y-90299000D01*
X166344812Y-90184518D01*
X166308502Y-90064820D01*
X166249537Y-89954506D01*
X166170185Y-89857815D01*
X166073494Y-89778463D01*
X165963180Y-89719498D01*
X165843482Y-89683188D01*
X165719000Y-89670928D01*
X163719000Y-89670928D01*
X163594518Y-89683188D01*
X163474820Y-89719498D01*
X163364506Y-89778463D01*
X163267815Y-89857815D01*
X163188463Y-89954506D01*
X163129498Y-90064820D01*
X163093188Y-90184518D01*
X163081913Y-90299000D01*
X161630235Y-90299000D01*
X161589405Y-90222613D01*
X161478962Y-90088038D01*
X161344387Y-89977595D01*
X161190851Y-89895528D01*
X161024255Y-89844992D01*
X160851001Y-89827928D01*
X159950999Y-89827928D01*
X159777745Y-89844992D01*
X159611149Y-89895528D01*
X159457613Y-89977595D01*
X159323038Y-90088038D01*
X159239360Y-90190000D01*
X157556614Y-90190000D01*
X157525405Y-90131613D01*
X157414962Y-89997038D01*
X157327184Y-89925000D01*
X157414962Y-89852962D01*
X157525405Y-89718387D01*
X157607472Y-89564851D01*
X157658008Y-89398255D01*
X157675072Y-89225001D01*
X157675072Y-88574999D01*
X157658008Y-88401745D01*
X157607472Y-88235149D01*
X157525405Y-88081613D01*
X157414962Y-87947038D01*
X157280387Y-87836595D01*
X157126851Y-87754528D01*
X156960255Y-87703992D01*
X156787001Y-87686928D01*
X155886999Y-87686928D01*
X155713745Y-87703992D01*
X155547149Y-87754528D01*
X155393613Y-87836595D01*
X155259038Y-87947038D01*
X155148595Y-88081613D01*
X155117386Y-88140000D01*
X152937527Y-88140000D01*
X152928472Y-88110149D01*
X152846405Y-87956613D01*
X152735962Y-87822038D01*
X152601387Y-87711595D01*
X152447851Y-87629528D01*
X152281255Y-87578992D01*
X152108001Y-87561928D01*
X151457999Y-87561928D01*
X151284745Y-87578992D01*
X151118149Y-87629528D01*
X150964613Y-87711595D01*
X150830038Y-87822038D01*
X150758000Y-87909816D01*
X150685962Y-87822038D01*
X150551387Y-87711595D01*
X150397851Y-87629528D01*
X150231255Y-87578992D01*
X150058001Y-87561928D01*
X149407999Y-87561928D01*
X149234745Y-87578992D01*
X149068149Y-87629528D01*
X148914613Y-87711595D01*
X148780038Y-87822038D01*
X148669595Y-87956613D01*
X148587528Y-88110149D01*
X148578473Y-88140000D01*
X146417087Y-88140000D01*
X146405812Y-88025518D01*
X146369502Y-87905820D01*
X146310537Y-87795506D01*
X146231185Y-87698815D01*
X146134494Y-87619463D01*
X146024180Y-87560498D01*
X145904482Y-87524188D01*
X145780000Y-87511928D01*
X143780000Y-87511928D01*
X143655518Y-87524188D01*
X143535820Y-87560498D01*
X143425506Y-87619463D01*
X143328815Y-87698815D01*
X143249463Y-87795506D01*
X143190498Y-87905820D01*
X143154188Y-88025518D01*
X143142913Y-88140000D01*
X140919614Y-88140000D01*
X140888405Y-88081613D01*
X140777962Y-87947038D01*
X140643387Y-87836595D01*
X140489851Y-87754528D01*
X140323255Y-87703992D01*
X140150001Y-87686928D01*
X139249999Y-87686928D01*
X139076745Y-87703992D01*
X138910149Y-87754528D01*
X138756613Y-87836595D01*
X138622038Y-87947038D01*
X138511595Y-88081613D01*
X138480386Y-88140000D01*
X136427527Y-88140000D01*
X136418472Y-88110149D01*
X136336405Y-87956613D01*
X136225962Y-87822038D01*
X136091387Y-87711595D01*
X135937851Y-87629528D01*
X135771255Y-87578992D01*
X135598001Y-87561928D01*
X134947999Y-87561928D01*
X134774745Y-87578992D01*
X134608149Y-87629528D01*
X134454613Y-87711595D01*
X134320038Y-87822038D01*
X134248000Y-87909816D01*
X134175962Y-87822038D01*
X134041387Y-87711595D01*
X133887851Y-87629528D01*
X133721255Y-87578992D01*
X133548001Y-87561928D01*
X132897999Y-87561928D01*
X132724745Y-87578992D01*
X132558149Y-87629528D01*
X132404613Y-87711595D01*
X132270038Y-87822038D01*
X132159595Y-87956613D01*
X132077528Y-88110149D01*
X132068473Y-88140000D01*
X131220527Y-88140000D01*
X131211472Y-88110149D01*
X131129405Y-87956613D01*
X131018962Y-87822038D01*
X130884387Y-87711595D01*
X130730851Y-87629528D01*
X130564255Y-87578992D01*
X130391001Y-87561928D01*
X129740999Y-87561928D01*
X129567745Y-87578992D01*
X129401149Y-87629528D01*
X129247613Y-87711595D01*
X129113038Y-87822038D01*
X129041000Y-87909816D01*
X128968962Y-87822038D01*
X128834387Y-87711595D01*
X128680851Y-87629528D01*
X128514255Y-87578992D01*
X128341001Y-87561928D01*
X127690999Y-87561928D01*
X127517745Y-87578992D01*
X127351149Y-87629528D01*
X127197613Y-87711595D01*
X127063038Y-87822038D01*
X126952595Y-87956613D01*
X126870528Y-88110149D01*
X126861473Y-88140000D01*
X123811087Y-88140000D01*
X123799812Y-88025518D01*
X123763502Y-87905820D01*
X123704537Y-87795506D01*
X123625185Y-87698815D01*
X123528494Y-87619463D01*
X123418180Y-87560498D01*
X123298482Y-87524188D01*
X123174000Y-87511928D01*
X121174000Y-87511928D01*
X121049518Y-87524188D01*
X120929820Y-87560498D01*
X120819506Y-87619463D01*
X120722815Y-87698815D01*
X120643463Y-87795506D01*
X120584498Y-87905820D01*
X120548188Y-88025518D01*
X120538686Y-88122000D01*
X117932614Y-88122000D01*
X117901405Y-88063613D01*
X117790962Y-87929038D01*
X117656387Y-87818595D01*
X117502851Y-87736528D01*
X117336255Y-87685992D01*
X117163001Y-87668928D01*
X116262999Y-87668928D01*
X116089745Y-87685992D01*
X115923149Y-87736528D01*
X115769613Y-87818595D01*
X115635038Y-87929038D01*
X115524595Y-88063613D01*
X115483765Y-88140000D01*
X110678072Y-88140000D01*
X110678072Y-87755000D01*
X110665812Y-87630518D01*
X110629502Y-87510820D01*
X110570537Y-87400506D01*
X110491185Y-87303815D01*
X110394494Y-87224463D01*
X110284180Y-87165498D01*
X110164482Y-87129188D01*
X110040000Y-87116928D01*
X105435000Y-87116928D01*
X105435000Y-82284000D01*
X159890143Y-82284000D01*
X159890143Y-86104000D01*
X166245857Y-86104000D01*
X166245857Y-82284000D01*
X159890143Y-82284000D01*
X105435000Y-82284000D01*
X105435000Y-81940000D01*
X175870001Y-81940000D01*
X175870001Y-89529928D01*
M02*
