M48
;DRILL file {KiCad (5.0.2)-1} date 3/13/2019 4:55:12 PM
;FORMAT={-:-/ absolute / inch / decimal}
FMAT,2
INCH,TZ
T1C0.0157
T2C0.0181
T3C0.0197
T4C0.0354
T5C0.0394
%
G90
G05
T1
X6.497Y-4.301
T2
X6.0756Y-3.3054
X6.4204Y-3.3054
X4.6146Y-4.8806
X4.9594Y-4.8806
X5.2566Y-4.8786
X5.6014Y-4.8786
X6.7626Y-3.3044
X7.1074Y-3.3044
X5.9626Y-4.8796
X6.3074Y-4.8796
X7.4326Y-4.8776
X7.7774Y-4.8776
X6.7156Y-4.8796
X7.0604Y-4.8796
T3
X6.66Y-4.06
X6.69Y-4.45
X6.93Y-3.49
X6.93Y-3.9
X6.96Y-4.38
X7.1Y-4.35
X7.31Y-4.09
X7.42Y-4.3
T4
X4.084Y-3.5877
X4.084Y-3.6778
X4.084Y-3.768
X3.406Y-3.641
X3.406Y-3.7312
X3.406Y-3.8213
T5
X5.633Y-4.569
X5.633Y-4.669
X3.402Y-4.255
X3.502Y-4.255
X5.04Y-3.278
X5.14Y-3.278
X7.542Y-3.779
X7.942Y-3.779
X5.618Y-4.327
X5.718Y-4.327
X4.938Y-4.329
X5.338Y-4.329
X4.953Y-3.588
X4.953Y-3.688
X6.903Y-4.576
X7.003Y-4.576
X7.103Y-4.576
X7.203Y-4.576
X6.24Y-3.678
X6.34Y-3.678
X6.337Y-4.186
X6.437Y-4.186
X7.95Y-4.01
X7.95Y-4.11
X3.67Y-3.28
X3.77Y-3.28
X3.87Y-3.28
X4.94Y-4.029
X4.94Y-4.129
X4.32Y-3.28
X4.72Y-3.28
X6.24Y-3.95
X6.34Y-3.95
X5.3Y-3.98
X5.4Y-3.98
T0
M30
