G04 ================== begin FILE IDENTIFICATION RECORD ==================*
G04 Layout Name:  PADesignV1.brd*
G04 Film Name:    BOTTOM*
G04 File Format:  Gerber RS274X*
G04 File Origin:  Cadence Allegro 17.2-S029*
G04 Origin Date:  Mon May 06 20:36:10 2019*
G04 *
G04 Layer:  ETCH/BOTTOM*
G04 Layer:  PIN/BOTTOM*
G04 Layer:  VIA CLASS/BOTTOM*
G04 *
G04 Offset:    (0.0 0.0)*
G04 Mirror:    No*
G04 Mode:      Positive*
G04 Rotation:  0*
G04 FullContactRelief:  No*
G04 UndefLineWidth:     1.0*
G04 ================== end FILE IDENTIFICATION RECORD ====================*
%FSLAX45Y45*MOIN*%
%IR0*IPPOS*OFA0.00000B0.00000*MIA0B0*SFA1.00000B1.00000*%
%ADD11R,.1X.08*%
%ADD13R,.04X.034*%
%ADD14R,.05X.034*%
%ADD16C,.062*%
%ADD12R,.05X.05*%
%ADD15R,.062X.062*%
%ADD10R,.058X.058*%
%ADD17C,.03*%
%ADD18C,.012*%
%ADD19C,.05*%
%ADD20C,.034*%
%ADD21C,.025*%
%ADD22C,.0784*%
G75*
%LPD*%
G75*
G36*
G01X1086000Y1044810D02*
G03X1085190Y1044000I0J-810D01*
G01Y1036000D01*
G03X1086000Y1035190I810J0D01*
G01X1096000D01*
G03X1096810Y1036000I0J810D01*
G01Y1036690D01*
X1155400D01*
G03X1156100Y1036290I700J413D01*
G01X1162000D01*
Y971000D01*
X820000D01*
Y998290D01*
X825900D01*
G03X826600Y998690I0J813D01*
G01X880190D01*
Y998000D01*
G03X881000Y997190I810J0D01*
G01X891000D01*
G03X891810Y998000I0J810D01*
G01Y1006000D01*
G03X891000Y1006810I-810J0D01*
G01X881000D01*
G03X880190Y1006000I0J-810D01*
G01Y1005310D01*
X826600D01*
G03X825900Y1005710I-700J-413D01*
G01X820000D01*
Y1077000D01*
X1162000D01*
Y1043710D01*
X1156100D01*
G03X1155400Y1043310I0J-812D01*
G01X1096810D01*
Y1044000D01*
G03X1096000Y1044810I-810J0D01*
G01X1086000D01*
G37*
%LPC*%
G75*
G36*
G01X1021810Y1042250D02*
G02X1021180Y1041510I-809J51D01*
G02X1016820I-2180J2490D01*
G02X1016190Y1042250I179J791D01*
G02X1015720Y1043540I2808J1754D01*
G01X1015710Y1043610D01*
X1012630Y1046690D01*
X1012400D01*
X1009900D01*
G02X1009090Y1047500I0J810D01*
G01Y1052500D01*
G02X1009900Y1053310I810J0D01*
G01X1012400D01*
X1015370D01*
X1022310Y1046370D01*
Y1044000D01*
G02X1021810Y1042250I-3312J0D01*
G37*
G36*
G01X1085190Y998000D02*
Y1006000D01*
G02X1086000Y1006810I810J0D01*
G01X1096000D01*
G02X1096810Y1006000I0J-810D01*
G01Y998000D01*
G02X1096000Y997190I-810J0D01*
G01X1086000D01*
G02X1085190Y998000I0J810D01*
G37*
G36*
G01X1059290Y1052500D02*
Y1057500D01*
G02X1060100Y1058310I810J0D01*
G01X1065100D01*
G02X1065910Y1057500I0J-810D01*
G01Y1052500D01*
G02X1065100Y1051690I-810J0D01*
G01X1060100D01*
G02X1059290Y1052500I0J810D01*
G37*
G36*
G01X979690Y1010100D02*
Y1015100D01*
G02X980500Y1015910I810J0D01*
G01X985500D01*
G02X986310Y1015100I0J-810D01*
G01Y1010100D01*
G02X985500Y1009290I-810J0D01*
G01X980500D01*
G02X979690Y1010100I0J810D01*
G37*
G36*
G01X880190Y1036000D02*
Y1044000D01*
G02X881000Y1044810I810J0D01*
G01X891000D01*
G02X891810Y1044000I0J-810D01*
G01Y1036000D01*
G02X891000Y1035190I-810J0D01*
G01X881000D01*
G02X880190Y1036000I0J810D01*
G37*
G36*
G01X1048810D02*
G02X1048000Y1035190I-810J0D01*
G01X1038000D01*
G02X1037190Y1036000I0J810D01*
G01Y1037490D01*
X1034460D01*
X1034160Y1037790D01*
X1024400D01*
G02X1023590Y1038600I0J810D01*
G01Y1042000D01*
G02X1024400Y1042810I810J0D01*
G01X1036240D01*
X1036540Y1042510D01*
X1037190D01*
Y1044000D01*
G02X1038000Y1044810I810J0D01*
G01X1048000D01*
G02X1048810Y1044000I0J-810D01*
G01Y1036000D01*
G37*
G36*
G01X1016270Y1034540D02*
X993210D01*
G02X988660Y1034660I-2212J2461D01*
G01X986630Y1036690D01*
X939810D01*
Y1036000D01*
G02X939000Y1035190I-810J0D01*
G01X929000D01*
G02X928190Y1036000I0J810D01*
G01Y1044000D01*
G02X929000Y1044810I810J0D01*
G01X939000D01*
G02X939810Y1044000I0J-810D01*
G01Y1043310D01*
X989370D01*
X993340Y1039340D01*
G02X993860Y1038660I-2346J-2333D01*
G01X1016270D01*
X1016330Y1038750D01*
G02X1017000Y1039110I670J-443D01*
G01X1021000D01*
G02X1021810Y1038300I0J-810D01*
G01Y1034900D01*
G02X1021000Y1034090I-810J0D01*
G01X1017000D01*
G02X1016330Y1034450I0J803D01*
G01X1016270Y1034540D01*
G37*
G36*
G01X1048810Y1017000D02*
G02X1048000Y1016190I-810J0D01*
G01X1038000D01*
G02X1037190Y1017000I0J810D01*
G01Y1017690D01*
X1002500D01*
G02X1001690Y1018500I0J810D01*
G01Y1023500D01*
G02X1002500Y1024310I810J0D01*
G01X1037190D01*
Y1025000D01*
G02X1038000Y1025810I810J0D01*
G01X1048000D01*
G02X1048810Y1025000I0J-810D01*
G01Y1024310D01*
X1057630D01*
X1067690Y1034370D01*
Y1057500D01*
G02X1068490Y1058310I810J0D01*
G03X1068690Y1058510I0J200D01*
G01Y1063110D01*
X1068570Y1063160D01*
G02X1068090Y1063900I330J740D01*
G01Y1070100D01*
G02X1068900Y1070910I810J0D01*
G01X1075100D01*
G02X1075910Y1070100I0J-810D01*
G01Y1063900D01*
G02X1075430Y1063160I-810J0D01*
G01X1075310Y1063110D01*
Y1054630D01*
X1074310Y1053630D01*
Y1031630D01*
X1060370Y1017690D01*
X1048810D01*
Y1017000D01*
G37*
G36*
G01X939810D02*
G02X939000Y1016190I-810J0D01*
G01X929000D01*
G02X928190Y1017000I0J810D01*
G01Y1025000D01*
G02X929000Y1025810I810J0D01*
G01X939000D01*
G02X939810Y1025000I0J-810D01*
G01Y1024310D01*
X943670D01*
X943770Y1024210D01*
X962530D01*
X962630Y1024310D01*
X999100D01*
G02X999910Y1023500I0J-810D01*
G01Y1018500D01*
G02X999100Y1017690I-810J0D01*
G01X996910D01*
X996880Y1017680D01*
G02X995320I-780J3220D01*
G01X995290Y1017690D01*
X965370D01*
X965270Y1017590D01*
X941030D01*
X940930Y1017690D01*
X939810D01*
Y1017000D01*
G37*
G36*
G01X1027070Y993150D02*
G02X1026400Y992790I-670J443D01*
G01X1021400D01*
G02X1020590Y993600I0J810D01*
G01Y997000D01*
G02X1021400Y997810I810J0D01*
G01X1026400D01*
G02X1027070Y997450I0J-803D01*
G01X1027130Y997360D01*
X1034450D01*
X1037190Y1000100D01*
Y1006000D01*
G02X1038000Y1006810I810J0D01*
G01X1048000D01*
G02X1048810Y1006000I0J-810D01*
G01Y998000D01*
G02X1048000Y997190I-810J0D01*
G01X1040100D01*
X1036150Y993240D01*
X1027130D01*
X1027070Y993150D01*
G37*
G36*
G01X996370Y989290D02*
G02X994000Y988290I-2370J2308D01*
G01X944030D01*
X935130Y997190D01*
X929000D01*
G02X928190Y998000I0J810D01*
G01Y1006000D01*
G02X929000Y1006810I810J0D01*
G01X939000D01*
G02X939810Y1006000I0J-810D01*
G01Y1001870D01*
X946770Y994910D01*
X994000D01*
G02X996370Y993910I0J-3308D01*
G01X1013470D01*
G02X1014000Y994110I530J-602D01*
G01X1018000D01*
G02X1018810Y993300I0J-810D01*
G01Y989900D01*
G02X1018000Y989090I-810J0D01*
G01X1014000D01*
G02X1013470Y989290I0J802D01*
G01X996370D01*
G37*
G36*
G01X997690Y1002500D02*
Y1007500D01*
G02X998500Y1008310I810J0D01*
G01X1003500D01*
G02X1004310Y1007500I0J-810D01*
G01Y1002500D01*
G02X1003500Y1001690I-810J0D01*
G01X998500D01*
G02X997690Y1002500I0J810D01*
G37*
G36*
G01X1000690Y1047500D02*
Y1052500D01*
G02X1001500Y1053310I810J0D01*
G01X1006500D01*
G02X1007310Y1052500I0J-810D01*
G01Y1047500D01*
G02X1006500Y1046690I-810J0D01*
G01X1001500D01*
G02X1000690Y1047500I0J810D01*
G37*
G36*
G01X1018810Y997250D02*
G02X1018180Y996510I-809J51D01*
G02X1013820I-2180J2490D01*
G02X1013230Y997060I183J788D01*
G01X1013210Y997110D01*
X1012660Y997660D01*
G02X1011720Y999540I2338J2344D01*
G01X1011710Y999610D01*
X1009630Y1001690D01*
X1009400D01*
X1006900D01*
G02X1006090Y1002500I0J810D01*
G01Y1007500D01*
G02X1006900Y1008310I810J0D01*
G01X1009400D01*
X1012370D01*
X1019310Y1001370D01*
Y999000D01*
G02X1018810Y997250I-3312J0D01*
G37*
G54D22*
X1062000Y1067000D03*
%LPD*%
G75*
G54D10*
X823000Y1002000D03*
X1159000Y1040000D03*
G54D20*
G01X1026900Y1040300D02*
X1035200D01*
X1035500Y1040000D01*
X1043000D01*
G54D11*
X886000Y1002000D03*
Y1040000D03*
X934000Y1021000D03*
Y1002000D03*
Y1040000D03*
X1043000Y1002000D03*
Y1021000D03*
Y1040000D03*
X1091000Y1002000D03*
Y1040000D03*
G54D21*
G01X1019000Y1036600D02*
X991400D01*
X991000Y1037000D01*
G01X1023900Y995300D02*
X1035300D01*
X1042000Y1002000D01*
X1043000D01*
G54D12*
X983000Y1021000D03*
Y1012600D03*
X1005000Y1021000D03*
X996600D03*
X1001000Y1005000D03*
X1009400D03*
X1004000Y1050000D03*
X1012400D03*
X1071000Y1055000D03*
X1062600D03*
G54D13*
X1016000Y991600D03*
Y999000D03*
X1019000Y1044000D03*
Y1036600D03*
G54D14*
X1023900Y995300D03*
X1026900Y1040300D03*
G54D15*
X1072000Y1067000D03*
G54D16*
X1062000D03*
G54D17*
G01X994000Y991600D02*
X1016000D01*
G54D18*
G01X886000Y1034990D02*
Y1040000D01*
G01D02*
Y1045010D01*
G01X879990Y1040000D02*
X886000D01*
G01D02*
X892010D01*
G01X983000Y1009090D02*
Y1012600D01*
G01D02*
Y1016110D01*
G01X979490Y1012600D02*
X983000D01*
G01D02*
X986510D01*
G01X1001000Y1001490D02*
Y1005000D01*
G01D02*
Y1008510D01*
G01X997490Y1005000D02*
X1001000D01*
G01D02*
X1004510D01*
G01X1004000Y1046490D02*
Y1050000D01*
G01D02*
Y1053510D01*
G01X1000490Y1050000D02*
X1004000D01*
G01D02*
X1007510D01*
G01X1062600Y1051490D02*
Y1055000D01*
G01D02*
Y1058510D01*
G01X1059090Y1055000D02*
X1062600D01*
G01D02*
X1066110D01*
G01X1062000Y1062890D02*
Y1067000D01*
G01D02*
Y1071110D01*
G01X1057890Y1067000D02*
X1062000D01*
G01D02*
X1066110D01*
G01X1091000Y996990D02*
Y1002000D01*
G01D02*
Y1007010D01*
G01X1084990Y1002000D02*
X1091000D01*
G01D02*
X1097010D01*
G54D19*
G01X886000D02*
X823000D01*
G01X934000D02*
X935000D01*
X945400Y991600D01*
X994000D01*
G01X983000Y1021000D02*
X964000D01*
X963900Y1020900D01*
X942400D01*
X942300Y1021000D01*
X934000D01*
G01X991000Y1037000D02*
X988000Y1040000D01*
X934000D01*
G01X996100Y1020900D02*
X996000Y1021000D01*
X983000D01*
G01X1005000D02*
X1043000D01*
G01X1015000Y1000000D02*
X1016000Y999000D01*
G01X1009400Y1005000D02*
X1011000D01*
X1016000Y1000000D01*
Y999000D01*
G01X1012400Y1050000D02*
X1014000D01*
X1019000Y1045000D01*
Y1044000D01*
G01X1071000Y1055000D02*
Y1033000D01*
X1059000Y1021000D01*
X1043000D01*
G01X1072000Y1067000D02*
Y1056000D01*
X1071000Y1055000D01*
G01X1091000Y1040000D02*
X1159000D01*
M02*
