M48
; DRILL file {KiCad (5.1.4-0)} date Friday, March 06, 2020 at 11:47:35 AM
; FORMAT={-:-/ absolute / metric / decimal}
; #@! TF.CreationDate,2020-03-06T11:47:35-08:00
; #@! TF.GenerationSoftware,Kicad,Pcbnew,(5.1.4-0)
FMAT,2
METRIC
T1C0.400
T2C1.300
%
G90
G05
T1
X106.934Y-79.248
X107.95Y-103.378
X118.364Y-91.694
X129.591Y-97.79
X131.572Y-97.739
X134.01Y-92.05
X134.62Y-91.186
X134.772Y-92.608
X134.772Y-92.608
X137.516Y-86.868
X139.954Y-86.868
X147.066Y-94.615
X155.448Y-94.488
X164.846Y-93.218
X171.704Y-78.486
X172.212Y-102.87
T2
X171.958Y-93.218
X171.958Y-98.218
X111.633Y-91.694
X111.633Y-96.694
T0
M30
