G04 #@! TF.GenerationSoftware,KiCad,Pcbnew,(5.1.4-0)*
G04 #@! TF.CreationDate,2020-03-06T11:47:25-08:00*
G04 #@! TF.ProjectId,-5V_Rail,2d35565f-5261-4696-9c2e-6b696361645f,rev?*
G04 #@! TF.SameCoordinates,Original*
G04 #@! TF.FileFunction,Copper,L2,Bot*
G04 #@! TF.FilePolarity,Positive*
%FSLAX46Y46*%
G04 Gerber Fmt 4.6, Leading zero omitted, Abs format (unit mm)*
G04 Created by KiCad (PCBNEW (5.1.4-0)) date 2020-03-06 11:47:25*
%MOMM*%
%LPD*%
G04 APERTURE LIST*
%ADD10R,2.600000X2.600000*%
%ADD11C,2.600000*%
%ADD12C,0.800000*%
%ADD13C,0.812800*%
%ADD14C,0.508000*%
%ADD15C,0.254000*%
G04 APERTURE END LIST*
D10*
X111633000Y-96694000D03*
D11*
X111633000Y-91694000D03*
D10*
X171958000Y-93218000D03*
D11*
X171958000Y-98218000D03*
D12*
X107950000Y-103378000D03*
X172212000Y-102870000D03*
X171704000Y-78486000D03*
X106934000Y-79248000D03*
X134772400Y-92608400D03*
X134772400Y-92608400D03*
X134010400Y-92049600D03*
X134620000Y-91186000D03*
X129590800Y-97790000D03*
X131572000Y-97739200D03*
X137515600Y-86868000D03*
X139954000Y-86868000D03*
X118364000Y-91694000D03*
X155448000Y-94488000D03*
X147066000Y-94615000D03*
X164846000Y-93218000D03*
D13*
X129590800Y-97790000D02*
X131419600Y-97790000D01*
D14*
X137515600Y-86868000D02*
X139903200Y-86868000D01*
X139903200Y-86868000D02*
X139954000Y-86868000D01*
D13*
X111633000Y-91694000D02*
X118364000Y-91694000D01*
X171958000Y-93218000D02*
X164846000Y-93218000D01*
D15*
G36*
X122809000Y-91681300D02*
G01*
X122811440Y-91706076D01*
X122818667Y-91729901D01*
X122830403Y-91751857D01*
X122846197Y-91771103D01*
X122858897Y-91783803D01*
X122878143Y-91799597D01*
X122900099Y-91811333D01*
X122923924Y-91818560D01*
X122948700Y-91821000D01*
X133223000Y-91821000D01*
X133223000Y-92456000D01*
X127520700Y-92456000D01*
X127495924Y-92458440D01*
X127472099Y-92465667D01*
X127450143Y-92477403D01*
X127430897Y-92493197D01*
X127418197Y-92505897D01*
X127402403Y-92525143D01*
X127390667Y-92547099D01*
X127383440Y-92570924D01*
X127381000Y-92595700D01*
X127381000Y-93599000D01*
X109474000Y-93599000D01*
X109474000Y-89789000D01*
X122809000Y-89789000D01*
X122809000Y-91681300D01*
X122809000Y-91681300D01*
G37*
X122809000Y-91681300D02*
X122811440Y-91706076D01*
X122818667Y-91729901D01*
X122830403Y-91751857D01*
X122846197Y-91771103D01*
X122858897Y-91783803D01*
X122878143Y-91799597D01*
X122900099Y-91811333D01*
X122923924Y-91818560D01*
X122948700Y-91821000D01*
X133223000Y-91821000D01*
X133223000Y-92456000D01*
X127520700Y-92456000D01*
X127495924Y-92458440D01*
X127472099Y-92465667D01*
X127450143Y-92477403D01*
X127430897Y-92493197D01*
X127418197Y-92505897D01*
X127402403Y-92525143D01*
X127390667Y-92547099D01*
X127383440Y-92570924D01*
X127381000Y-92595700D01*
X127381000Y-93599000D01*
X109474000Y-93599000D01*
X109474000Y-89789000D01*
X122809000Y-89789000D01*
X122809000Y-91681300D01*
G36*
X174117000Y-95504000D02*
G01*
X145542000Y-95504000D01*
X145542000Y-93230700D01*
X145539560Y-93205924D01*
X145532333Y-93182099D01*
X145520597Y-93160143D01*
X145504803Y-93140897D01*
X145492103Y-93128197D01*
X145472857Y-93112403D01*
X145450901Y-93100667D01*
X145427076Y-93093440D01*
X145402300Y-93091000D01*
X137287000Y-93091000D01*
X137287000Y-92087700D01*
X137284560Y-92062924D01*
X137277333Y-92039099D01*
X137265597Y-92017143D01*
X137249803Y-91997897D01*
X137237103Y-91985197D01*
X137217857Y-91969403D01*
X137195901Y-91957667D01*
X137172076Y-91950440D01*
X137147300Y-91948000D01*
X135509000Y-91948000D01*
X135509000Y-91821000D01*
X138544300Y-91821000D01*
X138569076Y-91818560D01*
X138592901Y-91811333D01*
X138614857Y-91799597D01*
X138634103Y-91783803D01*
X138646803Y-91771103D01*
X138662597Y-91751857D01*
X138674333Y-91729901D01*
X138681560Y-91706076D01*
X138684000Y-91681300D01*
X138684000Y-91186000D01*
X174117000Y-91186000D01*
X174117000Y-95504000D01*
X174117000Y-95504000D01*
G37*
X174117000Y-95504000D02*
X145542000Y-95504000D01*
X145542000Y-93230700D01*
X145539560Y-93205924D01*
X145532333Y-93182099D01*
X145520597Y-93160143D01*
X145504803Y-93140897D01*
X145492103Y-93128197D01*
X145472857Y-93112403D01*
X145450901Y-93100667D01*
X145427076Y-93093440D01*
X145402300Y-93091000D01*
X137287000Y-93091000D01*
X137287000Y-92087700D01*
X137284560Y-92062924D01*
X137277333Y-92039099D01*
X137265597Y-92017143D01*
X137249803Y-91997897D01*
X137237103Y-91985197D01*
X137217857Y-91969403D01*
X137195901Y-91957667D01*
X137172076Y-91950440D01*
X137147300Y-91948000D01*
X135509000Y-91948000D01*
X135509000Y-91821000D01*
X138544300Y-91821000D01*
X138569076Y-91818560D01*
X138592901Y-91811333D01*
X138614857Y-91799597D01*
X138634103Y-91783803D01*
X138646803Y-91771103D01*
X138662597Y-91751857D01*
X138674333Y-91729901D01*
X138681560Y-91706076D01*
X138684000Y-91681300D01*
X138684000Y-91186000D01*
X174117000Y-91186000D01*
X174117000Y-95504000D01*
M02*
