M48
; DRILL file {KiCad (5.1.5)-3} date 1/21/2020 9:49:12 PM
; FORMAT={-:-/ absolute / inch / decimal}
; #@! TF.CreationDate,2020-01-21T21:49:12-08:00
; #@! TF.GenerationSoftware,Kicad,Pcbnew,(5.1.5)-3
; #@! TF.FileFunction,Plated,1,2,PTH
FMAT,2
INCH
T1C0.0157
T2C0.0181
T3C0.0394
T4C0.0591
%
G90
G05
T1
X4.42Y-3.25
X5.14Y-4.015
X5.61Y-3.315
X6.295Y-4.015
X6.83Y-3.365
T2
X7.2046Y-3.5076
X7.2046Y-3.8524
X3.9654Y-3.5076
X3.9654Y-3.8524
T3
X6.0574Y-2.9454
X6.0574Y-3.1226
X6.146Y-2.9454
X6.2346Y-2.9454
X6.2346Y-3.1226
X4.5114Y-3.9414
X4.5114Y-4.1186
X4.6Y-3.9414
X4.6886Y-3.9414
X4.6886Y-4.1186
X5.6954Y-3.9774
X5.6954Y-4.1546
X5.784Y-3.9774
X5.8726Y-3.9774
X5.8726Y-4.1546
X6.7194Y-3.9714
X6.7194Y-4.1486
X6.808Y-3.9714
X6.8966Y-3.9714
X6.8966Y-4.1486
X4.8934Y-2.9754
X4.8934Y-3.1526
X4.982Y-2.9754
X5.0706Y-2.9754
X5.0706Y-3.1526
T4
X6.0035Y-3.034
X6.2885Y-3.034
X4.4575Y-4.03
X4.7425Y-4.03
X5.6415Y-4.066
X5.9265Y-4.066
X6.6655Y-4.06
X6.9505Y-4.06
X4.8395Y-3.064
X5.1245Y-3.064
T0
M30
