G04 #@! TF.GenerationSoftware,KiCad,Pcbnew,(5.1.2)-1*
G04 #@! TF.CreationDate,2019-05-18T15:55:27-07:00*
G04 #@! TF.ProjectId,LM335ADT,4c4d3333-3541-4445-942e-6b696361645f,rev?*
G04 #@! TF.SameCoordinates,Original*
G04 #@! TF.FileFunction,Copper,L1,Top*
G04 #@! TF.FilePolarity,Positive*
%FSLAX46Y46*%
G04 Gerber Fmt 4.6, Leading zero omitted, Abs format (unit mm)*
G04 Created by KiCad (PCBNEW (5.1.2)-1) date 2019-05-18 15:55:27*
%MOMM*%
%LPD*%
G04 APERTURE LIST*
%ADD10C,0.100000*%
%ADD11C,0.600000*%
%ADD12C,1.440000*%
%ADD13C,1.150000*%
%ADD14O,1.700000X1.700000*%
%ADD15R,1.700000X1.700000*%
%ADD16C,1.750000*%
%ADD17C,0.762000*%
%ADD18C,0.508000*%
%ADD19C,0.254000*%
G04 APERTURE END LIST*
D10*
G36*
X242074703Y-148925722D02*
G01*
X242089264Y-148927882D01*
X242103543Y-148931459D01*
X242117403Y-148936418D01*
X242130710Y-148942712D01*
X242143336Y-148950280D01*
X242155159Y-148959048D01*
X242166066Y-148968934D01*
X242175952Y-148979841D01*
X242184720Y-148991664D01*
X242192288Y-149004290D01*
X242198582Y-149017597D01*
X242203541Y-149031457D01*
X242207118Y-149045736D01*
X242209278Y-149060297D01*
X242210000Y-149075000D01*
X242210000Y-149375000D01*
X242209278Y-149389703D01*
X242207118Y-149404264D01*
X242203541Y-149418543D01*
X242198582Y-149432403D01*
X242192288Y-149445710D01*
X242184720Y-149458336D01*
X242175952Y-149470159D01*
X242166066Y-149481066D01*
X242155159Y-149490952D01*
X242143336Y-149499720D01*
X242130710Y-149507288D01*
X242117403Y-149513582D01*
X242103543Y-149518541D01*
X242089264Y-149522118D01*
X242074703Y-149524278D01*
X242060000Y-149525000D01*
X240610000Y-149525000D01*
X240595297Y-149524278D01*
X240580736Y-149522118D01*
X240566457Y-149518541D01*
X240552597Y-149513582D01*
X240539290Y-149507288D01*
X240526664Y-149499720D01*
X240514841Y-149490952D01*
X240503934Y-149481066D01*
X240494048Y-149470159D01*
X240485280Y-149458336D01*
X240477712Y-149445710D01*
X240471418Y-149432403D01*
X240466459Y-149418543D01*
X240462882Y-149404264D01*
X240460722Y-149389703D01*
X240460000Y-149375000D01*
X240460000Y-149075000D01*
X240460722Y-149060297D01*
X240462882Y-149045736D01*
X240466459Y-149031457D01*
X240471418Y-149017597D01*
X240477712Y-149004290D01*
X240485280Y-148991664D01*
X240494048Y-148979841D01*
X240503934Y-148968934D01*
X240514841Y-148959048D01*
X240526664Y-148950280D01*
X240539290Y-148942712D01*
X240552597Y-148936418D01*
X240566457Y-148931459D01*
X240580736Y-148927882D01*
X240595297Y-148925722D01*
X240610000Y-148925000D01*
X242060000Y-148925000D01*
X242074703Y-148925722D01*
X242074703Y-148925722D01*
G37*
D11*
X241335000Y-149225000D03*
D10*
G36*
X242074703Y-150195722D02*
G01*
X242089264Y-150197882D01*
X242103543Y-150201459D01*
X242117403Y-150206418D01*
X242130710Y-150212712D01*
X242143336Y-150220280D01*
X242155159Y-150229048D01*
X242166066Y-150238934D01*
X242175952Y-150249841D01*
X242184720Y-150261664D01*
X242192288Y-150274290D01*
X242198582Y-150287597D01*
X242203541Y-150301457D01*
X242207118Y-150315736D01*
X242209278Y-150330297D01*
X242210000Y-150345000D01*
X242210000Y-150645000D01*
X242209278Y-150659703D01*
X242207118Y-150674264D01*
X242203541Y-150688543D01*
X242198582Y-150702403D01*
X242192288Y-150715710D01*
X242184720Y-150728336D01*
X242175952Y-150740159D01*
X242166066Y-150751066D01*
X242155159Y-150760952D01*
X242143336Y-150769720D01*
X242130710Y-150777288D01*
X242117403Y-150783582D01*
X242103543Y-150788541D01*
X242089264Y-150792118D01*
X242074703Y-150794278D01*
X242060000Y-150795000D01*
X240610000Y-150795000D01*
X240595297Y-150794278D01*
X240580736Y-150792118D01*
X240566457Y-150788541D01*
X240552597Y-150783582D01*
X240539290Y-150777288D01*
X240526664Y-150769720D01*
X240514841Y-150760952D01*
X240503934Y-150751066D01*
X240494048Y-150740159D01*
X240485280Y-150728336D01*
X240477712Y-150715710D01*
X240471418Y-150702403D01*
X240466459Y-150688543D01*
X240462882Y-150674264D01*
X240460722Y-150659703D01*
X240460000Y-150645000D01*
X240460000Y-150345000D01*
X240460722Y-150330297D01*
X240462882Y-150315736D01*
X240466459Y-150301457D01*
X240471418Y-150287597D01*
X240477712Y-150274290D01*
X240485280Y-150261664D01*
X240494048Y-150249841D01*
X240503934Y-150238934D01*
X240514841Y-150229048D01*
X240526664Y-150220280D01*
X240539290Y-150212712D01*
X240552597Y-150206418D01*
X240566457Y-150201459D01*
X240580736Y-150197882D01*
X240595297Y-150195722D01*
X240610000Y-150195000D01*
X242060000Y-150195000D01*
X242074703Y-150195722D01*
X242074703Y-150195722D01*
G37*
D11*
X241335000Y-150495000D03*
D10*
G36*
X242074703Y-151465722D02*
G01*
X242089264Y-151467882D01*
X242103543Y-151471459D01*
X242117403Y-151476418D01*
X242130710Y-151482712D01*
X242143336Y-151490280D01*
X242155159Y-151499048D01*
X242166066Y-151508934D01*
X242175952Y-151519841D01*
X242184720Y-151531664D01*
X242192288Y-151544290D01*
X242198582Y-151557597D01*
X242203541Y-151571457D01*
X242207118Y-151585736D01*
X242209278Y-151600297D01*
X242210000Y-151615000D01*
X242210000Y-151915000D01*
X242209278Y-151929703D01*
X242207118Y-151944264D01*
X242203541Y-151958543D01*
X242198582Y-151972403D01*
X242192288Y-151985710D01*
X242184720Y-151998336D01*
X242175952Y-152010159D01*
X242166066Y-152021066D01*
X242155159Y-152030952D01*
X242143336Y-152039720D01*
X242130710Y-152047288D01*
X242117403Y-152053582D01*
X242103543Y-152058541D01*
X242089264Y-152062118D01*
X242074703Y-152064278D01*
X242060000Y-152065000D01*
X240610000Y-152065000D01*
X240595297Y-152064278D01*
X240580736Y-152062118D01*
X240566457Y-152058541D01*
X240552597Y-152053582D01*
X240539290Y-152047288D01*
X240526664Y-152039720D01*
X240514841Y-152030952D01*
X240503934Y-152021066D01*
X240494048Y-152010159D01*
X240485280Y-151998336D01*
X240477712Y-151985710D01*
X240471418Y-151972403D01*
X240466459Y-151958543D01*
X240462882Y-151944264D01*
X240460722Y-151929703D01*
X240460000Y-151915000D01*
X240460000Y-151615000D01*
X240460722Y-151600297D01*
X240462882Y-151585736D01*
X240466459Y-151571457D01*
X240471418Y-151557597D01*
X240477712Y-151544290D01*
X240485280Y-151531664D01*
X240494048Y-151519841D01*
X240503934Y-151508934D01*
X240514841Y-151499048D01*
X240526664Y-151490280D01*
X240539290Y-151482712D01*
X240552597Y-151476418D01*
X240566457Y-151471459D01*
X240580736Y-151467882D01*
X240595297Y-151465722D01*
X240610000Y-151465000D01*
X242060000Y-151465000D01*
X242074703Y-151465722D01*
X242074703Y-151465722D01*
G37*
D11*
X241335000Y-151765000D03*
D10*
G36*
X242074703Y-152735722D02*
G01*
X242089264Y-152737882D01*
X242103543Y-152741459D01*
X242117403Y-152746418D01*
X242130710Y-152752712D01*
X242143336Y-152760280D01*
X242155159Y-152769048D01*
X242166066Y-152778934D01*
X242175952Y-152789841D01*
X242184720Y-152801664D01*
X242192288Y-152814290D01*
X242198582Y-152827597D01*
X242203541Y-152841457D01*
X242207118Y-152855736D01*
X242209278Y-152870297D01*
X242210000Y-152885000D01*
X242210000Y-153185000D01*
X242209278Y-153199703D01*
X242207118Y-153214264D01*
X242203541Y-153228543D01*
X242198582Y-153242403D01*
X242192288Y-153255710D01*
X242184720Y-153268336D01*
X242175952Y-153280159D01*
X242166066Y-153291066D01*
X242155159Y-153300952D01*
X242143336Y-153309720D01*
X242130710Y-153317288D01*
X242117403Y-153323582D01*
X242103543Y-153328541D01*
X242089264Y-153332118D01*
X242074703Y-153334278D01*
X242060000Y-153335000D01*
X240610000Y-153335000D01*
X240595297Y-153334278D01*
X240580736Y-153332118D01*
X240566457Y-153328541D01*
X240552597Y-153323582D01*
X240539290Y-153317288D01*
X240526664Y-153309720D01*
X240514841Y-153300952D01*
X240503934Y-153291066D01*
X240494048Y-153280159D01*
X240485280Y-153268336D01*
X240477712Y-153255710D01*
X240471418Y-153242403D01*
X240466459Y-153228543D01*
X240462882Y-153214264D01*
X240460722Y-153199703D01*
X240460000Y-153185000D01*
X240460000Y-152885000D01*
X240460722Y-152870297D01*
X240462882Y-152855736D01*
X240466459Y-152841457D01*
X240471418Y-152827597D01*
X240477712Y-152814290D01*
X240485280Y-152801664D01*
X240494048Y-152789841D01*
X240503934Y-152778934D01*
X240514841Y-152769048D01*
X240526664Y-152760280D01*
X240539290Y-152752712D01*
X240552597Y-152746418D01*
X240566457Y-152741459D01*
X240580736Y-152737882D01*
X240595297Y-152735722D01*
X240610000Y-152735000D01*
X242060000Y-152735000D01*
X242074703Y-152735722D01*
X242074703Y-152735722D01*
G37*
D11*
X241335000Y-153035000D03*
D10*
G36*
X236924703Y-152735722D02*
G01*
X236939264Y-152737882D01*
X236953543Y-152741459D01*
X236967403Y-152746418D01*
X236980710Y-152752712D01*
X236993336Y-152760280D01*
X237005159Y-152769048D01*
X237016066Y-152778934D01*
X237025952Y-152789841D01*
X237034720Y-152801664D01*
X237042288Y-152814290D01*
X237048582Y-152827597D01*
X237053541Y-152841457D01*
X237057118Y-152855736D01*
X237059278Y-152870297D01*
X237060000Y-152885000D01*
X237060000Y-153185000D01*
X237059278Y-153199703D01*
X237057118Y-153214264D01*
X237053541Y-153228543D01*
X237048582Y-153242403D01*
X237042288Y-153255710D01*
X237034720Y-153268336D01*
X237025952Y-153280159D01*
X237016066Y-153291066D01*
X237005159Y-153300952D01*
X236993336Y-153309720D01*
X236980710Y-153317288D01*
X236967403Y-153323582D01*
X236953543Y-153328541D01*
X236939264Y-153332118D01*
X236924703Y-153334278D01*
X236910000Y-153335000D01*
X235460000Y-153335000D01*
X235445297Y-153334278D01*
X235430736Y-153332118D01*
X235416457Y-153328541D01*
X235402597Y-153323582D01*
X235389290Y-153317288D01*
X235376664Y-153309720D01*
X235364841Y-153300952D01*
X235353934Y-153291066D01*
X235344048Y-153280159D01*
X235335280Y-153268336D01*
X235327712Y-153255710D01*
X235321418Y-153242403D01*
X235316459Y-153228543D01*
X235312882Y-153214264D01*
X235310722Y-153199703D01*
X235310000Y-153185000D01*
X235310000Y-152885000D01*
X235310722Y-152870297D01*
X235312882Y-152855736D01*
X235316459Y-152841457D01*
X235321418Y-152827597D01*
X235327712Y-152814290D01*
X235335280Y-152801664D01*
X235344048Y-152789841D01*
X235353934Y-152778934D01*
X235364841Y-152769048D01*
X235376664Y-152760280D01*
X235389290Y-152752712D01*
X235402597Y-152746418D01*
X235416457Y-152741459D01*
X235430736Y-152737882D01*
X235445297Y-152735722D01*
X235460000Y-152735000D01*
X236910000Y-152735000D01*
X236924703Y-152735722D01*
X236924703Y-152735722D01*
G37*
D11*
X236185000Y-153035000D03*
D10*
G36*
X236924703Y-151465722D02*
G01*
X236939264Y-151467882D01*
X236953543Y-151471459D01*
X236967403Y-151476418D01*
X236980710Y-151482712D01*
X236993336Y-151490280D01*
X237005159Y-151499048D01*
X237016066Y-151508934D01*
X237025952Y-151519841D01*
X237034720Y-151531664D01*
X237042288Y-151544290D01*
X237048582Y-151557597D01*
X237053541Y-151571457D01*
X237057118Y-151585736D01*
X237059278Y-151600297D01*
X237060000Y-151615000D01*
X237060000Y-151915000D01*
X237059278Y-151929703D01*
X237057118Y-151944264D01*
X237053541Y-151958543D01*
X237048582Y-151972403D01*
X237042288Y-151985710D01*
X237034720Y-151998336D01*
X237025952Y-152010159D01*
X237016066Y-152021066D01*
X237005159Y-152030952D01*
X236993336Y-152039720D01*
X236980710Y-152047288D01*
X236967403Y-152053582D01*
X236953543Y-152058541D01*
X236939264Y-152062118D01*
X236924703Y-152064278D01*
X236910000Y-152065000D01*
X235460000Y-152065000D01*
X235445297Y-152064278D01*
X235430736Y-152062118D01*
X235416457Y-152058541D01*
X235402597Y-152053582D01*
X235389290Y-152047288D01*
X235376664Y-152039720D01*
X235364841Y-152030952D01*
X235353934Y-152021066D01*
X235344048Y-152010159D01*
X235335280Y-151998336D01*
X235327712Y-151985710D01*
X235321418Y-151972403D01*
X235316459Y-151958543D01*
X235312882Y-151944264D01*
X235310722Y-151929703D01*
X235310000Y-151915000D01*
X235310000Y-151615000D01*
X235310722Y-151600297D01*
X235312882Y-151585736D01*
X235316459Y-151571457D01*
X235321418Y-151557597D01*
X235327712Y-151544290D01*
X235335280Y-151531664D01*
X235344048Y-151519841D01*
X235353934Y-151508934D01*
X235364841Y-151499048D01*
X235376664Y-151490280D01*
X235389290Y-151482712D01*
X235402597Y-151476418D01*
X235416457Y-151471459D01*
X235430736Y-151467882D01*
X235445297Y-151465722D01*
X235460000Y-151465000D01*
X236910000Y-151465000D01*
X236924703Y-151465722D01*
X236924703Y-151465722D01*
G37*
D11*
X236185000Y-151765000D03*
D10*
G36*
X236924703Y-150195722D02*
G01*
X236939264Y-150197882D01*
X236953543Y-150201459D01*
X236967403Y-150206418D01*
X236980710Y-150212712D01*
X236993336Y-150220280D01*
X237005159Y-150229048D01*
X237016066Y-150238934D01*
X237025952Y-150249841D01*
X237034720Y-150261664D01*
X237042288Y-150274290D01*
X237048582Y-150287597D01*
X237053541Y-150301457D01*
X237057118Y-150315736D01*
X237059278Y-150330297D01*
X237060000Y-150345000D01*
X237060000Y-150645000D01*
X237059278Y-150659703D01*
X237057118Y-150674264D01*
X237053541Y-150688543D01*
X237048582Y-150702403D01*
X237042288Y-150715710D01*
X237034720Y-150728336D01*
X237025952Y-150740159D01*
X237016066Y-150751066D01*
X237005159Y-150760952D01*
X236993336Y-150769720D01*
X236980710Y-150777288D01*
X236967403Y-150783582D01*
X236953543Y-150788541D01*
X236939264Y-150792118D01*
X236924703Y-150794278D01*
X236910000Y-150795000D01*
X235460000Y-150795000D01*
X235445297Y-150794278D01*
X235430736Y-150792118D01*
X235416457Y-150788541D01*
X235402597Y-150783582D01*
X235389290Y-150777288D01*
X235376664Y-150769720D01*
X235364841Y-150760952D01*
X235353934Y-150751066D01*
X235344048Y-150740159D01*
X235335280Y-150728336D01*
X235327712Y-150715710D01*
X235321418Y-150702403D01*
X235316459Y-150688543D01*
X235312882Y-150674264D01*
X235310722Y-150659703D01*
X235310000Y-150645000D01*
X235310000Y-150345000D01*
X235310722Y-150330297D01*
X235312882Y-150315736D01*
X235316459Y-150301457D01*
X235321418Y-150287597D01*
X235327712Y-150274290D01*
X235335280Y-150261664D01*
X235344048Y-150249841D01*
X235353934Y-150238934D01*
X235364841Y-150229048D01*
X235376664Y-150220280D01*
X235389290Y-150212712D01*
X235402597Y-150206418D01*
X235416457Y-150201459D01*
X235430736Y-150197882D01*
X235445297Y-150195722D01*
X235460000Y-150195000D01*
X236910000Y-150195000D01*
X236924703Y-150195722D01*
X236924703Y-150195722D01*
G37*
D11*
X236185000Y-150495000D03*
D10*
G36*
X236924703Y-148925722D02*
G01*
X236939264Y-148927882D01*
X236953543Y-148931459D01*
X236967403Y-148936418D01*
X236980710Y-148942712D01*
X236993336Y-148950280D01*
X237005159Y-148959048D01*
X237016066Y-148968934D01*
X237025952Y-148979841D01*
X237034720Y-148991664D01*
X237042288Y-149004290D01*
X237048582Y-149017597D01*
X237053541Y-149031457D01*
X237057118Y-149045736D01*
X237059278Y-149060297D01*
X237060000Y-149075000D01*
X237060000Y-149375000D01*
X237059278Y-149389703D01*
X237057118Y-149404264D01*
X237053541Y-149418543D01*
X237048582Y-149432403D01*
X237042288Y-149445710D01*
X237034720Y-149458336D01*
X237025952Y-149470159D01*
X237016066Y-149481066D01*
X237005159Y-149490952D01*
X236993336Y-149499720D01*
X236980710Y-149507288D01*
X236967403Y-149513582D01*
X236953543Y-149518541D01*
X236939264Y-149522118D01*
X236924703Y-149524278D01*
X236910000Y-149525000D01*
X235460000Y-149525000D01*
X235445297Y-149524278D01*
X235430736Y-149522118D01*
X235416457Y-149518541D01*
X235402597Y-149513582D01*
X235389290Y-149507288D01*
X235376664Y-149499720D01*
X235364841Y-149490952D01*
X235353934Y-149481066D01*
X235344048Y-149470159D01*
X235335280Y-149458336D01*
X235327712Y-149445710D01*
X235321418Y-149432403D01*
X235316459Y-149418543D01*
X235312882Y-149404264D01*
X235310722Y-149389703D01*
X235310000Y-149375000D01*
X235310000Y-149075000D01*
X235310722Y-149060297D01*
X235312882Y-149045736D01*
X235316459Y-149031457D01*
X235321418Y-149017597D01*
X235327712Y-149004290D01*
X235335280Y-148991664D01*
X235344048Y-148979841D01*
X235353934Y-148968934D01*
X235364841Y-148959048D01*
X235376664Y-148950280D01*
X235389290Y-148942712D01*
X235402597Y-148936418D01*
X235416457Y-148931459D01*
X235430736Y-148927882D01*
X235445297Y-148925722D01*
X235460000Y-148925000D01*
X236910000Y-148925000D01*
X236924703Y-148925722D01*
X236924703Y-148925722D01*
G37*
D11*
X236185000Y-149225000D03*
D12*
X236220000Y-158750000D03*
X238760000Y-158750000D03*
X241300000Y-158750000D03*
D10*
G36*
X245584505Y-148896204D02*
G01*
X245608773Y-148899804D01*
X245632572Y-148905765D01*
X245655671Y-148914030D01*
X245677850Y-148924520D01*
X245698893Y-148937132D01*
X245718599Y-148951747D01*
X245736777Y-148968223D01*
X245753253Y-148986401D01*
X245767868Y-149006107D01*
X245780480Y-149027150D01*
X245790970Y-149049329D01*
X245799235Y-149072428D01*
X245805196Y-149096227D01*
X245808796Y-149120495D01*
X245810000Y-149144999D01*
X245810000Y-149795001D01*
X245808796Y-149819505D01*
X245805196Y-149843773D01*
X245799235Y-149867572D01*
X245790970Y-149890671D01*
X245780480Y-149912850D01*
X245767868Y-149933893D01*
X245753253Y-149953599D01*
X245736777Y-149971777D01*
X245718599Y-149988253D01*
X245698893Y-150002868D01*
X245677850Y-150015480D01*
X245655671Y-150025970D01*
X245632572Y-150034235D01*
X245608773Y-150040196D01*
X245584505Y-150043796D01*
X245560001Y-150045000D01*
X244659999Y-150045000D01*
X244635495Y-150043796D01*
X244611227Y-150040196D01*
X244587428Y-150034235D01*
X244564329Y-150025970D01*
X244542150Y-150015480D01*
X244521107Y-150002868D01*
X244501401Y-149988253D01*
X244483223Y-149971777D01*
X244466747Y-149953599D01*
X244452132Y-149933893D01*
X244439520Y-149912850D01*
X244429030Y-149890671D01*
X244420765Y-149867572D01*
X244414804Y-149843773D01*
X244411204Y-149819505D01*
X244410000Y-149795001D01*
X244410000Y-149144999D01*
X244411204Y-149120495D01*
X244414804Y-149096227D01*
X244420765Y-149072428D01*
X244429030Y-149049329D01*
X244439520Y-149027150D01*
X244452132Y-149006107D01*
X244466747Y-148986401D01*
X244483223Y-148968223D01*
X244501401Y-148951747D01*
X244521107Y-148937132D01*
X244542150Y-148924520D01*
X244564329Y-148914030D01*
X244587428Y-148905765D01*
X244611227Y-148899804D01*
X244635495Y-148896204D01*
X244659999Y-148895000D01*
X245560001Y-148895000D01*
X245584505Y-148896204D01*
X245584505Y-148896204D01*
G37*
D13*
X245110000Y-149470000D03*
D10*
G36*
X245584505Y-150946204D02*
G01*
X245608773Y-150949804D01*
X245632572Y-150955765D01*
X245655671Y-150964030D01*
X245677850Y-150974520D01*
X245698893Y-150987132D01*
X245718599Y-151001747D01*
X245736777Y-151018223D01*
X245753253Y-151036401D01*
X245767868Y-151056107D01*
X245780480Y-151077150D01*
X245790970Y-151099329D01*
X245799235Y-151122428D01*
X245805196Y-151146227D01*
X245808796Y-151170495D01*
X245810000Y-151194999D01*
X245810000Y-151845001D01*
X245808796Y-151869505D01*
X245805196Y-151893773D01*
X245799235Y-151917572D01*
X245790970Y-151940671D01*
X245780480Y-151962850D01*
X245767868Y-151983893D01*
X245753253Y-152003599D01*
X245736777Y-152021777D01*
X245718599Y-152038253D01*
X245698893Y-152052868D01*
X245677850Y-152065480D01*
X245655671Y-152075970D01*
X245632572Y-152084235D01*
X245608773Y-152090196D01*
X245584505Y-152093796D01*
X245560001Y-152095000D01*
X244659999Y-152095000D01*
X244635495Y-152093796D01*
X244611227Y-152090196D01*
X244587428Y-152084235D01*
X244564329Y-152075970D01*
X244542150Y-152065480D01*
X244521107Y-152052868D01*
X244501401Y-152038253D01*
X244483223Y-152021777D01*
X244466747Y-152003599D01*
X244452132Y-151983893D01*
X244439520Y-151962850D01*
X244429030Y-151940671D01*
X244420765Y-151917572D01*
X244414804Y-151893773D01*
X244411204Y-151869505D01*
X244410000Y-151845001D01*
X244410000Y-151194999D01*
X244411204Y-151170495D01*
X244414804Y-151146227D01*
X244420765Y-151122428D01*
X244429030Y-151099329D01*
X244439520Y-151077150D01*
X244452132Y-151056107D01*
X244466747Y-151036401D01*
X244483223Y-151018223D01*
X244501401Y-151001747D01*
X244521107Y-150987132D01*
X244542150Y-150974520D01*
X244564329Y-150964030D01*
X244587428Y-150955765D01*
X244611227Y-150949804D01*
X244635495Y-150946204D01*
X244659999Y-150945000D01*
X245560001Y-150945000D01*
X245584505Y-150946204D01*
X245584505Y-150946204D01*
G37*
D13*
X245110000Y-151520000D03*
D10*
G36*
X245584505Y-156126204D02*
G01*
X245608773Y-156129804D01*
X245632572Y-156135765D01*
X245655671Y-156144030D01*
X245677850Y-156154520D01*
X245698893Y-156167132D01*
X245718599Y-156181747D01*
X245736777Y-156198223D01*
X245753253Y-156216401D01*
X245767868Y-156236107D01*
X245780480Y-156257150D01*
X245790970Y-156279329D01*
X245799235Y-156302428D01*
X245805196Y-156326227D01*
X245808796Y-156350495D01*
X245810000Y-156374999D01*
X245810000Y-157025001D01*
X245808796Y-157049505D01*
X245805196Y-157073773D01*
X245799235Y-157097572D01*
X245790970Y-157120671D01*
X245780480Y-157142850D01*
X245767868Y-157163893D01*
X245753253Y-157183599D01*
X245736777Y-157201777D01*
X245718599Y-157218253D01*
X245698893Y-157232868D01*
X245677850Y-157245480D01*
X245655671Y-157255970D01*
X245632572Y-157264235D01*
X245608773Y-157270196D01*
X245584505Y-157273796D01*
X245560001Y-157275000D01*
X244659999Y-157275000D01*
X244635495Y-157273796D01*
X244611227Y-157270196D01*
X244587428Y-157264235D01*
X244564329Y-157255970D01*
X244542150Y-157245480D01*
X244521107Y-157232868D01*
X244501401Y-157218253D01*
X244483223Y-157201777D01*
X244466747Y-157183599D01*
X244452132Y-157163893D01*
X244439520Y-157142850D01*
X244429030Y-157120671D01*
X244420765Y-157097572D01*
X244414804Y-157073773D01*
X244411204Y-157049505D01*
X244410000Y-157025001D01*
X244410000Y-156374999D01*
X244411204Y-156350495D01*
X244414804Y-156326227D01*
X244420765Y-156302428D01*
X244429030Y-156279329D01*
X244439520Y-156257150D01*
X244452132Y-156236107D01*
X244466747Y-156216401D01*
X244483223Y-156198223D01*
X244501401Y-156181747D01*
X244521107Y-156167132D01*
X244542150Y-156154520D01*
X244564329Y-156144030D01*
X244587428Y-156135765D01*
X244611227Y-156129804D01*
X244635495Y-156126204D01*
X244659999Y-156125000D01*
X245560001Y-156125000D01*
X245584505Y-156126204D01*
X245584505Y-156126204D01*
G37*
D13*
X245110000Y-156700000D03*
D10*
G36*
X245584505Y-158176204D02*
G01*
X245608773Y-158179804D01*
X245632572Y-158185765D01*
X245655671Y-158194030D01*
X245677850Y-158204520D01*
X245698893Y-158217132D01*
X245718599Y-158231747D01*
X245736777Y-158248223D01*
X245753253Y-158266401D01*
X245767868Y-158286107D01*
X245780480Y-158307150D01*
X245790970Y-158329329D01*
X245799235Y-158352428D01*
X245805196Y-158376227D01*
X245808796Y-158400495D01*
X245810000Y-158424999D01*
X245810000Y-159075001D01*
X245808796Y-159099505D01*
X245805196Y-159123773D01*
X245799235Y-159147572D01*
X245790970Y-159170671D01*
X245780480Y-159192850D01*
X245767868Y-159213893D01*
X245753253Y-159233599D01*
X245736777Y-159251777D01*
X245718599Y-159268253D01*
X245698893Y-159282868D01*
X245677850Y-159295480D01*
X245655671Y-159305970D01*
X245632572Y-159314235D01*
X245608773Y-159320196D01*
X245584505Y-159323796D01*
X245560001Y-159325000D01*
X244659999Y-159325000D01*
X244635495Y-159323796D01*
X244611227Y-159320196D01*
X244587428Y-159314235D01*
X244564329Y-159305970D01*
X244542150Y-159295480D01*
X244521107Y-159282868D01*
X244501401Y-159268253D01*
X244483223Y-159251777D01*
X244466747Y-159233599D01*
X244452132Y-159213893D01*
X244439520Y-159192850D01*
X244429030Y-159170671D01*
X244420765Y-159147572D01*
X244414804Y-159123773D01*
X244411204Y-159099505D01*
X244410000Y-159075001D01*
X244410000Y-158424999D01*
X244411204Y-158400495D01*
X244414804Y-158376227D01*
X244420765Y-158352428D01*
X244429030Y-158329329D01*
X244439520Y-158307150D01*
X244452132Y-158286107D01*
X244466747Y-158266401D01*
X244483223Y-158248223D01*
X244501401Y-158231747D01*
X244521107Y-158217132D01*
X244542150Y-158204520D01*
X244564329Y-158194030D01*
X244587428Y-158185765D01*
X244611227Y-158179804D01*
X244635495Y-158176204D01*
X244659999Y-158175000D01*
X245560001Y-158175000D01*
X245584505Y-158176204D01*
X245584505Y-158176204D01*
G37*
D13*
X245110000Y-158750000D03*
D10*
G36*
X254474505Y-156109804D02*
G01*
X254498773Y-156113404D01*
X254522572Y-156119365D01*
X254545671Y-156127630D01*
X254567850Y-156138120D01*
X254588893Y-156150732D01*
X254608599Y-156165347D01*
X254626777Y-156181823D01*
X254643253Y-156200001D01*
X254657868Y-156219707D01*
X254670480Y-156240750D01*
X254680970Y-156262929D01*
X254689235Y-156286028D01*
X254695196Y-156309827D01*
X254698796Y-156334095D01*
X254700000Y-156358599D01*
X254700000Y-157008601D01*
X254698796Y-157033105D01*
X254695196Y-157057373D01*
X254689235Y-157081172D01*
X254680970Y-157104271D01*
X254670480Y-157126450D01*
X254657868Y-157147493D01*
X254643253Y-157167199D01*
X254626777Y-157185377D01*
X254608599Y-157201853D01*
X254588893Y-157216468D01*
X254567850Y-157229080D01*
X254545671Y-157239570D01*
X254522572Y-157247835D01*
X254498773Y-157253796D01*
X254474505Y-157257396D01*
X254450001Y-157258600D01*
X253549999Y-157258600D01*
X253525495Y-157257396D01*
X253501227Y-157253796D01*
X253477428Y-157247835D01*
X253454329Y-157239570D01*
X253432150Y-157229080D01*
X253411107Y-157216468D01*
X253391401Y-157201853D01*
X253373223Y-157185377D01*
X253356747Y-157167199D01*
X253342132Y-157147493D01*
X253329520Y-157126450D01*
X253319030Y-157104271D01*
X253310765Y-157081172D01*
X253304804Y-157057373D01*
X253301204Y-157033105D01*
X253300000Y-157008601D01*
X253300000Y-156358599D01*
X253301204Y-156334095D01*
X253304804Y-156309827D01*
X253310765Y-156286028D01*
X253319030Y-156262929D01*
X253329520Y-156240750D01*
X253342132Y-156219707D01*
X253356747Y-156200001D01*
X253373223Y-156181823D01*
X253391401Y-156165347D01*
X253411107Y-156150732D01*
X253432150Y-156138120D01*
X253454329Y-156127630D01*
X253477428Y-156119365D01*
X253501227Y-156113404D01*
X253525495Y-156109804D01*
X253549999Y-156108600D01*
X254450001Y-156108600D01*
X254474505Y-156109804D01*
X254474505Y-156109804D01*
G37*
D13*
X254000000Y-156683600D03*
D10*
G36*
X254474505Y-158159804D02*
G01*
X254498773Y-158163404D01*
X254522572Y-158169365D01*
X254545671Y-158177630D01*
X254567850Y-158188120D01*
X254588893Y-158200732D01*
X254608599Y-158215347D01*
X254626777Y-158231823D01*
X254643253Y-158250001D01*
X254657868Y-158269707D01*
X254670480Y-158290750D01*
X254680970Y-158312929D01*
X254689235Y-158336028D01*
X254695196Y-158359827D01*
X254698796Y-158384095D01*
X254700000Y-158408599D01*
X254700000Y-159058601D01*
X254698796Y-159083105D01*
X254695196Y-159107373D01*
X254689235Y-159131172D01*
X254680970Y-159154271D01*
X254670480Y-159176450D01*
X254657868Y-159197493D01*
X254643253Y-159217199D01*
X254626777Y-159235377D01*
X254608599Y-159251853D01*
X254588893Y-159266468D01*
X254567850Y-159279080D01*
X254545671Y-159289570D01*
X254522572Y-159297835D01*
X254498773Y-159303796D01*
X254474505Y-159307396D01*
X254450001Y-159308600D01*
X253549999Y-159308600D01*
X253525495Y-159307396D01*
X253501227Y-159303796D01*
X253477428Y-159297835D01*
X253454329Y-159289570D01*
X253432150Y-159279080D01*
X253411107Y-159266468D01*
X253391401Y-159251853D01*
X253373223Y-159235377D01*
X253356747Y-159217199D01*
X253342132Y-159197493D01*
X253329520Y-159176450D01*
X253319030Y-159154271D01*
X253310765Y-159131172D01*
X253304804Y-159107373D01*
X253301204Y-159083105D01*
X253300000Y-159058601D01*
X253300000Y-158408599D01*
X253301204Y-158384095D01*
X253304804Y-158359827D01*
X253310765Y-158336028D01*
X253319030Y-158312929D01*
X253329520Y-158290750D01*
X253342132Y-158269707D01*
X253356747Y-158250001D01*
X253373223Y-158231823D01*
X253391401Y-158215347D01*
X253411107Y-158200732D01*
X253432150Y-158188120D01*
X253454329Y-158177630D01*
X253477428Y-158169365D01*
X253501227Y-158163404D01*
X253525495Y-158159804D01*
X253549999Y-158158600D01*
X254450001Y-158158600D01*
X254474505Y-158159804D01*
X254474505Y-158159804D01*
G37*
D13*
X254000000Y-158733600D03*
D14*
X248920000Y-152400000D03*
X251460000Y-152400000D03*
D15*
X254000000Y-152400000D03*
D10*
G36*
X250029505Y-156126204D02*
G01*
X250053773Y-156129804D01*
X250077572Y-156135765D01*
X250100671Y-156144030D01*
X250122850Y-156154520D01*
X250143893Y-156167132D01*
X250163599Y-156181747D01*
X250181777Y-156198223D01*
X250198253Y-156216401D01*
X250212868Y-156236107D01*
X250225480Y-156257150D01*
X250235970Y-156279329D01*
X250244235Y-156302428D01*
X250250196Y-156326227D01*
X250253796Y-156350495D01*
X250255000Y-156374999D01*
X250255000Y-157025001D01*
X250253796Y-157049505D01*
X250250196Y-157073773D01*
X250244235Y-157097572D01*
X250235970Y-157120671D01*
X250225480Y-157142850D01*
X250212868Y-157163893D01*
X250198253Y-157183599D01*
X250181777Y-157201777D01*
X250163599Y-157218253D01*
X250143893Y-157232868D01*
X250122850Y-157245480D01*
X250100671Y-157255970D01*
X250077572Y-157264235D01*
X250053773Y-157270196D01*
X250029505Y-157273796D01*
X250005001Y-157275000D01*
X249104999Y-157275000D01*
X249080495Y-157273796D01*
X249056227Y-157270196D01*
X249032428Y-157264235D01*
X249009329Y-157255970D01*
X248987150Y-157245480D01*
X248966107Y-157232868D01*
X248946401Y-157218253D01*
X248928223Y-157201777D01*
X248911747Y-157183599D01*
X248897132Y-157163893D01*
X248884520Y-157142850D01*
X248874030Y-157120671D01*
X248865765Y-157097572D01*
X248859804Y-157073773D01*
X248856204Y-157049505D01*
X248855000Y-157025001D01*
X248855000Y-156374999D01*
X248856204Y-156350495D01*
X248859804Y-156326227D01*
X248865765Y-156302428D01*
X248874030Y-156279329D01*
X248884520Y-156257150D01*
X248897132Y-156236107D01*
X248911747Y-156216401D01*
X248928223Y-156198223D01*
X248946401Y-156181747D01*
X248966107Y-156167132D01*
X248987150Y-156154520D01*
X249009329Y-156144030D01*
X249032428Y-156135765D01*
X249056227Y-156129804D01*
X249080495Y-156126204D01*
X249104999Y-156125000D01*
X250005001Y-156125000D01*
X250029505Y-156126204D01*
X250029505Y-156126204D01*
G37*
D13*
X249555000Y-156700000D03*
D10*
G36*
X250029505Y-158176204D02*
G01*
X250053773Y-158179804D01*
X250077572Y-158185765D01*
X250100671Y-158194030D01*
X250122850Y-158204520D01*
X250143893Y-158217132D01*
X250163599Y-158231747D01*
X250181777Y-158248223D01*
X250198253Y-158266401D01*
X250212868Y-158286107D01*
X250225480Y-158307150D01*
X250235970Y-158329329D01*
X250244235Y-158352428D01*
X250250196Y-158376227D01*
X250253796Y-158400495D01*
X250255000Y-158424999D01*
X250255000Y-159075001D01*
X250253796Y-159099505D01*
X250250196Y-159123773D01*
X250244235Y-159147572D01*
X250235970Y-159170671D01*
X250225480Y-159192850D01*
X250212868Y-159213893D01*
X250198253Y-159233599D01*
X250181777Y-159251777D01*
X250163599Y-159268253D01*
X250143893Y-159282868D01*
X250122850Y-159295480D01*
X250100671Y-159305970D01*
X250077572Y-159314235D01*
X250053773Y-159320196D01*
X250029505Y-159323796D01*
X250005001Y-159325000D01*
X249104999Y-159325000D01*
X249080495Y-159323796D01*
X249056227Y-159320196D01*
X249032428Y-159314235D01*
X249009329Y-159305970D01*
X248987150Y-159295480D01*
X248966107Y-159282868D01*
X248946401Y-159268253D01*
X248928223Y-159251777D01*
X248911747Y-159233599D01*
X248897132Y-159213893D01*
X248884520Y-159192850D01*
X248874030Y-159170671D01*
X248865765Y-159147572D01*
X248859804Y-159123773D01*
X248856204Y-159099505D01*
X248855000Y-159075001D01*
X248855000Y-158424999D01*
X248856204Y-158400495D01*
X248859804Y-158376227D01*
X248865765Y-158352428D01*
X248874030Y-158329329D01*
X248884520Y-158307150D01*
X248897132Y-158286107D01*
X248911747Y-158266401D01*
X248928223Y-158248223D01*
X248946401Y-158231747D01*
X248966107Y-158217132D01*
X248987150Y-158204520D01*
X249009329Y-158194030D01*
X249032428Y-158185765D01*
X249056227Y-158179804D01*
X249080495Y-158176204D01*
X249104999Y-158175000D01*
X250005001Y-158175000D01*
X250029505Y-158176204D01*
X250029505Y-158176204D01*
G37*
D13*
X249555000Y-158750000D03*
D16*
X236220000Y-155194000D03*
X248920000Y-149860000D03*
D17*
X249571400Y-158733600D02*
X249555000Y-158750000D01*
X249555000Y-158750000D02*
X245110000Y-158750000D01*
X245110000Y-158750000D02*
X241300000Y-158750000D01*
X251460000Y-158699200D02*
X251425600Y-158733600D01*
X251460000Y-152400000D02*
X251460000Y-158699200D01*
X254000000Y-158733600D02*
X251425600Y-158733600D01*
X251425600Y-158733600D02*
X249571400Y-158733600D01*
D18*
X254000000Y-151042000D02*
X254000000Y-152400000D01*
X251192590Y-148234590D02*
X254000000Y-151042000D01*
X242325410Y-148234590D02*
X251192590Y-148234590D01*
X241335000Y-149225000D02*
X242325410Y-148234590D01*
X254000000Y-152400000D02*
X254000000Y-156683600D01*
X238760000Y-158750000D02*
X239479999Y-158030001D01*
X239479999Y-158030001D02*
X240792000Y-156718000D01*
D19*
G36*
X241057429Y-148389020D02*
G01*
X240610000Y-148389020D01*
X240476172Y-148402201D01*
X240347487Y-148441237D01*
X240228890Y-148504628D01*
X240124939Y-148589939D01*
X240039628Y-148693890D01*
X239976237Y-148812487D01*
X239937201Y-148941172D01*
X239924020Y-149075000D01*
X239924020Y-149375000D01*
X239937201Y-149508828D01*
X239976237Y-149637513D01*
X240039628Y-149756110D01*
X240124889Y-149860000D01*
X240039628Y-149963890D01*
X239976237Y-150082487D01*
X239937201Y-150211172D01*
X239924020Y-150345000D01*
X239924020Y-150645000D01*
X239937201Y-150778828D01*
X239976237Y-150907513D01*
X240039628Y-151026110D01*
X240124889Y-151130000D01*
X240039628Y-151233890D01*
X239976237Y-151352487D01*
X239937201Y-151481172D01*
X239924020Y-151615000D01*
X239924020Y-151915000D01*
X239932560Y-152001712D01*
X239906829Y-152022829D01*
X239840494Y-152103659D01*
X239791203Y-152195877D01*
X239760849Y-152295939D01*
X239750600Y-152400000D01*
X239750600Y-156645849D01*
X238950579Y-157445871D01*
X238950568Y-157445880D01*
X238897127Y-157499321D01*
X238883449Y-157496600D01*
X238636551Y-157496600D01*
X238394397Y-157544767D01*
X238166292Y-157639251D01*
X237961004Y-157776420D01*
X237786420Y-157951004D01*
X237649251Y-158156292D01*
X237554767Y-158384397D01*
X237506600Y-158626551D01*
X237506600Y-158873449D01*
X237554767Y-159115603D01*
X237649251Y-159343708D01*
X237786420Y-159548996D01*
X237961004Y-159723580D01*
X238166292Y-159860749D01*
X238394397Y-159955233D01*
X238636551Y-160003400D01*
X238883449Y-160003400D01*
X239125603Y-159955233D01*
X239353708Y-159860749D01*
X239558996Y-159723580D01*
X239733580Y-159548996D01*
X239870749Y-159343708D01*
X239965233Y-159115603D01*
X240013400Y-158873449D01*
X240013400Y-158626551D01*
X240010679Y-158612873D01*
X240058915Y-158564637D01*
X240046600Y-158626551D01*
X240046600Y-158873449D01*
X240094767Y-159115603D01*
X240189251Y-159343708D01*
X240326420Y-159548996D01*
X240501004Y-159723580D01*
X240706292Y-159860749D01*
X240934397Y-159955233D01*
X241176551Y-160003400D01*
X241423449Y-160003400D01*
X241665603Y-159955233D01*
X241893708Y-159860749D01*
X242098996Y-159723580D01*
X242158176Y-159664400D01*
X244145203Y-159664400D01*
X244223332Y-159728519D01*
X244359218Y-159801151D01*
X244506662Y-159845878D01*
X244659999Y-159860980D01*
X245560001Y-159860980D01*
X245713338Y-159845878D01*
X245860782Y-159801151D01*
X245996668Y-159728519D01*
X246074797Y-159664400D01*
X248590203Y-159664400D01*
X248668332Y-159728519D01*
X248804218Y-159801151D01*
X248951662Y-159845878D01*
X249104999Y-159860980D01*
X250005001Y-159860980D01*
X250158338Y-159845878D01*
X250305782Y-159801151D01*
X250441668Y-159728519D01*
X250539780Y-159648000D01*
X251380685Y-159648000D01*
X251425600Y-159652424D01*
X251470515Y-159648000D01*
X253035203Y-159648000D01*
X253113332Y-159712119D01*
X253249218Y-159784751D01*
X253396662Y-159829478D01*
X253549999Y-159844580D01*
X254450001Y-159844580D01*
X254603338Y-159829478D01*
X254750782Y-159784751D01*
X254886668Y-159712119D01*
X255005772Y-159614372D01*
X255103519Y-159495268D01*
X255176151Y-159359382D01*
X255220878Y-159211938D01*
X255235980Y-159058601D01*
X255235980Y-158408599D01*
X255220878Y-158255262D01*
X255176151Y-158107818D01*
X255103519Y-157971932D01*
X255005772Y-157852828D01*
X254886668Y-157755081D01*
X254799707Y-157708600D01*
X254886668Y-157662119D01*
X255005772Y-157564372D01*
X255103519Y-157445268D01*
X255176151Y-157309382D01*
X255220878Y-157161938D01*
X255235980Y-157008601D01*
X255235980Y-156358599D01*
X255220878Y-156205262D01*
X255176151Y-156057818D01*
X255103519Y-155921932D01*
X255005772Y-155802828D01*
X254886668Y-155705081D01*
X254787400Y-155652022D01*
X254787400Y-153785980D01*
X254850000Y-153785980D01*
X254954565Y-153775681D01*
X255055111Y-153745181D01*
X255147775Y-153695651D01*
X255228995Y-153628995D01*
X255295651Y-153547775D01*
X255345181Y-153455111D01*
X255375681Y-153354565D01*
X255385980Y-153250000D01*
X255385980Y-151550000D01*
X255375681Y-151445435D01*
X255345181Y-151344889D01*
X255295651Y-151252225D01*
X255228995Y-151171005D01*
X255147775Y-151104349D01*
X255055111Y-151054819D01*
X254954565Y-151024319D01*
X254850000Y-151014020D01*
X254788452Y-151014020D01*
X254787400Y-151003336D01*
X254787400Y-151003327D01*
X254776006Y-150887643D01*
X254730982Y-150739217D01*
X254657866Y-150602428D01*
X254559469Y-150482531D01*
X254529434Y-150457882D01*
X251974950Y-147903400D01*
X255956600Y-147903400D01*
X255956601Y-160706600D01*
X234263400Y-160706600D01*
X234263400Y-149075000D01*
X234774020Y-149075000D01*
X234774020Y-149375000D01*
X234787201Y-149508828D01*
X234826237Y-149637513D01*
X234889628Y-149756110D01*
X234974889Y-149860000D01*
X234889628Y-149963890D01*
X234826237Y-150082487D01*
X234787201Y-150211172D01*
X234774020Y-150345000D01*
X234774020Y-150645000D01*
X234787201Y-150778828D01*
X234826237Y-150907513D01*
X234889628Y-151026110D01*
X234974889Y-151130000D01*
X234889628Y-151233890D01*
X234826237Y-151352487D01*
X234787201Y-151481172D01*
X234774020Y-151615000D01*
X234774020Y-151915000D01*
X234787201Y-152048828D01*
X234826237Y-152177513D01*
X234889628Y-152296110D01*
X234974939Y-152400061D01*
X235078890Y-152485372D01*
X235197487Y-152548763D01*
X235326172Y-152587799D01*
X235460000Y-152600980D01*
X236910000Y-152600980D01*
X237043828Y-152587799D01*
X237172513Y-152548763D01*
X237291110Y-152485372D01*
X237395061Y-152400061D01*
X237480372Y-152296110D01*
X237543763Y-152177513D01*
X237582799Y-152048828D01*
X237595980Y-151915000D01*
X237595980Y-151615000D01*
X237582799Y-151481172D01*
X237543763Y-151352487D01*
X237480372Y-151233890D01*
X237395111Y-151130000D01*
X237480372Y-151026110D01*
X237543763Y-150907513D01*
X237582799Y-150778828D01*
X237595980Y-150645000D01*
X237595980Y-150345000D01*
X237582799Y-150211172D01*
X237543763Y-150082487D01*
X237480372Y-149963890D01*
X237395111Y-149860000D01*
X237480372Y-149756110D01*
X237543763Y-149637513D01*
X237582799Y-149508828D01*
X237595980Y-149375000D01*
X237595980Y-149075000D01*
X237582799Y-148941172D01*
X237543763Y-148812487D01*
X237480372Y-148693890D01*
X237395061Y-148589939D01*
X237291110Y-148504628D01*
X237172513Y-148441237D01*
X237043828Y-148402201D01*
X236910000Y-148389020D01*
X235460000Y-148389020D01*
X235326172Y-148402201D01*
X235197487Y-148441237D01*
X235078890Y-148504628D01*
X234974939Y-148589939D01*
X234889628Y-148693890D01*
X234826237Y-148812487D01*
X234787201Y-148941172D01*
X234774020Y-149075000D01*
X234263400Y-149075000D01*
X234263400Y-147903400D01*
X241543048Y-147903400D01*
X241057429Y-148389020D01*
X241057429Y-148389020D01*
G37*
X241057429Y-148389020D02*
X240610000Y-148389020D01*
X240476172Y-148402201D01*
X240347487Y-148441237D01*
X240228890Y-148504628D01*
X240124939Y-148589939D01*
X240039628Y-148693890D01*
X239976237Y-148812487D01*
X239937201Y-148941172D01*
X239924020Y-149075000D01*
X239924020Y-149375000D01*
X239937201Y-149508828D01*
X239976237Y-149637513D01*
X240039628Y-149756110D01*
X240124889Y-149860000D01*
X240039628Y-149963890D01*
X239976237Y-150082487D01*
X239937201Y-150211172D01*
X239924020Y-150345000D01*
X239924020Y-150645000D01*
X239937201Y-150778828D01*
X239976237Y-150907513D01*
X240039628Y-151026110D01*
X240124889Y-151130000D01*
X240039628Y-151233890D01*
X239976237Y-151352487D01*
X239937201Y-151481172D01*
X239924020Y-151615000D01*
X239924020Y-151915000D01*
X239932560Y-152001712D01*
X239906829Y-152022829D01*
X239840494Y-152103659D01*
X239791203Y-152195877D01*
X239760849Y-152295939D01*
X239750600Y-152400000D01*
X239750600Y-156645849D01*
X238950579Y-157445871D01*
X238950568Y-157445880D01*
X238897127Y-157499321D01*
X238883449Y-157496600D01*
X238636551Y-157496600D01*
X238394397Y-157544767D01*
X238166292Y-157639251D01*
X237961004Y-157776420D01*
X237786420Y-157951004D01*
X237649251Y-158156292D01*
X237554767Y-158384397D01*
X237506600Y-158626551D01*
X237506600Y-158873449D01*
X237554767Y-159115603D01*
X237649251Y-159343708D01*
X237786420Y-159548996D01*
X237961004Y-159723580D01*
X238166292Y-159860749D01*
X238394397Y-159955233D01*
X238636551Y-160003400D01*
X238883449Y-160003400D01*
X239125603Y-159955233D01*
X239353708Y-159860749D01*
X239558996Y-159723580D01*
X239733580Y-159548996D01*
X239870749Y-159343708D01*
X239965233Y-159115603D01*
X240013400Y-158873449D01*
X240013400Y-158626551D01*
X240010679Y-158612873D01*
X240058915Y-158564637D01*
X240046600Y-158626551D01*
X240046600Y-158873449D01*
X240094767Y-159115603D01*
X240189251Y-159343708D01*
X240326420Y-159548996D01*
X240501004Y-159723580D01*
X240706292Y-159860749D01*
X240934397Y-159955233D01*
X241176551Y-160003400D01*
X241423449Y-160003400D01*
X241665603Y-159955233D01*
X241893708Y-159860749D01*
X242098996Y-159723580D01*
X242158176Y-159664400D01*
X244145203Y-159664400D01*
X244223332Y-159728519D01*
X244359218Y-159801151D01*
X244506662Y-159845878D01*
X244659999Y-159860980D01*
X245560001Y-159860980D01*
X245713338Y-159845878D01*
X245860782Y-159801151D01*
X245996668Y-159728519D01*
X246074797Y-159664400D01*
X248590203Y-159664400D01*
X248668332Y-159728519D01*
X248804218Y-159801151D01*
X248951662Y-159845878D01*
X249104999Y-159860980D01*
X250005001Y-159860980D01*
X250158338Y-159845878D01*
X250305782Y-159801151D01*
X250441668Y-159728519D01*
X250539780Y-159648000D01*
X251380685Y-159648000D01*
X251425600Y-159652424D01*
X251470515Y-159648000D01*
X253035203Y-159648000D01*
X253113332Y-159712119D01*
X253249218Y-159784751D01*
X253396662Y-159829478D01*
X253549999Y-159844580D01*
X254450001Y-159844580D01*
X254603338Y-159829478D01*
X254750782Y-159784751D01*
X254886668Y-159712119D01*
X255005772Y-159614372D01*
X255103519Y-159495268D01*
X255176151Y-159359382D01*
X255220878Y-159211938D01*
X255235980Y-159058601D01*
X255235980Y-158408599D01*
X255220878Y-158255262D01*
X255176151Y-158107818D01*
X255103519Y-157971932D01*
X255005772Y-157852828D01*
X254886668Y-157755081D01*
X254799707Y-157708600D01*
X254886668Y-157662119D01*
X255005772Y-157564372D01*
X255103519Y-157445268D01*
X255176151Y-157309382D01*
X255220878Y-157161938D01*
X255235980Y-157008601D01*
X255235980Y-156358599D01*
X255220878Y-156205262D01*
X255176151Y-156057818D01*
X255103519Y-155921932D01*
X255005772Y-155802828D01*
X254886668Y-155705081D01*
X254787400Y-155652022D01*
X254787400Y-153785980D01*
X254850000Y-153785980D01*
X254954565Y-153775681D01*
X255055111Y-153745181D01*
X255147775Y-153695651D01*
X255228995Y-153628995D01*
X255295651Y-153547775D01*
X255345181Y-153455111D01*
X255375681Y-153354565D01*
X255385980Y-153250000D01*
X255385980Y-151550000D01*
X255375681Y-151445435D01*
X255345181Y-151344889D01*
X255295651Y-151252225D01*
X255228995Y-151171005D01*
X255147775Y-151104349D01*
X255055111Y-151054819D01*
X254954565Y-151024319D01*
X254850000Y-151014020D01*
X254788452Y-151014020D01*
X254787400Y-151003336D01*
X254787400Y-151003327D01*
X254776006Y-150887643D01*
X254730982Y-150739217D01*
X254657866Y-150602428D01*
X254559469Y-150482531D01*
X254529434Y-150457882D01*
X251974950Y-147903400D01*
X255956600Y-147903400D01*
X255956601Y-160706600D01*
X234263400Y-160706600D01*
X234263400Y-149075000D01*
X234774020Y-149075000D01*
X234774020Y-149375000D01*
X234787201Y-149508828D01*
X234826237Y-149637513D01*
X234889628Y-149756110D01*
X234974889Y-149860000D01*
X234889628Y-149963890D01*
X234826237Y-150082487D01*
X234787201Y-150211172D01*
X234774020Y-150345000D01*
X234774020Y-150645000D01*
X234787201Y-150778828D01*
X234826237Y-150907513D01*
X234889628Y-151026110D01*
X234974889Y-151130000D01*
X234889628Y-151233890D01*
X234826237Y-151352487D01*
X234787201Y-151481172D01*
X234774020Y-151615000D01*
X234774020Y-151915000D01*
X234787201Y-152048828D01*
X234826237Y-152177513D01*
X234889628Y-152296110D01*
X234974939Y-152400061D01*
X235078890Y-152485372D01*
X235197487Y-152548763D01*
X235326172Y-152587799D01*
X235460000Y-152600980D01*
X236910000Y-152600980D01*
X237043828Y-152587799D01*
X237172513Y-152548763D01*
X237291110Y-152485372D01*
X237395061Y-152400061D01*
X237480372Y-152296110D01*
X237543763Y-152177513D01*
X237582799Y-152048828D01*
X237595980Y-151915000D01*
X237595980Y-151615000D01*
X237582799Y-151481172D01*
X237543763Y-151352487D01*
X237480372Y-151233890D01*
X237395111Y-151130000D01*
X237480372Y-151026110D01*
X237543763Y-150907513D01*
X237582799Y-150778828D01*
X237595980Y-150645000D01*
X237595980Y-150345000D01*
X237582799Y-150211172D01*
X237543763Y-150082487D01*
X237480372Y-149963890D01*
X237395111Y-149860000D01*
X237480372Y-149756110D01*
X237543763Y-149637513D01*
X237582799Y-149508828D01*
X237595980Y-149375000D01*
X237595980Y-149075000D01*
X237582799Y-148941172D01*
X237543763Y-148812487D01*
X237480372Y-148693890D01*
X237395061Y-148589939D01*
X237291110Y-148504628D01*
X237172513Y-148441237D01*
X237043828Y-148402201D01*
X236910000Y-148389020D01*
X235460000Y-148389020D01*
X235326172Y-148402201D01*
X235197487Y-148441237D01*
X235078890Y-148504628D01*
X234974939Y-148589939D01*
X234889628Y-148693890D01*
X234826237Y-148812487D01*
X234787201Y-148941172D01*
X234774020Y-149075000D01*
X234263400Y-149075000D01*
X234263400Y-147903400D01*
X241543048Y-147903400D01*
X241057429Y-148389020D01*
G36*
X252915159Y-151070710D02*
G01*
X252852225Y-151104349D01*
X252771005Y-151171005D01*
X252704349Y-151252225D01*
X252654819Y-151344889D01*
X252624319Y-151445435D01*
X252614020Y-151550000D01*
X252614020Y-151625513D01*
X252442944Y-151417056D01*
X252232294Y-151244180D01*
X251991966Y-151115722D01*
X251731194Y-151036617D01*
X251527956Y-151016600D01*
X251392044Y-151016600D01*
X251188806Y-151036617D01*
X250928034Y-151115722D01*
X250687706Y-151244180D01*
X250477056Y-151417056D01*
X250304180Y-151627706D01*
X250175722Y-151868034D01*
X250096617Y-152128806D01*
X250069907Y-152400000D01*
X250096617Y-152671194D01*
X250175722Y-152931966D01*
X250304180Y-153172294D01*
X250477056Y-153382944D01*
X250545600Y-153439197D01*
X250545601Y-157819200D01*
X250499813Y-157819200D01*
X250441668Y-157771481D01*
X250305782Y-157698849D01*
X250158338Y-157654122D01*
X250005001Y-157639020D01*
X249104999Y-157639020D01*
X248951662Y-157654122D01*
X248804218Y-157698849D01*
X248668332Y-157771481D01*
X248590203Y-157835600D01*
X246774874Y-157835600D01*
X246823506Y-157776341D01*
X246872797Y-157684123D01*
X246903151Y-157584061D01*
X246913400Y-157480000D01*
X246913400Y-150622000D01*
X246903151Y-150517939D01*
X246872797Y-150417877D01*
X246823506Y-150325659D01*
X246757171Y-150244829D01*
X246676341Y-150178494D01*
X246584123Y-150129203D01*
X246484061Y-150098849D01*
X246380000Y-150088600D01*
X243840000Y-150088600D01*
X243699653Y-150107395D01*
X243601955Y-150144663D01*
X243513406Y-150200275D01*
X243437407Y-150272094D01*
X243376879Y-150357359D01*
X242733079Y-151484010D01*
X242732799Y-151481172D01*
X242693763Y-151352487D01*
X242630372Y-151233890D01*
X242545111Y-151130000D01*
X242630372Y-151026110D01*
X242693763Y-150907513D01*
X242732799Y-150778828D01*
X242745980Y-150645000D01*
X242745980Y-150345000D01*
X242732799Y-150211172D01*
X242693763Y-150082487D01*
X242630372Y-149963890D01*
X242545111Y-149860000D01*
X242630372Y-149756110D01*
X242693763Y-149637513D01*
X242732799Y-149508828D01*
X242745980Y-149375000D01*
X242745980Y-149075000D01*
X242740759Y-149021990D01*
X250866440Y-149021990D01*
X252915159Y-151070710D01*
X252915159Y-151070710D01*
G37*
X252915159Y-151070710D02*
X252852225Y-151104349D01*
X252771005Y-151171005D01*
X252704349Y-151252225D01*
X252654819Y-151344889D01*
X252624319Y-151445435D01*
X252614020Y-151550000D01*
X252614020Y-151625513D01*
X252442944Y-151417056D01*
X252232294Y-151244180D01*
X251991966Y-151115722D01*
X251731194Y-151036617D01*
X251527956Y-151016600D01*
X251392044Y-151016600D01*
X251188806Y-151036617D01*
X250928034Y-151115722D01*
X250687706Y-151244180D01*
X250477056Y-151417056D01*
X250304180Y-151627706D01*
X250175722Y-151868034D01*
X250096617Y-152128806D01*
X250069907Y-152400000D01*
X250096617Y-152671194D01*
X250175722Y-152931966D01*
X250304180Y-153172294D01*
X250477056Y-153382944D01*
X250545600Y-153439197D01*
X250545601Y-157819200D01*
X250499813Y-157819200D01*
X250441668Y-157771481D01*
X250305782Y-157698849D01*
X250158338Y-157654122D01*
X250005001Y-157639020D01*
X249104999Y-157639020D01*
X248951662Y-157654122D01*
X248804218Y-157698849D01*
X248668332Y-157771481D01*
X248590203Y-157835600D01*
X246774874Y-157835600D01*
X246823506Y-157776341D01*
X246872797Y-157684123D01*
X246903151Y-157584061D01*
X246913400Y-157480000D01*
X246913400Y-150622000D01*
X246903151Y-150517939D01*
X246872797Y-150417877D01*
X246823506Y-150325659D01*
X246757171Y-150244829D01*
X246676341Y-150178494D01*
X246584123Y-150129203D01*
X246484061Y-150098849D01*
X246380000Y-150088600D01*
X243840000Y-150088600D01*
X243699653Y-150107395D01*
X243601955Y-150144663D01*
X243513406Y-150200275D01*
X243437407Y-150272094D01*
X243376879Y-150357359D01*
X242733079Y-151484010D01*
X242732799Y-151481172D01*
X242693763Y-151352487D01*
X242630372Y-151233890D01*
X242545111Y-151130000D01*
X242630372Y-151026110D01*
X242693763Y-150907513D01*
X242732799Y-150778828D01*
X242745980Y-150645000D01*
X242745980Y-150345000D01*
X242732799Y-150211172D01*
X242693763Y-150082487D01*
X242630372Y-149963890D01*
X242545111Y-149860000D01*
X242630372Y-149756110D01*
X242693763Y-149637513D01*
X242732799Y-149508828D01*
X242745980Y-149375000D01*
X242745980Y-149075000D01*
X242740759Y-149021990D01*
X250866440Y-149021990D01*
X252915159Y-151070710D01*
G36*
X246253000Y-157353000D02*
G01*
X240411000Y-157353000D01*
X240411000Y-152568029D01*
X240476172Y-152587799D01*
X240610000Y-152600980D01*
X242060000Y-152600980D01*
X242193828Y-152587799D01*
X242322513Y-152548763D01*
X242363229Y-152527000D01*
X242824000Y-152527000D01*
X242848776Y-152524560D01*
X242872601Y-152517333D01*
X242894557Y-152505597D01*
X242913803Y-152489803D01*
X242934267Y-152463010D01*
X243913701Y-150749000D01*
X246253000Y-150749000D01*
X246253000Y-157353000D01*
X246253000Y-157353000D01*
G37*
X246253000Y-157353000D02*
X240411000Y-157353000D01*
X240411000Y-152568029D01*
X240476172Y-152587799D01*
X240610000Y-152600980D01*
X242060000Y-152600980D01*
X242193828Y-152587799D01*
X242322513Y-152548763D01*
X242363229Y-152527000D01*
X242824000Y-152527000D01*
X242848776Y-152524560D01*
X242872601Y-152517333D01*
X242894557Y-152505597D01*
X242913803Y-152489803D01*
X242934267Y-152463010D01*
X243913701Y-150749000D01*
X246253000Y-150749000D01*
X246253000Y-157353000D01*
M02*
