G04 #@! TF.GenerationSoftware,KiCad,Pcbnew,(5.1.5)-3*
G04 #@! TF.CreationDate,2020-01-18T16:26:57-08:00*
G04 #@! TF.ProjectId,Power Amplifier 1,506f7765-7220-4416-9d70-6c6966696572,rev?*
G04 #@! TF.SameCoordinates,Original*
G04 #@! TF.FileFunction,Copper,L1,Top*
G04 #@! TF.FilePolarity,Positive*
%FSLAX46Y46*%
G04 Gerber Fmt 4.6, Leading zero omitted, Abs format (unit mm)*
G04 Created by KiCad (PCBNEW (5.1.5)-3) date 2020-01-18 16:26:57*
%MOMM*%
%LPD*%
G04 APERTURE LIST*
%ADD10O,1.700000X1.700000*%
%ADD11R,1.700000X1.700000*%
%ADD12R,5.080000X2.420000*%
%ADD13R,5.080000X2.290000*%
%ADD14C,0.100000*%
%ADD15O,1.600000X1.600000*%
%ADD16R,1.600000X1.600000*%
%ADD17C,1.524000*%
%ADD18O,1.905000X2.000000*%
%ADD19R,1.905000X2.000000*%
%ADD20C,1.016000*%
%ADD21C,1.000000*%
%ADD22C,1.500000*%
%ADD23C,0.254000*%
G04 APERTURE END LIST*
D10*
X51523900Y-62509400D03*
X51523900Y-59969400D03*
D11*
X51523900Y-57429400D03*
D10*
X51523900Y-47269400D03*
X51523900Y-49809400D03*
D11*
X51523900Y-52349400D03*
D12*
X83660400Y-47918600D03*
X83660400Y-56678600D03*
D13*
X83642200Y-52336700D03*
G04 #@! TA.AperFunction,SMDPad,CuDef*
D14*
G36*
X39971505Y-37635204D02*
G01*
X39995773Y-37638804D01*
X40019572Y-37644765D01*
X40042671Y-37653030D01*
X40064850Y-37663520D01*
X40085893Y-37676132D01*
X40105599Y-37690747D01*
X40123777Y-37707223D01*
X40140253Y-37725401D01*
X40154868Y-37745107D01*
X40167480Y-37766150D01*
X40177970Y-37788329D01*
X40186235Y-37811428D01*
X40192196Y-37835227D01*
X40195796Y-37859495D01*
X40197000Y-37883999D01*
X40197000Y-38534001D01*
X40195796Y-38558505D01*
X40192196Y-38582773D01*
X40186235Y-38606572D01*
X40177970Y-38629671D01*
X40167480Y-38651850D01*
X40154868Y-38672893D01*
X40140253Y-38692599D01*
X40123777Y-38710777D01*
X40105599Y-38727253D01*
X40085893Y-38741868D01*
X40064850Y-38754480D01*
X40042671Y-38764970D01*
X40019572Y-38773235D01*
X39995773Y-38779196D01*
X39971505Y-38782796D01*
X39947001Y-38784000D01*
X39046999Y-38784000D01*
X39022495Y-38782796D01*
X38998227Y-38779196D01*
X38974428Y-38773235D01*
X38951329Y-38764970D01*
X38929150Y-38754480D01*
X38908107Y-38741868D01*
X38888401Y-38727253D01*
X38870223Y-38710777D01*
X38853747Y-38692599D01*
X38839132Y-38672893D01*
X38826520Y-38651850D01*
X38816030Y-38629671D01*
X38807765Y-38606572D01*
X38801804Y-38582773D01*
X38798204Y-38558505D01*
X38797000Y-38534001D01*
X38797000Y-37883999D01*
X38798204Y-37859495D01*
X38801804Y-37835227D01*
X38807765Y-37811428D01*
X38816030Y-37788329D01*
X38826520Y-37766150D01*
X38839132Y-37745107D01*
X38853747Y-37725401D01*
X38870223Y-37707223D01*
X38888401Y-37690747D01*
X38908107Y-37676132D01*
X38929150Y-37663520D01*
X38951329Y-37653030D01*
X38974428Y-37644765D01*
X38998227Y-37638804D01*
X39022495Y-37635204D01*
X39046999Y-37634000D01*
X39947001Y-37634000D01*
X39971505Y-37635204D01*
G37*
G04 #@! TD.AperFunction*
G04 #@! TA.AperFunction,SMDPad,CuDef*
G36*
X39971505Y-39685204D02*
G01*
X39995773Y-39688804D01*
X40019572Y-39694765D01*
X40042671Y-39703030D01*
X40064850Y-39713520D01*
X40085893Y-39726132D01*
X40105599Y-39740747D01*
X40123777Y-39757223D01*
X40140253Y-39775401D01*
X40154868Y-39795107D01*
X40167480Y-39816150D01*
X40177970Y-39838329D01*
X40186235Y-39861428D01*
X40192196Y-39885227D01*
X40195796Y-39909495D01*
X40197000Y-39933999D01*
X40197000Y-40584001D01*
X40195796Y-40608505D01*
X40192196Y-40632773D01*
X40186235Y-40656572D01*
X40177970Y-40679671D01*
X40167480Y-40701850D01*
X40154868Y-40722893D01*
X40140253Y-40742599D01*
X40123777Y-40760777D01*
X40105599Y-40777253D01*
X40085893Y-40791868D01*
X40064850Y-40804480D01*
X40042671Y-40814970D01*
X40019572Y-40823235D01*
X39995773Y-40829196D01*
X39971505Y-40832796D01*
X39947001Y-40834000D01*
X39046999Y-40834000D01*
X39022495Y-40832796D01*
X38998227Y-40829196D01*
X38974428Y-40823235D01*
X38951329Y-40814970D01*
X38929150Y-40804480D01*
X38908107Y-40791868D01*
X38888401Y-40777253D01*
X38870223Y-40760777D01*
X38853747Y-40742599D01*
X38839132Y-40722893D01*
X38826520Y-40701850D01*
X38816030Y-40679671D01*
X38807765Y-40656572D01*
X38801804Y-40632773D01*
X38798204Y-40608505D01*
X38797000Y-40584001D01*
X38797000Y-39933999D01*
X38798204Y-39909495D01*
X38801804Y-39885227D01*
X38807765Y-39861428D01*
X38816030Y-39838329D01*
X38826520Y-39816150D01*
X38839132Y-39795107D01*
X38853747Y-39775401D01*
X38870223Y-39757223D01*
X38888401Y-39740747D01*
X38908107Y-39726132D01*
X38929150Y-39713520D01*
X38951329Y-39703030D01*
X38974428Y-39694765D01*
X38998227Y-39688804D01*
X39022495Y-39685204D01*
X39046999Y-39684000D01*
X39947001Y-39684000D01*
X39971505Y-39685204D01*
G37*
G04 #@! TD.AperFunction*
D10*
X27609800Y-52349400D03*
D11*
X27609800Y-49809400D03*
G04 #@! TA.AperFunction,SMDPad,CuDef*
D14*
G36*
X23817105Y-51775604D02*
G01*
X23841373Y-51779204D01*
X23865172Y-51785165D01*
X23888271Y-51793430D01*
X23910450Y-51803920D01*
X23931493Y-51816532D01*
X23951199Y-51831147D01*
X23969377Y-51847623D01*
X23985853Y-51865801D01*
X24000468Y-51885507D01*
X24013080Y-51906550D01*
X24023570Y-51928729D01*
X24031835Y-51951828D01*
X24037796Y-51975627D01*
X24041396Y-51999895D01*
X24042600Y-52024399D01*
X24042600Y-52674401D01*
X24041396Y-52698905D01*
X24037796Y-52723173D01*
X24031835Y-52746972D01*
X24023570Y-52770071D01*
X24013080Y-52792250D01*
X24000468Y-52813293D01*
X23985853Y-52832999D01*
X23969377Y-52851177D01*
X23951199Y-52867653D01*
X23931493Y-52882268D01*
X23910450Y-52894880D01*
X23888271Y-52905370D01*
X23865172Y-52913635D01*
X23841373Y-52919596D01*
X23817105Y-52923196D01*
X23792601Y-52924400D01*
X22892599Y-52924400D01*
X22868095Y-52923196D01*
X22843827Y-52919596D01*
X22820028Y-52913635D01*
X22796929Y-52905370D01*
X22774750Y-52894880D01*
X22753707Y-52882268D01*
X22734001Y-52867653D01*
X22715823Y-52851177D01*
X22699347Y-52832999D01*
X22684732Y-52813293D01*
X22672120Y-52792250D01*
X22661630Y-52770071D01*
X22653365Y-52746972D01*
X22647404Y-52723173D01*
X22643804Y-52698905D01*
X22642600Y-52674401D01*
X22642600Y-52024399D01*
X22643804Y-51999895D01*
X22647404Y-51975627D01*
X22653365Y-51951828D01*
X22661630Y-51928729D01*
X22672120Y-51906550D01*
X22684732Y-51885507D01*
X22699347Y-51865801D01*
X22715823Y-51847623D01*
X22734001Y-51831147D01*
X22753707Y-51816532D01*
X22774750Y-51803920D01*
X22796929Y-51793430D01*
X22820028Y-51785165D01*
X22843827Y-51779204D01*
X22868095Y-51775604D01*
X22892599Y-51774400D01*
X23792601Y-51774400D01*
X23817105Y-51775604D01*
G37*
G04 #@! TD.AperFunction*
G04 #@! TA.AperFunction,SMDPad,CuDef*
G36*
X23817105Y-49725604D02*
G01*
X23841373Y-49729204D01*
X23865172Y-49735165D01*
X23888271Y-49743430D01*
X23910450Y-49753920D01*
X23931493Y-49766532D01*
X23951199Y-49781147D01*
X23969377Y-49797623D01*
X23985853Y-49815801D01*
X24000468Y-49835507D01*
X24013080Y-49856550D01*
X24023570Y-49878729D01*
X24031835Y-49901828D01*
X24037796Y-49925627D01*
X24041396Y-49949895D01*
X24042600Y-49974399D01*
X24042600Y-50624401D01*
X24041396Y-50648905D01*
X24037796Y-50673173D01*
X24031835Y-50696972D01*
X24023570Y-50720071D01*
X24013080Y-50742250D01*
X24000468Y-50763293D01*
X23985853Y-50782999D01*
X23969377Y-50801177D01*
X23951199Y-50817653D01*
X23931493Y-50832268D01*
X23910450Y-50844880D01*
X23888271Y-50855370D01*
X23865172Y-50863635D01*
X23841373Y-50869596D01*
X23817105Y-50873196D01*
X23792601Y-50874400D01*
X22892599Y-50874400D01*
X22868095Y-50873196D01*
X22843827Y-50869596D01*
X22820028Y-50863635D01*
X22796929Y-50855370D01*
X22774750Y-50844880D01*
X22753707Y-50832268D01*
X22734001Y-50817653D01*
X22715823Y-50801177D01*
X22699347Y-50782999D01*
X22684732Y-50763293D01*
X22672120Y-50742250D01*
X22661630Y-50720071D01*
X22653365Y-50696972D01*
X22647404Y-50673173D01*
X22643804Y-50648905D01*
X22642600Y-50624401D01*
X22642600Y-49974399D01*
X22643804Y-49949895D01*
X22647404Y-49925627D01*
X22653365Y-49901828D01*
X22661630Y-49878729D01*
X22672120Y-49856550D01*
X22684732Y-49835507D01*
X22699347Y-49815801D01*
X22715823Y-49797623D01*
X22734001Y-49781147D01*
X22753707Y-49766532D01*
X22774750Y-49753920D01*
X22796929Y-49743430D01*
X22820028Y-49735165D01*
X22843827Y-49729204D01*
X22868095Y-49725604D01*
X22892599Y-49724400D01*
X23792601Y-49724400D01*
X23817105Y-49725604D01*
G37*
G04 #@! TD.AperFunction*
G04 #@! TA.AperFunction,SMDPad,CuDef*
G36*
X53751005Y-37635204D02*
G01*
X53775273Y-37638804D01*
X53799072Y-37644765D01*
X53822171Y-37653030D01*
X53844350Y-37663520D01*
X53865393Y-37676132D01*
X53885099Y-37690747D01*
X53903277Y-37707223D01*
X53919753Y-37725401D01*
X53934368Y-37745107D01*
X53946980Y-37766150D01*
X53957470Y-37788329D01*
X53965735Y-37811428D01*
X53971696Y-37835227D01*
X53975296Y-37859495D01*
X53976500Y-37883999D01*
X53976500Y-38534001D01*
X53975296Y-38558505D01*
X53971696Y-38582773D01*
X53965735Y-38606572D01*
X53957470Y-38629671D01*
X53946980Y-38651850D01*
X53934368Y-38672893D01*
X53919753Y-38692599D01*
X53903277Y-38710777D01*
X53885099Y-38727253D01*
X53865393Y-38741868D01*
X53844350Y-38754480D01*
X53822171Y-38764970D01*
X53799072Y-38773235D01*
X53775273Y-38779196D01*
X53751005Y-38782796D01*
X53726501Y-38784000D01*
X52826499Y-38784000D01*
X52801995Y-38782796D01*
X52777727Y-38779196D01*
X52753928Y-38773235D01*
X52730829Y-38764970D01*
X52708650Y-38754480D01*
X52687607Y-38741868D01*
X52667901Y-38727253D01*
X52649723Y-38710777D01*
X52633247Y-38692599D01*
X52618632Y-38672893D01*
X52606020Y-38651850D01*
X52595530Y-38629671D01*
X52587265Y-38606572D01*
X52581304Y-38582773D01*
X52577704Y-38558505D01*
X52576500Y-38534001D01*
X52576500Y-37883999D01*
X52577704Y-37859495D01*
X52581304Y-37835227D01*
X52587265Y-37811428D01*
X52595530Y-37788329D01*
X52606020Y-37766150D01*
X52618632Y-37745107D01*
X52633247Y-37725401D01*
X52649723Y-37707223D01*
X52667901Y-37690747D01*
X52687607Y-37676132D01*
X52708650Y-37663520D01*
X52730829Y-37653030D01*
X52753928Y-37644765D01*
X52777727Y-37638804D01*
X52801995Y-37635204D01*
X52826499Y-37634000D01*
X53726501Y-37634000D01*
X53751005Y-37635204D01*
G37*
G04 #@! TD.AperFunction*
G04 #@! TA.AperFunction,SMDPad,CuDef*
G36*
X53751005Y-39685204D02*
G01*
X53775273Y-39688804D01*
X53799072Y-39694765D01*
X53822171Y-39703030D01*
X53844350Y-39713520D01*
X53865393Y-39726132D01*
X53885099Y-39740747D01*
X53903277Y-39757223D01*
X53919753Y-39775401D01*
X53934368Y-39795107D01*
X53946980Y-39816150D01*
X53957470Y-39838329D01*
X53965735Y-39861428D01*
X53971696Y-39885227D01*
X53975296Y-39909495D01*
X53976500Y-39933999D01*
X53976500Y-40584001D01*
X53975296Y-40608505D01*
X53971696Y-40632773D01*
X53965735Y-40656572D01*
X53957470Y-40679671D01*
X53946980Y-40701850D01*
X53934368Y-40722893D01*
X53919753Y-40742599D01*
X53903277Y-40760777D01*
X53885099Y-40777253D01*
X53865393Y-40791868D01*
X53844350Y-40804480D01*
X53822171Y-40814970D01*
X53799072Y-40823235D01*
X53775273Y-40829196D01*
X53751005Y-40832796D01*
X53726501Y-40834000D01*
X52826499Y-40834000D01*
X52801995Y-40832796D01*
X52777727Y-40829196D01*
X52753928Y-40823235D01*
X52730829Y-40814970D01*
X52708650Y-40804480D01*
X52687607Y-40791868D01*
X52667901Y-40777253D01*
X52649723Y-40760777D01*
X52633247Y-40742599D01*
X52618632Y-40722893D01*
X52606020Y-40701850D01*
X52595530Y-40679671D01*
X52587265Y-40656572D01*
X52581304Y-40632773D01*
X52577704Y-40608505D01*
X52576500Y-40584001D01*
X52576500Y-39933999D01*
X52577704Y-39909495D01*
X52581304Y-39885227D01*
X52587265Y-39861428D01*
X52595530Y-39838329D01*
X52606020Y-39816150D01*
X52618632Y-39795107D01*
X52633247Y-39775401D01*
X52649723Y-39757223D01*
X52667901Y-39740747D01*
X52687607Y-39726132D01*
X52708650Y-39713520D01*
X52730829Y-39703030D01*
X52753928Y-39694765D01*
X52777727Y-39688804D01*
X52801995Y-39685204D01*
X52826499Y-39684000D01*
X53726501Y-39684000D01*
X53751005Y-39685204D01*
G37*
G04 #@! TD.AperFunction*
G04 #@! TA.AperFunction,SMDPad,CuDef*
G36*
X74744510Y-53876402D02*
G01*
X74768735Y-53879995D01*
X74792491Y-53885946D01*
X74815549Y-53894196D01*
X74837687Y-53904667D01*
X74858693Y-53917257D01*
X74878363Y-53931845D01*
X74896508Y-53948292D01*
X74912955Y-53966437D01*
X74927543Y-53986107D01*
X74940133Y-54007113D01*
X74950604Y-54029251D01*
X74958854Y-54052309D01*
X74964805Y-54076065D01*
X74968398Y-54100290D01*
X74969600Y-54124750D01*
X74969600Y-54775650D01*
X74968398Y-54800110D01*
X74964805Y-54824335D01*
X74958854Y-54848091D01*
X74950604Y-54871149D01*
X74940133Y-54893287D01*
X74927543Y-54914293D01*
X74912955Y-54933963D01*
X74896508Y-54952108D01*
X74878363Y-54968555D01*
X74858693Y-54983143D01*
X74837687Y-54995733D01*
X74815549Y-55006204D01*
X74792491Y-55014454D01*
X74768735Y-55020405D01*
X74744510Y-55023998D01*
X74720050Y-55025200D01*
X73819150Y-55025200D01*
X73794690Y-55023998D01*
X73770465Y-55020405D01*
X73746709Y-55014454D01*
X73723651Y-55006204D01*
X73701513Y-54995733D01*
X73680507Y-54983143D01*
X73660837Y-54968555D01*
X73642692Y-54952108D01*
X73626245Y-54933963D01*
X73611657Y-54914293D01*
X73599067Y-54893287D01*
X73588596Y-54871149D01*
X73580346Y-54848091D01*
X73574395Y-54824335D01*
X73570802Y-54800110D01*
X73569600Y-54775650D01*
X73569600Y-54124750D01*
X73570802Y-54100290D01*
X73574395Y-54076065D01*
X73580346Y-54052309D01*
X73588596Y-54029251D01*
X73599067Y-54007113D01*
X73611657Y-53986107D01*
X73626245Y-53966437D01*
X73642692Y-53948292D01*
X73660837Y-53931845D01*
X73680507Y-53917257D01*
X73701513Y-53904667D01*
X73723651Y-53894196D01*
X73746709Y-53885946D01*
X73770465Y-53879995D01*
X73794690Y-53876402D01*
X73819150Y-53875200D01*
X74720050Y-53875200D01*
X74744510Y-53876402D01*
G37*
G04 #@! TD.AperFunction*
G04 #@! TA.AperFunction,SMDPad,CuDef*
G36*
X74744510Y-51826402D02*
G01*
X74768735Y-51829995D01*
X74792491Y-51835946D01*
X74815549Y-51844196D01*
X74837687Y-51854667D01*
X74858693Y-51867257D01*
X74878363Y-51881845D01*
X74896508Y-51898292D01*
X74912955Y-51916437D01*
X74927543Y-51936107D01*
X74940133Y-51957113D01*
X74950604Y-51979251D01*
X74958854Y-52002309D01*
X74964805Y-52026065D01*
X74968398Y-52050290D01*
X74969600Y-52074750D01*
X74969600Y-52725650D01*
X74968398Y-52750110D01*
X74964805Y-52774335D01*
X74958854Y-52798091D01*
X74950604Y-52821149D01*
X74940133Y-52843287D01*
X74927543Y-52864293D01*
X74912955Y-52883963D01*
X74896508Y-52902108D01*
X74878363Y-52918555D01*
X74858693Y-52933143D01*
X74837687Y-52945733D01*
X74815549Y-52956204D01*
X74792491Y-52964454D01*
X74768735Y-52970405D01*
X74744510Y-52973998D01*
X74720050Y-52975200D01*
X73819150Y-52975200D01*
X73794690Y-52973998D01*
X73770465Y-52970405D01*
X73746709Y-52964454D01*
X73723651Y-52956204D01*
X73701513Y-52945733D01*
X73680507Y-52933143D01*
X73660837Y-52918555D01*
X73642692Y-52902108D01*
X73626245Y-52883963D01*
X73611657Y-52864293D01*
X73599067Y-52843287D01*
X73588596Y-52821149D01*
X73580346Y-52798091D01*
X73574395Y-52774335D01*
X73570802Y-52750110D01*
X73569600Y-52725650D01*
X73569600Y-52074750D01*
X73570802Y-52050290D01*
X73574395Y-52026065D01*
X73580346Y-52002309D01*
X73588596Y-51979251D01*
X73599067Y-51957113D01*
X73611657Y-51936107D01*
X73626245Y-51916437D01*
X73642692Y-51898292D01*
X73660837Y-51881845D01*
X73680507Y-51867257D01*
X73701513Y-51854667D01*
X73723651Y-51844196D01*
X73746709Y-51835946D01*
X73770465Y-51829995D01*
X73794690Y-51826402D01*
X73819150Y-51825200D01*
X74720050Y-51825200D01*
X74744510Y-51826402D01*
G37*
G04 #@! TD.AperFunction*
G04 #@! TA.AperFunction,SMDPad,CuDef*
G36*
X69199905Y-46088004D02*
G01*
X69224173Y-46091604D01*
X69247972Y-46097565D01*
X69271071Y-46105830D01*
X69293250Y-46116320D01*
X69314293Y-46128932D01*
X69333999Y-46143547D01*
X69352177Y-46160023D01*
X69368653Y-46178201D01*
X69383268Y-46197907D01*
X69395880Y-46218950D01*
X69406370Y-46241129D01*
X69414635Y-46264228D01*
X69420596Y-46288027D01*
X69424196Y-46312295D01*
X69425400Y-46336799D01*
X69425400Y-47236801D01*
X69424196Y-47261305D01*
X69420596Y-47285573D01*
X69414635Y-47309372D01*
X69406370Y-47332471D01*
X69395880Y-47354650D01*
X69383268Y-47375693D01*
X69368653Y-47395399D01*
X69352177Y-47413577D01*
X69333999Y-47430053D01*
X69314293Y-47444668D01*
X69293250Y-47457280D01*
X69271071Y-47467770D01*
X69247972Y-47476035D01*
X69224173Y-47481996D01*
X69199905Y-47485596D01*
X69175401Y-47486800D01*
X68525399Y-47486800D01*
X68500895Y-47485596D01*
X68476627Y-47481996D01*
X68452828Y-47476035D01*
X68429729Y-47467770D01*
X68407550Y-47457280D01*
X68386507Y-47444668D01*
X68366801Y-47430053D01*
X68348623Y-47413577D01*
X68332147Y-47395399D01*
X68317532Y-47375693D01*
X68304920Y-47354650D01*
X68294430Y-47332471D01*
X68286165Y-47309372D01*
X68280204Y-47285573D01*
X68276604Y-47261305D01*
X68275400Y-47236801D01*
X68275400Y-46336799D01*
X68276604Y-46312295D01*
X68280204Y-46288027D01*
X68286165Y-46264228D01*
X68294430Y-46241129D01*
X68304920Y-46218950D01*
X68317532Y-46197907D01*
X68332147Y-46178201D01*
X68348623Y-46160023D01*
X68366801Y-46143547D01*
X68386507Y-46128932D01*
X68407550Y-46116320D01*
X68429729Y-46105830D01*
X68452828Y-46097565D01*
X68476627Y-46091604D01*
X68500895Y-46088004D01*
X68525399Y-46086800D01*
X69175401Y-46086800D01*
X69199905Y-46088004D01*
G37*
G04 #@! TD.AperFunction*
G04 #@! TA.AperFunction,SMDPad,CuDef*
G36*
X71249905Y-46088004D02*
G01*
X71274173Y-46091604D01*
X71297972Y-46097565D01*
X71321071Y-46105830D01*
X71343250Y-46116320D01*
X71364293Y-46128932D01*
X71383999Y-46143547D01*
X71402177Y-46160023D01*
X71418653Y-46178201D01*
X71433268Y-46197907D01*
X71445880Y-46218950D01*
X71456370Y-46241129D01*
X71464635Y-46264228D01*
X71470596Y-46288027D01*
X71474196Y-46312295D01*
X71475400Y-46336799D01*
X71475400Y-47236801D01*
X71474196Y-47261305D01*
X71470596Y-47285573D01*
X71464635Y-47309372D01*
X71456370Y-47332471D01*
X71445880Y-47354650D01*
X71433268Y-47375693D01*
X71418653Y-47395399D01*
X71402177Y-47413577D01*
X71383999Y-47430053D01*
X71364293Y-47444668D01*
X71343250Y-47457280D01*
X71321071Y-47467770D01*
X71297972Y-47476035D01*
X71274173Y-47481996D01*
X71249905Y-47485596D01*
X71225401Y-47486800D01*
X70575399Y-47486800D01*
X70550895Y-47485596D01*
X70526627Y-47481996D01*
X70502828Y-47476035D01*
X70479729Y-47467770D01*
X70457550Y-47457280D01*
X70436507Y-47444668D01*
X70416801Y-47430053D01*
X70398623Y-47413577D01*
X70382147Y-47395399D01*
X70367532Y-47375693D01*
X70354920Y-47354650D01*
X70344430Y-47332471D01*
X70336165Y-47309372D01*
X70330204Y-47285573D01*
X70326604Y-47261305D01*
X70325400Y-47236801D01*
X70325400Y-46336799D01*
X70326604Y-46312295D01*
X70330204Y-46288027D01*
X70336165Y-46264228D01*
X70344430Y-46241129D01*
X70354920Y-46218950D01*
X70367532Y-46197907D01*
X70382147Y-46178201D01*
X70398623Y-46160023D01*
X70416801Y-46143547D01*
X70436507Y-46128932D01*
X70457550Y-46116320D01*
X70479729Y-46105830D01*
X70502828Y-46097565D01*
X70526627Y-46091604D01*
X70550895Y-46088004D01*
X70575399Y-46086800D01*
X71225401Y-46086800D01*
X71249905Y-46088004D01*
G37*
G04 #@! TD.AperFunction*
G04 #@! TA.AperFunction,SMDPad,CuDef*
G36*
X78033405Y-53812904D02*
G01*
X78057673Y-53816504D01*
X78081472Y-53822465D01*
X78104571Y-53830730D01*
X78126750Y-53841220D01*
X78147793Y-53853832D01*
X78167499Y-53868447D01*
X78185677Y-53884923D01*
X78202153Y-53903101D01*
X78216768Y-53922807D01*
X78229380Y-53943850D01*
X78239870Y-53966029D01*
X78248135Y-53989128D01*
X78254096Y-54012927D01*
X78257696Y-54037195D01*
X78258900Y-54061699D01*
X78258900Y-54711701D01*
X78257696Y-54736205D01*
X78254096Y-54760473D01*
X78248135Y-54784272D01*
X78239870Y-54807371D01*
X78229380Y-54829550D01*
X78216768Y-54850593D01*
X78202153Y-54870299D01*
X78185677Y-54888477D01*
X78167499Y-54904953D01*
X78147793Y-54919568D01*
X78126750Y-54932180D01*
X78104571Y-54942670D01*
X78081472Y-54950935D01*
X78057673Y-54956896D01*
X78033405Y-54960496D01*
X78008901Y-54961700D01*
X77108899Y-54961700D01*
X77084395Y-54960496D01*
X77060127Y-54956896D01*
X77036328Y-54950935D01*
X77013229Y-54942670D01*
X76991050Y-54932180D01*
X76970007Y-54919568D01*
X76950301Y-54904953D01*
X76932123Y-54888477D01*
X76915647Y-54870299D01*
X76901032Y-54850593D01*
X76888420Y-54829550D01*
X76877930Y-54807371D01*
X76869665Y-54784272D01*
X76863704Y-54760473D01*
X76860104Y-54736205D01*
X76858900Y-54711701D01*
X76858900Y-54061699D01*
X76860104Y-54037195D01*
X76863704Y-54012927D01*
X76869665Y-53989128D01*
X76877930Y-53966029D01*
X76888420Y-53943850D01*
X76901032Y-53922807D01*
X76915647Y-53903101D01*
X76932123Y-53884923D01*
X76950301Y-53868447D01*
X76970007Y-53853832D01*
X76991050Y-53841220D01*
X77013229Y-53830730D01*
X77036328Y-53822465D01*
X77060127Y-53816504D01*
X77084395Y-53812904D01*
X77108899Y-53811700D01*
X78008901Y-53811700D01*
X78033405Y-53812904D01*
G37*
G04 #@! TD.AperFunction*
G04 #@! TA.AperFunction,SMDPad,CuDef*
G36*
X78033405Y-51762904D02*
G01*
X78057673Y-51766504D01*
X78081472Y-51772465D01*
X78104571Y-51780730D01*
X78126750Y-51791220D01*
X78147793Y-51803832D01*
X78167499Y-51818447D01*
X78185677Y-51834923D01*
X78202153Y-51853101D01*
X78216768Y-51872807D01*
X78229380Y-51893850D01*
X78239870Y-51916029D01*
X78248135Y-51939128D01*
X78254096Y-51962927D01*
X78257696Y-51987195D01*
X78258900Y-52011699D01*
X78258900Y-52661701D01*
X78257696Y-52686205D01*
X78254096Y-52710473D01*
X78248135Y-52734272D01*
X78239870Y-52757371D01*
X78229380Y-52779550D01*
X78216768Y-52800593D01*
X78202153Y-52820299D01*
X78185677Y-52838477D01*
X78167499Y-52854953D01*
X78147793Y-52869568D01*
X78126750Y-52882180D01*
X78104571Y-52892670D01*
X78081472Y-52900935D01*
X78057673Y-52906896D01*
X78033405Y-52910496D01*
X78008901Y-52911700D01*
X77108899Y-52911700D01*
X77084395Y-52910496D01*
X77060127Y-52906896D01*
X77036328Y-52900935D01*
X77013229Y-52892670D01*
X76991050Y-52882180D01*
X76970007Y-52869568D01*
X76950301Y-52854953D01*
X76932123Y-52838477D01*
X76915647Y-52820299D01*
X76901032Y-52800593D01*
X76888420Y-52779550D01*
X76877930Y-52757371D01*
X76869665Y-52734272D01*
X76863704Y-52710473D01*
X76860104Y-52686205D01*
X76858900Y-52661701D01*
X76858900Y-52011699D01*
X76860104Y-51987195D01*
X76863704Y-51962927D01*
X76869665Y-51939128D01*
X76877930Y-51916029D01*
X76888420Y-51893850D01*
X76901032Y-51872807D01*
X76915647Y-51853101D01*
X76932123Y-51834923D01*
X76950301Y-51818447D01*
X76970007Y-51803832D01*
X76991050Y-51791220D01*
X77013229Y-51780730D01*
X77036328Y-51772465D01*
X77060127Y-51766504D01*
X77084395Y-51762904D01*
X77108899Y-51761700D01*
X78008901Y-51761700D01*
X78033405Y-51762904D01*
G37*
G04 #@! TD.AperFunction*
D15*
X23558500Y-40259000D03*
D16*
X36258500Y-40259000D03*
D10*
X18669000Y-42799000D03*
D11*
X18669000Y-40259000D03*
D10*
X18643600Y-54889400D03*
D11*
X18643600Y-52349400D03*
G04 #@! TA.AperFunction,SMDPad,CuDef*
D14*
G36*
X74744105Y-46213004D02*
G01*
X74768373Y-46216604D01*
X74792172Y-46222565D01*
X74815271Y-46230830D01*
X74837450Y-46241320D01*
X74858493Y-46253932D01*
X74878199Y-46268547D01*
X74896377Y-46285023D01*
X74912853Y-46303201D01*
X74927468Y-46322907D01*
X74940080Y-46343950D01*
X74950570Y-46366129D01*
X74958835Y-46389228D01*
X74964796Y-46413027D01*
X74968396Y-46437295D01*
X74969600Y-46461799D01*
X74969600Y-47111801D01*
X74968396Y-47136305D01*
X74964796Y-47160573D01*
X74958835Y-47184372D01*
X74950570Y-47207471D01*
X74940080Y-47229650D01*
X74927468Y-47250693D01*
X74912853Y-47270399D01*
X74896377Y-47288577D01*
X74878199Y-47305053D01*
X74858493Y-47319668D01*
X74837450Y-47332280D01*
X74815271Y-47342770D01*
X74792172Y-47351035D01*
X74768373Y-47356996D01*
X74744105Y-47360596D01*
X74719601Y-47361800D01*
X73819599Y-47361800D01*
X73795095Y-47360596D01*
X73770827Y-47356996D01*
X73747028Y-47351035D01*
X73723929Y-47342770D01*
X73701750Y-47332280D01*
X73680707Y-47319668D01*
X73661001Y-47305053D01*
X73642823Y-47288577D01*
X73626347Y-47270399D01*
X73611732Y-47250693D01*
X73599120Y-47229650D01*
X73588630Y-47207471D01*
X73580365Y-47184372D01*
X73574404Y-47160573D01*
X73570804Y-47136305D01*
X73569600Y-47111801D01*
X73569600Y-46461799D01*
X73570804Y-46437295D01*
X73574404Y-46413027D01*
X73580365Y-46389228D01*
X73588630Y-46366129D01*
X73599120Y-46343950D01*
X73611732Y-46322907D01*
X73626347Y-46303201D01*
X73642823Y-46285023D01*
X73661001Y-46268547D01*
X73680707Y-46253932D01*
X73701750Y-46241320D01*
X73723929Y-46230830D01*
X73747028Y-46222565D01*
X73770827Y-46216604D01*
X73795095Y-46213004D01*
X73819599Y-46211800D01*
X74719601Y-46211800D01*
X74744105Y-46213004D01*
G37*
G04 #@! TD.AperFunction*
G04 #@! TA.AperFunction,SMDPad,CuDef*
G36*
X74744105Y-48263004D02*
G01*
X74768373Y-48266604D01*
X74792172Y-48272565D01*
X74815271Y-48280830D01*
X74837450Y-48291320D01*
X74858493Y-48303932D01*
X74878199Y-48318547D01*
X74896377Y-48335023D01*
X74912853Y-48353201D01*
X74927468Y-48372907D01*
X74940080Y-48393950D01*
X74950570Y-48416129D01*
X74958835Y-48439228D01*
X74964796Y-48463027D01*
X74968396Y-48487295D01*
X74969600Y-48511799D01*
X74969600Y-49161801D01*
X74968396Y-49186305D01*
X74964796Y-49210573D01*
X74958835Y-49234372D01*
X74950570Y-49257471D01*
X74940080Y-49279650D01*
X74927468Y-49300693D01*
X74912853Y-49320399D01*
X74896377Y-49338577D01*
X74878199Y-49355053D01*
X74858493Y-49369668D01*
X74837450Y-49382280D01*
X74815271Y-49392770D01*
X74792172Y-49401035D01*
X74768373Y-49406996D01*
X74744105Y-49410596D01*
X74719601Y-49411800D01*
X73819599Y-49411800D01*
X73795095Y-49410596D01*
X73770827Y-49406996D01*
X73747028Y-49401035D01*
X73723929Y-49392770D01*
X73701750Y-49382280D01*
X73680707Y-49369668D01*
X73661001Y-49355053D01*
X73642823Y-49338577D01*
X73626347Y-49320399D01*
X73611732Y-49300693D01*
X73599120Y-49279650D01*
X73588630Y-49257471D01*
X73580365Y-49234372D01*
X73574404Y-49210573D01*
X73570804Y-49186305D01*
X73569600Y-49161801D01*
X73569600Y-48511799D01*
X73570804Y-48487295D01*
X73574404Y-48463027D01*
X73580365Y-48439228D01*
X73588630Y-48416129D01*
X73599120Y-48393950D01*
X73611732Y-48372907D01*
X73626347Y-48353201D01*
X73642823Y-48335023D01*
X73661001Y-48318547D01*
X73680707Y-48303932D01*
X73701750Y-48291320D01*
X73723929Y-48280830D01*
X73747028Y-48272565D01*
X73770827Y-48266604D01*
X73795095Y-48263004D01*
X73819599Y-48261800D01*
X74719601Y-48261800D01*
X74744105Y-48263004D01*
G37*
G04 #@! TD.AperFunction*
G04 #@! TA.AperFunction,SMDPad,CuDef*
G36*
X78033405Y-48263004D02*
G01*
X78057673Y-48266604D01*
X78081472Y-48272565D01*
X78104571Y-48280830D01*
X78126750Y-48291320D01*
X78147793Y-48303932D01*
X78167499Y-48318547D01*
X78185677Y-48335023D01*
X78202153Y-48353201D01*
X78216768Y-48372907D01*
X78229380Y-48393950D01*
X78239870Y-48416129D01*
X78248135Y-48439228D01*
X78254096Y-48463027D01*
X78257696Y-48487295D01*
X78258900Y-48511799D01*
X78258900Y-49161801D01*
X78257696Y-49186305D01*
X78254096Y-49210573D01*
X78248135Y-49234372D01*
X78239870Y-49257471D01*
X78229380Y-49279650D01*
X78216768Y-49300693D01*
X78202153Y-49320399D01*
X78185677Y-49338577D01*
X78167499Y-49355053D01*
X78147793Y-49369668D01*
X78126750Y-49382280D01*
X78104571Y-49392770D01*
X78081472Y-49401035D01*
X78057673Y-49406996D01*
X78033405Y-49410596D01*
X78008901Y-49411800D01*
X77108899Y-49411800D01*
X77084395Y-49410596D01*
X77060127Y-49406996D01*
X77036328Y-49401035D01*
X77013229Y-49392770D01*
X76991050Y-49382280D01*
X76970007Y-49369668D01*
X76950301Y-49355053D01*
X76932123Y-49338577D01*
X76915647Y-49320399D01*
X76901032Y-49300693D01*
X76888420Y-49279650D01*
X76877930Y-49257471D01*
X76869665Y-49234372D01*
X76863704Y-49210573D01*
X76860104Y-49186305D01*
X76858900Y-49161801D01*
X76858900Y-48511799D01*
X76860104Y-48487295D01*
X76863704Y-48463027D01*
X76869665Y-48439228D01*
X76877930Y-48416129D01*
X76888420Y-48393950D01*
X76901032Y-48372907D01*
X76915647Y-48353201D01*
X76932123Y-48335023D01*
X76950301Y-48318547D01*
X76970007Y-48303932D01*
X76991050Y-48291320D01*
X77013229Y-48280830D01*
X77036328Y-48272565D01*
X77060127Y-48266604D01*
X77084395Y-48263004D01*
X77108899Y-48261800D01*
X78008901Y-48261800D01*
X78033405Y-48263004D01*
G37*
G04 #@! TD.AperFunction*
G04 #@! TA.AperFunction,SMDPad,CuDef*
G36*
X78033405Y-46213004D02*
G01*
X78057673Y-46216604D01*
X78081472Y-46222565D01*
X78104571Y-46230830D01*
X78126750Y-46241320D01*
X78147793Y-46253932D01*
X78167499Y-46268547D01*
X78185677Y-46285023D01*
X78202153Y-46303201D01*
X78216768Y-46322907D01*
X78229380Y-46343950D01*
X78239870Y-46366129D01*
X78248135Y-46389228D01*
X78254096Y-46413027D01*
X78257696Y-46437295D01*
X78258900Y-46461799D01*
X78258900Y-47111801D01*
X78257696Y-47136305D01*
X78254096Y-47160573D01*
X78248135Y-47184372D01*
X78239870Y-47207471D01*
X78229380Y-47229650D01*
X78216768Y-47250693D01*
X78202153Y-47270399D01*
X78185677Y-47288577D01*
X78167499Y-47305053D01*
X78147793Y-47319668D01*
X78126750Y-47332280D01*
X78104571Y-47342770D01*
X78081472Y-47351035D01*
X78057673Y-47356996D01*
X78033405Y-47360596D01*
X78008901Y-47361800D01*
X77108899Y-47361800D01*
X77084395Y-47360596D01*
X77060127Y-47356996D01*
X77036328Y-47351035D01*
X77013229Y-47342770D01*
X76991050Y-47332280D01*
X76970007Y-47319668D01*
X76950301Y-47305053D01*
X76932123Y-47288577D01*
X76915647Y-47270399D01*
X76901032Y-47250693D01*
X76888420Y-47229650D01*
X76877930Y-47207471D01*
X76869665Y-47184372D01*
X76863704Y-47160573D01*
X76860104Y-47136305D01*
X76858900Y-47111801D01*
X76858900Y-46461799D01*
X76860104Y-46437295D01*
X76863704Y-46413027D01*
X76869665Y-46389228D01*
X76877930Y-46366129D01*
X76888420Y-46343950D01*
X76901032Y-46322907D01*
X76915647Y-46303201D01*
X76932123Y-46285023D01*
X76950301Y-46268547D01*
X76970007Y-46253932D01*
X76991050Y-46241320D01*
X77013229Y-46230830D01*
X77036328Y-46222565D01*
X77060127Y-46216604D01*
X77084395Y-46213004D01*
X77108899Y-46211800D01*
X78008901Y-46211800D01*
X78033405Y-46213004D01*
G37*
G04 #@! TD.AperFunction*
D17*
X39446200Y-49809400D03*
X39446200Y-54889400D03*
X39446200Y-59969400D03*
X31826200Y-57429400D03*
X31826200Y-52349400D03*
X71374000Y-52412900D03*
X71374000Y-57492900D03*
X63754000Y-60032900D03*
X63754000Y-54952900D03*
X63754000Y-49872900D03*
D18*
X49149000Y-40259000D03*
X46609000Y-40259000D03*
D19*
X44069000Y-40259000D03*
D20*
X60579000Y-54952900D03*
X43357800Y-54889400D03*
X51523900Y-54838600D03*
D21*
X18643600Y-52349400D02*
X23342600Y-52349400D01*
X23342600Y-52349400D02*
X27609800Y-52349400D01*
X27609800Y-52349400D02*
X31826200Y-52349400D01*
D22*
X53276500Y-40259000D02*
X49149000Y-40259000D01*
D21*
X49149000Y-40259000D02*
X49149000Y-40306500D01*
D22*
X49149000Y-42259000D02*
X46069000Y-45339000D01*
X49149000Y-40259000D02*
X49149000Y-42259000D01*
X27609800Y-47959400D02*
X27609800Y-49809400D01*
X30230200Y-45339000D02*
X27609800Y-47959400D01*
X46069000Y-45339000D02*
X30230200Y-45339000D01*
X30230200Y-45339000D02*
X24815800Y-45339000D01*
X23342600Y-46812200D02*
X23342600Y-50299400D01*
X24815800Y-45339000D02*
X23342600Y-46812200D01*
X63754000Y-54952900D02*
X60579000Y-54952900D01*
X60579000Y-54952900D02*
X60579000Y-54952900D01*
X39446200Y-54889400D02*
X43357800Y-54889400D01*
X43357800Y-54889400D02*
X43357800Y-54889400D01*
D21*
X74269600Y-46786800D02*
X77558900Y-46786800D01*
X74269600Y-46786800D02*
X70900400Y-46786800D01*
X77558900Y-48836800D02*
X77558900Y-52336700D01*
X77558900Y-52336700D02*
X83642200Y-52336700D01*
D22*
X19769000Y-40259000D02*
X23558500Y-40259000D01*
X18669000Y-40259000D02*
X19769000Y-40259000D01*
X51523900Y-52349400D02*
X51523900Y-54838600D01*
X51523900Y-54838600D02*
X51523900Y-57429400D01*
D21*
X39446200Y-49809400D02*
X51523900Y-49809400D01*
X61150500Y-47269400D02*
X63754000Y-49872900D01*
X51523900Y-47269400D02*
X61150500Y-47269400D01*
X39446200Y-59969400D02*
X40523830Y-59969400D01*
X40523830Y-59969400D02*
X51523900Y-59969400D01*
X74256900Y-52412900D02*
X74269600Y-52400200D01*
X71374000Y-52412900D02*
X74256900Y-52412900D01*
X74269600Y-52400200D02*
X74269600Y-48836800D01*
D22*
X36258500Y-40259000D02*
X39497000Y-40259000D01*
X39497000Y-40259000D02*
X44069000Y-40259000D01*
D21*
X61277500Y-62509400D02*
X63754000Y-60032900D01*
X51523900Y-62509400D02*
X61277500Y-62509400D01*
D23*
G36*
X38266463Y-37279506D02*
G01*
X38207498Y-37389820D01*
X38171188Y-37509518D01*
X38158928Y-37634000D01*
X38162000Y-37923250D01*
X38320750Y-38082000D01*
X39370000Y-38082000D01*
X39370000Y-38062000D01*
X39624000Y-38062000D01*
X39624000Y-38082000D01*
X40673250Y-38082000D01*
X40832000Y-37923250D01*
X40835072Y-37634000D01*
X40822812Y-37509518D01*
X40786502Y-37389820D01*
X40727537Y-37279506D01*
X40660565Y-37197900D01*
X52112935Y-37197900D01*
X52045963Y-37279506D01*
X51986998Y-37389820D01*
X51950688Y-37509518D01*
X51938428Y-37634000D01*
X51941500Y-37923250D01*
X52100250Y-38082000D01*
X53149500Y-38082000D01*
X53149500Y-38062000D01*
X53403500Y-38062000D01*
X53403500Y-38082000D01*
X54452750Y-38082000D01*
X54611500Y-37923250D01*
X54614572Y-37634000D01*
X54602312Y-37509518D01*
X54566002Y-37389820D01*
X54507037Y-37279506D01*
X54440065Y-37197900D01*
X85340000Y-37197900D01*
X85340000Y-46071701D01*
X83946150Y-46073600D01*
X83787400Y-46232350D01*
X83787400Y-47791600D01*
X83807400Y-47791600D01*
X83807400Y-48045600D01*
X83787400Y-48045600D01*
X83787400Y-49604850D01*
X83946150Y-49763600D01*
X85340000Y-49765499D01*
X85340000Y-50553628D01*
X81102200Y-50553628D01*
X80977718Y-50565888D01*
X80858020Y-50602198D01*
X80747706Y-50661163D01*
X80651015Y-50740515D01*
X80571663Y-50837206D01*
X80512698Y-50947520D01*
X80476388Y-51067218D01*
X80464128Y-51191700D01*
X80464128Y-51201700D01*
X78693900Y-51201700D01*
X78693900Y-49720261D01*
X78747305Y-49655187D01*
X78829372Y-49501651D01*
X78879908Y-49335055D01*
X78896972Y-49161801D01*
X78896972Y-49128600D01*
X80482328Y-49128600D01*
X80494588Y-49253082D01*
X80530898Y-49372780D01*
X80589863Y-49483094D01*
X80669215Y-49579785D01*
X80765906Y-49659137D01*
X80876220Y-49718102D01*
X80995918Y-49754412D01*
X81120400Y-49766672D01*
X83374650Y-49763600D01*
X83533400Y-49604850D01*
X83533400Y-48045600D01*
X80644150Y-48045600D01*
X80485400Y-48204350D01*
X80482328Y-49128600D01*
X78896972Y-49128600D01*
X78896972Y-48511799D01*
X78879908Y-48338545D01*
X78829372Y-48171949D01*
X78747305Y-48018413D01*
X78636862Y-47883838D01*
X78549084Y-47811800D01*
X78636862Y-47739762D01*
X78747305Y-47605187D01*
X78829372Y-47451651D01*
X78879908Y-47285055D01*
X78896972Y-47111801D01*
X78896972Y-46708600D01*
X80482328Y-46708600D01*
X80485400Y-47632850D01*
X80644150Y-47791600D01*
X83533400Y-47791600D01*
X83533400Y-46232350D01*
X83374650Y-46073600D01*
X81120400Y-46070528D01*
X80995918Y-46082788D01*
X80876220Y-46119098D01*
X80765906Y-46178063D01*
X80669215Y-46257415D01*
X80589863Y-46354106D01*
X80530898Y-46464420D01*
X80494588Y-46584118D01*
X80482328Y-46708600D01*
X78896972Y-46708600D01*
X78896972Y-46461799D01*
X78879908Y-46288545D01*
X78829372Y-46121949D01*
X78747305Y-45968413D01*
X78636862Y-45833838D01*
X78502287Y-45723395D01*
X78348751Y-45641328D01*
X78182155Y-45590792D01*
X78008901Y-45573728D01*
X77108899Y-45573728D01*
X76935645Y-45590792D01*
X76769049Y-45641328D01*
X76749457Y-45651800D01*
X75079043Y-45651800D01*
X75059451Y-45641328D01*
X74892855Y-45590792D01*
X74719601Y-45573728D01*
X73819599Y-45573728D01*
X73646345Y-45590792D01*
X73479749Y-45641328D01*
X73460157Y-45651800D01*
X71783861Y-45651800D01*
X71718787Y-45598395D01*
X71565251Y-45516328D01*
X71398655Y-45465792D01*
X71225401Y-45448728D01*
X70575399Y-45448728D01*
X70402145Y-45465792D01*
X70235549Y-45516328D01*
X70082013Y-45598395D01*
X69947438Y-45708838D01*
X69942058Y-45715394D01*
X69876585Y-45635615D01*
X69779894Y-45556263D01*
X69669580Y-45497298D01*
X69549882Y-45460988D01*
X69425400Y-45448728D01*
X69136150Y-45451800D01*
X68977400Y-45610550D01*
X68977400Y-46659800D01*
X68997400Y-46659800D01*
X68997400Y-46913800D01*
X68977400Y-46913800D01*
X68977400Y-47963050D01*
X69136150Y-48121800D01*
X69425400Y-48124872D01*
X69549882Y-48112612D01*
X69669580Y-48076302D01*
X69779894Y-48017337D01*
X69876585Y-47937985D01*
X69942058Y-47858206D01*
X69947438Y-47864762D01*
X70082013Y-47975205D01*
X70235549Y-48057272D01*
X70402145Y-48107808D01*
X70575399Y-48124872D01*
X71225401Y-48124872D01*
X71398655Y-48107808D01*
X71565251Y-48057272D01*
X71718787Y-47975205D01*
X71783861Y-47921800D01*
X73160483Y-47921800D01*
X73081195Y-48018413D01*
X72999128Y-48171949D01*
X72948592Y-48338545D01*
X72931528Y-48511799D01*
X72931528Y-49161801D01*
X72948592Y-49335055D01*
X72999128Y-49501651D01*
X73081195Y-49655187D01*
X73134601Y-49720262D01*
X73134600Y-51277900D01*
X72189884Y-51277900D01*
X72035727Y-51174895D01*
X71781490Y-51069586D01*
X71511592Y-51015900D01*
X71236408Y-51015900D01*
X70966510Y-51069586D01*
X70712273Y-51174895D01*
X70483465Y-51327780D01*
X70288880Y-51522365D01*
X70135995Y-51751173D01*
X70030686Y-52005410D01*
X69977000Y-52275308D01*
X69977000Y-52550492D01*
X70030686Y-52820390D01*
X70135995Y-53074627D01*
X70288880Y-53303435D01*
X70483465Y-53498020D01*
X70712273Y-53650905D01*
X70966510Y-53756214D01*
X71236408Y-53809900D01*
X71511592Y-53809900D01*
X71781490Y-53756214D01*
X72035727Y-53650905D01*
X72189884Y-53547900D01*
X73024527Y-53547900D01*
X72980098Y-53631020D01*
X72943788Y-53750718D01*
X72931528Y-53875200D01*
X72934600Y-54164450D01*
X73093350Y-54323200D01*
X74142600Y-54323200D01*
X74142600Y-54303200D01*
X74396600Y-54303200D01*
X74396600Y-54323200D01*
X75445850Y-54323200D01*
X75604600Y-54164450D01*
X75607672Y-53875200D01*
X75595412Y-53750718D01*
X75559102Y-53631020D01*
X75500137Y-53520706D01*
X75420785Y-53424015D01*
X75341152Y-53358662D01*
X75347694Y-53353294D01*
X75458081Y-53218786D01*
X75540106Y-53065328D01*
X75590617Y-52898816D01*
X75607672Y-52725650D01*
X75607672Y-52074750D01*
X75590617Y-51901584D01*
X75540106Y-51735072D01*
X75458081Y-51581614D01*
X75404600Y-51516447D01*
X75404600Y-49720261D01*
X75458005Y-49655187D01*
X75540072Y-49501651D01*
X75590608Y-49335055D01*
X75607672Y-49161801D01*
X75607672Y-48511799D01*
X75590608Y-48338545D01*
X75540072Y-48171949D01*
X75458005Y-48018413D01*
X75378717Y-47921800D01*
X76449783Y-47921800D01*
X76370495Y-48018413D01*
X76288428Y-48171949D01*
X76237892Y-48338545D01*
X76220828Y-48511799D01*
X76220828Y-49161801D01*
X76237892Y-49335055D01*
X76288428Y-49501651D01*
X76370495Y-49655187D01*
X76423900Y-49720261D01*
X76423901Y-51453238D01*
X76370495Y-51518313D01*
X76288428Y-51671849D01*
X76237892Y-51838445D01*
X76220828Y-52011699D01*
X76220828Y-52661701D01*
X76237892Y-52834955D01*
X76288428Y-53001551D01*
X76370495Y-53155087D01*
X76480938Y-53289662D01*
X76487494Y-53295042D01*
X76407715Y-53360515D01*
X76328363Y-53457206D01*
X76269398Y-53567520D01*
X76233088Y-53687218D01*
X76220828Y-53811700D01*
X76223900Y-54100950D01*
X76382650Y-54259700D01*
X77431900Y-54259700D01*
X77431900Y-54239700D01*
X77685900Y-54239700D01*
X77685900Y-54259700D01*
X78735150Y-54259700D01*
X78893900Y-54100950D01*
X78896972Y-53811700D01*
X78884712Y-53687218D01*
X78848402Y-53567520D01*
X78797184Y-53471700D01*
X80464128Y-53471700D01*
X80464128Y-53481700D01*
X80476388Y-53606182D01*
X80512698Y-53725880D01*
X80571663Y-53836194D01*
X80651015Y-53932885D01*
X80747706Y-54012237D01*
X80858020Y-54071202D01*
X80977718Y-54107512D01*
X81102200Y-54119772D01*
X85340001Y-54119772D01*
X85340001Y-54831701D01*
X83946150Y-54833600D01*
X83787400Y-54992350D01*
X83787400Y-56551600D01*
X83807400Y-56551600D01*
X83807400Y-56805600D01*
X83787400Y-56805600D01*
X83787400Y-58364850D01*
X83946150Y-58523600D01*
X85340001Y-58525499D01*
X85340001Y-64618000D01*
X16916000Y-64618000D01*
X16916000Y-58394965D01*
X31040240Y-58394965D01*
X31107220Y-58635056D01*
X31356248Y-58752156D01*
X31623335Y-58818423D01*
X31898217Y-58831310D01*
X32170333Y-58790322D01*
X32429223Y-58697036D01*
X32545180Y-58635056D01*
X32612160Y-58394965D01*
X31826200Y-57609005D01*
X31040240Y-58394965D01*
X16916000Y-58394965D01*
X16916000Y-57501417D01*
X30424290Y-57501417D01*
X30465278Y-57773533D01*
X30558564Y-58032423D01*
X30620544Y-58148380D01*
X30860635Y-58215360D01*
X31646595Y-57429400D01*
X32005805Y-57429400D01*
X32791765Y-58215360D01*
X33031856Y-58148380D01*
X33148956Y-57899352D01*
X33215223Y-57632265D01*
X33228110Y-57357383D01*
X33187122Y-57085267D01*
X33093836Y-56826377D01*
X33031856Y-56710420D01*
X32791765Y-56643440D01*
X32005805Y-57429400D01*
X31646595Y-57429400D01*
X30860635Y-56643440D01*
X30620544Y-56710420D01*
X30503444Y-56959448D01*
X30437177Y-57226535D01*
X30424290Y-57501417D01*
X16916000Y-57501417D01*
X16916000Y-56463835D01*
X31040240Y-56463835D01*
X31826200Y-57249795D01*
X32612160Y-56463835D01*
X32545180Y-56223744D01*
X32296152Y-56106644D01*
X32029065Y-56040377D01*
X31754183Y-56027490D01*
X31482067Y-56068478D01*
X31223177Y-56161764D01*
X31107220Y-56223744D01*
X31040240Y-56463835D01*
X16916000Y-56463835D01*
X16916000Y-55246290D01*
X17202124Y-55246290D01*
X17246775Y-55393499D01*
X17371959Y-55656320D01*
X17546012Y-55889669D01*
X17762245Y-56084578D01*
X18012348Y-56233557D01*
X18286709Y-56330881D01*
X18516600Y-56210214D01*
X18516600Y-55016400D01*
X18770600Y-55016400D01*
X18770600Y-56210214D01*
X19000491Y-56330881D01*
X19274852Y-56233557D01*
X19524955Y-56084578D01*
X19741188Y-55889669D01*
X19915241Y-55656320D01*
X20040425Y-55393499D01*
X20085076Y-55246290D01*
X19963755Y-55016400D01*
X18770600Y-55016400D01*
X18516600Y-55016400D01*
X17323445Y-55016400D01*
X17202124Y-55246290D01*
X16916000Y-55246290D01*
X16916000Y-51499400D01*
X17155528Y-51499400D01*
X17155528Y-53199400D01*
X17167788Y-53323882D01*
X17204098Y-53443580D01*
X17263063Y-53553894D01*
X17342415Y-53650585D01*
X17439106Y-53729937D01*
X17549420Y-53788902D01*
X17630066Y-53813366D01*
X17546012Y-53889131D01*
X17371959Y-54122480D01*
X17246775Y-54385301D01*
X17202124Y-54532510D01*
X17323445Y-54762400D01*
X18516600Y-54762400D01*
X18516600Y-54742400D01*
X18770600Y-54742400D01*
X18770600Y-54762400D01*
X19963755Y-54762400D01*
X19969344Y-54751808D01*
X38049200Y-54751808D01*
X38049200Y-55026992D01*
X38102886Y-55296890D01*
X38208195Y-55551127D01*
X38361080Y-55779935D01*
X38555665Y-55974520D01*
X38784473Y-56127405D01*
X39038710Y-56232714D01*
X39308608Y-56286400D01*
X39583792Y-56286400D01*
X39644120Y-56274400D01*
X43425837Y-56274400D01*
X43629307Y-56254360D01*
X43890381Y-56175164D01*
X44130988Y-56046557D01*
X44341881Y-55873481D01*
X44514957Y-55662588D01*
X44643564Y-55421981D01*
X44722760Y-55160907D01*
X44749501Y-54889400D01*
X44722760Y-54617893D01*
X44643564Y-54356819D01*
X44514957Y-54116212D01*
X44341881Y-53905319D01*
X44130988Y-53732243D01*
X43890381Y-53603636D01*
X43629307Y-53524440D01*
X43425837Y-53504400D01*
X39644120Y-53504400D01*
X39583792Y-53492400D01*
X39308608Y-53492400D01*
X39038710Y-53546086D01*
X38784473Y-53651395D01*
X38555665Y-53804280D01*
X38361080Y-53998865D01*
X38208195Y-54227673D01*
X38102886Y-54481910D01*
X38049200Y-54751808D01*
X19969344Y-54751808D01*
X20085076Y-54532510D01*
X20040425Y-54385301D01*
X19915241Y-54122480D01*
X19741188Y-53889131D01*
X19657134Y-53813366D01*
X19737780Y-53788902D01*
X19848094Y-53729937D01*
X19944785Y-53650585D01*
X20024137Y-53553894D01*
X20061283Y-53484400D01*
X22533157Y-53484400D01*
X22552749Y-53494872D01*
X22719345Y-53545408D01*
X22892599Y-53562472D01*
X23792601Y-53562472D01*
X23965855Y-53545408D01*
X24132451Y-53494872D01*
X24152043Y-53484400D01*
X26644693Y-53484400D01*
X26663168Y-53502875D01*
X26906389Y-53665390D01*
X27176642Y-53777332D01*
X27463540Y-53834400D01*
X27756060Y-53834400D01*
X28042958Y-53777332D01*
X28313211Y-53665390D01*
X28556432Y-53502875D01*
X28574907Y-53484400D01*
X31010316Y-53484400D01*
X31164473Y-53587405D01*
X31418710Y-53692714D01*
X31688608Y-53746400D01*
X31963792Y-53746400D01*
X32233690Y-53692714D01*
X32487927Y-53587405D01*
X32716735Y-53434520D01*
X32911320Y-53239935D01*
X33064205Y-53011127D01*
X33169514Y-52756890D01*
X33223200Y-52486992D01*
X33223200Y-52211808D01*
X33169514Y-51941910D01*
X33064205Y-51687673D01*
X32911320Y-51458865D01*
X32716735Y-51264280D01*
X32487927Y-51111395D01*
X32233690Y-51006086D01*
X31963792Y-50952400D01*
X31688608Y-50952400D01*
X31418710Y-51006086D01*
X31164473Y-51111395D01*
X31010316Y-51214400D01*
X28768528Y-51214400D01*
X28814294Y-51189937D01*
X28910985Y-51110585D01*
X28990337Y-51013894D01*
X29049302Y-50903580D01*
X29085612Y-50783882D01*
X29097872Y-50659400D01*
X29097872Y-49671808D01*
X38049200Y-49671808D01*
X38049200Y-49946992D01*
X38102886Y-50216890D01*
X38208195Y-50471127D01*
X38361080Y-50699935D01*
X38555665Y-50894520D01*
X38784473Y-51047405D01*
X39038710Y-51152714D01*
X39308608Y-51206400D01*
X39583792Y-51206400D01*
X39853690Y-51152714D01*
X40107927Y-51047405D01*
X40262084Y-50944400D01*
X50365172Y-50944400D01*
X50319406Y-50968863D01*
X50222715Y-51048215D01*
X50143363Y-51144906D01*
X50084398Y-51255220D01*
X50048088Y-51374918D01*
X50035828Y-51499400D01*
X50035828Y-53199400D01*
X50048088Y-53323882D01*
X50084398Y-53443580D01*
X50138900Y-53545545D01*
X50138901Y-54770554D01*
X50138900Y-54770564D01*
X50138901Y-56233255D01*
X50084398Y-56335220D01*
X50048088Y-56454918D01*
X50035828Y-56579400D01*
X50035828Y-58279400D01*
X50048088Y-58403882D01*
X50084398Y-58523580D01*
X50143363Y-58633894D01*
X50222715Y-58730585D01*
X50319406Y-58809937D01*
X50365172Y-58834400D01*
X40262084Y-58834400D01*
X40107927Y-58731395D01*
X39853690Y-58626086D01*
X39583792Y-58572400D01*
X39308608Y-58572400D01*
X39038710Y-58626086D01*
X38784473Y-58731395D01*
X38555665Y-58884280D01*
X38361080Y-59078865D01*
X38208195Y-59307673D01*
X38102886Y-59561910D01*
X38049200Y-59831808D01*
X38049200Y-60106992D01*
X38102886Y-60376890D01*
X38208195Y-60631127D01*
X38361080Y-60859935D01*
X38555665Y-61054520D01*
X38784473Y-61207405D01*
X39038710Y-61312714D01*
X39308608Y-61366400D01*
X39583792Y-61366400D01*
X39853690Y-61312714D01*
X40107927Y-61207405D01*
X40262084Y-61104400D01*
X50558793Y-61104400D01*
X50577268Y-61122875D01*
X50751660Y-61239400D01*
X50577268Y-61355925D01*
X50370425Y-61562768D01*
X50207910Y-61805989D01*
X50095968Y-62076242D01*
X50038900Y-62363140D01*
X50038900Y-62655660D01*
X50095968Y-62942558D01*
X50207910Y-63212811D01*
X50370425Y-63456032D01*
X50577268Y-63662875D01*
X50820489Y-63825390D01*
X51090742Y-63937332D01*
X51377640Y-63994400D01*
X51670160Y-63994400D01*
X51957058Y-63937332D01*
X52227311Y-63825390D01*
X52470532Y-63662875D01*
X52489007Y-63644400D01*
X61221749Y-63644400D01*
X61277500Y-63649891D01*
X61333251Y-63644400D01*
X61333252Y-63644400D01*
X61499999Y-63627977D01*
X61713947Y-63563076D01*
X61911123Y-63457684D01*
X62083949Y-63315849D01*
X62119496Y-63272535D01*
X63979647Y-61412385D01*
X64161490Y-61376214D01*
X64415727Y-61270905D01*
X64644535Y-61118020D01*
X64839120Y-60923435D01*
X64992005Y-60694627D01*
X65097314Y-60440390D01*
X65151000Y-60170492D01*
X65151000Y-59895308D01*
X65097314Y-59625410D01*
X64992005Y-59371173D01*
X64839120Y-59142365D01*
X64644535Y-58947780D01*
X64415727Y-58794895D01*
X64161490Y-58689586D01*
X63891592Y-58635900D01*
X63616408Y-58635900D01*
X63346510Y-58689586D01*
X63092273Y-58794895D01*
X62863465Y-58947780D01*
X62668880Y-59142365D01*
X62515995Y-59371173D01*
X62410686Y-59625410D01*
X62374515Y-59807253D01*
X60807369Y-61374400D01*
X52489007Y-61374400D01*
X52470532Y-61355925D01*
X52296140Y-61239400D01*
X52470532Y-61122875D01*
X52677375Y-60916032D01*
X52839890Y-60672811D01*
X52951832Y-60402558D01*
X53008900Y-60115660D01*
X53008900Y-59823140D01*
X52951832Y-59536242D01*
X52839890Y-59265989D01*
X52677375Y-59022768D01*
X52545520Y-58890913D01*
X52618080Y-58868902D01*
X52728394Y-58809937D01*
X52825085Y-58730585D01*
X52904437Y-58633894D01*
X52963402Y-58523580D01*
X52983154Y-58458465D01*
X70588040Y-58458465D01*
X70655020Y-58698556D01*
X70904048Y-58815656D01*
X71171135Y-58881923D01*
X71446017Y-58894810D01*
X71718133Y-58853822D01*
X71977023Y-58760536D01*
X72092980Y-58698556D01*
X72159960Y-58458465D01*
X71374000Y-57672505D01*
X70588040Y-58458465D01*
X52983154Y-58458465D01*
X52999712Y-58403882D01*
X53011972Y-58279400D01*
X53011972Y-57564917D01*
X69972090Y-57564917D01*
X70013078Y-57837033D01*
X70106364Y-58095923D01*
X70168344Y-58211880D01*
X70408435Y-58278860D01*
X71194395Y-57492900D01*
X71553605Y-57492900D01*
X72339565Y-58278860D01*
X72579656Y-58211880D01*
X72696756Y-57962852D01*
X72715178Y-57888600D01*
X80482328Y-57888600D01*
X80494588Y-58013082D01*
X80530898Y-58132780D01*
X80589863Y-58243094D01*
X80669215Y-58339785D01*
X80765906Y-58419137D01*
X80876220Y-58478102D01*
X80995918Y-58514412D01*
X81120400Y-58526672D01*
X83374650Y-58523600D01*
X83533400Y-58364850D01*
X83533400Y-56805600D01*
X80644150Y-56805600D01*
X80485400Y-56964350D01*
X80482328Y-57888600D01*
X72715178Y-57888600D01*
X72763023Y-57695765D01*
X72775910Y-57420883D01*
X72734922Y-57148767D01*
X72641636Y-56889877D01*
X72579656Y-56773920D01*
X72339565Y-56706940D01*
X71553605Y-57492900D01*
X71194395Y-57492900D01*
X70408435Y-56706940D01*
X70168344Y-56773920D01*
X70051244Y-57022948D01*
X69984977Y-57290035D01*
X69972090Y-57564917D01*
X53011972Y-57564917D01*
X53011972Y-56579400D01*
X53006845Y-56527335D01*
X70588040Y-56527335D01*
X71374000Y-57313295D01*
X72159960Y-56527335D01*
X72092980Y-56287244D01*
X71843952Y-56170144D01*
X71576865Y-56103877D01*
X71301983Y-56090990D01*
X71029867Y-56131978D01*
X70770977Y-56225264D01*
X70655020Y-56287244D01*
X70588040Y-56527335D01*
X53006845Y-56527335D01*
X52999712Y-56454918D01*
X52963402Y-56335220D01*
X52908900Y-56233256D01*
X52908900Y-54952900D01*
X59187299Y-54952900D01*
X59214040Y-55224407D01*
X59293236Y-55485481D01*
X59421843Y-55726088D01*
X59594919Y-55936981D01*
X59805812Y-56110057D01*
X60046419Y-56238664D01*
X60307493Y-56317860D01*
X60510963Y-56337900D01*
X63556080Y-56337900D01*
X63616408Y-56349900D01*
X63891592Y-56349900D01*
X64161490Y-56296214D01*
X64415727Y-56190905D01*
X64644535Y-56038020D01*
X64839120Y-55843435D01*
X64992005Y-55614627D01*
X65097314Y-55360390D01*
X65151000Y-55090492D01*
X65151000Y-55025200D01*
X72931528Y-55025200D01*
X72943788Y-55149682D01*
X72980098Y-55269380D01*
X73039063Y-55379694D01*
X73118415Y-55476385D01*
X73215106Y-55555737D01*
X73325420Y-55614702D01*
X73445118Y-55651012D01*
X73569600Y-55663272D01*
X73983850Y-55660200D01*
X74142600Y-55501450D01*
X74142600Y-54577200D01*
X74396600Y-54577200D01*
X74396600Y-55501450D01*
X74555350Y-55660200D01*
X74969600Y-55663272D01*
X75094082Y-55651012D01*
X75213780Y-55614702D01*
X75324094Y-55555737D01*
X75420785Y-55476385D01*
X75500137Y-55379694D01*
X75559102Y-55269380D01*
X75595412Y-55149682D01*
X75607672Y-55025200D01*
X75606998Y-54961700D01*
X76220828Y-54961700D01*
X76233088Y-55086182D01*
X76269398Y-55205880D01*
X76328363Y-55316194D01*
X76407715Y-55412885D01*
X76504406Y-55492237D01*
X76614720Y-55551202D01*
X76734418Y-55587512D01*
X76858900Y-55599772D01*
X77273150Y-55596700D01*
X77431900Y-55437950D01*
X77431900Y-54513700D01*
X77685900Y-54513700D01*
X77685900Y-55437950D01*
X77844650Y-55596700D01*
X78258900Y-55599772D01*
X78383382Y-55587512D01*
X78503080Y-55551202D01*
X78613394Y-55492237D01*
X78642195Y-55468600D01*
X80482328Y-55468600D01*
X80485400Y-56392850D01*
X80644150Y-56551600D01*
X83533400Y-56551600D01*
X83533400Y-54992350D01*
X83374650Y-54833600D01*
X81120400Y-54830528D01*
X80995918Y-54842788D01*
X80876220Y-54879098D01*
X80765906Y-54938063D01*
X80669215Y-55017415D01*
X80589863Y-55114106D01*
X80530898Y-55224420D01*
X80494588Y-55344118D01*
X80482328Y-55468600D01*
X78642195Y-55468600D01*
X78710085Y-55412885D01*
X78789437Y-55316194D01*
X78848402Y-55205880D01*
X78884712Y-55086182D01*
X78896972Y-54961700D01*
X78893900Y-54672450D01*
X78735150Y-54513700D01*
X77685900Y-54513700D01*
X77431900Y-54513700D01*
X76382650Y-54513700D01*
X76223900Y-54672450D01*
X76220828Y-54961700D01*
X75606998Y-54961700D01*
X75604600Y-54735950D01*
X75445850Y-54577200D01*
X74396600Y-54577200D01*
X74142600Y-54577200D01*
X73093350Y-54577200D01*
X72934600Y-54735950D01*
X72931528Y-55025200D01*
X65151000Y-55025200D01*
X65151000Y-54815308D01*
X65097314Y-54545410D01*
X64992005Y-54291173D01*
X64839120Y-54062365D01*
X64644535Y-53867780D01*
X64415727Y-53714895D01*
X64161490Y-53609586D01*
X63891592Y-53555900D01*
X63616408Y-53555900D01*
X63556080Y-53567900D01*
X60510963Y-53567900D01*
X60307493Y-53587940D01*
X60046419Y-53667136D01*
X59805812Y-53795743D01*
X59594919Y-53968819D01*
X59421843Y-54179712D01*
X59293236Y-54420319D01*
X59214040Y-54681393D01*
X59187299Y-54952900D01*
X52908900Y-54952900D01*
X52908900Y-53545544D01*
X52963402Y-53443580D01*
X52999712Y-53323882D01*
X53011972Y-53199400D01*
X53011972Y-51499400D01*
X52999712Y-51374918D01*
X52963402Y-51255220D01*
X52904437Y-51144906D01*
X52825085Y-51048215D01*
X52728394Y-50968863D01*
X52618080Y-50909898D01*
X52545520Y-50887887D01*
X52677375Y-50756032D01*
X52839890Y-50512811D01*
X52951832Y-50242558D01*
X53008900Y-49955660D01*
X53008900Y-49663140D01*
X52951832Y-49376242D01*
X52839890Y-49105989D01*
X52677375Y-48862768D01*
X52470532Y-48655925D01*
X52296140Y-48539400D01*
X52470532Y-48422875D01*
X52489007Y-48404400D01*
X60680369Y-48404400D01*
X62374515Y-50098547D01*
X62410686Y-50280390D01*
X62515995Y-50534627D01*
X62668880Y-50763435D01*
X62863465Y-50958020D01*
X63092273Y-51110905D01*
X63346510Y-51216214D01*
X63616408Y-51269900D01*
X63891592Y-51269900D01*
X64161490Y-51216214D01*
X64415727Y-51110905D01*
X64644535Y-50958020D01*
X64839120Y-50763435D01*
X64992005Y-50534627D01*
X65097314Y-50280390D01*
X65151000Y-50010492D01*
X65151000Y-49735308D01*
X65097314Y-49465410D01*
X64992005Y-49211173D01*
X64839120Y-48982365D01*
X64644535Y-48787780D01*
X64415727Y-48634895D01*
X64161490Y-48529586D01*
X63979647Y-48493415D01*
X62973032Y-47486800D01*
X67637328Y-47486800D01*
X67649588Y-47611282D01*
X67685898Y-47730980D01*
X67744863Y-47841294D01*
X67824215Y-47937985D01*
X67920906Y-48017337D01*
X68031220Y-48076302D01*
X68150918Y-48112612D01*
X68275400Y-48124872D01*
X68564650Y-48121800D01*
X68723400Y-47963050D01*
X68723400Y-46913800D01*
X67799150Y-46913800D01*
X67640400Y-47072550D01*
X67637328Y-47486800D01*
X62973032Y-47486800D01*
X61992496Y-46506265D01*
X61956949Y-46462951D01*
X61784123Y-46321116D01*
X61586947Y-46215724D01*
X61372999Y-46150823D01*
X61206252Y-46134400D01*
X61206251Y-46134400D01*
X61150500Y-46128909D01*
X61094749Y-46134400D01*
X52489007Y-46134400D01*
X52470532Y-46115925D01*
X52426944Y-46086800D01*
X67637328Y-46086800D01*
X67640400Y-46501050D01*
X67799150Y-46659800D01*
X68723400Y-46659800D01*
X68723400Y-45610550D01*
X68564650Y-45451800D01*
X68275400Y-45448728D01*
X68150918Y-45460988D01*
X68031220Y-45497298D01*
X67920906Y-45556263D01*
X67824215Y-45635615D01*
X67744863Y-45732306D01*
X67685898Y-45842620D01*
X67649588Y-45962318D01*
X67637328Y-46086800D01*
X52426944Y-46086800D01*
X52227311Y-45953410D01*
X51957058Y-45841468D01*
X51670160Y-45784400D01*
X51377640Y-45784400D01*
X51090742Y-45841468D01*
X50820489Y-45953410D01*
X50577268Y-46115925D01*
X50370425Y-46322768D01*
X50207910Y-46565989D01*
X50095968Y-46836242D01*
X50038900Y-47123140D01*
X50038900Y-47415660D01*
X50095968Y-47702558D01*
X50207910Y-47972811D01*
X50370425Y-48216032D01*
X50577268Y-48422875D01*
X50751660Y-48539400D01*
X50577268Y-48655925D01*
X50558793Y-48674400D01*
X40262084Y-48674400D01*
X40107927Y-48571395D01*
X39853690Y-48466086D01*
X39583792Y-48412400D01*
X39308608Y-48412400D01*
X39038710Y-48466086D01*
X38784473Y-48571395D01*
X38555665Y-48724280D01*
X38361080Y-48918865D01*
X38208195Y-49147673D01*
X38102886Y-49401910D01*
X38049200Y-49671808D01*
X29097872Y-49671808D01*
X29097872Y-48959400D01*
X29085612Y-48834918D01*
X29049302Y-48715220D01*
X28994800Y-48613256D01*
X28994800Y-48533085D01*
X30803886Y-46724000D01*
X46000971Y-46724000D01*
X46069000Y-46730700D01*
X46137029Y-46724000D01*
X46137037Y-46724000D01*
X46340507Y-46703960D01*
X46601581Y-46624764D01*
X46842188Y-46496157D01*
X47053081Y-46323081D01*
X47096454Y-46270231D01*
X50080236Y-43286450D01*
X50133081Y-43243081D01*
X50306157Y-43032188D01*
X50434764Y-42791581D01*
X50513960Y-42530507D01*
X50534000Y-42327037D01*
X50534000Y-42327029D01*
X50540700Y-42259000D01*
X50534000Y-42190971D01*
X50534000Y-41644000D01*
X53344537Y-41644000D01*
X53548007Y-41623960D01*
X53809081Y-41544764D01*
X54049688Y-41416157D01*
X54062504Y-41405639D01*
X54066351Y-41404472D01*
X54219887Y-41322405D01*
X54354462Y-41211962D01*
X54464905Y-41077387D01*
X54546972Y-40923851D01*
X54597508Y-40757255D01*
X54609446Y-40636041D01*
X54641460Y-40530507D01*
X54668201Y-40259000D01*
X54641460Y-39987493D01*
X54609446Y-39881959D01*
X54597508Y-39760745D01*
X54546972Y-39594149D01*
X54464905Y-39440613D01*
X54354462Y-39306038D01*
X54347906Y-39300658D01*
X54427685Y-39235185D01*
X54507037Y-39138494D01*
X54566002Y-39028180D01*
X54602312Y-38908482D01*
X54614572Y-38784000D01*
X54611500Y-38494750D01*
X54452750Y-38336000D01*
X53403500Y-38336000D01*
X53403500Y-38356000D01*
X53149500Y-38356000D01*
X53149500Y-38336000D01*
X52100250Y-38336000D01*
X51941500Y-38494750D01*
X51938428Y-38784000D01*
X51947292Y-38874000D01*
X50014364Y-38874000D01*
X49759448Y-38737745D01*
X49460203Y-38646970D01*
X49149000Y-38616319D01*
X48837796Y-38646970D01*
X48538551Y-38737745D01*
X48262765Y-38885155D01*
X48021037Y-39083537D01*
X47873838Y-39262900D01*
X47718437Y-39077685D01*
X47475923Y-38883031D01*
X47200094Y-38739429D01*
X46981980Y-38668437D01*
X46736000Y-38788406D01*
X46736000Y-40132000D01*
X46756000Y-40132000D01*
X46756000Y-40386000D01*
X46736000Y-40386000D01*
X46736000Y-41729594D01*
X46981980Y-41849563D01*
X47200094Y-41778571D01*
X47475923Y-41634969D01*
X47718437Y-41440315D01*
X47764001Y-41386010D01*
X47764001Y-41685313D01*
X45495315Y-43954000D01*
X30298226Y-43954000D01*
X30230199Y-43947300D01*
X30162172Y-43954000D01*
X24883826Y-43954000D01*
X24815799Y-43947300D01*
X24747772Y-43954000D01*
X24747763Y-43954000D01*
X24544293Y-43974040D01*
X24283219Y-44053236D01*
X24042612Y-44181843D01*
X24042610Y-44181844D01*
X24042611Y-44181844D01*
X23884566Y-44311548D01*
X23884564Y-44311550D01*
X23831719Y-44354919D01*
X23788350Y-44407764D01*
X22411365Y-45784750D01*
X22358519Y-45828120D01*
X22185443Y-46039013D01*
X22111119Y-46178063D01*
X22056836Y-46279620D01*
X22001573Y-46461799D01*
X21977640Y-46540694D01*
X21957600Y-46744164D01*
X21957600Y-46744171D01*
X21950900Y-46812200D01*
X21957600Y-46880229D01*
X21957601Y-50367437D01*
X21977641Y-50570907D01*
X22009653Y-50676436D01*
X22021592Y-50797655D01*
X22072128Y-50964251D01*
X22154195Y-51117787D01*
X22233483Y-51214400D01*
X20061283Y-51214400D01*
X20024137Y-51144906D01*
X19944785Y-51048215D01*
X19848094Y-50968863D01*
X19737780Y-50909898D01*
X19618082Y-50873588D01*
X19493600Y-50861328D01*
X17793600Y-50861328D01*
X17669118Y-50873588D01*
X17549420Y-50909898D01*
X17439106Y-50968863D01*
X17342415Y-51048215D01*
X17263063Y-51144906D01*
X17204098Y-51255220D01*
X17167788Y-51374918D01*
X17155528Y-51499400D01*
X16916000Y-51499400D01*
X16916000Y-43155890D01*
X17227524Y-43155890D01*
X17272175Y-43303099D01*
X17397359Y-43565920D01*
X17571412Y-43799269D01*
X17787645Y-43994178D01*
X18037748Y-44143157D01*
X18312109Y-44240481D01*
X18542000Y-44119814D01*
X18542000Y-42926000D01*
X18796000Y-42926000D01*
X18796000Y-44119814D01*
X19025891Y-44240481D01*
X19300252Y-44143157D01*
X19550355Y-43994178D01*
X19766588Y-43799269D01*
X19940641Y-43565920D01*
X20065825Y-43303099D01*
X20110476Y-43155890D01*
X19989155Y-42926000D01*
X18796000Y-42926000D01*
X18542000Y-42926000D01*
X17348845Y-42926000D01*
X17227524Y-43155890D01*
X16916000Y-43155890D01*
X16916000Y-39409000D01*
X17180928Y-39409000D01*
X17180928Y-41109000D01*
X17193188Y-41233482D01*
X17229498Y-41353180D01*
X17288463Y-41463494D01*
X17367815Y-41560185D01*
X17464506Y-41639537D01*
X17574820Y-41698502D01*
X17655466Y-41722966D01*
X17571412Y-41798731D01*
X17397359Y-42032080D01*
X17272175Y-42294901D01*
X17227524Y-42442110D01*
X17348845Y-42672000D01*
X18542000Y-42672000D01*
X18542000Y-42652000D01*
X18796000Y-42652000D01*
X18796000Y-42672000D01*
X19989155Y-42672000D01*
X20110476Y-42442110D01*
X20065825Y-42294901D01*
X19940641Y-42032080D01*
X19766588Y-41798731D01*
X19682534Y-41722966D01*
X19763180Y-41698502D01*
X19865144Y-41644000D01*
X23165801Y-41644000D01*
X23417165Y-41694000D01*
X23699835Y-41694000D01*
X23977074Y-41638853D01*
X24238227Y-41530680D01*
X24473259Y-41373637D01*
X24673137Y-41173759D01*
X24830180Y-40938727D01*
X24938353Y-40677574D01*
X24993500Y-40400335D01*
X24993500Y-40117665D01*
X24938353Y-39840426D01*
X24830180Y-39579273D01*
X24749817Y-39459000D01*
X34820428Y-39459000D01*
X34820428Y-41059000D01*
X34832688Y-41183482D01*
X34868998Y-41303180D01*
X34927963Y-41413494D01*
X35007315Y-41510185D01*
X35104006Y-41589537D01*
X35214320Y-41648502D01*
X35334018Y-41684812D01*
X35458500Y-41697072D01*
X37058500Y-41697072D01*
X37182982Y-41684812D01*
X37302680Y-41648502D01*
X37311103Y-41644000D01*
X42610999Y-41644000D01*
X42665315Y-41710185D01*
X42762006Y-41789537D01*
X42872320Y-41848502D01*
X42992018Y-41884812D01*
X43116500Y-41897072D01*
X45021500Y-41897072D01*
X45145982Y-41884812D01*
X45265680Y-41848502D01*
X45375994Y-41789537D01*
X45472685Y-41710185D01*
X45552037Y-41613494D01*
X45601059Y-41521781D01*
X45742077Y-41634969D01*
X46017906Y-41778571D01*
X46236020Y-41849563D01*
X46482000Y-41729594D01*
X46482000Y-40386000D01*
X46462000Y-40386000D01*
X46462000Y-40132000D01*
X46482000Y-40132000D01*
X46482000Y-38788406D01*
X46236020Y-38668437D01*
X46017906Y-38739429D01*
X45742077Y-38883031D01*
X45601059Y-38996219D01*
X45552037Y-38904506D01*
X45472685Y-38807815D01*
X45375994Y-38728463D01*
X45265680Y-38669498D01*
X45145982Y-38633188D01*
X45021500Y-38620928D01*
X43116500Y-38620928D01*
X42992018Y-38633188D01*
X42872320Y-38669498D01*
X42762006Y-38728463D01*
X42665315Y-38807815D01*
X42610999Y-38874000D01*
X40826208Y-38874000D01*
X40835072Y-38784000D01*
X40832000Y-38494750D01*
X40673250Y-38336000D01*
X39624000Y-38336000D01*
X39624000Y-38356000D01*
X39370000Y-38356000D01*
X39370000Y-38336000D01*
X38320750Y-38336000D01*
X38162000Y-38494750D01*
X38158928Y-38784000D01*
X38167792Y-38874000D01*
X37311103Y-38874000D01*
X37302680Y-38869498D01*
X37182982Y-38833188D01*
X37058500Y-38820928D01*
X35458500Y-38820928D01*
X35334018Y-38833188D01*
X35214320Y-38869498D01*
X35104006Y-38928463D01*
X35007315Y-39007815D01*
X34927963Y-39104506D01*
X34868998Y-39214820D01*
X34832688Y-39334518D01*
X34820428Y-39459000D01*
X24749817Y-39459000D01*
X24673137Y-39344241D01*
X24473259Y-39144363D01*
X24238227Y-38987320D01*
X23977074Y-38879147D01*
X23699835Y-38824000D01*
X23417165Y-38824000D01*
X23165801Y-38874000D01*
X19865144Y-38874000D01*
X19763180Y-38819498D01*
X19643482Y-38783188D01*
X19519000Y-38770928D01*
X17819000Y-38770928D01*
X17694518Y-38783188D01*
X17574820Y-38819498D01*
X17464506Y-38878463D01*
X17367815Y-38957815D01*
X17288463Y-39054506D01*
X17229498Y-39164820D01*
X17193188Y-39284518D01*
X17180928Y-39409000D01*
X16916000Y-39409000D01*
X16916000Y-37197900D01*
X38333435Y-37197900D01*
X38266463Y-37279506D01*
G37*
X38266463Y-37279506D02*
X38207498Y-37389820D01*
X38171188Y-37509518D01*
X38158928Y-37634000D01*
X38162000Y-37923250D01*
X38320750Y-38082000D01*
X39370000Y-38082000D01*
X39370000Y-38062000D01*
X39624000Y-38062000D01*
X39624000Y-38082000D01*
X40673250Y-38082000D01*
X40832000Y-37923250D01*
X40835072Y-37634000D01*
X40822812Y-37509518D01*
X40786502Y-37389820D01*
X40727537Y-37279506D01*
X40660565Y-37197900D01*
X52112935Y-37197900D01*
X52045963Y-37279506D01*
X51986998Y-37389820D01*
X51950688Y-37509518D01*
X51938428Y-37634000D01*
X51941500Y-37923250D01*
X52100250Y-38082000D01*
X53149500Y-38082000D01*
X53149500Y-38062000D01*
X53403500Y-38062000D01*
X53403500Y-38082000D01*
X54452750Y-38082000D01*
X54611500Y-37923250D01*
X54614572Y-37634000D01*
X54602312Y-37509518D01*
X54566002Y-37389820D01*
X54507037Y-37279506D01*
X54440065Y-37197900D01*
X85340000Y-37197900D01*
X85340000Y-46071701D01*
X83946150Y-46073600D01*
X83787400Y-46232350D01*
X83787400Y-47791600D01*
X83807400Y-47791600D01*
X83807400Y-48045600D01*
X83787400Y-48045600D01*
X83787400Y-49604850D01*
X83946150Y-49763600D01*
X85340000Y-49765499D01*
X85340000Y-50553628D01*
X81102200Y-50553628D01*
X80977718Y-50565888D01*
X80858020Y-50602198D01*
X80747706Y-50661163D01*
X80651015Y-50740515D01*
X80571663Y-50837206D01*
X80512698Y-50947520D01*
X80476388Y-51067218D01*
X80464128Y-51191700D01*
X80464128Y-51201700D01*
X78693900Y-51201700D01*
X78693900Y-49720261D01*
X78747305Y-49655187D01*
X78829372Y-49501651D01*
X78879908Y-49335055D01*
X78896972Y-49161801D01*
X78896972Y-49128600D01*
X80482328Y-49128600D01*
X80494588Y-49253082D01*
X80530898Y-49372780D01*
X80589863Y-49483094D01*
X80669215Y-49579785D01*
X80765906Y-49659137D01*
X80876220Y-49718102D01*
X80995918Y-49754412D01*
X81120400Y-49766672D01*
X83374650Y-49763600D01*
X83533400Y-49604850D01*
X83533400Y-48045600D01*
X80644150Y-48045600D01*
X80485400Y-48204350D01*
X80482328Y-49128600D01*
X78896972Y-49128600D01*
X78896972Y-48511799D01*
X78879908Y-48338545D01*
X78829372Y-48171949D01*
X78747305Y-48018413D01*
X78636862Y-47883838D01*
X78549084Y-47811800D01*
X78636862Y-47739762D01*
X78747305Y-47605187D01*
X78829372Y-47451651D01*
X78879908Y-47285055D01*
X78896972Y-47111801D01*
X78896972Y-46708600D01*
X80482328Y-46708600D01*
X80485400Y-47632850D01*
X80644150Y-47791600D01*
X83533400Y-47791600D01*
X83533400Y-46232350D01*
X83374650Y-46073600D01*
X81120400Y-46070528D01*
X80995918Y-46082788D01*
X80876220Y-46119098D01*
X80765906Y-46178063D01*
X80669215Y-46257415D01*
X80589863Y-46354106D01*
X80530898Y-46464420D01*
X80494588Y-46584118D01*
X80482328Y-46708600D01*
X78896972Y-46708600D01*
X78896972Y-46461799D01*
X78879908Y-46288545D01*
X78829372Y-46121949D01*
X78747305Y-45968413D01*
X78636862Y-45833838D01*
X78502287Y-45723395D01*
X78348751Y-45641328D01*
X78182155Y-45590792D01*
X78008901Y-45573728D01*
X77108899Y-45573728D01*
X76935645Y-45590792D01*
X76769049Y-45641328D01*
X76749457Y-45651800D01*
X75079043Y-45651800D01*
X75059451Y-45641328D01*
X74892855Y-45590792D01*
X74719601Y-45573728D01*
X73819599Y-45573728D01*
X73646345Y-45590792D01*
X73479749Y-45641328D01*
X73460157Y-45651800D01*
X71783861Y-45651800D01*
X71718787Y-45598395D01*
X71565251Y-45516328D01*
X71398655Y-45465792D01*
X71225401Y-45448728D01*
X70575399Y-45448728D01*
X70402145Y-45465792D01*
X70235549Y-45516328D01*
X70082013Y-45598395D01*
X69947438Y-45708838D01*
X69942058Y-45715394D01*
X69876585Y-45635615D01*
X69779894Y-45556263D01*
X69669580Y-45497298D01*
X69549882Y-45460988D01*
X69425400Y-45448728D01*
X69136150Y-45451800D01*
X68977400Y-45610550D01*
X68977400Y-46659800D01*
X68997400Y-46659800D01*
X68997400Y-46913800D01*
X68977400Y-46913800D01*
X68977400Y-47963050D01*
X69136150Y-48121800D01*
X69425400Y-48124872D01*
X69549882Y-48112612D01*
X69669580Y-48076302D01*
X69779894Y-48017337D01*
X69876585Y-47937985D01*
X69942058Y-47858206D01*
X69947438Y-47864762D01*
X70082013Y-47975205D01*
X70235549Y-48057272D01*
X70402145Y-48107808D01*
X70575399Y-48124872D01*
X71225401Y-48124872D01*
X71398655Y-48107808D01*
X71565251Y-48057272D01*
X71718787Y-47975205D01*
X71783861Y-47921800D01*
X73160483Y-47921800D01*
X73081195Y-48018413D01*
X72999128Y-48171949D01*
X72948592Y-48338545D01*
X72931528Y-48511799D01*
X72931528Y-49161801D01*
X72948592Y-49335055D01*
X72999128Y-49501651D01*
X73081195Y-49655187D01*
X73134601Y-49720262D01*
X73134600Y-51277900D01*
X72189884Y-51277900D01*
X72035727Y-51174895D01*
X71781490Y-51069586D01*
X71511592Y-51015900D01*
X71236408Y-51015900D01*
X70966510Y-51069586D01*
X70712273Y-51174895D01*
X70483465Y-51327780D01*
X70288880Y-51522365D01*
X70135995Y-51751173D01*
X70030686Y-52005410D01*
X69977000Y-52275308D01*
X69977000Y-52550492D01*
X70030686Y-52820390D01*
X70135995Y-53074627D01*
X70288880Y-53303435D01*
X70483465Y-53498020D01*
X70712273Y-53650905D01*
X70966510Y-53756214D01*
X71236408Y-53809900D01*
X71511592Y-53809900D01*
X71781490Y-53756214D01*
X72035727Y-53650905D01*
X72189884Y-53547900D01*
X73024527Y-53547900D01*
X72980098Y-53631020D01*
X72943788Y-53750718D01*
X72931528Y-53875200D01*
X72934600Y-54164450D01*
X73093350Y-54323200D01*
X74142600Y-54323200D01*
X74142600Y-54303200D01*
X74396600Y-54303200D01*
X74396600Y-54323200D01*
X75445850Y-54323200D01*
X75604600Y-54164450D01*
X75607672Y-53875200D01*
X75595412Y-53750718D01*
X75559102Y-53631020D01*
X75500137Y-53520706D01*
X75420785Y-53424015D01*
X75341152Y-53358662D01*
X75347694Y-53353294D01*
X75458081Y-53218786D01*
X75540106Y-53065328D01*
X75590617Y-52898816D01*
X75607672Y-52725650D01*
X75607672Y-52074750D01*
X75590617Y-51901584D01*
X75540106Y-51735072D01*
X75458081Y-51581614D01*
X75404600Y-51516447D01*
X75404600Y-49720261D01*
X75458005Y-49655187D01*
X75540072Y-49501651D01*
X75590608Y-49335055D01*
X75607672Y-49161801D01*
X75607672Y-48511799D01*
X75590608Y-48338545D01*
X75540072Y-48171949D01*
X75458005Y-48018413D01*
X75378717Y-47921800D01*
X76449783Y-47921800D01*
X76370495Y-48018413D01*
X76288428Y-48171949D01*
X76237892Y-48338545D01*
X76220828Y-48511799D01*
X76220828Y-49161801D01*
X76237892Y-49335055D01*
X76288428Y-49501651D01*
X76370495Y-49655187D01*
X76423900Y-49720261D01*
X76423901Y-51453238D01*
X76370495Y-51518313D01*
X76288428Y-51671849D01*
X76237892Y-51838445D01*
X76220828Y-52011699D01*
X76220828Y-52661701D01*
X76237892Y-52834955D01*
X76288428Y-53001551D01*
X76370495Y-53155087D01*
X76480938Y-53289662D01*
X76487494Y-53295042D01*
X76407715Y-53360515D01*
X76328363Y-53457206D01*
X76269398Y-53567520D01*
X76233088Y-53687218D01*
X76220828Y-53811700D01*
X76223900Y-54100950D01*
X76382650Y-54259700D01*
X77431900Y-54259700D01*
X77431900Y-54239700D01*
X77685900Y-54239700D01*
X77685900Y-54259700D01*
X78735150Y-54259700D01*
X78893900Y-54100950D01*
X78896972Y-53811700D01*
X78884712Y-53687218D01*
X78848402Y-53567520D01*
X78797184Y-53471700D01*
X80464128Y-53471700D01*
X80464128Y-53481700D01*
X80476388Y-53606182D01*
X80512698Y-53725880D01*
X80571663Y-53836194D01*
X80651015Y-53932885D01*
X80747706Y-54012237D01*
X80858020Y-54071202D01*
X80977718Y-54107512D01*
X81102200Y-54119772D01*
X85340001Y-54119772D01*
X85340001Y-54831701D01*
X83946150Y-54833600D01*
X83787400Y-54992350D01*
X83787400Y-56551600D01*
X83807400Y-56551600D01*
X83807400Y-56805600D01*
X83787400Y-56805600D01*
X83787400Y-58364850D01*
X83946150Y-58523600D01*
X85340001Y-58525499D01*
X85340001Y-64618000D01*
X16916000Y-64618000D01*
X16916000Y-58394965D01*
X31040240Y-58394965D01*
X31107220Y-58635056D01*
X31356248Y-58752156D01*
X31623335Y-58818423D01*
X31898217Y-58831310D01*
X32170333Y-58790322D01*
X32429223Y-58697036D01*
X32545180Y-58635056D01*
X32612160Y-58394965D01*
X31826200Y-57609005D01*
X31040240Y-58394965D01*
X16916000Y-58394965D01*
X16916000Y-57501417D01*
X30424290Y-57501417D01*
X30465278Y-57773533D01*
X30558564Y-58032423D01*
X30620544Y-58148380D01*
X30860635Y-58215360D01*
X31646595Y-57429400D01*
X32005805Y-57429400D01*
X32791765Y-58215360D01*
X33031856Y-58148380D01*
X33148956Y-57899352D01*
X33215223Y-57632265D01*
X33228110Y-57357383D01*
X33187122Y-57085267D01*
X33093836Y-56826377D01*
X33031856Y-56710420D01*
X32791765Y-56643440D01*
X32005805Y-57429400D01*
X31646595Y-57429400D01*
X30860635Y-56643440D01*
X30620544Y-56710420D01*
X30503444Y-56959448D01*
X30437177Y-57226535D01*
X30424290Y-57501417D01*
X16916000Y-57501417D01*
X16916000Y-56463835D01*
X31040240Y-56463835D01*
X31826200Y-57249795D01*
X32612160Y-56463835D01*
X32545180Y-56223744D01*
X32296152Y-56106644D01*
X32029065Y-56040377D01*
X31754183Y-56027490D01*
X31482067Y-56068478D01*
X31223177Y-56161764D01*
X31107220Y-56223744D01*
X31040240Y-56463835D01*
X16916000Y-56463835D01*
X16916000Y-55246290D01*
X17202124Y-55246290D01*
X17246775Y-55393499D01*
X17371959Y-55656320D01*
X17546012Y-55889669D01*
X17762245Y-56084578D01*
X18012348Y-56233557D01*
X18286709Y-56330881D01*
X18516600Y-56210214D01*
X18516600Y-55016400D01*
X18770600Y-55016400D01*
X18770600Y-56210214D01*
X19000491Y-56330881D01*
X19274852Y-56233557D01*
X19524955Y-56084578D01*
X19741188Y-55889669D01*
X19915241Y-55656320D01*
X20040425Y-55393499D01*
X20085076Y-55246290D01*
X19963755Y-55016400D01*
X18770600Y-55016400D01*
X18516600Y-55016400D01*
X17323445Y-55016400D01*
X17202124Y-55246290D01*
X16916000Y-55246290D01*
X16916000Y-51499400D01*
X17155528Y-51499400D01*
X17155528Y-53199400D01*
X17167788Y-53323882D01*
X17204098Y-53443580D01*
X17263063Y-53553894D01*
X17342415Y-53650585D01*
X17439106Y-53729937D01*
X17549420Y-53788902D01*
X17630066Y-53813366D01*
X17546012Y-53889131D01*
X17371959Y-54122480D01*
X17246775Y-54385301D01*
X17202124Y-54532510D01*
X17323445Y-54762400D01*
X18516600Y-54762400D01*
X18516600Y-54742400D01*
X18770600Y-54742400D01*
X18770600Y-54762400D01*
X19963755Y-54762400D01*
X19969344Y-54751808D01*
X38049200Y-54751808D01*
X38049200Y-55026992D01*
X38102886Y-55296890D01*
X38208195Y-55551127D01*
X38361080Y-55779935D01*
X38555665Y-55974520D01*
X38784473Y-56127405D01*
X39038710Y-56232714D01*
X39308608Y-56286400D01*
X39583792Y-56286400D01*
X39644120Y-56274400D01*
X43425837Y-56274400D01*
X43629307Y-56254360D01*
X43890381Y-56175164D01*
X44130988Y-56046557D01*
X44341881Y-55873481D01*
X44514957Y-55662588D01*
X44643564Y-55421981D01*
X44722760Y-55160907D01*
X44749501Y-54889400D01*
X44722760Y-54617893D01*
X44643564Y-54356819D01*
X44514957Y-54116212D01*
X44341881Y-53905319D01*
X44130988Y-53732243D01*
X43890381Y-53603636D01*
X43629307Y-53524440D01*
X43425837Y-53504400D01*
X39644120Y-53504400D01*
X39583792Y-53492400D01*
X39308608Y-53492400D01*
X39038710Y-53546086D01*
X38784473Y-53651395D01*
X38555665Y-53804280D01*
X38361080Y-53998865D01*
X38208195Y-54227673D01*
X38102886Y-54481910D01*
X38049200Y-54751808D01*
X19969344Y-54751808D01*
X20085076Y-54532510D01*
X20040425Y-54385301D01*
X19915241Y-54122480D01*
X19741188Y-53889131D01*
X19657134Y-53813366D01*
X19737780Y-53788902D01*
X19848094Y-53729937D01*
X19944785Y-53650585D01*
X20024137Y-53553894D01*
X20061283Y-53484400D01*
X22533157Y-53484400D01*
X22552749Y-53494872D01*
X22719345Y-53545408D01*
X22892599Y-53562472D01*
X23792601Y-53562472D01*
X23965855Y-53545408D01*
X24132451Y-53494872D01*
X24152043Y-53484400D01*
X26644693Y-53484400D01*
X26663168Y-53502875D01*
X26906389Y-53665390D01*
X27176642Y-53777332D01*
X27463540Y-53834400D01*
X27756060Y-53834400D01*
X28042958Y-53777332D01*
X28313211Y-53665390D01*
X28556432Y-53502875D01*
X28574907Y-53484400D01*
X31010316Y-53484400D01*
X31164473Y-53587405D01*
X31418710Y-53692714D01*
X31688608Y-53746400D01*
X31963792Y-53746400D01*
X32233690Y-53692714D01*
X32487927Y-53587405D01*
X32716735Y-53434520D01*
X32911320Y-53239935D01*
X33064205Y-53011127D01*
X33169514Y-52756890D01*
X33223200Y-52486992D01*
X33223200Y-52211808D01*
X33169514Y-51941910D01*
X33064205Y-51687673D01*
X32911320Y-51458865D01*
X32716735Y-51264280D01*
X32487927Y-51111395D01*
X32233690Y-51006086D01*
X31963792Y-50952400D01*
X31688608Y-50952400D01*
X31418710Y-51006086D01*
X31164473Y-51111395D01*
X31010316Y-51214400D01*
X28768528Y-51214400D01*
X28814294Y-51189937D01*
X28910985Y-51110585D01*
X28990337Y-51013894D01*
X29049302Y-50903580D01*
X29085612Y-50783882D01*
X29097872Y-50659400D01*
X29097872Y-49671808D01*
X38049200Y-49671808D01*
X38049200Y-49946992D01*
X38102886Y-50216890D01*
X38208195Y-50471127D01*
X38361080Y-50699935D01*
X38555665Y-50894520D01*
X38784473Y-51047405D01*
X39038710Y-51152714D01*
X39308608Y-51206400D01*
X39583792Y-51206400D01*
X39853690Y-51152714D01*
X40107927Y-51047405D01*
X40262084Y-50944400D01*
X50365172Y-50944400D01*
X50319406Y-50968863D01*
X50222715Y-51048215D01*
X50143363Y-51144906D01*
X50084398Y-51255220D01*
X50048088Y-51374918D01*
X50035828Y-51499400D01*
X50035828Y-53199400D01*
X50048088Y-53323882D01*
X50084398Y-53443580D01*
X50138900Y-53545545D01*
X50138901Y-54770554D01*
X50138900Y-54770564D01*
X50138901Y-56233255D01*
X50084398Y-56335220D01*
X50048088Y-56454918D01*
X50035828Y-56579400D01*
X50035828Y-58279400D01*
X50048088Y-58403882D01*
X50084398Y-58523580D01*
X50143363Y-58633894D01*
X50222715Y-58730585D01*
X50319406Y-58809937D01*
X50365172Y-58834400D01*
X40262084Y-58834400D01*
X40107927Y-58731395D01*
X39853690Y-58626086D01*
X39583792Y-58572400D01*
X39308608Y-58572400D01*
X39038710Y-58626086D01*
X38784473Y-58731395D01*
X38555665Y-58884280D01*
X38361080Y-59078865D01*
X38208195Y-59307673D01*
X38102886Y-59561910D01*
X38049200Y-59831808D01*
X38049200Y-60106992D01*
X38102886Y-60376890D01*
X38208195Y-60631127D01*
X38361080Y-60859935D01*
X38555665Y-61054520D01*
X38784473Y-61207405D01*
X39038710Y-61312714D01*
X39308608Y-61366400D01*
X39583792Y-61366400D01*
X39853690Y-61312714D01*
X40107927Y-61207405D01*
X40262084Y-61104400D01*
X50558793Y-61104400D01*
X50577268Y-61122875D01*
X50751660Y-61239400D01*
X50577268Y-61355925D01*
X50370425Y-61562768D01*
X50207910Y-61805989D01*
X50095968Y-62076242D01*
X50038900Y-62363140D01*
X50038900Y-62655660D01*
X50095968Y-62942558D01*
X50207910Y-63212811D01*
X50370425Y-63456032D01*
X50577268Y-63662875D01*
X50820489Y-63825390D01*
X51090742Y-63937332D01*
X51377640Y-63994400D01*
X51670160Y-63994400D01*
X51957058Y-63937332D01*
X52227311Y-63825390D01*
X52470532Y-63662875D01*
X52489007Y-63644400D01*
X61221749Y-63644400D01*
X61277500Y-63649891D01*
X61333251Y-63644400D01*
X61333252Y-63644400D01*
X61499999Y-63627977D01*
X61713947Y-63563076D01*
X61911123Y-63457684D01*
X62083949Y-63315849D01*
X62119496Y-63272535D01*
X63979647Y-61412385D01*
X64161490Y-61376214D01*
X64415727Y-61270905D01*
X64644535Y-61118020D01*
X64839120Y-60923435D01*
X64992005Y-60694627D01*
X65097314Y-60440390D01*
X65151000Y-60170492D01*
X65151000Y-59895308D01*
X65097314Y-59625410D01*
X64992005Y-59371173D01*
X64839120Y-59142365D01*
X64644535Y-58947780D01*
X64415727Y-58794895D01*
X64161490Y-58689586D01*
X63891592Y-58635900D01*
X63616408Y-58635900D01*
X63346510Y-58689586D01*
X63092273Y-58794895D01*
X62863465Y-58947780D01*
X62668880Y-59142365D01*
X62515995Y-59371173D01*
X62410686Y-59625410D01*
X62374515Y-59807253D01*
X60807369Y-61374400D01*
X52489007Y-61374400D01*
X52470532Y-61355925D01*
X52296140Y-61239400D01*
X52470532Y-61122875D01*
X52677375Y-60916032D01*
X52839890Y-60672811D01*
X52951832Y-60402558D01*
X53008900Y-60115660D01*
X53008900Y-59823140D01*
X52951832Y-59536242D01*
X52839890Y-59265989D01*
X52677375Y-59022768D01*
X52545520Y-58890913D01*
X52618080Y-58868902D01*
X52728394Y-58809937D01*
X52825085Y-58730585D01*
X52904437Y-58633894D01*
X52963402Y-58523580D01*
X52983154Y-58458465D01*
X70588040Y-58458465D01*
X70655020Y-58698556D01*
X70904048Y-58815656D01*
X71171135Y-58881923D01*
X71446017Y-58894810D01*
X71718133Y-58853822D01*
X71977023Y-58760536D01*
X72092980Y-58698556D01*
X72159960Y-58458465D01*
X71374000Y-57672505D01*
X70588040Y-58458465D01*
X52983154Y-58458465D01*
X52999712Y-58403882D01*
X53011972Y-58279400D01*
X53011972Y-57564917D01*
X69972090Y-57564917D01*
X70013078Y-57837033D01*
X70106364Y-58095923D01*
X70168344Y-58211880D01*
X70408435Y-58278860D01*
X71194395Y-57492900D01*
X71553605Y-57492900D01*
X72339565Y-58278860D01*
X72579656Y-58211880D01*
X72696756Y-57962852D01*
X72715178Y-57888600D01*
X80482328Y-57888600D01*
X80494588Y-58013082D01*
X80530898Y-58132780D01*
X80589863Y-58243094D01*
X80669215Y-58339785D01*
X80765906Y-58419137D01*
X80876220Y-58478102D01*
X80995918Y-58514412D01*
X81120400Y-58526672D01*
X83374650Y-58523600D01*
X83533400Y-58364850D01*
X83533400Y-56805600D01*
X80644150Y-56805600D01*
X80485400Y-56964350D01*
X80482328Y-57888600D01*
X72715178Y-57888600D01*
X72763023Y-57695765D01*
X72775910Y-57420883D01*
X72734922Y-57148767D01*
X72641636Y-56889877D01*
X72579656Y-56773920D01*
X72339565Y-56706940D01*
X71553605Y-57492900D01*
X71194395Y-57492900D01*
X70408435Y-56706940D01*
X70168344Y-56773920D01*
X70051244Y-57022948D01*
X69984977Y-57290035D01*
X69972090Y-57564917D01*
X53011972Y-57564917D01*
X53011972Y-56579400D01*
X53006845Y-56527335D01*
X70588040Y-56527335D01*
X71374000Y-57313295D01*
X72159960Y-56527335D01*
X72092980Y-56287244D01*
X71843952Y-56170144D01*
X71576865Y-56103877D01*
X71301983Y-56090990D01*
X71029867Y-56131978D01*
X70770977Y-56225264D01*
X70655020Y-56287244D01*
X70588040Y-56527335D01*
X53006845Y-56527335D01*
X52999712Y-56454918D01*
X52963402Y-56335220D01*
X52908900Y-56233256D01*
X52908900Y-54952900D01*
X59187299Y-54952900D01*
X59214040Y-55224407D01*
X59293236Y-55485481D01*
X59421843Y-55726088D01*
X59594919Y-55936981D01*
X59805812Y-56110057D01*
X60046419Y-56238664D01*
X60307493Y-56317860D01*
X60510963Y-56337900D01*
X63556080Y-56337900D01*
X63616408Y-56349900D01*
X63891592Y-56349900D01*
X64161490Y-56296214D01*
X64415727Y-56190905D01*
X64644535Y-56038020D01*
X64839120Y-55843435D01*
X64992005Y-55614627D01*
X65097314Y-55360390D01*
X65151000Y-55090492D01*
X65151000Y-55025200D01*
X72931528Y-55025200D01*
X72943788Y-55149682D01*
X72980098Y-55269380D01*
X73039063Y-55379694D01*
X73118415Y-55476385D01*
X73215106Y-55555737D01*
X73325420Y-55614702D01*
X73445118Y-55651012D01*
X73569600Y-55663272D01*
X73983850Y-55660200D01*
X74142600Y-55501450D01*
X74142600Y-54577200D01*
X74396600Y-54577200D01*
X74396600Y-55501450D01*
X74555350Y-55660200D01*
X74969600Y-55663272D01*
X75094082Y-55651012D01*
X75213780Y-55614702D01*
X75324094Y-55555737D01*
X75420785Y-55476385D01*
X75500137Y-55379694D01*
X75559102Y-55269380D01*
X75595412Y-55149682D01*
X75607672Y-55025200D01*
X75606998Y-54961700D01*
X76220828Y-54961700D01*
X76233088Y-55086182D01*
X76269398Y-55205880D01*
X76328363Y-55316194D01*
X76407715Y-55412885D01*
X76504406Y-55492237D01*
X76614720Y-55551202D01*
X76734418Y-55587512D01*
X76858900Y-55599772D01*
X77273150Y-55596700D01*
X77431900Y-55437950D01*
X77431900Y-54513700D01*
X77685900Y-54513700D01*
X77685900Y-55437950D01*
X77844650Y-55596700D01*
X78258900Y-55599772D01*
X78383382Y-55587512D01*
X78503080Y-55551202D01*
X78613394Y-55492237D01*
X78642195Y-55468600D01*
X80482328Y-55468600D01*
X80485400Y-56392850D01*
X80644150Y-56551600D01*
X83533400Y-56551600D01*
X83533400Y-54992350D01*
X83374650Y-54833600D01*
X81120400Y-54830528D01*
X80995918Y-54842788D01*
X80876220Y-54879098D01*
X80765906Y-54938063D01*
X80669215Y-55017415D01*
X80589863Y-55114106D01*
X80530898Y-55224420D01*
X80494588Y-55344118D01*
X80482328Y-55468600D01*
X78642195Y-55468600D01*
X78710085Y-55412885D01*
X78789437Y-55316194D01*
X78848402Y-55205880D01*
X78884712Y-55086182D01*
X78896972Y-54961700D01*
X78893900Y-54672450D01*
X78735150Y-54513700D01*
X77685900Y-54513700D01*
X77431900Y-54513700D01*
X76382650Y-54513700D01*
X76223900Y-54672450D01*
X76220828Y-54961700D01*
X75606998Y-54961700D01*
X75604600Y-54735950D01*
X75445850Y-54577200D01*
X74396600Y-54577200D01*
X74142600Y-54577200D01*
X73093350Y-54577200D01*
X72934600Y-54735950D01*
X72931528Y-55025200D01*
X65151000Y-55025200D01*
X65151000Y-54815308D01*
X65097314Y-54545410D01*
X64992005Y-54291173D01*
X64839120Y-54062365D01*
X64644535Y-53867780D01*
X64415727Y-53714895D01*
X64161490Y-53609586D01*
X63891592Y-53555900D01*
X63616408Y-53555900D01*
X63556080Y-53567900D01*
X60510963Y-53567900D01*
X60307493Y-53587940D01*
X60046419Y-53667136D01*
X59805812Y-53795743D01*
X59594919Y-53968819D01*
X59421843Y-54179712D01*
X59293236Y-54420319D01*
X59214040Y-54681393D01*
X59187299Y-54952900D01*
X52908900Y-54952900D01*
X52908900Y-53545544D01*
X52963402Y-53443580D01*
X52999712Y-53323882D01*
X53011972Y-53199400D01*
X53011972Y-51499400D01*
X52999712Y-51374918D01*
X52963402Y-51255220D01*
X52904437Y-51144906D01*
X52825085Y-51048215D01*
X52728394Y-50968863D01*
X52618080Y-50909898D01*
X52545520Y-50887887D01*
X52677375Y-50756032D01*
X52839890Y-50512811D01*
X52951832Y-50242558D01*
X53008900Y-49955660D01*
X53008900Y-49663140D01*
X52951832Y-49376242D01*
X52839890Y-49105989D01*
X52677375Y-48862768D01*
X52470532Y-48655925D01*
X52296140Y-48539400D01*
X52470532Y-48422875D01*
X52489007Y-48404400D01*
X60680369Y-48404400D01*
X62374515Y-50098547D01*
X62410686Y-50280390D01*
X62515995Y-50534627D01*
X62668880Y-50763435D01*
X62863465Y-50958020D01*
X63092273Y-51110905D01*
X63346510Y-51216214D01*
X63616408Y-51269900D01*
X63891592Y-51269900D01*
X64161490Y-51216214D01*
X64415727Y-51110905D01*
X64644535Y-50958020D01*
X64839120Y-50763435D01*
X64992005Y-50534627D01*
X65097314Y-50280390D01*
X65151000Y-50010492D01*
X65151000Y-49735308D01*
X65097314Y-49465410D01*
X64992005Y-49211173D01*
X64839120Y-48982365D01*
X64644535Y-48787780D01*
X64415727Y-48634895D01*
X64161490Y-48529586D01*
X63979647Y-48493415D01*
X62973032Y-47486800D01*
X67637328Y-47486800D01*
X67649588Y-47611282D01*
X67685898Y-47730980D01*
X67744863Y-47841294D01*
X67824215Y-47937985D01*
X67920906Y-48017337D01*
X68031220Y-48076302D01*
X68150918Y-48112612D01*
X68275400Y-48124872D01*
X68564650Y-48121800D01*
X68723400Y-47963050D01*
X68723400Y-46913800D01*
X67799150Y-46913800D01*
X67640400Y-47072550D01*
X67637328Y-47486800D01*
X62973032Y-47486800D01*
X61992496Y-46506265D01*
X61956949Y-46462951D01*
X61784123Y-46321116D01*
X61586947Y-46215724D01*
X61372999Y-46150823D01*
X61206252Y-46134400D01*
X61206251Y-46134400D01*
X61150500Y-46128909D01*
X61094749Y-46134400D01*
X52489007Y-46134400D01*
X52470532Y-46115925D01*
X52426944Y-46086800D01*
X67637328Y-46086800D01*
X67640400Y-46501050D01*
X67799150Y-46659800D01*
X68723400Y-46659800D01*
X68723400Y-45610550D01*
X68564650Y-45451800D01*
X68275400Y-45448728D01*
X68150918Y-45460988D01*
X68031220Y-45497298D01*
X67920906Y-45556263D01*
X67824215Y-45635615D01*
X67744863Y-45732306D01*
X67685898Y-45842620D01*
X67649588Y-45962318D01*
X67637328Y-46086800D01*
X52426944Y-46086800D01*
X52227311Y-45953410D01*
X51957058Y-45841468D01*
X51670160Y-45784400D01*
X51377640Y-45784400D01*
X51090742Y-45841468D01*
X50820489Y-45953410D01*
X50577268Y-46115925D01*
X50370425Y-46322768D01*
X50207910Y-46565989D01*
X50095968Y-46836242D01*
X50038900Y-47123140D01*
X50038900Y-47415660D01*
X50095968Y-47702558D01*
X50207910Y-47972811D01*
X50370425Y-48216032D01*
X50577268Y-48422875D01*
X50751660Y-48539400D01*
X50577268Y-48655925D01*
X50558793Y-48674400D01*
X40262084Y-48674400D01*
X40107927Y-48571395D01*
X39853690Y-48466086D01*
X39583792Y-48412400D01*
X39308608Y-48412400D01*
X39038710Y-48466086D01*
X38784473Y-48571395D01*
X38555665Y-48724280D01*
X38361080Y-48918865D01*
X38208195Y-49147673D01*
X38102886Y-49401910D01*
X38049200Y-49671808D01*
X29097872Y-49671808D01*
X29097872Y-48959400D01*
X29085612Y-48834918D01*
X29049302Y-48715220D01*
X28994800Y-48613256D01*
X28994800Y-48533085D01*
X30803886Y-46724000D01*
X46000971Y-46724000D01*
X46069000Y-46730700D01*
X46137029Y-46724000D01*
X46137037Y-46724000D01*
X46340507Y-46703960D01*
X46601581Y-46624764D01*
X46842188Y-46496157D01*
X47053081Y-46323081D01*
X47096454Y-46270231D01*
X50080236Y-43286450D01*
X50133081Y-43243081D01*
X50306157Y-43032188D01*
X50434764Y-42791581D01*
X50513960Y-42530507D01*
X50534000Y-42327037D01*
X50534000Y-42327029D01*
X50540700Y-42259000D01*
X50534000Y-42190971D01*
X50534000Y-41644000D01*
X53344537Y-41644000D01*
X53548007Y-41623960D01*
X53809081Y-41544764D01*
X54049688Y-41416157D01*
X54062504Y-41405639D01*
X54066351Y-41404472D01*
X54219887Y-41322405D01*
X54354462Y-41211962D01*
X54464905Y-41077387D01*
X54546972Y-40923851D01*
X54597508Y-40757255D01*
X54609446Y-40636041D01*
X54641460Y-40530507D01*
X54668201Y-40259000D01*
X54641460Y-39987493D01*
X54609446Y-39881959D01*
X54597508Y-39760745D01*
X54546972Y-39594149D01*
X54464905Y-39440613D01*
X54354462Y-39306038D01*
X54347906Y-39300658D01*
X54427685Y-39235185D01*
X54507037Y-39138494D01*
X54566002Y-39028180D01*
X54602312Y-38908482D01*
X54614572Y-38784000D01*
X54611500Y-38494750D01*
X54452750Y-38336000D01*
X53403500Y-38336000D01*
X53403500Y-38356000D01*
X53149500Y-38356000D01*
X53149500Y-38336000D01*
X52100250Y-38336000D01*
X51941500Y-38494750D01*
X51938428Y-38784000D01*
X51947292Y-38874000D01*
X50014364Y-38874000D01*
X49759448Y-38737745D01*
X49460203Y-38646970D01*
X49149000Y-38616319D01*
X48837796Y-38646970D01*
X48538551Y-38737745D01*
X48262765Y-38885155D01*
X48021037Y-39083537D01*
X47873838Y-39262900D01*
X47718437Y-39077685D01*
X47475923Y-38883031D01*
X47200094Y-38739429D01*
X46981980Y-38668437D01*
X46736000Y-38788406D01*
X46736000Y-40132000D01*
X46756000Y-40132000D01*
X46756000Y-40386000D01*
X46736000Y-40386000D01*
X46736000Y-41729594D01*
X46981980Y-41849563D01*
X47200094Y-41778571D01*
X47475923Y-41634969D01*
X47718437Y-41440315D01*
X47764001Y-41386010D01*
X47764001Y-41685313D01*
X45495315Y-43954000D01*
X30298226Y-43954000D01*
X30230199Y-43947300D01*
X30162172Y-43954000D01*
X24883826Y-43954000D01*
X24815799Y-43947300D01*
X24747772Y-43954000D01*
X24747763Y-43954000D01*
X24544293Y-43974040D01*
X24283219Y-44053236D01*
X24042612Y-44181843D01*
X24042610Y-44181844D01*
X24042611Y-44181844D01*
X23884566Y-44311548D01*
X23884564Y-44311550D01*
X23831719Y-44354919D01*
X23788350Y-44407764D01*
X22411365Y-45784750D01*
X22358519Y-45828120D01*
X22185443Y-46039013D01*
X22111119Y-46178063D01*
X22056836Y-46279620D01*
X22001573Y-46461799D01*
X21977640Y-46540694D01*
X21957600Y-46744164D01*
X21957600Y-46744171D01*
X21950900Y-46812200D01*
X21957600Y-46880229D01*
X21957601Y-50367437D01*
X21977641Y-50570907D01*
X22009653Y-50676436D01*
X22021592Y-50797655D01*
X22072128Y-50964251D01*
X22154195Y-51117787D01*
X22233483Y-51214400D01*
X20061283Y-51214400D01*
X20024137Y-51144906D01*
X19944785Y-51048215D01*
X19848094Y-50968863D01*
X19737780Y-50909898D01*
X19618082Y-50873588D01*
X19493600Y-50861328D01*
X17793600Y-50861328D01*
X17669118Y-50873588D01*
X17549420Y-50909898D01*
X17439106Y-50968863D01*
X17342415Y-51048215D01*
X17263063Y-51144906D01*
X17204098Y-51255220D01*
X17167788Y-51374918D01*
X17155528Y-51499400D01*
X16916000Y-51499400D01*
X16916000Y-43155890D01*
X17227524Y-43155890D01*
X17272175Y-43303099D01*
X17397359Y-43565920D01*
X17571412Y-43799269D01*
X17787645Y-43994178D01*
X18037748Y-44143157D01*
X18312109Y-44240481D01*
X18542000Y-44119814D01*
X18542000Y-42926000D01*
X18796000Y-42926000D01*
X18796000Y-44119814D01*
X19025891Y-44240481D01*
X19300252Y-44143157D01*
X19550355Y-43994178D01*
X19766588Y-43799269D01*
X19940641Y-43565920D01*
X20065825Y-43303099D01*
X20110476Y-43155890D01*
X19989155Y-42926000D01*
X18796000Y-42926000D01*
X18542000Y-42926000D01*
X17348845Y-42926000D01*
X17227524Y-43155890D01*
X16916000Y-43155890D01*
X16916000Y-39409000D01*
X17180928Y-39409000D01*
X17180928Y-41109000D01*
X17193188Y-41233482D01*
X17229498Y-41353180D01*
X17288463Y-41463494D01*
X17367815Y-41560185D01*
X17464506Y-41639537D01*
X17574820Y-41698502D01*
X17655466Y-41722966D01*
X17571412Y-41798731D01*
X17397359Y-42032080D01*
X17272175Y-42294901D01*
X17227524Y-42442110D01*
X17348845Y-42672000D01*
X18542000Y-42672000D01*
X18542000Y-42652000D01*
X18796000Y-42652000D01*
X18796000Y-42672000D01*
X19989155Y-42672000D01*
X20110476Y-42442110D01*
X20065825Y-42294901D01*
X19940641Y-42032080D01*
X19766588Y-41798731D01*
X19682534Y-41722966D01*
X19763180Y-41698502D01*
X19865144Y-41644000D01*
X23165801Y-41644000D01*
X23417165Y-41694000D01*
X23699835Y-41694000D01*
X23977074Y-41638853D01*
X24238227Y-41530680D01*
X24473259Y-41373637D01*
X24673137Y-41173759D01*
X24830180Y-40938727D01*
X24938353Y-40677574D01*
X24993500Y-40400335D01*
X24993500Y-40117665D01*
X24938353Y-39840426D01*
X24830180Y-39579273D01*
X24749817Y-39459000D01*
X34820428Y-39459000D01*
X34820428Y-41059000D01*
X34832688Y-41183482D01*
X34868998Y-41303180D01*
X34927963Y-41413494D01*
X35007315Y-41510185D01*
X35104006Y-41589537D01*
X35214320Y-41648502D01*
X35334018Y-41684812D01*
X35458500Y-41697072D01*
X37058500Y-41697072D01*
X37182982Y-41684812D01*
X37302680Y-41648502D01*
X37311103Y-41644000D01*
X42610999Y-41644000D01*
X42665315Y-41710185D01*
X42762006Y-41789537D01*
X42872320Y-41848502D01*
X42992018Y-41884812D01*
X43116500Y-41897072D01*
X45021500Y-41897072D01*
X45145982Y-41884812D01*
X45265680Y-41848502D01*
X45375994Y-41789537D01*
X45472685Y-41710185D01*
X45552037Y-41613494D01*
X45601059Y-41521781D01*
X45742077Y-41634969D01*
X46017906Y-41778571D01*
X46236020Y-41849563D01*
X46482000Y-41729594D01*
X46482000Y-40386000D01*
X46462000Y-40386000D01*
X46462000Y-40132000D01*
X46482000Y-40132000D01*
X46482000Y-38788406D01*
X46236020Y-38668437D01*
X46017906Y-38739429D01*
X45742077Y-38883031D01*
X45601059Y-38996219D01*
X45552037Y-38904506D01*
X45472685Y-38807815D01*
X45375994Y-38728463D01*
X45265680Y-38669498D01*
X45145982Y-38633188D01*
X45021500Y-38620928D01*
X43116500Y-38620928D01*
X42992018Y-38633188D01*
X42872320Y-38669498D01*
X42762006Y-38728463D01*
X42665315Y-38807815D01*
X42610999Y-38874000D01*
X40826208Y-38874000D01*
X40835072Y-38784000D01*
X40832000Y-38494750D01*
X40673250Y-38336000D01*
X39624000Y-38336000D01*
X39624000Y-38356000D01*
X39370000Y-38356000D01*
X39370000Y-38336000D01*
X38320750Y-38336000D01*
X38162000Y-38494750D01*
X38158928Y-38784000D01*
X38167792Y-38874000D01*
X37311103Y-38874000D01*
X37302680Y-38869498D01*
X37182982Y-38833188D01*
X37058500Y-38820928D01*
X35458500Y-38820928D01*
X35334018Y-38833188D01*
X35214320Y-38869498D01*
X35104006Y-38928463D01*
X35007315Y-39007815D01*
X34927963Y-39104506D01*
X34868998Y-39214820D01*
X34832688Y-39334518D01*
X34820428Y-39459000D01*
X24749817Y-39459000D01*
X24673137Y-39344241D01*
X24473259Y-39144363D01*
X24238227Y-38987320D01*
X23977074Y-38879147D01*
X23699835Y-38824000D01*
X23417165Y-38824000D01*
X23165801Y-38874000D01*
X19865144Y-38874000D01*
X19763180Y-38819498D01*
X19643482Y-38783188D01*
X19519000Y-38770928D01*
X17819000Y-38770928D01*
X17694518Y-38783188D01*
X17574820Y-38819498D01*
X17464506Y-38878463D01*
X17367815Y-38957815D01*
X17288463Y-39054506D01*
X17229498Y-39164820D01*
X17193188Y-39284518D01*
X17180928Y-39409000D01*
X16916000Y-39409000D01*
X16916000Y-37197900D01*
X38333435Y-37197900D01*
X38266463Y-37279506D01*
M02*
