G04 #@! TF.GenerationSoftware,KiCad,Pcbnew,(6.0.0-rc1-dev-305-gf0b8b21)*
G04 #@! TF.CreationDate,2020-01-19T18:47:02-08:00*
G04 #@! TF.ProjectId,29.4MHz_Bandpass_Filter_Rev1,32392E344D487A5F42616E6470617373,rev?*
G04 #@! TF.SameCoordinates,Original*
G04 #@! TF.FileFunction,Copper,L1,Top,Signal*
G04 #@! TF.FilePolarity,Positive*
%FSLAX46Y46*%
G04 Gerber Fmt 4.6, Leading zero omitted, Abs format (unit mm)*
G04 Created by KiCad (PCBNEW (6.0.0-rc1-dev-305-gf0b8b21)) date Sunday, January 19, 2020 at 06:47:02 PM*
%MOMM*%
%LPD*%
G01*
G04 APERTURE LIST*
G04 #@! TA.AperFunction,Conductor*
%ADD10C,0.100000*%
G04 #@! TD*
G04 #@! TA.AperFunction,SMDPad,CuDef*
%ADD11C,1.150000*%
G04 #@! TD*
G04 #@! TA.AperFunction,SMDPad,CuDef*
%ADD12R,1.778000X1.778000*%
G04 #@! TD*
G04 #@! TA.AperFunction,SMDPad,CuDef*
%ADD13R,5.080000X1.500000*%
G04 #@! TD*
G04 #@! TA.AperFunction,Conductor*
%ADD14C,0.250000*%
G04 #@! TD*
G04 #@! TA.AperFunction,Conductor*
%ADD15C,0.762000*%
G04 #@! TD*
G04 #@! TA.AperFunction,Conductor*
%ADD16C,0.254000*%
G04 #@! TD*
G04 APERTURE END LIST*
D10*
G04 #@! TO.N,Net-(C1-Pad1)*
G04 #@! TO.C,C1*
G36*
X121251505Y-55678204D02*
X121275773Y-55681804D01*
X121299572Y-55687765D01*
X121322671Y-55696030D01*
X121344850Y-55706520D01*
X121365893Y-55719132D01*
X121385599Y-55733747D01*
X121403777Y-55750223D01*
X121420253Y-55768401D01*
X121434868Y-55788107D01*
X121447480Y-55809150D01*
X121457970Y-55831329D01*
X121466235Y-55854428D01*
X121472196Y-55878227D01*
X121475796Y-55902495D01*
X121477000Y-55926999D01*
X121477000Y-56577001D01*
X121475796Y-56601505D01*
X121472196Y-56625773D01*
X121466235Y-56649572D01*
X121457970Y-56672671D01*
X121447480Y-56694850D01*
X121434868Y-56715893D01*
X121420253Y-56735599D01*
X121403777Y-56753777D01*
X121385599Y-56770253D01*
X121365893Y-56784868D01*
X121344850Y-56797480D01*
X121322671Y-56807970D01*
X121299572Y-56816235D01*
X121275773Y-56822196D01*
X121251505Y-56825796D01*
X121227001Y-56827000D01*
X120326999Y-56827000D01*
X120302495Y-56825796D01*
X120278227Y-56822196D01*
X120254428Y-56816235D01*
X120231329Y-56807970D01*
X120209150Y-56797480D01*
X120188107Y-56784868D01*
X120168401Y-56770253D01*
X120150223Y-56753777D01*
X120133747Y-56735599D01*
X120119132Y-56715893D01*
X120106520Y-56694850D01*
X120096030Y-56672671D01*
X120087765Y-56649572D01*
X120081804Y-56625773D01*
X120078204Y-56601505D01*
X120077000Y-56577001D01*
X120077000Y-55926999D01*
X120078204Y-55902495D01*
X120081804Y-55878227D01*
X120087765Y-55854428D01*
X120096030Y-55831329D01*
X120106520Y-55809150D01*
X120119132Y-55788107D01*
X120133747Y-55768401D01*
X120150223Y-55750223D01*
X120168401Y-55733747D01*
X120188107Y-55719132D01*
X120209150Y-55706520D01*
X120231329Y-55696030D01*
X120254428Y-55687765D01*
X120278227Y-55681804D01*
X120302495Y-55678204D01*
X120326999Y-55677000D01*
X121227001Y-55677000D01*
X121251505Y-55678204D01*
X121251505Y-55678204D01*
G37*
D11*
G04 #@! TD*
G04 #@! TO.P,C1,1*
G04 #@! TO.N,Net-(C1-Pad1)*
X120777000Y-56252000D03*
D10*
G04 #@! TO.N,GND*
G04 #@! TO.C,C1*
G36*
X121251505Y-57728204D02*
X121275773Y-57731804D01*
X121299572Y-57737765D01*
X121322671Y-57746030D01*
X121344850Y-57756520D01*
X121365893Y-57769132D01*
X121385599Y-57783747D01*
X121403777Y-57800223D01*
X121420253Y-57818401D01*
X121434868Y-57838107D01*
X121447480Y-57859150D01*
X121457970Y-57881329D01*
X121466235Y-57904428D01*
X121472196Y-57928227D01*
X121475796Y-57952495D01*
X121477000Y-57976999D01*
X121477000Y-58627001D01*
X121475796Y-58651505D01*
X121472196Y-58675773D01*
X121466235Y-58699572D01*
X121457970Y-58722671D01*
X121447480Y-58744850D01*
X121434868Y-58765893D01*
X121420253Y-58785599D01*
X121403777Y-58803777D01*
X121385599Y-58820253D01*
X121365893Y-58834868D01*
X121344850Y-58847480D01*
X121322671Y-58857970D01*
X121299572Y-58866235D01*
X121275773Y-58872196D01*
X121251505Y-58875796D01*
X121227001Y-58877000D01*
X120326999Y-58877000D01*
X120302495Y-58875796D01*
X120278227Y-58872196D01*
X120254428Y-58866235D01*
X120231329Y-58857970D01*
X120209150Y-58847480D01*
X120188107Y-58834868D01*
X120168401Y-58820253D01*
X120150223Y-58803777D01*
X120133747Y-58785599D01*
X120119132Y-58765893D01*
X120106520Y-58744850D01*
X120096030Y-58722671D01*
X120087765Y-58699572D01*
X120081804Y-58675773D01*
X120078204Y-58651505D01*
X120077000Y-58627001D01*
X120077000Y-57976999D01*
X120078204Y-57952495D01*
X120081804Y-57928227D01*
X120087765Y-57904428D01*
X120096030Y-57881329D01*
X120106520Y-57859150D01*
X120119132Y-57838107D01*
X120133747Y-57818401D01*
X120150223Y-57800223D01*
X120168401Y-57783747D01*
X120188107Y-57769132D01*
X120209150Y-57756520D01*
X120231329Y-57746030D01*
X120254428Y-57737765D01*
X120278227Y-57731804D01*
X120302495Y-57728204D01*
X120326999Y-57727000D01*
X121227001Y-57727000D01*
X121251505Y-57728204D01*
X121251505Y-57728204D01*
G37*
D11*
G04 #@! TD*
G04 #@! TO.P,C1,2*
G04 #@! TO.N,GND*
X120777000Y-58302000D03*
D10*
G04 #@! TO.N,GND*
G04 #@! TO.C,C2*
G36*
X124045505Y-57728204D02*
X124069773Y-57731804D01*
X124093572Y-57737765D01*
X124116671Y-57746030D01*
X124138850Y-57756520D01*
X124159893Y-57769132D01*
X124179599Y-57783747D01*
X124197777Y-57800223D01*
X124214253Y-57818401D01*
X124228868Y-57838107D01*
X124241480Y-57859150D01*
X124251970Y-57881329D01*
X124260235Y-57904428D01*
X124266196Y-57928227D01*
X124269796Y-57952495D01*
X124271000Y-57976999D01*
X124271000Y-58627001D01*
X124269796Y-58651505D01*
X124266196Y-58675773D01*
X124260235Y-58699572D01*
X124251970Y-58722671D01*
X124241480Y-58744850D01*
X124228868Y-58765893D01*
X124214253Y-58785599D01*
X124197777Y-58803777D01*
X124179599Y-58820253D01*
X124159893Y-58834868D01*
X124138850Y-58847480D01*
X124116671Y-58857970D01*
X124093572Y-58866235D01*
X124069773Y-58872196D01*
X124045505Y-58875796D01*
X124021001Y-58877000D01*
X123120999Y-58877000D01*
X123096495Y-58875796D01*
X123072227Y-58872196D01*
X123048428Y-58866235D01*
X123025329Y-58857970D01*
X123003150Y-58847480D01*
X122982107Y-58834868D01*
X122962401Y-58820253D01*
X122944223Y-58803777D01*
X122927747Y-58785599D01*
X122913132Y-58765893D01*
X122900520Y-58744850D01*
X122890030Y-58722671D01*
X122881765Y-58699572D01*
X122875804Y-58675773D01*
X122872204Y-58651505D01*
X122871000Y-58627001D01*
X122871000Y-57976999D01*
X122872204Y-57952495D01*
X122875804Y-57928227D01*
X122881765Y-57904428D01*
X122890030Y-57881329D01*
X122900520Y-57859150D01*
X122913132Y-57838107D01*
X122927747Y-57818401D01*
X122944223Y-57800223D01*
X122962401Y-57783747D01*
X122982107Y-57769132D01*
X123003150Y-57756520D01*
X123025329Y-57746030D01*
X123048428Y-57737765D01*
X123072227Y-57731804D01*
X123096495Y-57728204D01*
X123120999Y-57727000D01*
X124021001Y-57727000D01*
X124045505Y-57728204D01*
X124045505Y-57728204D01*
G37*
D11*
G04 #@! TD*
G04 #@! TO.P,C2,2*
G04 #@! TO.N,GND*
X123571000Y-58302000D03*
D10*
G04 #@! TO.N,Net-(C1-Pad1)*
G04 #@! TO.C,C2*
G36*
X124045505Y-55678204D02*
X124069773Y-55681804D01*
X124093572Y-55687765D01*
X124116671Y-55696030D01*
X124138850Y-55706520D01*
X124159893Y-55719132D01*
X124179599Y-55733747D01*
X124197777Y-55750223D01*
X124214253Y-55768401D01*
X124228868Y-55788107D01*
X124241480Y-55809150D01*
X124251970Y-55831329D01*
X124260235Y-55854428D01*
X124266196Y-55878227D01*
X124269796Y-55902495D01*
X124271000Y-55926999D01*
X124271000Y-56577001D01*
X124269796Y-56601505D01*
X124266196Y-56625773D01*
X124260235Y-56649572D01*
X124251970Y-56672671D01*
X124241480Y-56694850D01*
X124228868Y-56715893D01*
X124214253Y-56735599D01*
X124197777Y-56753777D01*
X124179599Y-56770253D01*
X124159893Y-56784868D01*
X124138850Y-56797480D01*
X124116671Y-56807970D01*
X124093572Y-56816235D01*
X124069773Y-56822196D01*
X124045505Y-56825796D01*
X124021001Y-56827000D01*
X123120999Y-56827000D01*
X123096495Y-56825796D01*
X123072227Y-56822196D01*
X123048428Y-56816235D01*
X123025329Y-56807970D01*
X123003150Y-56797480D01*
X122982107Y-56784868D01*
X122962401Y-56770253D01*
X122944223Y-56753777D01*
X122927747Y-56735599D01*
X122913132Y-56715893D01*
X122900520Y-56694850D01*
X122890030Y-56672671D01*
X122881765Y-56649572D01*
X122875804Y-56625773D01*
X122872204Y-56601505D01*
X122871000Y-56577001D01*
X122871000Y-55926999D01*
X122872204Y-55902495D01*
X122875804Y-55878227D01*
X122881765Y-55854428D01*
X122890030Y-55831329D01*
X122900520Y-55809150D01*
X122913132Y-55788107D01*
X122927747Y-55768401D01*
X122944223Y-55750223D01*
X122962401Y-55733747D01*
X122982107Y-55719132D01*
X123003150Y-55706520D01*
X123025329Y-55696030D01*
X123048428Y-55687765D01*
X123072227Y-55681804D01*
X123096495Y-55678204D01*
X123120999Y-55677000D01*
X124021001Y-55677000D01*
X124045505Y-55678204D01*
X124045505Y-55678204D01*
G37*
D11*
G04 #@! TD*
G04 #@! TO.P,C2,1*
G04 #@! TO.N,Net-(C1-Pad1)*
X123571000Y-56252000D03*
D12*
G04 #@! TO.P,C3,1*
G04 #@! TO.N,Net-(C3-Pad1)*
X135094472Y-56134000D03*
G04 #@! TO.P,C3,2*
G04 #@! TO.N,Net-(C1-Pad1)*
X129159000Y-56134000D03*
G04 #@! TD*
D10*
G04 #@! TO.N,GND*
G04 #@! TO.C,C4*
G36*
X147921505Y-57592204D02*
X147945773Y-57595804D01*
X147969572Y-57601765D01*
X147992671Y-57610030D01*
X148014850Y-57620520D01*
X148035893Y-57633132D01*
X148055599Y-57647747D01*
X148073777Y-57664223D01*
X148090253Y-57682401D01*
X148104868Y-57702107D01*
X148117480Y-57723150D01*
X148127970Y-57745329D01*
X148136235Y-57768428D01*
X148142196Y-57792227D01*
X148145796Y-57816495D01*
X148147000Y-57840999D01*
X148147000Y-58491001D01*
X148145796Y-58515505D01*
X148142196Y-58539773D01*
X148136235Y-58563572D01*
X148127970Y-58586671D01*
X148117480Y-58608850D01*
X148104868Y-58629893D01*
X148090253Y-58649599D01*
X148073777Y-58667777D01*
X148055599Y-58684253D01*
X148035893Y-58698868D01*
X148014850Y-58711480D01*
X147992671Y-58721970D01*
X147969572Y-58730235D01*
X147945773Y-58736196D01*
X147921505Y-58739796D01*
X147897001Y-58741000D01*
X146996999Y-58741000D01*
X146972495Y-58739796D01*
X146948227Y-58736196D01*
X146924428Y-58730235D01*
X146901329Y-58721970D01*
X146879150Y-58711480D01*
X146858107Y-58698868D01*
X146838401Y-58684253D01*
X146820223Y-58667777D01*
X146803747Y-58649599D01*
X146789132Y-58629893D01*
X146776520Y-58608850D01*
X146766030Y-58586671D01*
X146757765Y-58563572D01*
X146751804Y-58539773D01*
X146748204Y-58515505D01*
X146747000Y-58491001D01*
X146747000Y-57840999D01*
X146748204Y-57816495D01*
X146751804Y-57792227D01*
X146757765Y-57768428D01*
X146766030Y-57745329D01*
X146776520Y-57723150D01*
X146789132Y-57702107D01*
X146803747Y-57682401D01*
X146820223Y-57664223D01*
X146838401Y-57647747D01*
X146858107Y-57633132D01*
X146879150Y-57620520D01*
X146901329Y-57610030D01*
X146924428Y-57601765D01*
X146948227Y-57595804D01*
X146972495Y-57592204D01*
X146996999Y-57591000D01*
X147897001Y-57591000D01*
X147921505Y-57592204D01*
X147921505Y-57592204D01*
G37*
D11*
G04 #@! TD*
G04 #@! TO.P,C4,1*
G04 #@! TO.N,GND*
X147447000Y-58166000D03*
D10*
G04 #@! TO.N,Net-(C4-Pad2)*
G04 #@! TO.C,C4*
G36*
X147921505Y-55542204D02*
X147945773Y-55545804D01*
X147969572Y-55551765D01*
X147992671Y-55560030D01*
X148014850Y-55570520D01*
X148035893Y-55583132D01*
X148055599Y-55597747D01*
X148073777Y-55614223D01*
X148090253Y-55632401D01*
X148104868Y-55652107D01*
X148117480Y-55673150D01*
X148127970Y-55695329D01*
X148136235Y-55718428D01*
X148142196Y-55742227D01*
X148145796Y-55766495D01*
X148147000Y-55790999D01*
X148147000Y-56441001D01*
X148145796Y-56465505D01*
X148142196Y-56489773D01*
X148136235Y-56513572D01*
X148127970Y-56536671D01*
X148117480Y-56558850D01*
X148104868Y-56579893D01*
X148090253Y-56599599D01*
X148073777Y-56617777D01*
X148055599Y-56634253D01*
X148035893Y-56648868D01*
X148014850Y-56661480D01*
X147992671Y-56671970D01*
X147969572Y-56680235D01*
X147945773Y-56686196D01*
X147921505Y-56689796D01*
X147897001Y-56691000D01*
X146996999Y-56691000D01*
X146972495Y-56689796D01*
X146948227Y-56686196D01*
X146924428Y-56680235D01*
X146901329Y-56671970D01*
X146879150Y-56661480D01*
X146858107Y-56648868D01*
X146838401Y-56634253D01*
X146820223Y-56617777D01*
X146803747Y-56599599D01*
X146789132Y-56579893D01*
X146776520Y-56558850D01*
X146766030Y-56536671D01*
X146757765Y-56513572D01*
X146751804Y-56489773D01*
X146748204Y-56465505D01*
X146747000Y-56441001D01*
X146747000Y-55790999D01*
X146748204Y-55766495D01*
X146751804Y-55742227D01*
X146757765Y-55718428D01*
X146766030Y-55695329D01*
X146776520Y-55673150D01*
X146789132Y-55652107D01*
X146803747Y-55632401D01*
X146820223Y-55614223D01*
X146838401Y-55597747D01*
X146858107Y-55583132D01*
X146879150Y-55570520D01*
X146901329Y-55560030D01*
X146924428Y-55551765D01*
X146948227Y-55545804D01*
X146972495Y-55542204D01*
X146996999Y-55541000D01*
X147897001Y-55541000D01*
X147921505Y-55542204D01*
X147921505Y-55542204D01*
G37*
D11*
G04 #@! TD*
G04 #@! TO.P,C4,2*
G04 #@! TO.N,Net-(C4-Pad2)*
X147447000Y-56116000D03*
D10*
G04 #@! TO.N,GND*
G04 #@! TO.C,C5*
G36*
X151223505Y-57592204D02*
X151247773Y-57595804D01*
X151271572Y-57601765D01*
X151294671Y-57610030D01*
X151316850Y-57620520D01*
X151337893Y-57633132D01*
X151357599Y-57647747D01*
X151375777Y-57664223D01*
X151392253Y-57682401D01*
X151406868Y-57702107D01*
X151419480Y-57723150D01*
X151429970Y-57745329D01*
X151438235Y-57768428D01*
X151444196Y-57792227D01*
X151447796Y-57816495D01*
X151449000Y-57840999D01*
X151449000Y-58491001D01*
X151447796Y-58515505D01*
X151444196Y-58539773D01*
X151438235Y-58563572D01*
X151429970Y-58586671D01*
X151419480Y-58608850D01*
X151406868Y-58629893D01*
X151392253Y-58649599D01*
X151375777Y-58667777D01*
X151357599Y-58684253D01*
X151337893Y-58698868D01*
X151316850Y-58711480D01*
X151294671Y-58721970D01*
X151271572Y-58730235D01*
X151247773Y-58736196D01*
X151223505Y-58739796D01*
X151199001Y-58741000D01*
X150298999Y-58741000D01*
X150274495Y-58739796D01*
X150250227Y-58736196D01*
X150226428Y-58730235D01*
X150203329Y-58721970D01*
X150181150Y-58711480D01*
X150160107Y-58698868D01*
X150140401Y-58684253D01*
X150122223Y-58667777D01*
X150105747Y-58649599D01*
X150091132Y-58629893D01*
X150078520Y-58608850D01*
X150068030Y-58586671D01*
X150059765Y-58563572D01*
X150053804Y-58539773D01*
X150050204Y-58515505D01*
X150049000Y-58491001D01*
X150049000Y-57840999D01*
X150050204Y-57816495D01*
X150053804Y-57792227D01*
X150059765Y-57768428D01*
X150068030Y-57745329D01*
X150078520Y-57723150D01*
X150091132Y-57702107D01*
X150105747Y-57682401D01*
X150122223Y-57664223D01*
X150140401Y-57647747D01*
X150160107Y-57633132D01*
X150181150Y-57620520D01*
X150203329Y-57610030D01*
X150226428Y-57601765D01*
X150250227Y-57595804D01*
X150274495Y-57592204D01*
X150298999Y-57591000D01*
X151199001Y-57591000D01*
X151223505Y-57592204D01*
X151223505Y-57592204D01*
G37*
D11*
G04 #@! TD*
G04 #@! TO.P,C5,2*
G04 #@! TO.N,GND*
X150749000Y-58166000D03*
D10*
G04 #@! TO.N,Net-(C4-Pad2)*
G04 #@! TO.C,C5*
G36*
X151223505Y-55542204D02*
X151247773Y-55545804D01*
X151271572Y-55551765D01*
X151294671Y-55560030D01*
X151316850Y-55570520D01*
X151337893Y-55583132D01*
X151357599Y-55597747D01*
X151375777Y-55614223D01*
X151392253Y-55632401D01*
X151406868Y-55652107D01*
X151419480Y-55673150D01*
X151429970Y-55695329D01*
X151438235Y-55718428D01*
X151444196Y-55742227D01*
X151447796Y-55766495D01*
X151449000Y-55790999D01*
X151449000Y-56441001D01*
X151447796Y-56465505D01*
X151444196Y-56489773D01*
X151438235Y-56513572D01*
X151429970Y-56536671D01*
X151419480Y-56558850D01*
X151406868Y-56579893D01*
X151392253Y-56599599D01*
X151375777Y-56617777D01*
X151357599Y-56634253D01*
X151337893Y-56648868D01*
X151316850Y-56661480D01*
X151294671Y-56671970D01*
X151271572Y-56680235D01*
X151247773Y-56686196D01*
X151223505Y-56689796D01*
X151199001Y-56691000D01*
X150298999Y-56691000D01*
X150274495Y-56689796D01*
X150250227Y-56686196D01*
X150226428Y-56680235D01*
X150203329Y-56671970D01*
X150181150Y-56661480D01*
X150160107Y-56648868D01*
X150140401Y-56634253D01*
X150122223Y-56617777D01*
X150105747Y-56599599D01*
X150091132Y-56579893D01*
X150078520Y-56558850D01*
X150068030Y-56536671D01*
X150059765Y-56513572D01*
X150053804Y-56489773D01*
X150050204Y-56465505D01*
X150049000Y-56441001D01*
X150049000Y-55790999D01*
X150050204Y-55766495D01*
X150053804Y-55742227D01*
X150059765Y-55718428D01*
X150068030Y-55695329D01*
X150078520Y-55673150D01*
X150091132Y-55652107D01*
X150105747Y-55632401D01*
X150122223Y-55614223D01*
X150140401Y-55597747D01*
X150160107Y-55583132D01*
X150181150Y-55570520D01*
X150203329Y-55560030D01*
X150226428Y-55551765D01*
X150250227Y-55545804D01*
X150274495Y-55542204D01*
X150298999Y-55541000D01*
X151199001Y-55541000D01*
X151223505Y-55542204D01*
X151223505Y-55542204D01*
G37*
D11*
G04 #@! TD*
G04 #@! TO.P,C5,1*
G04 #@! TO.N,Net-(C4-Pad2)*
X150749000Y-56116000D03*
D13*
G04 #@! TO.P,J1,1*
G04 #@! TO.N,Net-(C6-Pad1)*
X104394000Y-56261000D03*
G04 #@! TO.P,J1,2*
G04 #@! TO.N,GND*
X104394000Y-60511000D03*
X104394000Y-52011000D03*
G04 #@! TD*
G04 #@! TO.P,J2,2*
G04 #@! TO.N,GND*
X169418000Y-60384000D03*
X169418000Y-51884000D03*
G04 #@! TO.P,J2,1*
G04 #@! TO.N,Net-(C7-Pad1)*
X169418000Y-56134000D03*
G04 #@! TD*
D10*
G04 #@! TO.N,GND*
G04 #@! TO.C,L1*
G36*
X118575505Y-57728204D02*
X118599773Y-57731804D01*
X118623572Y-57737765D01*
X118646671Y-57746030D01*
X118668850Y-57756520D01*
X118689893Y-57769132D01*
X118709599Y-57783747D01*
X118727777Y-57800223D01*
X118744253Y-57818401D01*
X118758868Y-57838107D01*
X118771480Y-57859150D01*
X118781970Y-57881329D01*
X118790235Y-57904428D01*
X118796196Y-57928227D01*
X118799796Y-57952495D01*
X118801000Y-57976999D01*
X118801000Y-58627001D01*
X118799796Y-58651505D01*
X118796196Y-58675773D01*
X118790235Y-58699572D01*
X118781970Y-58722671D01*
X118771480Y-58744850D01*
X118758868Y-58765893D01*
X118744253Y-58785599D01*
X118727777Y-58803777D01*
X118709599Y-58820253D01*
X118689893Y-58834868D01*
X118668850Y-58847480D01*
X118646671Y-58857970D01*
X118623572Y-58866235D01*
X118599773Y-58872196D01*
X118575505Y-58875796D01*
X118551001Y-58877000D01*
X117650999Y-58877000D01*
X117626495Y-58875796D01*
X117602227Y-58872196D01*
X117578428Y-58866235D01*
X117555329Y-58857970D01*
X117533150Y-58847480D01*
X117512107Y-58834868D01*
X117492401Y-58820253D01*
X117474223Y-58803777D01*
X117457747Y-58785599D01*
X117443132Y-58765893D01*
X117430520Y-58744850D01*
X117420030Y-58722671D01*
X117411765Y-58699572D01*
X117405804Y-58675773D01*
X117402204Y-58651505D01*
X117401000Y-58627001D01*
X117401000Y-57976999D01*
X117402204Y-57952495D01*
X117405804Y-57928227D01*
X117411765Y-57904428D01*
X117420030Y-57881329D01*
X117430520Y-57859150D01*
X117443132Y-57838107D01*
X117457747Y-57818401D01*
X117474223Y-57800223D01*
X117492401Y-57783747D01*
X117512107Y-57769132D01*
X117533150Y-57756520D01*
X117555329Y-57746030D01*
X117578428Y-57737765D01*
X117602227Y-57731804D01*
X117626495Y-57728204D01*
X117650999Y-57727000D01*
X118551001Y-57727000D01*
X118575505Y-57728204D01*
X118575505Y-57728204D01*
G37*
D11*
G04 #@! TD*
G04 #@! TO.P,L1,2*
G04 #@! TO.N,GND*
X118101000Y-58302000D03*
D10*
G04 #@! TO.N,Net-(C1-Pad1)*
G04 #@! TO.C,L1*
G36*
X118575505Y-55678204D02*
X118599773Y-55681804D01*
X118623572Y-55687765D01*
X118646671Y-55696030D01*
X118668850Y-55706520D01*
X118689893Y-55719132D01*
X118709599Y-55733747D01*
X118727777Y-55750223D01*
X118744253Y-55768401D01*
X118758868Y-55788107D01*
X118771480Y-55809150D01*
X118781970Y-55831329D01*
X118790235Y-55854428D01*
X118796196Y-55878227D01*
X118799796Y-55902495D01*
X118801000Y-55926999D01*
X118801000Y-56577001D01*
X118799796Y-56601505D01*
X118796196Y-56625773D01*
X118790235Y-56649572D01*
X118781970Y-56672671D01*
X118771480Y-56694850D01*
X118758868Y-56715893D01*
X118744253Y-56735599D01*
X118727777Y-56753777D01*
X118709599Y-56770253D01*
X118689893Y-56784868D01*
X118668850Y-56797480D01*
X118646671Y-56807970D01*
X118623572Y-56816235D01*
X118599773Y-56822196D01*
X118575505Y-56825796D01*
X118551001Y-56827000D01*
X117650999Y-56827000D01*
X117626495Y-56825796D01*
X117602227Y-56822196D01*
X117578428Y-56816235D01*
X117555329Y-56807970D01*
X117533150Y-56797480D01*
X117512107Y-56784868D01*
X117492401Y-56770253D01*
X117474223Y-56753777D01*
X117457747Y-56735599D01*
X117443132Y-56715893D01*
X117430520Y-56694850D01*
X117420030Y-56672671D01*
X117411765Y-56649572D01*
X117405804Y-56625773D01*
X117402204Y-56601505D01*
X117401000Y-56577001D01*
X117401000Y-55926999D01*
X117402204Y-55902495D01*
X117405804Y-55878227D01*
X117411765Y-55854428D01*
X117420030Y-55831329D01*
X117430520Y-55809150D01*
X117443132Y-55788107D01*
X117457747Y-55768401D01*
X117474223Y-55750223D01*
X117492401Y-55733747D01*
X117512107Y-55719132D01*
X117533150Y-55706520D01*
X117555329Y-55696030D01*
X117578428Y-55687765D01*
X117602227Y-55681804D01*
X117626495Y-55678204D01*
X117650999Y-55677000D01*
X118551001Y-55677000D01*
X118575505Y-55678204D01*
X118575505Y-55678204D01*
G37*
D11*
G04 #@! TD*
G04 #@! TO.P,L1,1*
G04 #@! TO.N,Net-(C1-Pad1)*
X118101000Y-56252000D03*
D10*
G04 #@! TO.N,Net-(C3-Pad1)*
G04 #@! TO.C,L2*
G36*
X138380505Y-55435204D02*
X138404773Y-55438804D01*
X138428572Y-55444765D01*
X138451671Y-55453030D01*
X138473850Y-55463520D01*
X138494893Y-55476132D01*
X138514599Y-55490747D01*
X138532777Y-55507223D01*
X138549253Y-55525401D01*
X138563868Y-55545107D01*
X138576480Y-55566150D01*
X138586970Y-55588329D01*
X138595235Y-55611428D01*
X138601196Y-55635227D01*
X138604796Y-55659495D01*
X138606000Y-55683999D01*
X138606000Y-56584001D01*
X138604796Y-56608505D01*
X138601196Y-56632773D01*
X138595235Y-56656572D01*
X138586970Y-56679671D01*
X138576480Y-56701850D01*
X138563868Y-56722893D01*
X138549253Y-56742599D01*
X138532777Y-56760777D01*
X138514599Y-56777253D01*
X138494893Y-56791868D01*
X138473850Y-56804480D01*
X138451671Y-56814970D01*
X138428572Y-56823235D01*
X138404773Y-56829196D01*
X138380505Y-56832796D01*
X138356001Y-56834000D01*
X137705999Y-56834000D01*
X137681495Y-56832796D01*
X137657227Y-56829196D01*
X137633428Y-56823235D01*
X137610329Y-56814970D01*
X137588150Y-56804480D01*
X137567107Y-56791868D01*
X137547401Y-56777253D01*
X137529223Y-56760777D01*
X137512747Y-56742599D01*
X137498132Y-56722893D01*
X137485520Y-56701850D01*
X137475030Y-56679671D01*
X137466765Y-56656572D01*
X137460804Y-56632773D01*
X137457204Y-56608505D01*
X137456000Y-56584001D01*
X137456000Y-55683999D01*
X137457204Y-55659495D01*
X137460804Y-55635227D01*
X137466765Y-55611428D01*
X137475030Y-55588329D01*
X137485520Y-55566150D01*
X137498132Y-55545107D01*
X137512747Y-55525401D01*
X137529223Y-55507223D01*
X137547401Y-55490747D01*
X137567107Y-55476132D01*
X137588150Y-55463520D01*
X137610329Y-55453030D01*
X137633428Y-55444765D01*
X137657227Y-55438804D01*
X137681495Y-55435204D01*
X137705999Y-55434000D01*
X138356001Y-55434000D01*
X138380505Y-55435204D01*
X138380505Y-55435204D01*
G37*
D11*
G04 #@! TD*
G04 #@! TO.P,L2,1*
G04 #@! TO.N,Net-(C3-Pad1)*
X138031000Y-56134000D03*
D10*
G04 #@! TO.N,Net-(C4-Pad2)*
G04 #@! TO.C,L2*
G36*
X140430505Y-55435204D02*
X140454773Y-55438804D01*
X140478572Y-55444765D01*
X140501671Y-55453030D01*
X140523850Y-55463520D01*
X140544893Y-55476132D01*
X140564599Y-55490747D01*
X140582777Y-55507223D01*
X140599253Y-55525401D01*
X140613868Y-55545107D01*
X140626480Y-55566150D01*
X140636970Y-55588329D01*
X140645235Y-55611428D01*
X140651196Y-55635227D01*
X140654796Y-55659495D01*
X140656000Y-55683999D01*
X140656000Y-56584001D01*
X140654796Y-56608505D01*
X140651196Y-56632773D01*
X140645235Y-56656572D01*
X140636970Y-56679671D01*
X140626480Y-56701850D01*
X140613868Y-56722893D01*
X140599253Y-56742599D01*
X140582777Y-56760777D01*
X140564599Y-56777253D01*
X140544893Y-56791868D01*
X140523850Y-56804480D01*
X140501671Y-56814970D01*
X140478572Y-56823235D01*
X140454773Y-56829196D01*
X140430505Y-56832796D01*
X140406001Y-56834000D01*
X139755999Y-56834000D01*
X139731495Y-56832796D01*
X139707227Y-56829196D01*
X139683428Y-56823235D01*
X139660329Y-56814970D01*
X139638150Y-56804480D01*
X139617107Y-56791868D01*
X139597401Y-56777253D01*
X139579223Y-56760777D01*
X139562747Y-56742599D01*
X139548132Y-56722893D01*
X139535520Y-56701850D01*
X139525030Y-56679671D01*
X139516765Y-56656572D01*
X139510804Y-56632773D01*
X139507204Y-56608505D01*
X139506000Y-56584001D01*
X139506000Y-55683999D01*
X139507204Y-55659495D01*
X139510804Y-55635227D01*
X139516765Y-55611428D01*
X139525030Y-55588329D01*
X139535520Y-55566150D01*
X139548132Y-55545107D01*
X139562747Y-55525401D01*
X139579223Y-55507223D01*
X139597401Y-55490747D01*
X139617107Y-55476132D01*
X139638150Y-55463520D01*
X139660329Y-55453030D01*
X139683428Y-55444765D01*
X139707227Y-55438804D01*
X139731495Y-55435204D01*
X139755999Y-55434000D01*
X140406001Y-55434000D01*
X140430505Y-55435204D01*
X140430505Y-55435204D01*
G37*
D11*
G04 #@! TD*
G04 #@! TO.P,L2,2*
G04 #@! TO.N,Net-(C4-Pad2)*
X140081000Y-56134000D03*
D10*
G04 #@! TO.N,Net-(C4-Pad2)*
G04 #@! TO.C,L3*
G36*
X154271505Y-55551204D02*
X154295773Y-55554804D01*
X154319572Y-55560765D01*
X154342671Y-55569030D01*
X154364850Y-55579520D01*
X154385893Y-55592132D01*
X154405599Y-55606747D01*
X154423777Y-55623223D01*
X154440253Y-55641401D01*
X154454868Y-55661107D01*
X154467480Y-55682150D01*
X154477970Y-55704329D01*
X154486235Y-55727428D01*
X154492196Y-55751227D01*
X154495796Y-55775495D01*
X154497000Y-55799999D01*
X154497000Y-56450001D01*
X154495796Y-56474505D01*
X154492196Y-56498773D01*
X154486235Y-56522572D01*
X154477970Y-56545671D01*
X154467480Y-56567850D01*
X154454868Y-56588893D01*
X154440253Y-56608599D01*
X154423777Y-56626777D01*
X154405599Y-56643253D01*
X154385893Y-56657868D01*
X154364850Y-56670480D01*
X154342671Y-56680970D01*
X154319572Y-56689235D01*
X154295773Y-56695196D01*
X154271505Y-56698796D01*
X154247001Y-56700000D01*
X153346999Y-56700000D01*
X153322495Y-56698796D01*
X153298227Y-56695196D01*
X153274428Y-56689235D01*
X153251329Y-56680970D01*
X153229150Y-56670480D01*
X153208107Y-56657868D01*
X153188401Y-56643253D01*
X153170223Y-56626777D01*
X153153747Y-56608599D01*
X153139132Y-56588893D01*
X153126520Y-56567850D01*
X153116030Y-56545671D01*
X153107765Y-56522572D01*
X153101804Y-56498773D01*
X153098204Y-56474505D01*
X153097000Y-56450001D01*
X153097000Y-55799999D01*
X153098204Y-55775495D01*
X153101804Y-55751227D01*
X153107765Y-55727428D01*
X153116030Y-55704329D01*
X153126520Y-55682150D01*
X153139132Y-55661107D01*
X153153747Y-55641401D01*
X153170223Y-55623223D01*
X153188401Y-55606747D01*
X153208107Y-55592132D01*
X153229150Y-55579520D01*
X153251329Y-55569030D01*
X153274428Y-55560765D01*
X153298227Y-55554804D01*
X153322495Y-55551204D01*
X153346999Y-55550000D01*
X154247001Y-55550000D01*
X154271505Y-55551204D01*
X154271505Y-55551204D01*
G37*
D11*
G04 #@! TD*
G04 #@! TO.P,L3,1*
G04 #@! TO.N,Net-(C4-Pad2)*
X153797000Y-56125000D03*
D10*
G04 #@! TO.N,GND*
G04 #@! TO.C,L3*
G36*
X154271505Y-57601204D02*
X154295773Y-57604804D01*
X154319572Y-57610765D01*
X154342671Y-57619030D01*
X154364850Y-57629520D01*
X154385893Y-57642132D01*
X154405599Y-57656747D01*
X154423777Y-57673223D01*
X154440253Y-57691401D01*
X154454868Y-57711107D01*
X154467480Y-57732150D01*
X154477970Y-57754329D01*
X154486235Y-57777428D01*
X154492196Y-57801227D01*
X154495796Y-57825495D01*
X154497000Y-57849999D01*
X154497000Y-58500001D01*
X154495796Y-58524505D01*
X154492196Y-58548773D01*
X154486235Y-58572572D01*
X154477970Y-58595671D01*
X154467480Y-58617850D01*
X154454868Y-58638893D01*
X154440253Y-58658599D01*
X154423777Y-58676777D01*
X154405599Y-58693253D01*
X154385893Y-58707868D01*
X154364850Y-58720480D01*
X154342671Y-58730970D01*
X154319572Y-58739235D01*
X154295773Y-58745196D01*
X154271505Y-58748796D01*
X154247001Y-58750000D01*
X153346999Y-58750000D01*
X153322495Y-58748796D01*
X153298227Y-58745196D01*
X153274428Y-58739235D01*
X153251329Y-58730970D01*
X153229150Y-58720480D01*
X153208107Y-58707868D01*
X153188401Y-58693253D01*
X153170223Y-58676777D01*
X153153747Y-58658599D01*
X153139132Y-58638893D01*
X153126520Y-58617850D01*
X153116030Y-58595671D01*
X153107765Y-58572572D01*
X153101804Y-58548773D01*
X153098204Y-58524505D01*
X153097000Y-58500001D01*
X153097000Y-57849999D01*
X153098204Y-57825495D01*
X153101804Y-57801227D01*
X153107765Y-57777428D01*
X153116030Y-57754329D01*
X153126520Y-57732150D01*
X153139132Y-57711107D01*
X153153747Y-57691401D01*
X153170223Y-57673223D01*
X153188401Y-57656747D01*
X153208107Y-57642132D01*
X153229150Y-57629520D01*
X153251329Y-57619030D01*
X153274428Y-57610765D01*
X153298227Y-57604804D01*
X153322495Y-57601204D01*
X153346999Y-57600000D01*
X154247001Y-57600000D01*
X154271505Y-57601204D01*
X154271505Y-57601204D01*
G37*
D11*
G04 #@! TD*
G04 #@! TO.P,L3,2*
G04 #@! TO.N,GND*
X153797000Y-58175000D03*
D10*
G04 #@! TO.N,Net-(C6-Pad1)*
G04 #@! TO.C,C6*
G36*
X110329505Y-55687204D02*
X110353773Y-55690804D01*
X110377572Y-55696765D01*
X110400671Y-55705030D01*
X110422850Y-55715520D01*
X110443893Y-55728132D01*
X110463599Y-55742747D01*
X110481777Y-55759223D01*
X110498253Y-55777401D01*
X110512868Y-55797107D01*
X110525480Y-55818150D01*
X110535970Y-55840329D01*
X110544235Y-55863428D01*
X110550196Y-55887227D01*
X110553796Y-55911495D01*
X110555000Y-55935999D01*
X110555000Y-56586001D01*
X110553796Y-56610505D01*
X110550196Y-56634773D01*
X110544235Y-56658572D01*
X110535970Y-56681671D01*
X110525480Y-56703850D01*
X110512868Y-56724893D01*
X110498253Y-56744599D01*
X110481777Y-56762777D01*
X110463599Y-56779253D01*
X110443893Y-56793868D01*
X110422850Y-56806480D01*
X110400671Y-56816970D01*
X110377572Y-56825235D01*
X110353773Y-56831196D01*
X110329505Y-56834796D01*
X110305001Y-56836000D01*
X109404999Y-56836000D01*
X109380495Y-56834796D01*
X109356227Y-56831196D01*
X109332428Y-56825235D01*
X109309329Y-56816970D01*
X109287150Y-56806480D01*
X109266107Y-56793868D01*
X109246401Y-56779253D01*
X109228223Y-56762777D01*
X109211747Y-56744599D01*
X109197132Y-56724893D01*
X109184520Y-56703850D01*
X109174030Y-56681671D01*
X109165765Y-56658572D01*
X109159804Y-56634773D01*
X109156204Y-56610505D01*
X109155000Y-56586001D01*
X109155000Y-55935999D01*
X109156204Y-55911495D01*
X109159804Y-55887227D01*
X109165765Y-55863428D01*
X109174030Y-55840329D01*
X109184520Y-55818150D01*
X109197132Y-55797107D01*
X109211747Y-55777401D01*
X109228223Y-55759223D01*
X109246401Y-55742747D01*
X109266107Y-55728132D01*
X109287150Y-55715520D01*
X109309329Y-55705030D01*
X109332428Y-55696765D01*
X109356227Y-55690804D01*
X109380495Y-55687204D01*
X109404999Y-55686000D01*
X110305001Y-55686000D01*
X110329505Y-55687204D01*
X110329505Y-55687204D01*
G37*
D11*
G04 #@! TD*
G04 #@! TO.P,C6,1*
G04 #@! TO.N,Net-(C6-Pad1)*
X109855000Y-56261000D03*
D10*
G04 #@! TO.N,GND*
G04 #@! TO.C,C6*
G36*
X110329505Y-57737204D02*
X110353773Y-57740804D01*
X110377572Y-57746765D01*
X110400671Y-57755030D01*
X110422850Y-57765520D01*
X110443893Y-57778132D01*
X110463599Y-57792747D01*
X110481777Y-57809223D01*
X110498253Y-57827401D01*
X110512868Y-57847107D01*
X110525480Y-57868150D01*
X110535970Y-57890329D01*
X110544235Y-57913428D01*
X110550196Y-57937227D01*
X110553796Y-57961495D01*
X110555000Y-57985999D01*
X110555000Y-58636001D01*
X110553796Y-58660505D01*
X110550196Y-58684773D01*
X110544235Y-58708572D01*
X110535970Y-58731671D01*
X110525480Y-58753850D01*
X110512868Y-58774893D01*
X110498253Y-58794599D01*
X110481777Y-58812777D01*
X110463599Y-58829253D01*
X110443893Y-58843868D01*
X110422850Y-58856480D01*
X110400671Y-58866970D01*
X110377572Y-58875235D01*
X110353773Y-58881196D01*
X110329505Y-58884796D01*
X110305001Y-58886000D01*
X109404999Y-58886000D01*
X109380495Y-58884796D01*
X109356227Y-58881196D01*
X109332428Y-58875235D01*
X109309329Y-58866970D01*
X109287150Y-58856480D01*
X109266107Y-58843868D01*
X109246401Y-58829253D01*
X109228223Y-58812777D01*
X109211747Y-58794599D01*
X109197132Y-58774893D01*
X109184520Y-58753850D01*
X109174030Y-58731671D01*
X109165765Y-58708572D01*
X109159804Y-58684773D01*
X109156204Y-58660505D01*
X109155000Y-58636001D01*
X109155000Y-57985999D01*
X109156204Y-57961495D01*
X109159804Y-57937227D01*
X109165765Y-57913428D01*
X109174030Y-57890329D01*
X109184520Y-57868150D01*
X109197132Y-57847107D01*
X109211747Y-57827401D01*
X109228223Y-57809223D01*
X109246401Y-57792747D01*
X109266107Y-57778132D01*
X109287150Y-57765520D01*
X109309329Y-57755030D01*
X109332428Y-57746765D01*
X109356227Y-57740804D01*
X109380495Y-57737204D01*
X109404999Y-57736000D01*
X110305001Y-57736000D01*
X110329505Y-57737204D01*
X110329505Y-57737204D01*
G37*
D11*
G04 #@! TD*
G04 #@! TO.P,C6,2*
G04 #@! TO.N,GND*
X109855000Y-58311000D03*
D10*
G04 #@! TO.N,GND*
G04 #@! TO.C,C7*
G36*
X164177505Y-57610204D02*
X164201773Y-57613804D01*
X164225572Y-57619765D01*
X164248671Y-57628030D01*
X164270850Y-57638520D01*
X164291893Y-57651132D01*
X164311599Y-57665747D01*
X164329777Y-57682223D01*
X164346253Y-57700401D01*
X164360868Y-57720107D01*
X164373480Y-57741150D01*
X164383970Y-57763329D01*
X164392235Y-57786428D01*
X164398196Y-57810227D01*
X164401796Y-57834495D01*
X164403000Y-57858999D01*
X164403000Y-58509001D01*
X164401796Y-58533505D01*
X164398196Y-58557773D01*
X164392235Y-58581572D01*
X164383970Y-58604671D01*
X164373480Y-58626850D01*
X164360868Y-58647893D01*
X164346253Y-58667599D01*
X164329777Y-58685777D01*
X164311599Y-58702253D01*
X164291893Y-58716868D01*
X164270850Y-58729480D01*
X164248671Y-58739970D01*
X164225572Y-58748235D01*
X164201773Y-58754196D01*
X164177505Y-58757796D01*
X164153001Y-58759000D01*
X163252999Y-58759000D01*
X163228495Y-58757796D01*
X163204227Y-58754196D01*
X163180428Y-58748235D01*
X163157329Y-58739970D01*
X163135150Y-58729480D01*
X163114107Y-58716868D01*
X163094401Y-58702253D01*
X163076223Y-58685777D01*
X163059747Y-58667599D01*
X163045132Y-58647893D01*
X163032520Y-58626850D01*
X163022030Y-58604671D01*
X163013765Y-58581572D01*
X163007804Y-58557773D01*
X163004204Y-58533505D01*
X163003000Y-58509001D01*
X163003000Y-57858999D01*
X163004204Y-57834495D01*
X163007804Y-57810227D01*
X163013765Y-57786428D01*
X163022030Y-57763329D01*
X163032520Y-57741150D01*
X163045132Y-57720107D01*
X163059747Y-57700401D01*
X163076223Y-57682223D01*
X163094401Y-57665747D01*
X163114107Y-57651132D01*
X163135150Y-57638520D01*
X163157329Y-57628030D01*
X163180428Y-57619765D01*
X163204227Y-57613804D01*
X163228495Y-57610204D01*
X163252999Y-57609000D01*
X164153001Y-57609000D01*
X164177505Y-57610204D01*
X164177505Y-57610204D01*
G37*
D11*
G04 #@! TD*
G04 #@! TO.P,C7,2*
G04 #@! TO.N,GND*
X163703000Y-58184000D03*
D10*
G04 #@! TO.N,Net-(C7-Pad1)*
G04 #@! TO.C,C7*
G36*
X164177505Y-55560204D02*
X164201773Y-55563804D01*
X164225572Y-55569765D01*
X164248671Y-55578030D01*
X164270850Y-55588520D01*
X164291893Y-55601132D01*
X164311599Y-55615747D01*
X164329777Y-55632223D01*
X164346253Y-55650401D01*
X164360868Y-55670107D01*
X164373480Y-55691150D01*
X164383970Y-55713329D01*
X164392235Y-55736428D01*
X164398196Y-55760227D01*
X164401796Y-55784495D01*
X164403000Y-55808999D01*
X164403000Y-56459001D01*
X164401796Y-56483505D01*
X164398196Y-56507773D01*
X164392235Y-56531572D01*
X164383970Y-56554671D01*
X164373480Y-56576850D01*
X164360868Y-56597893D01*
X164346253Y-56617599D01*
X164329777Y-56635777D01*
X164311599Y-56652253D01*
X164291893Y-56666868D01*
X164270850Y-56679480D01*
X164248671Y-56689970D01*
X164225572Y-56698235D01*
X164201773Y-56704196D01*
X164177505Y-56707796D01*
X164153001Y-56709000D01*
X163252999Y-56709000D01*
X163228495Y-56707796D01*
X163204227Y-56704196D01*
X163180428Y-56698235D01*
X163157329Y-56689970D01*
X163135150Y-56679480D01*
X163114107Y-56666868D01*
X163094401Y-56652253D01*
X163076223Y-56635777D01*
X163059747Y-56617599D01*
X163045132Y-56597893D01*
X163032520Y-56576850D01*
X163022030Y-56554671D01*
X163013765Y-56531572D01*
X163007804Y-56507773D01*
X163004204Y-56483505D01*
X163003000Y-56459001D01*
X163003000Y-55808999D01*
X163004204Y-55784495D01*
X163007804Y-55760227D01*
X163013765Y-55736428D01*
X163022030Y-55713329D01*
X163032520Y-55691150D01*
X163045132Y-55670107D01*
X163059747Y-55650401D01*
X163076223Y-55632223D01*
X163094401Y-55615747D01*
X163114107Y-55601132D01*
X163135150Y-55588520D01*
X163157329Y-55578030D01*
X163180428Y-55569765D01*
X163204227Y-55563804D01*
X163228495Y-55560204D01*
X163252999Y-55559000D01*
X164153001Y-55559000D01*
X164177505Y-55560204D01*
X164177505Y-55560204D01*
G37*
D11*
G04 #@! TD*
G04 #@! TO.P,C7,1*
G04 #@! TO.N,Net-(C7-Pad1)*
X163703000Y-56134000D03*
D10*
G04 #@! TO.N,Net-(C6-Pad1)*
G04 #@! TO.C,L4*
G36*
X112599505Y-55562204D02*
X112623773Y-55565804D01*
X112647572Y-55571765D01*
X112670671Y-55580030D01*
X112692850Y-55590520D01*
X112713893Y-55603132D01*
X112733599Y-55617747D01*
X112751777Y-55634223D01*
X112768253Y-55652401D01*
X112782868Y-55672107D01*
X112795480Y-55693150D01*
X112805970Y-55715329D01*
X112814235Y-55738428D01*
X112820196Y-55762227D01*
X112823796Y-55786495D01*
X112825000Y-55810999D01*
X112825000Y-56711001D01*
X112823796Y-56735505D01*
X112820196Y-56759773D01*
X112814235Y-56783572D01*
X112805970Y-56806671D01*
X112795480Y-56828850D01*
X112782868Y-56849893D01*
X112768253Y-56869599D01*
X112751777Y-56887777D01*
X112733599Y-56904253D01*
X112713893Y-56918868D01*
X112692850Y-56931480D01*
X112670671Y-56941970D01*
X112647572Y-56950235D01*
X112623773Y-56956196D01*
X112599505Y-56959796D01*
X112575001Y-56961000D01*
X111924999Y-56961000D01*
X111900495Y-56959796D01*
X111876227Y-56956196D01*
X111852428Y-56950235D01*
X111829329Y-56941970D01*
X111807150Y-56931480D01*
X111786107Y-56918868D01*
X111766401Y-56904253D01*
X111748223Y-56887777D01*
X111731747Y-56869599D01*
X111717132Y-56849893D01*
X111704520Y-56828850D01*
X111694030Y-56806671D01*
X111685765Y-56783572D01*
X111679804Y-56759773D01*
X111676204Y-56735505D01*
X111675000Y-56711001D01*
X111675000Y-55810999D01*
X111676204Y-55786495D01*
X111679804Y-55762227D01*
X111685765Y-55738428D01*
X111694030Y-55715329D01*
X111704520Y-55693150D01*
X111717132Y-55672107D01*
X111731747Y-55652401D01*
X111748223Y-55634223D01*
X111766401Y-55617747D01*
X111786107Y-55603132D01*
X111807150Y-55590520D01*
X111829329Y-55580030D01*
X111852428Y-55571765D01*
X111876227Y-55565804D01*
X111900495Y-55562204D01*
X111924999Y-55561000D01*
X112575001Y-55561000D01*
X112599505Y-55562204D01*
X112599505Y-55562204D01*
G37*
D11*
G04 #@! TD*
G04 #@! TO.P,L4,1*
G04 #@! TO.N,Net-(C6-Pad1)*
X112250000Y-56261000D03*
D10*
G04 #@! TO.N,Net-(C1-Pad1)*
G04 #@! TO.C,L4*
G36*
X114649505Y-55562204D02*
X114673773Y-55565804D01*
X114697572Y-55571765D01*
X114720671Y-55580030D01*
X114742850Y-55590520D01*
X114763893Y-55603132D01*
X114783599Y-55617747D01*
X114801777Y-55634223D01*
X114818253Y-55652401D01*
X114832868Y-55672107D01*
X114845480Y-55693150D01*
X114855970Y-55715329D01*
X114864235Y-55738428D01*
X114870196Y-55762227D01*
X114873796Y-55786495D01*
X114875000Y-55810999D01*
X114875000Y-56711001D01*
X114873796Y-56735505D01*
X114870196Y-56759773D01*
X114864235Y-56783572D01*
X114855970Y-56806671D01*
X114845480Y-56828850D01*
X114832868Y-56849893D01*
X114818253Y-56869599D01*
X114801777Y-56887777D01*
X114783599Y-56904253D01*
X114763893Y-56918868D01*
X114742850Y-56931480D01*
X114720671Y-56941970D01*
X114697572Y-56950235D01*
X114673773Y-56956196D01*
X114649505Y-56959796D01*
X114625001Y-56961000D01*
X113974999Y-56961000D01*
X113950495Y-56959796D01*
X113926227Y-56956196D01*
X113902428Y-56950235D01*
X113879329Y-56941970D01*
X113857150Y-56931480D01*
X113836107Y-56918868D01*
X113816401Y-56904253D01*
X113798223Y-56887777D01*
X113781747Y-56869599D01*
X113767132Y-56849893D01*
X113754520Y-56828850D01*
X113744030Y-56806671D01*
X113735765Y-56783572D01*
X113729804Y-56759773D01*
X113726204Y-56735505D01*
X113725000Y-56711001D01*
X113725000Y-55810999D01*
X113726204Y-55786495D01*
X113729804Y-55762227D01*
X113735765Y-55738428D01*
X113744030Y-55715329D01*
X113754520Y-55693150D01*
X113767132Y-55672107D01*
X113781747Y-55652401D01*
X113798223Y-55634223D01*
X113816401Y-55617747D01*
X113836107Y-55603132D01*
X113857150Y-55590520D01*
X113879329Y-55580030D01*
X113902428Y-55571765D01*
X113926227Y-55565804D01*
X113950495Y-55562204D01*
X113974999Y-55561000D01*
X114625001Y-55561000D01*
X114649505Y-55562204D01*
X114649505Y-55562204D01*
G37*
D11*
G04 #@! TD*
G04 #@! TO.P,L4,2*
G04 #@! TO.N,Net-(C1-Pad1)*
X114300000Y-56261000D03*
D10*
G04 #@! TO.N,Net-(C7-Pad1)*
G04 #@! TO.C,L5*
G36*
X161131505Y-55435204D02*
X161155773Y-55438804D01*
X161179572Y-55444765D01*
X161202671Y-55453030D01*
X161224850Y-55463520D01*
X161245893Y-55476132D01*
X161265599Y-55490747D01*
X161283777Y-55507223D01*
X161300253Y-55525401D01*
X161314868Y-55545107D01*
X161327480Y-55566150D01*
X161337970Y-55588329D01*
X161346235Y-55611428D01*
X161352196Y-55635227D01*
X161355796Y-55659495D01*
X161357000Y-55683999D01*
X161357000Y-56584001D01*
X161355796Y-56608505D01*
X161352196Y-56632773D01*
X161346235Y-56656572D01*
X161337970Y-56679671D01*
X161327480Y-56701850D01*
X161314868Y-56722893D01*
X161300253Y-56742599D01*
X161283777Y-56760777D01*
X161265599Y-56777253D01*
X161245893Y-56791868D01*
X161224850Y-56804480D01*
X161202671Y-56814970D01*
X161179572Y-56823235D01*
X161155773Y-56829196D01*
X161131505Y-56832796D01*
X161107001Y-56834000D01*
X160456999Y-56834000D01*
X160432495Y-56832796D01*
X160408227Y-56829196D01*
X160384428Y-56823235D01*
X160361329Y-56814970D01*
X160339150Y-56804480D01*
X160318107Y-56791868D01*
X160298401Y-56777253D01*
X160280223Y-56760777D01*
X160263747Y-56742599D01*
X160249132Y-56722893D01*
X160236520Y-56701850D01*
X160226030Y-56679671D01*
X160217765Y-56656572D01*
X160211804Y-56632773D01*
X160208204Y-56608505D01*
X160207000Y-56584001D01*
X160207000Y-55683999D01*
X160208204Y-55659495D01*
X160211804Y-55635227D01*
X160217765Y-55611428D01*
X160226030Y-55588329D01*
X160236520Y-55566150D01*
X160249132Y-55545107D01*
X160263747Y-55525401D01*
X160280223Y-55507223D01*
X160298401Y-55490747D01*
X160318107Y-55476132D01*
X160339150Y-55463520D01*
X160361329Y-55453030D01*
X160384428Y-55444765D01*
X160408227Y-55438804D01*
X160432495Y-55435204D01*
X160456999Y-55434000D01*
X161107001Y-55434000D01*
X161131505Y-55435204D01*
X161131505Y-55435204D01*
G37*
D11*
G04 #@! TD*
G04 #@! TO.P,L5,2*
G04 #@! TO.N,Net-(C7-Pad1)*
X160782000Y-56134000D03*
D10*
G04 #@! TO.N,Net-(C4-Pad2)*
G04 #@! TO.C,L5*
G36*
X159081505Y-55435204D02*
X159105773Y-55438804D01*
X159129572Y-55444765D01*
X159152671Y-55453030D01*
X159174850Y-55463520D01*
X159195893Y-55476132D01*
X159215599Y-55490747D01*
X159233777Y-55507223D01*
X159250253Y-55525401D01*
X159264868Y-55545107D01*
X159277480Y-55566150D01*
X159287970Y-55588329D01*
X159296235Y-55611428D01*
X159302196Y-55635227D01*
X159305796Y-55659495D01*
X159307000Y-55683999D01*
X159307000Y-56584001D01*
X159305796Y-56608505D01*
X159302196Y-56632773D01*
X159296235Y-56656572D01*
X159287970Y-56679671D01*
X159277480Y-56701850D01*
X159264868Y-56722893D01*
X159250253Y-56742599D01*
X159233777Y-56760777D01*
X159215599Y-56777253D01*
X159195893Y-56791868D01*
X159174850Y-56804480D01*
X159152671Y-56814970D01*
X159129572Y-56823235D01*
X159105773Y-56829196D01*
X159081505Y-56832796D01*
X159057001Y-56834000D01*
X158406999Y-56834000D01*
X158382495Y-56832796D01*
X158358227Y-56829196D01*
X158334428Y-56823235D01*
X158311329Y-56814970D01*
X158289150Y-56804480D01*
X158268107Y-56791868D01*
X158248401Y-56777253D01*
X158230223Y-56760777D01*
X158213747Y-56742599D01*
X158199132Y-56722893D01*
X158186520Y-56701850D01*
X158176030Y-56679671D01*
X158167765Y-56656572D01*
X158161804Y-56632773D01*
X158158204Y-56608505D01*
X158157000Y-56584001D01*
X158157000Y-55683999D01*
X158158204Y-55659495D01*
X158161804Y-55635227D01*
X158167765Y-55611428D01*
X158176030Y-55588329D01*
X158186520Y-55566150D01*
X158199132Y-55545107D01*
X158213747Y-55525401D01*
X158230223Y-55507223D01*
X158248401Y-55490747D01*
X158268107Y-55476132D01*
X158289150Y-55463520D01*
X158311329Y-55453030D01*
X158334428Y-55444765D01*
X158358227Y-55438804D01*
X158382495Y-55435204D01*
X158406999Y-55434000D01*
X159057001Y-55434000D01*
X159081505Y-55435204D01*
X159081505Y-55435204D01*
G37*
D11*
G04 #@! TD*
G04 #@! TO.P,L5,1*
G04 #@! TO.N,Net-(C4-Pad2)*
X158732000Y-56134000D03*
D14*
G04 #@! TO.N,Net-(C1-Pad1)*
X129032000Y-56261000D02*
X129159000Y-56134000D01*
D15*
X114300000Y-56261000D02*
X129032000Y-56261000D01*
G04 #@! TO.N,Net-(C3-Pad1)*
X135094472Y-56134000D02*
X138031000Y-56134000D01*
G04 #@! TO.N,Net-(C4-Pad2)*
X140081000Y-56134000D02*
X158877000Y-56134000D01*
G04 #@! TO.N,Net-(C6-Pad1)*
X104394000Y-56261000D02*
X112250000Y-56261000D01*
G04 #@! TO.N,Net-(C7-Pad1)*
X160782000Y-56134000D02*
X169418000Y-56134000D01*
G04 #@! TD*
D16*
G04 #@! TO.N,GND*
G36*
X171552000Y-50499000D02*
X169703750Y-50499000D01*
X169545000Y-50657750D01*
X169545000Y-51757000D01*
X169565000Y-51757000D01*
X169565000Y-52011000D01*
X169545000Y-52011000D01*
X169545000Y-53110250D01*
X169703750Y-53269000D01*
X171552000Y-53269000D01*
X171552000Y-54736560D01*
X166878000Y-54736560D01*
X166630235Y-54785843D01*
X166420191Y-54926191D01*
X166292027Y-55118000D01*
X164703157Y-55118000D01*
X164496436Y-54979873D01*
X164153001Y-54911560D01*
X163252999Y-54911560D01*
X162909564Y-54979873D01*
X162702843Y-55118000D01*
X161787414Y-55118000D01*
X161741586Y-55049414D01*
X161450436Y-54854873D01*
X161107001Y-54786560D01*
X160456999Y-54786560D01*
X160113564Y-54854873D01*
X159822414Y-55049414D01*
X159757000Y-55147313D01*
X159691586Y-55049414D01*
X159400436Y-54854873D01*
X159057001Y-54786560D01*
X158406999Y-54786560D01*
X158063564Y-54854873D01*
X157772414Y-55049414D01*
X157726586Y-55118000D01*
X154810626Y-55118000D01*
X154590436Y-54970873D01*
X154247001Y-54902560D01*
X153346999Y-54902560D01*
X153003564Y-54970873D01*
X152783374Y-55118000D01*
X151776096Y-55118000D01*
X151542436Y-54961873D01*
X151199001Y-54893560D01*
X150298999Y-54893560D01*
X149955564Y-54961873D01*
X149721904Y-55118000D01*
X148474096Y-55118000D01*
X148240436Y-54961873D01*
X147897001Y-54893560D01*
X146996999Y-54893560D01*
X146653564Y-54961873D01*
X146419904Y-55118000D01*
X141086414Y-55118000D01*
X141040586Y-55049414D01*
X140749436Y-54854873D01*
X140406001Y-54786560D01*
X139755999Y-54786560D01*
X139412564Y-54854873D01*
X139121414Y-55049414D01*
X139056000Y-55147313D01*
X138990586Y-55049414D01*
X138699436Y-54854873D01*
X138356001Y-54786560D01*
X137705999Y-54786560D01*
X137362564Y-54854873D01*
X137071414Y-55049414D01*
X137025586Y-55118000D01*
X136605650Y-55118000D01*
X136581629Y-54997235D01*
X136441281Y-54787191D01*
X136231237Y-54646843D01*
X135983472Y-54597560D01*
X134205472Y-54597560D01*
X133957707Y-54646843D01*
X133747663Y-54787191D01*
X133607315Y-54997235D01*
X133558032Y-55245000D01*
X133558032Y-57023000D01*
X133607315Y-57270765D01*
X133747663Y-57480809D01*
X133957707Y-57621157D01*
X134205472Y-57670440D01*
X135983472Y-57670440D01*
X136231237Y-57621157D01*
X136441281Y-57480809D01*
X136581629Y-57270765D01*
X136605650Y-57150000D01*
X137025586Y-57150000D01*
X137071414Y-57218586D01*
X137362564Y-57413127D01*
X137705999Y-57481440D01*
X138356001Y-57481440D01*
X138699436Y-57413127D01*
X138990586Y-57218586D01*
X139056000Y-57120687D01*
X139121414Y-57218586D01*
X139412564Y-57413127D01*
X139755999Y-57481440D01*
X140406001Y-57481440D01*
X140749436Y-57413127D01*
X141040586Y-57218586D01*
X141086414Y-57150000D01*
X146289975Y-57150000D01*
X146208673Y-57231302D01*
X146112000Y-57464691D01*
X146112000Y-57880250D01*
X146270750Y-58039000D01*
X147320000Y-58039000D01*
X147320000Y-58019000D01*
X147574000Y-58019000D01*
X147574000Y-58039000D01*
X148623250Y-58039000D01*
X148782000Y-57880250D01*
X148782000Y-57464691D01*
X148685327Y-57231302D01*
X148604025Y-57150000D01*
X149591975Y-57150000D01*
X149510673Y-57231302D01*
X149414000Y-57464691D01*
X149414000Y-57880250D01*
X149572750Y-58039000D01*
X150622000Y-58039000D01*
X150622000Y-58019000D01*
X150876000Y-58019000D01*
X150876000Y-58039000D01*
X151925250Y-58039000D01*
X152084000Y-57880250D01*
X152084000Y-57464691D01*
X151987327Y-57231302D01*
X151906025Y-57150000D01*
X152648974Y-57150000D01*
X152558673Y-57240302D01*
X152462000Y-57473691D01*
X152462000Y-57889250D01*
X152620750Y-58048000D01*
X153670000Y-58048000D01*
X153670000Y-58028000D01*
X153924000Y-58028000D01*
X153924000Y-58048000D01*
X154973250Y-58048000D01*
X155132000Y-57889250D01*
X155132000Y-57473691D01*
X155035327Y-57240302D01*
X154945026Y-57150000D01*
X157726586Y-57150000D01*
X157772414Y-57218586D01*
X158063564Y-57413127D01*
X158406999Y-57481440D01*
X159057001Y-57481440D01*
X159400436Y-57413127D01*
X159691586Y-57218586D01*
X159757000Y-57120687D01*
X159822414Y-57218586D01*
X160113564Y-57413127D01*
X160456999Y-57481440D01*
X161107001Y-57481440D01*
X161450436Y-57413127D01*
X161741586Y-57218586D01*
X161787414Y-57150000D01*
X162563974Y-57150000D01*
X162464673Y-57249302D01*
X162368000Y-57482691D01*
X162368000Y-57898250D01*
X162526750Y-58057000D01*
X163576000Y-58057000D01*
X163576000Y-58037000D01*
X163830000Y-58037000D01*
X163830000Y-58057000D01*
X164879250Y-58057000D01*
X165038000Y-57898250D01*
X165038000Y-57482691D01*
X164941327Y-57249302D01*
X164842026Y-57150000D01*
X166292027Y-57150000D01*
X166420191Y-57341809D01*
X166630235Y-57482157D01*
X166878000Y-57531440D01*
X171552001Y-57531440D01*
X171552001Y-58999000D01*
X169703750Y-58999000D01*
X169545000Y-59157750D01*
X169545000Y-60257000D01*
X169565000Y-60257000D01*
X169565000Y-60511000D01*
X169545000Y-60511000D01*
X169545000Y-61610250D01*
X169703750Y-61769000D01*
X171552001Y-61769000D01*
X171552001Y-62959097D01*
X161612891Y-62840773D01*
X161609003Y-62840000D01*
X161547927Y-62840000D01*
X161486859Y-62839273D01*
X161482962Y-62840000D01*
X102260000Y-62840000D01*
X102260000Y-61896000D01*
X104108250Y-61896000D01*
X104267000Y-61737250D01*
X104267000Y-60638000D01*
X104521000Y-60638000D01*
X104521000Y-61737250D01*
X104679750Y-61896000D01*
X107060310Y-61896000D01*
X107293699Y-61799327D01*
X107472327Y-61620698D01*
X107569000Y-61387309D01*
X107569000Y-60796750D01*
X107442000Y-60669750D01*
X166243000Y-60669750D01*
X166243000Y-61260309D01*
X166339673Y-61493698D01*
X166518301Y-61672327D01*
X166751690Y-61769000D01*
X169132250Y-61769000D01*
X169291000Y-61610250D01*
X169291000Y-60511000D01*
X166401750Y-60511000D01*
X166243000Y-60669750D01*
X107442000Y-60669750D01*
X107410250Y-60638000D01*
X104521000Y-60638000D01*
X104267000Y-60638000D01*
X104247000Y-60638000D01*
X104247000Y-60384000D01*
X104267000Y-60384000D01*
X104267000Y-59284750D01*
X104521000Y-59284750D01*
X104521000Y-60384000D01*
X107410250Y-60384000D01*
X107569000Y-60225250D01*
X107569000Y-59634691D01*
X107472327Y-59401302D01*
X107293699Y-59222673D01*
X107060310Y-59126000D01*
X104679750Y-59126000D01*
X104521000Y-59284750D01*
X104267000Y-59284750D01*
X104108250Y-59126000D01*
X102260000Y-59126000D01*
X102260000Y-58596750D01*
X108520000Y-58596750D01*
X108520000Y-59012309D01*
X108616673Y-59245698D01*
X108795301Y-59424327D01*
X109028690Y-59521000D01*
X109569250Y-59521000D01*
X109728000Y-59362250D01*
X109728000Y-58438000D01*
X109982000Y-58438000D01*
X109982000Y-59362250D01*
X110140750Y-59521000D01*
X110681310Y-59521000D01*
X110914699Y-59424327D01*
X111093327Y-59245698D01*
X111190000Y-59012309D01*
X111190000Y-58596750D01*
X111181000Y-58587750D01*
X116766000Y-58587750D01*
X116766000Y-59003309D01*
X116862673Y-59236698D01*
X117041301Y-59415327D01*
X117274690Y-59512000D01*
X117815250Y-59512000D01*
X117974000Y-59353250D01*
X117974000Y-58429000D01*
X118228000Y-58429000D01*
X118228000Y-59353250D01*
X118386750Y-59512000D01*
X118927310Y-59512000D01*
X119160699Y-59415327D01*
X119339327Y-59236698D01*
X119436000Y-59003309D01*
X119436000Y-58587750D01*
X119442000Y-58587750D01*
X119442000Y-59003309D01*
X119538673Y-59236698D01*
X119717301Y-59415327D01*
X119950690Y-59512000D01*
X120491250Y-59512000D01*
X120650000Y-59353250D01*
X120650000Y-58429000D01*
X120904000Y-58429000D01*
X120904000Y-59353250D01*
X121062750Y-59512000D01*
X121603310Y-59512000D01*
X121836699Y-59415327D01*
X122015327Y-59236698D01*
X122112000Y-59003309D01*
X122112000Y-58587750D01*
X122236000Y-58587750D01*
X122236000Y-59003309D01*
X122332673Y-59236698D01*
X122511301Y-59415327D01*
X122744690Y-59512000D01*
X123285250Y-59512000D01*
X123444000Y-59353250D01*
X123444000Y-58429000D01*
X123698000Y-58429000D01*
X123698000Y-59353250D01*
X123856750Y-59512000D01*
X124397310Y-59512000D01*
X124407712Y-59507691D01*
X166243000Y-59507691D01*
X166243000Y-60098250D01*
X166401750Y-60257000D01*
X169291000Y-60257000D01*
X169291000Y-59157750D01*
X169132250Y-58999000D01*
X166751690Y-58999000D01*
X166518301Y-59095673D01*
X166339673Y-59274302D01*
X166243000Y-59507691D01*
X124407712Y-59507691D01*
X124630699Y-59415327D01*
X124809327Y-59236698D01*
X124906000Y-59003309D01*
X124906000Y-58587750D01*
X124770000Y-58451750D01*
X146112000Y-58451750D01*
X146112000Y-58867309D01*
X146208673Y-59100698D01*
X146387301Y-59279327D01*
X146620690Y-59376000D01*
X147161250Y-59376000D01*
X147320000Y-59217250D01*
X147320000Y-58293000D01*
X147574000Y-58293000D01*
X147574000Y-59217250D01*
X147732750Y-59376000D01*
X148273310Y-59376000D01*
X148506699Y-59279327D01*
X148685327Y-59100698D01*
X148782000Y-58867309D01*
X148782000Y-58451750D01*
X149414000Y-58451750D01*
X149414000Y-58867309D01*
X149510673Y-59100698D01*
X149689301Y-59279327D01*
X149922690Y-59376000D01*
X150463250Y-59376000D01*
X150622000Y-59217250D01*
X150622000Y-58293000D01*
X150876000Y-58293000D01*
X150876000Y-59217250D01*
X151034750Y-59376000D01*
X151575310Y-59376000D01*
X151808699Y-59279327D01*
X151987327Y-59100698D01*
X152084000Y-58867309D01*
X152084000Y-58460750D01*
X152462000Y-58460750D01*
X152462000Y-58876309D01*
X152558673Y-59109698D01*
X152737301Y-59288327D01*
X152970690Y-59385000D01*
X153511250Y-59385000D01*
X153670000Y-59226250D01*
X153670000Y-58302000D01*
X153924000Y-58302000D01*
X153924000Y-59226250D01*
X154082750Y-59385000D01*
X154623310Y-59385000D01*
X154856699Y-59288327D01*
X155035327Y-59109698D01*
X155132000Y-58876309D01*
X155132000Y-58469750D01*
X162368000Y-58469750D01*
X162368000Y-58885309D01*
X162464673Y-59118698D01*
X162643301Y-59297327D01*
X162876690Y-59394000D01*
X163417250Y-59394000D01*
X163576000Y-59235250D01*
X163576000Y-58311000D01*
X163830000Y-58311000D01*
X163830000Y-59235250D01*
X163988750Y-59394000D01*
X164529310Y-59394000D01*
X164762699Y-59297327D01*
X164941327Y-59118698D01*
X165038000Y-58885309D01*
X165038000Y-58469750D01*
X164879250Y-58311000D01*
X163830000Y-58311000D01*
X163576000Y-58311000D01*
X162526750Y-58311000D01*
X162368000Y-58469750D01*
X155132000Y-58469750D01*
X155132000Y-58460750D01*
X154973250Y-58302000D01*
X153924000Y-58302000D01*
X153670000Y-58302000D01*
X152620750Y-58302000D01*
X152462000Y-58460750D01*
X152084000Y-58460750D01*
X152084000Y-58451750D01*
X151925250Y-58293000D01*
X150876000Y-58293000D01*
X150622000Y-58293000D01*
X149572750Y-58293000D01*
X149414000Y-58451750D01*
X148782000Y-58451750D01*
X148623250Y-58293000D01*
X147574000Y-58293000D01*
X147320000Y-58293000D01*
X146270750Y-58293000D01*
X146112000Y-58451750D01*
X124770000Y-58451750D01*
X124747250Y-58429000D01*
X123698000Y-58429000D01*
X123444000Y-58429000D01*
X122394750Y-58429000D01*
X122236000Y-58587750D01*
X122112000Y-58587750D01*
X121953250Y-58429000D01*
X120904000Y-58429000D01*
X120650000Y-58429000D01*
X119600750Y-58429000D01*
X119442000Y-58587750D01*
X119436000Y-58587750D01*
X119277250Y-58429000D01*
X118228000Y-58429000D01*
X117974000Y-58429000D01*
X116924750Y-58429000D01*
X116766000Y-58587750D01*
X111181000Y-58587750D01*
X111031250Y-58438000D01*
X109982000Y-58438000D01*
X109728000Y-58438000D01*
X108678750Y-58438000D01*
X108520000Y-58596750D01*
X102260000Y-58596750D01*
X102260000Y-57658440D01*
X106934000Y-57658440D01*
X107181765Y-57609157D01*
X107391809Y-57468809D01*
X107519973Y-57277000D01*
X108715974Y-57277000D01*
X108616673Y-57376302D01*
X108520000Y-57609691D01*
X108520000Y-58025250D01*
X108678750Y-58184000D01*
X109728000Y-58184000D01*
X109728000Y-58164000D01*
X109982000Y-58164000D01*
X109982000Y-58184000D01*
X111031250Y-58184000D01*
X111190000Y-58025250D01*
X111190000Y-57609691D01*
X111093327Y-57376302D01*
X110994026Y-57277000D01*
X111244586Y-57277000D01*
X111290414Y-57345586D01*
X111581564Y-57540127D01*
X111924999Y-57608440D01*
X112575001Y-57608440D01*
X112918436Y-57540127D01*
X113209586Y-57345586D01*
X113275000Y-57247687D01*
X113340414Y-57345586D01*
X113631564Y-57540127D01*
X113974999Y-57608440D01*
X114625001Y-57608440D01*
X114968436Y-57540127D01*
X115259586Y-57345586D01*
X115305414Y-57277000D01*
X116952974Y-57277000D01*
X116862673Y-57367302D01*
X116766000Y-57600691D01*
X116766000Y-58016250D01*
X116924750Y-58175000D01*
X117974000Y-58175000D01*
X117974000Y-58155000D01*
X118228000Y-58155000D01*
X118228000Y-58175000D01*
X119277250Y-58175000D01*
X119436000Y-58016250D01*
X119436000Y-57600691D01*
X119339327Y-57367302D01*
X119249026Y-57277000D01*
X119628974Y-57277000D01*
X119538673Y-57367302D01*
X119442000Y-57600691D01*
X119442000Y-58016250D01*
X119600750Y-58175000D01*
X120650000Y-58175000D01*
X120650000Y-58155000D01*
X120904000Y-58155000D01*
X120904000Y-58175000D01*
X121953250Y-58175000D01*
X122112000Y-58016250D01*
X122112000Y-57600691D01*
X122015327Y-57367302D01*
X121925026Y-57277000D01*
X122422974Y-57277000D01*
X122332673Y-57367302D01*
X122236000Y-57600691D01*
X122236000Y-58016250D01*
X122394750Y-58175000D01*
X123444000Y-58175000D01*
X123444000Y-58155000D01*
X123698000Y-58155000D01*
X123698000Y-58175000D01*
X124747250Y-58175000D01*
X124906000Y-58016250D01*
X124906000Y-57600691D01*
X124809327Y-57367302D01*
X124719026Y-57277000D01*
X127676009Y-57277000D01*
X127812191Y-57480809D01*
X128022235Y-57621157D01*
X128270000Y-57670440D01*
X130048000Y-57670440D01*
X130295765Y-57621157D01*
X130505809Y-57480809D01*
X130646157Y-57270765D01*
X130695440Y-57023000D01*
X130695440Y-55245000D01*
X130646157Y-54997235D01*
X130505809Y-54787191D01*
X130295765Y-54646843D01*
X130048000Y-54597560D01*
X128270000Y-54597560D01*
X128022235Y-54646843D01*
X127812191Y-54787191D01*
X127671843Y-54997235D01*
X127622560Y-55245000D01*
X124584626Y-55245000D01*
X124364436Y-55097873D01*
X124021001Y-55029560D01*
X123120999Y-55029560D01*
X122777564Y-55097873D01*
X122557374Y-55245000D01*
X121790626Y-55245000D01*
X121570436Y-55097873D01*
X121227001Y-55029560D01*
X120326999Y-55029560D01*
X119983564Y-55097873D01*
X119763374Y-55245000D01*
X119114626Y-55245000D01*
X118894436Y-55097873D01*
X118551001Y-55029560D01*
X117650999Y-55029560D01*
X117307564Y-55097873D01*
X117087374Y-55245000D01*
X115305414Y-55245000D01*
X115259586Y-55176414D01*
X114968436Y-54981873D01*
X114625001Y-54913560D01*
X113974999Y-54913560D01*
X113631564Y-54981873D01*
X113340414Y-55176414D01*
X113275000Y-55274313D01*
X113209586Y-55176414D01*
X112918436Y-54981873D01*
X112575001Y-54913560D01*
X111924999Y-54913560D01*
X111581564Y-54981873D01*
X111290414Y-55176414D01*
X111244586Y-55245000D01*
X110855157Y-55245000D01*
X110648436Y-55106873D01*
X110305001Y-55038560D01*
X109404999Y-55038560D01*
X109061564Y-55106873D01*
X108854843Y-55245000D01*
X107519973Y-55245000D01*
X107391809Y-55053191D01*
X107181765Y-54912843D01*
X106934000Y-54863560D01*
X102260000Y-54863560D01*
X102260000Y-53396000D01*
X104108250Y-53396000D01*
X104267000Y-53237250D01*
X104267000Y-52138000D01*
X104521000Y-52138000D01*
X104521000Y-53237250D01*
X104679750Y-53396000D01*
X107060310Y-53396000D01*
X107293699Y-53299327D01*
X107472327Y-53120698D01*
X107569000Y-52887309D01*
X107569000Y-52296750D01*
X107442000Y-52169750D01*
X166243000Y-52169750D01*
X166243000Y-52760309D01*
X166339673Y-52993698D01*
X166518301Y-53172327D01*
X166751690Y-53269000D01*
X169132250Y-53269000D01*
X169291000Y-53110250D01*
X169291000Y-52011000D01*
X166401750Y-52011000D01*
X166243000Y-52169750D01*
X107442000Y-52169750D01*
X107410250Y-52138000D01*
X104521000Y-52138000D01*
X104267000Y-52138000D01*
X104247000Y-52138000D01*
X104247000Y-51884000D01*
X104267000Y-51884000D01*
X104267000Y-50784750D01*
X104521000Y-50784750D01*
X104521000Y-51884000D01*
X107410250Y-51884000D01*
X107569000Y-51725250D01*
X107569000Y-51134691D01*
X107516395Y-51007691D01*
X166243000Y-51007691D01*
X166243000Y-51598250D01*
X166401750Y-51757000D01*
X169291000Y-51757000D01*
X169291000Y-50657750D01*
X169132250Y-50499000D01*
X166751690Y-50499000D01*
X166518301Y-50595673D01*
X166339673Y-50774302D01*
X166243000Y-51007691D01*
X107516395Y-51007691D01*
X107472327Y-50901302D01*
X107293699Y-50722673D01*
X107060310Y-50626000D01*
X104679750Y-50626000D01*
X104521000Y-50784750D01*
X104267000Y-50784750D01*
X104108250Y-50626000D01*
X102260000Y-50626000D01*
X102260000Y-47650000D01*
X110044822Y-47650000D01*
X110045627Y-47650158D01*
X110109617Y-47650000D01*
X110174003Y-47650000D01*
X110174812Y-47649839D01*
X161544617Y-47523000D01*
X171552000Y-47523000D01*
X171552000Y-50499000D01*
X171552000Y-50499000D01*
G37*
X171552000Y-50499000D02*
X169703750Y-50499000D01*
X169545000Y-50657750D01*
X169545000Y-51757000D01*
X169565000Y-51757000D01*
X169565000Y-52011000D01*
X169545000Y-52011000D01*
X169545000Y-53110250D01*
X169703750Y-53269000D01*
X171552000Y-53269000D01*
X171552000Y-54736560D01*
X166878000Y-54736560D01*
X166630235Y-54785843D01*
X166420191Y-54926191D01*
X166292027Y-55118000D01*
X164703157Y-55118000D01*
X164496436Y-54979873D01*
X164153001Y-54911560D01*
X163252999Y-54911560D01*
X162909564Y-54979873D01*
X162702843Y-55118000D01*
X161787414Y-55118000D01*
X161741586Y-55049414D01*
X161450436Y-54854873D01*
X161107001Y-54786560D01*
X160456999Y-54786560D01*
X160113564Y-54854873D01*
X159822414Y-55049414D01*
X159757000Y-55147313D01*
X159691586Y-55049414D01*
X159400436Y-54854873D01*
X159057001Y-54786560D01*
X158406999Y-54786560D01*
X158063564Y-54854873D01*
X157772414Y-55049414D01*
X157726586Y-55118000D01*
X154810626Y-55118000D01*
X154590436Y-54970873D01*
X154247001Y-54902560D01*
X153346999Y-54902560D01*
X153003564Y-54970873D01*
X152783374Y-55118000D01*
X151776096Y-55118000D01*
X151542436Y-54961873D01*
X151199001Y-54893560D01*
X150298999Y-54893560D01*
X149955564Y-54961873D01*
X149721904Y-55118000D01*
X148474096Y-55118000D01*
X148240436Y-54961873D01*
X147897001Y-54893560D01*
X146996999Y-54893560D01*
X146653564Y-54961873D01*
X146419904Y-55118000D01*
X141086414Y-55118000D01*
X141040586Y-55049414D01*
X140749436Y-54854873D01*
X140406001Y-54786560D01*
X139755999Y-54786560D01*
X139412564Y-54854873D01*
X139121414Y-55049414D01*
X139056000Y-55147313D01*
X138990586Y-55049414D01*
X138699436Y-54854873D01*
X138356001Y-54786560D01*
X137705999Y-54786560D01*
X137362564Y-54854873D01*
X137071414Y-55049414D01*
X137025586Y-55118000D01*
X136605650Y-55118000D01*
X136581629Y-54997235D01*
X136441281Y-54787191D01*
X136231237Y-54646843D01*
X135983472Y-54597560D01*
X134205472Y-54597560D01*
X133957707Y-54646843D01*
X133747663Y-54787191D01*
X133607315Y-54997235D01*
X133558032Y-55245000D01*
X133558032Y-57023000D01*
X133607315Y-57270765D01*
X133747663Y-57480809D01*
X133957707Y-57621157D01*
X134205472Y-57670440D01*
X135983472Y-57670440D01*
X136231237Y-57621157D01*
X136441281Y-57480809D01*
X136581629Y-57270765D01*
X136605650Y-57150000D01*
X137025586Y-57150000D01*
X137071414Y-57218586D01*
X137362564Y-57413127D01*
X137705999Y-57481440D01*
X138356001Y-57481440D01*
X138699436Y-57413127D01*
X138990586Y-57218586D01*
X139056000Y-57120687D01*
X139121414Y-57218586D01*
X139412564Y-57413127D01*
X139755999Y-57481440D01*
X140406001Y-57481440D01*
X140749436Y-57413127D01*
X141040586Y-57218586D01*
X141086414Y-57150000D01*
X146289975Y-57150000D01*
X146208673Y-57231302D01*
X146112000Y-57464691D01*
X146112000Y-57880250D01*
X146270750Y-58039000D01*
X147320000Y-58039000D01*
X147320000Y-58019000D01*
X147574000Y-58019000D01*
X147574000Y-58039000D01*
X148623250Y-58039000D01*
X148782000Y-57880250D01*
X148782000Y-57464691D01*
X148685327Y-57231302D01*
X148604025Y-57150000D01*
X149591975Y-57150000D01*
X149510673Y-57231302D01*
X149414000Y-57464691D01*
X149414000Y-57880250D01*
X149572750Y-58039000D01*
X150622000Y-58039000D01*
X150622000Y-58019000D01*
X150876000Y-58019000D01*
X150876000Y-58039000D01*
X151925250Y-58039000D01*
X152084000Y-57880250D01*
X152084000Y-57464691D01*
X151987327Y-57231302D01*
X151906025Y-57150000D01*
X152648974Y-57150000D01*
X152558673Y-57240302D01*
X152462000Y-57473691D01*
X152462000Y-57889250D01*
X152620750Y-58048000D01*
X153670000Y-58048000D01*
X153670000Y-58028000D01*
X153924000Y-58028000D01*
X153924000Y-58048000D01*
X154973250Y-58048000D01*
X155132000Y-57889250D01*
X155132000Y-57473691D01*
X155035327Y-57240302D01*
X154945026Y-57150000D01*
X157726586Y-57150000D01*
X157772414Y-57218586D01*
X158063564Y-57413127D01*
X158406999Y-57481440D01*
X159057001Y-57481440D01*
X159400436Y-57413127D01*
X159691586Y-57218586D01*
X159757000Y-57120687D01*
X159822414Y-57218586D01*
X160113564Y-57413127D01*
X160456999Y-57481440D01*
X161107001Y-57481440D01*
X161450436Y-57413127D01*
X161741586Y-57218586D01*
X161787414Y-57150000D01*
X162563974Y-57150000D01*
X162464673Y-57249302D01*
X162368000Y-57482691D01*
X162368000Y-57898250D01*
X162526750Y-58057000D01*
X163576000Y-58057000D01*
X163576000Y-58037000D01*
X163830000Y-58037000D01*
X163830000Y-58057000D01*
X164879250Y-58057000D01*
X165038000Y-57898250D01*
X165038000Y-57482691D01*
X164941327Y-57249302D01*
X164842026Y-57150000D01*
X166292027Y-57150000D01*
X166420191Y-57341809D01*
X166630235Y-57482157D01*
X166878000Y-57531440D01*
X171552001Y-57531440D01*
X171552001Y-58999000D01*
X169703750Y-58999000D01*
X169545000Y-59157750D01*
X169545000Y-60257000D01*
X169565000Y-60257000D01*
X169565000Y-60511000D01*
X169545000Y-60511000D01*
X169545000Y-61610250D01*
X169703750Y-61769000D01*
X171552001Y-61769000D01*
X171552001Y-62959097D01*
X161612891Y-62840773D01*
X161609003Y-62840000D01*
X161547927Y-62840000D01*
X161486859Y-62839273D01*
X161482962Y-62840000D01*
X102260000Y-62840000D01*
X102260000Y-61896000D01*
X104108250Y-61896000D01*
X104267000Y-61737250D01*
X104267000Y-60638000D01*
X104521000Y-60638000D01*
X104521000Y-61737250D01*
X104679750Y-61896000D01*
X107060310Y-61896000D01*
X107293699Y-61799327D01*
X107472327Y-61620698D01*
X107569000Y-61387309D01*
X107569000Y-60796750D01*
X107442000Y-60669750D01*
X166243000Y-60669750D01*
X166243000Y-61260309D01*
X166339673Y-61493698D01*
X166518301Y-61672327D01*
X166751690Y-61769000D01*
X169132250Y-61769000D01*
X169291000Y-61610250D01*
X169291000Y-60511000D01*
X166401750Y-60511000D01*
X166243000Y-60669750D01*
X107442000Y-60669750D01*
X107410250Y-60638000D01*
X104521000Y-60638000D01*
X104267000Y-60638000D01*
X104247000Y-60638000D01*
X104247000Y-60384000D01*
X104267000Y-60384000D01*
X104267000Y-59284750D01*
X104521000Y-59284750D01*
X104521000Y-60384000D01*
X107410250Y-60384000D01*
X107569000Y-60225250D01*
X107569000Y-59634691D01*
X107472327Y-59401302D01*
X107293699Y-59222673D01*
X107060310Y-59126000D01*
X104679750Y-59126000D01*
X104521000Y-59284750D01*
X104267000Y-59284750D01*
X104108250Y-59126000D01*
X102260000Y-59126000D01*
X102260000Y-58596750D01*
X108520000Y-58596750D01*
X108520000Y-59012309D01*
X108616673Y-59245698D01*
X108795301Y-59424327D01*
X109028690Y-59521000D01*
X109569250Y-59521000D01*
X109728000Y-59362250D01*
X109728000Y-58438000D01*
X109982000Y-58438000D01*
X109982000Y-59362250D01*
X110140750Y-59521000D01*
X110681310Y-59521000D01*
X110914699Y-59424327D01*
X111093327Y-59245698D01*
X111190000Y-59012309D01*
X111190000Y-58596750D01*
X111181000Y-58587750D01*
X116766000Y-58587750D01*
X116766000Y-59003309D01*
X116862673Y-59236698D01*
X117041301Y-59415327D01*
X117274690Y-59512000D01*
X117815250Y-59512000D01*
X117974000Y-59353250D01*
X117974000Y-58429000D01*
X118228000Y-58429000D01*
X118228000Y-59353250D01*
X118386750Y-59512000D01*
X118927310Y-59512000D01*
X119160699Y-59415327D01*
X119339327Y-59236698D01*
X119436000Y-59003309D01*
X119436000Y-58587750D01*
X119442000Y-58587750D01*
X119442000Y-59003309D01*
X119538673Y-59236698D01*
X119717301Y-59415327D01*
X119950690Y-59512000D01*
X120491250Y-59512000D01*
X120650000Y-59353250D01*
X120650000Y-58429000D01*
X120904000Y-58429000D01*
X120904000Y-59353250D01*
X121062750Y-59512000D01*
X121603310Y-59512000D01*
X121836699Y-59415327D01*
X122015327Y-59236698D01*
X122112000Y-59003309D01*
X122112000Y-58587750D01*
X122236000Y-58587750D01*
X122236000Y-59003309D01*
X122332673Y-59236698D01*
X122511301Y-59415327D01*
X122744690Y-59512000D01*
X123285250Y-59512000D01*
X123444000Y-59353250D01*
X123444000Y-58429000D01*
X123698000Y-58429000D01*
X123698000Y-59353250D01*
X123856750Y-59512000D01*
X124397310Y-59512000D01*
X124407712Y-59507691D01*
X166243000Y-59507691D01*
X166243000Y-60098250D01*
X166401750Y-60257000D01*
X169291000Y-60257000D01*
X169291000Y-59157750D01*
X169132250Y-58999000D01*
X166751690Y-58999000D01*
X166518301Y-59095673D01*
X166339673Y-59274302D01*
X166243000Y-59507691D01*
X124407712Y-59507691D01*
X124630699Y-59415327D01*
X124809327Y-59236698D01*
X124906000Y-59003309D01*
X124906000Y-58587750D01*
X124770000Y-58451750D01*
X146112000Y-58451750D01*
X146112000Y-58867309D01*
X146208673Y-59100698D01*
X146387301Y-59279327D01*
X146620690Y-59376000D01*
X147161250Y-59376000D01*
X147320000Y-59217250D01*
X147320000Y-58293000D01*
X147574000Y-58293000D01*
X147574000Y-59217250D01*
X147732750Y-59376000D01*
X148273310Y-59376000D01*
X148506699Y-59279327D01*
X148685327Y-59100698D01*
X148782000Y-58867309D01*
X148782000Y-58451750D01*
X149414000Y-58451750D01*
X149414000Y-58867309D01*
X149510673Y-59100698D01*
X149689301Y-59279327D01*
X149922690Y-59376000D01*
X150463250Y-59376000D01*
X150622000Y-59217250D01*
X150622000Y-58293000D01*
X150876000Y-58293000D01*
X150876000Y-59217250D01*
X151034750Y-59376000D01*
X151575310Y-59376000D01*
X151808699Y-59279327D01*
X151987327Y-59100698D01*
X152084000Y-58867309D01*
X152084000Y-58460750D01*
X152462000Y-58460750D01*
X152462000Y-58876309D01*
X152558673Y-59109698D01*
X152737301Y-59288327D01*
X152970690Y-59385000D01*
X153511250Y-59385000D01*
X153670000Y-59226250D01*
X153670000Y-58302000D01*
X153924000Y-58302000D01*
X153924000Y-59226250D01*
X154082750Y-59385000D01*
X154623310Y-59385000D01*
X154856699Y-59288327D01*
X155035327Y-59109698D01*
X155132000Y-58876309D01*
X155132000Y-58469750D01*
X162368000Y-58469750D01*
X162368000Y-58885309D01*
X162464673Y-59118698D01*
X162643301Y-59297327D01*
X162876690Y-59394000D01*
X163417250Y-59394000D01*
X163576000Y-59235250D01*
X163576000Y-58311000D01*
X163830000Y-58311000D01*
X163830000Y-59235250D01*
X163988750Y-59394000D01*
X164529310Y-59394000D01*
X164762699Y-59297327D01*
X164941327Y-59118698D01*
X165038000Y-58885309D01*
X165038000Y-58469750D01*
X164879250Y-58311000D01*
X163830000Y-58311000D01*
X163576000Y-58311000D01*
X162526750Y-58311000D01*
X162368000Y-58469750D01*
X155132000Y-58469750D01*
X155132000Y-58460750D01*
X154973250Y-58302000D01*
X153924000Y-58302000D01*
X153670000Y-58302000D01*
X152620750Y-58302000D01*
X152462000Y-58460750D01*
X152084000Y-58460750D01*
X152084000Y-58451750D01*
X151925250Y-58293000D01*
X150876000Y-58293000D01*
X150622000Y-58293000D01*
X149572750Y-58293000D01*
X149414000Y-58451750D01*
X148782000Y-58451750D01*
X148623250Y-58293000D01*
X147574000Y-58293000D01*
X147320000Y-58293000D01*
X146270750Y-58293000D01*
X146112000Y-58451750D01*
X124770000Y-58451750D01*
X124747250Y-58429000D01*
X123698000Y-58429000D01*
X123444000Y-58429000D01*
X122394750Y-58429000D01*
X122236000Y-58587750D01*
X122112000Y-58587750D01*
X121953250Y-58429000D01*
X120904000Y-58429000D01*
X120650000Y-58429000D01*
X119600750Y-58429000D01*
X119442000Y-58587750D01*
X119436000Y-58587750D01*
X119277250Y-58429000D01*
X118228000Y-58429000D01*
X117974000Y-58429000D01*
X116924750Y-58429000D01*
X116766000Y-58587750D01*
X111181000Y-58587750D01*
X111031250Y-58438000D01*
X109982000Y-58438000D01*
X109728000Y-58438000D01*
X108678750Y-58438000D01*
X108520000Y-58596750D01*
X102260000Y-58596750D01*
X102260000Y-57658440D01*
X106934000Y-57658440D01*
X107181765Y-57609157D01*
X107391809Y-57468809D01*
X107519973Y-57277000D01*
X108715974Y-57277000D01*
X108616673Y-57376302D01*
X108520000Y-57609691D01*
X108520000Y-58025250D01*
X108678750Y-58184000D01*
X109728000Y-58184000D01*
X109728000Y-58164000D01*
X109982000Y-58164000D01*
X109982000Y-58184000D01*
X111031250Y-58184000D01*
X111190000Y-58025250D01*
X111190000Y-57609691D01*
X111093327Y-57376302D01*
X110994026Y-57277000D01*
X111244586Y-57277000D01*
X111290414Y-57345586D01*
X111581564Y-57540127D01*
X111924999Y-57608440D01*
X112575001Y-57608440D01*
X112918436Y-57540127D01*
X113209586Y-57345586D01*
X113275000Y-57247687D01*
X113340414Y-57345586D01*
X113631564Y-57540127D01*
X113974999Y-57608440D01*
X114625001Y-57608440D01*
X114968436Y-57540127D01*
X115259586Y-57345586D01*
X115305414Y-57277000D01*
X116952974Y-57277000D01*
X116862673Y-57367302D01*
X116766000Y-57600691D01*
X116766000Y-58016250D01*
X116924750Y-58175000D01*
X117974000Y-58175000D01*
X117974000Y-58155000D01*
X118228000Y-58155000D01*
X118228000Y-58175000D01*
X119277250Y-58175000D01*
X119436000Y-58016250D01*
X119436000Y-57600691D01*
X119339327Y-57367302D01*
X119249026Y-57277000D01*
X119628974Y-57277000D01*
X119538673Y-57367302D01*
X119442000Y-57600691D01*
X119442000Y-58016250D01*
X119600750Y-58175000D01*
X120650000Y-58175000D01*
X120650000Y-58155000D01*
X120904000Y-58155000D01*
X120904000Y-58175000D01*
X121953250Y-58175000D01*
X122112000Y-58016250D01*
X122112000Y-57600691D01*
X122015327Y-57367302D01*
X121925026Y-57277000D01*
X122422974Y-57277000D01*
X122332673Y-57367302D01*
X122236000Y-57600691D01*
X122236000Y-58016250D01*
X122394750Y-58175000D01*
X123444000Y-58175000D01*
X123444000Y-58155000D01*
X123698000Y-58155000D01*
X123698000Y-58175000D01*
X124747250Y-58175000D01*
X124906000Y-58016250D01*
X124906000Y-57600691D01*
X124809327Y-57367302D01*
X124719026Y-57277000D01*
X127676009Y-57277000D01*
X127812191Y-57480809D01*
X128022235Y-57621157D01*
X128270000Y-57670440D01*
X130048000Y-57670440D01*
X130295765Y-57621157D01*
X130505809Y-57480809D01*
X130646157Y-57270765D01*
X130695440Y-57023000D01*
X130695440Y-55245000D01*
X130646157Y-54997235D01*
X130505809Y-54787191D01*
X130295765Y-54646843D01*
X130048000Y-54597560D01*
X128270000Y-54597560D01*
X128022235Y-54646843D01*
X127812191Y-54787191D01*
X127671843Y-54997235D01*
X127622560Y-55245000D01*
X124584626Y-55245000D01*
X124364436Y-55097873D01*
X124021001Y-55029560D01*
X123120999Y-55029560D01*
X122777564Y-55097873D01*
X122557374Y-55245000D01*
X121790626Y-55245000D01*
X121570436Y-55097873D01*
X121227001Y-55029560D01*
X120326999Y-55029560D01*
X119983564Y-55097873D01*
X119763374Y-55245000D01*
X119114626Y-55245000D01*
X118894436Y-55097873D01*
X118551001Y-55029560D01*
X117650999Y-55029560D01*
X117307564Y-55097873D01*
X117087374Y-55245000D01*
X115305414Y-55245000D01*
X115259586Y-55176414D01*
X114968436Y-54981873D01*
X114625001Y-54913560D01*
X113974999Y-54913560D01*
X113631564Y-54981873D01*
X113340414Y-55176414D01*
X113275000Y-55274313D01*
X113209586Y-55176414D01*
X112918436Y-54981873D01*
X112575001Y-54913560D01*
X111924999Y-54913560D01*
X111581564Y-54981873D01*
X111290414Y-55176414D01*
X111244586Y-55245000D01*
X110855157Y-55245000D01*
X110648436Y-55106873D01*
X110305001Y-55038560D01*
X109404999Y-55038560D01*
X109061564Y-55106873D01*
X108854843Y-55245000D01*
X107519973Y-55245000D01*
X107391809Y-55053191D01*
X107181765Y-54912843D01*
X106934000Y-54863560D01*
X102260000Y-54863560D01*
X102260000Y-53396000D01*
X104108250Y-53396000D01*
X104267000Y-53237250D01*
X104267000Y-52138000D01*
X104521000Y-52138000D01*
X104521000Y-53237250D01*
X104679750Y-53396000D01*
X107060310Y-53396000D01*
X107293699Y-53299327D01*
X107472327Y-53120698D01*
X107569000Y-52887309D01*
X107569000Y-52296750D01*
X107442000Y-52169750D01*
X166243000Y-52169750D01*
X166243000Y-52760309D01*
X166339673Y-52993698D01*
X166518301Y-53172327D01*
X166751690Y-53269000D01*
X169132250Y-53269000D01*
X169291000Y-53110250D01*
X169291000Y-52011000D01*
X166401750Y-52011000D01*
X166243000Y-52169750D01*
X107442000Y-52169750D01*
X107410250Y-52138000D01*
X104521000Y-52138000D01*
X104267000Y-52138000D01*
X104247000Y-52138000D01*
X104247000Y-51884000D01*
X104267000Y-51884000D01*
X104267000Y-50784750D01*
X104521000Y-50784750D01*
X104521000Y-51884000D01*
X107410250Y-51884000D01*
X107569000Y-51725250D01*
X107569000Y-51134691D01*
X107516395Y-51007691D01*
X166243000Y-51007691D01*
X166243000Y-51598250D01*
X166401750Y-51757000D01*
X169291000Y-51757000D01*
X169291000Y-50657750D01*
X169132250Y-50499000D01*
X166751690Y-50499000D01*
X166518301Y-50595673D01*
X166339673Y-50774302D01*
X166243000Y-51007691D01*
X107516395Y-51007691D01*
X107472327Y-50901302D01*
X107293699Y-50722673D01*
X107060310Y-50626000D01*
X104679750Y-50626000D01*
X104521000Y-50784750D01*
X104267000Y-50784750D01*
X104108250Y-50626000D01*
X102260000Y-50626000D01*
X102260000Y-47650000D01*
X110044822Y-47650000D01*
X110045627Y-47650158D01*
X110109617Y-47650000D01*
X110174003Y-47650000D01*
X110174812Y-47649839D01*
X161544617Y-47523000D01*
X171552000Y-47523000D01*
X171552000Y-50499000D01*
G04 #@! TD*
M02*
