M48
;DRILL file {KiCad (5.0.2)-1} date 4/19/2019 3:24:53 PM
;FORMAT={-:-/ absolute / inch / decimal}
FMAT,2
INCH,TZ
T1C0.0157
T2C0.0181
T3C0.0197
T4C0.0354
T5C0.0394
%
G90
G05
T1
X5.832Y-3.986
T2
X3.2376Y-4.5646
X3.5824Y-4.5646
X6.7676Y-4.5626
X7.1124Y-4.5626
X5.4926Y-3.2454
X5.8374Y-3.2454
X5.2976Y-4.5646
X5.6424Y-4.5646
X6.0506Y-4.5646
X6.3954Y-4.5646
X3.8526Y-4.5646
X4.1974Y-4.5646
X6.1376Y-3.2354
X6.4824Y-3.2354
T3
X5.995Y-3.745
X6.025Y-4.135
X6.265Y-3.585
X6.295Y-4.065
X6.315Y-3.32
X6.435Y-4.035
X6.645Y-3.775
X6.755Y-3.985
T4
X4.26Y-3.6498
X4.26Y-3.74
X4.26Y-3.8302
X3.406Y-3.641
X3.406Y-3.7312
X3.406Y-3.8213
T5
X4.57Y-3.44
X4.67Y-3.44
X4.6Y-4.
X4.6Y-4.1
X3.41Y-4.09
X3.51Y-4.09
X5.57Y-3.715
X5.67Y-3.715
X5.57Y-3.56
X5.67Y-3.56
X5.672Y-3.871
X5.772Y-3.871
X3.56Y-3.45
X3.66Y-3.45
X3.76Y-3.45
X6.877Y-3.464
X7.277Y-3.464
X7.285Y-3.695
X7.285Y-3.795
X4.14Y-4.27
X4.24Y-4.27
X4.63Y-4.24
X4.73Y-4.24
X6.238Y-4.261
X6.338Y-4.261
X6.438Y-4.261
X6.538Y-4.261
X4.02Y-3.44
X4.42Y-3.44
X3.755Y-4.09
X3.755Y-4.19
T0
M30
