G04 #@! TF.GenerationSoftware,KiCad,Pcbnew,(5.0.2)-1*
G04 #@! TF.CreationDate,2019-04-19T15:24:55-07:00*
G04 #@! TF.ProjectId,Complete PLL Board Rev3,436f6d70-6c65-4746-9520-504c4c20426f,rev?*
G04 #@! TF.SameCoordinates,Original*
G04 #@! TF.FileFunction,Copper,L2,Bot*
G04 #@! TF.FilePolarity,Positive*
%FSLAX46Y46*%
G04 Gerber Fmt 4.6, Leading zero omitted, Abs format (unit mm)*
G04 Created by KiCad (PCBNEW (5.0.2)-1) date 4/19/2019 3:24:55 PM*
%MOMM*%
%LPD*%
G01*
G04 APERTURE LIST*
G04 #@! TA.AperFunction,Conductor*
%ADD10C,0.100000*%
G04 #@! TD*
G04 #@! TA.AperFunction,SMDPad,CuDef*
%ADD11C,1.150000*%
G04 #@! TD*
G04 #@! TA.AperFunction,ComponentPad*
%ADD12O,2.200000X1.717500*%
G04 #@! TD*
G04 #@! TA.AperFunction,ComponentPad*
%ADD13R,2.200000X1.717500*%
G04 #@! TD*
G04 #@! TA.AperFunction,ComponentPad*
%ADD14R,2.200000X1.700000*%
G04 #@! TD*
G04 #@! TA.AperFunction,ComponentPad*
%ADD15O,2.200000X1.700000*%
G04 #@! TD*
G04 #@! TA.AperFunction,Conductor*
%ADD16R,0.460000X0.950000*%
G04 #@! TD*
G04 #@! TA.AperFunction,ViaPad*
%ADD17C,0.970000*%
G04 #@! TD*
G04 #@! TA.AperFunction,SMDPad,CuDef*
%ADD18R,2.420000X5.080000*%
G04 #@! TD*
G04 #@! TA.AperFunction,ComponentPad*
%ADD19R,2.500000X2.500000*%
G04 #@! TD*
G04 #@! TA.AperFunction,ComponentPad*
%ADD20O,2.500000X2.500000*%
G04 #@! TD*
G04 #@! TA.AperFunction,ComponentPad*
%ADD21O,2.000000X2.000000*%
G04 #@! TD*
G04 #@! TA.AperFunction,ComponentPad*
%ADD22R,2.000000X2.000000*%
G04 #@! TD*
G04 #@! TA.AperFunction,ComponentPad*
%ADD23R,2.100000X2.100000*%
G04 #@! TD*
G04 #@! TA.AperFunction,ComponentPad*
%ADD24O,2.100000X2.100000*%
G04 #@! TD*
G04 #@! TA.AperFunction,ViaPad*
%ADD25C,0.800000*%
G04 #@! TD*
G04 #@! TA.AperFunction,ViaPad*
%ADD26C,0.900000*%
G04 #@! TD*
G04 #@! TA.AperFunction,ViaPad*
%ADD27C,1.000000*%
G04 #@! TD*
G04 #@! TA.AperFunction,Conductor*
%ADD28C,0.250000*%
G04 #@! TD*
G04 #@! TA.AperFunction,Conductor*
%ADD29C,0.508000*%
G04 #@! TD*
G04 #@! TA.AperFunction,Conductor*
%ADD30C,0.254000*%
G04 #@! TD*
G04 APERTURE END LIST*
D10*
G04 #@! TO.N,8V*
G04 #@! TO.C,C26*
G36*
X108617005Y-89839504D02*
X108641273Y-89843104D01*
X108665072Y-89849065D01*
X108688171Y-89857330D01*
X108710350Y-89867820D01*
X108731393Y-89880432D01*
X108751099Y-89895047D01*
X108769277Y-89911523D01*
X108785753Y-89929701D01*
X108800368Y-89949407D01*
X108812980Y-89970450D01*
X108823470Y-89992629D01*
X108831735Y-90015728D01*
X108837696Y-90039527D01*
X108841296Y-90063795D01*
X108842500Y-90088299D01*
X108842500Y-90988301D01*
X108841296Y-91012805D01*
X108837696Y-91037073D01*
X108831735Y-91060872D01*
X108823470Y-91083971D01*
X108812980Y-91106150D01*
X108800368Y-91127193D01*
X108785753Y-91146899D01*
X108769277Y-91165077D01*
X108751099Y-91181553D01*
X108731393Y-91196168D01*
X108710350Y-91208780D01*
X108688171Y-91219270D01*
X108665072Y-91227535D01*
X108641273Y-91233496D01*
X108617005Y-91237096D01*
X108592501Y-91238300D01*
X107942499Y-91238300D01*
X107917995Y-91237096D01*
X107893727Y-91233496D01*
X107869928Y-91227535D01*
X107846829Y-91219270D01*
X107824650Y-91208780D01*
X107803607Y-91196168D01*
X107783901Y-91181553D01*
X107765723Y-91165077D01*
X107749247Y-91146899D01*
X107734632Y-91127193D01*
X107722020Y-91106150D01*
X107711530Y-91083971D01*
X107703265Y-91060872D01*
X107697304Y-91037073D01*
X107693704Y-91012805D01*
X107692500Y-90988301D01*
X107692500Y-90088299D01*
X107693704Y-90063795D01*
X107697304Y-90039527D01*
X107703265Y-90015728D01*
X107711530Y-89992629D01*
X107722020Y-89970450D01*
X107734632Y-89949407D01*
X107749247Y-89929701D01*
X107765723Y-89911523D01*
X107783901Y-89895047D01*
X107803607Y-89880432D01*
X107824650Y-89867820D01*
X107846829Y-89857330D01*
X107869928Y-89849065D01*
X107893727Y-89843104D01*
X107917995Y-89839504D01*
X107942499Y-89838300D01*
X108592501Y-89838300D01*
X108617005Y-89839504D01*
X108617005Y-89839504D01*
G37*
D11*
G04 #@! TD*
G04 #@! TO.P,C26,2*
G04 #@! TO.N,8V*
X108267500Y-90538300D03*
D10*
G04 #@! TO.N,GND*
G04 #@! TO.C,C26*
G36*
X110667005Y-89839504D02*
X110691273Y-89843104D01*
X110715072Y-89849065D01*
X110738171Y-89857330D01*
X110760350Y-89867820D01*
X110781393Y-89880432D01*
X110801099Y-89895047D01*
X110819277Y-89911523D01*
X110835753Y-89929701D01*
X110850368Y-89949407D01*
X110862980Y-89970450D01*
X110873470Y-89992629D01*
X110881735Y-90015728D01*
X110887696Y-90039527D01*
X110891296Y-90063795D01*
X110892500Y-90088299D01*
X110892500Y-90988301D01*
X110891296Y-91012805D01*
X110887696Y-91037073D01*
X110881735Y-91060872D01*
X110873470Y-91083971D01*
X110862980Y-91106150D01*
X110850368Y-91127193D01*
X110835753Y-91146899D01*
X110819277Y-91165077D01*
X110801099Y-91181553D01*
X110781393Y-91196168D01*
X110760350Y-91208780D01*
X110738171Y-91219270D01*
X110715072Y-91227535D01*
X110691273Y-91233496D01*
X110667005Y-91237096D01*
X110642501Y-91238300D01*
X109992499Y-91238300D01*
X109967995Y-91237096D01*
X109943727Y-91233496D01*
X109919928Y-91227535D01*
X109896829Y-91219270D01*
X109874650Y-91208780D01*
X109853607Y-91196168D01*
X109833901Y-91181553D01*
X109815723Y-91165077D01*
X109799247Y-91146899D01*
X109784632Y-91127193D01*
X109772020Y-91106150D01*
X109761530Y-91083971D01*
X109753265Y-91060872D01*
X109747304Y-91037073D01*
X109743704Y-91012805D01*
X109742500Y-90988301D01*
X109742500Y-90088299D01*
X109743704Y-90063795D01*
X109747304Y-90039527D01*
X109753265Y-90015728D01*
X109761530Y-89992629D01*
X109772020Y-89970450D01*
X109784632Y-89949407D01*
X109799247Y-89929701D01*
X109815723Y-89911523D01*
X109833901Y-89895047D01*
X109853607Y-89880432D01*
X109874650Y-89867820D01*
X109896829Y-89857330D01*
X109919928Y-89849065D01*
X109943727Y-89843104D01*
X109967995Y-89839504D01*
X109992499Y-89838300D01*
X110642501Y-89838300D01*
X110667005Y-89839504D01*
X110667005Y-89839504D01*
G37*
D11*
G04 #@! TD*
G04 #@! TO.P,C26,1*
G04 #@! TO.N,GND*
X110317500Y-90538300D03*
D10*
G04 #@! TO.N,GND*
G04 #@! TO.C,C25*
G36*
X84926205Y-87477304D02*
X84950473Y-87480904D01*
X84974272Y-87486865D01*
X84997371Y-87495130D01*
X85019550Y-87505620D01*
X85040593Y-87518232D01*
X85060299Y-87532847D01*
X85078477Y-87549323D01*
X85094953Y-87567501D01*
X85109568Y-87587207D01*
X85122180Y-87608250D01*
X85132670Y-87630429D01*
X85140935Y-87653528D01*
X85146896Y-87677327D01*
X85150496Y-87701595D01*
X85151700Y-87726099D01*
X85151700Y-88626101D01*
X85150496Y-88650605D01*
X85146896Y-88674873D01*
X85140935Y-88698672D01*
X85132670Y-88721771D01*
X85122180Y-88743950D01*
X85109568Y-88764993D01*
X85094953Y-88784699D01*
X85078477Y-88802877D01*
X85060299Y-88819353D01*
X85040593Y-88833968D01*
X85019550Y-88846580D01*
X84997371Y-88857070D01*
X84974272Y-88865335D01*
X84950473Y-88871296D01*
X84926205Y-88874896D01*
X84901701Y-88876100D01*
X84251699Y-88876100D01*
X84227195Y-88874896D01*
X84202927Y-88871296D01*
X84179128Y-88865335D01*
X84156029Y-88857070D01*
X84133850Y-88846580D01*
X84112807Y-88833968D01*
X84093101Y-88819353D01*
X84074923Y-88802877D01*
X84058447Y-88784699D01*
X84043832Y-88764993D01*
X84031220Y-88743950D01*
X84020730Y-88721771D01*
X84012465Y-88698672D01*
X84006504Y-88674873D01*
X84002904Y-88650605D01*
X84001700Y-88626101D01*
X84001700Y-87726099D01*
X84002904Y-87701595D01*
X84006504Y-87677327D01*
X84012465Y-87653528D01*
X84020730Y-87630429D01*
X84031220Y-87608250D01*
X84043832Y-87587207D01*
X84058447Y-87567501D01*
X84074923Y-87549323D01*
X84093101Y-87532847D01*
X84112807Y-87518232D01*
X84133850Y-87505620D01*
X84156029Y-87495130D01*
X84179128Y-87486865D01*
X84202927Y-87480904D01*
X84227195Y-87477304D01*
X84251699Y-87476100D01*
X84901701Y-87476100D01*
X84926205Y-87477304D01*
X84926205Y-87477304D01*
G37*
D11*
G04 #@! TD*
G04 #@! TO.P,C25,1*
G04 #@! TO.N,GND*
X84576700Y-88176100D03*
D10*
G04 #@! TO.N,8V*
G04 #@! TO.C,C25*
G36*
X86976205Y-87477304D02*
X87000473Y-87480904D01*
X87024272Y-87486865D01*
X87047371Y-87495130D01*
X87069550Y-87505620D01*
X87090593Y-87518232D01*
X87110299Y-87532847D01*
X87128477Y-87549323D01*
X87144953Y-87567501D01*
X87159568Y-87587207D01*
X87172180Y-87608250D01*
X87182670Y-87630429D01*
X87190935Y-87653528D01*
X87196896Y-87677327D01*
X87200496Y-87701595D01*
X87201700Y-87726099D01*
X87201700Y-88626101D01*
X87200496Y-88650605D01*
X87196896Y-88674873D01*
X87190935Y-88698672D01*
X87182670Y-88721771D01*
X87172180Y-88743950D01*
X87159568Y-88764993D01*
X87144953Y-88784699D01*
X87128477Y-88802877D01*
X87110299Y-88819353D01*
X87090593Y-88833968D01*
X87069550Y-88846580D01*
X87047371Y-88857070D01*
X87024272Y-88865335D01*
X87000473Y-88871296D01*
X86976205Y-88874896D01*
X86951701Y-88876100D01*
X86301699Y-88876100D01*
X86277195Y-88874896D01*
X86252927Y-88871296D01*
X86229128Y-88865335D01*
X86206029Y-88857070D01*
X86183850Y-88846580D01*
X86162807Y-88833968D01*
X86143101Y-88819353D01*
X86124923Y-88802877D01*
X86108447Y-88784699D01*
X86093832Y-88764993D01*
X86081220Y-88743950D01*
X86070730Y-88721771D01*
X86062465Y-88698672D01*
X86056504Y-88674873D01*
X86052904Y-88650605D01*
X86051700Y-88626101D01*
X86051700Y-87726099D01*
X86052904Y-87701595D01*
X86056504Y-87677327D01*
X86062465Y-87653528D01*
X86070730Y-87630429D01*
X86081220Y-87608250D01*
X86093832Y-87587207D01*
X86108447Y-87567501D01*
X86124923Y-87549323D01*
X86143101Y-87532847D01*
X86162807Y-87518232D01*
X86183850Y-87505620D01*
X86206029Y-87495130D01*
X86229128Y-87486865D01*
X86252927Y-87480904D01*
X86277195Y-87477304D01*
X86301699Y-87476100D01*
X86951701Y-87476100D01*
X86976205Y-87477304D01*
X86976205Y-87477304D01*
G37*
D11*
G04 #@! TD*
G04 #@! TO.P,C25,2*
G04 #@! TO.N,8V*
X86626700Y-88176100D03*
D10*
G04 #@! TO.N,GND*
G04 #@! TO.C,C24*
G36*
X120616505Y-96962204D02*
X120640773Y-96965804D01*
X120664572Y-96971765D01*
X120687671Y-96980030D01*
X120709850Y-96990520D01*
X120730893Y-97003132D01*
X120750599Y-97017747D01*
X120768777Y-97034223D01*
X120785253Y-97052401D01*
X120799868Y-97072107D01*
X120812480Y-97093150D01*
X120822970Y-97115329D01*
X120831235Y-97138428D01*
X120837196Y-97162227D01*
X120840796Y-97186495D01*
X120842000Y-97210999D01*
X120842000Y-97861001D01*
X120840796Y-97885505D01*
X120837196Y-97909773D01*
X120831235Y-97933572D01*
X120822970Y-97956671D01*
X120812480Y-97978850D01*
X120799868Y-97999893D01*
X120785253Y-98019599D01*
X120768777Y-98037777D01*
X120750599Y-98054253D01*
X120730893Y-98068868D01*
X120709850Y-98081480D01*
X120687671Y-98091970D01*
X120664572Y-98100235D01*
X120640773Y-98106196D01*
X120616505Y-98109796D01*
X120592001Y-98111000D01*
X119691999Y-98111000D01*
X119667495Y-98109796D01*
X119643227Y-98106196D01*
X119619428Y-98100235D01*
X119596329Y-98091970D01*
X119574150Y-98081480D01*
X119553107Y-98068868D01*
X119533401Y-98054253D01*
X119515223Y-98037777D01*
X119498747Y-98019599D01*
X119484132Y-97999893D01*
X119471520Y-97978850D01*
X119461030Y-97956671D01*
X119452765Y-97933572D01*
X119446804Y-97909773D01*
X119443204Y-97885505D01*
X119442000Y-97861001D01*
X119442000Y-97210999D01*
X119443204Y-97186495D01*
X119446804Y-97162227D01*
X119452765Y-97138428D01*
X119461030Y-97115329D01*
X119471520Y-97093150D01*
X119484132Y-97072107D01*
X119498747Y-97052401D01*
X119515223Y-97034223D01*
X119533401Y-97017747D01*
X119553107Y-97003132D01*
X119574150Y-96990520D01*
X119596329Y-96980030D01*
X119619428Y-96971765D01*
X119643227Y-96965804D01*
X119667495Y-96962204D01*
X119691999Y-96961000D01*
X120592001Y-96961000D01*
X120616505Y-96962204D01*
X120616505Y-96962204D01*
G37*
D11*
G04 #@! TD*
G04 #@! TO.P,C24,2*
G04 #@! TO.N,GND*
X120142000Y-97536000D03*
D10*
G04 #@! TO.N,Net-(C24-Pad1)*
G04 #@! TO.C,C24*
G36*
X120616505Y-99012204D02*
X120640773Y-99015804D01*
X120664572Y-99021765D01*
X120687671Y-99030030D01*
X120709850Y-99040520D01*
X120730893Y-99053132D01*
X120750599Y-99067747D01*
X120768777Y-99084223D01*
X120785253Y-99102401D01*
X120799868Y-99122107D01*
X120812480Y-99143150D01*
X120822970Y-99165329D01*
X120831235Y-99188428D01*
X120837196Y-99212227D01*
X120840796Y-99236495D01*
X120842000Y-99260999D01*
X120842000Y-99911001D01*
X120840796Y-99935505D01*
X120837196Y-99959773D01*
X120831235Y-99983572D01*
X120822970Y-100006671D01*
X120812480Y-100028850D01*
X120799868Y-100049893D01*
X120785253Y-100069599D01*
X120768777Y-100087777D01*
X120750599Y-100104253D01*
X120730893Y-100118868D01*
X120709850Y-100131480D01*
X120687671Y-100141970D01*
X120664572Y-100150235D01*
X120640773Y-100156196D01*
X120616505Y-100159796D01*
X120592001Y-100161000D01*
X119691999Y-100161000D01*
X119667495Y-100159796D01*
X119643227Y-100156196D01*
X119619428Y-100150235D01*
X119596329Y-100141970D01*
X119574150Y-100131480D01*
X119553107Y-100118868D01*
X119533401Y-100104253D01*
X119515223Y-100087777D01*
X119498747Y-100069599D01*
X119484132Y-100049893D01*
X119471520Y-100028850D01*
X119461030Y-100006671D01*
X119452765Y-99983572D01*
X119446804Y-99959773D01*
X119443204Y-99935505D01*
X119442000Y-99911001D01*
X119442000Y-99260999D01*
X119443204Y-99236495D01*
X119446804Y-99212227D01*
X119452765Y-99188428D01*
X119461030Y-99165329D01*
X119471520Y-99143150D01*
X119484132Y-99122107D01*
X119498747Y-99102401D01*
X119515223Y-99084223D01*
X119533401Y-99067747D01*
X119553107Y-99053132D01*
X119574150Y-99040520D01*
X119596329Y-99030030D01*
X119619428Y-99021765D01*
X119643227Y-99015804D01*
X119667495Y-99012204D01*
X119691999Y-99011000D01*
X120592001Y-99011000D01*
X120616505Y-99012204D01*
X120616505Y-99012204D01*
G37*
D11*
G04 #@! TD*
G04 #@! TO.P,C24,1*
G04 #@! TO.N,Net-(C24-Pad1)*
X120142000Y-99586000D03*
D10*
G04 #@! TO.N,Net-(C23-Pad1)*
G04 #@! TO.C,C23*
G36*
X122902505Y-98994204D02*
X122926773Y-98997804D01*
X122950572Y-99003765D01*
X122973671Y-99012030D01*
X122995850Y-99022520D01*
X123016893Y-99035132D01*
X123036599Y-99049747D01*
X123054777Y-99066223D01*
X123071253Y-99084401D01*
X123085868Y-99104107D01*
X123098480Y-99125150D01*
X123108970Y-99147329D01*
X123117235Y-99170428D01*
X123123196Y-99194227D01*
X123126796Y-99218495D01*
X123128000Y-99242999D01*
X123128000Y-99893001D01*
X123126796Y-99917505D01*
X123123196Y-99941773D01*
X123117235Y-99965572D01*
X123108970Y-99988671D01*
X123098480Y-100010850D01*
X123085868Y-100031893D01*
X123071253Y-100051599D01*
X123054777Y-100069777D01*
X123036599Y-100086253D01*
X123016893Y-100100868D01*
X122995850Y-100113480D01*
X122973671Y-100123970D01*
X122950572Y-100132235D01*
X122926773Y-100138196D01*
X122902505Y-100141796D01*
X122878001Y-100143000D01*
X121977999Y-100143000D01*
X121953495Y-100141796D01*
X121929227Y-100138196D01*
X121905428Y-100132235D01*
X121882329Y-100123970D01*
X121860150Y-100113480D01*
X121839107Y-100100868D01*
X121819401Y-100086253D01*
X121801223Y-100069777D01*
X121784747Y-100051599D01*
X121770132Y-100031893D01*
X121757520Y-100010850D01*
X121747030Y-99988671D01*
X121738765Y-99965572D01*
X121732804Y-99941773D01*
X121729204Y-99917505D01*
X121728000Y-99893001D01*
X121728000Y-99242999D01*
X121729204Y-99218495D01*
X121732804Y-99194227D01*
X121738765Y-99170428D01*
X121747030Y-99147329D01*
X121757520Y-99125150D01*
X121770132Y-99104107D01*
X121784747Y-99084401D01*
X121801223Y-99066223D01*
X121819401Y-99049747D01*
X121839107Y-99035132D01*
X121860150Y-99022520D01*
X121882329Y-99012030D01*
X121905428Y-99003765D01*
X121929227Y-98997804D01*
X121953495Y-98994204D01*
X121977999Y-98993000D01*
X122878001Y-98993000D01*
X122902505Y-98994204D01*
X122902505Y-98994204D01*
G37*
D11*
G04 #@! TD*
G04 #@! TO.P,C23,1*
G04 #@! TO.N,Net-(C23-Pad1)*
X122428000Y-99568000D03*
D10*
G04 #@! TO.N,GND*
G04 #@! TO.C,C23*
G36*
X122902505Y-96944204D02*
X122926773Y-96947804D01*
X122950572Y-96953765D01*
X122973671Y-96962030D01*
X122995850Y-96972520D01*
X123016893Y-96985132D01*
X123036599Y-96999747D01*
X123054777Y-97016223D01*
X123071253Y-97034401D01*
X123085868Y-97054107D01*
X123098480Y-97075150D01*
X123108970Y-97097329D01*
X123117235Y-97120428D01*
X123123196Y-97144227D01*
X123126796Y-97168495D01*
X123128000Y-97192999D01*
X123128000Y-97843001D01*
X123126796Y-97867505D01*
X123123196Y-97891773D01*
X123117235Y-97915572D01*
X123108970Y-97938671D01*
X123098480Y-97960850D01*
X123085868Y-97981893D01*
X123071253Y-98001599D01*
X123054777Y-98019777D01*
X123036599Y-98036253D01*
X123016893Y-98050868D01*
X122995850Y-98063480D01*
X122973671Y-98073970D01*
X122950572Y-98082235D01*
X122926773Y-98088196D01*
X122902505Y-98091796D01*
X122878001Y-98093000D01*
X121977999Y-98093000D01*
X121953495Y-98091796D01*
X121929227Y-98088196D01*
X121905428Y-98082235D01*
X121882329Y-98073970D01*
X121860150Y-98063480D01*
X121839107Y-98050868D01*
X121819401Y-98036253D01*
X121801223Y-98019777D01*
X121784747Y-98001599D01*
X121770132Y-97981893D01*
X121757520Y-97960850D01*
X121747030Y-97938671D01*
X121738765Y-97915572D01*
X121732804Y-97891773D01*
X121729204Y-97867505D01*
X121728000Y-97843001D01*
X121728000Y-97192999D01*
X121729204Y-97168495D01*
X121732804Y-97144227D01*
X121738765Y-97120428D01*
X121747030Y-97097329D01*
X121757520Y-97075150D01*
X121770132Y-97054107D01*
X121784747Y-97034401D01*
X121801223Y-97016223D01*
X121819401Y-96999747D01*
X121839107Y-96985132D01*
X121860150Y-96972520D01*
X121882329Y-96962030D01*
X121905428Y-96953765D01*
X121929227Y-96947804D01*
X121953495Y-96944204D01*
X121977999Y-96943000D01*
X122878001Y-96943000D01*
X122902505Y-96944204D01*
X122902505Y-96944204D01*
G37*
D11*
G04 #@! TD*
G04 #@! TO.P,C23,2*
G04 #@! TO.N,GND*
X122428000Y-97518000D03*
D10*
G04 #@! TO.N,Net-(C12-Pad2)*
G04 #@! TO.C,R7*
G36*
X122902505Y-103076204D02*
X122926773Y-103079804D01*
X122950572Y-103085765D01*
X122973671Y-103094030D01*
X122995850Y-103104520D01*
X123016893Y-103117132D01*
X123036599Y-103131747D01*
X123054777Y-103148223D01*
X123071253Y-103166401D01*
X123085868Y-103186107D01*
X123098480Y-103207150D01*
X123108970Y-103229329D01*
X123117235Y-103252428D01*
X123123196Y-103276227D01*
X123126796Y-103300495D01*
X123128000Y-103324999D01*
X123128000Y-103975001D01*
X123126796Y-103999505D01*
X123123196Y-104023773D01*
X123117235Y-104047572D01*
X123108970Y-104070671D01*
X123098480Y-104092850D01*
X123085868Y-104113893D01*
X123071253Y-104133599D01*
X123054777Y-104151777D01*
X123036599Y-104168253D01*
X123016893Y-104182868D01*
X122995850Y-104195480D01*
X122973671Y-104205970D01*
X122950572Y-104214235D01*
X122926773Y-104220196D01*
X122902505Y-104223796D01*
X122878001Y-104225000D01*
X121977999Y-104225000D01*
X121953495Y-104223796D01*
X121929227Y-104220196D01*
X121905428Y-104214235D01*
X121882329Y-104205970D01*
X121860150Y-104195480D01*
X121839107Y-104182868D01*
X121819401Y-104168253D01*
X121801223Y-104151777D01*
X121784747Y-104133599D01*
X121770132Y-104113893D01*
X121757520Y-104092850D01*
X121747030Y-104070671D01*
X121738765Y-104047572D01*
X121732804Y-104023773D01*
X121729204Y-103999505D01*
X121728000Y-103975001D01*
X121728000Y-103324999D01*
X121729204Y-103300495D01*
X121732804Y-103276227D01*
X121738765Y-103252428D01*
X121747030Y-103229329D01*
X121757520Y-103207150D01*
X121770132Y-103186107D01*
X121784747Y-103166401D01*
X121801223Y-103148223D01*
X121819401Y-103131747D01*
X121839107Y-103117132D01*
X121860150Y-103104520D01*
X121882329Y-103094030D01*
X121905428Y-103085765D01*
X121929227Y-103079804D01*
X121953495Y-103076204D01*
X121977999Y-103075000D01*
X122878001Y-103075000D01*
X122902505Y-103076204D01*
X122902505Y-103076204D01*
G37*
D11*
G04 #@! TD*
G04 #@! TO.P,R7,1*
G04 #@! TO.N,Net-(C12-Pad2)*
X122428000Y-103650000D03*
D10*
G04 #@! TO.N,Net-(C23-Pad1)*
G04 #@! TO.C,R7*
G36*
X122902505Y-101026204D02*
X122926773Y-101029804D01*
X122950572Y-101035765D01*
X122973671Y-101044030D01*
X122995850Y-101054520D01*
X123016893Y-101067132D01*
X123036599Y-101081747D01*
X123054777Y-101098223D01*
X123071253Y-101116401D01*
X123085868Y-101136107D01*
X123098480Y-101157150D01*
X123108970Y-101179329D01*
X123117235Y-101202428D01*
X123123196Y-101226227D01*
X123126796Y-101250495D01*
X123128000Y-101274999D01*
X123128000Y-101925001D01*
X123126796Y-101949505D01*
X123123196Y-101973773D01*
X123117235Y-101997572D01*
X123108970Y-102020671D01*
X123098480Y-102042850D01*
X123085868Y-102063893D01*
X123071253Y-102083599D01*
X123054777Y-102101777D01*
X123036599Y-102118253D01*
X123016893Y-102132868D01*
X122995850Y-102145480D01*
X122973671Y-102155970D01*
X122950572Y-102164235D01*
X122926773Y-102170196D01*
X122902505Y-102173796D01*
X122878001Y-102175000D01*
X121977999Y-102175000D01*
X121953495Y-102173796D01*
X121929227Y-102170196D01*
X121905428Y-102164235D01*
X121882329Y-102155970D01*
X121860150Y-102145480D01*
X121839107Y-102132868D01*
X121819401Y-102118253D01*
X121801223Y-102101777D01*
X121784747Y-102083599D01*
X121770132Y-102063893D01*
X121757520Y-102042850D01*
X121747030Y-102020671D01*
X121738765Y-101997572D01*
X121732804Y-101973773D01*
X121729204Y-101949505D01*
X121728000Y-101925001D01*
X121728000Y-101274999D01*
X121729204Y-101250495D01*
X121732804Y-101226227D01*
X121738765Y-101202428D01*
X121747030Y-101179329D01*
X121757520Y-101157150D01*
X121770132Y-101136107D01*
X121784747Y-101116401D01*
X121801223Y-101098223D01*
X121819401Y-101081747D01*
X121839107Y-101067132D01*
X121860150Y-101054520D01*
X121882329Y-101044030D01*
X121905428Y-101035765D01*
X121929227Y-101029804D01*
X121953495Y-101026204D01*
X121977999Y-101025000D01*
X122878001Y-101025000D01*
X122902505Y-101026204D01*
X122902505Y-101026204D01*
G37*
D11*
G04 #@! TD*
G04 #@! TO.P,R7,2*
G04 #@! TO.N,Net-(C23-Pad1)*
X122428000Y-101600000D03*
D10*
G04 #@! TO.N,Net-(C14-Pad1)*
G04 #@! TO.C,C14*
G36*
X128744505Y-109154204D02*
X128768773Y-109157804D01*
X128792572Y-109163765D01*
X128815671Y-109172030D01*
X128837850Y-109182520D01*
X128858893Y-109195132D01*
X128878599Y-109209747D01*
X128896777Y-109226223D01*
X128913253Y-109244401D01*
X128927868Y-109264107D01*
X128940480Y-109285150D01*
X128950970Y-109307329D01*
X128959235Y-109330428D01*
X128965196Y-109354227D01*
X128968796Y-109378495D01*
X128970000Y-109402999D01*
X128970000Y-110053001D01*
X128968796Y-110077505D01*
X128965196Y-110101773D01*
X128959235Y-110125572D01*
X128950970Y-110148671D01*
X128940480Y-110170850D01*
X128927868Y-110191893D01*
X128913253Y-110211599D01*
X128896777Y-110229777D01*
X128878599Y-110246253D01*
X128858893Y-110260868D01*
X128837850Y-110273480D01*
X128815671Y-110283970D01*
X128792572Y-110292235D01*
X128768773Y-110298196D01*
X128744505Y-110301796D01*
X128720001Y-110303000D01*
X127819999Y-110303000D01*
X127795495Y-110301796D01*
X127771227Y-110298196D01*
X127747428Y-110292235D01*
X127724329Y-110283970D01*
X127702150Y-110273480D01*
X127681107Y-110260868D01*
X127661401Y-110246253D01*
X127643223Y-110229777D01*
X127626747Y-110211599D01*
X127612132Y-110191893D01*
X127599520Y-110170850D01*
X127589030Y-110148671D01*
X127580765Y-110125572D01*
X127574804Y-110101773D01*
X127571204Y-110077505D01*
X127570000Y-110053001D01*
X127570000Y-109402999D01*
X127571204Y-109378495D01*
X127574804Y-109354227D01*
X127580765Y-109330428D01*
X127589030Y-109307329D01*
X127599520Y-109285150D01*
X127612132Y-109264107D01*
X127626747Y-109244401D01*
X127643223Y-109226223D01*
X127661401Y-109209747D01*
X127681107Y-109195132D01*
X127702150Y-109182520D01*
X127724329Y-109172030D01*
X127747428Y-109163765D01*
X127771227Y-109157804D01*
X127795495Y-109154204D01*
X127819999Y-109153000D01*
X128720001Y-109153000D01*
X128744505Y-109154204D01*
X128744505Y-109154204D01*
G37*
D11*
G04 #@! TD*
G04 #@! TO.P,C14,1*
G04 #@! TO.N,Net-(C14-Pad1)*
X128270000Y-109728000D03*
D10*
G04 #@! TO.N,GND*
G04 #@! TO.C,C14*
G36*
X128744505Y-111204204D02*
X128768773Y-111207804D01*
X128792572Y-111213765D01*
X128815671Y-111222030D01*
X128837850Y-111232520D01*
X128858893Y-111245132D01*
X128878599Y-111259747D01*
X128896777Y-111276223D01*
X128913253Y-111294401D01*
X128927868Y-111314107D01*
X128940480Y-111335150D01*
X128950970Y-111357329D01*
X128959235Y-111380428D01*
X128965196Y-111404227D01*
X128968796Y-111428495D01*
X128970000Y-111452999D01*
X128970000Y-112103001D01*
X128968796Y-112127505D01*
X128965196Y-112151773D01*
X128959235Y-112175572D01*
X128950970Y-112198671D01*
X128940480Y-112220850D01*
X128927868Y-112241893D01*
X128913253Y-112261599D01*
X128896777Y-112279777D01*
X128878599Y-112296253D01*
X128858893Y-112310868D01*
X128837850Y-112323480D01*
X128815671Y-112333970D01*
X128792572Y-112342235D01*
X128768773Y-112348196D01*
X128744505Y-112351796D01*
X128720001Y-112353000D01*
X127819999Y-112353000D01*
X127795495Y-112351796D01*
X127771227Y-112348196D01*
X127747428Y-112342235D01*
X127724329Y-112333970D01*
X127702150Y-112323480D01*
X127681107Y-112310868D01*
X127661401Y-112296253D01*
X127643223Y-112279777D01*
X127626747Y-112261599D01*
X127612132Y-112241893D01*
X127599520Y-112220850D01*
X127589030Y-112198671D01*
X127580765Y-112175572D01*
X127574804Y-112151773D01*
X127571204Y-112127505D01*
X127570000Y-112103001D01*
X127570000Y-111452999D01*
X127571204Y-111428495D01*
X127574804Y-111404227D01*
X127580765Y-111380428D01*
X127589030Y-111357329D01*
X127599520Y-111335150D01*
X127612132Y-111314107D01*
X127626747Y-111294401D01*
X127643223Y-111276223D01*
X127661401Y-111259747D01*
X127681107Y-111245132D01*
X127702150Y-111232520D01*
X127724329Y-111222030D01*
X127747428Y-111213765D01*
X127771227Y-111207804D01*
X127795495Y-111204204D01*
X127819999Y-111203000D01*
X128720001Y-111203000D01*
X128744505Y-111204204D01*
X128744505Y-111204204D01*
G37*
D11*
G04 #@! TD*
G04 #@! TO.P,C14,2*
G04 #@! TO.N,GND*
X128270000Y-111778000D03*
D12*
G04 #@! TO.P,Q2,3*
G04 #@! TO.N,Net-(Q2-Pad3)*
X86512400Y-97061400D03*
G04 #@! TO.P,Q2,2*
G04 #@! TO.N,Net-(C17-Pad1)*
X86512400Y-94771400D03*
D13*
G04 #@! TO.P,Q2,1*
G04 #@! TO.N,8V*
X86512400Y-92481400D03*
G04 #@! TD*
D14*
G04 #@! TO.P,Q1,1*
G04 #@! TO.N,8V*
X108204000Y-92706000D03*
D15*
G04 #@! TO.P,Q1,2*
G04 #@! TO.N,Net-(C15-Pad1)*
X108204000Y-94996000D03*
G04 #@! TO.P,Q1,3*
G04 #@! TO.N,Net-(C15-Pad2)*
X108204000Y-97286000D03*
G04 #@! TD*
D16*
G04 #@! TO.N,GND*
G04 #@! TO.C,FoLD1*
X180656000Y-116339200D03*
X171896000Y-116339200D03*
D17*
X180656000Y-115889200D03*
X171896000Y-115889200D03*
D18*
G04 #@! TD*
G04 #@! TO.P,FoLD1,2*
G04 #@! TO.N,GND*
X180656000Y-119329200D03*
G04 #@! TO.P,FoLD1,2*
G04 #@! TO.N,GND*
X171896000Y-119329200D03*
G04 #@! TD*
G04 #@! TO.P,FL1,2*
G04 #@! TO.N,GND*
X164654000Y-78740000D03*
X155894000Y-78740000D03*
D17*
G04 #@! TD*
G04 #@! TO.N,GND*
G04 #@! TO.C,FL1*
X164654000Y-82180000D03*
G04 #@! TO.N,GND*
G04 #@! TO.C,FL1*
X155894000Y-82180000D03*
D16*
X164654000Y-81730000D03*
X155894000Y-81730000D03*
G04 #@! TD*
G04 #@! TO.N,GND*
G04 #@! TO.C,Test_CP1*
X139511000Y-81984000D03*
X148271000Y-81984000D03*
D17*
X139511000Y-82434000D03*
X148271000Y-82434000D03*
D18*
G04 #@! TD*
G04 #@! TO.P,Test_CP1,2*
G04 #@! TO.N,GND*
X139511000Y-78994000D03*
G04 #@! TO.P,Test_CP1,2*
G04 #@! TO.N,GND*
X148271000Y-78994000D03*
G04 #@! TD*
G04 #@! TO.P,OSC_OUT1,2*
G04 #@! TO.N,GND*
X153684200Y-119380000D03*
X162444200Y-119380000D03*
D17*
G04 #@! TD*
G04 #@! TO.N,GND*
G04 #@! TO.C,OSC_OUT1*
X153684200Y-115940000D03*
G04 #@! TO.N,GND*
G04 #@! TO.C,OSC_OUT1*
X162444200Y-115940000D03*
D16*
X153684200Y-116390000D03*
X162444200Y-116390000D03*
G04 #@! TD*
D10*
G04 #@! TO.N,Net-(C12-Pad2)*
G04 #@! TO.C,C12*
G36*
X125188505Y-103076204D02*
X125212773Y-103079804D01*
X125236572Y-103085765D01*
X125259671Y-103094030D01*
X125281850Y-103104520D01*
X125302893Y-103117132D01*
X125322599Y-103131747D01*
X125340777Y-103148223D01*
X125357253Y-103166401D01*
X125371868Y-103186107D01*
X125384480Y-103207150D01*
X125394970Y-103229329D01*
X125403235Y-103252428D01*
X125409196Y-103276227D01*
X125412796Y-103300495D01*
X125414000Y-103324999D01*
X125414000Y-103975001D01*
X125412796Y-103999505D01*
X125409196Y-104023773D01*
X125403235Y-104047572D01*
X125394970Y-104070671D01*
X125384480Y-104092850D01*
X125371868Y-104113893D01*
X125357253Y-104133599D01*
X125340777Y-104151777D01*
X125322599Y-104168253D01*
X125302893Y-104182868D01*
X125281850Y-104195480D01*
X125259671Y-104205970D01*
X125236572Y-104214235D01*
X125212773Y-104220196D01*
X125188505Y-104223796D01*
X125164001Y-104225000D01*
X124263999Y-104225000D01*
X124239495Y-104223796D01*
X124215227Y-104220196D01*
X124191428Y-104214235D01*
X124168329Y-104205970D01*
X124146150Y-104195480D01*
X124125107Y-104182868D01*
X124105401Y-104168253D01*
X124087223Y-104151777D01*
X124070747Y-104133599D01*
X124056132Y-104113893D01*
X124043520Y-104092850D01*
X124033030Y-104070671D01*
X124024765Y-104047572D01*
X124018804Y-104023773D01*
X124015204Y-103999505D01*
X124014000Y-103975001D01*
X124014000Y-103324999D01*
X124015204Y-103300495D01*
X124018804Y-103276227D01*
X124024765Y-103252428D01*
X124033030Y-103229329D01*
X124043520Y-103207150D01*
X124056132Y-103186107D01*
X124070747Y-103166401D01*
X124087223Y-103148223D01*
X124105401Y-103131747D01*
X124125107Y-103117132D01*
X124146150Y-103104520D01*
X124168329Y-103094030D01*
X124191428Y-103085765D01*
X124215227Y-103079804D01*
X124239495Y-103076204D01*
X124263999Y-103075000D01*
X125164001Y-103075000D01*
X125188505Y-103076204D01*
X125188505Y-103076204D01*
G37*
D11*
G04 #@! TD*
G04 #@! TO.P,C12,2*
G04 #@! TO.N,Net-(C12-Pad2)*
X124714000Y-103650000D03*
D10*
G04 #@! TO.N,GND*
G04 #@! TO.C,C12*
G36*
X125188505Y-101026204D02*
X125212773Y-101029804D01*
X125236572Y-101035765D01*
X125259671Y-101044030D01*
X125281850Y-101054520D01*
X125302893Y-101067132D01*
X125322599Y-101081747D01*
X125340777Y-101098223D01*
X125357253Y-101116401D01*
X125371868Y-101136107D01*
X125384480Y-101157150D01*
X125394970Y-101179329D01*
X125403235Y-101202428D01*
X125409196Y-101226227D01*
X125412796Y-101250495D01*
X125414000Y-101274999D01*
X125414000Y-101925001D01*
X125412796Y-101949505D01*
X125409196Y-101973773D01*
X125403235Y-101997572D01*
X125394970Y-102020671D01*
X125384480Y-102042850D01*
X125371868Y-102063893D01*
X125357253Y-102083599D01*
X125340777Y-102101777D01*
X125322599Y-102118253D01*
X125302893Y-102132868D01*
X125281850Y-102145480D01*
X125259671Y-102155970D01*
X125236572Y-102164235D01*
X125212773Y-102170196D01*
X125188505Y-102173796D01*
X125164001Y-102175000D01*
X124263999Y-102175000D01*
X124239495Y-102173796D01*
X124215227Y-102170196D01*
X124191428Y-102164235D01*
X124168329Y-102155970D01*
X124146150Y-102145480D01*
X124125107Y-102132868D01*
X124105401Y-102118253D01*
X124087223Y-102101777D01*
X124070747Y-102083599D01*
X124056132Y-102063893D01*
X124043520Y-102042850D01*
X124033030Y-102020671D01*
X124024765Y-101997572D01*
X124018804Y-101973773D01*
X124015204Y-101949505D01*
X124014000Y-101925001D01*
X124014000Y-101274999D01*
X124015204Y-101250495D01*
X124018804Y-101226227D01*
X124024765Y-101202428D01*
X124033030Y-101179329D01*
X124043520Y-101157150D01*
X124056132Y-101136107D01*
X124070747Y-101116401D01*
X124087223Y-101098223D01*
X124105401Y-101081747D01*
X124125107Y-101067132D01*
X124146150Y-101054520D01*
X124168329Y-101044030D01*
X124191428Y-101035765D01*
X124215227Y-101029804D01*
X124239495Y-101026204D01*
X124263999Y-101025000D01*
X125164001Y-101025000D01*
X125188505Y-101026204D01*
X125188505Y-101026204D01*
G37*
D11*
G04 #@! TD*
G04 #@! TO.P,C12,1*
G04 #@! TO.N,GND*
X124714000Y-101600000D03*
D10*
G04 #@! TO.N,GND*
G04 #@! TO.C,C13*
G36*
X123829605Y-109159504D02*
X123853873Y-109163104D01*
X123877672Y-109169065D01*
X123900771Y-109177330D01*
X123922950Y-109187820D01*
X123943993Y-109200432D01*
X123963699Y-109215047D01*
X123981877Y-109231523D01*
X123998353Y-109249701D01*
X124012968Y-109269407D01*
X124025580Y-109290450D01*
X124036070Y-109312629D01*
X124044335Y-109335728D01*
X124050296Y-109359527D01*
X124053896Y-109383795D01*
X124055100Y-109408299D01*
X124055100Y-110058301D01*
X124053896Y-110082805D01*
X124050296Y-110107073D01*
X124044335Y-110130872D01*
X124036070Y-110153971D01*
X124025580Y-110176150D01*
X124012968Y-110197193D01*
X123998353Y-110216899D01*
X123981877Y-110235077D01*
X123963699Y-110251553D01*
X123943993Y-110266168D01*
X123922950Y-110278780D01*
X123900771Y-110289270D01*
X123877672Y-110297535D01*
X123853873Y-110303496D01*
X123829605Y-110307096D01*
X123805101Y-110308300D01*
X122905099Y-110308300D01*
X122880595Y-110307096D01*
X122856327Y-110303496D01*
X122832528Y-110297535D01*
X122809429Y-110289270D01*
X122787250Y-110278780D01*
X122766207Y-110266168D01*
X122746501Y-110251553D01*
X122728323Y-110235077D01*
X122711847Y-110216899D01*
X122697232Y-110197193D01*
X122684620Y-110176150D01*
X122674130Y-110153971D01*
X122665865Y-110130872D01*
X122659904Y-110107073D01*
X122656304Y-110082805D01*
X122655100Y-110058301D01*
X122655100Y-109408299D01*
X122656304Y-109383795D01*
X122659904Y-109359527D01*
X122665865Y-109335728D01*
X122674130Y-109312629D01*
X122684620Y-109290450D01*
X122697232Y-109269407D01*
X122711847Y-109249701D01*
X122728323Y-109231523D01*
X122746501Y-109215047D01*
X122766207Y-109200432D01*
X122787250Y-109187820D01*
X122809429Y-109177330D01*
X122832528Y-109169065D01*
X122856327Y-109163104D01*
X122880595Y-109159504D01*
X122905099Y-109158300D01*
X123805101Y-109158300D01*
X123829605Y-109159504D01*
X123829605Y-109159504D01*
G37*
D11*
G04 #@! TD*
G04 #@! TO.P,C13,2*
G04 #@! TO.N,GND*
X123355100Y-109733300D03*
D10*
G04 #@! TO.N,Net-(C13-Pad1)*
G04 #@! TO.C,C13*
G36*
X123829605Y-107109504D02*
X123853873Y-107113104D01*
X123877672Y-107119065D01*
X123900771Y-107127330D01*
X123922950Y-107137820D01*
X123943993Y-107150432D01*
X123963699Y-107165047D01*
X123981877Y-107181523D01*
X123998353Y-107199701D01*
X124012968Y-107219407D01*
X124025580Y-107240450D01*
X124036070Y-107262629D01*
X124044335Y-107285728D01*
X124050296Y-107309527D01*
X124053896Y-107333795D01*
X124055100Y-107358299D01*
X124055100Y-108008301D01*
X124053896Y-108032805D01*
X124050296Y-108057073D01*
X124044335Y-108080872D01*
X124036070Y-108103971D01*
X124025580Y-108126150D01*
X124012968Y-108147193D01*
X123998353Y-108166899D01*
X123981877Y-108185077D01*
X123963699Y-108201553D01*
X123943993Y-108216168D01*
X123922950Y-108228780D01*
X123900771Y-108239270D01*
X123877672Y-108247535D01*
X123853873Y-108253496D01*
X123829605Y-108257096D01*
X123805101Y-108258300D01*
X122905099Y-108258300D01*
X122880595Y-108257096D01*
X122856327Y-108253496D01*
X122832528Y-108247535D01*
X122809429Y-108239270D01*
X122787250Y-108228780D01*
X122766207Y-108216168D01*
X122746501Y-108201553D01*
X122728323Y-108185077D01*
X122711847Y-108166899D01*
X122697232Y-108147193D01*
X122684620Y-108126150D01*
X122674130Y-108103971D01*
X122665865Y-108080872D01*
X122659904Y-108057073D01*
X122656304Y-108032805D01*
X122655100Y-108008301D01*
X122655100Y-107358299D01*
X122656304Y-107333795D01*
X122659904Y-107309527D01*
X122665865Y-107285728D01*
X122674130Y-107262629D01*
X122684620Y-107240450D01*
X122697232Y-107219407D01*
X122711847Y-107199701D01*
X122728323Y-107181523D01*
X122746501Y-107165047D01*
X122766207Y-107150432D01*
X122787250Y-107137820D01*
X122809429Y-107127330D01*
X122832528Y-107119065D01*
X122856327Y-107113104D01*
X122880595Y-107109504D01*
X122905099Y-107108300D01*
X123805101Y-107108300D01*
X123829605Y-107109504D01*
X123829605Y-107109504D01*
G37*
D11*
G04 #@! TD*
G04 #@! TO.P,C13,1*
G04 #@! TO.N,Net-(C13-Pad1)*
X123355100Y-107683300D03*
D10*
G04 #@! TO.N,GND*
G04 #@! TO.C,C18*
G36*
X84944205Y-89483904D02*
X84968473Y-89487504D01*
X84992272Y-89493465D01*
X85015371Y-89501730D01*
X85037550Y-89512220D01*
X85058593Y-89524832D01*
X85078299Y-89539447D01*
X85096477Y-89555923D01*
X85112953Y-89574101D01*
X85127568Y-89593807D01*
X85140180Y-89614850D01*
X85150670Y-89637029D01*
X85158935Y-89660128D01*
X85164896Y-89683927D01*
X85168496Y-89708195D01*
X85169700Y-89732699D01*
X85169700Y-90632701D01*
X85168496Y-90657205D01*
X85164896Y-90681473D01*
X85158935Y-90705272D01*
X85150670Y-90728371D01*
X85140180Y-90750550D01*
X85127568Y-90771593D01*
X85112953Y-90791299D01*
X85096477Y-90809477D01*
X85078299Y-90825953D01*
X85058593Y-90840568D01*
X85037550Y-90853180D01*
X85015371Y-90863670D01*
X84992272Y-90871935D01*
X84968473Y-90877896D01*
X84944205Y-90881496D01*
X84919701Y-90882700D01*
X84269699Y-90882700D01*
X84245195Y-90881496D01*
X84220927Y-90877896D01*
X84197128Y-90871935D01*
X84174029Y-90863670D01*
X84151850Y-90853180D01*
X84130807Y-90840568D01*
X84111101Y-90825953D01*
X84092923Y-90809477D01*
X84076447Y-90791299D01*
X84061832Y-90771593D01*
X84049220Y-90750550D01*
X84038730Y-90728371D01*
X84030465Y-90705272D01*
X84024504Y-90681473D01*
X84020904Y-90657205D01*
X84019700Y-90632701D01*
X84019700Y-89732699D01*
X84020904Y-89708195D01*
X84024504Y-89683927D01*
X84030465Y-89660128D01*
X84038730Y-89637029D01*
X84049220Y-89614850D01*
X84061832Y-89593807D01*
X84076447Y-89574101D01*
X84092923Y-89555923D01*
X84111101Y-89539447D01*
X84130807Y-89524832D01*
X84151850Y-89512220D01*
X84174029Y-89501730D01*
X84197128Y-89493465D01*
X84220927Y-89487504D01*
X84245195Y-89483904D01*
X84269699Y-89482700D01*
X84919701Y-89482700D01*
X84944205Y-89483904D01*
X84944205Y-89483904D01*
G37*
D11*
G04 #@! TD*
G04 #@! TO.P,C18,1*
G04 #@! TO.N,GND*
X84594700Y-90182700D03*
D10*
G04 #@! TO.N,8V*
G04 #@! TO.C,C18*
G36*
X86994205Y-89483904D02*
X87018473Y-89487504D01*
X87042272Y-89493465D01*
X87065371Y-89501730D01*
X87087550Y-89512220D01*
X87108593Y-89524832D01*
X87128299Y-89539447D01*
X87146477Y-89555923D01*
X87162953Y-89574101D01*
X87177568Y-89593807D01*
X87190180Y-89614850D01*
X87200670Y-89637029D01*
X87208935Y-89660128D01*
X87214896Y-89683927D01*
X87218496Y-89708195D01*
X87219700Y-89732699D01*
X87219700Y-90632701D01*
X87218496Y-90657205D01*
X87214896Y-90681473D01*
X87208935Y-90705272D01*
X87200670Y-90728371D01*
X87190180Y-90750550D01*
X87177568Y-90771593D01*
X87162953Y-90791299D01*
X87146477Y-90809477D01*
X87128299Y-90825953D01*
X87108593Y-90840568D01*
X87087550Y-90853180D01*
X87065371Y-90863670D01*
X87042272Y-90871935D01*
X87018473Y-90877896D01*
X86994205Y-90881496D01*
X86969701Y-90882700D01*
X86319699Y-90882700D01*
X86295195Y-90881496D01*
X86270927Y-90877896D01*
X86247128Y-90871935D01*
X86224029Y-90863670D01*
X86201850Y-90853180D01*
X86180807Y-90840568D01*
X86161101Y-90825953D01*
X86142923Y-90809477D01*
X86126447Y-90791299D01*
X86111832Y-90771593D01*
X86099220Y-90750550D01*
X86088730Y-90728371D01*
X86080465Y-90705272D01*
X86074504Y-90681473D01*
X86070904Y-90657205D01*
X86069700Y-90632701D01*
X86069700Y-89732699D01*
X86070904Y-89708195D01*
X86074504Y-89683927D01*
X86080465Y-89660128D01*
X86088730Y-89637029D01*
X86099220Y-89614850D01*
X86111832Y-89593807D01*
X86126447Y-89574101D01*
X86142923Y-89555923D01*
X86161101Y-89539447D01*
X86180807Y-89524832D01*
X86201850Y-89512220D01*
X86224029Y-89501730D01*
X86247128Y-89493465D01*
X86270927Y-89487504D01*
X86295195Y-89483904D01*
X86319699Y-89482700D01*
X86969701Y-89482700D01*
X86994205Y-89483904D01*
X86994205Y-89483904D01*
G37*
D11*
G04 #@! TD*
G04 #@! TO.P,C18,2*
G04 #@! TO.N,8V*
X86644700Y-90182700D03*
D10*
G04 #@! TO.N,Net-(C21-Pad1)*
G04 #@! TO.C,C21*
G36*
X99788505Y-86811204D02*
X99812773Y-86814804D01*
X99836572Y-86820765D01*
X99859671Y-86829030D01*
X99881850Y-86839520D01*
X99902893Y-86852132D01*
X99922599Y-86866747D01*
X99940777Y-86883223D01*
X99957253Y-86901401D01*
X99971868Y-86921107D01*
X99984480Y-86942150D01*
X99994970Y-86964329D01*
X100003235Y-86987428D01*
X100009196Y-87011227D01*
X100012796Y-87035495D01*
X100014000Y-87059999D01*
X100014000Y-87710001D01*
X100012796Y-87734505D01*
X100009196Y-87758773D01*
X100003235Y-87782572D01*
X99994970Y-87805671D01*
X99984480Y-87827850D01*
X99971868Y-87848893D01*
X99957253Y-87868599D01*
X99940777Y-87886777D01*
X99922599Y-87903253D01*
X99902893Y-87917868D01*
X99881850Y-87930480D01*
X99859671Y-87940970D01*
X99836572Y-87949235D01*
X99812773Y-87955196D01*
X99788505Y-87958796D01*
X99764001Y-87960000D01*
X98863999Y-87960000D01*
X98839495Y-87958796D01*
X98815227Y-87955196D01*
X98791428Y-87949235D01*
X98768329Y-87940970D01*
X98746150Y-87930480D01*
X98725107Y-87917868D01*
X98705401Y-87903253D01*
X98687223Y-87886777D01*
X98670747Y-87868599D01*
X98656132Y-87848893D01*
X98643520Y-87827850D01*
X98633030Y-87805671D01*
X98624765Y-87782572D01*
X98618804Y-87758773D01*
X98615204Y-87734505D01*
X98614000Y-87710001D01*
X98614000Y-87059999D01*
X98615204Y-87035495D01*
X98618804Y-87011227D01*
X98624765Y-86987428D01*
X98633030Y-86964329D01*
X98643520Y-86942150D01*
X98656132Y-86921107D01*
X98670747Y-86901401D01*
X98687223Y-86883223D01*
X98705401Y-86866747D01*
X98725107Y-86852132D01*
X98746150Y-86839520D01*
X98768329Y-86829030D01*
X98791428Y-86820765D01*
X98815227Y-86814804D01*
X98839495Y-86811204D01*
X98863999Y-86810000D01*
X99764001Y-86810000D01*
X99788505Y-86811204D01*
X99788505Y-86811204D01*
G37*
D11*
G04 #@! TD*
G04 #@! TO.P,C21,1*
G04 #@! TO.N,Net-(C21-Pad1)*
X99314000Y-87385000D03*
D10*
G04 #@! TO.N,GND*
G04 #@! TO.C,C21*
G36*
X99788505Y-84761204D02*
X99812773Y-84764804D01*
X99836572Y-84770765D01*
X99859671Y-84779030D01*
X99881850Y-84789520D01*
X99902893Y-84802132D01*
X99922599Y-84816747D01*
X99940777Y-84833223D01*
X99957253Y-84851401D01*
X99971868Y-84871107D01*
X99984480Y-84892150D01*
X99994970Y-84914329D01*
X100003235Y-84937428D01*
X100009196Y-84961227D01*
X100012796Y-84985495D01*
X100014000Y-85009999D01*
X100014000Y-85660001D01*
X100012796Y-85684505D01*
X100009196Y-85708773D01*
X100003235Y-85732572D01*
X99994970Y-85755671D01*
X99984480Y-85777850D01*
X99971868Y-85798893D01*
X99957253Y-85818599D01*
X99940777Y-85836777D01*
X99922599Y-85853253D01*
X99902893Y-85867868D01*
X99881850Y-85880480D01*
X99859671Y-85890970D01*
X99836572Y-85899235D01*
X99812773Y-85905196D01*
X99788505Y-85908796D01*
X99764001Y-85910000D01*
X98863999Y-85910000D01*
X98839495Y-85908796D01*
X98815227Y-85905196D01*
X98791428Y-85899235D01*
X98768329Y-85890970D01*
X98746150Y-85880480D01*
X98725107Y-85867868D01*
X98705401Y-85853253D01*
X98687223Y-85836777D01*
X98670747Y-85818599D01*
X98656132Y-85798893D01*
X98643520Y-85777850D01*
X98633030Y-85755671D01*
X98624765Y-85732572D01*
X98618804Y-85708773D01*
X98615204Y-85684505D01*
X98614000Y-85660001D01*
X98614000Y-85009999D01*
X98615204Y-84985495D01*
X98618804Y-84961227D01*
X98624765Y-84937428D01*
X98633030Y-84914329D01*
X98643520Y-84892150D01*
X98656132Y-84871107D01*
X98670747Y-84851401D01*
X98687223Y-84833223D01*
X98705401Y-84816747D01*
X98725107Y-84802132D01*
X98746150Y-84789520D01*
X98768329Y-84779030D01*
X98791428Y-84770765D01*
X98815227Y-84764804D01*
X98839495Y-84761204D01*
X98863999Y-84760000D01*
X99764001Y-84760000D01*
X99788505Y-84761204D01*
X99788505Y-84761204D01*
G37*
D11*
G04 #@! TD*
G04 #@! TO.P,C21,2*
G04 #@! TO.N,GND*
X99314000Y-85335000D03*
D10*
G04 #@! TO.N,GND*
G04 #@! TO.C,C22*
G36*
X113181605Y-92011204D02*
X113205873Y-92014804D01*
X113229672Y-92020765D01*
X113252771Y-92029030D01*
X113274950Y-92039520D01*
X113295993Y-92052132D01*
X113315699Y-92066747D01*
X113333877Y-92083223D01*
X113350353Y-92101401D01*
X113364968Y-92121107D01*
X113377580Y-92142150D01*
X113388070Y-92164329D01*
X113396335Y-92187428D01*
X113402296Y-92211227D01*
X113405896Y-92235495D01*
X113407100Y-92259999D01*
X113407100Y-93160001D01*
X113405896Y-93184505D01*
X113402296Y-93208773D01*
X113396335Y-93232572D01*
X113388070Y-93255671D01*
X113377580Y-93277850D01*
X113364968Y-93298893D01*
X113350353Y-93318599D01*
X113333877Y-93336777D01*
X113315699Y-93353253D01*
X113295993Y-93367868D01*
X113274950Y-93380480D01*
X113252771Y-93390970D01*
X113229672Y-93399235D01*
X113205873Y-93405196D01*
X113181605Y-93408796D01*
X113157101Y-93410000D01*
X112507099Y-93410000D01*
X112482595Y-93408796D01*
X112458327Y-93405196D01*
X112434528Y-93399235D01*
X112411429Y-93390970D01*
X112389250Y-93380480D01*
X112368207Y-93367868D01*
X112348501Y-93353253D01*
X112330323Y-93336777D01*
X112313847Y-93318599D01*
X112299232Y-93298893D01*
X112286620Y-93277850D01*
X112276130Y-93255671D01*
X112267865Y-93232572D01*
X112261904Y-93208773D01*
X112258304Y-93184505D01*
X112257100Y-93160001D01*
X112257100Y-92259999D01*
X112258304Y-92235495D01*
X112261904Y-92211227D01*
X112267865Y-92187428D01*
X112276130Y-92164329D01*
X112286620Y-92142150D01*
X112299232Y-92121107D01*
X112313847Y-92101401D01*
X112330323Y-92083223D01*
X112348501Y-92066747D01*
X112368207Y-92052132D01*
X112389250Y-92039520D01*
X112411429Y-92029030D01*
X112434528Y-92020765D01*
X112458327Y-92014804D01*
X112482595Y-92011204D01*
X112507099Y-92010000D01*
X113157101Y-92010000D01*
X113181605Y-92011204D01*
X113181605Y-92011204D01*
G37*
D11*
G04 #@! TD*
G04 #@! TO.P,C22,1*
G04 #@! TO.N,GND*
X112832100Y-92710000D03*
D10*
G04 #@! TO.N,8V*
G04 #@! TO.C,C22*
G36*
X111131605Y-92011204D02*
X111155873Y-92014804D01*
X111179672Y-92020765D01*
X111202771Y-92029030D01*
X111224950Y-92039520D01*
X111245993Y-92052132D01*
X111265699Y-92066747D01*
X111283877Y-92083223D01*
X111300353Y-92101401D01*
X111314968Y-92121107D01*
X111327580Y-92142150D01*
X111338070Y-92164329D01*
X111346335Y-92187428D01*
X111352296Y-92211227D01*
X111355896Y-92235495D01*
X111357100Y-92259999D01*
X111357100Y-93160001D01*
X111355896Y-93184505D01*
X111352296Y-93208773D01*
X111346335Y-93232572D01*
X111338070Y-93255671D01*
X111327580Y-93277850D01*
X111314968Y-93298893D01*
X111300353Y-93318599D01*
X111283877Y-93336777D01*
X111265699Y-93353253D01*
X111245993Y-93367868D01*
X111224950Y-93380480D01*
X111202771Y-93390970D01*
X111179672Y-93399235D01*
X111155873Y-93405196D01*
X111131605Y-93408796D01*
X111107101Y-93410000D01*
X110457099Y-93410000D01*
X110432595Y-93408796D01*
X110408327Y-93405196D01*
X110384528Y-93399235D01*
X110361429Y-93390970D01*
X110339250Y-93380480D01*
X110318207Y-93367868D01*
X110298501Y-93353253D01*
X110280323Y-93336777D01*
X110263847Y-93318599D01*
X110249232Y-93298893D01*
X110236620Y-93277850D01*
X110226130Y-93255671D01*
X110217865Y-93232572D01*
X110211904Y-93208773D01*
X110208304Y-93184505D01*
X110207100Y-93160001D01*
X110207100Y-92259999D01*
X110208304Y-92235495D01*
X110211904Y-92211227D01*
X110217865Y-92187428D01*
X110226130Y-92164329D01*
X110236620Y-92142150D01*
X110249232Y-92121107D01*
X110263847Y-92101401D01*
X110280323Y-92083223D01*
X110298501Y-92066747D01*
X110318207Y-92052132D01*
X110339250Y-92039520D01*
X110361429Y-92029030D01*
X110384528Y-92020765D01*
X110408327Y-92014804D01*
X110432595Y-92011204D01*
X110457099Y-92010000D01*
X111107101Y-92010000D01*
X111131605Y-92011204D01*
X111131605Y-92011204D01*
G37*
D11*
G04 #@! TD*
G04 #@! TO.P,C22,2*
G04 #@! TO.N,8V*
X110782100Y-92710000D03*
D19*
G04 #@! TO.P,D1,1*
G04 #@! TO.N,Net-(D1-Pad1)*
X184835800Y-87985600D03*
D20*
G04 #@! TO.P,D1,2*
G04 #@! TO.N,PLL_Power*
X174675800Y-87985600D03*
G04 #@! TD*
G04 #@! TO.P,D5,2*
G04 #@! TO.N,Net-(C21-Pad1)*
X102108000Y-87376000D03*
D19*
G04 #@! TO.P,D5,1*
G04 #@! TO.N,Net-(D5-Pad1)*
X112268000Y-87376000D03*
G04 #@! TD*
D21*
G04 #@! TO.P,J1,2*
G04 #@! TO.N,GND*
X185039000Y-96393000D03*
D22*
G04 #@! TO.P,J1,1*
G04 #@! TO.N,Net-(D1-Pad1)*
X185039000Y-93853000D03*
G04 #@! TD*
D16*
G04 #@! TO.N,GND*
G04 #@! TO.C,J2*
X106615000Y-116390000D03*
X97855000Y-116390000D03*
D17*
X106615000Y-115940000D03*
X97855000Y-115940000D03*
D18*
G04 #@! TD*
G04 #@! TO.P,J2,2*
G04 #@! TO.N,GND*
X106615000Y-119380000D03*
G04 #@! TO.P,J2,2*
G04 #@! TO.N,GND*
X97855000Y-119380000D03*
G04 #@! TD*
G04 #@! TO.P,J3,2*
G04 #@! TO.N,GND*
X134558000Y-119380000D03*
X143318000Y-119380000D03*
D17*
G04 #@! TD*
G04 #@! TO.N,GND*
G04 #@! TO.C,J3*
X134558000Y-115940000D03*
G04 #@! TO.N,GND*
G04 #@! TO.C,J3*
X143318000Y-115940000D03*
D16*
X134558000Y-116390000D03*
X143318000Y-116390000D03*
G04 #@! TD*
D22*
G04 #@! TO.P,J4,1*
G04 #@! TO.N,LE*
X166065200Y-108229400D03*
D21*
G04 #@! TO.P,J4,2*
G04 #@! TO.N,Data*
X163525200Y-108229400D03*
G04 #@! TO.P,J4,3*
G04 #@! TO.N,Clock*
X160985200Y-108229400D03*
G04 #@! TO.P,J4,4*
G04 #@! TO.N,GND*
X158445200Y-108229400D03*
G04 #@! TD*
D22*
G04 #@! TO.P,J5,1*
G04 #@! TO.N,Net-(C4-Pad1)*
X95377000Y-103886000D03*
D21*
G04 #@! TO.P,J5,2*
G04 #@! TO.N,Net-(J2-Pad1)*
X95377000Y-106426000D03*
G04 #@! TD*
G04 #@! TO.P,J7,2*
G04 #@! TO.N,Net-(C4-Pad1)*
X89154000Y-103886000D03*
D22*
G04 #@! TO.P,J7,1*
G04 #@! TO.N,Net-(C17-Pad1)*
X86614000Y-103886000D03*
G04 #@! TD*
G04 #@! TO.P,J8,1*
G04 #@! TO.N,Net-(J8-Pad1)*
X107696000Y-108458000D03*
D21*
G04 #@! TO.P,J8,2*
G04 #@! TO.N,GND*
X105156000Y-108458000D03*
G04 #@! TD*
G04 #@! TO.P,J13,2*
G04 #@! TO.N,Net-(J13-Pad2)*
X144018000Y-90424000D03*
D22*
G04 #@! TO.P,J13,1*
G04 #@! TO.N,Net-(C12-Pad2)*
X141478000Y-90424000D03*
G04 #@! TD*
G04 #@! TO.P,J14,1*
G04 #@! TO.N,Net-(C13-Pad1)*
X141478000Y-94361000D03*
D21*
G04 #@! TO.P,J14,2*
G04 #@! TO.N,Net-(J13-Pad2)*
X144018000Y-94361000D03*
G04 #@! TD*
G04 #@! TO.P,J15,2*
G04 #@! TO.N,Net-(J15-Pad2)*
X117602000Y-107696000D03*
D22*
G04 #@! TO.P,J15,1*
G04 #@! TO.N,Net-(C13-Pad1)*
X120142000Y-107696000D03*
G04 #@! TD*
G04 #@! TO.P,J16,1*
G04 #@! TO.N,Net-(C24-Pad1)*
X116840000Y-101600000D03*
D21*
G04 #@! TO.P,J16,2*
G04 #@! TO.N,Net-(J16-Pad2)*
X116840000Y-104140000D03*
G04 #@! TD*
D22*
G04 #@! TO.P,J17,1*
G04 #@! TO.N,GND*
X118618000Y-87376000D03*
D21*
G04 #@! TO.P,J17,2*
G04 #@! TO.N,Net-(D5-Pad1)*
X116078000Y-87376000D03*
G04 #@! TD*
D18*
G04 #@! TO.P,J18,2*
G04 #@! TO.N,GND*
X82234000Y-119380000D03*
X90994000Y-119380000D03*
D17*
G04 #@! TD*
G04 #@! TO.N,GND*
G04 #@! TO.C,J18*
X82234000Y-115940000D03*
G04 #@! TO.N,GND*
G04 #@! TO.C,J18*
X90994000Y-115940000D03*
D16*
X82234000Y-116390000D03*
X90994000Y-116390000D03*
G04 #@! TD*
D21*
G04 #@! TO.P,J20,2*
G04 #@! TO.N,Net-(J13-Pad2)*
X144068800Y-98323400D03*
D22*
G04 #@! TO.P,J20,1*
G04 #@! TO.N,CPo*
X146608800Y-98323400D03*
G04 #@! TD*
D10*
G04 #@! TO.N,Net-(C13-Pad1)*
G04 #@! TO.C,R5*
G36*
X126458505Y-107122204D02*
X126482773Y-107125804D01*
X126506572Y-107131765D01*
X126529671Y-107140030D01*
X126551850Y-107150520D01*
X126572893Y-107163132D01*
X126592599Y-107177747D01*
X126610777Y-107194223D01*
X126627253Y-107212401D01*
X126641868Y-107232107D01*
X126654480Y-107253150D01*
X126664970Y-107275329D01*
X126673235Y-107298428D01*
X126679196Y-107322227D01*
X126682796Y-107346495D01*
X126684000Y-107370999D01*
X126684000Y-108021001D01*
X126682796Y-108045505D01*
X126679196Y-108069773D01*
X126673235Y-108093572D01*
X126664970Y-108116671D01*
X126654480Y-108138850D01*
X126641868Y-108159893D01*
X126627253Y-108179599D01*
X126610777Y-108197777D01*
X126592599Y-108214253D01*
X126572893Y-108228868D01*
X126551850Y-108241480D01*
X126529671Y-108251970D01*
X126506572Y-108260235D01*
X126482773Y-108266196D01*
X126458505Y-108269796D01*
X126434001Y-108271000D01*
X125533999Y-108271000D01*
X125509495Y-108269796D01*
X125485227Y-108266196D01*
X125461428Y-108260235D01*
X125438329Y-108251970D01*
X125416150Y-108241480D01*
X125395107Y-108228868D01*
X125375401Y-108214253D01*
X125357223Y-108197777D01*
X125340747Y-108179599D01*
X125326132Y-108159893D01*
X125313520Y-108138850D01*
X125303030Y-108116671D01*
X125294765Y-108093572D01*
X125288804Y-108069773D01*
X125285204Y-108045505D01*
X125284000Y-108021001D01*
X125284000Y-107370999D01*
X125285204Y-107346495D01*
X125288804Y-107322227D01*
X125294765Y-107298428D01*
X125303030Y-107275329D01*
X125313520Y-107253150D01*
X125326132Y-107232107D01*
X125340747Y-107212401D01*
X125357223Y-107194223D01*
X125375401Y-107177747D01*
X125395107Y-107163132D01*
X125416150Y-107150520D01*
X125438329Y-107140030D01*
X125461428Y-107131765D01*
X125485227Y-107125804D01*
X125509495Y-107122204D01*
X125533999Y-107121000D01*
X126434001Y-107121000D01*
X126458505Y-107122204D01*
X126458505Y-107122204D01*
G37*
D11*
G04 #@! TD*
G04 #@! TO.P,R5,2*
G04 #@! TO.N,Net-(C13-Pad1)*
X125984000Y-107696000D03*
D10*
G04 #@! TO.N,Net-(C14-Pad1)*
G04 #@! TO.C,R5*
G36*
X126458505Y-109172204D02*
X126482773Y-109175804D01*
X126506572Y-109181765D01*
X126529671Y-109190030D01*
X126551850Y-109200520D01*
X126572893Y-109213132D01*
X126592599Y-109227747D01*
X126610777Y-109244223D01*
X126627253Y-109262401D01*
X126641868Y-109282107D01*
X126654480Y-109303150D01*
X126664970Y-109325329D01*
X126673235Y-109348428D01*
X126679196Y-109372227D01*
X126682796Y-109396495D01*
X126684000Y-109420999D01*
X126684000Y-110071001D01*
X126682796Y-110095505D01*
X126679196Y-110119773D01*
X126673235Y-110143572D01*
X126664970Y-110166671D01*
X126654480Y-110188850D01*
X126641868Y-110209893D01*
X126627253Y-110229599D01*
X126610777Y-110247777D01*
X126592599Y-110264253D01*
X126572893Y-110278868D01*
X126551850Y-110291480D01*
X126529671Y-110301970D01*
X126506572Y-110310235D01*
X126482773Y-110316196D01*
X126458505Y-110319796D01*
X126434001Y-110321000D01*
X125533999Y-110321000D01*
X125509495Y-110319796D01*
X125485227Y-110316196D01*
X125461428Y-110310235D01*
X125438329Y-110301970D01*
X125416150Y-110291480D01*
X125395107Y-110278868D01*
X125375401Y-110264253D01*
X125357223Y-110247777D01*
X125340747Y-110229599D01*
X125326132Y-110209893D01*
X125313520Y-110188850D01*
X125303030Y-110166671D01*
X125294765Y-110143572D01*
X125288804Y-110119773D01*
X125285204Y-110095505D01*
X125284000Y-110071001D01*
X125284000Y-109420999D01*
X125285204Y-109396495D01*
X125288804Y-109372227D01*
X125294765Y-109348428D01*
X125303030Y-109325329D01*
X125313520Y-109303150D01*
X125326132Y-109282107D01*
X125340747Y-109262401D01*
X125357223Y-109244223D01*
X125375401Y-109227747D01*
X125395107Y-109213132D01*
X125416150Y-109200520D01*
X125438329Y-109190030D01*
X125461428Y-109181765D01*
X125485227Y-109175804D01*
X125509495Y-109172204D01*
X125533999Y-109171000D01*
X126434001Y-109171000D01*
X126458505Y-109172204D01*
X126458505Y-109172204D01*
G37*
D11*
G04 #@! TD*
G04 #@! TO.P,R5,1*
G04 #@! TO.N,Net-(C14-Pad1)*
X125984000Y-109746000D03*
D10*
G04 #@! TO.N,Net-(C12-Pad2)*
G04 #@! TO.C,R6*
G36*
X120616505Y-103067204D02*
X120640773Y-103070804D01*
X120664572Y-103076765D01*
X120687671Y-103085030D01*
X120709850Y-103095520D01*
X120730893Y-103108132D01*
X120750599Y-103122747D01*
X120768777Y-103139223D01*
X120785253Y-103157401D01*
X120799868Y-103177107D01*
X120812480Y-103198150D01*
X120822970Y-103220329D01*
X120831235Y-103243428D01*
X120837196Y-103267227D01*
X120840796Y-103291495D01*
X120842000Y-103315999D01*
X120842000Y-103966001D01*
X120840796Y-103990505D01*
X120837196Y-104014773D01*
X120831235Y-104038572D01*
X120822970Y-104061671D01*
X120812480Y-104083850D01*
X120799868Y-104104893D01*
X120785253Y-104124599D01*
X120768777Y-104142777D01*
X120750599Y-104159253D01*
X120730893Y-104173868D01*
X120709850Y-104186480D01*
X120687671Y-104196970D01*
X120664572Y-104205235D01*
X120640773Y-104211196D01*
X120616505Y-104214796D01*
X120592001Y-104216000D01*
X119691999Y-104216000D01*
X119667495Y-104214796D01*
X119643227Y-104211196D01*
X119619428Y-104205235D01*
X119596329Y-104196970D01*
X119574150Y-104186480D01*
X119553107Y-104173868D01*
X119533401Y-104159253D01*
X119515223Y-104142777D01*
X119498747Y-104124599D01*
X119484132Y-104104893D01*
X119471520Y-104083850D01*
X119461030Y-104061671D01*
X119452765Y-104038572D01*
X119446804Y-104014773D01*
X119443204Y-103990505D01*
X119442000Y-103966001D01*
X119442000Y-103315999D01*
X119443204Y-103291495D01*
X119446804Y-103267227D01*
X119452765Y-103243428D01*
X119461030Y-103220329D01*
X119471520Y-103198150D01*
X119484132Y-103177107D01*
X119498747Y-103157401D01*
X119515223Y-103139223D01*
X119533401Y-103122747D01*
X119553107Y-103108132D01*
X119574150Y-103095520D01*
X119596329Y-103085030D01*
X119619428Y-103076765D01*
X119643227Y-103070804D01*
X119667495Y-103067204D01*
X119691999Y-103066000D01*
X120592001Y-103066000D01*
X120616505Y-103067204D01*
X120616505Y-103067204D01*
G37*
D11*
G04 #@! TD*
G04 #@! TO.P,R6,2*
G04 #@! TO.N,Net-(C12-Pad2)*
X120142000Y-103641000D03*
D10*
G04 #@! TO.N,Net-(C24-Pad1)*
G04 #@! TO.C,R6*
G36*
X120616505Y-101017204D02*
X120640773Y-101020804D01*
X120664572Y-101026765D01*
X120687671Y-101035030D01*
X120709850Y-101045520D01*
X120730893Y-101058132D01*
X120750599Y-101072747D01*
X120768777Y-101089223D01*
X120785253Y-101107401D01*
X120799868Y-101127107D01*
X120812480Y-101148150D01*
X120822970Y-101170329D01*
X120831235Y-101193428D01*
X120837196Y-101217227D01*
X120840796Y-101241495D01*
X120842000Y-101265999D01*
X120842000Y-101916001D01*
X120840796Y-101940505D01*
X120837196Y-101964773D01*
X120831235Y-101988572D01*
X120822970Y-102011671D01*
X120812480Y-102033850D01*
X120799868Y-102054893D01*
X120785253Y-102074599D01*
X120768777Y-102092777D01*
X120750599Y-102109253D01*
X120730893Y-102123868D01*
X120709850Y-102136480D01*
X120687671Y-102146970D01*
X120664572Y-102155235D01*
X120640773Y-102161196D01*
X120616505Y-102164796D01*
X120592001Y-102166000D01*
X119691999Y-102166000D01*
X119667495Y-102164796D01*
X119643227Y-102161196D01*
X119619428Y-102155235D01*
X119596329Y-102146970D01*
X119574150Y-102136480D01*
X119553107Y-102123868D01*
X119533401Y-102109253D01*
X119515223Y-102092777D01*
X119498747Y-102074599D01*
X119484132Y-102054893D01*
X119471520Y-102033850D01*
X119461030Y-102011671D01*
X119452765Y-101988572D01*
X119446804Y-101964773D01*
X119443204Y-101940505D01*
X119442000Y-101916001D01*
X119442000Y-101265999D01*
X119443204Y-101241495D01*
X119446804Y-101217227D01*
X119452765Y-101193428D01*
X119461030Y-101170329D01*
X119471520Y-101148150D01*
X119484132Y-101127107D01*
X119498747Y-101107401D01*
X119515223Y-101089223D01*
X119533401Y-101072747D01*
X119553107Y-101058132D01*
X119574150Y-101045520D01*
X119596329Y-101035030D01*
X119619428Y-101026765D01*
X119643227Y-101020804D01*
X119667495Y-101017204D01*
X119691999Y-101016000D01*
X120592001Y-101016000D01*
X120616505Y-101017204D01*
X120616505Y-101017204D01*
G37*
D11*
G04 #@! TD*
G04 #@! TO.P,R6,1*
G04 #@! TO.N,Net-(C24-Pad1)*
X120142000Y-101591000D03*
D23*
G04 #@! TO.P,U2,1*
G04 #@! TO.N,Net-(C21-Pad1)*
X95504000Y-87630000D03*
D24*
G04 #@! TO.P,U2,2*
G04 #@! TO.N,GND*
X92964000Y-87630000D03*
G04 #@! TO.P,U2,3*
G04 #@! TO.N,8V*
X90424000Y-87630000D03*
G04 #@! TD*
D25*
G04 #@! TO.N,GND*
X159893000Y-103251000D03*
X168783000Y-95885000D03*
X171577000Y-101219000D03*
D26*
X152273000Y-95123000D03*
D25*
X163449000Y-102489000D03*
X153035000Y-105029000D03*
X148132800Y-101244400D03*
D27*
G04 #@! TO.N,FL*
X159131000Y-91059000D03*
X160401000Y-84328000D03*
G04 #@! TD*
D28*
G04 #@! TO.N,GND*
X171896000Y-116539200D02*
X171896000Y-115889200D01*
X171896000Y-119329200D02*
X171896000Y-116539200D01*
X90994000Y-115940000D02*
X90994000Y-119380000D01*
X106615000Y-115940000D02*
X106615000Y-119380000D01*
G04 #@! TO.N,Net-(C12-Pad2)*
X137940000Y-90424000D02*
X124714000Y-103650000D01*
X141478000Y-90424000D02*
X137940000Y-90424000D01*
X120151000Y-103650000D02*
X120142000Y-103641000D01*
X124714000Y-103650000D02*
X120151000Y-103650000D01*
G04 #@! TO.N,8V*
X110778100Y-92706000D02*
X110782100Y-92710000D01*
D29*
X108204000Y-92706000D02*
X110778100Y-92706000D01*
D28*
X108204000Y-90601800D02*
X108267500Y-90538300D01*
D29*
X108204000Y-92706000D02*
X108204000Y-90601800D01*
D28*
X107592500Y-90538300D02*
X108267500Y-90538300D01*
D29*
X91847376Y-90538300D02*
X107592500Y-90538300D01*
X90424000Y-89114924D02*
X91847376Y-90538300D01*
X90424000Y-87630000D02*
X90424000Y-89114924D01*
D28*
X87172800Y-87630000D02*
X86626700Y-88176100D01*
D29*
X90424000Y-87630000D02*
X87172800Y-87630000D01*
D28*
X86626700Y-90164700D02*
X86644700Y-90182700D01*
D29*
X86626700Y-88176100D02*
X86626700Y-90164700D01*
D28*
X86644700Y-92349100D02*
X86512400Y-92481400D01*
D29*
X86644700Y-90182700D02*
X86644700Y-92349100D01*
D28*
G04 #@! TO.N,Net-(C21-Pad1)*
X99323000Y-87376000D02*
X99314000Y-87385000D01*
D29*
X102108000Y-87376000D02*
X99323000Y-87376000D01*
D28*
X95749000Y-87385000D02*
X95504000Y-87630000D01*
D29*
X99314000Y-87385000D02*
X95749000Y-87385000D01*
G04 #@! TO.N,Net-(D5-Pad1)*
X114663787Y-87376000D02*
X112268000Y-87376000D01*
X116078000Y-87376000D02*
X114663787Y-87376000D01*
D28*
G04 #@! TO.N,FL*
X160401000Y-89789000D02*
X159131000Y-91059000D01*
X160401000Y-84328000D02*
X160401000Y-89789000D01*
G04 #@! TO.N,Net-(C13-Pad1)*
X139319000Y-94361000D02*
X125984000Y-107696000D01*
X141478000Y-94361000D02*
X139319000Y-94361000D01*
X123367800Y-107696000D02*
X123355100Y-107683300D01*
X125984000Y-107696000D02*
X123367800Y-107696000D01*
X120154700Y-107683300D02*
X120142000Y-107696000D01*
X123355100Y-107683300D02*
X120154700Y-107683300D01*
G04 #@! TO.N,Net-(C14-Pad1)*
X126002000Y-109728000D02*
X125984000Y-109746000D01*
X128270000Y-109728000D02*
X126002000Y-109728000D01*
G04 #@! TO.N,Net-(C23-Pad1)*
X122428000Y-101600000D02*
X122428000Y-99568000D01*
G04 #@! TO.N,Net-(C24-Pad1)*
X120142000Y-101591000D02*
X120142000Y-99586000D01*
X120133000Y-101600000D02*
X120142000Y-101591000D01*
X116840000Y-101600000D02*
X120133000Y-101600000D01*
G04 #@! TD*
D30*
G04 #@! TO.N,GND*
G36*
X137666000Y-76327691D02*
X137666000Y-78708250D01*
X137824750Y-78867000D01*
X139384000Y-78867000D01*
X139384000Y-78847000D01*
X139638000Y-78847000D01*
X139638000Y-78867000D01*
X141197250Y-78867000D01*
X141356000Y-78708250D01*
X141356000Y-76327691D01*
X141355714Y-76327000D01*
X146426286Y-76327000D01*
X146426000Y-76327691D01*
X146426000Y-78708250D01*
X146584750Y-78867000D01*
X148144000Y-78867000D01*
X148144000Y-78847000D01*
X148398000Y-78847000D01*
X148398000Y-78867000D01*
X149957250Y-78867000D01*
X150116000Y-78708250D01*
X150116000Y-76327691D01*
X150115714Y-76327000D01*
X154049000Y-76327000D01*
X154049000Y-78454250D01*
X154207750Y-78613000D01*
X155767000Y-78613000D01*
X155767000Y-78593000D01*
X156021000Y-78593000D01*
X156021000Y-78613000D01*
X157580250Y-78613000D01*
X157739000Y-78454250D01*
X157739000Y-76327000D01*
X162809000Y-76327000D01*
X162809000Y-78454250D01*
X162967750Y-78613000D01*
X164527000Y-78613000D01*
X164527000Y-78593000D01*
X164781000Y-78593000D01*
X164781000Y-78613000D01*
X166340250Y-78613000D01*
X166499000Y-78454250D01*
X166499000Y-76327000D01*
X187833000Y-76327000D01*
X187833000Y-121793000D01*
X182501000Y-121793000D01*
X182501000Y-119614950D01*
X182342250Y-119456200D01*
X180783000Y-119456200D01*
X180783000Y-119476200D01*
X180529000Y-119476200D01*
X180529000Y-119456200D01*
X178969750Y-119456200D01*
X178811000Y-119614950D01*
X178811000Y-121793000D01*
X173741000Y-121793000D01*
X173741000Y-119614950D01*
X173582250Y-119456200D01*
X172023000Y-119456200D01*
X172023000Y-119476200D01*
X171769000Y-119476200D01*
X171769000Y-119456200D01*
X170209750Y-119456200D01*
X170051000Y-119614950D01*
X170051000Y-121793000D01*
X164289200Y-121793000D01*
X164289200Y-119665750D01*
X164130450Y-119507000D01*
X162571200Y-119507000D01*
X162571200Y-119527000D01*
X162317200Y-119527000D01*
X162317200Y-119507000D01*
X160757950Y-119507000D01*
X160599200Y-119665750D01*
X160599200Y-121793000D01*
X155529200Y-121793000D01*
X155529200Y-119665750D01*
X155370450Y-119507000D01*
X153811200Y-119507000D01*
X153811200Y-119527000D01*
X153557200Y-119527000D01*
X153557200Y-119507000D01*
X151997950Y-119507000D01*
X151839200Y-119665750D01*
X151839200Y-121793000D01*
X145163000Y-121793000D01*
X145163000Y-119665750D01*
X145004250Y-119507000D01*
X143445000Y-119507000D01*
X143445000Y-119527000D01*
X143191000Y-119527000D01*
X143191000Y-119507000D01*
X141631750Y-119507000D01*
X141473000Y-119665750D01*
X141473000Y-121793000D01*
X136403000Y-121793000D01*
X136403000Y-119665750D01*
X136244250Y-119507000D01*
X134685000Y-119507000D01*
X134685000Y-119527000D01*
X134431000Y-119527000D01*
X134431000Y-119507000D01*
X132871750Y-119507000D01*
X132713000Y-119665750D01*
X132713000Y-121793000D01*
X108460000Y-121793000D01*
X108460000Y-119665750D01*
X108301250Y-119507000D01*
X106742000Y-119507000D01*
X106742000Y-119527000D01*
X106488000Y-119527000D01*
X106488000Y-119507000D01*
X104928750Y-119507000D01*
X104770000Y-119665750D01*
X104770000Y-121793000D01*
X99700000Y-121793000D01*
X99700000Y-119665750D01*
X99541250Y-119507000D01*
X97982000Y-119507000D01*
X97982000Y-119527000D01*
X97728000Y-119527000D01*
X97728000Y-119507000D01*
X96168750Y-119507000D01*
X96010000Y-119665750D01*
X96010000Y-121793000D01*
X92839000Y-121793000D01*
X92839000Y-119665750D01*
X92680250Y-119507000D01*
X91121000Y-119507000D01*
X91121000Y-119527000D01*
X90867000Y-119527000D01*
X90867000Y-119507000D01*
X89307750Y-119507000D01*
X89149000Y-119665750D01*
X89149000Y-121793000D01*
X84079000Y-121793000D01*
X84079000Y-119665750D01*
X83920250Y-119507000D01*
X82361000Y-119507000D01*
X82361000Y-119527000D01*
X82107000Y-119527000D01*
X82107000Y-119507000D01*
X80547750Y-119507000D01*
X80389000Y-119665750D01*
X80389000Y-121793000D01*
X78867000Y-121793000D01*
X78867000Y-116713691D01*
X80389000Y-116713691D01*
X80389000Y-119094250D01*
X80547750Y-119253000D01*
X82107000Y-119253000D01*
X82107000Y-119233000D01*
X82361000Y-119233000D01*
X82361000Y-119253000D01*
X83920250Y-119253000D01*
X84079000Y-119094250D01*
X84079000Y-116713691D01*
X89149000Y-116713691D01*
X89149000Y-119094250D01*
X89307750Y-119253000D01*
X90867000Y-119253000D01*
X90867000Y-119233000D01*
X91121000Y-119233000D01*
X91121000Y-119253000D01*
X92680250Y-119253000D01*
X92839000Y-119094250D01*
X92839000Y-116713691D01*
X96010000Y-116713691D01*
X96010000Y-119094250D01*
X96168750Y-119253000D01*
X97728000Y-119253000D01*
X97728000Y-119233000D01*
X97982000Y-119233000D01*
X97982000Y-119253000D01*
X99541250Y-119253000D01*
X99700000Y-119094250D01*
X99700000Y-116713691D01*
X104770000Y-116713691D01*
X104770000Y-119094250D01*
X104928750Y-119253000D01*
X106488000Y-119253000D01*
X106488000Y-119233000D01*
X106742000Y-119233000D01*
X106742000Y-119253000D01*
X108301250Y-119253000D01*
X108460000Y-119094250D01*
X108460000Y-116713691D01*
X132713000Y-116713691D01*
X132713000Y-119094250D01*
X132871750Y-119253000D01*
X134431000Y-119253000D01*
X134431000Y-119233000D01*
X134685000Y-119233000D01*
X134685000Y-119253000D01*
X136244250Y-119253000D01*
X136403000Y-119094250D01*
X136403000Y-116713691D01*
X141473000Y-116713691D01*
X141473000Y-119094250D01*
X141631750Y-119253000D01*
X143191000Y-119253000D01*
X143191000Y-119233000D01*
X143445000Y-119233000D01*
X143445000Y-119253000D01*
X145004250Y-119253000D01*
X145163000Y-119094250D01*
X145163000Y-116713691D01*
X151839200Y-116713691D01*
X151839200Y-119094250D01*
X151997950Y-119253000D01*
X153557200Y-119253000D01*
X153557200Y-119233000D01*
X153811200Y-119233000D01*
X153811200Y-119253000D01*
X155370450Y-119253000D01*
X155529200Y-119094250D01*
X155529200Y-116713691D01*
X160599200Y-116713691D01*
X160599200Y-119094250D01*
X160757950Y-119253000D01*
X162317200Y-119253000D01*
X162317200Y-119233000D01*
X162571200Y-119233000D01*
X162571200Y-119253000D01*
X164130450Y-119253000D01*
X164289200Y-119094250D01*
X164289200Y-116713691D01*
X164268158Y-116662891D01*
X170051000Y-116662891D01*
X170051000Y-119043450D01*
X170209750Y-119202200D01*
X171769000Y-119202200D01*
X171769000Y-119182200D01*
X172023000Y-119182200D01*
X172023000Y-119202200D01*
X173582250Y-119202200D01*
X173741000Y-119043450D01*
X173741000Y-116662891D01*
X178811000Y-116662891D01*
X178811000Y-119043450D01*
X178969750Y-119202200D01*
X180529000Y-119202200D01*
X180529000Y-119182200D01*
X180783000Y-119182200D01*
X180783000Y-119202200D01*
X182342250Y-119202200D01*
X182501000Y-119043450D01*
X182501000Y-116662891D01*
X182404327Y-116429502D01*
X182225699Y-116250873D01*
X181992310Y-116154200D01*
X181748129Y-116154200D01*
X181789149Y-116030636D01*
X181757018Y-115586232D01*
X181648768Y-115324892D01*
X181435200Y-115289605D01*
X181322315Y-115402490D01*
X181245699Y-115325873D01*
X181100051Y-115265544D01*
X181255595Y-115110000D01*
X181220308Y-114896432D01*
X180797436Y-114756051D01*
X180353032Y-114788182D01*
X180091692Y-114896432D01*
X180056405Y-115110000D01*
X180211949Y-115265544D01*
X180066301Y-115325873D01*
X179989685Y-115402490D01*
X179876800Y-115289605D01*
X179663232Y-115324892D01*
X179522851Y-115747764D01*
X179552237Y-116154200D01*
X179319690Y-116154200D01*
X179086301Y-116250873D01*
X178907673Y-116429502D01*
X178811000Y-116662891D01*
X173741000Y-116662891D01*
X173644327Y-116429502D01*
X173465699Y-116250873D01*
X173232310Y-116154200D01*
X172988129Y-116154200D01*
X173029149Y-116030636D01*
X172997018Y-115586232D01*
X172888768Y-115324892D01*
X172675200Y-115289605D01*
X172562315Y-115402490D01*
X172485699Y-115325873D01*
X172340051Y-115265544D01*
X172495595Y-115110000D01*
X172460308Y-114896432D01*
X172037436Y-114756051D01*
X171593032Y-114788182D01*
X171331692Y-114896432D01*
X171296405Y-115110000D01*
X171451949Y-115265544D01*
X171306301Y-115325873D01*
X171229685Y-115402490D01*
X171116800Y-115289605D01*
X170903232Y-115324892D01*
X170762851Y-115747764D01*
X170792237Y-116154200D01*
X170559690Y-116154200D01*
X170326301Y-116250873D01*
X170147673Y-116429502D01*
X170051000Y-116662891D01*
X164268158Y-116662891D01*
X164192527Y-116480302D01*
X164013899Y-116301673D01*
X163780510Y-116205000D01*
X163536329Y-116205000D01*
X163577349Y-116081436D01*
X163545218Y-115637032D01*
X163436968Y-115375692D01*
X163223400Y-115340405D01*
X163110515Y-115453290D01*
X163033899Y-115376673D01*
X162888251Y-115316344D01*
X163043795Y-115160800D01*
X163008508Y-114947232D01*
X162585636Y-114806851D01*
X162141232Y-114838982D01*
X161879892Y-114947232D01*
X161844605Y-115160800D01*
X162000149Y-115316344D01*
X161854501Y-115376673D01*
X161777885Y-115453290D01*
X161665000Y-115340405D01*
X161451432Y-115375692D01*
X161311051Y-115798564D01*
X161340437Y-116205000D01*
X161107890Y-116205000D01*
X160874501Y-116301673D01*
X160695873Y-116480302D01*
X160599200Y-116713691D01*
X155529200Y-116713691D01*
X155432527Y-116480302D01*
X155253899Y-116301673D01*
X155020510Y-116205000D01*
X154776329Y-116205000D01*
X154817349Y-116081436D01*
X154785218Y-115637032D01*
X154676968Y-115375692D01*
X154463400Y-115340405D01*
X154350515Y-115453290D01*
X154273899Y-115376673D01*
X154128251Y-115316344D01*
X154283795Y-115160800D01*
X154248508Y-114947232D01*
X153825636Y-114806851D01*
X153381232Y-114838982D01*
X153119892Y-114947232D01*
X153084605Y-115160800D01*
X153240149Y-115316344D01*
X153094501Y-115376673D01*
X153017885Y-115453290D01*
X152905000Y-115340405D01*
X152691432Y-115375692D01*
X152551051Y-115798564D01*
X152580437Y-116205000D01*
X152347890Y-116205000D01*
X152114501Y-116301673D01*
X151935873Y-116480302D01*
X151839200Y-116713691D01*
X145163000Y-116713691D01*
X145066327Y-116480302D01*
X144887699Y-116301673D01*
X144654310Y-116205000D01*
X144410129Y-116205000D01*
X144451149Y-116081436D01*
X144419018Y-115637032D01*
X144310768Y-115375692D01*
X144097200Y-115340405D01*
X143984315Y-115453290D01*
X143907699Y-115376673D01*
X143762051Y-115316344D01*
X143917595Y-115160800D01*
X143882308Y-114947232D01*
X143459436Y-114806851D01*
X143015032Y-114838982D01*
X142753692Y-114947232D01*
X142718405Y-115160800D01*
X142873949Y-115316344D01*
X142728301Y-115376673D01*
X142651685Y-115453290D01*
X142538800Y-115340405D01*
X142325232Y-115375692D01*
X142184851Y-115798564D01*
X142214237Y-116205000D01*
X141981690Y-116205000D01*
X141748301Y-116301673D01*
X141569673Y-116480302D01*
X141473000Y-116713691D01*
X136403000Y-116713691D01*
X136306327Y-116480302D01*
X136127699Y-116301673D01*
X135894310Y-116205000D01*
X135650129Y-116205000D01*
X135691149Y-116081436D01*
X135659018Y-115637032D01*
X135550768Y-115375692D01*
X135337200Y-115340405D01*
X135224315Y-115453290D01*
X135147699Y-115376673D01*
X135002051Y-115316344D01*
X135157595Y-115160800D01*
X135122308Y-114947232D01*
X134699436Y-114806851D01*
X134255032Y-114838982D01*
X133993692Y-114947232D01*
X133958405Y-115160800D01*
X134113949Y-115316344D01*
X133968301Y-115376673D01*
X133891685Y-115453290D01*
X133778800Y-115340405D01*
X133565232Y-115375692D01*
X133424851Y-115798564D01*
X133454237Y-116205000D01*
X133221690Y-116205000D01*
X132988301Y-116301673D01*
X132809673Y-116480302D01*
X132713000Y-116713691D01*
X108460000Y-116713691D01*
X108363327Y-116480302D01*
X108184699Y-116301673D01*
X107951310Y-116205000D01*
X107707129Y-116205000D01*
X107748149Y-116081436D01*
X107716018Y-115637032D01*
X107607768Y-115375692D01*
X107394200Y-115340405D01*
X107281315Y-115453290D01*
X107204699Y-115376673D01*
X107059051Y-115316344D01*
X107214595Y-115160800D01*
X107179308Y-114947232D01*
X106756436Y-114806851D01*
X106312032Y-114838982D01*
X106050692Y-114947232D01*
X106015405Y-115160800D01*
X106170949Y-115316344D01*
X106025301Y-115376673D01*
X105948685Y-115453290D01*
X105835800Y-115340405D01*
X105622232Y-115375692D01*
X105481851Y-115798564D01*
X105511237Y-116205000D01*
X105278690Y-116205000D01*
X105045301Y-116301673D01*
X104866673Y-116480302D01*
X104770000Y-116713691D01*
X99700000Y-116713691D01*
X99603327Y-116480302D01*
X99424699Y-116301673D01*
X99191310Y-116205000D01*
X98947129Y-116205000D01*
X98988149Y-116081436D01*
X98956018Y-115637032D01*
X98847768Y-115375692D01*
X98634200Y-115340405D01*
X98521315Y-115453290D01*
X98444699Y-115376673D01*
X98299051Y-115316344D01*
X98454595Y-115160800D01*
X98419308Y-114947232D01*
X97996436Y-114806851D01*
X97552032Y-114838982D01*
X97290692Y-114947232D01*
X97255405Y-115160800D01*
X97410949Y-115316344D01*
X97265301Y-115376673D01*
X97188685Y-115453290D01*
X97075800Y-115340405D01*
X96862232Y-115375692D01*
X96721851Y-115798564D01*
X96751237Y-116205000D01*
X96518690Y-116205000D01*
X96285301Y-116301673D01*
X96106673Y-116480302D01*
X96010000Y-116713691D01*
X92839000Y-116713691D01*
X92742327Y-116480302D01*
X92563699Y-116301673D01*
X92330310Y-116205000D01*
X92086129Y-116205000D01*
X92127149Y-116081436D01*
X92095018Y-115637032D01*
X91986768Y-115375692D01*
X91773200Y-115340405D01*
X91660315Y-115453290D01*
X91583699Y-115376673D01*
X91438051Y-115316344D01*
X91593595Y-115160800D01*
X91558308Y-114947232D01*
X91135436Y-114806851D01*
X90691032Y-114838982D01*
X90429692Y-114947232D01*
X90394405Y-115160800D01*
X90549949Y-115316344D01*
X90404301Y-115376673D01*
X90327685Y-115453290D01*
X90214800Y-115340405D01*
X90001232Y-115375692D01*
X89860851Y-115798564D01*
X89890237Y-116205000D01*
X89657690Y-116205000D01*
X89424301Y-116301673D01*
X89245673Y-116480302D01*
X89149000Y-116713691D01*
X84079000Y-116713691D01*
X83982327Y-116480302D01*
X83803699Y-116301673D01*
X83570310Y-116205000D01*
X83326129Y-116205000D01*
X83367149Y-116081436D01*
X83335018Y-115637032D01*
X83226768Y-115375692D01*
X83013200Y-115340405D01*
X82900315Y-115453290D01*
X82823699Y-115376673D01*
X82678051Y-115316344D01*
X82833595Y-115160800D01*
X82798308Y-114947232D01*
X82375436Y-114806851D01*
X81931032Y-114838982D01*
X81669692Y-114947232D01*
X81634405Y-115160800D01*
X81789949Y-115316344D01*
X81644301Y-115376673D01*
X81567685Y-115453290D01*
X81454800Y-115340405D01*
X81241232Y-115375692D01*
X81100851Y-115798564D01*
X81130237Y-116205000D01*
X80897690Y-116205000D01*
X80664301Y-116301673D01*
X80485673Y-116480302D01*
X80389000Y-116713691D01*
X78867000Y-116713691D01*
X78867000Y-112063750D01*
X126935000Y-112063750D01*
X126935000Y-112479309D01*
X127031673Y-112712698D01*
X127210301Y-112891327D01*
X127443690Y-112988000D01*
X127984250Y-112988000D01*
X128143000Y-112829250D01*
X128143000Y-111905000D01*
X128397000Y-111905000D01*
X128397000Y-112829250D01*
X128555750Y-112988000D01*
X129096310Y-112988000D01*
X129329699Y-112891327D01*
X129508327Y-112712698D01*
X129605000Y-112479309D01*
X129605000Y-112063750D01*
X129446250Y-111905000D01*
X128397000Y-111905000D01*
X128143000Y-111905000D01*
X127093750Y-111905000D01*
X126935000Y-112063750D01*
X78867000Y-112063750D01*
X78867000Y-108838435D01*
X103565867Y-108838435D01*
X103832495Y-109417994D01*
X104300615Y-109851402D01*
X104775566Y-110048124D01*
X105029000Y-109928777D01*
X105029000Y-108585000D01*
X103684681Y-108585000D01*
X103565867Y-108838435D01*
X78867000Y-108838435D01*
X78867000Y-108077565D01*
X103565867Y-108077565D01*
X103684681Y-108331000D01*
X105029000Y-108331000D01*
X105029000Y-106987223D01*
X105283000Y-106987223D01*
X105283000Y-108331000D01*
X105303000Y-108331000D01*
X105303000Y-108585000D01*
X105283000Y-108585000D01*
X105283000Y-109928777D01*
X105536434Y-110048124D01*
X106011385Y-109851402D01*
X106124919Y-109746287D01*
X106238191Y-109915809D01*
X106448235Y-110056157D01*
X106696000Y-110105440D01*
X108696000Y-110105440D01*
X108943765Y-110056157D01*
X108999299Y-110019050D01*
X122020100Y-110019050D01*
X122020100Y-110434609D01*
X122116773Y-110667998D01*
X122295401Y-110846627D01*
X122528790Y-110943300D01*
X123069350Y-110943300D01*
X123228100Y-110784550D01*
X123228100Y-109860300D01*
X122178850Y-109860300D01*
X122020100Y-110019050D01*
X108999299Y-110019050D01*
X109153809Y-109915809D01*
X109294157Y-109705765D01*
X109343440Y-109458000D01*
X109343440Y-107696000D01*
X115934969Y-107696000D01*
X116061864Y-108333945D01*
X116423231Y-108874769D01*
X116964055Y-109236136D01*
X117440969Y-109331000D01*
X117763031Y-109331000D01*
X118239945Y-109236136D01*
X118585100Y-109005511D01*
X118684191Y-109153809D01*
X118894235Y-109294157D01*
X119142000Y-109343440D01*
X121142000Y-109343440D01*
X121389765Y-109294157D01*
X121599809Y-109153809D01*
X121740157Y-108943765D01*
X121789440Y-108696000D01*
X121789440Y-108443300D01*
X122137154Y-108443300D01*
X122270514Y-108642886D01*
X122271697Y-108643677D01*
X122116773Y-108798602D01*
X122020100Y-109031991D01*
X122020100Y-109447550D01*
X122178850Y-109606300D01*
X123228100Y-109606300D01*
X123228100Y-109586300D01*
X123482100Y-109586300D01*
X123482100Y-109606300D01*
X123502100Y-109606300D01*
X123502100Y-109860300D01*
X123482100Y-109860300D01*
X123482100Y-110784550D01*
X123640850Y-110943300D01*
X124181410Y-110943300D01*
X124414799Y-110846627D01*
X124593427Y-110667998D01*
X124690100Y-110434609D01*
X124690100Y-110340167D01*
X124704873Y-110414436D01*
X124899414Y-110705586D01*
X125190564Y-110900127D01*
X125533999Y-110968440D01*
X126434001Y-110968440D01*
X126777436Y-110900127D01*
X127068586Y-110705586D01*
X127133014Y-110609164D01*
X127185414Y-110687586D01*
X127186597Y-110688377D01*
X127031673Y-110843302D01*
X126935000Y-111076691D01*
X126935000Y-111492250D01*
X127093750Y-111651000D01*
X128143000Y-111651000D01*
X128143000Y-111631000D01*
X128397000Y-111631000D01*
X128397000Y-111651000D01*
X129446250Y-111651000D01*
X129605000Y-111492250D01*
X129605000Y-111076691D01*
X129508327Y-110843302D01*
X129353403Y-110688377D01*
X129354586Y-110687586D01*
X129549127Y-110396436D01*
X129617440Y-110053001D01*
X129617440Y-109402999D01*
X129549127Y-109059564D01*
X129354586Y-108768414D01*
X129117257Y-108609835D01*
X156855067Y-108609835D01*
X157121695Y-109189394D01*
X157589815Y-109622802D01*
X158064766Y-109819524D01*
X158318200Y-109700177D01*
X158318200Y-108356400D01*
X156973881Y-108356400D01*
X156855067Y-108609835D01*
X129117257Y-108609835D01*
X129063436Y-108573873D01*
X128720001Y-108505560D01*
X127819999Y-108505560D01*
X127476564Y-108573873D01*
X127185414Y-108768414D01*
X127120986Y-108864836D01*
X127068586Y-108786414D01*
X126970687Y-108721000D01*
X127068586Y-108655586D01*
X127263127Y-108364436D01*
X127331440Y-108021001D01*
X127331440Y-107848965D01*
X156855067Y-107848965D01*
X156973881Y-108102400D01*
X158318200Y-108102400D01*
X158318200Y-106758623D01*
X158572200Y-106758623D01*
X158572200Y-108102400D01*
X158592200Y-108102400D01*
X158592200Y-108356400D01*
X158572200Y-108356400D01*
X158572200Y-109700177D01*
X158825634Y-109819524D01*
X159300585Y-109622802D01*
X159701701Y-109251429D01*
X159806431Y-109408169D01*
X160347255Y-109769536D01*
X160824169Y-109864400D01*
X161146231Y-109864400D01*
X161623145Y-109769536D01*
X162163969Y-109408169D01*
X162255200Y-109271632D01*
X162346431Y-109408169D01*
X162887255Y-109769536D01*
X163364169Y-109864400D01*
X163686231Y-109864400D01*
X164163145Y-109769536D01*
X164508300Y-109538911D01*
X164607391Y-109687209D01*
X164817435Y-109827557D01*
X165065200Y-109876840D01*
X167065200Y-109876840D01*
X167312965Y-109827557D01*
X167523009Y-109687209D01*
X167663357Y-109477165D01*
X167712640Y-109229400D01*
X167712640Y-107229400D01*
X167663357Y-106981635D01*
X167523009Y-106771591D01*
X167312965Y-106631243D01*
X167065200Y-106581960D01*
X165065200Y-106581960D01*
X164817435Y-106631243D01*
X164607391Y-106771591D01*
X164508300Y-106919889D01*
X164163145Y-106689264D01*
X163686231Y-106594400D01*
X163364169Y-106594400D01*
X162887255Y-106689264D01*
X162346431Y-107050631D01*
X162255200Y-107187168D01*
X162163969Y-107050631D01*
X161623145Y-106689264D01*
X161146231Y-106594400D01*
X160824169Y-106594400D01*
X160347255Y-106689264D01*
X159806431Y-107050631D01*
X159701701Y-107207371D01*
X159300585Y-106835998D01*
X158825634Y-106639276D01*
X158572200Y-106758623D01*
X158318200Y-106758623D01*
X158064766Y-106639276D01*
X157589815Y-106835998D01*
X157121695Y-107269406D01*
X156855067Y-107848965D01*
X127331440Y-107848965D01*
X127331440Y-107423361D01*
X136431401Y-98323400D01*
X142401769Y-98323400D01*
X142528664Y-98961345D01*
X142890031Y-99502169D01*
X143430855Y-99863536D01*
X143907769Y-99958400D01*
X144229831Y-99958400D01*
X144706745Y-99863536D01*
X145051900Y-99632911D01*
X145150991Y-99781209D01*
X145361035Y-99921557D01*
X145608800Y-99970840D01*
X147608800Y-99970840D01*
X147856565Y-99921557D01*
X148066609Y-99781209D01*
X148206957Y-99571165D01*
X148256240Y-99323400D01*
X148256240Y-97323400D01*
X148206957Y-97075635D01*
X148066609Y-96865591D01*
X147928688Y-96773434D01*
X183448876Y-96773434D01*
X183645598Y-97248385D01*
X184079006Y-97716505D01*
X184658565Y-97983133D01*
X184912000Y-97864319D01*
X184912000Y-96520000D01*
X185166000Y-96520000D01*
X185166000Y-97864319D01*
X185419435Y-97983133D01*
X185998994Y-97716505D01*
X186432402Y-97248385D01*
X186629124Y-96773434D01*
X186509777Y-96520000D01*
X185166000Y-96520000D01*
X184912000Y-96520000D01*
X183568223Y-96520000D01*
X183448876Y-96773434D01*
X147928688Y-96773434D01*
X147856565Y-96725243D01*
X147608800Y-96675960D01*
X145608800Y-96675960D01*
X145361035Y-96725243D01*
X145150991Y-96865591D01*
X145051900Y-97013889D01*
X144706745Y-96783264D01*
X144229831Y-96688400D01*
X143907769Y-96688400D01*
X143430855Y-96783264D01*
X142890031Y-97144631D01*
X142528664Y-97685455D01*
X142401769Y-98323400D01*
X136431401Y-98323400D01*
X139633802Y-95121000D01*
X139830560Y-95121000D01*
X139830560Y-95361000D01*
X139879843Y-95608765D01*
X140020191Y-95818809D01*
X140230235Y-95959157D01*
X140478000Y-96008440D01*
X142478000Y-96008440D01*
X142725765Y-95959157D01*
X142935809Y-95818809D01*
X143034900Y-95670511D01*
X143380055Y-95901136D01*
X143856969Y-95996000D01*
X144179031Y-95996000D01*
X144655945Y-95901136D01*
X145196769Y-95539769D01*
X145558136Y-94998945D01*
X145685031Y-94361000D01*
X145558136Y-93723055D01*
X145196769Y-93182231D01*
X144704040Y-92853000D01*
X183391560Y-92853000D01*
X183391560Y-94853000D01*
X183440843Y-95100765D01*
X183581191Y-95310809D01*
X183750713Y-95424081D01*
X183645598Y-95537615D01*
X183448876Y-96012566D01*
X183568223Y-96266000D01*
X184912000Y-96266000D01*
X184912000Y-96246000D01*
X185166000Y-96246000D01*
X185166000Y-96266000D01*
X186509777Y-96266000D01*
X186629124Y-96012566D01*
X186432402Y-95537615D01*
X186327287Y-95424081D01*
X186496809Y-95310809D01*
X186637157Y-95100765D01*
X186686440Y-94853000D01*
X186686440Y-92853000D01*
X186637157Y-92605235D01*
X186496809Y-92395191D01*
X186286765Y-92254843D01*
X186039000Y-92205560D01*
X184039000Y-92205560D01*
X183791235Y-92254843D01*
X183581191Y-92395191D01*
X183440843Y-92605235D01*
X183391560Y-92853000D01*
X144704040Y-92853000D01*
X144655945Y-92820864D01*
X144179031Y-92726000D01*
X143856969Y-92726000D01*
X143380055Y-92820864D01*
X143034900Y-93051489D01*
X142935809Y-92903191D01*
X142725765Y-92762843D01*
X142478000Y-92713560D01*
X140478000Y-92713560D01*
X140230235Y-92762843D01*
X140020191Y-92903191D01*
X139879843Y-93113235D01*
X139830560Y-93361000D01*
X139830560Y-93601000D01*
X139393847Y-93601000D01*
X139319000Y-93586112D01*
X139244153Y-93601000D01*
X139244148Y-93601000D01*
X139022463Y-93645096D01*
X138771071Y-93813071D01*
X138728671Y-93876527D01*
X126131639Y-106473560D01*
X125533999Y-106473560D01*
X125190564Y-106541873D01*
X124899414Y-106736414D01*
X124766054Y-106936000D01*
X124581532Y-106936000D01*
X124439686Y-106723714D01*
X124148536Y-106529173D01*
X123805101Y-106460860D01*
X122905099Y-106460860D01*
X122561664Y-106529173D01*
X122270514Y-106723714D01*
X122137154Y-106923300D01*
X121789440Y-106923300D01*
X121789440Y-106696000D01*
X121740157Y-106448235D01*
X121599809Y-106238191D01*
X121389765Y-106097843D01*
X121142000Y-106048560D01*
X119142000Y-106048560D01*
X118894235Y-106097843D01*
X118684191Y-106238191D01*
X118585100Y-106386489D01*
X118239945Y-106155864D01*
X117763031Y-106061000D01*
X117440969Y-106061000D01*
X116964055Y-106155864D01*
X116423231Y-106517231D01*
X116061864Y-107058055D01*
X115934969Y-107696000D01*
X109343440Y-107696000D01*
X109343440Y-107458000D01*
X109294157Y-107210235D01*
X109153809Y-107000191D01*
X108943765Y-106859843D01*
X108696000Y-106810560D01*
X106696000Y-106810560D01*
X106448235Y-106859843D01*
X106238191Y-107000191D01*
X106124919Y-107169713D01*
X106011385Y-107064598D01*
X105536434Y-106867876D01*
X105283000Y-106987223D01*
X105029000Y-106987223D01*
X104775566Y-106867876D01*
X104300615Y-107064598D01*
X103832495Y-107498006D01*
X103565867Y-108077565D01*
X78867000Y-108077565D01*
X78867000Y-106426000D01*
X93709969Y-106426000D01*
X93836864Y-107063945D01*
X94198231Y-107604769D01*
X94739055Y-107966136D01*
X95215969Y-108061000D01*
X95538031Y-108061000D01*
X96014945Y-107966136D01*
X96555769Y-107604769D01*
X96917136Y-107063945D01*
X97044031Y-106426000D01*
X96917136Y-105788055D01*
X96686511Y-105442900D01*
X96834809Y-105343809D01*
X96975157Y-105133765D01*
X97024440Y-104886000D01*
X97024440Y-104140000D01*
X115172969Y-104140000D01*
X115299864Y-104777945D01*
X115661231Y-105318769D01*
X116202055Y-105680136D01*
X116678969Y-105775000D01*
X117001031Y-105775000D01*
X117477945Y-105680136D01*
X118018769Y-105318769D01*
X118380136Y-104777945D01*
X118507031Y-104140000D01*
X118380136Y-103502055D01*
X118149511Y-103156900D01*
X118297809Y-103057809D01*
X118438157Y-102847765D01*
X118487440Y-102600000D01*
X118487440Y-102360000D01*
X118930068Y-102360000D01*
X119057414Y-102550586D01*
X119155313Y-102616000D01*
X119057414Y-102681414D01*
X118862873Y-102972564D01*
X118794560Y-103315999D01*
X118794560Y-103966001D01*
X118862873Y-104309436D01*
X119057414Y-104600586D01*
X119348564Y-104795127D01*
X119691999Y-104863440D01*
X120592001Y-104863440D01*
X120935436Y-104795127D01*
X121226586Y-104600586D01*
X121281993Y-104517664D01*
X121343414Y-104609586D01*
X121634564Y-104804127D01*
X121977999Y-104872440D01*
X122878001Y-104872440D01*
X123221436Y-104804127D01*
X123512586Y-104609586D01*
X123571000Y-104522164D01*
X123629414Y-104609586D01*
X123920564Y-104804127D01*
X124263999Y-104872440D01*
X125164001Y-104872440D01*
X125507436Y-104804127D01*
X125798586Y-104609586D01*
X125993127Y-104318436D01*
X126061440Y-103975001D01*
X126061440Y-103377361D01*
X138254802Y-91184000D01*
X139830560Y-91184000D01*
X139830560Y-91424000D01*
X139879843Y-91671765D01*
X140020191Y-91881809D01*
X140230235Y-92022157D01*
X140478000Y-92071440D01*
X142478000Y-92071440D01*
X142725765Y-92022157D01*
X142935809Y-91881809D01*
X143034900Y-91733511D01*
X143380055Y-91964136D01*
X143856969Y-92059000D01*
X144179031Y-92059000D01*
X144655945Y-91964136D01*
X145196769Y-91602769D01*
X145558136Y-91061945D01*
X145603629Y-90833234D01*
X157996000Y-90833234D01*
X157996000Y-91284766D01*
X158168793Y-91701926D01*
X158488074Y-92021207D01*
X158905234Y-92194000D01*
X159356766Y-92194000D01*
X159773926Y-92021207D01*
X160093207Y-91701926D01*
X160266000Y-91284766D01*
X160266000Y-90998801D01*
X160885473Y-90379329D01*
X160948929Y-90336929D01*
X161116904Y-90085537D01*
X161161000Y-89863852D01*
X161161000Y-89863848D01*
X161175888Y-89789001D01*
X161161000Y-89714154D01*
X161161000Y-87985600D01*
X172753871Y-87985600D01*
X172900169Y-88721090D01*
X173316791Y-89344609D01*
X173940310Y-89761231D01*
X174490145Y-89870600D01*
X174861455Y-89870600D01*
X175411290Y-89761231D01*
X176034809Y-89344609D01*
X176451431Y-88721090D01*
X176597729Y-87985600D01*
X176451431Y-87250110D01*
X176107647Y-86735600D01*
X182938360Y-86735600D01*
X182938360Y-89235600D01*
X182987643Y-89483365D01*
X183127991Y-89693409D01*
X183338035Y-89833757D01*
X183585800Y-89883040D01*
X186085800Y-89883040D01*
X186333565Y-89833757D01*
X186543609Y-89693409D01*
X186683957Y-89483365D01*
X186733240Y-89235600D01*
X186733240Y-86735600D01*
X186683957Y-86487835D01*
X186543609Y-86277791D01*
X186333565Y-86137443D01*
X186085800Y-86088160D01*
X183585800Y-86088160D01*
X183338035Y-86137443D01*
X183127991Y-86277791D01*
X182987643Y-86487835D01*
X182938360Y-86735600D01*
X176107647Y-86735600D01*
X176034809Y-86626591D01*
X175411290Y-86209969D01*
X174861455Y-86100600D01*
X174490145Y-86100600D01*
X173940310Y-86209969D01*
X173316791Y-86626591D01*
X172900169Y-87250110D01*
X172753871Y-87985600D01*
X161161000Y-87985600D01*
X161161000Y-85173133D01*
X161363207Y-84970926D01*
X161536000Y-84553766D01*
X161536000Y-84102234D01*
X161363207Y-83685074D01*
X161043926Y-83365793D01*
X160626766Y-83193000D01*
X160175234Y-83193000D01*
X159758074Y-83365793D01*
X159438793Y-83685074D01*
X159266000Y-84102234D01*
X159266000Y-84553766D01*
X159438793Y-84970926D01*
X159641000Y-85173133D01*
X159641001Y-89474197D01*
X159191199Y-89924000D01*
X158905234Y-89924000D01*
X158488074Y-90096793D01*
X158168793Y-90416074D01*
X157996000Y-90833234D01*
X145603629Y-90833234D01*
X145685031Y-90424000D01*
X145558136Y-89786055D01*
X145196769Y-89245231D01*
X144655945Y-88883864D01*
X144179031Y-88789000D01*
X143856969Y-88789000D01*
X143380055Y-88883864D01*
X143034900Y-89114489D01*
X142935809Y-88966191D01*
X142725765Y-88825843D01*
X142478000Y-88776560D01*
X140478000Y-88776560D01*
X140230235Y-88825843D01*
X140020191Y-88966191D01*
X139879843Y-89176235D01*
X139830560Y-89424000D01*
X139830560Y-89664000D01*
X138014848Y-89664000D01*
X137940000Y-89649112D01*
X137865152Y-89664000D01*
X137865148Y-89664000D01*
X137643463Y-89708096D01*
X137392071Y-89876071D01*
X137349671Y-89939527D01*
X126049000Y-101240199D01*
X126049000Y-100898691D01*
X125952327Y-100665302D01*
X125773699Y-100486673D01*
X125540310Y-100390000D01*
X124999750Y-100390000D01*
X124841000Y-100548750D01*
X124841000Y-101473000D01*
X124861000Y-101473000D01*
X124861000Y-101727000D01*
X124841000Y-101727000D01*
X124841000Y-101747000D01*
X124587000Y-101747000D01*
X124587000Y-101727000D01*
X124567000Y-101727000D01*
X124567000Y-101473000D01*
X124587000Y-101473000D01*
X124587000Y-100548750D01*
X124428250Y-100390000D01*
X123887690Y-100390000D01*
X123654301Y-100486673D01*
X123505377Y-100635597D01*
X123428157Y-100584000D01*
X123512586Y-100527586D01*
X123707127Y-100236436D01*
X123775440Y-99893001D01*
X123775440Y-99242999D01*
X123707127Y-98899564D01*
X123512586Y-98608414D01*
X123511403Y-98607623D01*
X123666327Y-98452698D01*
X123763000Y-98219309D01*
X123763000Y-97803750D01*
X123604250Y-97645000D01*
X122555000Y-97645000D01*
X122555000Y-97665000D01*
X122301000Y-97665000D01*
X122301000Y-97645000D01*
X121251750Y-97645000D01*
X121233750Y-97663000D01*
X120269000Y-97663000D01*
X120269000Y-97683000D01*
X120015000Y-97683000D01*
X120015000Y-97663000D01*
X118965750Y-97663000D01*
X118807000Y-97821750D01*
X118807000Y-98237309D01*
X118903673Y-98470698D01*
X119058597Y-98625623D01*
X119057414Y-98626414D01*
X118862873Y-98917564D01*
X118794560Y-99260999D01*
X118794560Y-99911001D01*
X118862873Y-100254436D01*
X119057414Y-100545586D01*
X119121639Y-100588500D01*
X119057414Y-100631414D01*
X118918041Y-100840000D01*
X118487440Y-100840000D01*
X118487440Y-100600000D01*
X118438157Y-100352235D01*
X118297809Y-100142191D01*
X118087765Y-100001843D01*
X117840000Y-99952560D01*
X115840000Y-99952560D01*
X115592235Y-100001843D01*
X115382191Y-100142191D01*
X115241843Y-100352235D01*
X115192560Y-100600000D01*
X115192560Y-102600000D01*
X115241843Y-102847765D01*
X115382191Y-103057809D01*
X115530489Y-103156900D01*
X115299864Y-103502055D01*
X115172969Y-104140000D01*
X97024440Y-104140000D01*
X97024440Y-102886000D01*
X96975157Y-102638235D01*
X96834809Y-102428191D01*
X96624765Y-102287843D01*
X96377000Y-102238560D01*
X94377000Y-102238560D01*
X94129235Y-102287843D01*
X93919191Y-102428191D01*
X93778843Y-102638235D01*
X93729560Y-102886000D01*
X93729560Y-104886000D01*
X93778843Y-105133765D01*
X93919191Y-105343809D01*
X94067489Y-105442900D01*
X93836864Y-105788055D01*
X93709969Y-106426000D01*
X78867000Y-106426000D01*
X78867000Y-102886000D01*
X84966560Y-102886000D01*
X84966560Y-104886000D01*
X85015843Y-105133765D01*
X85156191Y-105343809D01*
X85366235Y-105484157D01*
X85614000Y-105533440D01*
X87614000Y-105533440D01*
X87861765Y-105484157D01*
X88071809Y-105343809D01*
X88170900Y-105195511D01*
X88516055Y-105426136D01*
X88992969Y-105521000D01*
X89315031Y-105521000D01*
X89791945Y-105426136D01*
X90332769Y-105064769D01*
X90694136Y-104523945D01*
X90821031Y-103886000D01*
X90694136Y-103248055D01*
X90332769Y-102707231D01*
X89791945Y-102345864D01*
X89315031Y-102251000D01*
X88992969Y-102251000D01*
X88516055Y-102345864D01*
X88170900Y-102576489D01*
X88071809Y-102428191D01*
X87861765Y-102287843D01*
X87614000Y-102238560D01*
X85614000Y-102238560D01*
X85366235Y-102287843D01*
X85156191Y-102428191D01*
X85015843Y-102638235D01*
X84966560Y-102886000D01*
X78867000Y-102886000D01*
X78867000Y-90468450D01*
X83384700Y-90468450D01*
X83384700Y-91009010D01*
X83481373Y-91242399D01*
X83660002Y-91421027D01*
X83893391Y-91517700D01*
X84308950Y-91517700D01*
X84467700Y-91358950D01*
X84467700Y-90309700D01*
X83543450Y-90309700D01*
X83384700Y-90468450D01*
X78867000Y-90468450D01*
X78867000Y-88461850D01*
X83366700Y-88461850D01*
X83366700Y-89002410D01*
X83449012Y-89201128D01*
X83384700Y-89356390D01*
X83384700Y-89896950D01*
X83543450Y-90055700D01*
X84467700Y-90055700D01*
X84467700Y-89006450D01*
X84449700Y-88988450D01*
X84449700Y-88303100D01*
X83525450Y-88303100D01*
X83366700Y-88461850D01*
X78867000Y-88461850D01*
X78867000Y-87349790D01*
X83366700Y-87349790D01*
X83366700Y-87890350D01*
X83525450Y-88049100D01*
X84449700Y-88049100D01*
X84449700Y-86999850D01*
X84703700Y-86999850D01*
X84703700Y-88049100D01*
X84723700Y-88049100D01*
X84723700Y-88303100D01*
X84703700Y-88303100D01*
X84703700Y-89352350D01*
X84721700Y-89370350D01*
X84721700Y-90055700D01*
X84741700Y-90055700D01*
X84741700Y-90309700D01*
X84721700Y-90309700D01*
X84721700Y-91358950D01*
X84801533Y-91438783D01*
X84764960Y-91622650D01*
X84764960Y-93340150D01*
X84814243Y-93587915D01*
X84954591Y-93797959D01*
X85072446Y-93876708D01*
X84864069Y-94188568D01*
X84748136Y-94771400D01*
X84864069Y-95354232D01*
X85194216Y-95848334D01*
X85296084Y-95916400D01*
X85194216Y-95984466D01*
X84864069Y-96478568D01*
X84748136Y-97061400D01*
X84864069Y-97644232D01*
X85194216Y-98138334D01*
X85688318Y-98468481D01*
X86124031Y-98555150D01*
X86900769Y-98555150D01*
X87336482Y-98468481D01*
X87830584Y-98138334D01*
X88160731Y-97644232D01*
X88276664Y-97061400D01*
X88160731Y-96478568D01*
X87830584Y-95984466D01*
X87728716Y-95916400D01*
X87830584Y-95848334D01*
X88160731Y-95354232D01*
X88276664Y-94771400D01*
X88160731Y-94188568D01*
X87952354Y-93876708D01*
X88070209Y-93797959D01*
X88210557Y-93587915D01*
X88259840Y-93340150D01*
X88259840Y-91622650D01*
X88210557Y-91374885D01*
X88070209Y-91164841D01*
X87860165Y-91024493D01*
X87777502Y-91008051D01*
X87798827Y-90976136D01*
X87867140Y-90632701D01*
X87867140Y-89732699D01*
X87798827Y-89389264D01*
X87649600Y-89165931D01*
X87780827Y-88969536D01*
X87849140Y-88626101D01*
X87849140Y-88519000D01*
X88991479Y-88519000D01*
X89209183Y-88844817D01*
X89528828Y-89058397D01*
X89517584Y-89114924D01*
X89572155Y-89389264D01*
X89586582Y-89461794D01*
X89783068Y-89755857D01*
X89857294Y-89805453D01*
X91156847Y-91105007D01*
X91206443Y-91179233D01*
X91280669Y-91228829D01*
X91500505Y-91375719D01*
X91847376Y-91444716D01*
X91934932Y-91427300D01*
X106626741Y-91427300D01*
X106505843Y-91608235D01*
X106456560Y-91856000D01*
X106456560Y-93556000D01*
X106505843Y-93803765D01*
X106646191Y-94013809D01*
X106769315Y-94096078D01*
X106555161Y-94416582D01*
X106439908Y-94996000D01*
X106555161Y-95575418D01*
X106883375Y-96066625D01*
X106994685Y-96141000D01*
X106883375Y-96215375D01*
X106555161Y-96706582D01*
X106439908Y-97286000D01*
X106555161Y-97865418D01*
X106883375Y-98356625D01*
X107374582Y-98684839D01*
X107807744Y-98771000D01*
X108600256Y-98771000D01*
X109033418Y-98684839D01*
X109524625Y-98356625D01*
X109852839Y-97865418D01*
X109968092Y-97286000D01*
X109878322Y-96834691D01*
X118807000Y-96834691D01*
X118807000Y-97250250D01*
X118965750Y-97409000D01*
X120015000Y-97409000D01*
X120015000Y-96484750D01*
X120269000Y-96484750D01*
X120269000Y-97409000D01*
X121318250Y-97409000D01*
X121336250Y-97391000D01*
X122301000Y-97391000D01*
X122301000Y-96466750D01*
X122555000Y-96466750D01*
X122555000Y-97391000D01*
X123604250Y-97391000D01*
X123763000Y-97232250D01*
X123763000Y-96816691D01*
X123666327Y-96583302D01*
X123487699Y-96404673D01*
X123254310Y-96308000D01*
X122713750Y-96308000D01*
X122555000Y-96466750D01*
X122301000Y-96466750D01*
X122142250Y-96308000D01*
X121601690Y-96308000D01*
X121368301Y-96404673D01*
X121276000Y-96496974D01*
X121201699Y-96422673D01*
X120968310Y-96326000D01*
X120427750Y-96326000D01*
X120269000Y-96484750D01*
X120015000Y-96484750D01*
X119856250Y-96326000D01*
X119315690Y-96326000D01*
X119082301Y-96422673D01*
X118903673Y-96601302D01*
X118807000Y-96834691D01*
X109878322Y-96834691D01*
X109852839Y-96706582D01*
X109524625Y-96215375D01*
X109413315Y-96141000D01*
X109524625Y-96066625D01*
X109852839Y-95575418D01*
X109968092Y-94996000D01*
X109852839Y-94416582D01*
X109638685Y-94096078D01*
X109761809Y-94013809D01*
X109881814Y-93834209D01*
X110113664Y-93989127D01*
X110457099Y-94057440D01*
X111107101Y-94057440D01*
X111450536Y-93989127D01*
X111741686Y-93794586D01*
X111742477Y-93793403D01*
X111897402Y-93948327D01*
X112130791Y-94045000D01*
X112546350Y-94045000D01*
X112705100Y-93886250D01*
X112705100Y-92837000D01*
X112959100Y-92837000D01*
X112959100Y-93886250D01*
X113117850Y-94045000D01*
X113533409Y-94045000D01*
X113766798Y-93948327D01*
X113945427Y-93769699D01*
X114042100Y-93536310D01*
X114042100Y-92995750D01*
X113883350Y-92837000D01*
X112959100Y-92837000D01*
X112705100Y-92837000D01*
X112685100Y-92837000D01*
X112685100Y-92583000D01*
X112705100Y-92583000D01*
X112705100Y-91533750D01*
X112959100Y-91533750D01*
X112959100Y-92583000D01*
X113883350Y-92583000D01*
X114042100Y-92424250D01*
X114042100Y-91883690D01*
X113945427Y-91650301D01*
X113766798Y-91471673D01*
X113533409Y-91375000D01*
X113117850Y-91375000D01*
X112959100Y-91533750D01*
X112705100Y-91533750D01*
X112546350Y-91375000D01*
X112130791Y-91375000D01*
X111897402Y-91471673D01*
X111742477Y-91626597D01*
X111741686Y-91625414D01*
X111489319Y-91456787D01*
X111527500Y-91364610D01*
X111527500Y-90824050D01*
X111368750Y-90665300D01*
X110444500Y-90665300D01*
X110444500Y-90685300D01*
X110190500Y-90685300D01*
X110190500Y-90665300D01*
X110170500Y-90665300D01*
X110170500Y-90411300D01*
X110190500Y-90411300D01*
X110190500Y-89362050D01*
X110031750Y-89203300D01*
X109616191Y-89203300D01*
X109382802Y-89299973D01*
X109227877Y-89454897D01*
X109227086Y-89453714D01*
X108935936Y-89259173D01*
X108592501Y-89190860D01*
X107942499Y-89190860D01*
X107599064Y-89259173D01*
X107307914Y-89453714D01*
X107177227Y-89649300D01*
X92215612Y-89649300D01*
X91502328Y-88936016D01*
X91638817Y-88844817D01*
X91721640Y-88720863D01*
X91977804Y-88996263D01*
X92575720Y-89269663D01*
X92837000Y-89151466D01*
X92837000Y-87757000D01*
X92817000Y-87757000D01*
X92817000Y-87503000D01*
X92837000Y-87503000D01*
X92837000Y-86108534D01*
X93091000Y-86108534D01*
X93091000Y-87503000D01*
X93111000Y-87503000D01*
X93111000Y-87757000D01*
X93091000Y-87757000D01*
X93091000Y-89151466D01*
X93352280Y-89269663D01*
X93912982Y-89013279D01*
X93996191Y-89137809D01*
X94206235Y-89278157D01*
X94454000Y-89327440D01*
X96554000Y-89327440D01*
X96801765Y-89278157D01*
X97011809Y-89137809D01*
X97152157Y-88927765D01*
X97201440Y-88680000D01*
X97201440Y-88274000D01*
X98182250Y-88274000D01*
X98229414Y-88344586D01*
X98520564Y-88539127D01*
X98863999Y-88607440D01*
X99764001Y-88607440D01*
X100107436Y-88539127D01*
X100398586Y-88344586D01*
X100443352Y-88277589D01*
X100748991Y-88735009D01*
X101372510Y-89151631D01*
X101922345Y-89261000D01*
X102293655Y-89261000D01*
X102843490Y-89151631D01*
X103467009Y-88735009D01*
X103883631Y-88111490D01*
X104029929Y-87376000D01*
X103883631Y-86640510D01*
X103539847Y-86126000D01*
X110370560Y-86126000D01*
X110370560Y-88626000D01*
X110419843Y-88873765D01*
X110560191Y-89083809D01*
X110739021Y-89203300D01*
X110603250Y-89203300D01*
X110444500Y-89362050D01*
X110444500Y-90411300D01*
X111368750Y-90411300D01*
X111527500Y-90252550D01*
X111527500Y-89711990D01*
X111430827Y-89478601D01*
X111252198Y-89299973D01*
X111188142Y-89273440D01*
X113518000Y-89273440D01*
X113765765Y-89224157D01*
X113975809Y-89083809D01*
X114116157Y-88873765D01*
X114165440Y-88626000D01*
X114165440Y-88265000D01*
X114705614Y-88265000D01*
X114899231Y-88554769D01*
X115440055Y-88916136D01*
X115916969Y-89011000D01*
X116239031Y-89011000D01*
X116715945Y-88916136D01*
X117059365Y-88686670D01*
X117079673Y-88735698D01*
X117258301Y-88914327D01*
X117491690Y-89011000D01*
X118332250Y-89011000D01*
X118491000Y-88852250D01*
X118491000Y-87503000D01*
X118745000Y-87503000D01*
X118745000Y-88852250D01*
X118903750Y-89011000D01*
X119744310Y-89011000D01*
X119977699Y-88914327D01*
X120156327Y-88735698D01*
X120253000Y-88502309D01*
X120253000Y-87661750D01*
X120094250Y-87503000D01*
X118745000Y-87503000D01*
X118491000Y-87503000D01*
X118471000Y-87503000D01*
X118471000Y-87249000D01*
X118491000Y-87249000D01*
X118491000Y-85899750D01*
X118745000Y-85899750D01*
X118745000Y-87249000D01*
X120094250Y-87249000D01*
X120253000Y-87090250D01*
X120253000Y-86249691D01*
X120156327Y-86016302D01*
X119977699Y-85837673D01*
X119744310Y-85741000D01*
X118903750Y-85741000D01*
X118745000Y-85899750D01*
X118491000Y-85899750D01*
X118332250Y-85741000D01*
X117491690Y-85741000D01*
X117258301Y-85837673D01*
X117079673Y-86016302D01*
X117059365Y-86065330D01*
X116715945Y-85835864D01*
X116239031Y-85741000D01*
X115916969Y-85741000D01*
X115440055Y-85835864D01*
X114899231Y-86197231D01*
X114705614Y-86487000D01*
X114165440Y-86487000D01*
X114165440Y-86126000D01*
X114116157Y-85878235D01*
X113975809Y-85668191D01*
X113765765Y-85527843D01*
X113518000Y-85478560D01*
X111018000Y-85478560D01*
X110770235Y-85527843D01*
X110560191Y-85668191D01*
X110419843Y-85878235D01*
X110370560Y-86126000D01*
X103539847Y-86126000D01*
X103467009Y-86016991D01*
X102843490Y-85600369D01*
X102293655Y-85491000D01*
X101922345Y-85491000D01*
X101372510Y-85600369D01*
X100748991Y-86016991D01*
X100437339Y-86483411D01*
X100398586Y-86425414D01*
X100397403Y-86424623D01*
X100552327Y-86269698D01*
X100649000Y-86036309D01*
X100649000Y-85620750D01*
X100490250Y-85462000D01*
X99441000Y-85462000D01*
X99441000Y-85482000D01*
X99187000Y-85482000D01*
X99187000Y-85462000D01*
X98137750Y-85462000D01*
X97979000Y-85620750D01*
X97979000Y-86036309D01*
X98075673Y-86269698D01*
X98230597Y-86424623D01*
X98229414Y-86425414D01*
X98182250Y-86496000D01*
X97184732Y-86496000D01*
X97152157Y-86332235D01*
X97011809Y-86122191D01*
X96801765Y-85981843D01*
X96554000Y-85932560D01*
X94454000Y-85932560D01*
X94206235Y-85981843D01*
X93996191Y-86122191D01*
X93912982Y-86246721D01*
X93352280Y-85990337D01*
X93091000Y-86108534D01*
X92837000Y-86108534D01*
X92575720Y-85990337D01*
X91977804Y-86263737D01*
X91721640Y-86539137D01*
X91638817Y-86415183D01*
X91081454Y-86042765D01*
X90589957Y-85945000D01*
X90258043Y-85945000D01*
X89766546Y-86042765D01*
X89209183Y-86415183D01*
X88991479Y-86741000D01*
X87085244Y-86741000D01*
X86825930Y-86792581D01*
X86771934Y-86828660D01*
X86301699Y-86828660D01*
X85958264Y-86896973D01*
X85667114Y-87091514D01*
X85666323Y-87092697D01*
X85511398Y-86937773D01*
X85278009Y-86841100D01*
X84862450Y-86841100D01*
X84703700Y-86999850D01*
X84449700Y-86999850D01*
X84290950Y-86841100D01*
X83875391Y-86841100D01*
X83642002Y-86937773D01*
X83463373Y-87116401D01*
X83366700Y-87349790D01*
X78867000Y-87349790D01*
X78867000Y-84633691D01*
X97979000Y-84633691D01*
X97979000Y-85049250D01*
X98137750Y-85208000D01*
X99187000Y-85208000D01*
X99187000Y-84283750D01*
X99441000Y-84283750D01*
X99441000Y-85208000D01*
X100490250Y-85208000D01*
X100649000Y-85049250D01*
X100649000Y-84633691D01*
X100552327Y-84400302D01*
X100373699Y-84221673D01*
X100140310Y-84125000D01*
X99599750Y-84125000D01*
X99441000Y-84283750D01*
X99187000Y-84283750D01*
X99028250Y-84125000D01*
X98487690Y-84125000D01*
X98254301Y-84221673D01*
X98075673Y-84400302D01*
X97979000Y-84633691D01*
X78867000Y-84633691D01*
X78867000Y-79279750D01*
X137666000Y-79279750D01*
X137666000Y-81660309D01*
X137762673Y-81893698D01*
X137941301Y-82072327D01*
X138174690Y-82169000D01*
X138418871Y-82169000D01*
X138377851Y-82292564D01*
X138409982Y-82736968D01*
X138518232Y-82998308D01*
X138731800Y-83033595D01*
X138844685Y-82920710D01*
X138921301Y-82997327D01*
X139066949Y-83057656D01*
X138911405Y-83213200D01*
X138946692Y-83426768D01*
X139369564Y-83567149D01*
X139813968Y-83535018D01*
X140075308Y-83426768D01*
X140110595Y-83213200D01*
X139955051Y-83057656D01*
X140100699Y-82997327D01*
X140177315Y-82920710D01*
X140290200Y-83033595D01*
X140503768Y-82998308D01*
X140644149Y-82575436D01*
X140614763Y-82169000D01*
X140847310Y-82169000D01*
X141080699Y-82072327D01*
X141259327Y-81893698D01*
X141356000Y-81660309D01*
X141356000Y-79279750D01*
X146426000Y-79279750D01*
X146426000Y-81660309D01*
X146522673Y-81893698D01*
X146701301Y-82072327D01*
X146934690Y-82169000D01*
X147178871Y-82169000D01*
X147137851Y-82292564D01*
X147169982Y-82736968D01*
X147278232Y-82998308D01*
X147491800Y-83033595D01*
X147604685Y-82920710D01*
X147681301Y-82997327D01*
X147826949Y-83057656D01*
X147671405Y-83213200D01*
X147706692Y-83426768D01*
X148129564Y-83567149D01*
X148573968Y-83535018D01*
X148835308Y-83426768D01*
X148870595Y-83213200D01*
X148715051Y-83057656D01*
X148860699Y-82997327D01*
X148937315Y-82920710D01*
X149050200Y-83033595D01*
X149263768Y-82998308D01*
X149404149Y-82575436D01*
X149374763Y-82169000D01*
X149607310Y-82169000D01*
X149840699Y-82072327D01*
X150019327Y-81893698D01*
X150116000Y-81660309D01*
X150116000Y-79279750D01*
X149957250Y-79121000D01*
X148398000Y-79121000D01*
X148398000Y-79141000D01*
X148144000Y-79141000D01*
X148144000Y-79121000D01*
X146584750Y-79121000D01*
X146426000Y-79279750D01*
X141356000Y-79279750D01*
X141197250Y-79121000D01*
X139638000Y-79121000D01*
X139638000Y-79141000D01*
X139384000Y-79141000D01*
X139384000Y-79121000D01*
X137824750Y-79121000D01*
X137666000Y-79279750D01*
X78867000Y-79279750D01*
X78867000Y-79025750D01*
X154049000Y-79025750D01*
X154049000Y-81406309D01*
X154145673Y-81639698D01*
X154324301Y-81818327D01*
X154557690Y-81915000D01*
X154801871Y-81915000D01*
X154760851Y-82038564D01*
X154792982Y-82482968D01*
X154901232Y-82744308D01*
X155114800Y-82779595D01*
X155227685Y-82666710D01*
X155304301Y-82743327D01*
X155449949Y-82803656D01*
X155294405Y-82959200D01*
X155329692Y-83172768D01*
X155752564Y-83313149D01*
X156196968Y-83281018D01*
X156458308Y-83172768D01*
X156493595Y-82959200D01*
X156338051Y-82803656D01*
X156483699Y-82743327D01*
X156560315Y-82666710D01*
X156673200Y-82779595D01*
X156886768Y-82744308D01*
X157027149Y-82321436D01*
X156997763Y-81915000D01*
X157230310Y-81915000D01*
X157463699Y-81818327D01*
X157642327Y-81639698D01*
X157739000Y-81406309D01*
X157739000Y-79025750D01*
X162809000Y-79025750D01*
X162809000Y-81406309D01*
X162905673Y-81639698D01*
X163084301Y-81818327D01*
X163317690Y-81915000D01*
X163561871Y-81915000D01*
X163520851Y-82038564D01*
X163552982Y-82482968D01*
X163661232Y-82744308D01*
X163874800Y-82779595D01*
X163987685Y-82666710D01*
X164064301Y-82743327D01*
X164209949Y-82803656D01*
X164054405Y-82959200D01*
X164089692Y-83172768D01*
X164512564Y-83313149D01*
X164956968Y-83281018D01*
X165218308Y-83172768D01*
X165253595Y-82959200D01*
X165098051Y-82803656D01*
X165243699Y-82743327D01*
X165320315Y-82666710D01*
X165433200Y-82779595D01*
X165646768Y-82744308D01*
X165787149Y-82321436D01*
X165757763Y-81915000D01*
X165990310Y-81915000D01*
X166223699Y-81818327D01*
X166402327Y-81639698D01*
X166499000Y-81406309D01*
X166499000Y-79025750D01*
X166340250Y-78867000D01*
X164781000Y-78867000D01*
X164781000Y-78887000D01*
X164527000Y-78887000D01*
X164527000Y-78867000D01*
X162967750Y-78867000D01*
X162809000Y-79025750D01*
X157739000Y-79025750D01*
X157580250Y-78867000D01*
X156021000Y-78867000D01*
X156021000Y-78887000D01*
X155767000Y-78887000D01*
X155767000Y-78867000D01*
X154207750Y-78867000D01*
X154049000Y-79025750D01*
X78867000Y-79025750D01*
X78867000Y-76327000D01*
X137666286Y-76327000D01*
X137666000Y-76327691D01*
X137666000Y-76327691D01*
G37*
X137666000Y-76327691D02*
X137666000Y-78708250D01*
X137824750Y-78867000D01*
X139384000Y-78867000D01*
X139384000Y-78847000D01*
X139638000Y-78847000D01*
X139638000Y-78867000D01*
X141197250Y-78867000D01*
X141356000Y-78708250D01*
X141356000Y-76327691D01*
X141355714Y-76327000D01*
X146426286Y-76327000D01*
X146426000Y-76327691D01*
X146426000Y-78708250D01*
X146584750Y-78867000D01*
X148144000Y-78867000D01*
X148144000Y-78847000D01*
X148398000Y-78847000D01*
X148398000Y-78867000D01*
X149957250Y-78867000D01*
X150116000Y-78708250D01*
X150116000Y-76327691D01*
X150115714Y-76327000D01*
X154049000Y-76327000D01*
X154049000Y-78454250D01*
X154207750Y-78613000D01*
X155767000Y-78613000D01*
X155767000Y-78593000D01*
X156021000Y-78593000D01*
X156021000Y-78613000D01*
X157580250Y-78613000D01*
X157739000Y-78454250D01*
X157739000Y-76327000D01*
X162809000Y-76327000D01*
X162809000Y-78454250D01*
X162967750Y-78613000D01*
X164527000Y-78613000D01*
X164527000Y-78593000D01*
X164781000Y-78593000D01*
X164781000Y-78613000D01*
X166340250Y-78613000D01*
X166499000Y-78454250D01*
X166499000Y-76327000D01*
X187833000Y-76327000D01*
X187833000Y-121793000D01*
X182501000Y-121793000D01*
X182501000Y-119614950D01*
X182342250Y-119456200D01*
X180783000Y-119456200D01*
X180783000Y-119476200D01*
X180529000Y-119476200D01*
X180529000Y-119456200D01*
X178969750Y-119456200D01*
X178811000Y-119614950D01*
X178811000Y-121793000D01*
X173741000Y-121793000D01*
X173741000Y-119614950D01*
X173582250Y-119456200D01*
X172023000Y-119456200D01*
X172023000Y-119476200D01*
X171769000Y-119476200D01*
X171769000Y-119456200D01*
X170209750Y-119456200D01*
X170051000Y-119614950D01*
X170051000Y-121793000D01*
X164289200Y-121793000D01*
X164289200Y-119665750D01*
X164130450Y-119507000D01*
X162571200Y-119507000D01*
X162571200Y-119527000D01*
X162317200Y-119527000D01*
X162317200Y-119507000D01*
X160757950Y-119507000D01*
X160599200Y-119665750D01*
X160599200Y-121793000D01*
X155529200Y-121793000D01*
X155529200Y-119665750D01*
X155370450Y-119507000D01*
X153811200Y-119507000D01*
X153811200Y-119527000D01*
X153557200Y-119527000D01*
X153557200Y-119507000D01*
X151997950Y-119507000D01*
X151839200Y-119665750D01*
X151839200Y-121793000D01*
X145163000Y-121793000D01*
X145163000Y-119665750D01*
X145004250Y-119507000D01*
X143445000Y-119507000D01*
X143445000Y-119527000D01*
X143191000Y-119527000D01*
X143191000Y-119507000D01*
X141631750Y-119507000D01*
X141473000Y-119665750D01*
X141473000Y-121793000D01*
X136403000Y-121793000D01*
X136403000Y-119665750D01*
X136244250Y-119507000D01*
X134685000Y-119507000D01*
X134685000Y-119527000D01*
X134431000Y-119527000D01*
X134431000Y-119507000D01*
X132871750Y-119507000D01*
X132713000Y-119665750D01*
X132713000Y-121793000D01*
X108460000Y-121793000D01*
X108460000Y-119665750D01*
X108301250Y-119507000D01*
X106742000Y-119507000D01*
X106742000Y-119527000D01*
X106488000Y-119527000D01*
X106488000Y-119507000D01*
X104928750Y-119507000D01*
X104770000Y-119665750D01*
X104770000Y-121793000D01*
X99700000Y-121793000D01*
X99700000Y-119665750D01*
X99541250Y-119507000D01*
X97982000Y-119507000D01*
X97982000Y-119527000D01*
X97728000Y-119527000D01*
X97728000Y-119507000D01*
X96168750Y-119507000D01*
X96010000Y-119665750D01*
X96010000Y-121793000D01*
X92839000Y-121793000D01*
X92839000Y-119665750D01*
X92680250Y-119507000D01*
X91121000Y-119507000D01*
X91121000Y-119527000D01*
X90867000Y-119527000D01*
X90867000Y-119507000D01*
X89307750Y-119507000D01*
X89149000Y-119665750D01*
X89149000Y-121793000D01*
X84079000Y-121793000D01*
X84079000Y-119665750D01*
X83920250Y-119507000D01*
X82361000Y-119507000D01*
X82361000Y-119527000D01*
X82107000Y-119527000D01*
X82107000Y-119507000D01*
X80547750Y-119507000D01*
X80389000Y-119665750D01*
X80389000Y-121793000D01*
X78867000Y-121793000D01*
X78867000Y-116713691D01*
X80389000Y-116713691D01*
X80389000Y-119094250D01*
X80547750Y-119253000D01*
X82107000Y-119253000D01*
X82107000Y-119233000D01*
X82361000Y-119233000D01*
X82361000Y-119253000D01*
X83920250Y-119253000D01*
X84079000Y-119094250D01*
X84079000Y-116713691D01*
X89149000Y-116713691D01*
X89149000Y-119094250D01*
X89307750Y-119253000D01*
X90867000Y-119253000D01*
X90867000Y-119233000D01*
X91121000Y-119233000D01*
X91121000Y-119253000D01*
X92680250Y-119253000D01*
X92839000Y-119094250D01*
X92839000Y-116713691D01*
X96010000Y-116713691D01*
X96010000Y-119094250D01*
X96168750Y-119253000D01*
X97728000Y-119253000D01*
X97728000Y-119233000D01*
X97982000Y-119233000D01*
X97982000Y-119253000D01*
X99541250Y-119253000D01*
X99700000Y-119094250D01*
X99700000Y-116713691D01*
X104770000Y-116713691D01*
X104770000Y-119094250D01*
X104928750Y-119253000D01*
X106488000Y-119253000D01*
X106488000Y-119233000D01*
X106742000Y-119233000D01*
X106742000Y-119253000D01*
X108301250Y-119253000D01*
X108460000Y-119094250D01*
X108460000Y-116713691D01*
X132713000Y-116713691D01*
X132713000Y-119094250D01*
X132871750Y-119253000D01*
X134431000Y-119253000D01*
X134431000Y-119233000D01*
X134685000Y-119233000D01*
X134685000Y-119253000D01*
X136244250Y-119253000D01*
X136403000Y-119094250D01*
X136403000Y-116713691D01*
X141473000Y-116713691D01*
X141473000Y-119094250D01*
X141631750Y-119253000D01*
X143191000Y-119253000D01*
X143191000Y-119233000D01*
X143445000Y-119233000D01*
X143445000Y-119253000D01*
X145004250Y-119253000D01*
X145163000Y-119094250D01*
X145163000Y-116713691D01*
X151839200Y-116713691D01*
X151839200Y-119094250D01*
X151997950Y-119253000D01*
X153557200Y-119253000D01*
X153557200Y-119233000D01*
X153811200Y-119233000D01*
X153811200Y-119253000D01*
X155370450Y-119253000D01*
X155529200Y-119094250D01*
X155529200Y-116713691D01*
X160599200Y-116713691D01*
X160599200Y-119094250D01*
X160757950Y-119253000D01*
X162317200Y-119253000D01*
X162317200Y-119233000D01*
X162571200Y-119233000D01*
X162571200Y-119253000D01*
X164130450Y-119253000D01*
X164289200Y-119094250D01*
X164289200Y-116713691D01*
X164268158Y-116662891D01*
X170051000Y-116662891D01*
X170051000Y-119043450D01*
X170209750Y-119202200D01*
X171769000Y-119202200D01*
X171769000Y-119182200D01*
X172023000Y-119182200D01*
X172023000Y-119202200D01*
X173582250Y-119202200D01*
X173741000Y-119043450D01*
X173741000Y-116662891D01*
X178811000Y-116662891D01*
X178811000Y-119043450D01*
X178969750Y-119202200D01*
X180529000Y-119202200D01*
X180529000Y-119182200D01*
X180783000Y-119182200D01*
X180783000Y-119202200D01*
X182342250Y-119202200D01*
X182501000Y-119043450D01*
X182501000Y-116662891D01*
X182404327Y-116429502D01*
X182225699Y-116250873D01*
X181992310Y-116154200D01*
X181748129Y-116154200D01*
X181789149Y-116030636D01*
X181757018Y-115586232D01*
X181648768Y-115324892D01*
X181435200Y-115289605D01*
X181322315Y-115402490D01*
X181245699Y-115325873D01*
X181100051Y-115265544D01*
X181255595Y-115110000D01*
X181220308Y-114896432D01*
X180797436Y-114756051D01*
X180353032Y-114788182D01*
X180091692Y-114896432D01*
X180056405Y-115110000D01*
X180211949Y-115265544D01*
X180066301Y-115325873D01*
X179989685Y-115402490D01*
X179876800Y-115289605D01*
X179663232Y-115324892D01*
X179522851Y-115747764D01*
X179552237Y-116154200D01*
X179319690Y-116154200D01*
X179086301Y-116250873D01*
X178907673Y-116429502D01*
X178811000Y-116662891D01*
X173741000Y-116662891D01*
X173644327Y-116429502D01*
X173465699Y-116250873D01*
X173232310Y-116154200D01*
X172988129Y-116154200D01*
X173029149Y-116030636D01*
X172997018Y-115586232D01*
X172888768Y-115324892D01*
X172675200Y-115289605D01*
X172562315Y-115402490D01*
X172485699Y-115325873D01*
X172340051Y-115265544D01*
X172495595Y-115110000D01*
X172460308Y-114896432D01*
X172037436Y-114756051D01*
X171593032Y-114788182D01*
X171331692Y-114896432D01*
X171296405Y-115110000D01*
X171451949Y-115265544D01*
X171306301Y-115325873D01*
X171229685Y-115402490D01*
X171116800Y-115289605D01*
X170903232Y-115324892D01*
X170762851Y-115747764D01*
X170792237Y-116154200D01*
X170559690Y-116154200D01*
X170326301Y-116250873D01*
X170147673Y-116429502D01*
X170051000Y-116662891D01*
X164268158Y-116662891D01*
X164192527Y-116480302D01*
X164013899Y-116301673D01*
X163780510Y-116205000D01*
X163536329Y-116205000D01*
X163577349Y-116081436D01*
X163545218Y-115637032D01*
X163436968Y-115375692D01*
X163223400Y-115340405D01*
X163110515Y-115453290D01*
X163033899Y-115376673D01*
X162888251Y-115316344D01*
X163043795Y-115160800D01*
X163008508Y-114947232D01*
X162585636Y-114806851D01*
X162141232Y-114838982D01*
X161879892Y-114947232D01*
X161844605Y-115160800D01*
X162000149Y-115316344D01*
X161854501Y-115376673D01*
X161777885Y-115453290D01*
X161665000Y-115340405D01*
X161451432Y-115375692D01*
X161311051Y-115798564D01*
X161340437Y-116205000D01*
X161107890Y-116205000D01*
X160874501Y-116301673D01*
X160695873Y-116480302D01*
X160599200Y-116713691D01*
X155529200Y-116713691D01*
X155432527Y-116480302D01*
X155253899Y-116301673D01*
X155020510Y-116205000D01*
X154776329Y-116205000D01*
X154817349Y-116081436D01*
X154785218Y-115637032D01*
X154676968Y-115375692D01*
X154463400Y-115340405D01*
X154350515Y-115453290D01*
X154273899Y-115376673D01*
X154128251Y-115316344D01*
X154283795Y-115160800D01*
X154248508Y-114947232D01*
X153825636Y-114806851D01*
X153381232Y-114838982D01*
X153119892Y-114947232D01*
X153084605Y-115160800D01*
X153240149Y-115316344D01*
X153094501Y-115376673D01*
X153017885Y-115453290D01*
X152905000Y-115340405D01*
X152691432Y-115375692D01*
X152551051Y-115798564D01*
X152580437Y-116205000D01*
X152347890Y-116205000D01*
X152114501Y-116301673D01*
X151935873Y-116480302D01*
X151839200Y-116713691D01*
X145163000Y-116713691D01*
X145066327Y-116480302D01*
X144887699Y-116301673D01*
X144654310Y-116205000D01*
X144410129Y-116205000D01*
X144451149Y-116081436D01*
X144419018Y-115637032D01*
X144310768Y-115375692D01*
X144097200Y-115340405D01*
X143984315Y-115453290D01*
X143907699Y-115376673D01*
X143762051Y-115316344D01*
X143917595Y-115160800D01*
X143882308Y-114947232D01*
X143459436Y-114806851D01*
X143015032Y-114838982D01*
X142753692Y-114947232D01*
X142718405Y-115160800D01*
X142873949Y-115316344D01*
X142728301Y-115376673D01*
X142651685Y-115453290D01*
X142538800Y-115340405D01*
X142325232Y-115375692D01*
X142184851Y-115798564D01*
X142214237Y-116205000D01*
X141981690Y-116205000D01*
X141748301Y-116301673D01*
X141569673Y-116480302D01*
X141473000Y-116713691D01*
X136403000Y-116713691D01*
X136306327Y-116480302D01*
X136127699Y-116301673D01*
X135894310Y-116205000D01*
X135650129Y-116205000D01*
X135691149Y-116081436D01*
X135659018Y-115637032D01*
X135550768Y-115375692D01*
X135337200Y-115340405D01*
X135224315Y-115453290D01*
X135147699Y-115376673D01*
X135002051Y-115316344D01*
X135157595Y-115160800D01*
X135122308Y-114947232D01*
X134699436Y-114806851D01*
X134255032Y-114838982D01*
X133993692Y-114947232D01*
X133958405Y-115160800D01*
X134113949Y-115316344D01*
X133968301Y-115376673D01*
X133891685Y-115453290D01*
X133778800Y-115340405D01*
X133565232Y-115375692D01*
X133424851Y-115798564D01*
X133454237Y-116205000D01*
X133221690Y-116205000D01*
X132988301Y-116301673D01*
X132809673Y-116480302D01*
X132713000Y-116713691D01*
X108460000Y-116713691D01*
X108363327Y-116480302D01*
X108184699Y-116301673D01*
X107951310Y-116205000D01*
X107707129Y-116205000D01*
X107748149Y-116081436D01*
X107716018Y-115637032D01*
X107607768Y-115375692D01*
X107394200Y-115340405D01*
X107281315Y-115453290D01*
X107204699Y-115376673D01*
X107059051Y-115316344D01*
X107214595Y-115160800D01*
X107179308Y-114947232D01*
X106756436Y-114806851D01*
X106312032Y-114838982D01*
X106050692Y-114947232D01*
X106015405Y-115160800D01*
X106170949Y-115316344D01*
X106025301Y-115376673D01*
X105948685Y-115453290D01*
X105835800Y-115340405D01*
X105622232Y-115375692D01*
X105481851Y-115798564D01*
X105511237Y-116205000D01*
X105278690Y-116205000D01*
X105045301Y-116301673D01*
X104866673Y-116480302D01*
X104770000Y-116713691D01*
X99700000Y-116713691D01*
X99603327Y-116480302D01*
X99424699Y-116301673D01*
X99191310Y-116205000D01*
X98947129Y-116205000D01*
X98988149Y-116081436D01*
X98956018Y-115637032D01*
X98847768Y-115375692D01*
X98634200Y-115340405D01*
X98521315Y-115453290D01*
X98444699Y-115376673D01*
X98299051Y-115316344D01*
X98454595Y-115160800D01*
X98419308Y-114947232D01*
X97996436Y-114806851D01*
X97552032Y-114838982D01*
X97290692Y-114947232D01*
X97255405Y-115160800D01*
X97410949Y-115316344D01*
X97265301Y-115376673D01*
X97188685Y-115453290D01*
X97075800Y-115340405D01*
X96862232Y-115375692D01*
X96721851Y-115798564D01*
X96751237Y-116205000D01*
X96518690Y-116205000D01*
X96285301Y-116301673D01*
X96106673Y-116480302D01*
X96010000Y-116713691D01*
X92839000Y-116713691D01*
X92742327Y-116480302D01*
X92563699Y-116301673D01*
X92330310Y-116205000D01*
X92086129Y-116205000D01*
X92127149Y-116081436D01*
X92095018Y-115637032D01*
X91986768Y-115375692D01*
X91773200Y-115340405D01*
X91660315Y-115453290D01*
X91583699Y-115376673D01*
X91438051Y-115316344D01*
X91593595Y-115160800D01*
X91558308Y-114947232D01*
X91135436Y-114806851D01*
X90691032Y-114838982D01*
X90429692Y-114947232D01*
X90394405Y-115160800D01*
X90549949Y-115316344D01*
X90404301Y-115376673D01*
X90327685Y-115453290D01*
X90214800Y-115340405D01*
X90001232Y-115375692D01*
X89860851Y-115798564D01*
X89890237Y-116205000D01*
X89657690Y-116205000D01*
X89424301Y-116301673D01*
X89245673Y-116480302D01*
X89149000Y-116713691D01*
X84079000Y-116713691D01*
X83982327Y-116480302D01*
X83803699Y-116301673D01*
X83570310Y-116205000D01*
X83326129Y-116205000D01*
X83367149Y-116081436D01*
X83335018Y-115637032D01*
X83226768Y-115375692D01*
X83013200Y-115340405D01*
X82900315Y-115453290D01*
X82823699Y-115376673D01*
X82678051Y-115316344D01*
X82833595Y-115160800D01*
X82798308Y-114947232D01*
X82375436Y-114806851D01*
X81931032Y-114838982D01*
X81669692Y-114947232D01*
X81634405Y-115160800D01*
X81789949Y-115316344D01*
X81644301Y-115376673D01*
X81567685Y-115453290D01*
X81454800Y-115340405D01*
X81241232Y-115375692D01*
X81100851Y-115798564D01*
X81130237Y-116205000D01*
X80897690Y-116205000D01*
X80664301Y-116301673D01*
X80485673Y-116480302D01*
X80389000Y-116713691D01*
X78867000Y-116713691D01*
X78867000Y-112063750D01*
X126935000Y-112063750D01*
X126935000Y-112479309D01*
X127031673Y-112712698D01*
X127210301Y-112891327D01*
X127443690Y-112988000D01*
X127984250Y-112988000D01*
X128143000Y-112829250D01*
X128143000Y-111905000D01*
X128397000Y-111905000D01*
X128397000Y-112829250D01*
X128555750Y-112988000D01*
X129096310Y-112988000D01*
X129329699Y-112891327D01*
X129508327Y-112712698D01*
X129605000Y-112479309D01*
X129605000Y-112063750D01*
X129446250Y-111905000D01*
X128397000Y-111905000D01*
X128143000Y-111905000D01*
X127093750Y-111905000D01*
X126935000Y-112063750D01*
X78867000Y-112063750D01*
X78867000Y-108838435D01*
X103565867Y-108838435D01*
X103832495Y-109417994D01*
X104300615Y-109851402D01*
X104775566Y-110048124D01*
X105029000Y-109928777D01*
X105029000Y-108585000D01*
X103684681Y-108585000D01*
X103565867Y-108838435D01*
X78867000Y-108838435D01*
X78867000Y-108077565D01*
X103565867Y-108077565D01*
X103684681Y-108331000D01*
X105029000Y-108331000D01*
X105029000Y-106987223D01*
X105283000Y-106987223D01*
X105283000Y-108331000D01*
X105303000Y-108331000D01*
X105303000Y-108585000D01*
X105283000Y-108585000D01*
X105283000Y-109928777D01*
X105536434Y-110048124D01*
X106011385Y-109851402D01*
X106124919Y-109746287D01*
X106238191Y-109915809D01*
X106448235Y-110056157D01*
X106696000Y-110105440D01*
X108696000Y-110105440D01*
X108943765Y-110056157D01*
X108999299Y-110019050D01*
X122020100Y-110019050D01*
X122020100Y-110434609D01*
X122116773Y-110667998D01*
X122295401Y-110846627D01*
X122528790Y-110943300D01*
X123069350Y-110943300D01*
X123228100Y-110784550D01*
X123228100Y-109860300D01*
X122178850Y-109860300D01*
X122020100Y-110019050D01*
X108999299Y-110019050D01*
X109153809Y-109915809D01*
X109294157Y-109705765D01*
X109343440Y-109458000D01*
X109343440Y-107696000D01*
X115934969Y-107696000D01*
X116061864Y-108333945D01*
X116423231Y-108874769D01*
X116964055Y-109236136D01*
X117440969Y-109331000D01*
X117763031Y-109331000D01*
X118239945Y-109236136D01*
X118585100Y-109005511D01*
X118684191Y-109153809D01*
X118894235Y-109294157D01*
X119142000Y-109343440D01*
X121142000Y-109343440D01*
X121389765Y-109294157D01*
X121599809Y-109153809D01*
X121740157Y-108943765D01*
X121789440Y-108696000D01*
X121789440Y-108443300D01*
X122137154Y-108443300D01*
X122270514Y-108642886D01*
X122271697Y-108643677D01*
X122116773Y-108798602D01*
X122020100Y-109031991D01*
X122020100Y-109447550D01*
X122178850Y-109606300D01*
X123228100Y-109606300D01*
X123228100Y-109586300D01*
X123482100Y-109586300D01*
X123482100Y-109606300D01*
X123502100Y-109606300D01*
X123502100Y-109860300D01*
X123482100Y-109860300D01*
X123482100Y-110784550D01*
X123640850Y-110943300D01*
X124181410Y-110943300D01*
X124414799Y-110846627D01*
X124593427Y-110667998D01*
X124690100Y-110434609D01*
X124690100Y-110340167D01*
X124704873Y-110414436D01*
X124899414Y-110705586D01*
X125190564Y-110900127D01*
X125533999Y-110968440D01*
X126434001Y-110968440D01*
X126777436Y-110900127D01*
X127068586Y-110705586D01*
X127133014Y-110609164D01*
X127185414Y-110687586D01*
X127186597Y-110688377D01*
X127031673Y-110843302D01*
X126935000Y-111076691D01*
X126935000Y-111492250D01*
X127093750Y-111651000D01*
X128143000Y-111651000D01*
X128143000Y-111631000D01*
X128397000Y-111631000D01*
X128397000Y-111651000D01*
X129446250Y-111651000D01*
X129605000Y-111492250D01*
X129605000Y-111076691D01*
X129508327Y-110843302D01*
X129353403Y-110688377D01*
X129354586Y-110687586D01*
X129549127Y-110396436D01*
X129617440Y-110053001D01*
X129617440Y-109402999D01*
X129549127Y-109059564D01*
X129354586Y-108768414D01*
X129117257Y-108609835D01*
X156855067Y-108609835D01*
X157121695Y-109189394D01*
X157589815Y-109622802D01*
X158064766Y-109819524D01*
X158318200Y-109700177D01*
X158318200Y-108356400D01*
X156973881Y-108356400D01*
X156855067Y-108609835D01*
X129117257Y-108609835D01*
X129063436Y-108573873D01*
X128720001Y-108505560D01*
X127819999Y-108505560D01*
X127476564Y-108573873D01*
X127185414Y-108768414D01*
X127120986Y-108864836D01*
X127068586Y-108786414D01*
X126970687Y-108721000D01*
X127068586Y-108655586D01*
X127263127Y-108364436D01*
X127331440Y-108021001D01*
X127331440Y-107848965D01*
X156855067Y-107848965D01*
X156973881Y-108102400D01*
X158318200Y-108102400D01*
X158318200Y-106758623D01*
X158572200Y-106758623D01*
X158572200Y-108102400D01*
X158592200Y-108102400D01*
X158592200Y-108356400D01*
X158572200Y-108356400D01*
X158572200Y-109700177D01*
X158825634Y-109819524D01*
X159300585Y-109622802D01*
X159701701Y-109251429D01*
X159806431Y-109408169D01*
X160347255Y-109769536D01*
X160824169Y-109864400D01*
X161146231Y-109864400D01*
X161623145Y-109769536D01*
X162163969Y-109408169D01*
X162255200Y-109271632D01*
X162346431Y-109408169D01*
X162887255Y-109769536D01*
X163364169Y-109864400D01*
X163686231Y-109864400D01*
X164163145Y-109769536D01*
X164508300Y-109538911D01*
X164607391Y-109687209D01*
X164817435Y-109827557D01*
X165065200Y-109876840D01*
X167065200Y-109876840D01*
X167312965Y-109827557D01*
X167523009Y-109687209D01*
X167663357Y-109477165D01*
X167712640Y-109229400D01*
X167712640Y-107229400D01*
X167663357Y-106981635D01*
X167523009Y-106771591D01*
X167312965Y-106631243D01*
X167065200Y-106581960D01*
X165065200Y-106581960D01*
X164817435Y-106631243D01*
X164607391Y-106771591D01*
X164508300Y-106919889D01*
X164163145Y-106689264D01*
X163686231Y-106594400D01*
X163364169Y-106594400D01*
X162887255Y-106689264D01*
X162346431Y-107050631D01*
X162255200Y-107187168D01*
X162163969Y-107050631D01*
X161623145Y-106689264D01*
X161146231Y-106594400D01*
X160824169Y-106594400D01*
X160347255Y-106689264D01*
X159806431Y-107050631D01*
X159701701Y-107207371D01*
X159300585Y-106835998D01*
X158825634Y-106639276D01*
X158572200Y-106758623D01*
X158318200Y-106758623D01*
X158064766Y-106639276D01*
X157589815Y-106835998D01*
X157121695Y-107269406D01*
X156855067Y-107848965D01*
X127331440Y-107848965D01*
X127331440Y-107423361D01*
X136431401Y-98323400D01*
X142401769Y-98323400D01*
X142528664Y-98961345D01*
X142890031Y-99502169D01*
X143430855Y-99863536D01*
X143907769Y-99958400D01*
X144229831Y-99958400D01*
X144706745Y-99863536D01*
X145051900Y-99632911D01*
X145150991Y-99781209D01*
X145361035Y-99921557D01*
X145608800Y-99970840D01*
X147608800Y-99970840D01*
X147856565Y-99921557D01*
X148066609Y-99781209D01*
X148206957Y-99571165D01*
X148256240Y-99323400D01*
X148256240Y-97323400D01*
X148206957Y-97075635D01*
X148066609Y-96865591D01*
X147928688Y-96773434D01*
X183448876Y-96773434D01*
X183645598Y-97248385D01*
X184079006Y-97716505D01*
X184658565Y-97983133D01*
X184912000Y-97864319D01*
X184912000Y-96520000D01*
X185166000Y-96520000D01*
X185166000Y-97864319D01*
X185419435Y-97983133D01*
X185998994Y-97716505D01*
X186432402Y-97248385D01*
X186629124Y-96773434D01*
X186509777Y-96520000D01*
X185166000Y-96520000D01*
X184912000Y-96520000D01*
X183568223Y-96520000D01*
X183448876Y-96773434D01*
X147928688Y-96773434D01*
X147856565Y-96725243D01*
X147608800Y-96675960D01*
X145608800Y-96675960D01*
X145361035Y-96725243D01*
X145150991Y-96865591D01*
X145051900Y-97013889D01*
X144706745Y-96783264D01*
X144229831Y-96688400D01*
X143907769Y-96688400D01*
X143430855Y-96783264D01*
X142890031Y-97144631D01*
X142528664Y-97685455D01*
X142401769Y-98323400D01*
X136431401Y-98323400D01*
X139633802Y-95121000D01*
X139830560Y-95121000D01*
X139830560Y-95361000D01*
X139879843Y-95608765D01*
X140020191Y-95818809D01*
X140230235Y-95959157D01*
X140478000Y-96008440D01*
X142478000Y-96008440D01*
X142725765Y-95959157D01*
X142935809Y-95818809D01*
X143034900Y-95670511D01*
X143380055Y-95901136D01*
X143856969Y-95996000D01*
X144179031Y-95996000D01*
X144655945Y-95901136D01*
X145196769Y-95539769D01*
X145558136Y-94998945D01*
X145685031Y-94361000D01*
X145558136Y-93723055D01*
X145196769Y-93182231D01*
X144704040Y-92853000D01*
X183391560Y-92853000D01*
X183391560Y-94853000D01*
X183440843Y-95100765D01*
X183581191Y-95310809D01*
X183750713Y-95424081D01*
X183645598Y-95537615D01*
X183448876Y-96012566D01*
X183568223Y-96266000D01*
X184912000Y-96266000D01*
X184912000Y-96246000D01*
X185166000Y-96246000D01*
X185166000Y-96266000D01*
X186509777Y-96266000D01*
X186629124Y-96012566D01*
X186432402Y-95537615D01*
X186327287Y-95424081D01*
X186496809Y-95310809D01*
X186637157Y-95100765D01*
X186686440Y-94853000D01*
X186686440Y-92853000D01*
X186637157Y-92605235D01*
X186496809Y-92395191D01*
X186286765Y-92254843D01*
X186039000Y-92205560D01*
X184039000Y-92205560D01*
X183791235Y-92254843D01*
X183581191Y-92395191D01*
X183440843Y-92605235D01*
X183391560Y-92853000D01*
X144704040Y-92853000D01*
X144655945Y-92820864D01*
X144179031Y-92726000D01*
X143856969Y-92726000D01*
X143380055Y-92820864D01*
X143034900Y-93051489D01*
X142935809Y-92903191D01*
X142725765Y-92762843D01*
X142478000Y-92713560D01*
X140478000Y-92713560D01*
X140230235Y-92762843D01*
X140020191Y-92903191D01*
X139879843Y-93113235D01*
X139830560Y-93361000D01*
X139830560Y-93601000D01*
X139393847Y-93601000D01*
X139319000Y-93586112D01*
X139244153Y-93601000D01*
X139244148Y-93601000D01*
X139022463Y-93645096D01*
X138771071Y-93813071D01*
X138728671Y-93876527D01*
X126131639Y-106473560D01*
X125533999Y-106473560D01*
X125190564Y-106541873D01*
X124899414Y-106736414D01*
X124766054Y-106936000D01*
X124581532Y-106936000D01*
X124439686Y-106723714D01*
X124148536Y-106529173D01*
X123805101Y-106460860D01*
X122905099Y-106460860D01*
X122561664Y-106529173D01*
X122270514Y-106723714D01*
X122137154Y-106923300D01*
X121789440Y-106923300D01*
X121789440Y-106696000D01*
X121740157Y-106448235D01*
X121599809Y-106238191D01*
X121389765Y-106097843D01*
X121142000Y-106048560D01*
X119142000Y-106048560D01*
X118894235Y-106097843D01*
X118684191Y-106238191D01*
X118585100Y-106386489D01*
X118239945Y-106155864D01*
X117763031Y-106061000D01*
X117440969Y-106061000D01*
X116964055Y-106155864D01*
X116423231Y-106517231D01*
X116061864Y-107058055D01*
X115934969Y-107696000D01*
X109343440Y-107696000D01*
X109343440Y-107458000D01*
X109294157Y-107210235D01*
X109153809Y-107000191D01*
X108943765Y-106859843D01*
X108696000Y-106810560D01*
X106696000Y-106810560D01*
X106448235Y-106859843D01*
X106238191Y-107000191D01*
X106124919Y-107169713D01*
X106011385Y-107064598D01*
X105536434Y-106867876D01*
X105283000Y-106987223D01*
X105029000Y-106987223D01*
X104775566Y-106867876D01*
X104300615Y-107064598D01*
X103832495Y-107498006D01*
X103565867Y-108077565D01*
X78867000Y-108077565D01*
X78867000Y-106426000D01*
X93709969Y-106426000D01*
X93836864Y-107063945D01*
X94198231Y-107604769D01*
X94739055Y-107966136D01*
X95215969Y-108061000D01*
X95538031Y-108061000D01*
X96014945Y-107966136D01*
X96555769Y-107604769D01*
X96917136Y-107063945D01*
X97044031Y-106426000D01*
X96917136Y-105788055D01*
X96686511Y-105442900D01*
X96834809Y-105343809D01*
X96975157Y-105133765D01*
X97024440Y-104886000D01*
X97024440Y-104140000D01*
X115172969Y-104140000D01*
X115299864Y-104777945D01*
X115661231Y-105318769D01*
X116202055Y-105680136D01*
X116678969Y-105775000D01*
X117001031Y-105775000D01*
X117477945Y-105680136D01*
X118018769Y-105318769D01*
X118380136Y-104777945D01*
X118507031Y-104140000D01*
X118380136Y-103502055D01*
X118149511Y-103156900D01*
X118297809Y-103057809D01*
X118438157Y-102847765D01*
X118487440Y-102600000D01*
X118487440Y-102360000D01*
X118930068Y-102360000D01*
X119057414Y-102550586D01*
X119155313Y-102616000D01*
X119057414Y-102681414D01*
X118862873Y-102972564D01*
X118794560Y-103315999D01*
X118794560Y-103966001D01*
X118862873Y-104309436D01*
X119057414Y-104600586D01*
X119348564Y-104795127D01*
X119691999Y-104863440D01*
X120592001Y-104863440D01*
X120935436Y-104795127D01*
X121226586Y-104600586D01*
X121281993Y-104517664D01*
X121343414Y-104609586D01*
X121634564Y-104804127D01*
X121977999Y-104872440D01*
X122878001Y-104872440D01*
X123221436Y-104804127D01*
X123512586Y-104609586D01*
X123571000Y-104522164D01*
X123629414Y-104609586D01*
X123920564Y-104804127D01*
X124263999Y-104872440D01*
X125164001Y-104872440D01*
X125507436Y-104804127D01*
X125798586Y-104609586D01*
X125993127Y-104318436D01*
X126061440Y-103975001D01*
X126061440Y-103377361D01*
X138254802Y-91184000D01*
X139830560Y-91184000D01*
X139830560Y-91424000D01*
X139879843Y-91671765D01*
X140020191Y-91881809D01*
X140230235Y-92022157D01*
X140478000Y-92071440D01*
X142478000Y-92071440D01*
X142725765Y-92022157D01*
X142935809Y-91881809D01*
X143034900Y-91733511D01*
X143380055Y-91964136D01*
X143856969Y-92059000D01*
X144179031Y-92059000D01*
X144655945Y-91964136D01*
X145196769Y-91602769D01*
X145558136Y-91061945D01*
X145603629Y-90833234D01*
X157996000Y-90833234D01*
X157996000Y-91284766D01*
X158168793Y-91701926D01*
X158488074Y-92021207D01*
X158905234Y-92194000D01*
X159356766Y-92194000D01*
X159773926Y-92021207D01*
X160093207Y-91701926D01*
X160266000Y-91284766D01*
X160266000Y-90998801D01*
X160885473Y-90379329D01*
X160948929Y-90336929D01*
X161116904Y-90085537D01*
X161161000Y-89863852D01*
X161161000Y-89863848D01*
X161175888Y-89789001D01*
X161161000Y-89714154D01*
X161161000Y-87985600D01*
X172753871Y-87985600D01*
X172900169Y-88721090D01*
X173316791Y-89344609D01*
X173940310Y-89761231D01*
X174490145Y-89870600D01*
X174861455Y-89870600D01*
X175411290Y-89761231D01*
X176034809Y-89344609D01*
X176451431Y-88721090D01*
X176597729Y-87985600D01*
X176451431Y-87250110D01*
X176107647Y-86735600D01*
X182938360Y-86735600D01*
X182938360Y-89235600D01*
X182987643Y-89483365D01*
X183127991Y-89693409D01*
X183338035Y-89833757D01*
X183585800Y-89883040D01*
X186085800Y-89883040D01*
X186333565Y-89833757D01*
X186543609Y-89693409D01*
X186683957Y-89483365D01*
X186733240Y-89235600D01*
X186733240Y-86735600D01*
X186683957Y-86487835D01*
X186543609Y-86277791D01*
X186333565Y-86137443D01*
X186085800Y-86088160D01*
X183585800Y-86088160D01*
X183338035Y-86137443D01*
X183127991Y-86277791D01*
X182987643Y-86487835D01*
X182938360Y-86735600D01*
X176107647Y-86735600D01*
X176034809Y-86626591D01*
X175411290Y-86209969D01*
X174861455Y-86100600D01*
X174490145Y-86100600D01*
X173940310Y-86209969D01*
X173316791Y-86626591D01*
X172900169Y-87250110D01*
X172753871Y-87985600D01*
X161161000Y-87985600D01*
X161161000Y-85173133D01*
X161363207Y-84970926D01*
X161536000Y-84553766D01*
X161536000Y-84102234D01*
X161363207Y-83685074D01*
X161043926Y-83365793D01*
X160626766Y-83193000D01*
X160175234Y-83193000D01*
X159758074Y-83365793D01*
X159438793Y-83685074D01*
X159266000Y-84102234D01*
X159266000Y-84553766D01*
X159438793Y-84970926D01*
X159641000Y-85173133D01*
X159641001Y-89474197D01*
X159191199Y-89924000D01*
X158905234Y-89924000D01*
X158488074Y-90096793D01*
X158168793Y-90416074D01*
X157996000Y-90833234D01*
X145603629Y-90833234D01*
X145685031Y-90424000D01*
X145558136Y-89786055D01*
X145196769Y-89245231D01*
X144655945Y-88883864D01*
X144179031Y-88789000D01*
X143856969Y-88789000D01*
X143380055Y-88883864D01*
X143034900Y-89114489D01*
X142935809Y-88966191D01*
X142725765Y-88825843D01*
X142478000Y-88776560D01*
X140478000Y-88776560D01*
X140230235Y-88825843D01*
X140020191Y-88966191D01*
X139879843Y-89176235D01*
X139830560Y-89424000D01*
X139830560Y-89664000D01*
X138014848Y-89664000D01*
X137940000Y-89649112D01*
X137865152Y-89664000D01*
X137865148Y-89664000D01*
X137643463Y-89708096D01*
X137392071Y-89876071D01*
X137349671Y-89939527D01*
X126049000Y-101240199D01*
X126049000Y-100898691D01*
X125952327Y-100665302D01*
X125773699Y-100486673D01*
X125540310Y-100390000D01*
X124999750Y-100390000D01*
X124841000Y-100548750D01*
X124841000Y-101473000D01*
X124861000Y-101473000D01*
X124861000Y-101727000D01*
X124841000Y-101727000D01*
X124841000Y-101747000D01*
X124587000Y-101747000D01*
X124587000Y-101727000D01*
X124567000Y-101727000D01*
X124567000Y-101473000D01*
X124587000Y-101473000D01*
X124587000Y-100548750D01*
X124428250Y-100390000D01*
X123887690Y-100390000D01*
X123654301Y-100486673D01*
X123505377Y-100635597D01*
X123428157Y-100584000D01*
X123512586Y-100527586D01*
X123707127Y-100236436D01*
X123775440Y-99893001D01*
X123775440Y-99242999D01*
X123707127Y-98899564D01*
X123512586Y-98608414D01*
X123511403Y-98607623D01*
X123666327Y-98452698D01*
X123763000Y-98219309D01*
X123763000Y-97803750D01*
X123604250Y-97645000D01*
X122555000Y-97645000D01*
X122555000Y-97665000D01*
X122301000Y-97665000D01*
X122301000Y-97645000D01*
X121251750Y-97645000D01*
X121233750Y-97663000D01*
X120269000Y-97663000D01*
X120269000Y-97683000D01*
X120015000Y-97683000D01*
X120015000Y-97663000D01*
X118965750Y-97663000D01*
X118807000Y-97821750D01*
X118807000Y-98237309D01*
X118903673Y-98470698D01*
X119058597Y-98625623D01*
X119057414Y-98626414D01*
X118862873Y-98917564D01*
X118794560Y-99260999D01*
X118794560Y-99911001D01*
X118862873Y-100254436D01*
X119057414Y-100545586D01*
X119121639Y-100588500D01*
X119057414Y-100631414D01*
X118918041Y-100840000D01*
X118487440Y-100840000D01*
X118487440Y-100600000D01*
X118438157Y-100352235D01*
X118297809Y-100142191D01*
X118087765Y-100001843D01*
X117840000Y-99952560D01*
X115840000Y-99952560D01*
X115592235Y-100001843D01*
X115382191Y-100142191D01*
X115241843Y-100352235D01*
X115192560Y-100600000D01*
X115192560Y-102600000D01*
X115241843Y-102847765D01*
X115382191Y-103057809D01*
X115530489Y-103156900D01*
X115299864Y-103502055D01*
X115172969Y-104140000D01*
X97024440Y-104140000D01*
X97024440Y-102886000D01*
X96975157Y-102638235D01*
X96834809Y-102428191D01*
X96624765Y-102287843D01*
X96377000Y-102238560D01*
X94377000Y-102238560D01*
X94129235Y-102287843D01*
X93919191Y-102428191D01*
X93778843Y-102638235D01*
X93729560Y-102886000D01*
X93729560Y-104886000D01*
X93778843Y-105133765D01*
X93919191Y-105343809D01*
X94067489Y-105442900D01*
X93836864Y-105788055D01*
X93709969Y-106426000D01*
X78867000Y-106426000D01*
X78867000Y-102886000D01*
X84966560Y-102886000D01*
X84966560Y-104886000D01*
X85015843Y-105133765D01*
X85156191Y-105343809D01*
X85366235Y-105484157D01*
X85614000Y-105533440D01*
X87614000Y-105533440D01*
X87861765Y-105484157D01*
X88071809Y-105343809D01*
X88170900Y-105195511D01*
X88516055Y-105426136D01*
X88992969Y-105521000D01*
X89315031Y-105521000D01*
X89791945Y-105426136D01*
X90332769Y-105064769D01*
X90694136Y-104523945D01*
X90821031Y-103886000D01*
X90694136Y-103248055D01*
X90332769Y-102707231D01*
X89791945Y-102345864D01*
X89315031Y-102251000D01*
X88992969Y-102251000D01*
X88516055Y-102345864D01*
X88170900Y-102576489D01*
X88071809Y-102428191D01*
X87861765Y-102287843D01*
X87614000Y-102238560D01*
X85614000Y-102238560D01*
X85366235Y-102287843D01*
X85156191Y-102428191D01*
X85015843Y-102638235D01*
X84966560Y-102886000D01*
X78867000Y-102886000D01*
X78867000Y-90468450D01*
X83384700Y-90468450D01*
X83384700Y-91009010D01*
X83481373Y-91242399D01*
X83660002Y-91421027D01*
X83893391Y-91517700D01*
X84308950Y-91517700D01*
X84467700Y-91358950D01*
X84467700Y-90309700D01*
X83543450Y-90309700D01*
X83384700Y-90468450D01*
X78867000Y-90468450D01*
X78867000Y-88461850D01*
X83366700Y-88461850D01*
X83366700Y-89002410D01*
X83449012Y-89201128D01*
X83384700Y-89356390D01*
X83384700Y-89896950D01*
X83543450Y-90055700D01*
X84467700Y-90055700D01*
X84467700Y-89006450D01*
X84449700Y-88988450D01*
X84449700Y-88303100D01*
X83525450Y-88303100D01*
X83366700Y-88461850D01*
X78867000Y-88461850D01*
X78867000Y-87349790D01*
X83366700Y-87349790D01*
X83366700Y-87890350D01*
X83525450Y-88049100D01*
X84449700Y-88049100D01*
X84449700Y-86999850D01*
X84703700Y-86999850D01*
X84703700Y-88049100D01*
X84723700Y-88049100D01*
X84723700Y-88303100D01*
X84703700Y-88303100D01*
X84703700Y-89352350D01*
X84721700Y-89370350D01*
X84721700Y-90055700D01*
X84741700Y-90055700D01*
X84741700Y-90309700D01*
X84721700Y-90309700D01*
X84721700Y-91358950D01*
X84801533Y-91438783D01*
X84764960Y-91622650D01*
X84764960Y-93340150D01*
X84814243Y-93587915D01*
X84954591Y-93797959D01*
X85072446Y-93876708D01*
X84864069Y-94188568D01*
X84748136Y-94771400D01*
X84864069Y-95354232D01*
X85194216Y-95848334D01*
X85296084Y-95916400D01*
X85194216Y-95984466D01*
X84864069Y-96478568D01*
X84748136Y-97061400D01*
X84864069Y-97644232D01*
X85194216Y-98138334D01*
X85688318Y-98468481D01*
X86124031Y-98555150D01*
X86900769Y-98555150D01*
X87336482Y-98468481D01*
X87830584Y-98138334D01*
X88160731Y-97644232D01*
X88276664Y-97061400D01*
X88160731Y-96478568D01*
X87830584Y-95984466D01*
X87728716Y-95916400D01*
X87830584Y-95848334D01*
X88160731Y-95354232D01*
X88276664Y-94771400D01*
X88160731Y-94188568D01*
X87952354Y-93876708D01*
X88070209Y-93797959D01*
X88210557Y-93587915D01*
X88259840Y-93340150D01*
X88259840Y-91622650D01*
X88210557Y-91374885D01*
X88070209Y-91164841D01*
X87860165Y-91024493D01*
X87777502Y-91008051D01*
X87798827Y-90976136D01*
X87867140Y-90632701D01*
X87867140Y-89732699D01*
X87798827Y-89389264D01*
X87649600Y-89165931D01*
X87780827Y-88969536D01*
X87849140Y-88626101D01*
X87849140Y-88519000D01*
X88991479Y-88519000D01*
X89209183Y-88844817D01*
X89528828Y-89058397D01*
X89517584Y-89114924D01*
X89572155Y-89389264D01*
X89586582Y-89461794D01*
X89783068Y-89755857D01*
X89857294Y-89805453D01*
X91156847Y-91105007D01*
X91206443Y-91179233D01*
X91280669Y-91228829D01*
X91500505Y-91375719D01*
X91847376Y-91444716D01*
X91934932Y-91427300D01*
X106626741Y-91427300D01*
X106505843Y-91608235D01*
X106456560Y-91856000D01*
X106456560Y-93556000D01*
X106505843Y-93803765D01*
X106646191Y-94013809D01*
X106769315Y-94096078D01*
X106555161Y-94416582D01*
X106439908Y-94996000D01*
X106555161Y-95575418D01*
X106883375Y-96066625D01*
X106994685Y-96141000D01*
X106883375Y-96215375D01*
X106555161Y-96706582D01*
X106439908Y-97286000D01*
X106555161Y-97865418D01*
X106883375Y-98356625D01*
X107374582Y-98684839D01*
X107807744Y-98771000D01*
X108600256Y-98771000D01*
X109033418Y-98684839D01*
X109524625Y-98356625D01*
X109852839Y-97865418D01*
X109968092Y-97286000D01*
X109878322Y-96834691D01*
X118807000Y-96834691D01*
X118807000Y-97250250D01*
X118965750Y-97409000D01*
X120015000Y-97409000D01*
X120015000Y-96484750D01*
X120269000Y-96484750D01*
X120269000Y-97409000D01*
X121318250Y-97409000D01*
X121336250Y-97391000D01*
X122301000Y-97391000D01*
X122301000Y-96466750D01*
X122555000Y-96466750D01*
X122555000Y-97391000D01*
X123604250Y-97391000D01*
X123763000Y-97232250D01*
X123763000Y-96816691D01*
X123666327Y-96583302D01*
X123487699Y-96404673D01*
X123254310Y-96308000D01*
X122713750Y-96308000D01*
X122555000Y-96466750D01*
X122301000Y-96466750D01*
X122142250Y-96308000D01*
X121601690Y-96308000D01*
X121368301Y-96404673D01*
X121276000Y-96496974D01*
X121201699Y-96422673D01*
X120968310Y-96326000D01*
X120427750Y-96326000D01*
X120269000Y-96484750D01*
X120015000Y-96484750D01*
X119856250Y-96326000D01*
X119315690Y-96326000D01*
X119082301Y-96422673D01*
X118903673Y-96601302D01*
X118807000Y-96834691D01*
X109878322Y-96834691D01*
X109852839Y-96706582D01*
X109524625Y-96215375D01*
X109413315Y-96141000D01*
X109524625Y-96066625D01*
X109852839Y-95575418D01*
X109968092Y-94996000D01*
X109852839Y-94416582D01*
X109638685Y-94096078D01*
X109761809Y-94013809D01*
X109881814Y-93834209D01*
X110113664Y-93989127D01*
X110457099Y-94057440D01*
X111107101Y-94057440D01*
X111450536Y-93989127D01*
X111741686Y-93794586D01*
X111742477Y-93793403D01*
X111897402Y-93948327D01*
X112130791Y-94045000D01*
X112546350Y-94045000D01*
X112705100Y-93886250D01*
X112705100Y-92837000D01*
X112959100Y-92837000D01*
X112959100Y-93886250D01*
X113117850Y-94045000D01*
X113533409Y-94045000D01*
X113766798Y-93948327D01*
X113945427Y-93769699D01*
X114042100Y-93536310D01*
X114042100Y-92995750D01*
X113883350Y-92837000D01*
X112959100Y-92837000D01*
X112705100Y-92837000D01*
X112685100Y-92837000D01*
X112685100Y-92583000D01*
X112705100Y-92583000D01*
X112705100Y-91533750D01*
X112959100Y-91533750D01*
X112959100Y-92583000D01*
X113883350Y-92583000D01*
X114042100Y-92424250D01*
X114042100Y-91883690D01*
X113945427Y-91650301D01*
X113766798Y-91471673D01*
X113533409Y-91375000D01*
X113117850Y-91375000D01*
X112959100Y-91533750D01*
X112705100Y-91533750D01*
X112546350Y-91375000D01*
X112130791Y-91375000D01*
X111897402Y-91471673D01*
X111742477Y-91626597D01*
X111741686Y-91625414D01*
X111489319Y-91456787D01*
X111527500Y-91364610D01*
X111527500Y-90824050D01*
X111368750Y-90665300D01*
X110444500Y-90665300D01*
X110444500Y-90685300D01*
X110190500Y-90685300D01*
X110190500Y-90665300D01*
X110170500Y-90665300D01*
X110170500Y-90411300D01*
X110190500Y-90411300D01*
X110190500Y-89362050D01*
X110031750Y-89203300D01*
X109616191Y-89203300D01*
X109382802Y-89299973D01*
X109227877Y-89454897D01*
X109227086Y-89453714D01*
X108935936Y-89259173D01*
X108592501Y-89190860D01*
X107942499Y-89190860D01*
X107599064Y-89259173D01*
X107307914Y-89453714D01*
X107177227Y-89649300D01*
X92215612Y-89649300D01*
X91502328Y-88936016D01*
X91638817Y-88844817D01*
X91721640Y-88720863D01*
X91977804Y-88996263D01*
X92575720Y-89269663D01*
X92837000Y-89151466D01*
X92837000Y-87757000D01*
X92817000Y-87757000D01*
X92817000Y-87503000D01*
X92837000Y-87503000D01*
X92837000Y-86108534D01*
X93091000Y-86108534D01*
X93091000Y-87503000D01*
X93111000Y-87503000D01*
X93111000Y-87757000D01*
X93091000Y-87757000D01*
X93091000Y-89151466D01*
X93352280Y-89269663D01*
X93912982Y-89013279D01*
X93996191Y-89137809D01*
X94206235Y-89278157D01*
X94454000Y-89327440D01*
X96554000Y-89327440D01*
X96801765Y-89278157D01*
X97011809Y-89137809D01*
X97152157Y-88927765D01*
X97201440Y-88680000D01*
X97201440Y-88274000D01*
X98182250Y-88274000D01*
X98229414Y-88344586D01*
X98520564Y-88539127D01*
X98863999Y-88607440D01*
X99764001Y-88607440D01*
X100107436Y-88539127D01*
X100398586Y-88344586D01*
X100443352Y-88277589D01*
X100748991Y-88735009D01*
X101372510Y-89151631D01*
X101922345Y-89261000D01*
X102293655Y-89261000D01*
X102843490Y-89151631D01*
X103467009Y-88735009D01*
X103883631Y-88111490D01*
X104029929Y-87376000D01*
X103883631Y-86640510D01*
X103539847Y-86126000D01*
X110370560Y-86126000D01*
X110370560Y-88626000D01*
X110419843Y-88873765D01*
X110560191Y-89083809D01*
X110739021Y-89203300D01*
X110603250Y-89203300D01*
X110444500Y-89362050D01*
X110444500Y-90411300D01*
X111368750Y-90411300D01*
X111527500Y-90252550D01*
X111527500Y-89711990D01*
X111430827Y-89478601D01*
X111252198Y-89299973D01*
X111188142Y-89273440D01*
X113518000Y-89273440D01*
X113765765Y-89224157D01*
X113975809Y-89083809D01*
X114116157Y-88873765D01*
X114165440Y-88626000D01*
X114165440Y-88265000D01*
X114705614Y-88265000D01*
X114899231Y-88554769D01*
X115440055Y-88916136D01*
X115916969Y-89011000D01*
X116239031Y-89011000D01*
X116715945Y-88916136D01*
X117059365Y-88686670D01*
X117079673Y-88735698D01*
X117258301Y-88914327D01*
X117491690Y-89011000D01*
X118332250Y-89011000D01*
X118491000Y-88852250D01*
X118491000Y-87503000D01*
X118745000Y-87503000D01*
X118745000Y-88852250D01*
X118903750Y-89011000D01*
X119744310Y-89011000D01*
X119977699Y-88914327D01*
X120156327Y-88735698D01*
X120253000Y-88502309D01*
X120253000Y-87661750D01*
X120094250Y-87503000D01*
X118745000Y-87503000D01*
X118491000Y-87503000D01*
X118471000Y-87503000D01*
X118471000Y-87249000D01*
X118491000Y-87249000D01*
X118491000Y-85899750D01*
X118745000Y-85899750D01*
X118745000Y-87249000D01*
X120094250Y-87249000D01*
X120253000Y-87090250D01*
X120253000Y-86249691D01*
X120156327Y-86016302D01*
X119977699Y-85837673D01*
X119744310Y-85741000D01*
X118903750Y-85741000D01*
X118745000Y-85899750D01*
X118491000Y-85899750D01*
X118332250Y-85741000D01*
X117491690Y-85741000D01*
X117258301Y-85837673D01*
X117079673Y-86016302D01*
X117059365Y-86065330D01*
X116715945Y-85835864D01*
X116239031Y-85741000D01*
X115916969Y-85741000D01*
X115440055Y-85835864D01*
X114899231Y-86197231D01*
X114705614Y-86487000D01*
X114165440Y-86487000D01*
X114165440Y-86126000D01*
X114116157Y-85878235D01*
X113975809Y-85668191D01*
X113765765Y-85527843D01*
X113518000Y-85478560D01*
X111018000Y-85478560D01*
X110770235Y-85527843D01*
X110560191Y-85668191D01*
X110419843Y-85878235D01*
X110370560Y-86126000D01*
X103539847Y-86126000D01*
X103467009Y-86016991D01*
X102843490Y-85600369D01*
X102293655Y-85491000D01*
X101922345Y-85491000D01*
X101372510Y-85600369D01*
X100748991Y-86016991D01*
X100437339Y-86483411D01*
X100398586Y-86425414D01*
X100397403Y-86424623D01*
X100552327Y-86269698D01*
X100649000Y-86036309D01*
X100649000Y-85620750D01*
X100490250Y-85462000D01*
X99441000Y-85462000D01*
X99441000Y-85482000D01*
X99187000Y-85482000D01*
X99187000Y-85462000D01*
X98137750Y-85462000D01*
X97979000Y-85620750D01*
X97979000Y-86036309D01*
X98075673Y-86269698D01*
X98230597Y-86424623D01*
X98229414Y-86425414D01*
X98182250Y-86496000D01*
X97184732Y-86496000D01*
X97152157Y-86332235D01*
X97011809Y-86122191D01*
X96801765Y-85981843D01*
X96554000Y-85932560D01*
X94454000Y-85932560D01*
X94206235Y-85981843D01*
X93996191Y-86122191D01*
X93912982Y-86246721D01*
X93352280Y-85990337D01*
X93091000Y-86108534D01*
X92837000Y-86108534D01*
X92575720Y-85990337D01*
X91977804Y-86263737D01*
X91721640Y-86539137D01*
X91638817Y-86415183D01*
X91081454Y-86042765D01*
X90589957Y-85945000D01*
X90258043Y-85945000D01*
X89766546Y-86042765D01*
X89209183Y-86415183D01*
X88991479Y-86741000D01*
X87085244Y-86741000D01*
X86825930Y-86792581D01*
X86771934Y-86828660D01*
X86301699Y-86828660D01*
X85958264Y-86896973D01*
X85667114Y-87091514D01*
X85666323Y-87092697D01*
X85511398Y-86937773D01*
X85278009Y-86841100D01*
X84862450Y-86841100D01*
X84703700Y-86999850D01*
X84449700Y-86999850D01*
X84290950Y-86841100D01*
X83875391Y-86841100D01*
X83642002Y-86937773D01*
X83463373Y-87116401D01*
X83366700Y-87349790D01*
X78867000Y-87349790D01*
X78867000Y-84633691D01*
X97979000Y-84633691D01*
X97979000Y-85049250D01*
X98137750Y-85208000D01*
X99187000Y-85208000D01*
X99187000Y-84283750D01*
X99441000Y-84283750D01*
X99441000Y-85208000D01*
X100490250Y-85208000D01*
X100649000Y-85049250D01*
X100649000Y-84633691D01*
X100552327Y-84400302D01*
X100373699Y-84221673D01*
X100140310Y-84125000D01*
X99599750Y-84125000D01*
X99441000Y-84283750D01*
X99187000Y-84283750D01*
X99028250Y-84125000D01*
X98487690Y-84125000D01*
X98254301Y-84221673D01*
X98075673Y-84400302D01*
X97979000Y-84633691D01*
X78867000Y-84633691D01*
X78867000Y-79279750D01*
X137666000Y-79279750D01*
X137666000Y-81660309D01*
X137762673Y-81893698D01*
X137941301Y-82072327D01*
X138174690Y-82169000D01*
X138418871Y-82169000D01*
X138377851Y-82292564D01*
X138409982Y-82736968D01*
X138518232Y-82998308D01*
X138731800Y-83033595D01*
X138844685Y-82920710D01*
X138921301Y-82997327D01*
X139066949Y-83057656D01*
X138911405Y-83213200D01*
X138946692Y-83426768D01*
X139369564Y-83567149D01*
X139813968Y-83535018D01*
X140075308Y-83426768D01*
X140110595Y-83213200D01*
X139955051Y-83057656D01*
X140100699Y-82997327D01*
X140177315Y-82920710D01*
X140290200Y-83033595D01*
X140503768Y-82998308D01*
X140644149Y-82575436D01*
X140614763Y-82169000D01*
X140847310Y-82169000D01*
X141080699Y-82072327D01*
X141259327Y-81893698D01*
X141356000Y-81660309D01*
X141356000Y-79279750D01*
X146426000Y-79279750D01*
X146426000Y-81660309D01*
X146522673Y-81893698D01*
X146701301Y-82072327D01*
X146934690Y-82169000D01*
X147178871Y-82169000D01*
X147137851Y-82292564D01*
X147169982Y-82736968D01*
X147278232Y-82998308D01*
X147491800Y-83033595D01*
X147604685Y-82920710D01*
X147681301Y-82997327D01*
X147826949Y-83057656D01*
X147671405Y-83213200D01*
X147706692Y-83426768D01*
X148129564Y-83567149D01*
X148573968Y-83535018D01*
X148835308Y-83426768D01*
X148870595Y-83213200D01*
X148715051Y-83057656D01*
X148860699Y-82997327D01*
X148937315Y-82920710D01*
X149050200Y-83033595D01*
X149263768Y-82998308D01*
X149404149Y-82575436D01*
X149374763Y-82169000D01*
X149607310Y-82169000D01*
X149840699Y-82072327D01*
X150019327Y-81893698D01*
X150116000Y-81660309D01*
X150116000Y-79279750D01*
X149957250Y-79121000D01*
X148398000Y-79121000D01*
X148398000Y-79141000D01*
X148144000Y-79141000D01*
X148144000Y-79121000D01*
X146584750Y-79121000D01*
X146426000Y-79279750D01*
X141356000Y-79279750D01*
X141197250Y-79121000D01*
X139638000Y-79121000D01*
X139638000Y-79141000D01*
X139384000Y-79141000D01*
X139384000Y-79121000D01*
X137824750Y-79121000D01*
X137666000Y-79279750D01*
X78867000Y-79279750D01*
X78867000Y-79025750D01*
X154049000Y-79025750D01*
X154049000Y-81406309D01*
X154145673Y-81639698D01*
X154324301Y-81818327D01*
X154557690Y-81915000D01*
X154801871Y-81915000D01*
X154760851Y-82038564D01*
X154792982Y-82482968D01*
X154901232Y-82744308D01*
X155114800Y-82779595D01*
X155227685Y-82666710D01*
X155304301Y-82743327D01*
X155449949Y-82803656D01*
X155294405Y-82959200D01*
X155329692Y-83172768D01*
X155752564Y-83313149D01*
X156196968Y-83281018D01*
X156458308Y-83172768D01*
X156493595Y-82959200D01*
X156338051Y-82803656D01*
X156483699Y-82743327D01*
X156560315Y-82666710D01*
X156673200Y-82779595D01*
X156886768Y-82744308D01*
X157027149Y-82321436D01*
X156997763Y-81915000D01*
X157230310Y-81915000D01*
X157463699Y-81818327D01*
X157642327Y-81639698D01*
X157739000Y-81406309D01*
X157739000Y-79025750D01*
X162809000Y-79025750D01*
X162809000Y-81406309D01*
X162905673Y-81639698D01*
X163084301Y-81818327D01*
X163317690Y-81915000D01*
X163561871Y-81915000D01*
X163520851Y-82038564D01*
X163552982Y-82482968D01*
X163661232Y-82744308D01*
X163874800Y-82779595D01*
X163987685Y-82666710D01*
X164064301Y-82743327D01*
X164209949Y-82803656D01*
X164054405Y-82959200D01*
X164089692Y-83172768D01*
X164512564Y-83313149D01*
X164956968Y-83281018D01*
X165218308Y-83172768D01*
X165253595Y-82959200D01*
X165098051Y-82803656D01*
X165243699Y-82743327D01*
X165320315Y-82666710D01*
X165433200Y-82779595D01*
X165646768Y-82744308D01*
X165787149Y-82321436D01*
X165757763Y-81915000D01*
X165990310Y-81915000D01*
X166223699Y-81818327D01*
X166402327Y-81639698D01*
X166499000Y-81406309D01*
X166499000Y-79025750D01*
X166340250Y-78867000D01*
X164781000Y-78867000D01*
X164781000Y-78887000D01*
X164527000Y-78887000D01*
X164527000Y-78867000D01*
X162967750Y-78867000D01*
X162809000Y-79025750D01*
X157739000Y-79025750D01*
X157580250Y-78867000D01*
X156021000Y-78867000D01*
X156021000Y-78887000D01*
X155767000Y-78887000D01*
X155767000Y-78867000D01*
X154207750Y-78867000D01*
X154049000Y-79025750D01*
X78867000Y-79025750D01*
X78867000Y-76327000D01*
X137666286Y-76327000D01*
X137666000Y-76327691D01*
G04 #@! TD*
M02*
