G04 #@! TF.GenerationSoftware,KiCad,Pcbnew,(6.0.0-rc1-dev-305-gf0b8b21)*
G04 #@! TF.CreationDate,2020-02-06T15:36:58-08:00*
G04 #@! TF.ProjectId,5thOrderChebyshevShuntFirst,3574684F726465724368656279736865,rev?*
G04 #@! TF.SameCoordinates,Original*
G04 #@! TF.FileFunction,Copper,L1,Top,Signal*
G04 #@! TF.FilePolarity,Positive*
%FSLAX46Y46*%
G04 Gerber Fmt 4.6, Leading zero omitted, Abs format (unit mm)*
G04 Created by KiCad (PCBNEW (6.0.0-rc1-dev-305-gf0b8b21)) date Thursday, February 06, 2020 at 03:36:58 PM*
%MOMM*%
%LPD*%
G01*
G04 APERTURE LIST*
G04 #@! TA.AperFunction,SMDPad,CuDef*
%ADD10R,1.778000X1.778000*%
G04 #@! TD*
G04 #@! TA.AperFunction,Conductor*
%ADD11C,0.100000*%
G04 #@! TD*
G04 #@! TA.AperFunction,SMDPad,CuDef*
%ADD12C,1.150000*%
G04 #@! TD*
G04 #@! TA.AperFunction,SMDPad,CuDef*
%ADD13R,5.080000X1.500000*%
G04 #@! TD*
G04 #@! TA.AperFunction,Conductor*
%ADD14C,0.250000*%
G04 #@! TD*
G04 #@! TA.AperFunction,Conductor*
%ADD15C,0.254000*%
G04 #@! TD*
G04 APERTURE END LIST*
D10*
G04 #@! TO.P,C1,1*
G04 #@! TO.N,Net-(C1-Pad1)*
X130429000Y-63452248D03*
G04 #@! TO.P,C1,2*
G04 #@! TO.N,GND*
X130429000Y-57516776D03*
G04 #@! TD*
D11*
G04 #@! TO.N,Net-(C1-Pad1)*
G04 #@! TO.C,C2*
G36*
X127855505Y-62817204D02*
X127879773Y-62820804D01*
X127903572Y-62826765D01*
X127926671Y-62835030D01*
X127948850Y-62845520D01*
X127969893Y-62858132D01*
X127989599Y-62872747D01*
X128007777Y-62889223D01*
X128024253Y-62907401D01*
X128038868Y-62927107D01*
X128051480Y-62948150D01*
X128061970Y-62970329D01*
X128070235Y-62993428D01*
X128076196Y-63017227D01*
X128079796Y-63041495D01*
X128081000Y-63065999D01*
X128081000Y-63716001D01*
X128079796Y-63740505D01*
X128076196Y-63764773D01*
X128070235Y-63788572D01*
X128061970Y-63811671D01*
X128051480Y-63833850D01*
X128038868Y-63854893D01*
X128024253Y-63874599D01*
X128007777Y-63892777D01*
X127989599Y-63909253D01*
X127969893Y-63923868D01*
X127948850Y-63936480D01*
X127926671Y-63946970D01*
X127903572Y-63955235D01*
X127879773Y-63961196D01*
X127855505Y-63964796D01*
X127831001Y-63966000D01*
X126930999Y-63966000D01*
X126906495Y-63964796D01*
X126882227Y-63961196D01*
X126858428Y-63955235D01*
X126835329Y-63946970D01*
X126813150Y-63936480D01*
X126792107Y-63923868D01*
X126772401Y-63909253D01*
X126754223Y-63892777D01*
X126737747Y-63874599D01*
X126723132Y-63854893D01*
X126710520Y-63833850D01*
X126700030Y-63811671D01*
X126691765Y-63788572D01*
X126685804Y-63764773D01*
X126682204Y-63740505D01*
X126681000Y-63716001D01*
X126681000Y-63065999D01*
X126682204Y-63041495D01*
X126685804Y-63017227D01*
X126691765Y-62993428D01*
X126700030Y-62970329D01*
X126710520Y-62948150D01*
X126723132Y-62927107D01*
X126737747Y-62907401D01*
X126754223Y-62889223D01*
X126772401Y-62872747D01*
X126792107Y-62858132D01*
X126813150Y-62845520D01*
X126835329Y-62835030D01*
X126858428Y-62826765D01*
X126882227Y-62820804D01*
X126906495Y-62817204D01*
X126930999Y-62816000D01*
X127831001Y-62816000D01*
X127855505Y-62817204D01*
X127855505Y-62817204D01*
G37*
D12*
G04 #@! TD*
G04 #@! TO.P,C2,1*
G04 #@! TO.N,Net-(C1-Pad1)*
X127381000Y-63391000D03*
D11*
G04 #@! TO.N,GND*
G04 #@! TO.C,C2*
G36*
X127855505Y-60767204D02*
X127879773Y-60770804D01*
X127903572Y-60776765D01*
X127926671Y-60785030D01*
X127948850Y-60795520D01*
X127969893Y-60808132D01*
X127989599Y-60822747D01*
X128007777Y-60839223D01*
X128024253Y-60857401D01*
X128038868Y-60877107D01*
X128051480Y-60898150D01*
X128061970Y-60920329D01*
X128070235Y-60943428D01*
X128076196Y-60967227D01*
X128079796Y-60991495D01*
X128081000Y-61015999D01*
X128081000Y-61666001D01*
X128079796Y-61690505D01*
X128076196Y-61714773D01*
X128070235Y-61738572D01*
X128061970Y-61761671D01*
X128051480Y-61783850D01*
X128038868Y-61804893D01*
X128024253Y-61824599D01*
X128007777Y-61842777D01*
X127989599Y-61859253D01*
X127969893Y-61873868D01*
X127948850Y-61886480D01*
X127926671Y-61896970D01*
X127903572Y-61905235D01*
X127879773Y-61911196D01*
X127855505Y-61914796D01*
X127831001Y-61916000D01*
X126930999Y-61916000D01*
X126906495Y-61914796D01*
X126882227Y-61911196D01*
X126858428Y-61905235D01*
X126835329Y-61896970D01*
X126813150Y-61886480D01*
X126792107Y-61873868D01*
X126772401Y-61859253D01*
X126754223Y-61842777D01*
X126737747Y-61824599D01*
X126723132Y-61804893D01*
X126710520Y-61783850D01*
X126700030Y-61761671D01*
X126691765Y-61738572D01*
X126685804Y-61714773D01*
X126682204Y-61690505D01*
X126681000Y-61666001D01*
X126681000Y-61015999D01*
X126682204Y-60991495D01*
X126685804Y-60967227D01*
X126691765Y-60943428D01*
X126700030Y-60920329D01*
X126710520Y-60898150D01*
X126723132Y-60877107D01*
X126737747Y-60857401D01*
X126754223Y-60839223D01*
X126772401Y-60822747D01*
X126792107Y-60808132D01*
X126813150Y-60795520D01*
X126835329Y-60785030D01*
X126858428Y-60776765D01*
X126882227Y-60770804D01*
X126906495Y-60767204D01*
X126930999Y-60766000D01*
X127831001Y-60766000D01*
X127855505Y-60767204D01*
X127855505Y-60767204D01*
G37*
D12*
G04 #@! TD*
G04 #@! TO.P,C2,2*
G04 #@! TO.N,GND*
X127381000Y-61341000D03*
D10*
G04 #@! TO.P,C3,2*
G04 #@! TO.N,Net-(C1-Pad1)*
X133510528Y-59944000D03*
G04 #@! TO.P,C3,1*
G04 #@! TO.N,Net-(C3-Pad1)*
X139446000Y-59944000D03*
G04 #@! TD*
D11*
G04 #@! TO.N,Net-(C1-Pad1)*
G04 #@! TO.C,C4*
G36*
X134207505Y-62674204D02*
X134231773Y-62677804D01*
X134255572Y-62683765D01*
X134278671Y-62692030D01*
X134300850Y-62702520D01*
X134321893Y-62715132D01*
X134341599Y-62729747D01*
X134359777Y-62746223D01*
X134376253Y-62764401D01*
X134390868Y-62784107D01*
X134403480Y-62805150D01*
X134413970Y-62827329D01*
X134422235Y-62850428D01*
X134428196Y-62874227D01*
X134431796Y-62898495D01*
X134433000Y-62922999D01*
X134433000Y-63823001D01*
X134431796Y-63847505D01*
X134428196Y-63871773D01*
X134422235Y-63895572D01*
X134413970Y-63918671D01*
X134403480Y-63940850D01*
X134390868Y-63961893D01*
X134376253Y-63981599D01*
X134359777Y-63999777D01*
X134341599Y-64016253D01*
X134321893Y-64030868D01*
X134300850Y-64043480D01*
X134278671Y-64053970D01*
X134255572Y-64062235D01*
X134231773Y-64068196D01*
X134207505Y-64071796D01*
X134183001Y-64073000D01*
X133532999Y-64073000D01*
X133508495Y-64071796D01*
X133484227Y-64068196D01*
X133460428Y-64062235D01*
X133437329Y-64053970D01*
X133415150Y-64043480D01*
X133394107Y-64030868D01*
X133374401Y-64016253D01*
X133356223Y-63999777D01*
X133339747Y-63981599D01*
X133325132Y-63961893D01*
X133312520Y-63940850D01*
X133302030Y-63918671D01*
X133293765Y-63895572D01*
X133287804Y-63871773D01*
X133284204Y-63847505D01*
X133283000Y-63823001D01*
X133283000Y-62922999D01*
X133284204Y-62898495D01*
X133287804Y-62874227D01*
X133293765Y-62850428D01*
X133302030Y-62827329D01*
X133312520Y-62805150D01*
X133325132Y-62784107D01*
X133339747Y-62764401D01*
X133356223Y-62746223D01*
X133374401Y-62729747D01*
X133394107Y-62715132D01*
X133415150Y-62702520D01*
X133437329Y-62692030D01*
X133460428Y-62683765D01*
X133484227Y-62677804D01*
X133508495Y-62674204D01*
X133532999Y-62673000D01*
X134183001Y-62673000D01*
X134207505Y-62674204D01*
X134207505Y-62674204D01*
G37*
D12*
G04 #@! TD*
G04 #@! TO.P,C4,2*
G04 #@! TO.N,Net-(C1-Pad1)*
X133858000Y-63373000D03*
D11*
G04 #@! TO.N,Net-(C3-Pad1)*
G04 #@! TO.C,C4*
G36*
X136257505Y-62674204D02*
X136281773Y-62677804D01*
X136305572Y-62683765D01*
X136328671Y-62692030D01*
X136350850Y-62702520D01*
X136371893Y-62715132D01*
X136391599Y-62729747D01*
X136409777Y-62746223D01*
X136426253Y-62764401D01*
X136440868Y-62784107D01*
X136453480Y-62805150D01*
X136463970Y-62827329D01*
X136472235Y-62850428D01*
X136478196Y-62874227D01*
X136481796Y-62898495D01*
X136483000Y-62922999D01*
X136483000Y-63823001D01*
X136481796Y-63847505D01*
X136478196Y-63871773D01*
X136472235Y-63895572D01*
X136463970Y-63918671D01*
X136453480Y-63940850D01*
X136440868Y-63961893D01*
X136426253Y-63981599D01*
X136409777Y-63999777D01*
X136391599Y-64016253D01*
X136371893Y-64030868D01*
X136350850Y-64043480D01*
X136328671Y-64053970D01*
X136305572Y-64062235D01*
X136281773Y-64068196D01*
X136257505Y-64071796D01*
X136233001Y-64073000D01*
X135582999Y-64073000D01*
X135558495Y-64071796D01*
X135534227Y-64068196D01*
X135510428Y-64062235D01*
X135487329Y-64053970D01*
X135465150Y-64043480D01*
X135444107Y-64030868D01*
X135424401Y-64016253D01*
X135406223Y-63999777D01*
X135389747Y-63981599D01*
X135375132Y-63961893D01*
X135362520Y-63940850D01*
X135352030Y-63918671D01*
X135343765Y-63895572D01*
X135337804Y-63871773D01*
X135334204Y-63847505D01*
X135333000Y-63823001D01*
X135333000Y-62922999D01*
X135334204Y-62898495D01*
X135337804Y-62874227D01*
X135343765Y-62850428D01*
X135352030Y-62827329D01*
X135362520Y-62805150D01*
X135375132Y-62784107D01*
X135389747Y-62764401D01*
X135406223Y-62746223D01*
X135424401Y-62729747D01*
X135444107Y-62715132D01*
X135465150Y-62702520D01*
X135487329Y-62692030D01*
X135510428Y-62683765D01*
X135534227Y-62677804D01*
X135558495Y-62674204D01*
X135582999Y-62673000D01*
X136233001Y-62673000D01*
X136257505Y-62674204D01*
X136257505Y-62674204D01*
G37*
D12*
G04 #@! TD*
G04 #@! TO.P,C4,1*
G04 #@! TO.N,Net-(C3-Pad1)*
X135908000Y-63373000D03*
D10*
G04 #@! TO.P,C5,1*
G04 #@! TO.N,Net-(C5-Pad1)*
X150090124Y-63396876D03*
G04 #@! TO.P,C5,2*
G04 #@! TO.N,GND*
X150090124Y-69332348D03*
G04 #@! TD*
D11*
G04 #@! TO.N,Net-(C5-Pad1)*
G04 #@! TO.C,C6*
G36*
X144755505Y-62790204D02*
X144779773Y-62793804D01*
X144803572Y-62799765D01*
X144826671Y-62808030D01*
X144848850Y-62818520D01*
X144869893Y-62831132D01*
X144889599Y-62845747D01*
X144907777Y-62862223D01*
X144924253Y-62880401D01*
X144938868Y-62900107D01*
X144951480Y-62921150D01*
X144961970Y-62943329D01*
X144970235Y-62966428D01*
X144976196Y-62990227D01*
X144979796Y-63014495D01*
X144981000Y-63038999D01*
X144981000Y-63689001D01*
X144979796Y-63713505D01*
X144976196Y-63737773D01*
X144970235Y-63761572D01*
X144961970Y-63784671D01*
X144951480Y-63806850D01*
X144938868Y-63827893D01*
X144924253Y-63847599D01*
X144907777Y-63865777D01*
X144889599Y-63882253D01*
X144869893Y-63896868D01*
X144848850Y-63909480D01*
X144826671Y-63919970D01*
X144803572Y-63928235D01*
X144779773Y-63934196D01*
X144755505Y-63937796D01*
X144731001Y-63939000D01*
X143830999Y-63939000D01*
X143806495Y-63937796D01*
X143782227Y-63934196D01*
X143758428Y-63928235D01*
X143735329Y-63919970D01*
X143713150Y-63909480D01*
X143692107Y-63896868D01*
X143672401Y-63882253D01*
X143654223Y-63865777D01*
X143637747Y-63847599D01*
X143623132Y-63827893D01*
X143610520Y-63806850D01*
X143600030Y-63784671D01*
X143591765Y-63761572D01*
X143585804Y-63737773D01*
X143582204Y-63713505D01*
X143581000Y-63689001D01*
X143581000Y-63038999D01*
X143582204Y-63014495D01*
X143585804Y-62990227D01*
X143591765Y-62966428D01*
X143600030Y-62943329D01*
X143610520Y-62921150D01*
X143623132Y-62900107D01*
X143637747Y-62880401D01*
X143654223Y-62862223D01*
X143672401Y-62845747D01*
X143692107Y-62831132D01*
X143713150Y-62818520D01*
X143735329Y-62808030D01*
X143758428Y-62799765D01*
X143782227Y-62793804D01*
X143806495Y-62790204D01*
X143830999Y-62789000D01*
X144731001Y-62789000D01*
X144755505Y-62790204D01*
X144755505Y-62790204D01*
G37*
D12*
G04 #@! TD*
G04 #@! TO.P,C6,1*
G04 #@! TO.N,Net-(C5-Pad1)*
X144281000Y-63364000D03*
D11*
G04 #@! TO.N,GND*
G04 #@! TO.C,C6*
G36*
X144755505Y-64840204D02*
X144779773Y-64843804D01*
X144803572Y-64849765D01*
X144826671Y-64858030D01*
X144848850Y-64868520D01*
X144869893Y-64881132D01*
X144889599Y-64895747D01*
X144907777Y-64912223D01*
X144924253Y-64930401D01*
X144938868Y-64950107D01*
X144951480Y-64971150D01*
X144961970Y-64993329D01*
X144970235Y-65016428D01*
X144976196Y-65040227D01*
X144979796Y-65064495D01*
X144981000Y-65088999D01*
X144981000Y-65739001D01*
X144979796Y-65763505D01*
X144976196Y-65787773D01*
X144970235Y-65811572D01*
X144961970Y-65834671D01*
X144951480Y-65856850D01*
X144938868Y-65877893D01*
X144924253Y-65897599D01*
X144907777Y-65915777D01*
X144889599Y-65932253D01*
X144869893Y-65946868D01*
X144848850Y-65959480D01*
X144826671Y-65969970D01*
X144803572Y-65978235D01*
X144779773Y-65984196D01*
X144755505Y-65987796D01*
X144731001Y-65989000D01*
X143830999Y-65989000D01*
X143806495Y-65987796D01*
X143782227Y-65984196D01*
X143758428Y-65978235D01*
X143735329Y-65969970D01*
X143713150Y-65959480D01*
X143692107Y-65946868D01*
X143672401Y-65932253D01*
X143654223Y-65915777D01*
X143637747Y-65897599D01*
X143623132Y-65877893D01*
X143610520Y-65856850D01*
X143600030Y-65834671D01*
X143591765Y-65811572D01*
X143585804Y-65787773D01*
X143582204Y-65763505D01*
X143581000Y-65739001D01*
X143581000Y-65088999D01*
X143582204Y-65064495D01*
X143585804Y-65040227D01*
X143591765Y-65016428D01*
X143600030Y-64993329D01*
X143610520Y-64971150D01*
X143623132Y-64950107D01*
X143637747Y-64930401D01*
X143654223Y-64912223D01*
X143672401Y-64895747D01*
X143692107Y-64881132D01*
X143713150Y-64868520D01*
X143735329Y-64858030D01*
X143758428Y-64849765D01*
X143782227Y-64843804D01*
X143806495Y-64840204D01*
X143830999Y-64839000D01*
X144731001Y-64839000D01*
X144755505Y-64840204D01*
X144755505Y-64840204D01*
G37*
D12*
G04 #@! TD*
G04 #@! TO.P,C6,2*
G04 #@! TO.N,GND*
X144281000Y-65414000D03*
D10*
G04 #@! TO.P,C7,2*
G04 #@! TO.N,Net-(C5-Pad1)*
X153322528Y-59944000D03*
G04 #@! TO.P,C7,1*
G04 #@! TO.N,Net-(C7-Pad1)*
X159258000Y-59944000D03*
G04 #@! TD*
D11*
G04 #@! TO.N,Net-(C5-Pad1)*
G04 #@! TO.C,C8*
G36*
X153874505Y-62674204D02*
X153898773Y-62677804D01*
X153922572Y-62683765D01*
X153945671Y-62692030D01*
X153967850Y-62702520D01*
X153988893Y-62715132D01*
X154008599Y-62729747D01*
X154026777Y-62746223D01*
X154043253Y-62764401D01*
X154057868Y-62784107D01*
X154070480Y-62805150D01*
X154080970Y-62827329D01*
X154089235Y-62850428D01*
X154095196Y-62874227D01*
X154098796Y-62898495D01*
X154100000Y-62922999D01*
X154100000Y-63823001D01*
X154098796Y-63847505D01*
X154095196Y-63871773D01*
X154089235Y-63895572D01*
X154080970Y-63918671D01*
X154070480Y-63940850D01*
X154057868Y-63961893D01*
X154043253Y-63981599D01*
X154026777Y-63999777D01*
X154008599Y-64016253D01*
X153988893Y-64030868D01*
X153967850Y-64043480D01*
X153945671Y-64053970D01*
X153922572Y-64062235D01*
X153898773Y-64068196D01*
X153874505Y-64071796D01*
X153850001Y-64073000D01*
X153199999Y-64073000D01*
X153175495Y-64071796D01*
X153151227Y-64068196D01*
X153127428Y-64062235D01*
X153104329Y-64053970D01*
X153082150Y-64043480D01*
X153061107Y-64030868D01*
X153041401Y-64016253D01*
X153023223Y-63999777D01*
X153006747Y-63981599D01*
X152992132Y-63961893D01*
X152979520Y-63940850D01*
X152969030Y-63918671D01*
X152960765Y-63895572D01*
X152954804Y-63871773D01*
X152951204Y-63847505D01*
X152950000Y-63823001D01*
X152950000Y-62922999D01*
X152951204Y-62898495D01*
X152954804Y-62874227D01*
X152960765Y-62850428D01*
X152969030Y-62827329D01*
X152979520Y-62805150D01*
X152992132Y-62784107D01*
X153006747Y-62764401D01*
X153023223Y-62746223D01*
X153041401Y-62729747D01*
X153061107Y-62715132D01*
X153082150Y-62702520D01*
X153104329Y-62692030D01*
X153127428Y-62683765D01*
X153151227Y-62677804D01*
X153175495Y-62674204D01*
X153199999Y-62673000D01*
X153850001Y-62673000D01*
X153874505Y-62674204D01*
X153874505Y-62674204D01*
G37*
D12*
G04 #@! TD*
G04 #@! TO.P,C8,2*
G04 #@! TO.N,Net-(C5-Pad1)*
X153525000Y-63373000D03*
D11*
G04 #@! TO.N,Net-(C7-Pad1)*
G04 #@! TO.C,C8*
G36*
X155924505Y-62674204D02*
X155948773Y-62677804D01*
X155972572Y-62683765D01*
X155995671Y-62692030D01*
X156017850Y-62702520D01*
X156038893Y-62715132D01*
X156058599Y-62729747D01*
X156076777Y-62746223D01*
X156093253Y-62764401D01*
X156107868Y-62784107D01*
X156120480Y-62805150D01*
X156130970Y-62827329D01*
X156139235Y-62850428D01*
X156145196Y-62874227D01*
X156148796Y-62898495D01*
X156150000Y-62922999D01*
X156150000Y-63823001D01*
X156148796Y-63847505D01*
X156145196Y-63871773D01*
X156139235Y-63895572D01*
X156130970Y-63918671D01*
X156120480Y-63940850D01*
X156107868Y-63961893D01*
X156093253Y-63981599D01*
X156076777Y-63999777D01*
X156058599Y-64016253D01*
X156038893Y-64030868D01*
X156017850Y-64043480D01*
X155995671Y-64053970D01*
X155972572Y-64062235D01*
X155948773Y-64068196D01*
X155924505Y-64071796D01*
X155900001Y-64073000D01*
X155249999Y-64073000D01*
X155225495Y-64071796D01*
X155201227Y-64068196D01*
X155177428Y-64062235D01*
X155154329Y-64053970D01*
X155132150Y-64043480D01*
X155111107Y-64030868D01*
X155091401Y-64016253D01*
X155073223Y-63999777D01*
X155056747Y-63981599D01*
X155042132Y-63961893D01*
X155029520Y-63940850D01*
X155019030Y-63918671D01*
X155010765Y-63895572D01*
X155004804Y-63871773D01*
X155001204Y-63847505D01*
X155000000Y-63823001D01*
X155000000Y-62922999D01*
X155001204Y-62898495D01*
X155004804Y-62874227D01*
X155010765Y-62850428D01*
X155019030Y-62827329D01*
X155029520Y-62805150D01*
X155042132Y-62784107D01*
X155056747Y-62764401D01*
X155073223Y-62746223D01*
X155091401Y-62729747D01*
X155111107Y-62715132D01*
X155132150Y-62702520D01*
X155154329Y-62692030D01*
X155177428Y-62683765D01*
X155201227Y-62677804D01*
X155225495Y-62674204D01*
X155249999Y-62673000D01*
X155900001Y-62673000D01*
X155924505Y-62674204D01*
X155924505Y-62674204D01*
G37*
D12*
G04 #@! TD*
G04 #@! TO.P,C8,1*
G04 #@! TO.N,Net-(C7-Pad1)*
X155575000Y-63373000D03*
D10*
G04 #@! TO.P,C9,1*
G04 #@! TO.N,Net-(C10-Pad1)*
X163576000Y-63349124D03*
G04 #@! TO.P,C9,2*
G04 #@! TO.N,GND*
X163576000Y-57413652D03*
G04 #@! TD*
D11*
G04 #@! TO.N,Net-(C10-Pad1)*
G04 #@! TO.C,C10*
G36*
X167098505Y-62817204D02*
X167122773Y-62820804D01*
X167146572Y-62826765D01*
X167169671Y-62835030D01*
X167191850Y-62845520D01*
X167212893Y-62858132D01*
X167232599Y-62872747D01*
X167250777Y-62889223D01*
X167267253Y-62907401D01*
X167281868Y-62927107D01*
X167294480Y-62948150D01*
X167304970Y-62970329D01*
X167313235Y-62993428D01*
X167319196Y-63017227D01*
X167322796Y-63041495D01*
X167324000Y-63065999D01*
X167324000Y-63716001D01*
X167322796Y-63740505D01*
X167319196Y-63764773D01*
X167313235Y-63788572D01*
X167304970Y-63811671D01*
X167294480Y-63833850D01*
X167281868Y-63854893D01*
X167267253Y-63874599D01*
X167250777Y-63892777D01*
X167232599Y-63909253D01*
X167212893Y-63923868D01*
X167191850Y-63936480D01*
X167169671Y-63946970D01*
X167146572Y-63955235D01*
X167122773Y-63961196D01*
X167098505Y-63964796D01*
X167074001Y-63966000D01*
X166173999Y-63966000D01*
X166149495Y-63964796D01*
X166125227Y-63961196D01*
X166101428Y-63955235D01*
X166078329Y-63946970D01*
X166056150Y-63936480D01*
X166035107Y-63923868D01*
X166015401Y-63909253D01*
X165997223Y-63892777D01*
X165980747Y-63874599D01*
X165966132Y-63854893D01*
X165953520Y-63833850D01*
X165943030Y-63811671D01*
X165934765Y-63788572D01*
X165928804Y-63764773D01*
X165925204Y-63740505D01*
X165924000Y-63716001D01*
X165924000Y-63065999D01*
X165925204Y-63041495D01*
X165928804Y-63017227D01*
X165934765Y-62993428D01*
X165943030Y-62970329D01*
X165953520Y-62948150D01*
X165966132Y-62927107D01*
X165980747Y-62907401D01*
X165997223Y-62889223D01*
X166015401Y-62872747D01*
X166035107Y-62858132D01*
X166056150Y-62845520D01*
X166078329Y-62835030D01*
X166101428Y-62826765D01*
X166125227Y-62820804D01*
X166149495Y-62817204D01*
X166173999Y-62816000D01*
X167074001Y-62816000D01*
X167098505Y-62817204D01*
X167098505Y-62817204D01*
G37*
D12*
G04 #@! TD*
G04 #@! TO.P,C10,1*
G04 #@! TO.N,Net-(C10-Pad1)*
X166624000Y-63391000D03*
D11*
G04 #@! TO.N,GND*
G04 #@! TO.C,C10*
G36*
X167098505Y-60767204D02*
X167122773Y-60770804D01*
X167146572Y-60776765D01*
X167169671Y-60785030D01*
X167191850Y-60795520D01*
X167212893Y-60808132D01*
X167232599Y-60822747D01*
X167250777Y-60839223D01*
X167267253Y-60857401D01*
X167281868Y-60877107D01*
X167294480Y-60898150D01*
X167304970Y-60920329D01*
X167313235Y-60943428D01*
X167319196Y-60967227D01*
X167322796Y-60991495D01*
X167324000Y-61015999D01*
X167324000Y-61666001D01*
X167322796Y-61690505D01*
X167319196Y-61714773D01*
X167313235Y-61738572D01*
X167304970Y-61761671D01*
X167294480Y-61783850D01*
X167281868Y-61804893D01*
X167267253Y-61824599D01*
X167250777Y-61842777D01*
X167232599Y-61859253D01*
X167212893Y-61873868D01*
X167191850Y-61886480D01*
X167169671Y-61896970D01*
X167146572Y-61905235D01*
X167122773Y-61911196D01*
X167098505Y-61914796D01*
X167074001Y-61916000D01*
X166173999Y-61916000D01*
X166149495Y-61914796D01*
X166125227Y-61911196D01*
X166101428Y-61905235D01*
X166078329Y-61896970D01*
X166056150Y-61886480D01*
X166035107Y-61873868D01*
X166015401Y-61859253D01*
X165997223Y-61842777D01*
X165980747Y-61824599D01*
X165966132Y-61804893D01*
X165953520Y-61783850D01*
X165943030Y-61761671D01*
X165934765Y-61738572D01*
X165928804Y-61714773D01*
X165925204Y-61690505D01*
X165924000Y-61666001D01*
X165924000Y-61015999D01*
X165925204Y-60991495D01*
X165928804Y-60967227D01*
X165934765Y-60943428D01*
X165943030Y-60920329D01*
X165953520Y-60898150D01*
X165966132Y-60877107D01*
X165980747Y-60857401D01*
X165997223Y-60839223D01*
X166015401Y-60822747D01*
X166035107Y-60808132D01*
X166056150Y-60795520D01*
X166078329Y-60785030D01*
X166101428Y-60776765D01*
X166125227Y-60770804D01*
X166149495Y-60767204D01*
X166173999Y-60766000D01*
X167074001Y-60766000D01*
X167098505Y-60767204D01*
X167098505Y-60767204D01*
G37*
D12*
G04 #@! TD*
G04 #@! TO.P,C10,2*
G04 #@! TO.N,GND*
X166624000Y-61341000D03*
D13*
G04 #@! TO.P,J1,1*
G04 #@! TO.N,Net-(C1-Pad1)*
X119761000Y-63390001D03*
G04 #@! TO.P,J1,2*
G04 #@! TO.N,GND*
X119761000Y-67640001D03*
X119761000Y-59140001D03*
G04 #@! TD*
G04 #@! TO.P,J2,2*
G04 #@! TO.N,GND*
X174879000Y-67623000D03*
X174879000Y-59123000D03*
G04 #@! TO.P,J2,1*
G04 #@! TO.N,Net-(C10-Pad1)*
X174879000Y-63373000D03*
G04 #@! TD*
D11*
G04 #@! TO.N,Net-(C1-Pad1)*
G04 #@! TO.C,L1*
G36*
X125315505Y-62817204D02*
X125339773Y-62820804D01*
X125363572Y-62826765D01*
X125386671Y-62835030D01*
X125408850Y-62845520D01*
X125429893Y-62858132D01*
X125449599Y-62872747D01*
X125467777Y-62889223D01*
X125484253Y-62907401D01*
X125498868Y-62927107D01*
X125511480Y-62948150D01*
X125521970Y-62970329D01*
X125530235Y-62993428D01*
X125536196Y-63017227D01*
X125539796Y-63041495D01*
X125541000Y-63065999D01*
X125541000Y-63716001D01*
X125539796Y-63740505D01*
X125536196Y-63764773D01*
X125530235Y-63788572D01*
X125521970Y-63811671D01*
X125511480Y-63833850D01*
X125498868Y-63854893D01*
X125484253Y-63874599D01*
X125467777Y-63892777D01*
X125449599Y-63909253D01*
X125429893Y-63923868D01*
X125408850Y-63936480D01*
X125386671Y-63946970D01*
X125363572Y-63955235D01*
X125339773Y-63961196D01*
X125315505Y-63964796D01*
X125291001Y-63966000D01*
X124390999Y-63966000D01*
X124366495Y-63964796D01*
X124342227Y-63961196D01*
X124318428Y-63955235D01*
X124295329Y-63946970D01*
X124273150Y-63936480D01*
X124252107Y-63923868D01*
X124232401Y-63909253D01*
X124214223Y-63892777D01*
X124197747Y-63874599D01*
X124183132Y-63854893D01*
X124170520Y-63833850D01*
X124160030Y-63811671D01*
X124151765Y-63788572D01*
X124145804Y-63764773D01*
X124142204Y-63740505D01*
X124141000Y-63716001D01*
X124141000Y-63065999D01*
X124142204Y-63041495D01*
X124145804Y-63017227D01*
X124151765Y-62993428D01*
X124160030Y-62970329D01*
X124170520Y-62948150D01*
X124183132Y-62927107D01*
X124197747Y-62907401D01*
X124214223Y-62889223D01*
X124232401Y-62872747D01*
X124252107Y-62858132D01*
X124273150Y-62845520D01*
X124295329Y-62835030D01*
X124318428Y-62826765D01*
X124342227Y-62820804D01*
X124366495Y-62817204D01*
X124390999Y-62816000D01*
X125291001Y-62816000D01*
X125315505Y-62817204D01*
X125315505Y-62817204D01*
G37*
D12*
G04 #@! TD*
G04 #@! TO.P,L1,1*
G04 #@! TO.N,Net-(C1-Pad1)*
X124841000Y-63391000D03*
D11*
G04 #@! TO.N,GND*
G04 #@! TO.C,L1*
G36*
X125315505Y-60767204D02*
X125339773Y-60770804D01*
X125363572Y-60776765D01*
X125386671Y-60785030D01*
X125408850Y-60795520D01*
X125429893Y-60808132D01*
X125449599Y-60822747D01*
X125467777Y-60839223D01*
X125484253Y-60857401D01*
X125498868Y-60877107D01*
X125511480Y-60898150D01*
X125521970Y-60920329D01*
X125530235Y-60943428D01*
X125536196Y-60967227D01*
X125539796Y-60991495D01*
X125541000Y-61015999D01*
X125541000Y-61666001D01*
X125539796Y-61690505D01*
X125536196Y-61714773D01*
X125530235Y-61738572D01*
X125521970Y-61761671D01*
X125511480Y-61783850D01*
X125498868Y-61804893D01*
X125484253Y-61824599D01*
X125467777Y-61842777D01*
X125449599Y-61859253D01*
X125429893Y-61873868D01*
X125408850Y-61886480D01*
X125386671Y-61896970D01*
X125363572Y-61905235D01*
X125339773Y-61911196D01*
X125315505Y-61914796D01*
X125291001Y-61916000D01*
X124390999Y-61916000D01*
X124366495Y-61914796D01*
X124342227Y-61911196D01*
X124318428Y-61905235D01*
X124295329Y-61896970D01*
X124273150Y-61886480D01*
X124252107Y-61873868D01*
X124232401Y-61859253D01*
X124214223Y-61842777D01*
X124197747Y-61824599D01*
X124183132Y-61804893D01*
X124170520Y-61783850D01*
X124160030Y-61761671D01*
X124151765Y-61738572D01*
X124145804Y-61714773D01*
X124142204Y-61690505D01*
X124141000Y-61666001D01*
X124141000Y-61015999D01*
X124142204Y-60991495D01*
X124145804Y-60967227D01*
X124151765Y-60943428D01*
X124160030Y-60920329D01*
X124170520Y-60898150D01*
X124183132Y-60877107D01*
X124197747Y-60857401D01*
X124214223Y-60839223D01*
X124232401Y-60822747D01*
X124252107Y-60808132D01*
X124273150Y-60795520D01*
X124295329Y-60785030D01*
X124318428Y-60776765D01*
X124342227Y-60770804D01*
X124366495Y-60767204D01*
X124390999Y-60766000D01*
X125291001Y-60766000D01*
X125315505Y-60767204D01*
X125315505Y-60767204D01*
G37*
D12*
G04 #@! TD*
G04 #@! TO.P,L1,2*
G04 #@! TO.N,GND*
X124841000Y-61341000D03*
D11*
G04 #@! TO.N,Net-(C5-Pad1)*
G04 #@! TO.C,L2*
G36*
X141827505Y-62674204D02*
X141851773Y-62677804D01*
X141875572Y-62683765D01*
X141898671Y-62692030D01*
X141920850Y-62702520D01*
X141941893Y-62715132D01*
X141961599Y-62729747D01*
X141979777Y-62746223D01*
X141996253Y-62764401D01*
X142010868Y-62784107D01*
X142023480Y-62805150D01*
X142033970Y-62827329D01*
X142042235Y-62850428D01*
X142048196Y-62874227D01*
X142051796Y-62898495D01*
X142053000Y-62922999D01*
X142053000Y-63823001D01*
X142051796Y-63847505D01*
X142048196Y-63871773D01*
X142042235Y-63895572D01*
X142033970Y-63918671D01*
X142023480Y-63940850D01*
X142010868Y-63961893D01*
X141996253Y-63981599D01*
X141979777Y-63999777D01*
X141961599Y-64016253D01*
X141941893Y-64030868D01*
X141920850Y-64043480D01*
X141898671Y-64053970D01*
X141875572Y-64062235D01*
X141851773Y-64068196D01*
X141827505Y-64071796D01*
X141803001Y-64073000D01*
X141152999Y-64073000D01*
X141128495Y-64071796D01*
X141104227Y-64068196D01*
X141080428Y-64062235D01*
X141057329Y-64053970D01*
X141035150Y-64043480D01*
X141014107Y-64030868D01*
X140994401Y-64016253D01*
X140976223Y-63999777D01*
X140959747Y-63981599D01*
X140945132Y-63961893D01*
X140932520Y-63940850D01*
X140922030Y-63918671D01*
X140913765Y-63895572D01*
X140907804Y-63871773D01*
X140904204Y-63847505D01*
X140903000Y-63823001D01*
X140903000Y-62922999D01*
X140904204Y-62898495D01*
X140907804Y-62874227D01*
X140913765Y-62850428D01*
X140922030Y-62827329D01*
X140932520Y-62805150D01*
X140945132Y-62784107D01*
X140959747Y-62764401D01*
X140976223Y-62746223D01*
X140994401Y-62729747D01*
X141014107Y-62715132D01*
X141035150Y-62702520D01*
X141057329Y-62692030D01*
X141080428Y-62683765D01*
X141104227Y-62677804D01*
X141128495Y-62674204D01*
X141152999Y-62673000D01*
X141803001Y-62673000D01*
X141827505Y-62674204D01*
X141827505Y-62674204D01*
G37*
D12*
G04 #@! TD*
G04 #@! TO.P,L2,2*
G04 #@! TO.N,Net-(C5-Pad1)*
X141478000Y-63373000D03*
D11*
G04 #@! TO.N,Net-(C3-Pad1)*
G04 #@! TO.C,L2*
G36*
X139777505Y-62674204D02*
X139801773Y-62677804D01*
X139825572Y-62683765D01*
X139848671Y-62692030D01*
X139870850Y-62702520D01*
X139891893Y-62715132D01*
X139911599Y-62729747D01*
X139929777Y-62746223D01*
X139946253Y-62764401D01*
X139960868Y-62784107D01*
X139973480Y-62805150D01*
X139983970Y-62827329D01*
X139992235Y-62850428D01*
X139998196Y-62874227D01*
X140001796Y-62898495D01*
X140003000Y-62922999D01*
X140003000Y-63823001D01*
X140001796Y-63847505D01*
X139998196Y-63871773D01*
X139992235Y-63895572D01*
X139983970Y-63918671D01*
X139973480Y-63940850D01*
X139960868Y-63961893D01*
X139946253Y-63981599D01*
X139929777Y-63999777D01*
X139911599Y-64016253D01*
X139891893Y-64030868D01*
X139870850Y-64043480D01*
X139848671Y-64053970D01*
X139825572Y-64062235D01*
X139801773Y-64068196D01*
X139777505Y-64071796D01*
X139753001Y-64073000D01*
X139102999Y-64073000D01*
X139078495Y-64071796D01*
X139054227Y-64068196D01*
X139030428Y-64062235D01*
X139007329Y-64053970D01*
X138985150Y-64043480D01*
X138964107Y-64030868D01*
X138944401Y-64016253D01*
X138926223Y-63999777D01*
X138909747Y-63981599D01*
X138895132Y-63961893D01*
X138882520Y-63940850D01*
X138872030Y-63918671D01*
X138863765Y-63895572D01*
X138857804Y-63871773D01*
X138854204Y-63847505D01*
X138853000Y-63823001D01*
X138853000Y-62922999D01*
X138854204Y-62898495D01*
X138857804Y-62874227D01*
X138863765Y-62850428D01*
X138872030Y-62827329D01*
X138882520Y-62805150D01*
X138895132Y-62784107D01*
X138909747Y-62764401D01*
X138926223Y-62746223D01*
X138944401Y-62729747D01*
X138964107Y-62715132D01*
X138985150Y-62702520D01*
X139007329Y-62692030D01*
X139030428Y-62683765D01*
X139054227Y-62677804D01*
X139078495Y-62674204D01*
X139102999Y-62673000D01*
X139753001Y-62673000D01*
X139777505Y-62674204D01*
X139777505Y-62674204D01*
G37*
D12*
G04 #@! TD*
G04 #@! TO.P,L2,1*
G04 #@! TO.N,Net-(C3-Pad1)*
X139428000Y-63373000D03*
D11*
G04 #@! TO.N,Net-(C5-Pad1)*
G04 #@! TO.C,L3*
G36*
X147540505Y-62790204D02*
X147564773Y-62793804D01*
X147588572Y-62799765D01*
X147611671Y-62808030D01*
X147633850Y-62818520D01*
X147654893Y-62831132D01*
X147674599Y-62845747D01*
X147692777Y-62862223D01*
X147709253Y-62880401D01*
X147723868Y-62900107D01*
X147736480Y-62921150D01*
X147746970Y-62943329D01*
X147755235Y-62966428D01*
X147761196Y-62990227D01*
X147764796Y-63014495D01*
X147766000Y-63038999D01*
X147766000Y-63689001D01*
X147764796Y-63713505D01*
X147761196Y-63737773D01*
X147755235Y-63761572D01*
X147746970Y-63784671D01*
X147736480Y-63806850D01*
X147723868Y-63827893D01*
X147709253Y-63847599D01*
X147692777Y-63865777D01*
X147674599Y-63882253D01*
X147654893Y-63896868D01*
X147633850Y-63909480D01*
X147611671Y-63919970D01*
X147588572Y-63928235D01*
X147564773Y-63934196D01*
X147540505Y-63937796D01*
X147516001Y-63939000D01*
X146615999Y-63939000D01*
X146591495Y-63937796D01*
X146567227Y-63934196D01*
X146543428Y-63928235D01*
X146520329Y-63919970D01*
X146498150Y-63909480D01*
X146477107Y-63896868D01*
X146457401Y-63882253D01*
X146439223Y-63865777D01*
X146422747Y-63847599D01*
X146408132Y-63827893D01*
X146395520Y-63806850D01*
X146385030Y-63784671D01*
X146376765Y-63761572D01*
X146370804Y-63737773D01*
X146367204Y-63713505D01*
X146366000Y-63689001D01*
X146366000Y-63038999D01*
X146367204Y-63014495D01*
X146370804Y-62990227D01*
X146376765Y-62966428D01*
X146385030Y-62943329D01*
X146395520Y-62921150D01*
X146408132Y-62900107D01*
X146422747Y-62880401D01*
X146439223Y-62862223D01*
X146457401Y-62845747D01*
X146477107Y-62831132D01*
X146498150Y-62818520D01*
X146520329Y-62808030D01*
X146543428Y-62799765D01*
X146567227Y-62793804D01*
X146591495Y-62790204D01*
X146615999Y-62789000D01*
X147516001Y-62789000D01*
X147540505Y-62790204D01*
X147540505Y-62790204D01*
G37*
D12*
G04 #@! TD*
G04 #@! TO.P,L3,1*
G04 #@! TO.N,Net-(C5-Pad1)*
X147066000Y-63364000D03*
D11*
G04 #@! TO.N,GND*
G04 #@! TO.C,L3*
G36*
X147540505Y-64840204D02*
X147564773Y-64843804D01*
X147588572Y-64849765D01*
X147611671Y-64858030D01*
X147633850Y-64868520D01*
X147654893Y-64881132D01*
X147674599Y-64895747D01*
X147692777Y-64912223D01*
X147709253Y-64930401D01*
X147723868Y-64950107D01*
X147736480Y-64971150D01*
X147746970Y-64993329D01*
X147755235Y-65016428D01*
X147761196Y-65040227D01*
X147764796Y-65064495D01*
X147766000Y-65088999D01*
X147766000Y-65739001D01*
X147764796Y-65763505D01*
X147761196Y-65787773D01*
X147755235Y-65811572D01*
X147746970Y-65834671D01*
X147736480Y-65856850D01*
X147723868Y-65877893D01*
X147709253Y-65897599D01*
X147692777Y-65915777D01*
X147674599Y-65932253D01*
X147654893Y-65946868D01*
X147633850Y-65959480D01*
X147611671Y-65969970D01*
X147588572Y-65978235D01*
X147564773Y-65984196D01*
X147540505Y-65987796D01*
X147516001Y-65989000D01*
X146615999Y-65989000D01*
X146591495Y-65987796D01*
X146567227Y-65984196D01*
X146543428Y-65978235D01*
X146520329Y-65969970D01*
X146498150Y-65959480D01*
X146477107Y-65946868D01*
X146457401Y-65932253D01*
X146439223Y-65915777D01*
X146422747Y-65897599D01*
X146408132Y-65877893D01*
X146395520Y-65856850D01*
X146385030Y-65834671D01*
X146376765Y-65811572D01*
X146370804Y-65787773D01*
X146367204Y-65763505D01*
X146366000Y-65739001D01*
X146366000Y-65088999D01*
X146367204Y-65064495D01*
X146370804Y-65040227D01*
X146376765Y-65016428D01*
X146385030Y-64993329D01*
X146395520Y-64971150D01*
X146408132Y-64950107D01*
X146422747Y-64930401D01*
X146439223Y-64912223D01*
X146457401Y-64895747D01*
X146477107Y-64881132D01*
X146498150Y-64868520D01*
X146520329Y-64858030D01*
X146543428Y-64849765D01*
X146567227Y-64843804D01*
X146591495Y-64840204D01*
X146615999Y-64839000D01*
X147516001Y-64839000D01*
X147540505Y-64840204D01*
X147540505Y-64840204D01*
G37*
D12*
G04 #@! TD*
G04 #@! TO.P,L3,2*
G04 #@! TO.N,GND*
X147066000Y-65414000D03*
D11*
G04 #@! TO.N,Net-(C10-Pad1)*
G04 #@! TO.C,L4*
G36*
X161004505Y-62674204D02*
X161028773Y-62677804D01*
X161052572Y-62683765D01*
X161075671Y-62692030D01*
X161097850Y-62702520D01*
X161118893Y-62715132D01*
X161138599Y-62729747D01*
X161156777Y-62746223D01*
X161173253Y-62764401D01*
X161187868Y-62784107D01*
X161200480Y-62805150D01*
X161210970Y-62827329D01*
X161219235Y-62850428D01*
X161225196Y-62874227D01*
X161228796Y-62898495D01*
X161230000Y-62922999D01*
X161230000Y-63823001D01*
X161228796Y-63847505D01*
X161225196Y-63871773D01*
X161219235Y-63895572D01*
X161210970Y-63918671D01*
X161200480Y-63940850D01*
X161187868Y-63961893D01*
X161173253Y-63981599D01*
X161156777Y-63999777D01*
X161138599Y-64016253D01*
X161118893Y-64030868D01*
X161097850Y-64043480D01*
X161075671Y-64053970D01*
X161052572Y-64062235D01*
X161028773Y-64068196D01*
X161004505Y-64071796D01*
X160980001Y-64073000D01*
X160329999Y-64073000D01*
X160305495Y-64071796D01*
X160281227Y-64068196D01*
X160257428Y-64062235D01*
X160234329Y-64053970D01*
X160212150Y-64043480D01*
X160191107Y-64030868D01*
X160171401Y-64016253D01*
X160153223Y-63999777D01*
X160136747Y-63981599D01*
X160122132Y-63961893D01*
X160109520Y-63940850D01*
X160099030Y-63918671D01*
X160090765Y-63895572D01*
X160084804Y-63871773D01*
X160081204Y-63847505D01*
X160080000Y-63823001D01*
X160080000Y-62922999D01*
X160081204Y-62898495D01*
X160084804Y-62874227D01*
X160090765Y-62850428D01*
X160099030Y-62827329D01*
X160109520Y-62805150D01*
X160122132Y-62784107D01*
X160136747Y-62764401D01*
X160153223Y-62746223D01*
X160171401Y-62729747D01*
X160191107Y-62715132D01*
X160212150Y-62702520D01*
X160234329Y-62692030D01*
X160257428Y-62683765D01*
X160281227Y-62677804D01*
X160305495Y-62674204D01*
X160329999Y-62673000D01*
X160980001Y-62673000D01*
X161004505Y-62674204D01*
X161004505Y-62674204D01*
G37*
D12*
G04 #@! TD*
G04 #@! TO.P,L4,2*
G04 #@! TO.N,Net-(C10-Pad1)*
X160655000Y-63373000D03*
D11*
G04 #@! TO.N,Net-(C7-Pad1)*
G04 #@! TO.C,L4*
G36*
X158954505Y-62674204D02*
X158978773Y-62677804D01*
X159002572Y-62683765D01*
X159025671Y-62692030D01*
X159047850Y-62702520D01*
X159068893Y-62715132D01*
X159088599Y-62729747D01*
X159106777Y-62746223D01*
X159123253Y-62764401D01*
X159137868Y-62784107D01*
X159150480Y-62805150D01*
X159160970Y-62827329D01*
X159169235Y-62850428D01*
X159175196Y-62874227D01*
X159178796Y-62898495D01*
X159180000Y-62922999D01*
X159180000Y-63823001D01*
X159178796Y-63847505D01*
X159175196Y-63871773D01*
X159169235Y-63895572D01*
X159160970Y-63918671D01*
X159150480Y-63940850D01*
X159137868Y-63961893D01*
X159123253Y-63981599D01*
X159106777Y-63999777D01*
X159088599Y-64016253D01*
X159068893Y-64030868D01*
X159047850Y-64043480D01*
X159025671Y-64053970D01*
X159002572Y-64062235D01*
X158978773Y-64068196D01*
X158954505Y-64071796D01*
X158930001Y-64073000D01*
X158279999Y-64073000D01*
X158255495Y-64071796D01*
X158231227Y-64068196D01*
X158207428Y-64062235D01*
X158184329Y-64053970D01*
X158162150Y-64043480D01*
X158141107Y-64030868D01*
X158121401Y-64016253D01*
X158103223Y-63999777D01*
X158086747Y-63981599D01*
X158072132Y-63961893D01*
X158059520Y-63940850D01*
X158049030Y-63918671D01*
X158040765Y-63895572D01*
X158034804Y-63871773D01*
X158031204Y-63847505D01*
X158030000Y-63823001D01*
X158030000Y-62922999D01*
X158031204Y-62898495D01*
X158034804Y-62874227D01*
X158040765Y-62850428D01*
X158049030Y-62827329D01*
X158059520Y-62805150D01*
X158072132Y-62784107D01*
X158086747Y-62764401D01*
X158103223Y-62746223D01*
X158121401Y-62729747D01*
X158141107Y-62715132D01*
X158162150Y-62702520D01*
X158184329Y-62692030D01*
X158207428Y-62683765D01*
X158231227Y-62677804D01*
X158255495Y-62674204D01*
X158279999Y-62673000D01*
X158930001Y-62673000D01*
X158954505Y-62674204D01*
X158954505Y-62674204D01*
G37*
D12*
G04 #@! TD*
G04 #@! TO.P,L4,1*
G04 #@! TO.N,Net-(C7-Pad1)*
X158605000Y-63373000D03*
D11*
G04 #@! TO.N,Net-(C10-Pad1)*
G04 #@! TO.C,L5*
G36*
X170146505Y-62808204D02*
X170170773Y-62811804D01*
X170194572Y-62817765D01*
X170217671Y-62826030D01*
X170239850Y-62836520D01*
X170260893Y-62849132D01*
X170280599Y-62863747D01*
X170298777Y-62880223D01*
X170315253Y-62898401D01*
X170329868Y-62918107D01*
X170342480Y-62939150D01*
X170352970Y-62961329D01*
X170361235Y-62984428D01*
X170367196Y-63008227D01*
X170370796Y-63032495D01*
X170372000Y-63056999D01*
X170372000Y-63707001D01*
X170370796Y-63731505D01*
X170367196Y-63755773D01*
X170361235Y-63779572D01*
X170352970Y-63802671D01*
X170342480Y-63824850D01*
X170329868Y-63845893D01*
X170315253Y-63865599D01*
X170298777Y-63883777D01*
X170280599Y-63900253D01*
X170260893Y-63914868D01*
X170239850Y-63927480D01*
X170217671Y-63937970D01*
X170194572Y-63946235D01*
X170170773Y-63952196D01*
X170146505Y-63955796D01*
X170122001Y-63957000D01*
X169221999Y-63957000D01*
X169197495Y-63955796D01*
X169173227Y-63952196D01*
X169149428Y-63946235D01*
X169126329Y-63937970D01*
X169104150Y-63927480D01*
X169083107Y-63914868D01*
X169063401Y-63900253D01*
X169045223Y-63883777D01*
X169028747Y-63865599D01*
X169014132Y-63845893D01*
X169001520Y-63824850D01*
X168991030Y-63802671D01*
X168982765Y-63779572D01*
X168976804Y-63755773D01*
X168973204Y-63731505D01*
X168972000Y-63707001D01*
X168972000Y-63056999D01*
X168973204Y-63032495D01*
X168976804Y-63008227D01*
X168982765Y-62984428D01*
X168991030Y-62961329D01*
X169001520Y-62939150D01*
X169014132Y-62918107D01*
X169028747Y-62898401D01*
X169045223Y-62880223D01*
X169063401Y-62863747D01*
X169083107Y-62849132D01*
X169104150Y-62836520D01*
X169126329Y-62826030D01*
X169149428Y-62817765D01*
X169173227Y-62811804D01*
X169197495Y-62808204D01*
X169221999Y-62807000D01*
X170122001Y-62807000D01*
X170146505Y-62808204D01*
X170146505Y-62808204D01*
G37*
D12*
G04 #@! TD*
G04 #@! TO.P,L5,1*
G04 #@! TO.N,Net-(C10-Pad1)*
X169672000Y-63382000D03*
D11*
G04 #@! TO.N,GND*
G04 #@! TO.C,L5*
G36*
X170146505Y-60758204D02*
X170170773Y-60761804D01*
X170194572Y-60767765D01*
X170217671Y-60776030D01*
X170239850Y-60786520D01*
X170260893Y-60799132D01*
X170280599Y-60813747D01*
X170298777Y-60830223D01*
X170315253Y-60848401D01*
X170329868Y-60868107D01*
X170342480Y-60889150D01*
X170352970Y-60911329D01*
X170361235Y-60934428D01*
X170367196Y-60958227D01*
X170370796Y-60982495D01*
X170372000Y-61006999D01*
X170372000Y-61657001D01*
X170370796Y-61681505D01*
X170367196Y-61705773D01*
X170361235Y-61729572D01*
X170352970Y-61752671D01*
X170342480Y-61774850D01*
X170329868Y-61795893D01*
X170315253Y-61815599D01*
X170298777Y-61833777D01*
X170280599Y-61850253D01*
X170260893Y-61864868D01*
X170239850Y-61877480D01*
X170217671Y-61887970D01*
X170194572Y-61896235D01*
X170170773Y-61902196D01*
X170146505Y-61905796D01*
X170122001Y-61907000D01*
X169221999Y-61907000D01*
X169197495Y-61905796D01*
X169173227Y-61902196D01*
X169149428Y-61896235D01*
X169126329Y-61887970D01*
X169104150Y-61877480D01*
X169083107Y-61864868D01*
X169063401Y-61850253D01*
X169045223Y-61833777D01*
X169028747Y-61815599D01*
X169014132Y-61795893D01*
X169001520Y-61774850D01*
X168991030Y-61752671D01*
X168982765Y-61729572D01*
X168976804Y-61705773D01*
X168973204Y-61681505D01*
X168972000Y-61657001D01*
X168972000Y-61006999D01*
X168973204Y-60982495D01*
X168976804Y-60958227D01*
X168982765Y-60934428D01*
X168991030Y-60911329D01*
X169001520Y-60889150D01*
X169014132Y-60868107D01*
X169028747Y-60848401D01*
X169045223Y-60830223D01*
X169063401Y-60813747D01*
X169083107Y-60799132D01*
X169104150Y-60786520D01*
X169126329Y-60776030D01*
X169149428Y-60767765D01*
X169173227Y-60761804D01*
X169197495Y-60758204D01*
X169221999Y-60757000D01*
X170122001Y-60757000D01*
X170146505Y-60758204D01*
X170146505Y-60758204D01*
G37*
D12*
G04 #@! TD*
G04 #@! TO.P,L5,2*
G04 #@! TO.N,GND*
X169672000Y-61332000D03*
D14*
G04 #@! TO.N,Net-(C1-Pad1)*
X133840999Y-63390001D02*
X133858000Y-63373000D01*
X119761000Y-63390001D02*
X133840999Y-63390001D01*
X131141280Y-63452248D02*
X130429000Y-63452248D01*
X133510528Y-63025528D02*
X133858000Y-63373000D01*
X133510528Y-59944000D02*
X133510528Y-63025528D01*
G04 #@! TO.N,Net-(C3-Pad1)*
X135908000Y-63373000D02*
X139428000Y-63373000D01*
X139446000Y-63355000D02*
X139428000Y-63373000D01*
X139446000Y-59944000D02*
X139446000Y-63355000D01*
G04 #@! TO.N,Net-(C5-Pad1)*
X150066248Y-63373000D02*
X150090124Y-63396876D01*
X141478000Y-63373000D02*
X150066248Y-63373000D01*
X153501124Y-63396876D02*
X153525000Y-63373000D01*
X150090124Y-63396876D02*
X153501124Y-63396876D01*
X153525000Y-60146472D02*
X153322528Y-59944000D01*
X153525000Y-63373000D02*
X153525000Y-60146472D01*
G04 #@! TO.N,Net-(C7-Pad1)*
X155575000Y-63373000D02*
X158605000Y-63373000D01*
X159258000Y-62720000D02*
X158605000Y-63373000D01*
X159258000Y-59944000D02*
X159258000Y-62720000D01*
G04 #@! TO.N,Net-(C10-Pad1)*
X160655000Y-63373000D02*
X174879000Y-63373000D01*
G04 #@! TD*
D15*
G04 #@! TO.N,GND*
G36*
X138273873Y-64166436D02*
X138468414Y-64457586D01*
X138759564Y-64652127D01*
X139102999Y-64720440D01*
X139753001Y-64720440D01*
X140096436Y-64652127D01*
X140387586Y-64457586D01*
X140453000Y-64359687D01*
X140518414Y-64457586D01*
X140809564Y-64652127D01*
X141152999Y-64720440D01*
X141803001Y-64720440D01*
X142146436Y-64652127D01*
X142437586Y-64457586D01*
X142632127Y-64166436D01*
X142638778Y-64133000D01*
X143069068Y-64133000D01*
X143196414Y-64323586D01*
X143197597Y-64324377D01*
X143042673Y-64479302D01*
X142946000Y-64712691D01*
X142946000Y-65128250D01*
X143104750Y-65287000D01*
X144154000Y-65287000D01*
X144154000Y-65267000D01*
X144408000Y-65267000D01*
X144408000Y-65287000D01*
X145457250Y-65287000D01*
X145616000Y-65128250D01*
X145616000Y-64712691D01*
X145519327Y-64479302D01*
X145364403Y-64324377D01*
X145365586Y-64323586D01*
X145492932Y-64133000D01*
X145854068Y-64133000D01*
X145981414Y-64323586D01*
X145982597Y-64324377D01*
X145827673Y-64479302D01*
X145731000Y-64712691D01*
X145731000Y-65128250D01*
X145889750Y-65287000D01*
X146939000Y-65287000D01*
X146939000Y-65267000D01*
X147193000Y-65267000D01*
X147193000Y-65287000D01*
X148242250Y-65287000D01*
X148401000Y-65128250D01*
X148401000Y-64712691D01*
X148304327Y-64479302D01*
X148149403Y-64324377D01*
X148150586Y-64323586D01*
X148277932Y-64133000D01*
X148553684Y-64133000D01*
X148553684Y-64285876D01*
X148602967Y-64533641D01*
X148743315Y-64743685D01*
X148953359Y-64884033D01*
X149201124Y-64933316D01*
X150979124Y-64933316D01*
X151226889Y-64884033D01*
X151436933Y-64743685D01*
X151577281Y-64533641D01*
X151626564Y-64285876D01*
X151626564Y-64156876D01*
X152368971Y-64156876D01*
X152370873Y-64166436D01*
X152565414Y-64457586D01*
X152856564Y-64652127D01*
X153199999Y-64720440D01*
X153850001Y-64720440D01*
X154193436Y-64652127D01*
X154484586Y-64457586D01*
X154550000Y-64359687D01*
X154615414Y-64457586D01*
X154906564Y-64652127D01*
X155249999Y-64720440D01*
X155900001Y-64720440D01*
X156243436Y-64652127D01*
X156534586Y-64457586D01*
X156729127Y-64166436D01*
X156735778Y-64133000D01*
X157444222Y-64133000D01*
X157450873Y-64166436D01*
X157645414Y-64457586D01*
X157936564Y-64652127D01*
X158279999Y-64720440D01*
X158930001Y-64720440D01*
X159273436Y-64652127D01*
X159564586Y-64457586D01*
X159630000Y-64359687D01*
X159695414Y-64457586D01*
X159986564Y-64652127D01*
X160329999Y-64720440D01*
X160980001Y-64720440D01*
X161323436Y-64652127D01*
X161614586Y-64457586D01*
X161809127Y-64166436D01*
X161815778Y-64133000D01*
X162039560Y-64133000D01*
X162039560Y-64238124D01*
X162088843Y-64485889D01*
X162229191Y-64695933D01*
X162439235Y-64836281D01*
X162687000Y-64885564D01*
X164465000Y-64885564D01*
X164712765Y-64836281D01*
X164922809Y-64695933D01*
X165063157Y-64485889D01*
X165112440Y-64238124D01*
X165112440Y-64133000D01*
X165394027Y-64133000D01*
X165539414Y-64350586D01*
X165830564Y-64545127D01*
X166173999Y-64613440D01*
X167074001Y-64613440D01*
X167417436Y-64545127D01*
X167708586Y-64350586D01*
X167853973Y-64133000D01*
X168448041Y-64133000D01*
X168587414Y-64341586D01*
X168878564Y-64536127D01*
X169221999Y-64604440D01*
X170122001Y-64604440D01*
X170465436Y-64536127D01*
X170756586Y-64341586D01*
X170895959Y-64133000D01*
X171693549Y-64133000D01*
X171740843Y-64370765D01*
X171881191Y-64580809D01*
X172091235Y-64721157D01*
X172339000Y-64770440D01*
X176978000Y-64770440D01*
X176978000Y-66238000D01*
X175164750Y-66238000D01*
X175006000Y-66396750D01*
X175006000Y-67496000D01*
X175026000Y-67496000D01*
X175026000Y-67750000D01*
X175006000Y-67750000D01*
X175006000Y-68849250D01*
X175164750Y-69008000D01*
X176978000Y-69008000D01*
X176978000Y-70806000D01*
X151226985Y-70806000D01*
X151338823Y-70759675D01*
X151517451Y-70581046D01*
X151614124Y-70347657D01*
X151614124Y-69618098D01*
X151455374Y-69459348D01*
X150217124Y-69459348D01*
X150217124Y-69479348D01*
X149963124Y-69479348D01*
X149963124Y-69459348D01*
X148724874Y-69459348D01*
X148566124Y-69618098D01*
X148566124Y-70347657D01*
X148662797Y-70581046D01*
X148841425Y-70759675D01*
X148953263Y-70806000D01*
X117027000Y-70806000D01*
X117027000Y-68996963D01*
X117094690Y-69025001D01*
X119475250Y-69025001D01*
X119634000Y-68866251D01*
X119634000Y-67767001D01*
X119888000Y-67767001D01*
X119888000Y-68866251D01*
X120046750Y-69025001D01*
X122427310Y-69025001D01*
X122660699Y-68928328D01*
X122839327Y-68749699D01*
X122936000Y-68516310D01*
X122936000Y-68317039D01*
X148566124Y-68317039D01*
X148566124Y-69046598D01*
X148724874Y-69205348D01*
X149963124Y-69205348D01*
X149963124Y-67967098D01*
X150217124Y-67967098D01*
X150217124Y-69205348D01*
X151455374Y-69205348D01*
X151614124Y-69046598D01*
X151614124Y-68317039D01*
X151517451Y-68083650D01*
X151342552Y-67908750D01*
X171704000Y-67908750D01*
X171704000Y-68499309D01*
X171800673Y-68732698D01*
X171979301Y-68911327D01*
X172212690Y-69008000D01*
X174593250Y-69008000D01*
X174752000Y-68849250D01*
X174752000Y-67750000D01*
X171862750Y-67750000D01*
X171704000Y-67908750D01*
X151342552Y-67908750D01*
X151338823Y-67905021D01*
X151105434Y-67808348D01*
X150375874Y-67808348D01*
X150217124Y-67967098D01*
X149963124Y-67967098D01*
X149804374Y-67808348D01*
X149074814Y-67808348D01*
X148841425Y-67905021D01*
X148662797Y-68083650D01*
X148566124Y-68317039D01*
X122936000Y-68317039D01*
X122936000Y-67925751D01*
X122777250Y-67767001D01*
X119888000Y-67767001D01*
X119634000Y-67767001D01*
X119614000Y-67767001D01*
X119614000Y-67513001D01*
X119634000Y-67513001D01*
X119634000Y-66413751D01*
X119888000Y-66413751D01*
X119888000Y-67513001D01*
X122777250Y-67513001D01*
X122936000Y-67354251D01*
X122936000Y-66763692D01*
X122928958Y-66746691D01*
X171704000Y-66746691D01*
X171704000Y-67337250D01*
X171862750Y-67496000D01*
X174752000Y-67496000D01*
X174752000Y-66396750D01*
X174593250Y-66238000D01*
X172212690Y-66238000D01*
X171979301Y-66334673D01*
X171800673Y-66513302D01*
X171704000Y-66746691D01*
X122928958Y-66746691D01*
X122839327Y-66530303D01*
X122660699Y-66351674D01*
X122427310Y-66255001D01*
X120046750Y-66255001D01*
X119888000Y-66413751D01*
X119634000Y-66413751D01*
X119475250Y-66255001D01*
X117094690Y-66255001D01*
X117027000Y-66283039D01*
X117027000Y-65699750D01*
X142946000Y-65699750D01*
X142946000Y-66115309D01*
X143042673Y-66348698D01*
X143221301Y-66527327D01*
X143454690Y-66624000D01*
X143995250Y-66624000D01*
X144154000Y-66465250D01*
X144154000Y-65541000D01*
X144408000Y-65541000D01*
X144408000Y-66465250D01*
X144566750Y-66624000D01*
X145107310Y-66624000D01*
X145340699Y-66527327D01*
X145519327Y-66348698D01*
X145616000Y-66115309D01*
X145616000Y-65699750D01*
X145731000Y-65699750D01*
X145731000Y-66115309D01*
X145827673Y-66348698D01*
X146006301Y-66527327D01*
X146239690Y-66624000D01*
X146780250Y-66624000D01*
X146939000Y-66465250D01*
X146939000Y-65541000D01*
X147193000Y-65541000D01*
X147193000Y-66465250D01*
X147351750Y-66624000D01*
X147892310Y-66624000D01*
X148125699Y-66527327D01*
X148304327Y-66348698D01*
X148401000Y-66115309D01*
X148401000Y-65699750D01*
X148242250Y-65541000D01*
X147193000Y-65541000D01*
X146939000Y-65541000D01*
X145889750Y-65541000D01*
X145731000Y-65699750D01*
X145616000Y-65699750D01*
X145457250Y-65541000D01*
X144408000Y-65541000D01*
X144154000Y-65541000D01*
X143104750Y-65541000D01*
X142946000Y-65699750D01*
X117027000Y-65699750D01*
X117027000Y-64748852D01*
X117221000Y-64787441D01*
X122301000Y-64787441D01*
X122548765Y-64738158D01*
X122758809Y-64597810D01*
X122899157Y-64387766D01*
X122946451Y-64150001D01*
X123622387Y-64150001D01*
X123756414Y-64350586D01*
X124047564Y-64545127D01*
X124390999Y-64613440D01*
X125291001Y-64613440D01*
X125634436Y-64545127D01*
X125925586Y-64350586D01*
X126059613Y-64150001D01*
X126162387Y-64150001D01*
X126296414Y-64350586D01*
X126587564Y-64545127D01*
X126930999Y-64613440D01*
X127831001Y-64613440D01*
X128174436Y-64545127D01*
X128465586Y-64350586D01*
X128599613Y-64150001D01*
X128892560Y-64150001D01*
X128892560Y-64341248D01*
X128941843Y-64589013D01*
X129082191Y-64799057D01*
X129292235Y-64939405D01*
X129540000Y-64988688D01*
X131318000Y-64988688D01*
X131565765Y-64939405D01*
X131775809Y-64799057D01*
X131916157Y-64589013D01*
X131965440Y-64341248D01*
X131965440Y-64150001D01*
X132700604Y-64150001D01*
X132703873Y-64166436D01*
X132898414Y-64457586D01*
X133189564Y-64652127D01*
X133532999Y-64720440D01*
X134183001Y-64720440D01*
X134526436Y-64652127D01*
X134817586Y-64457586D01*
X134883000Y-64359687D01*
X134948414Y-64457586D01*
X135239564Y-64652127D01*
X135582999Y-64720440D01*
X136233001Y-64720440D01*
X136576436Y-64652127D01*
X136867586Y-64457586D01*
X137062127Y-64166436D01*
X137068778Y-64133000D01*
X138267222Y-64133000D01*
X138273873Y-64166436D01*
X138273873Y-64166436D01*
G37*
X138273873Y-64166436D02*
X138468414Y-64457586D01*
X138759564Y-64652127D01*
X139102999Y-64720440D01*
X139753001Y-64720440D01*
X140096436Y-64652127D01*
X140387586Y-64457586D01*
X140453000Y-64359687D01*
X140518414Y-64457586D01*
X140809564Y-64652127D01*
X141152999Y-64720440D01*
X141803001Y-64720440D01*
X142146436Y-64652127D01*
X142437586Y-64457586D01*
X142632127Y-64166436D01*
X142638778Y-64133000D01*
X143069068Y-64133000D01*
X143196414Y-64323586D01*
X143197597Y-64324377D01*
X143042673Y-64479302D01*
X142946000Y-64712691D01*
X142946000Y-65128250D01*
X143104750Y-65287000D01*
X144154000Y-65287000D01*
X144154000Y-65267000D01*
X144408000Y-65267000D01*
X144408000Y-65287000D01*
X145457250Y-65287000D01*
X145616000Y-65128250D01*
X145616000Y-64712691D01*
X145519327Y-64479302D01*
X145364403Y-64324377D01*
X145365586Y-64323586D01*
X145492932Y-64133000D01*
X145854068Y-64133000D01*
X145981414Y-64323586D01*
X145982597Y-64324377D01*
X145827673Y-64479302D01*
X145731000Y-64712691D01*
X145731000Y-65128250D01*
X145889750Y-65287000D01*
X146939000Y-65287000D01*
X146939000Y-65267000D01*
X147193000Y-65267000D01*
X147193000Y-65287000D01*
X148242250Y-65287000D01*
X148401000Y-65128250D01*
X148401000Y-64712691D01*
X148304327Y-64479302D01*
X148149403Y-64324377D01*
X148150586Y-64323586D01*
X148277932Y-64133000D01*
X148553684Y-64133000D01*
X148553684Y-64285876D01*
X148602967Y-64533641D01*
X148743315Y-64743685D01*
X148953359Y-64884033D01*
X149201124Y-64933316D01*
X150979124Y-64933316D01*
X151226889Y-64884033D01*
X151436933Y-64743685D01*
X151577281Y-64533641D01*
X151626564Y-64285876D01*
X151626564Y-64156876D01*
X152368971Y-64156876D01*
X152370873Y-64166436D01*
X152565414Y-64457586D01*
X152856564Y-64652127D01*
X153199999Y-64720440D01*
X153850001Y-64720440D01*
X154193436Y-64652127D01*
X154484586Y-64457586D01*
X154550000Y-64359687D01*
X154615414Y-64457586D01*
X154906564Y-64652127D01*
X155249999Y-64720440D01*
X155900001Y-64720440D01*
X156243436Y-64652127D01*
X156534586Y-64457586D01*
X156729127Y-64166436D01*
X156735778Y-64133000D01*
X157444222Y-64133000D01*
X157450873Y-64166436D01*
X157645414Y-64457586D01*
X157936564Y-64652127D01*
X158279999Y-64720440D01*
X158930001Y-64720440D01*
X159273436Y-64652127D01*
X159564586Y-64457586D01*
X159630000Y-64359687D01*
X159695414Y-64457586D01*
X159986564Y-64652127D01*
X160329999Y-64720440D01*
X160980001Y-64720440D01*
X161323436Y-64652127D01*
X161614586Y-64457586D01*
X161809127Y-64166436D01*
X161815778Y-64133000D01*
X162039560Y-64133000D01*
X162039560Y-64238124D01*
X162088843Y-64485889D01*
X162229191Y-64695933D01*
X162439235Y-64836281D01*
X162687000Y-64885564D01*
X164465000Y-64885564D01*
X164712765Y-64836281D01*
X164922809Y-64695933D01*
X165063157Y-64485889D01*
X165112440Y-64238124D01*
X165112440Y-64133000D01*
X165394027Y-64133000D01*
X165539414Y-64350586D01*
X165830564Y-64545127D01*
X166173999Y-64613440D01*
X167074001Y-64613440D01*
X167417436Y-64545127D01*
X167708586Y-64350586D01*
X167853973Y-64133000D01*
X168448041Y-64133000D01*
X168587414Y-64341586D01*
X168878564Y-64536127D01*
X169221999Y-64604440D01*
X170122001Y-64604440D01*
X170465436Y-64536127D01*
X170756586Y-64341586D01*
X170895959Y-64133000D01*
X171693549Y-64133000D01*
X171740843Y-64370765D01*
X171881191Y-64580809D01*
X172091235Y-64721157D01*
X172339000Y-64770440D01*
X176978000Y-64770440D01*
X176978000Y-66238000D01*
X175164750Y-66238000D01*
X175006000Y-66396750D01*
X175006000Y-67496000D01*
X175026000Y-67496000D01*
X175026000Y-67750000D01*
X175006000Y-67750000D01*
X175006000Y-68849250D01*
X175164750Y-69008000D01*
X176978000Y-69008000D01*
X176978000Y-70806000D01*
X151226985Y-70806000D01*
X151338823Y-70759675D01*
X151517451Y-70581046D01*
X151614124Y-70347657D01*
X151614124Y-69618098D01*
X151455374Y-69459348D01*
X150217124Y-69459348D01*
X150217124Y-69479348D01*
X149963124Y-69479348D01*
X149963124Y-69459348D01*
X148724874Y-69459348D01*
X148566124Y-69618098D01*
X148566124Y-70347657D01*
X148662797Y-70581046D01*
X148841425Y-70759675D01*
X148953263Y-70806000D01*
X117027000Y-70806000D01*
X117027000Y-68996963D01*
X117094690Y-69025001D01*
X119475250Y-69025001D01*
X119634000Y-68866251D01*
X119634000Y-67767001D01*
X119888000Y-67767001D01*
X119888000Y-68866251D01*
X120046750Y-69025001D01*
X122427310Y-69025001D01*
X122660699Y-68928328D01*
X122839327Y-68749699D01*
X122936000Y-68516310D01*
X122936000Y-68317039D01*
X148566124Y-68317039D01*
X148566124Y-69046598D01*
X148724874Y-69205348D01*
X149963124Y-69205348D01*
X149963124Y-67967098D01*
X150217124Y-67967098D01*
X150217124Y-69205348D01*
X151455374Y-69205348D01*
X151614124Y-69046598D01*
X151614124Y-68317039D01*
X151517451Y-68083650D01*
X151342552Y-67908750D01*
X171704000Y-67908750D01*
X171704000Y-68499309D01*
X171800673Y-68732698D01*
X171979301Y-68911327D01*
X172212690Y-69008000D01*
X174593250Y-69008000D01*
X174752000Y-68849250D01*
X174752000Y-67750000D01*
X171862750Y-67750000D01*
X171704000Y-67908750D01*
X151342552Y-67908750D01*
X151338823Y-67905021D01*
X151105434Y-67808348D01*
X150375874Y-67808348D01*
X150217124Y-67967098D01*
X149963124Y-67967098D01*
X149804374Y-67808348D01*
X149074814Y-67808348D01*
X148841425Y-67905021D01*
X148662797Y-68083650D01*
X148566124Y-68317039D01*
X122936000Y-68317039D01*
X122936000Y-67925751D01*
X122777250Y-67767001D01*
X119888000Y-67767001D01*
X119634000Y-67767001D01*
X119614000Y-67767001D01*
X119614000Y-67513001D01*
X119634000Y-67513001D01*
X119634000Y-66413751D01*
X119888000Y-66413751D01*
X119888000Y-67513001D01*
X122777250Y-67513001D01*
X122936000Y-67354251D01*
X122936000Y-66763692D01*
X122928958Y-66746691D01*
X171704000Y-66746691D01*
X171704000Y-67337250D01*
X171862750Y-67496000D01*
X174752000Y-67496000D01*
X174752000Y-66396750D01*
X174593250Y-66238000D01*
X172212690Y-66238000D01*
X171979301Y-66334673D01*
X171800673Y-66513302D01*
X171704000Y-66746691D01*
X122928958Y-66746691D01*
X122839327Y-66530303D01*
X122660699Y-66351674D01*
X122427310Y-66255001D01*
X120046750Y-66255001D01*
X119888000Y-66413751D01*
X119634000Y-66413751D01*
X119475250Y-66255001D01*
X117094690Y-66255001D01*
X117027000Y-66283039D01*
X117027000Y-65699750D01*
X142946000Y-65699750D01*
X142946000Y-66115309D01*
X143042673Y-66348698D01*
X143221301Y-66527327D01*
X143454690Y-66624000D01*
X143995250Y-66624000D01*
X144154000Y-66465250D01*
X144154000Y-65541000D01*
X144408000Y-65541000D01*
X144408000Y-66465250D01*
X144566750Y-66624000D01*
X145107310Y-66624000D01*
X145340699Y-66527327D01*
X145519327Y-66348698D01*
X145616000Y-66115309D01*
X145616000Y-65699750D01*
X145731000Y-65699750D01*
X145731000Y-66115309D01*
X145827673Y-66348698D01*
X146006301Y-66527327D01*
X146239690Y-66624000D01*
X146780250Y-66624000D01*
X146939000Y-66465250D01*
X146939000Y-65541000D01*
X147193000Y-65541000D01*
X147193000Y-66465250D01*
X147351750Y-66624000D01*
X147892310Y-66624000D01*
X148125699Y-66527327D01*
X148304327Y-66348698D01*
X148401000Y-66115309D01*
X148401000Y-65699750D01*
X148242250Y-65541000D01*
X147193000Y-65541000D01*
X146939000Y-65541000D01*
X145889750Y-65541000D01*
X145731000Y-65699750D01*
X145616000Y-65699750D01*
X145457250Y-65541000D01*
X144408000Y-65541000D01*
X144154000Y-65541000D01*
X143104750Y-65541000D01*
X142946000Y-65699750D01*
X117027000Y-65699750D01*
X117027000Y-64748852D01*
X117221000Y-64787441D01*
X122301000Y-64787441D01*
X122548765Y-64738158D01*
X122758809Y-64597810D01*
X122899157Y-64387766D01*
X122946451Y-64150001D01*
X123622387Y-64150001D01*
X123756414Y-64350586D01*
X124047564Y-64545127D01*
X124390999Y-64613440D01*
X125291001Y-64613440D01*
X125634436Y-64545127D01*
X125925586Y-64350586D01*
X126059613Y-64150001D01*
X126162387Y-64150001D01*
X126296414Y-64350586D01*
X126587564Y-64545127D01*
X126930999Y-64613440D01*
X127831001Y-64613440D01*
X128174436Y-64545127D01*
X128465586Y-64350586D01*
X128599613Y-64150001D01*
X128892560Y-64150001D01*
X128892560Y-64341248D01*
X128941843Y-64589013D01*
X129082191Y-64799057D01*
X129292235Y-64939405D01*
X129540000Y-64988688D01*
X131318000Y-64988688D01*
X131565765Y-64939405D01*
X131775809Y-64799057D01*
X131916157Y-64589013D01*
X131965440Y-64341248D01*
X131965440Y-64150001D01*
X132700604Y-64150001D01*
X132703873Y-64166436D01*
X132898414Y-64457586D01*
X133189564Y-64652127D01*
X133532999Y-64720440D01*
X134183001Y-64720440D01*
X134526436Y-64652127D01*
X134817586Y-64457586D01*
X134883000Y-64359687D01*
X134948414Y-64457586D01*
X135239564Y-64652127D01*
X135582999Y-64720440D01*
X136233001Y-64720440D01*
X136576436Y-64652127D01*
X136867586Y-64457586D01*
X137062127Y-64166436D01*
X137068778Y-64133000D01*
X138267222Y-64133000D01*
X138273873Y-64166436D01*
G36*
X176978001Y-57738000D02*
X175164750Y-57738000D01*
X175006000Y-57896750D01*
X175006000Y-58996000D01*
X175026000Y-58996000D01*
X175026000Y-59250000D01*
X175006000Y-59250000D01*
X175006000Y-60349250D01*
X175164750Y-60508000D01*
X176978001Y-60508000D01*
X176978001Y-61975560D01*
X172339000Y-61975560D01*
X172091235Y-62024843D01*
X171881191Y-62165191D01*
X171740843Y-62375235D01*
X171693549Y-62613000D01*
X170883932Y-62613000D01*
X170756586Y-62422414D01*
X170755403Y-62421623D01*
X170910327Y-62266698D01*
X171007000Y-62033309D01*
X171007000Y-61617750D01*
X170848250Y-61459000D01*
X169799000Y-61459000D01*
X169799000Y-61479000D01*
X169545000Y-61479000D01*
X169545000Y-61459000D01*
X168495750Y-61459000D01*
X168337000Y-61617750D01*
X168337000Y-62033309D01*
X168433673Y-62266698D01*
X168588597Y-62421623D01*
X168587414Y-62422414D01*
X168460068Y-62613000D01*
X167829918Y-62613000D01*
X167708586Y-62431414D01*
X167707403Y-62430623D01*
X167862327Y-62275698D01*
X167959000Y-62042309D01*
X167959000Y-61626750D01*
X167800250Y-61468000D01*
X166751000Y-61468000D01*
X166751000Y-61488000D01*
X166497000Y-61488000D01*
X166497000Y-61468000D01*
X165447750Y-61468000D01*
X165289000Y-61626750D01*
X165289000Y-62042309D01*
X165385673Y-62275698D01*
X165540597Y-62430623D01*
X165539414Y-62431414D01*
X165418082Y-62613000D01*
X165112440Y-62613000D01*
X165112440Y-62460124D01*
X165063157Y-62212359D01*
X164922809Y-62002315D01*
X164712765Y-61861967D01*
X164465000Y-61812684D01*
X162687000Y-61812684D01*
X162439235Y-61861967D01*
X162229191Y-62002315D01*
X162088843Y-62212359D01*
X162039560Y-62460124D01*
X162039560Y-62613000D01*
X161815778Y-62613000D01*
X161809127Y-62579564D01*
X161614586Y-62288414D01*
X161323436Y-62093873D01*
X160980001Y-62025560D01*
X160329999Y-62025560D01*
X160018000Y-62087620D01*
X160018000Y-61480440D01*
X160147000Y-61480440D01*
X160394765Y-61431157D01*
X160604809Y-61290809D01*
X160745157Y-61080765D01*
X160794440Y-60833000D01*
X160794440Y-60639691D01*
X165289000Y-60639691D01*
X165289000Y-61055250D01*
X165447750Y-61214000D01*
X166497000Y-61214000D01*
X166497000Y-60289750D01*
X166751000Y-60289750D01*
X166751000Y-61214000D01*
X167800250Y-61214000D01*
X167959000Y-61055250D01*
X167959000Y-60639691D01*
X167955273Y-60630691D01*
X168337000Y-60630691D01*
X168337000Y-61046250D01*
X168495750Y-61205000D01*
X169545000Y-61205000D01*
X169545000Y-60280750D01*
X169799000Y-60280750D01*
X169799000Y-61205000D01*
X170848250Y-61205000D01*
X171007000Y-61046250D01*
X171007000Y-60630691D01*
X170910327Y-60397302D01*
X170731699Y-60218673D01*
X170498310Y-60122000D01*
X169957750Y-60122000D01*
X169799000Y-60280750D01*
X169545000Y-60280750D01*
X169386250Y-60122000D01*
X168845690Y-60122000D01*
X168612301Y-60218673D01*
X168433673Y-60397302D01*
X168337000Y-60630691D01*
X167955273Y-60630691D01*
X167862327Y-60406302D01*
X167683699Y-60227673D01*
X167450310Y-60131000D01*
X166909750Y-60131000D01*
X166751000Y-60289750D01*
X166497000Y-60289750D01*
X166338250Y-60131000D01*
X165797690Y-60131000D01*
X165564301Y-60227673D01*
X165385673Y-60406302D01*
X165289000Y-60639691D01*
X160794440Y-60639691D01*
X160794440Y-59408750D01*
X171704000Y-59408750D01*
X171704000Y-59999309D01*
X171800673Y-60232698D01*
X171979301Y-60411327D01*
X172212690Y-60508000D01*
X174593250Y-60508000D01*
X174752000Y-60349250D01*
X174752000Y-59250000D01*
X171862750Y-59250000D01*
X171704000Y-59408750D01*
X160794440Y-59408750D01*
X160794440Y-59055000D01*
X160745157Y-58807235D01*
X160604809Y-58597191D01*
X160394765Y-58456843D01*
X160147000Y-58407560D01*
X158369000Y-58407560D01*
X158121235Y-58456843D01*
X157911191Y-58597191D01*
X157770843Y-58807235D01*
X157721560Y-59055000D01*
X157721560Y-60833000D01*
X157770843Y-61080765D01*
X157911191Y-61290809D01*
X158121235Y-61431157D01*
X158369000Y-61480440D01*
X158498001Y-61480440D01*
X158498001Y-62025560D01*
X158279999Y-62025560D01*
X157936564Y-62093873D01*
X157645414Y-62288414D01*
X157450873Y-62579564D01*
X157444222Y-62613000D01*
X156735778Y-62613000D01*
X156729127Y-62579564D01*
X156534586Y-62288414D01*
X156243436Y-62093873D01*
X155900001Y-62025560D01*
X155249999Y-62025560D01*
X154906564Y-62093873D01*
X154615414Y-62288414D01*
X154550000Y-62386313D01*
X154484586Y-62288414D01*
X154285000Y-62155054D01*
X154285000Y-61465826D01*
X154459293Y-61431157D01*
X154669337Y-61290809D01*
X154809685Y-61080765D01*
X154858968Y-60833000D01*
X154858968Y-59055000D01*
X154809685Y-58807235D01*
X154669337Y-58597191D01*
X154459293Y-58456843D01*
X154211528Y-58407560D01*
X152433528Y-58407560D01*
X152185763Y-58456843D01*
X151975719Y-58597191D01*
X151835371Y-58807235D01*
X151786088Y-59055000D01*
X151786088Y-60833000D01*
X151835371Y-61080765D01*
X151975719Y-61290809D01*
X152185763Y-61431157D01*
X152433528Y-61480440D01*
X152765001Y-61480440D01*
X152765000Y-62155054D01*
X152565414Y-62288414D01*
X152370873Y-62579564D01*
X152359473Y-62636876D01*
X151626564Y-62636876D01*
X151626564Y-62507876D01*
X151577281Y-62260111D01*
X151436933Y-62050067D01*
X151226889Y-61909719D01*
X150979124Y-61860436D01*
X149201124Y-61860436D01*
X148953359Y-61909719D01*
X148743315Y-62050067D01*
X148602967Y-62260111D01*
X148553684Y-62507876D01*
X148553684Y-62613000D01*
X148289959Y-62613000D01*
X148150586Y-62404414D01*
X147859436Y-62209873D01*
X147516001Y-62141560D01*
X146615999Y-62141560D01*
X146272564Y-62209873D01*
X145981414Y-62404414D01*
X145842041Y-62613000D01*
X145504959Y-62613000D01*
X145365586Y-62404414D01*
X145074436Y-62209873D01*
X144731001Y-62141560D01*
X143830999Y-62141560D01*
X143487564Y-62209873D01*
X143196414Y-62404414D01*
X143057041Y-62613000D01*
X142638778Y-62613000D01*
X142632127Y-62579564D01*
X142437586Y-62288414D01*
X142146436Y-62093873D01*
X141803001Y-62025560D01*
X141152999Y-62025560D01*
X140809564Y-62093873D01*
X140518414Y-62288414D01*
X140453000Y-62386313D01*
X140387586Y-62288414D01*
X140206000Y-62167082D01*
X140206000Y-61480440D01*
X140335000Y-61480440D01*
X140582765Y-61431157D01*
X140792809Y-61290809D01*
X140933157Y-61080765D01*
X140982440Y-60833000D01*
X140982440Y-59055000D01*
X140933157Y-58807235D01*
X140792809Y-58597191D01*
X140582765Y-58456843D01*
X140335000Y-58407560D01*
X138557000Y-58407560D01*
X138309235Y-58456843D01*
X138099191Y-58597191D01*
X137958843Y-58807235D01*
X137909560Y-59055000D01*
X137909560Y-60833000D01*
X137958843Y-61080765D01*
X138099191Y-61290809D01*
X138309235Y-61431157D01*
X138557000Y-61480440D01*
X138686000Y-61480440D01*
X138686001Y-62143027D01*
X138468414Y-62288414D01*
X138273873Y-62579564D01*
X138267222Y-62613000D01*
X137068778Y-62613000D01*
X137062127Y-62579564D01*
X136867586Y-62288414D01*
X136576436Y-62093873D01*
X136233001Y-62025560D01*
X135582999Y-62025560D01*
X135239564Y-62093873D01*
X134948414Y-62288414D01*
X134883000Y-62386313D01*
X134817586Y-62288414D01*
X134526436Y-62093873D01*
X134270528Y-62042970D01*
X134270528Y-61480440D01*
X134399528Y-61480440D01*
X134647293Y-61431157D01*
X134857337Y-61290809D01*
X134997685Y-61080765D01*
X135046968Y-60833000D01*
X135046968Y-59055000D01*
X134997685Y-58807235D01*
X134857337Y-58597191D01*
X134647293Y-58456843D01*
X134399528Y-58407560D01*
X132621528Y-58407560D01*
X132373763Y-58456843D01*
X132163719Y-58597191D01*
X132023371Y-58807235D01*
X131974088Y-59055000D01*
X131974088Y-60833000D01*
X132023371Y-61080765D01*
X132163719Y-61290809D01*
X132373763Y-61431157D01*
X132621528Y-61480440D01*
X132750528Y-61480440D01*
X132750529Y-62509739D01*
X132703873Y-62579564D01*
X132693841Y-62630001D01*
X131965440Y-62630001D01*
X131965440Y-62563248D01*
X131916157Y-62315483D01*
X131775809Y-62105439D01*
X131565765Y-61965091D01*
X131318000Y-61915808D01*
X129540000Y-61915808D01*
X129292235Y-61965091D01*
X129082191Y-62105439D01*
X128941843Y-62315483D01*
X128892560Y-62563248D01*
X128892560Y-62630001D01*
X128598278Y-62630001D01*
X128465586Y-62431414D01*
X128464403Y-62430623D01*
X128619327Y-62275698D01*
X128716000Y-62042309D01*
X128716000Y-61626750D01*
X128557250Y-61468000D01*
X127508000Y-61468000D01*
X127508000Y-61488000D01*
X127254000Y-61488000D01*
X127254000Y-61468000D01*
X126204750Y-61468000D01*
X126111000Y-61561750D01*
X126017250Y-61468000D01*
X124968000Y-61468000D01*
X124968000Y-61488000D01*
X124714000Y-61488000D01*
X124714000Y-61468000D01*
X123664750Y-61468000D01*
X123506000Y-61626750D01*
X123506000Y-62042309D01*
X123602673Y-62275698D01*
X123757597Y-62430623D01*
X123756414Y-62431414D01*
X123623722Y-62630001D01*
X122946451Y-62630001D01*
X122899157Y-62392236D01*
X122758809Y-62182192D01*
X122548765Y-62041844D01*
X122301000Y-61992561D01*
X117221000Y-61992561D01*
X117027000Y-62031150D01*
X117027000Y-60639691D01*
X123506000Y-60639691D01*
X123506000Y-61055250D01*
X123664750Y-61214000D01*
X124714000Y-61214000D01*
X124714000Y-60289750D01*
X124968000Y-60289750D01*
X124968000Y-61214000D01*
X126017250Y-61214000D01*
X126111000Y-61120250D01*
X126204750Y-61214000D01*
X127254000Y-61214000D01*
X127254000Y-60289750D01*
X127508000Y-60289750D01*
X127508000Y-61214000D01*
X128557250Y-61214000D01*
X128716000Y-61055250D01*
X128716000Y-60639691D01*
X128619327Y-60406302D01*
X128440699Y-60227673D01*
X128207310Y-60131000D01*
X127666750Y-60131000D01*
X127508000Y-60289750D01*
X127254000Y-60289750D01*
X127095250Y-60131000D01*
X126554690Y-60131000D01*
X126321301Y-60227673D01*
X126142673Y-60406302D01*
X126111000Y-60482767D01*
X126079327Y-60406302D01*
X125900699Y-60227673D01*
X125667310Y-60131000D01*
X125126750Y-60131000D01*
X124968000Y-60289750D01*
X124714000Y-60289750D01*
X124555250Y-60131000D01*
X124014690Y-60131000D01*
X123781301Y-60227673D01*
X123602673Y-60406302D01*
X123506000Y-60639691D01*
X117027000Y-60639691D01*
X117027000Y-60496963D01*
X117094690Y-60525001D01*
X119475250Y-60525001D01*
X119634000Y-60366251D01*
X119634000Y-59267001D01*
X119888000Y-59267001D01*
X119888000Y-60366251D01*
X120046750Y-60525001D01*
X122427310Y-60525001D01*
X122660699Y-60428328D01*
X122839327Y-60249699D01*
X122936000Y-60016310D01*
X122936000Y-59425751D01*
X122777250Y-59267001D01*
X119888000Y-59267001D01*
X119634000Y-59267001D01*
X119614000Y-59267001D01*
X119614000Y-59013001D01*
X119634000Y-59013001D01*
X119634000Y-57913751D01*
X119888000Y-57913751D01*
X119888000Y-59013001D01*
X122777250Y-59013001D01*
X122936000Y-58854251D01*
X122936000Y-58263692D01*
X122839327Y-58030303D01*
X122660699Y-57851674D01*
X122542046Y-57802526D01*
X128905000Y-57802526D01*
X128905000Y-58532085D01*
X129001673Y-58765474D01*
X129180301Y-58944103D01*
X129413690Y-59040776D01*
X130143250Y-59040776D01*
X130302000Y-58882026D01*
X130302000Y-57643776D01*
X130556000Y-57643776D01*
X130556000Y-58882026D01*
X130714750Y-59040776D01*
X131444310Y-59040776D01*
X131677699Y-58944103D01*
X131856327Y-58765474D01*
X131953000Y-58532085D01*
X131953000Y-57802526D01*
X131849876Y-57699402D01*
X162052000Y-57699402D01*
X162052000Y-58428961D01*
X162148673Y-58662350D01*
X162327301Y-58840979D01*
X162560690Y-58937652D01*
X163290250Y-58937652D01*
X163449000Y-58778902D01*
X163449000Y-57540652D01*
X163703000Y-57540652D01*
X163703000Y-58778902D01*
X163861750Y-58937652D01*
X164591310Y-58937652D01*
X164824699Y-58840979D01*
X165003327Y-58662350D01*
X165100000Y-58428961D01*
X165100000Y-58246691D01*
X171704000Y-58246691D01*
X171704000Y-58837250D01*
X171862750Y-58996000D01*
X174752000Y-58996000D01*
X174752000Y-57896750D01*
X174593250Y-57738000D01*
X172212690Y-57738000D01*
X171979301Y-57834673D01*
X171800673Y-58013302D01*
X171704000Y-58246691D01*
X165100000Y-58246691D01*
X165100000Y-57699402D01*
X164941250Y-57540652D01*
X163703000Y-57540652D01*
X163449000Y-57540652D01*
X162210750Y-57540652D01*
X162052000Y-57699402D01*
X131849876Y-57699402D01*
X131794250Y-57643776D01*
X130556000Y-57643776D01*
X130302000Y-57643776D01*
X129063750Y-57643776D01*
X128905000Y-57802526D01*
X122542046Y-57802526D01*
X122427310Y-57755001D01*
X120046750Y-57755001D01*
X119888000Y-57913751D01*
X119634000Y-57913751D01*
X119475250Y-57755001D01*
X117094690Y-57755001D01*
X117027000Y-57783039D01*
X117027000Y-56501467D01*
X128905000Y-56501467D01*
X128905000Y-57231026D01*
X129063750Y-57389776D01*
X130302000Y-57389776D01*
X130302000Y-56151526D01*
X130556000Y-56151526D01*
X130556000Y-57389776D01*
X131794250Y-57389776D01*
X131953000Y-57231026D01*
X131953000Y-56501467D01*
X131910285Y-56398343D01*
X162052000Y-56398343D01*
X162052000Y-57127902D01*
X162210750Y-57286652D01*
X163449000Y-57286652D01*
X163449000Y-56048402D01*
X163703000Y-56048402D01*
X163703000Y-57286652D01*
X164941250Y-57286652D01*
X165100000Y-57127902D01*
X165100000Y-56398343D01*
X165003327Y-56164954D01*
X164824699Y-55986325D01*
X164591310Y-55889652D01*
X163861750Y-55889652D01*
X163703000Y-56048402D01*
X163449000Y-56048402D01*
X163290250Y-55889652D01*
X162560690Y-55889652D01*
X162327301Y-55986325D01*
X162148673Y-56164954D01*
X162052000Y-56398343D01*
X131910285Y-56398343D01*
X131856327Y-56268078D01*
X131677699Y-56089449D01*
X131444310Y-55992776D01*
X130714750Y-55992776D01*
X130556000Y-56151526D01*
X130302000Y-56151526D01*
X130143250Y-55992776D01*
X129413690Y-55992776D01*
X129180301Y-56089449D01*
X129001673Y-56268078D01*
X128905000Y-56501467D01*
X117027000Y-56501467D01*
X117027000Y-55686000D01*
X176978001Y-55686000D01*
X176978001Y-57738000D01*
X176978001Y-57738000D01*
G37*
X176978001Y-57738000D02*
X175164750Y-57738000D01*
X175006000Y-57896750D01*
X175006000Y-58996000D01*
X175026000Y-58996000D01*
X175026000Y-59250000D01*
X175006000Y-59250000D01*
X175006000Y-60349250D01*
X175164750Y-60508000D01*
X176978001Y-60508000D01*
X176978001Y-61975560D01*
X172339000Y-61975560D01*
X172091235Y-62024843D01*
X171881191Y-62165191D01*
X171740843Y-62375235D01*
X171693549Y-62613000D01*
X170883932Y-62613000D01*
X170756586Y-62422414D01*
X170755403Y-62421623D01*
X170910327Y-62266698D01*
X171007000Y-62033309D01*
X171007000Y-61617750D01*
X170848250Y-61459000D01*
X169799000Y-61459000D01*
X169799000Y-61479000D01*
X169545000Y-61479000D01*
X169545000Y-61459000D01*
X168495750Y-61459000D01*
X168337000Y-61617750D01*
X168337000Y-62033309D01*
X168433673Y-62266698D01*
X168588597Y-62421623D01*
X168587414Y-62422414D01*
X168460068Y-62613000D01*
X167829918Y-62613000D01*
X167708586Y-62431414D01*
X167707403Y-62430623D01*
X167862327Y-62275698D01*
X167959000Y-62042309D01*
X167959000Y-61626750D01*
X167800250Y-61468000D01*
X166751000Y-61468000D01*
X166751000Y-61488000D01*
X166497000Y-61488000D01*
X166497000Y-61468000D01*
X165447750Y-61468000D01*
X165289000Y-61626750D01*
X165289000Y-62042309D01*
X165385673Y-62275698D01*
X165540597Y-62430623D01*
X165539414Y-62431414D01*
X165418082Y-62613000D01*
X165112440Y-62613000D01*
X165112440Y-62460124D01*
X165063157Y-62212359D01*
X164922809Y-62002315D01*
X164712765Y-61861967D01*
X164465000Y-61812684D01*
X162687000Y-61812684D01*
X162439235Y-61861967D01*
X162229191Y-62002315D01*
X162088843Y-62212359D01*
X162039560Y-62460124D01*
X162039560Y-62613000D01*
X161815778Y-62613000D01*
X161809127Y-62579564D01*
X161614586Y-62288414D01*
X161323436Y-62093873D01*
X160980001Y-62025560D01*
X160329999Y-62025560D01*
X160018000Y-62087620D01*
X160018000Y-61480440D01*
X160147000Y-61480440D01*
X160394765Y-61431157D01*
X160604809Y-61290809D01*
X160745157Y-61080765D01*
X160794440Y-60833000D01*
X160794440Y-60639691D01*
X165289000Y-60639691D01*
X165289000Y-61055250D01*
X165447750Y-61214000D01*
X166497000Y-61214000D01*
X166497000Y-60289750D01*
X166751000Y-60289750D01*
X166751000Y-61214000D01*
X167800250Y-61214000D01*
X167959000Y-61055250D01*
X167959000Y-60639691D01*
X167955273Y-60630691D01*
X168337000Y-60630691D01*
X168337000Y-61046250D01*
X168495750Y-61205000D01*
X169545000Y-61205000D01*
X169545000Y-60280750D01*
X169799000Y-60280750D01*
X169799000Y-61205000D01*
X170848250Y-61205000D01*
X171007000Y-61046250D01*
X171007000Y-60630691D01*
X170910327Y-60397302D01*
X170731699Y-60218673D01*
X170498310Y-60122000D01*
X169957750Y-60122000D01*
X169799000Y-60280750D01*
X169545000Y-60280750D01*
X169386250Y-60122000D01*
X168845690Y-60122000D01*
X168612301Y-60218673D01*
X168433673Y-60397302D01*
X168337000Y-60630691D01*
X167955273Y-60630691D01*
X167862327Y-60406302D01*
X167683699Y-60227673D01*
X167450310Y-60131000D01*
X166909750Y-60131000D01*
X166751000Y-60289750D01*
X166497000Y-60289750D01*
X166338250Y-60131000D01*
X165797690Y-60131000D01*
X165564301Y-60227673D01*
X165385673Y-60406302D01*
X165289000Y-60639691D01*
X160794440Y-60639691D01*
X160794440Y-59408750D01*
X171704000Y-59408750D01*
X171704000Y-59999309D01*
X171800673Y-60232698D01*
X171979301Y-60411327D01*
X172212690Y-60508000D01*
X174593250Y-60508000D01*
X174752000Y-60349250D01*
X174752000Y-59250000D01*
X171862750Y-59250000D01*
X171704000Y-59408750D01*
X160794440Y-59408750D01*
X160794440Y-59055000D01*
X160745157Y-58807235D01*
X160604809Y-58597191D01*
X160394765Y-58456843D01*
X160147000Y-58407560D01*
X158369000Y-58407560D01*
X158121235Y-58456843D01*
X157911191Y-58597191D01*
X157770843Y-58807235D01*
X157721560Y-59055000D01*
X157721560Y-60833000D01*
X157770843Y-61080765D01*
X157911191Y-61290809D01*
X158121235Y-61431157D01*
X158369000Y-61480440D01*
X158498001Y-61480440D01*
X158498001Y-62025560D01*
X158279999Y-62025560D01*
X157936564Y-62093873D01*
X157645414Y-62288414D01*
X157450873Y-62579564D01*
X157444222Y-62613000D01*
X156735778Y-62613000D01*
X156729127Y-62579564D01*
X156534586Y-62288414D01*
X156243436Y-62093873D01*
X155900001Y-62025560D01*
X155249999Y-62025560D01*
X154906564Y-62093873D01*
X154615414Y-62288414D01*
X154550000Y-62386313D01*
X154484586Y-62288414D01*
X154285000Y-62155054D01*
X154285000Y-61465826D01*
X154459293Y-61431157D01*
X154669337Y-61290809D01*
X154809685Y-61080765D01*
X154858968Y-60833000D01*
X154858968Y-59055000D01*
X154809685Y-58807235D01*
X154669337Y-58597191D01*
X154459293Y-58456843D01*
X154211528Y-58407560D01*
X152433528Y-58407560D01*
X152185763Y-58456843D01*
X151975719Y-58597191D01*
X151835371Y-58807235D01*
X151786088Y-59055000D01*
X151786088Y-60833000D01*
X151835371Y-61080765D01*
X151975719Y-61290809D01*
X152185763Y-61431157D01*
X152433528Y-61480440D01*
X152765001Y-61480440D01*
X152765000Y-62155054D01*
X152565414Y-62288414D01*
X152370873Y-62579564D01*
X152359473Y-62636876D01*
X151626564Y-62636876D01*
X151626564Y-62507876D01*
X151577281Y-62260111D01*
X151436933Y-62050067D01*
X151226889Y-61909719D01*
X150979124Y-61860436D01*
X149201124Y-61860436D01*
X148953359Y-61909719D01*
X148743315Y-62050067D01*
X148602967Y-62260111D01*
X148553684Y-62507876D01*
X148553684Y-62613000D01*
X148289959Y-62613000D01*
X148150586Y-62404414D01*
X147859436Y-62209873D01*
X147516001Y-62141560D01*
X146615999Y-62141560D01*
X146272564Y-62209873D01*
X145981414Y-62404414D01*
X145842041Y-62613000D01*
X145504959Y-62613000D01*
X145365586Y-62404414D01*
X145074436Y-62209873D01*
X144731001Y-62141560D01*
X143830999Y-62141560D01*
X143487564Y-62209873D01*
X143196414Y-62404414D01*
X143057041Y-62613000D01*
X142638778Y-62613000D01*
X142632127Y-62579564D01*
X142437586Y-62288414D01*
X142146436Y-62093873D01*
X141803001Y-62025560D01*
X141152999Y-62025560D01*
X140809564Y-62093873D01*
X140518414Y-62288414D01*
X140453000Y-62386313D01*
X140387586Y-62288414D01*
X140206000Y-62167082D01*
X140206000Y-61480440D01*
X140335000Y-61480440D01*
X140582765Y-61431157D01*
X140792809Y-61290809D01*
X140933157Y-61080765D01*
X140982440Y-60833000D01*
X140982440Y-59055000D01*
X140933157Y-58807235D01*
X140792809Y-58597191D01*
X140582765Y-58456843D01*
X140335000Y-58407560D01*
X138557000Y-58407560D01*
X138309235Y-58456843D01*
X138099191Y-58597191D01*
X137958843Y-58807235D01*
X137909560Y-59055000D01*
X137909560Y-60833000D01*
X137958843Y-61080765D01*
X138099191Y-61290809D01*
X138309235Y-61431157D01*
X138557000Y-61480440D01*
X138686000Y-61480440D01*
X138686001Y-62143027D01*
X138468414Y-62288414D01*
X138273873Y-62579564D01*
X138267222Y-62613000D01*
X137068778Y-62613000D01*
X137062127Y-62579564D01*
X136867586Y-62288414D01*
X136576436Y-62093873D01*
X136233001Y-62025560D01*
X135582999Y-62025560D01*
X135239564Y-62093873D01*
X134948414Y-62288414D01*
X134883000Y-62386313D01*
X134817586Y-62288414D01*
X134526436Y-62093873D01*
X134270528Y-62042970D01*
X134270528Y-61480440D01*
X134399528Y-61480440D01*
X134647293Y-61431157D01*
X134857337Y-61290809D01*
X134997685Y-61080765D01*
X135046968Y-60833000D01*
X135046968Y-59055000D01*
X134997685Y-58807235D01*
X134857337Y-58597191D01*
X134647293Y-58456843D01*
X134399528Y-58407560D01*
X132621528Y-58407560D01*
X132373763Y-58456843D01*
X132163719Y-58597191D01*
X132023371Y-58807235D01*
X131974088Y-59055000D01*
X131974088Y-60833000D01*
X132023371Y-61080765D01*
X132163719Y-61290809D01*
X132373763Y-61431157D01*
X132621528Y-61480440D01*
X132750528Y-61480440D01*
X132750529Y-62509739D01*
X132703873Y-62579564D01*
X132693841Y-62630001D01*
X131965440Y-62630001D01*
X131965440Y-62563248D01*
X131916157Y-62315483D01*
X131775809Y-62105439D01*
X131565765Y-61965091D01*
X131318000Y-61915808D01*
X129540000Y-61915808D01*
X129292235Y-61965091D01*
X129082191Y-62105439D01*
X128941843Y-62315483D01*
X128892560Y-62563248D01*
X128892560Y-62630001D01*
X128598278Y-62630001D01*
X128465586Y-62431414D01*
X128464403Y-62430623D01*
X128619327Y-62275698D01*
X128716000Y-62042309D01*
X128716000Y-61626750D01*
X128557250Y-61468000D01*
X127508000Y-61468000D01*
X127508000Y-61488000D01*
X127254000Y-61488000D01*
X127254000Y-61468000D01*
X126204750Y-61468000D01*
X126111000Y-61561750D01*
X126017250Y-61468000D01*
X124968000Y-61468000D01*
X124968000Y-61488000D01*
X124714000Y-61488000D01*
X124714000Y-61468000D01*
X123664750Y-61468000D01*
X123506000Y-61626750D01*
X123506000Y-62042309D01*
X123602673Y-62275698D01*
X123757597Y-62430623D01*
X123756414Y-62431414D01*
X123623722Y-62630001D01*
X122946451Y-62630001D01*
X122899157Y-62392236D01*
X122758809Y-62182192D01*
X122548765Y-62041844D01*
X122301000Y-61992561D01*
X117221000Y-61992561D01*
X117027000Y-62031150D01*
X117027000Y-60639691D01*
X123506000Y-60639691D01*
X123506000Y-61055250D01*
X123664750Y-61214000D01*
X124714000Y-61214000D01*
X124714000Y-60289750D01*
X124968000Y-60289750D01*
X124968000Y-61214000D01*
X126017250Y-61214000D01*
X126111000Y-61120250D01*
X126204750Y-61214000D01*
X127254000Y-61214000D01*
X127254000Y-60289750D01*
X127508000Y-60289750D01*
X127508000Y-61214000D01*
X128557250Y-61214000D01*
X128716000Y-61055250D01*
X128716000Y-60639691D01*
X128619327Y-60406302D01*
X128440699Y-60227673D01*
X128207310Y-60131000D01*
X127666750Y-60131000D01*
X127508000Y-60289750D01*
X127254000Y-60289750D01*
X127095250Y-60131000D01*
X126554690Y-60131000D01*
X126321301Y-60227673D01*
X126142673Y-60406302D01*
X126111000Y-60482767D01*
X126079327Y-60406302D01*
X125900699Y-60227673D01*
X125667310Y-60131000D01*
X125126750Y-60131000D01*
X124968000Y-60289750D01*
X124714000Y-60289750D01*
X124555250Y-60131000D01*
X124014690Y-60131000D01*
X123781301Y-60227673D01*
X123602673Y-60406302D01*
X123506000Y-60639691D01*
X117027000Y-60639691D01*
X117027000Y-60496963D01*
X117094690Y-60525001D01*
X119475250Y-60525001D01*
X119634000Y-60366251D01*
X119634000Y-59267001D01*
X119888000Y-59267001D01*
X119888000Y-60366251D01*
X120046750Y-60525001D01*
X122427310Y-60525001D01*
X122660699Y-60428328D01*
X122839327Y-60249699D01*
X122936000Y-60016310D01*
X122936000Y-59425751D01*
X122777250Y-59267001D01*
X119888000Y-59267001D01*
X119634000Y-59267001D01*
X119614000Y-59267001D01*
X119614000Y-59013001D01*
X119634000Y-59013001D01*
X119634000Y-57913751D01*
X119888000Y-57913751D01*
X119888000Y-59013001D01*
X122777250Y-59013001D01*
X122936000Y-58854251D01*
X122936000Y-58263692D01*
X122839327Y-58030303D01*
X122660699Y-57851674D01*
X122542046Y-57802526D01*
X128905000Y-57802526D01*
X128905000Y-58532085D01*
X129001673Y-58765474D01*
X129180301Y-58944103D01*
X129413690Y-59040776D01*
X130143250Y-59040776D01*
X130302000Y-58882026D01*
X130302000Y-57643776D01*
X130556000Y-57643776D01*
X130556000Y-58882026D01*
X130714750Y-59040776D01*
X131444310Y-59040776D01*
X131677699Y-58944103D01*
X131856327Y-58765474D01*
X131953000Y-58532085D01*
X131953000Y-57802526D01*
X131849876Y-57699402D01*
X162052000Y-57699402D01*
X162052000Y-58428961D01*
X162148673Y-58662350D01*
X162327301Y-58840979D01*
X162560690Y-58937652D01*
X163290250Y-58937652D01*
X163449000Y-58778902D01*
X163449000Y-57540652D01*
X163703000Y-57540652D01*
X163703000Y-58778902D01*
X163861750Y-58937652D01*
X164591310Y-58937652D01*
X164824699Y-58840979D01*
X165003327Y-58662350D01*
X165100000Y-58428961D01*
X165100000Y-58246691D01*
X171704000Y-58246691D01*
X171704000Y-58837250D01*
X171862750Y-58996000D01*
X174752000Y-58996000D01*
X174752000Y-57896750D01*
X174593250Y-57738000D01*
X172212690Y-57738000D01*
X171979301Y-57834673D01*
X171800673Y-58013302D01*
X171704000Y-58246691D01*
X165100000Y-58246691D01*
X165100000Y-57699402D01*
X164941250Y-57540652D01*
X163703000Y-57540652D01*
X163449000Y-57540652D01*
X162210750Y-57540652D01*
X162052000Y-57699402D01*
X131849876Y-57699402D01*
X131794250Y-57643776D01*
X130556000Y-57643776D01*
X130302000Y-57643776D01*
X129063750Y-57643776D01*
X128905000Y-57802526D01*
X122542046Y-57802526D01*
X122427310Y-57755001D01*
X120046750Y-57755001D01*
X119888000Y-57913751D01*
X119634000Y-57913751D01*
X119475250Y-57755001D01*
X117094690Y-57755001D01*
X117027000Y-57783039D01*
X117027000Y-56501467D01*
X128905000Y-56501467D01*
X128905000Y-57231026D01*
X129063750Y-57389776D01*
X130302000Y-57389776D01*
X130302000Y-56151526D01*
X130556000Y-56151526D01*
X130556000Y-57389776D01*
X131794250Y-57389776D01*
X131953000Y-57231026D01*
X131953000Y-56501467D01*
X131910285Y-56398343D01*
X162052000Y-56398343D01*
X162052000Y-57127902D01*
X162210750Y-57286652D01*
X163449000Y-57286652D01*
X163449000Y-56048402D01*
X163703000Y-56048402D01*
X163703000Y-57286652D01*
X164941250Y-57286652D01*
X165100000Y-57127902D01*
X165100000Y-56398343D01*
X165003327Y-56164954D01*
X164824699Y-55986325D01*
X164591310Y-55889652D01*
X163861750Y-55889652D01*
X163703000Y-56048402D01*
X163449000Y-56048402D01*
X163290250Y-55889652D01*
X162560690Y-55889652D01*
X162327301Y-55986325D01*
X162148673Y-56164954D01*
X162052000Y-56398343D01*
X131910285Y-56398343D01*
X131856327Y-56268078D01*
X131677699Y-56089449D01*
X131444310Y-55992776D01*
X130714750Y-55992776D01*
X130556000Y-56151526D01*
X130302000Y-56151526D01*
X130143250Y-55992776D01*
X129413690Y-55992776D01*
X129180301Y-56089449D01*
X129001673Y-56268078D01*
X128905000Y-56501467D01*
X117027000Y-56501467D01*
X117027000Y-55686000D01*
X176978001Y-55686000D01*
X176978001Y-57738000D01*
G04 #@! TD*
M02*
