G04 #@! TF.GenerationSoftware,KiCad,Pcbnew,(5.1.5)-3*
G04 #@! TF.CreationDate,2020-02-10T15:58:06-08:00*
G04 #@! TF.ProjectId,Clock_Test,436c6f63-6b5f-4546-9573-742e6b696361,rev?*
G04 #@! TF.SameCoordinates,Original*
G04 #@! TF.FileFunction,Profile,NP*
%FSLAX46Y46*%
G04 Gerber Fmt 4.6, Leading zero omitted, Abs format (unit mm)*
G04 Created by KiCad (PCBNEW (5.1.5)-3) date 2020-02-10 15:58:06*
%MOMM*%
%LPD*%
G04 APERTURE LIST*
%ADD10C,0.050000*%
G04 APERTURE END LIST*
D10*
X128905000Y-93345000D02*
X127635000Y-92075000D01*
X127635000Y-75184000D02*
X127635000Y-92075000D01*
X125095000Y-72644000D02*
X127635000Y-75184000D01*
X112776000Y-82804000D02*
X115189000Y-80391000D01*
X109728000Y-82804000D02*
X112776000Y-82804000D01*
X96012000Y-82804000D02*
X109728000Y-82804000D01*
X115189000Y-75184000D02*
X115189000Y-80391000D01*
X117729000Y-72644000D02*
X115189000Y-75184000D01*
X120015000Y-72644000D02*
X125095000Y-72644000D01*
X117729000Y-72644000D02*
X120015000Y-72644000D01*
X93599000Y-99822000D02*
X91694000Y-99822000D01*
X95377000Y-101600000D02*
X93599000Y-99822000D01*
X95377000Y-101600000D02*
X97917000Y-101600000D01*
X112141000Y-102489000D02*
X111252000Y-101600000D01*
X97917000Y-101600000D02*
X111252000Y-101600000D01*
X115951000Y-106299000D02*
X112141000Y-102489000D01*
X117221000Y-105029000D02*
X115951000Y-106299000D01*
X127635000Y-94615000D02*
X128905000Y-93345000D01*
X83566000Y-97282000D02*
X86106000Y-99822000D01*
X86106000Y-99822000D02*
X91694000Y-99822000D01*
X84836000Y-84074000D02*
X83566000Y-85344000D01*
X83566000Y-85344000D02*
X83566000Y-97282000D01*
X86106000Y-82804000D02*
X84836000Y-84074000D01*
X88900000Y-82804000D02*
X86106000Y-82804000D01*
X122682000Y-99568000D02*
X127635000Y-94615000D01*
X122682000Y-99568000D02*
X117221000Y-105029000D01*
X88900000Y-82804000D02*
X96012000Y-82804000D01*
M02*
