G04 #@! TF.GenerationSoftware,KiCad,Pcbnew,(5.1.5)-3*
G04 #@! TF.CreationDate,2020-02-13T19:53:59-08:00*
G04 #@! TF.ProjectId,Clock_Test,436c6f63-6b5f-4546-9573-742e6b696361,rev?*
G04 #@! TF.SameCoordinates,Original*
G04 #@! TF.FileFunction,Legend,Top*
G04 #@! TF.FilePolarity,Positive*
%FSLAX46Y46*%
G04 Gerber Fmt 4.6, Leading zero omitted, Abs format (unit mm)*
G04 Created by KiCad (PCBNEW (5.1.5)-3) date 2020-02-13 19:53:59*
%MOMM*%
%LPD*%
G04 APERTURE LIST*
%ADD10C,0.120000*%
%ADD11C,0.150000*%
G04 APERTURE END LIST*
D10*
X43524000Y-46228000D02*
X43024000Y-46478000D01*
X43024000Y-46478000D02*
X43024000Y-45978000D01*
X43024000Y-45978000D02*
X43524000Y-46228000D01*
X33214000Y-17466000D02*
X34544000Y-17466000D01*
X33214000Y-18796000D02*
X33214000Y-17466000D01*
X33214000Y-20066000D02*
X35874000Y-20066000D01*
X35874000Y-20066000D02*
X35874000Y-20126000D01*
X33214000Y-20066000D02*
X33214000Y-20126000D01*
X33214000Y-20126000D02*
X35874000Y-20126000D01*
X33214000Y-23816000D02*
X34544000Y-23816000D01*
X33214000Y-25146000D02*
X33214000Y-23816000D01*
X33214000Y-26416000D02*
X35874000Y-26416000D01*
X35874000Y-26416000D02*
X35874000Y-26476000D01*
X33214000Y-26416000D02*
X33214000Y-26476000D01*
X33214000Y-26476000D02*
X35874000Y-26476000D01*
X27448252Y-46938000D02*
X26925748Y-46938000D01*
X27448252Y-45518000D02*
X26925748Y-45518000D01*
X35830252Y-30786000D02*
X35307748Y-30786000D01*
X35830252Y-32206000D02*
X35307748Y-32206000D01*
X39564000Y-47558000D02*
X42224000Y-47558000D01*
X39564000Y-47498000D02*
X39564000Y-47558000D01*
X42224000Y-47498000D02*
X42224000Y-47558000D01*
X39564000Y-47498000D02*
X42224000Y-47498000D01*
X39564000Y-46228000D02*
X39564000Y-44898000D01*
X39564000Y-44898000D02*
X40894000Y-44898000D01*
X35254000Y-38591748D02*
X35254000Y-39114252D01*
X33834000Y-38591748D02*
X33834000Y-39114252D01*
X36394000Y-50568000D02*
X36394000Y-46968000D01*
X35666795Y-51092184D02*
G75*
G03X36394000Y-50568000I-1122795J2324184D01*
G01*
X33445193Y-51124400D02*
G75*
G02X31944000Y-48768000I1098807J2356400D01*
G01*
X33445193Y-46411600D02*
G75*
G03X31944000Y-48768000I1098807J-2356400D01*
G01*
X35666795Y-46443816D02*
G75*
G02X36394000Y-46968000I-1122795J-2324184D01*
G01*
X26872000Y-52071748D02*
X26872000Y-52594252D01*
X25452000Y-52071748D02*
X25452000Y-52594252D01*
X22337000Y-45743000D02*
X22337000Y-51993000D01*
X17287000Y-45743000D02*
X17287000Y-51993000D01*
X17287000Y-45743000D02*
G75*
G02X22337000Y-45743000I2525000J0D01*
G01*
X17287000Y-51993000D02*
G75*
G03X22337000Y-51993000I2525000J0D01*
G01*
D11*
X46690666Y-38680380D02*
X46690666Y-39394666D01*
X46643047Y-39537523D01*
X46547809Y-39632761D01*
X46404952Y-39680380D01*
X46309714Y-39680380D01*
X47119238Y-38775619D02*
X47166857Y-38728000D01*
X47262095Y-38680380D01*
X47500190Y-38680380D01*
X47595428Y-38728000D01*
X47643047Y-38775619D01*
X47690666Y-38870857D01*
X47690666Y-38966095D01*
X47643047Y-39108952D01*
X47071619Y-39680380D01*
X47690666Y-39680380D01*
X34210666Y-15918380D02*
X34210666Y-16632666D01*
X34163047Y-16775523D01*
X34067809Y-16870761D01*
X33924952Y-16918380D01*
X33829714Y-16918380D01*
X35210666Y-16918380D02*
X34639238Y-16918380D01*
X34924952Y-16918380D02*
X34924952Y-15918380D01*
X34829714Y-16061238D01*
X34734476Y-16156476D01*
X34639238Y-16204095D01*
X34210666Y-22268380D02*
X34210666Y-22982666D01*
X34163047Y-23125523D01*
X34067809Y-23220761D01*
X33924952Y-23268380D01*
X33829714Y-23268380D01*
X35210666Y-23268380D02*
X34639238Y-23268380D01*
X34924952Y-23268380D02*
X34924952Y-22268380D01*
X34829714Y-22411238D01*
X34734476Y-22506476D01*
X34639238Y-22554095D01*
X27020333Y-48235142D02*
X26972714Y-48282761D01*
X26829857Y-48330380D01*
X26734619Y-48330380D01*
X26591761Y-48282761D01*
X26496523Y-48187523D01*
X26448904Y-48092285D01*
X26401285Y-47901809D01*
X26401285Y-47758952D01*
X26448904Y-47568476D01*
X26496523Y-47473238D01*
X26591761Y-47378000D01*
X26734619Y-47330380D01*
X26829857Y-47330380D01*
X26972714Y-47378000D01*
X27020333Y-47425619D01*
X27972714Y-48330380D02*
X27401285Y-48330380D01*
X27687000Y-48330380D02*
X27687000Y-47330380D01*
X27591761Y-47473238D01*
X27496523Y-47568476D01*
X27401285Y-47616095D01*
X35402333Y-33503142D02*
X35354714Y-33550761D01*
X35211857Y-33598380D01*
X35116619Y-33598380D01*
X34973761Y-33550761D01*
X34878523Y-33455523D01*
X34830904Y-33360285D01*
X34783285Y-33169809D01*
X34783285Y-33026952D01*
X34830904Y-32836476D01*
X34878523Y-32741238D01*
X34973761Y-32646000D01*
X35116619Y-32598380D01*
X35211857Y-32598380D01*
X35354714Y-32646000D01*
X35402333Y-32693619D01*
X36259476Y-32931714D02*
X36259476Y-33598380D01*
X36021380Y-32550761D02*
X35783285Y-33265047D01*
X36402333Y-33265047D01*
X40560666Y-43350380D02*
X40560666Y-44064666D01*
X40513047Y-44207523D01*
X40417809Y-44302761D01*
X40274952Y-44350380D01*
X40179714Y-44350380D01*
X41560666Y-44350380D02*
X40989238Y-44350380D01*
X41274952Y-44350380D02*
X41274952Y-43350380D01*
X41179714Y-43493238D01*
X41084476Y-43588476D01*
X40989238Y-43636095D01*
X36646380Y-39019666D02*
X36646380Y-39495857D01*
X35646380Y-39495857D01*
X36646380Y-38162523D02*
X36646380Y-38733952D01*
X36646380Y-38448238D02*
X35646380Y-38448238D01*
X35789238Y-38543476D01*
X35884476Y-38638714D01*
X35932095Y-38733952D01*
X31531619Y-48863238D02*
X31484000Y-48958476D01*
X31388761Y-49053714D01*
X31245904Y-49196571D01*
X31198285Y-49291809D01*
X31198285Y-49387047D01*
X31436380Y-49339428D02*
X31388761Y-49434666D01*
X31293523Y-49529904D01*
X31103047Y-49577523D01*
X30769714Y-49577523D01*
X30579238Y-49529904D01*
X30484000Y-49434666D01*
X30436380Y-49339428D01*
X30436380Y-49148952D01*
X30484000Y-49053714D01*
X30579238Y-48958476D01*
X30769714Y-48910857D01*
X31103047Y-48910857D01*
X31293523Y-48958476D01*
X31388761Y-49053714D01*
X31436380Y-49148952D01*
X31436380Y-49339428D01*
X31436380Y-47958476D02*
X31436380Y-48529904D01*
X31436380Y-48244190D02*
X30436380Y-48244190D01*
X30579238Y-48339428D01*
X30674476Y-48434666D01*
X30722095Y-48529904D01*
X28264380Y-52499666D02*
X27788190Y-52833000D01*
X28264380Y-53071095D02*
X27264380Y-53071095D01*
X27264380Y-52690142D01*
X27312000Y-52594904D01*
X27359619Y-52547285D01*
X27454857Y-52499666D01*
X27597714Y-52499666D01*
X27692952Y-52547285D01*
X27740571Y-52594904D01*
X27788190Y-52690142D01*
X27788190Y-53071095D01*
X28264380Y-51547285D02*
X28264380Y-52118714D01*
X28264380Y-51833000D02*
X27264380Y-51833000D01*
X27407238Y-51928238D01*
X27502476Y-52023476D01*
X27550095Y-52118714D01*
X47077333Y-44140380D02*
X46744000Y-43664190D01*
X46505904Y-44140380D02*
X46505904Y-43140380D01*
X46886857Y-43140380D01*
X46982095Y-43188000D01*
X47029714Y-43235619D01*
X47077333Y-43330857D01*
X47077333Y-43473714D01*
X47029714Y-43568952D01*
X46982095Y-43616571D01*
X46886857Y-43664190D01*
X46505904Y-43664190D01*
X47458285Y-43235619D02*
X47505904Y-43188000D01*
X47601142Y-43140380D01*
X47839238Y-43140380D01*
X47934476Y-43188000D01*
X47982095Y-43235619D01*
X48029714Y-43330857D01*
X48029714Y-43426095D01*
X47982095Y-43568952D01*
X47410666Y-44140380D01*
X48029714Y-44140380D01*
X23313190Y-49344190D02*
X23789380Y-49344190D01*
X22789380Y-49677523D02*
X23313190Y-49344190D01*
X22789380Y-49010857D01*
X23789380Y-48153714D02*
X23789380Y-48725142D01*
X23789380Y-48439428D02*
X22789380Y-48439428D01*
X22932238Y-48534666D01*
X23027476Y-48629904D01*
X23075095Y-48725142D01*
M02*
