G04 #@! TF.GenerationSoftware,KiCad,Pcbnew,(5.1.5)-3*
G04 #@! TF.CreationDate,2020-02-10T15:58:06-08:00*
G04 #@! TF.ProjectId,Clock_Test,436c6f63-6b5f-4546-9573-742e6b696361,rev?*
G04 #@! TF.SameCoordinates,Original*
G04 #@! TF.FileFunction,Legend,Top*
G04 #@! TF.FilePolarity,Positive*
%FSLAX46Y46*%
G04 Gerber Fmt 4.6, Leading zero omitted, Abs format (unit mm)*
G04 Created by KiCad (PCBNEW (5.1.5)-3) date 2020-02-10 15:58:06*
%MOMM*%
%LPD*%
G04 APERTURE LIST*
%ADD10C,0.120000*%
%ADD11C,0.150000*%
G04 APERTURE END LIST*
D10*
X117842786Y-94883232D02*
X118019562Y-95413562D01*
X117489232Y-95236786D02*
X117842786Y-94883232D01*
X118019562Y-95413562D02*
X117489232Y-95236786D01*
X123257000Y-76885000D02*
X124647000Y-76885000D01*
X123257000Y-76885000D02*
X123257000Y-76760000D01*
X124647000Y-76885000D02*
X124647000Y-76760000D01*
X123257000Y-76885000D02*
X123343724Y-76885000D01*
X124560276Y-76885000D02*
X124647000Y-76885000D01*
X123257000Y-76200000D02*
X123257000Y-75515000D01*
X123257000Y-75515000D02*
X123952000Y-75515000D01*
X118177000Y-75515000D02*
X118872000Y-75515000D01*
X118177000Y-76200000D02*
X118177000Y-75515000D01*
X119480276Y-76885000D02*
X119567000Y-76885000D01*
X118177000Y-76885000D02*
X118263724Y-76885000D01*
X119567000Y-76885000D02*
X119567000Y-76760000D01*
X118177000Y-76885000D02*
X118177000Y-76760000D01*
X118177000Y-76885000D02*
X119567000Y-76885000D01*
X95810000Y-89663748D02*
X95810000Y-90186252D01*
X97230000Y-89663748D02*
X97230000Y-90186252D01*
X99275995Y-97354313D02*
X98906529Y-97723779D01*
X98271903Y-96350221D02*
X97902437Y-96719687D01*
X102886252Y-89610000D02*
X102363748Y-89610000D01*
X102886252Y-88190000D02*
X102363748Y-88190000D01*
X120158252Y-80570000D02*
X119635748Y-80570000D01*
X120158252Y-81990000D02*
X119635748Y-81990000D01*
X114532000Y-90750000D02*
X118132000Y-90750000D01*
X114007816Y-90022795D02*
G75*
G03X114532000Y-90750000I2324184J1122795D01*
G01*
X113975600Y-87801193D02*
G75*
G02X116332000Y-86300000I2356400J-1098807D01*
G01*
X118688400Y-87801193D02*
G75*
G03X116332000Y-86300000I-2356400J-1098807D01*
G01*
X118656184Y-90022795D02*
G75*
G02X118132000Y-90750000I-2324184J1122795D01*
G01*
X108002000Y-88136252D02*
X108002000Y-87613748D01*
X109422000Y-88136252D02*
X109422000Y-87613748D01*
X112749903Y-96304005D02*
X112380437Y-96673471D01*
X113753995Y-97308097D02*
X113384529Y-97677563D01*
X91425000Y-88215000D02*
X91425000Y-94465000D01*
X86375000Y-88215000D02*
X86375000Y-94465000D01*
X86375000Y-88215000D02*
G75*
G02X91425000Y-88215000I2525000J0D01*
G01*
X86375000Y-94465000D02*
G75*
G03X91425000Y-94465000I2525000J0D01*
G01*
D11*
X125595706Y-92315761D02*
X125090630Y-92820837D01*
X124955943Y-92888181D01*
X124821256Y-92888181D01*
X124686569Y-92820837D01*
X124619226Y-92753494D01*
X125595706Y-93729975D02*
X125191645Y-93325914D01*
X125393676Y-93527944D02*
X126100783Y-92820837D01*
X125932424Y-92854509D01*
X125797737Y-92854509D01*
X125696722Y-92820837D01*
X122618666Y-75092380D02*
X122285333Y-74616190D01*
X122047238Y-75092380D02*
X122047238Y-74092380D01*
X122428190Y-74092380D01*
X122523428Y-74140000D01*
X122571047Y-74187619D01*
X122618666Y-74282857D01*
X122618666Y-74425714D01*
X122571047Y-74520952D01*
X122523428Y-74568571D01*
X122428190Y-74616190D01*
X122047238Y-74616190D01*
X123047238Y-74568571D02*
X123380571Y-74568571D01*
X123523428Y-75092380D02*
X123047238Y-75092380D01*
X123047238Y-74092380D01*
X123523428Y-74092380D01*
X124285333Y-74568571D02*
X123952000Y-74568571D01*
X123952000Y-75092380D02*
X123952000Y-74092380D01*
X124428190Y-74092380D01*
X124952000Y-74092380D02*
X124952000Y-74330476D01*
X124713904Y-74235238D02*
X124952000Y-74330476D01*
X125190095Y-74235238D01*
X124809142Y-74520952D02*
X124952000Y-74330476D01*
X125094857Y-74520952D01*
X125713904Y-74092380D02*
X125713904Y-74330476D01*
X125475809Y-74235238D02*
X125713904Y-74330476D01*
X125952000Y-74235238D01*
X125571047Y-74520952D02*
X125713904Y-74330476D01*
X125856761Y-74520952D01*
X117538666Y-75092380D02*
X117205333Y-74616190D01*
X116967238Y-75092380D02*
X116967238Y-74092380D01*
X117348190Y-74092380D01*
X117443428Y-74140000D01*
X117491047Y-74187619D01*
X117538666Y-74282857D01*
X117538666Y-74425714D01*
X117491047Y-74520952D01*
X117443428Y-74568571D01*
X117348190Y-74616190D01*
X116967238Y-74616190D01*
X117967238Y-74568571D02*
X118300571Y-74568571D01*
X118443428Y-75092380D02*
X117967238Y-75092380D01*
X117967238Y-74092380D01*
X118443428Y-74092380D01*
X119205333Y-74568571D02*
X118872000Y-74568571D01*
X118872000Y-75092380D02*
X118872000Y-74092380D01*
X119348190Y-74092380D01*
X119872000Y-74092380D02*
X119872000Y-74330476D01*
X119633904Y-74235238D02*
X119872000Y-74330476D01*
X120110095Y-74235238D01*
X119729142Y-74520952D02*
X119872000Y-74330476D01*
X120014857Y-74520952D01*
X120633904Y-74092380D02*
X120633904Y-74330476D01*
X120395809Y-74235238D02*
X120633904Y-74330476D01*
X120872000Y-74235238D01*
X120491047Y-74520952D02*
X120633904Y-74330476D01*
X120776761Y-74520952D01*
X98527142Y-90091666D02*
X98574761Y-90139285D01*
X98622380Y-90282142D01*
X98622380Y-90377380D01*
X98574761Y-90520238D01*
X98479523Y-90615476D01*
X98384285Y-90663095D01*
X98193809Y-90710714D01*
X98050952Y-90710714D01*
X97860476Y-90663095D01*
X97765238Y-90615476D01*
X97670000Y-90520238D01*
X97622380Y-90377380D01*
X97622380Y-90282142D01*
X97670000Y-90139285D01*
X97717619Y-90091666D01*
X98622380Y-89139285D02*
X98622380Y-89710714D01*
X98622380Y-89425000D02*
X97622380Y-89425000D01*
X97765238Y-89520238D01*
X97860476Y-89615476D01*
X97908095Y-89710714D01*
X99890629Y-98574115D02*
X99890629Y-98641458D01*
X99823285Y-98776145D01*
X99755942Y-98843489D01*
X99621254Y-98910832D01*
X99486567Y-98910832D01*
X99385552Y-98877161D01*
X99217193Y-98776145D01*
X99116178Y-98675130D01*
X99015163Y-98506771D01*
X98981491Y-98405756D01*
X98981491Y-98271069D01*
X99048835Y-98136382D01*
X99116178Y-98069038D01*
X99250865Y-98001695D01*
X99318209Y-98001695D01*
X99587583Y-97732321D02*
X99587583Y-97664977D01*
X99621254Y-97563962D01*
X99789613Y-97395603D01*
X99890629Y-97361932D01*
X99957972Y-97361932D01*
X100058987Y-97395603D01*
X100126331Y-97462947D01*
X100193674Y-97597634D01*
X100193674Y-98405756D01*
X100631407Y-97968023D01*
X102458333Y-90907142D02*
X102410714Y-90954761D01*
X102267857Y-91002380D01*
X102172619Y-91002380D01*
X102029761Y-90954761D01*
X101934523Y-90859523D01*
X101886904Y-90764285D01*
X101839285Y-90573809D01*
X101839285Y-90430952D01*
X101886904Y-90240476D01*
X101934523Y-90145238D01*
X102029761Y-90050000D01*
X102172619Y-90002380D01*
X102267857Y-90002380D01*
X102410714Y-90050000D01*
X102458333Y-90097619D01*
X102791666Y-90002380D02*
X103410714Y-90002380D01*
X103077380Y-90383333D01*
X103220238Y-90383333D01*
X103315476Y-90430952D01*
X103363095Y-90478571D01*
X103410714Y-90573809D01*
X103410714Y-90811904D01*
X103363095Y-90907142D01*
X103315476Y-90954761D01*
X103220238Y-91002380D01*
X102934523Y-91002380D01*
X102839285Y-90954761D01*
X102791666Y-90907142D01*
X119730333Y-83287142D02*
X119682714Y-83334761D01*
X119539857Y-83382380D01*
X119444619Y-83382380D01*
X119301761Y-83334761D01*
X119206523Y-83239523D01*
X119158904Y-83144285D01*
X119111285Y-82953809D01*
X119111285Y-82810952D01*
X119158904Y-82620476D01*
X119206523Y-82525238D01*
X119301761Y-82430000D01*
X119444619Y-82382380D01*
X119539857Y-82382380D01*
X119682714Y-82430000D01*
X119730333Y-82477619D01*
X120587476Y-82715714D02*
X120587476Y-83382380D01*
X120349380Y-82334761D02*
X120111285Y-83049047D01*
X120730333Y-83049047D01*
X116236761Y-85887619D02*
X116141523Y-85840000D01*
X116046285Y-85744761D01*
X115903428Y-85601904D01*
X115808190Y-85554285D01*
X115712952Y-85554285D01*
X115760571Y-85792380D02*
X115665333Y-85744761D01*
X115570095Y-85649523D01*
X115522476Y-85459047D01*
X115522476Y-85125714D01*
X115570095Y-84935238D01*
X115665333Y-84840000D01*
X115760571Y-84792380D01*
X115951047Y-84792380D01*
X116046285Y-84840000D01*
X116141523Y-84935238D01*
X116189142Y-85125714D01*
X116189142Y-85459047D01*
X116141523Y-85649523D01*
X116046285Y-85744761D01*
X115951047Y-85792380D01*
X115760571Y-85792380D01*
X117141523Y-85792380D02*
X116570095Y-85792380D01*
X116855809Y-85792380D02*
X116855809Y-84792380D01*
X116760571Y-84935238D01*
X116665333Y-85030476D01*
X116570095Y-85078095D01*
X107514380Y-88041666D02*
X107038190Y-88375000D01*
X107514380Y-88613095D02*
X106514380Y-88613095D01*
X106514380Y-88232142D01*
X106562000Y-88136904D01*
X106609619Y-88089285D01*
X106704857Y-88041666D01*
X106847714Y-88041666D01*
X106942952Y-88089285D01*
X106990571Y-88136904D01*
X107038190Y-88232142D01*
X107038190Y-88613095D01*
X107514380Y-87089285D02*
X107514380Y-87660714D01*
X107514380Y-87375000D02*
X106514380Y-87375000D01*
X106657238Y-87470238D01*
X106752476Y-87565476D01*
X106800095Y-87660714D01*
X114435972Y-98595242D02*
X113863552Y-98494227D01*
X114031911Y-98999303D02*
X113324804Y-98292197D01*
X113594178Y-98022822D01*
X113695193Y-97989151D01*
X113762537Y-97989151D01*
X113863552Y-98022822D01*
X113964567Y-98123838D01*
X113998239Y-98224853D01*
X113998239Y-98292197D01*
X113964567Y-98393212D01*
X113695193Y-98662586D01*
X114065583Y-97686105D02*
X114065583Y-97618761D01*
X114099254Y-97517746D01*
X114267613Y-97349387D01*
X114368629Y-97315716D01*
X114435972Y-97315716D01*
X114536987Y-97349387D01*
X114604331Y-97416731D01*
X114671674Y-97551418D01*
X114671674Y-98359540D01*
X115109407Y-97921807D01*
X92401190Y-91816190D02*
X92877380Y-91816190D01*
X91877380Y-92149523D02*
X92401190Y-91816190D01*
X91877380Y-91482857D01*
X92877380Y-90625714D02*
X92877380Y-91197142D01*
X92877380Y-90911428D02*
X91877380Y-90911428D01*
X92020238Y-91006666D01*
X92115476Y-91101904D01*
X92163095Y-91197142D01*
M02*
