G04 #@! TF.GenerationSoftware,KiCad,Pcbnew,(5.1.5)-3*
G04 #@! TF.CreationDate,2020-02-21T14:34:09-08:00*
G04 #@! TF.ProjectId,Clock_Test,436c6f63-6b5f-4546-9573-742e6b696361,rev?*
G04 #@! TF.SameCoordinates,Original*
G04 #@! TF.FileFunction,Soldermask,Bot*
G04 #@! TF.FilePolarity,Negative*
%FSLAX46Y46*%
G04 Gerber Fmt 4.6, Leading zero omitted, Abs format (unit mm)*
G04 Created by KiCad (PCBNEW (5.1.5)-3) date 2020-02-21 14:34:09*
%MOMM*%
%LPD*%
G04 APERTURE LIST*
%ADD10C,0.100000*%
G04 APERTURE END LIST*
D10*
G36*
X59944000Y-76202000D02*
G01*
X54864000Y-76202000D01*
X54864000Y-75348999D01*
X54861560Y-75324223D01*
X54854333Y-75300399D01*
X54842597Y-75278442D01*
X54826803Y-75259197D01*
X54807558Y-75243403D01*
X54785601Y-75231667D01*
X54761777Y-75224440D01*
X54737001Y-75222000D01*
X53939000Y-75222000D01*
X53939000Y-74762000D01*
X54737001Y-74762000D01*
X54761777Y-74759560D01*
X54785601Y-74752333D01*
X54807558Y-74740597D01*
X54826803Y-74724803D01*
X54842597Y-74705558D01*
X54854333Y-74683601D01*
X54861560Y-74659777D01*
X54864000Y-74635001D01*
X54864000Y-73782000D01*
X59944000Y-73782000D01*
X59944000Y-76202000D01*
G37*
G36*
X15868079Y-74113704D02*
G01*
X16003810Y-74140702D01*
X16083613Y-74173758D01*
X16163415Y-74206813D01*
X16307055Y-74302790D01*
X16429210Y-74424945D01*
X16525187Y-74568585D01*
X16552697Y-74635001D01*
X16591298Y-74728190D01*
X16625000Y-74897624D01*
X16625000Y-75070376D01*
X16591298Y-75239810D01*
X16575296Y-75278442D01*
X16525187Y-75399415D01*
X16429210Y-75543055D01*
X16307055Y-75665210D01*
X16163415Y-75761187D01*
X16083613Y-75794242D01*
X16003810Y-75827298D01*
X15868079Y-75854296D01*
X15834377Y-75861000D01*
X15661623Y-75861000D01*
X15627921Y-75854296D01*
X15492190Y-75827298D01*
X15412387Y-75794242D01*
X15332585Y-75761187D01*
X15188945Y-75665210D01*
X15066790Y-75543055D01*
X14970813Y-75399415D01*
X14920704Y-75278442D01*
X14904702Y-75239810D01*
X14871000Y-75070376D01*
X14871000Y-74897624D01*
X14904702Y-74728190D01*
X14943303Y-74635001D01*
X14970813Y-74568585D01*
X15066790Y-74424945D01*
X15188945Y-74302790D01*
X15332585Y-74206813D01*
X15412387Y-74173758D01*
X15492190Y-74140702D01*
X15627921Y-74113704D01*
X15661623Y-74107000D01*
X15834377Y-74107000D01*
X15868079Y-74113704D01*
G37*
G36*
X48895000Y-71755000D02*
G01*
X46609000Y-71755000D01*
X46609000Y-69469000D01*
X48895000Y-69469000D01*
X48895000Y-71755000D01*
G37*
G36*
X15970988Y-68982962D02*
G01*
X16081402Y-69004925D01*
X16289413Y-69091086D01*
X16476620Y-69216174D01*
X16635826Y-69375380D01*
X16760914Y-69562587D01*
X16847075Y-69770598D01*
X16891000Y-69991425D01*
X16891000Y-70216575D01*
X16847075Y-70437402D01*
X16760914Y-70645413D01*
X16635826Y-70832620D01*
X16476620Y-70991826D01*
X16289413Y-71116914D01*
X16081402Y-71203075D01*
X15970989Y-71225037D01*
X15860576Y-71247000D01*
X15635424Y-71247000D01*
X15525011Y-71225037D01*
X15414598Y-71203075D01*
X15206587Y-71116914D01*
X15019380Y-70991826D01*
X14860174Y-70832620D01*
X14735086Y-70645413D01*
X14648925Y-70437402D01*
X14605000Y-70216575D01*
X14605000Y-69991425D01*
X14648925Y-69770598D01*
X14735086Y-69562587D01*
X14860174Y-69375380D01*
X15019380Y-69216174D01*
X15206587Y-69091086D01*
X15414598Y-69004925D01*
X15525012Y-68982962D01*
X15635424Y-68961000D01*
X15860576Y-68961000D01*
X15970988Y-68982962D01*
G37*
G36*
X59944000Y-67442000D02*
G01*
X54864000Y-67442000D01*
X54864000Y-66588999D01*
X54861560Y-66564223D01*
X54854333Y-66540399D01*
X54842597Y-66518442D01*
X54826803Y-66499197D01*
X54807558Y-66483403D01*
X54785601Y-66471667D01*
X54761777Y-66464440D01*
X54737001Y-66462000D01*
X53939000Y-66462000D01*
X53939000Y-66002000D01*
X54737001Y-66002000D01*
X54761777Y-65999560D01*
X54785601Y-65992333D01*
X54807558Y-65980597D01*
X54826803Y-65964803D01*
X54842597Y-65945558D01*
X54854333Y-65923601D01*
X54861560Y-65899777D01*
X54864000Y-65875001D01*
X54864000Y-65022000D01*
X59944000Y-65022000D01*
X59944000Y-67442000D01*
G37*
G36*
X39846988Y-64283962D02*
G01*
X39957402Y-64305925D01*
X40165413Y-64392086D01*
X40352620Y-64517174D01*
X40511826Y-64676380D01*
X40636914Y-64863587D01*
X40723075Y-65071598D01*
X40767000Y-65292425D01*
X40767000Y-65517575D01*
X40723075Y-65738402D01*
X40636914Y-65946413D01*
X40511826Y-66133620D01*
X40352620Y-66292826D01*
X40165413Y-66417914D01*
X39957402Y-66504075D01*
X39885174Y-66518442D01*
X39736576Y-66548000D01*
X39511424Y-66548000D01*
X39362826Y-66518442D01*
X39290598Y-66504075D01*
X39082587Y-66417914D01*
X38895380Y-66292826D01*
X38736174Y-66133620D01*
X38611086Y-65946413D01*
X38524925Y-65738402D01*
X38481000Y-65517575D01*
X38481000Y-65292425D01*
X38524925Y-65071598D01*
X38611086Y-64863587D01*
X38736174Y-64676380D01*
X38895380Y-64517174D01*
X39082587Y-64392086D01*
X39290598Y-64305925D01*
X39401012Y-64283962D01*
X39511424Y-64262000D01*
X39736576Y-64262000D01*
X39846988Y-64283962D01*
G37*
G36*
X39846989Y-61743963D02*
G01*
X39957402Y-61765925D01*
X40165413Y-61852086D01*
X40352620Y-61977174D01*
X40511826Y-62136380D01*
X40636914Y-62323587D01*
X40723075Y-62531598D01*
X40767000Y-62752425D01*
X40767000Y-62977575D01*
X40723075Y-63198402D01*
X40636914Y-63406413D01*
X40511826Y-63593620D01*
X40352620Y-63752826D01*
X40165413Y-63877914D01*
X39957402Y-63964075D01*
X39846989Y-63986037D01*
X39736576Y-64008000D01*
X39511424Y-64008000D01*
X39401011Y-63986037D01*
X39290598Y-63964075D01*
X39082587Y-63877914D01*
X38895380Y-63752826D01*
X38736174Y-63593620D01*
X38611086Y-63406413D01*
X38524925Y-63198402D01*
X38481000Y-62977575D01*
X38481000Y-62752425D01*
X38524925Y-62531598D01*
X38611086Y-62323587D01*
X38736174Y-62136380D01*
X38895380Y-61977174D01*
X39082587Y-61852086D01*
X39290598Y-61765925D01*
X39401011Y-61743963D01*
X39511424Y-61722000D01*
X39736576Y-61722000D01*
X39846989Y-61743963D01*
G37*
G36*
X40767000Y-61468000D02*
G01*
X38481000Y-61468000D01*
X38481000Y-59182000D01*
X40767000Y-59182000D01*
X40767000Y-61468000D01*
G37*
G36*
X31115000Y-61468000D02*
G01*
X28829000Y-61468000D01*
X28829000Y-59182000D01*
X31115000Y-59182000D01*
X31115000Y-61468000D01*
G37*
M02*
