G04 #@! TF.GenerationSoftware,KiCad,Pcbnew,(5.1.5)-3*
G04 #@! TF.CreationDate,2020-02-10T15:58:06-08:00*
G04 #@! TF.ProjectId,Clock_Test,436c6f63-6b5f-4546-9573-742e6b696361,rev?*
G04 #@! TF.SameCoordinates,Original*
G04 #@! TF.FileFunction,Paste,Top*
G04 #@! TF.FilePolarity,Positive*
%FSLAX46Y46*%
G04 Gerber Fmt 4.6, Leading zero omitted, Abs format (unit mm)*
G04 Created by KiCad (PCBNEW (5.1.5)-3) date 2020-02-10 15:58:06*
%MOMM*%
%LPD*%
G04 APERTURE LIST*
%ADD10C,0.100000*%
G04 APERTURE END LIST*
D10*
G36*
X123255688Y-99030414D02*
G01*
X121636414Y-100649688D01*
X118044312Y-97057586D01*
X119663586Y-95438312D01*
X123255688Y-99030414D01*
G37*
G36*
X120204522Y-102081579D02*
G01*
X118493324Y-103792777D01*
X114901222Y-100200675D01*
X116612420Y-98489477D01*
X120204522Y-102081579D01*
G37*
G36*
X126398777Y-95887324D02*
G01*
X124687579Y-97598522D01*
X121095477Y-94006420D01*
X122806675Y-92295222D01*
X126398777Y-95887324D01*
G37*
G36*
X96994505Y-90376204D02*
G01*
X97018773Y-90379804D01*
X97042572Y-90385765D01*
X97065671Y-90394030D01*
X97087850Y-90404520D01*
X97108893Y-90417132D01*
X97128599Y-90431747D01*
X97146777Y-90448223D01*
X97163253Y-90466401D01*
X97177868Y-90486107D01*
X97190480Y-90507150D01*
X97200970Y-90529329D01*
X97209235Y-90552428D01*
X97215196Y-90576227D01*
X97218796Y-90600495D01*
X97220000Y-90624999D01*
X97220000Y-91275001D01*
X97218796Y-91299505D01*
X97215196Y-91323773D01*
X97209235Y-91347572D01*
X97200970Y-91370671D01*
X97190480Y-91392850D01*
X97177868Y-91413893D01*
X97163253Y-91433599D01*
X97146777Y-91451777D01*
X97128599Y-91468253D01*
X97108893Y-91482868D01*
X97087850Y-91495480D01*
X97065671Y-91505970D01*
X97042572Y-91514235D01*
X97018773Y-91520196D01*
X96994505Y-91523796D01*
X96970001Y-91525000D01*
X96069999Y-91525000D01*
X96045495Y-91523796D01*
X96021227Y-91520196D01*
X95997428Y-91514235D01*
X95974329Y-91505970D01*
X95952150Y-91495480D01*
X95931107Y-91482868D01*
X95911401Y-91468253D01*
X95893223Y-91451777D01*
X95876747Y-91433599D01*
X95862132Y-91413893D01*
X95849520Y-91392850D01*
X95839030Y-91370671D01*
X95830765Y-91347572D01*
X95824804Y-91323773D01*
X95821204Y-91299505D01*
X95820000Y-91275001D01*
X95820000Y-90624999D01*
X95821204Y-90600495D01*
X95824804Y-90576227D01*
X95830765Y-90552428D01*
X95839030Y-90529329D01*
X95849520Y-90507150D01*
X95862132Y-90486107D01*
X95876747Y-90466401D01*
X95893223Y-90448223D01*
X95911401Y-90431747D01*
X95931107Y-90417132D01*
X95952150Y-90404520D01*
X95974329Y-90394030D01*
X95997428Y-90385765D01*
X96021227Y-90379804D01*
X96045495Y-90376204D01*
X96069999Y-90375000D01*
X96970001Y-90375000D01*
X96994505Y-90376204D01*
G37*
G36*
X96994505Y-88326204D02*
G01*
X97018773Y-88329804D01*
X97042572Y-88335765D01*
X97065671Y-88344030D01*
X97087850Y-88354520D01*
X97108893Y-88367132D01*
X97128599Y-88381747D01*
X97146777Y-88398223D01*
X97163253Y-88416401D01*
X97177868Y-88436107D01*
X97190480Y-88457150D01*
X97200970Y-88479329D01*
X97209235Y-88502428D01*
X97215196Y-88526227D01*
X97218796Y-88550495D01*
X97220000Y-88574999D01*
X97220000Y-89225001D01*
X97218796Y-89249505D01*
X97215196Y-89273773D01*
X97209235Y-89297572D01*
X97200970Y-89320671D01*
X97190480Y-89342850D01*
X97177868Y-89363893D01*
X97163253Y-89383599D01*
X97146777Y-89401777D01*
X97128599Y-89418253D01*
X97108893Y-89432868D01*
X97087850Y-89445480D01*
X97065671Y-89455970D01*
X97042572Y-89464235D01*
X97018773Y-89470196D01*
X96994505Y-89473796D01*
X96970001Y-89475000D01*
X96069999Y-89475000D01*
X96045495Y-89473796D01*
X96021227Y-89470196D01*
X95997428Y-89464235D01*
X95974329Y-89455970D01*
X95952150Y-89445480D01*
X95931107Y-89432868D01*
X95911401Y-89418253D01*
X95893223Y-89401777D01*
X95876747Y-89383599D01*
X95862132Y-89363893D01*
X95849520Y-89342850D01*
X95839030Y-89320671D01*
X95830765Y-89297572D01*
X95824804Y-89273773D01*
X95821204Y-89249505D01*
X95820000Y-89225001D01*
X95820000Y-88574999D01*
X95821204Y-88550495D01*
X95824804Y-88526227D01*
X95830765Y-88502428D01*
X95839030Y-88479329D01*
X95849520Y-88457150D01*
X95862132Y-88436107D01*
X95876747Y-88416401D01*
X95893223Y-88398223D01*
X95911401Y-88381747D01*
X95931107Y-88367132D01*
X95952150Y-88354520D01*
X95974329Y-88344030D01*
X95997428Y-88335765D01*
X96021227Y-88329804D01*
X96045495Y-88326204D01*
X96069999Y-88325000D01*
X96970001Y-88325000D01*
X96994505Y-88326204D01*
G37*
G36*
X99250116Y-95515412D02*
G01*
X99274384Y-95519012D01*
X99298183Y-95524973D01*
X99321282Y-95533238D01*
X99343461Y-95543728D01*
X99364504Y-95556340D01*
X99384210Y-95570955D01*
X99402388Y-95587431D01*
X100038785Y-96223828D01*
X100055261Y-96242006D01*
X100069876Y-96261712D01*
X100082488Y-96282755D01*
X100092978Y-96304934D01*
X100101243Y-96328033D01*
X100107204Y-96351832D01*
X100110804Y-96376100D01*
X100112008Y-96400604D01*
X100110804Y-96425108D01*
X100107204Y-96449376D01*
X100101243Y-96473175D01*
X100092978Y-96496274D01*
X100082488Y-96518453D01*
X100069876Y-96539496D01*
X100055261Y-96559202D01*
X100038785Y-96577380D01*
X99579164Y-97037001D01*
X99560986Y-97053477D01*
X99541280Y-97068092D01*
X99520237Y-97080704D01*
X99498058Y-97091194D01*
X99474959Y-97099459D01*
X99451160Y-97105420D01*
X99426892Y-97109020D01*
X99402388Y-97110224D01*
X99377884Y-97109020D01*
X99353616Y-97105420D01*
X99329817Y-97099459D01*
X99306718Y-97091194D01*
X99284539Y-97080704D01*
X99263496Y-97068092D01*
X99243790Y-97053477D01*
X99225612Y-97037001D01*
X98589215Y-96400604D01*
X98572739Y-96382426D01*
X98558124Y-96362720D01*
X98545512Y-96341677D01*
X98535022Y-96319498D01*
X98526757Y-96296399D01*
X98520796Y-96272600D01*
X98517196Y-96248332D01*
X98515992Y-96223828D01*
X98517196Y-96199324D01*
X98520796Y-96175056D01*
X98526757Y-96151257D01*
X98535022Y-96128158D01*
X98545512Y-96105979D01*
X98558124Y-96084936D01*
X98572739Y-96065230D01*
X98589215Y-96047052D01*
X99048836Y-95587431D01*
X99067014Y-95570955D01*
X99086720Y-95556340D01*
X99107763Y-95543728D01*
X99129942Y-95533238D01*
X99153041Y-95524973D01*
X99176840Y-95519012D01*
X99201108Y-95515412D01*
X99225612Y-95514208D01*
X99250116Y-95515412D01*
G37*
G36*
X97800504Y-96964792D02*
G01*
X97824729Y-96968385D01*
X97848485Y-96974336D01*
X97871543Y-96982586D01*
X97893681Y-96993057D01*
X97914687Y-97005647D01*
X97934357Y-97020235D01*
X97952502Y-97036682D01*
X98589534Y-97673714D01*
X98605981Y-97691859D01*
X98620569Y-97711529D01*
X98633159Y-97732535D01*
X98643630Y-97754673D01*
X98651880Y-97777731D01*
X98657831Y-97801487D01*
X98661424Y-97825712D01*
X98662626Y-97850172D01*
X98661424Y-97874632D01*
X98657831Y-97898857D01*
X98651880Y-97922613D01*
X98643630Y-97945671D01*
X98633159Y-97967809D01*
X98620569Y-97988815D01*
X98605981Y-98008485D01*
X98589534Y-98026630D01*
X98129278Y-98486886D01*
X98111133Y-98503333D01*
X98091463Y-98517921D01*
X98070457Y-98530511D01*
X98048319Y-98540982D01*
X98025261Y-98549232D01*
X98001505Y-98555183D01*
X97977280Y-98558776D01*
X97952820Y-98559978D01*
X97928360Y-98558776D01*
X97904135Y-98555183D01*
X97880379Y-98549232D01*
X97857321Y-98540982D01*
X97835183Y-98530511D01*
X97814177Y-98517921D01*
X97794507Y-98503333D01*
X97776362Y-98486886D01*
X97139330Y-97849854D01*
X97122883Y-97831709D01*
X97108295Y-97812039D01*
X97095705Y-97791033D01*
X97085234Y-97768895D01*
X97076984Y-97745837D01*
X97071033Y-97722081D01*
X97067440Y-97697856D01*
X97066238Y-97673396D01*
X97067440Y-97648936D01*
X97071033Y-97624711D01*
X97076984Y-97600955D01*
X97085234Y-97577897D01*
X97095705Y-97555759D01*
X97108295Y-97534753D01*
X97122883Y-97515083D01*
X97139330Y-97496938D01*
X97599586Y-97036682D01*
X97617731Y-97020235D01*
X97637401Y-97005647D01*
X97658407Y-96993057D01*
X97680545Y-96982586D01*
X97703603Y-96974336D01*
X97727359Y-96968385D01*
X97751584Y-96964792D01*
X97776044Y-96963590D01*
X97800504Y-96964792D01*
G37*
G36*
X103999505Y-88201204D02*
G01*
X104023773Y-88204804D01*
X104047572Y-88210765D01*
X104070671Y-88219030D01*
X104092850Y-88229520D01*
X104113893Y-88242132D01*
X104133599Y-88256747D01*
X104151777Y-88273223D01*
X104168253Y-88291401D01*
X104182868Y-88311107D01*
X104195480Y-88332150D01*
X104205970Y-88354329D01*
X104214235Y-88377428D01*
X104220196Y-88401227D01*
X104223796Y-88425495D01*
X104225000Y-88449999D01*
X104225000Y-89350001D01*
X104223796Y-89374505D01*
X104220196Y-89398773D01*
X104214235Y-89422572D01*
X104205970Y-89445671D01*
X104195480Y-89467850D01*
X104182868Y-89488893D01*
X104168253Y-89508599D01*
X104151777Y-89526777D01*
X104133599Y-89543253D01*
X104113893Y-89557868D01*
X104092850Y-89570480D01*
X104070671Y-89580970D01*
X104047572Y-89589235D01*
X104023773Y-89595196D01*
X103999505Y-89598796D01*
X103975001Y-89600000D01*
X103324999Y-89600000D01*
X103300495Y-89598796D01*
X103276227Y-89595196D01*
X103252428Y-89589235D01*
X103229329Y-89580970D01*
X103207150Y-89570480D01*
X103186107Y-89557868D01*
X103166401Y-89543253D01*
X103148223Y-89526777D01*
X103131747Y-89508599D01*
X103117132Y-89488893D01*
X103104520Y-89467850D01*
X103094030Y-89445671D01*
X103085765Y-89422572D01*
X103079804Y-89398773D01*
X103076204Y-89374505D01*
X103075000Y-89350001D01*
X103075000Y-88449999D01*
X103076204Y-88425495D01*
X103079804Y-88401227D01*
X103085765Y-88377428D01*
X103094030Y-88354329D01*
X103104520Y-88332150D01*
X103117132Y-88311107D01*
X103131747Y-88291401D01*
X103148223Y-88273223D01*
X103166401Y-88256747D01*
X103186107Y-88242132D01*
X103207150Y-88229520D01*
X103229329Y-88219030D01*
X103252428Y-88210765D01*
X103276227Y-88204804D01*
X103300495Y-88201204D01*
X103324999Y-88200000D01*
X103975001Y-88200000D01*
X103999505Y-88201204D01*
G37*
G36*
X101949505Y-88201204D02*
G01*
X101973773Y-88204804D01*
X101997572Y-88210765D01*
X102020671Y-88219030D01*
X102042850Y-88229520D01*
X102063893Y-88242132D01*
X102083599Y-88256747D01*
X102101777Y-88273223D01*
X102118253Y-88291401D01*
X102132868Y-88311107D01*
X102145480Y-88332150D01*
X102155970Y-88354329D01*
X102164235Y-88377428D01*
X102170196Y-88401227D01*
X102173796Y-88425495D01*
X102175000Y-88449999D01*
X102175000Y-89350001D01*
X102173796Y-89374505D01*
X102170196Y-89398773D01*
X102164235Y-89422572D01*
X102155970Y-89445671D01*
X102145480Y-89467850D01*
X102132868Y-89488893D01*
X102118253Y-89508599D01*
X102101777Y-89526777D01*
X102083599Y-89543253D01*
X102063893Y-89557868D01*
X102042850Y-89570480D01*
X102020671Y-89580970D01*
X101997572Y-89589235D01*
X101973773Y-89595196D01*
X101949505Y-89598796D01*
X101925001Y-89600000D01*
X101274999Y-89600000D01*
X101250495Y-89598796D01*
X101226227Y-89595196D01*
X101202428Y-89589235D01*
X101179329Y-89580970D01*
X101157150Y-89570480D01*
X101136107Y-89557868D01*
X101116401Y-89543253D01*
X101098223Y-89526777D01*
X101081747Y-89508599D01*
X101067132Y-89488893D01*
X101054520Y-89467850D01*
X101044030Y-89445671D01*
X101035765Y-89422572D01*
X101029804Y-89398773D01*
X101026204Y-89374505D01*
X101025000Y-89350001D01*
X101025000Y-88449999D01*
X101026204Y-88425495D01*
X101029804Y-88401227D01*
X101035765Y-88377428D01*
X101044030Y-88354329D01*
X101054520Y-88332150D01*
X101067132Y-88311107D01*
X101081747Y-88291401D01*
X101098223Y-88273223D01*
X101116401Y-88256747D01*
X101136107Y-88242132D01*
X101157150Y-88229520D01*
X101179329Y-88219030D01*
X101202428Y-88210765D01*
X101226227Y-88204804D01*
X101250495Y-88201204D01*
X101274999Y-88200000D01*
X101925001Y-88200000D01*
X101949505Y-88201204D01*
G37*
G36*
X119221505Y-80581204D02*
G01*
X119245773Y-80584804D01*
X119269572Y-80590765D01*
X119292671Y-80599030D01*
X119314850Y-80609520D01*
X119335893Y-80622132D01*
X119355599Y-80636747D01*
X119373777Y-80653223D01*
X119390253Y-80671401D01*
X119404868Y-80691107D01*
X119417480Y-80712150D01*
X119427970Y-80734329D01*
X119436235Y-80757428D01*
X119442196Y-80781227D01*
X119445796Y-80805495D01*
X119447000Y-80829999D01*
X119447000Y-81730001D01*
X119445796Y-81754505D01*
X119442196Y-81778773D01*
X119436235Y-81802572D01*
X119427970Y-81825671D01*
X119417480Y-81847850D01*
X119404868Y-81868893D01*
X119390253Y-81888599D01*
X119373777Y-81906777D01*
X119355599Y-81923253D01*
X119335893Y-81937868D01*
X119314850Y-81950480D01*
X119292671Y-81960970D01*
X119269572Y-81969235D01*
X119245773Y-81975196D01*
X119221505Y-81978796D01*
X119197001Y-81980000D01*
X118546999Y-81980000D01*
X118522495Y-81978796D01*
X118498227Y-81975196D01*
X118474428Y-81969235D01*
X118451329Y-81960970D01*
X118429150Y-81950480D01*
X118408107Y-81937868D01*
X118388401Y-81923253D01*
X118370223Y-81906777D01*
X118353747Y-81888599D01*
X118339132Y-81868893D01*
X118326520Y-81847850D01*
X118316030Y-81825671D01*
X118307765Y-81802572D01*
X118301804Y-81778773D01*
X118298204Y-81754505D01*
X118297000Y-81730001D01*
X118297000Y-80829999D01*
X118298204Y-80805495D01*
X118301804Y-80781227D01*
X118307765Y-80757428D01*
X118316030Y-80734329D01*
X118326520Y-80712150D01*
X118339132Y-80691107D01*
X118353747Y-80671401D01*
X118370223Y-80653223D01*
X118388401Y-80636747D01*
X118408107Y-80622132D01*
X118429150Y-80609520D01*
X118451329Y-80599030D01*
X118474428Y-80590765D01*
X118498227Y-80584804D01*
X118522495Y-80581204D01*
X118546999Y-80580000D01*
X119197001Y-80580000D01*
X119221505Y-80581204D01*
G37*
G36*
X121271910Y-80581202D02*
G01*
X121296135Y-80584795D01*
X121319891Y-80590746D01*
X121342949Y-80598996D01*
X121365087Y-80609467D01*
X121386093Y-80622057D01*
X121405763Y-80636645D01*
X121423908Y-80653092D01*
X121440355Y-80671237D01*
X121454943Y-80690907D01*
X121467533Y-80711913D01*
X121478004Y-80734051D01*
X121486254Y-80757109D01*
X121492205Y-80780865D01*
X121495798Y-80805090D01*
X121497000Y-80829550D01*
X121497000Y-81730450D01*
X121495798Y-81754910D01*
X121492205Y-81779135D01*
X121486254Y-81802891D01*
X121478004Y-81825949D01*
X121467533Y-81848087D01*
X121454943Y-81869093D01*
X121440355Y-81888763D01*
X121423908Y-81906908D01*
X121405763Y-81923355D01*
X121386093Y-81937943D01*
X121365087Y-81950533D01*
X121342949Y-81961004D01*
X121319891Y-81969254D01*
X121296135Y-81975205D01*
X121271910Y-81978798D01*
X121247450Y-81980000D01*
X120596550Y-81980000D01*
X120572090Y-81978798D01*
X120547865Y-81975205D01*
X120524109Y-81969254D01*
X120501051Y-81961004D01*
X120478913Y-81950533D01*
X120457907Y-81937943D01*
X120438237Y-81923355D01*
X120420092Y-81906908D01*
X120403645Y-81888763D01*
X120389057Y-81869093D01*
X120376467Y-81848087D01*
X120365996Y-81825949D01*
X120357746Y-81802891D01*
X120351795Y-81779135D01*
X120348202Y-81754910D01*
X120347000Y-81730450D01*
X120347000Y-80829550D01*
X120348202Y-80805090D01*
X120351795Y-80780865D01*
X120357746Y-80757109D01*
X120365996Y-80734051D01*
X120376467Y-80711913D01*
X120389057Y-80690907D01*
X120403645Y-80671237D01*
X120420092Y-80653092D01*
X120438237Y-80636645D01*
X120457907Y-80622057D01*
X120478913Y-80609467D01*
X120501051Y-80598996D01*
X120524109Y-80590746D01*
X120547865Y-80584795D01*
X120572090Y-80581202D01*
X120596550Y-80580000D01*
X121247450Y-80580000D01*
X121271910Y-80581202D01*
G37*
G36*
X109186505Y-88326204D02*
G01*
X109210773Y-88329804D01*
X109234572Y-88335765D01*
X109257671Y-88344030D01*
X109279850Y-88354520D01*
X109300893Y-88367132D01*
X109320599Y-88381747D01*
X109338777Y-88398223D01*
X109355253Y-88416401D01*
X109369868Y-88436107D01*
X109382480Y-88457150D01*
X109392970Y-88479329D01*
X109401235Y-88502428D01*
X109407196Y-88526227D01*
X109410796Y-88550495D01*
X109412000Y-88574999D01*
X109412000Y-89225001D01*
X109410796Y-89249505D01*
X109407196Y-89273773D01*
X109401235Y-89297572D01*
X109392970Y-89320671D01*
X109382480Y-89342850D01*
X109369868Y-89363893D01*
X109355253Y-89383599D01*
X109338777Y-89401777D01*
X109320599Y-89418253D01*
X109300893Y-89432868D01*
X109279850Y-89445480D01*
X109257671Y-89455970D01*
X109234572Y-89464235D01*
X109210773Y-89470196D01*
X109186505Y-89473796D01*
X109162001Y-89475000D01*
X108261999Y-89475000D01*
X108237495Y-89473796D01*
X108213227Y-89470196D01*
X108189428Y-89464235D01*
X108166329Y-89455970D01*
X108144150Y-89445480D01*
X108123107Y-89432868D01*
X108103401Y-89418253D01*
X108085223Y-89401777D01*
X108068747Y-89383599D01*
X108054132Y-89363893D01*
X108041520Y-89342850D01*
X108031030Y-89320671D01*
X108022765Y-89297572D01*
X108016804Y-89273773D01*
X108013204Y-89249505D01*
X108012000Y-89225001D01*
X108012000Y-88574999D01*
X108013204Y-88550495D01*
X108016804Y-88526227D01*
X108022765Y-88502428D01*
X108031030Y-88479329D01*
X108041520Y-88457150D01*
X108054132Y-88436107D01*
X108068747Y-88416401D01*
X108085223Y-88398223D01*
X108103401Y-88381747D01*
X108123107Y-88367132D01*
X108144150Y-88354520D01*
X108166329Y-88344030D01*
X108189428Y-88335765D01*
X108213227Y-88329804D01*
X108237495Y-88326204D01*
X108261999Y-88325000D01*
X109162001Y-88325000D01*
X109186505Y-88326204D01*
G37*
G36*
X109186910Y-86276202D02*
G01*
X109211135Y-86279795D01*
X109234891Y-86285746D01*
X109257949Y-86293996D01*
X109280087Y-86304467D01*
X109301093Y-86317057D01*
X109320763Y-86331645D01*
X109338908Y-86348092D01*
X109355355Y-86366237D01*
X109369943Y-86385907D01*
X109382533Y-86406913D01*
X109393004Y-86429051D01*
X109401254Y-86452109D01*
X109407205Y-86475865D01*
X109410798Y-86500090D01*
X109412000Y-86524550D01*
X109412000Y-87175450D01*
X109410798Y-87199910D01*
X109407205Y-87224135D01*
X109401254Y-87247891D01*
X109393004Y-87270949D01*
X109382533Y-87293087D01*
X109369943Y-87314093D01*
X109355355Y-87333763D01*
X109338908Y-87351908D01*
X109320763Y-87368355D01*
X109301093Y-87382943D01*
X109280087Y-87395533D01*
X109257949Y-87406004D01*
X109234891Y-87414254D01*
X109211135Y-87420205D01*
X109186910Y-87423798D01*
X109162450Y-87425000D01*
X108261550Y-87425000D01*
X108237090Y-87423798D01*
X108212865Y-87420205D01*
X108189109Y-87414254D01*
X108166051Y-87406004D01*
X108143913Y-87395533D01*
X108122907Y-87382943D01*
X108103237Y-87368355D01*
X108085092Y-87351908D01*
X108068645Y-87333763D01*
X108054057Y-87314093D01*
X108041467Y-87293087D01*
X108030996Y-87270949D01*
X108022746Y-87247891D01*
X108016795Y-87224135D01*
X108013202Y-87199910D01*
X108012000Y-87175450D01*
X108012000Y-86524550D01*
X108013202Y-86500090D01*
X108016795Y-86475865D01*
X108022746Y-86452109D01*
X108030996Y-86429051D01*
X108041467Y-86406913D01*
X108054057Y-86385907D01*
X108068645Y-86366237D01*
X108085092Y-86348092D01*
X108103237Y-86331645D01*
X108122907Y-86317057D01*
X108143913Y-86304467D01*
X108166051Y-86293996D01*
X108189109Y-86285746D01*
X108212865Y-86279795D01*
X108237090Y-86276202D01*
X108261550Y-86275000D01*
X109162450Y-86275000D01*
X109186910Y-86276202D01*
G37*
G36*
X112278504Y-96918576D02*
G01*
X112302729Y-96922169D01*
X112326485Y-96928120D01*
X112349543Y-96936370D01*
X112371681Y-96946841D01*
X112392687Y-96959431D01*
X112412357Y-96974019D01*
X112430502Y-96990466D01*
X113067534Y-97627498D01*
X113083981Y-97645643D01*
X113098569Y-97665313D01*
X113111159Y-97686319D01*
X113121630Y-97708457D01*
X113129880Y-97731515D01*
X113135831Y-97755271D01*
X113139424Y-97779496D01*
X113140626Y-97803956D01*
X113139424Y-97828416D01*
X113135831Y-97852641D01*
X113129880Y-97876397D01*
X113121630Y-97899455D01*
X113111159Y-97921593D01*
X113098569Y-97942599D01*
X113083981Y-97962269D01*
X113067534Y-97980414D01*
X112607278Y-98440670D01*
X112589133Y-98457117D01*
X112569463Y-98471705D01*
X112548457Y-98484295D01*
X112526319Y-98494766D01*
X112503261Y-98503016D01*
X112479505Y-98508967D01*
X112455280Y-98512560D01*
X112430820Y-98513762D01*
X112406360Y-98512560D01*
X112382135Y-98508967D01*
X112358379Y-98503016D01*
X112335321Y-98494766D01*
X112313183Y-98484295D01*
X112292177Y-98471705D01*
X112272507Y-98457117D01*
X112254362Y-98440670D01*
X111617330Y-97803638D01*
X111600883Y-97785493D01*
X111586295Y-97765823D01*
X111573705Y-97744817D01*
X111563234Y-97722679D01*
X111554984Y-97699621D01*
X111549033Y-97675865D01*
X111545440Y-97651640D01*
X111544238Y-97627180D01*
X111545440Y-97602720D01*
X111549033Y-97578495D01*
X111554984Y-97554739D01*
X111563234Y-97531681D01*
X111573705Y-97509543D01*
X111586295Y-97488537D01*
X111600883Y-97468867D01*
X111617330Y-97450722D01*
X112077586Y-96990466D01*
X112095731Y-96974019D01*
X112115401Y-96959431D01*
X112136407Y-96946841D01*
X112158545Y-96936370D01*
X112181603Y-96928120D01*
X112205359Y-96922169D01*
X112229584Y-96918576D01*
X112254044Y-96917374D01*
X112278504Y-96918576D01*
G37*
G36*
X113728116Y-95469196D02*
G01*
X113752384Y-95472796D01*
X113776183Y-95478757D01*
X113799282Y-95487022D01*
X113821461Y-95497512D01*
X113842504Y-95510124D01*
X113862210Y-95524739D01*
X113880388Y-95541215D01*
X114516785Y-96177612D01*
X114533261Y-96195790D01*
X114547876Y-96215496D01*
X114560488Y-96236539D01*
X114570978Y-96258718D01*
X114579243Y-96281817D01*
X114585204Y-96305616D01*
X114588804Y-96329884D01*
X114590008Y-96354388D01*
X114588804Y-96378892D01*
X114585204Y-96403160D01*
X114579243Y-96426959D01*
X114570978Y-96450058D01*
X114560488Y-96472237D01*
X114547876Y-96493280D01*
X114533261Y-96512986D01*
X114516785Y-96531164D01*
X114057164Y-96990785D01*
X114038986Y-97007261D01*
X114019280Y-97021876D01*
X113998237Y-97034488D01*
X113976058Y-97044978D01*
X113952959Y-97053243D01*
X113929160Y-97059204D01*
X113904892Y-97062804D01*
X113880388Y-97064008D01*
X113855884Y-97062804D01*
X113831616Y-97059204D01*
X113807817Y-97053243D01*
X113784718Y-97044978D01*
X113762539Y-97034488D01*
X113741496Y-97021876D01*
X113721790Y-97007261D01*
X113703612Y-96990785D01*
X113067215Y-96354388D01*
X113050739Y-96336210D01*
X113036124Y-96316504D01*
X113023512Y-96295461D01*
X113013022Y-96273282D01*
X113004757Y-96250183D01*
X112998796Y-96226384D01*
X112995196Y-96202116D01*
X112993992Y-96177612D01*
X112995196Y-96153108D01*
X112998796Y-96128840D01*
X113004757Y-96105041D01*
X113013022Y-96081942D01*
X113023512Y-96059763D01*
X113036124Y-96038720D01*
X113050739Y-96019014D01*
X113067215Y-96000836D01*
X113526836Y-95541215D01*
X113545014Y-95524739D01*
X113564720Y-95510124D01*
X113585763Y-95497512D01*
X113607942Y-95487022D01*
X113631041Y-95478757D01*
X113654840Y-95472796D01*
X113679108Y-95469196D01*
X113703612Y-95467992D01*
X113728116Y-95469196D01*
G37*
M02*
