G04 #@! TF.GenerationSoftware,KiCad,Pcbnew,(5.1.5)-3*
G04 #@! TF.CreationDate,2020-03-06T11:59:56-08:00*
G04 #@! TF.ProjectId,StabilityTestRev0,53746162-696c-4697-9479-546573745265,rev?*
G04 #@! TF.SameCoordinates,Original*
G04 #@! TF.FileFunction,Copper,L2,Bot*
G04 #@! TF.FilePolarity,Positive*
%FSLAX46Y46*%
G04 Gerber Fmt 4.6, Leading zero omitted, Abs format (unit mm)*
G04 Created by KiCad (PCBNEW (5.1.5)-3) date 2020-03-06 11:59:56*
%MOMM*%
%LPD*%
G04 APERTURE LIST*
%ADD10R,0.460000X0.950000*%
%ADD11C,0.970000*%
%ADD12R,2.420000X5.080000*%
%ADD13R,2.200000X2.200000*%
%ADD14O,2.200000X2.200000*%
%ADD15O,1.700000X1.700000*%
%ADD16R,1.700000X1.700000*%
%ADD17R,5.080000X2.420000*%
%ADD18R,0.950000X0.460000*%
%ADD19R,5.080000X1.500000*%
%ADD20R,1.500000X5.080000*%
%ADD21C,0.800000*%
%ADD22C,0.254000*%
G04 APERTURE END LIST*
D10*
X69216500Y-55346600D03*
X77976500Y-55346600D03*
D11*
X69216500Y-55796600D03*
X77976500Y-55796600D03*
D12*
X69216500Y-52356600D03*
X77976500Y-52356600D03*
D13*
X94742000Y-55346600D03*
D14*
X84582000Y-55346600D03*
D15*
X98933000Y-52679600D03*
D16*
X98933000Y-55219600D03*
D17*
X62547500Y-60364600D03*
X62547500Y-69124600D03*
D11*
X65987500Y-60364600D03*
X65987500Y-69124600D03*
D18*
X65537500Y-60364600D03*
X65537500Y-69124600D03*
D12*
X62549000Y-82715100D03*
X71309000Y-82715100D03*
D11*
X62549000Y-79275100D03*
X71309000Y-79275100D03*
D10*
X62549000Y-79725100D03*
X71309000Y-79725100D03*
D16*
X82740500Y-81572100D03*
D15*
X80200500Y-81572100D03*
X77660500Y-81572100D03*
X75120500Y-81572100D03*
D10*
X117029000Y-112808600D03*
X108269000Y-112808600D03*
D11*
X117029000Y-112358600D03*
X108269000Y-112358600D03*
D12*
X117029000Y-115798600D03*
X108269000Y-115798600D03*
X117029000Y-90202600D03*
X108269000Y-90202600D03*
D11*
X117029000Y-93642600D03*
X108269000Y-93642600D03*
D10*
X117029000Y-93192600D03*
X108269000Y-93192600D03*
D16*
X91770200Y-113639600D03*
D15*
X89230200Y-113639600D03*
D19*
X62433200Y-95673600D03*
X62433200Y-104173600D03*
D16*
X80213200Y-106273600D03*
D15*
X80213200Y-103733600D03*
X80213200Y-101193600D03*
D19*
X100152200Y-106713600D03*
X100152200Y-98213600D03*
D20*
X69994200Y-93319600D03*
X78494200Y-93319600D03*
D21*
X94030800Y-97942400D03*
X77165200Y-101752400D03*
X72847200Y-106172000D03*
X96113600Y-105918000D03*
X108585000Y-104267000D03*
X117221000Y-99695000D03*
X94361000Y-64897000D03*
X73533000Y-76581000D03*
X92329000Y-79629000D03*
X69977000Y-60833000D03*
X77089000Y-59817000D03*
X78994000Y-70358000D03*
X82296000Y-67691000D03*
X82423000Y-73406000D03*
X63881000Y-74422000D03*
X86309200Y-106908600D03*
X93548200Y-106908600D03*
X85293200Y-100685600D03*
X92659200Y-100685600D03*
D22*
G36*
X94818200Y-102082600D02*
G01*
X78816200Y-102082600D01*
X78816200Y-99796600D01*
X94818200Y-99796600D01*
X94818200Y-102082600D01*
G37*
X94818200Y-102082600D02*
X78816200Y-102082600D01*
X78816200Y-99796600D01*
X94818200Y-99796600D01*
X94818200Y-102082600D01*
G36*
X79780042Y-105161532D02*
G01*
X80066940Y-105218600D01*
X80359460Y-105218600D01*
X80646358Y-105161532D01*
X80721035Y-105130600D01*
X94818200Y-105130600D01*
X94818200Y-107670600D01*
X78816200Y-107670600D01*
X78816200Y-105130600D01*
X79705365Y-105130600D01*
X79780042Y-105161532D01*
G37*
X79780042Y-105161532D02*
X80066940Y-105218600D01*
X80359460Y-105218600D01*
X80646358Y-105161532D01*
X80721035Y-105130600D01*
X94818200Y-105130600D01*
X94818200Y-107670600D01*
X78816200Y-107670600D01*
X78816200Y-105130600D01*
X79705365Y-105130600D01*
X79780042Y-105161532D01*
M02*
