M48
; DRILL file {KiCad (5.1.5)-3} date 3/6/2020 12:00:00 PM
; FORMAT={-:-/ absolute / inch / decimal}
; #@! TF.CreationDate,2020-03-06T12:00:00-08:00
; #@! TF.GenerationSoftware,Kicad,Pcbnew,(5.1.5)-3
; #@! TF.FileFunction,Plated,1,2,PTH
FMAT,2
INCH
T1C0.0157
T2C0.0181
T3C0.0394
T4C0.0433
%
G90
G05
T1
X2.515Y-2.93
X2.755Y-2.395
X2.868Y-4.18
X2.895Y-3.015
X3.035Y-2.355
X3.038Y-4.006
X3.11Y-2.77
X3.24Y-2.665
X3.245Y-2.89
X3.358Y-3.964
X3.398Y-4.209
X3.635Y-3.135
X3.648Y-3.964
X3.683Y-4.209
X3.702Y-3.856
X3.715Y-2.555
X3.784Y-4.17
X4.275Y-4.105
X4.615Y-3.925
T2
X2.4626Y-3.1211
X2.8074Y-3.1211
X2.7251Y-2.1967
X3.0699Y-2.1967
X4.2626Y-4.4236
X4.6074Y-4.4236
X4.2626Y-3.6867
X4.6074Y-3.6867
X2.5979Y-2.3766
X2.5979Y-2.7214
T3
X3.895Y-2.074
X3.895Y-2.174
X3.513Y-4.474
X3.613Y-4.474
X3.158Y-3.984
X3.158Y-4.084
X3.158Y-4.184
X2.9575Y-3.2115
X3.0575Y-3.2115
X3.1575Y-3.2115
X3.2575Y-3.2115
T4
X3.33Y-2.179
X3.73Y-2.179
T0
M30
