G04 #@! TF.GenerationSoftware,KiCad,Pcbnew,(5.1.5)-3*
G04 #@! TF.CreationDate,2020-02-26T18:38:17-08:00*
G04 #@! TF.ProjectId,Rev0.1,52657630-2e31-42e6-9b69-6361645f7063,rev?*
G04 #@! TF.SameCoordinates,Original*
G04 #@! TF.FileFunction,Copper,L2,Bot*
G04 #@! TF.FilePolarity,Positive*
%FSLAX46Y46*%
G04 Gerber Fmt 4.6, Leading zero omitted, Abs format (unit mm)*
G04 Created by KiCad (PCBNEW (5.1.5)-3) date 2020-02-26 18:38:17*
%MOMM*%
%LPD*%
G04 APERTURE LIST*
%ADD10R,5.080000X1.500000*%
%ADD11R,1.500000X5.080000*%
%ADD12R,1.700000X1.700000*%
%ADD13O,1.700000X1.700000*%
%ADD14C,0.800000*%
%ADD15C,0.254000*%
G04 APERTURE END LIST*
D10*
X102489000Y-82745000D03*
X102489000Y-91245000D03*
D11*
X140648000Y-64389000D03*
X132148000Y-64389000D03*
D10*
X169164000Y-84142000D03*
X169164000Y-92642000D03*
D12*
X118618000Y-74041000D03*
D13*
X121158000Y-74041000D03*
D14*
X129032000Y-78232000D03*
X152908000Y-75184000D03*
D15*
G36*
X171044001Y-82131140D02*
G01*
X171044000Y-94844000D01*
X100228000Y-94844000D01*
X100228000Y-80416000D01*
X112235581Y-80416000D01*
X112268000Y-80419193D01*
X112300419Y-80416000D01*
X112397383Y-80406450D01*
X112521793Y-80368710D01*
X112636450Y-80307425D01*
X112736948Y-80224948D01*
X112819425Y-80124450D01*
X112880710Y-80009793D01*
X112918450Y-79885383D01*
X112931193Y-79756000D01*
X112928000Y-79723581D01*
X112928000Y-73191000D01*
X117129928Y-73191000D01*
X117129928Y-74891000D01*
X117142188Y-75015482D01*
X117178498Y-75135180D01*
X117237463Y-75245494D01*
X117316815Y-75342185D01*
X117413506Y-75421537D01*
X117523820Y-75480502D01*
X117643518Y-75516812D01*
X117768000Y-75529072D01*
X119468000Y-75529072D01*
X119592482Y-75516812D01*
X119712180Y-75480502D01*
X119822494Y-75421537D01*
X119919185Y-75342185D01*
X119998537Y-75245494D01*
X120057502Y-75135180D01*
X120093812Y-75015482D01*
X120106072Y-74891000D01*
X120106072Y-73191000D01*
X120093812Y-73066518D01*
X120057502Y-72946820D01*
X119998537Y-72836506D01*
X119919185Y-72739815D01*
X119822494Y-72660463D01*
X119712180Y-72601498D01*
X119592482Y-72565188D01*
X119468000Y-72552928D01*
X117768000Y-72552928D01*
X117643518Y-72565188D01*
X117523820Y-72601498D01*
X117413506Y-72660463D01*
X117316815Y-72739815D01*
X117237463Y-72836506D01*
X117178498Y-72946820D01*
X117142188Y-73066518D01*
X117129928Y-73191000D01*
X112928000Y-73191000D01*
X112928000Y-70256000D01*
X128491581Y-70256000D01*
X128524000Y-70259193D01*
X128556419Y-70256000D01*
X128653383Y-70246450D01*
X128777793Y-70208710D01*
X128892450Y-70147425D01*
X128992948Y-70064948D01*
X129075425Y-69964450D01*
X129136710Y-69849793D01*
X129174450Y-69725383D01*
X129187193Y-69596000D01*
X129184000Y-69563581D01*
X129184000Y-62128000D01*
X142539527Y-62128000D01*
X171044001Y-82131140D01*
G37*
X171044001Y-82131140D02*
X171044000Y-94844000D01*
X100228000Y-94844000D01*
X100228000Y-80416000D01*
X112235581Y-80416000D01*
X112268000Y-80419193D01*
X112300419Y-80416000D01*
X112397383Y-80406450D01*
X112521793Y-80368710D01*
X112636450Y-80307425D01*
X112736948Y-80224948D01*
X112819425Y-80124450D01*
X112880710Y-80009793D01*
X112918450Y-79885383D01*
X112931193Y-79756000D01*
X112928000Y-79723581D01*
X112928000Y-73191000D01*
X117129928Y-73191000D01*
X117129928Y-74891000D01*
X117142188Y-75015482D01*
X117178498Y-75135180D01*
X117237463Y-75245494D01*
X117316815Y-75342185D01*
X117413506Y-75421537D01*
X117523820Y-75480502D01*
X117643518Y-75516812D01*
X117768000Y-75529072D01*
X119468000Y-75529072D01*
X119592482Y-75516812D01*
X119712180Y-75480502D01*
X119822494Y-75421537D01*
X119919185Y-75342185D01*
X119998537Y-75245494D01*
X120057502Y-75135180D01*
X120093812Y-75015482D01*
X120106072Y-74891000D01*
X120106072Y-73191000D01*
X120093812Y-73066518D01*
X120057502Y-72946820D01*
X119998537Y-72836506D01*
X119919185Y-72739815D01*
X119822494Y-72660463D01*
X119712180Y-72601498D01*
X119592482Y-72565188D01*
X119468000Y-72552928D01*
X117768000Y-72552928D01*
X117643518Y-72565188D01*
X117523820Y-72601498D01*
X117413506Y-72660463D01*
X117316815Y-72739815D01*
X117237463Y-72836506D01*
X117178498Y-72946820D01*
X117142188Y-73066518D01*
X117129928Y-73191000D01*
X112928000Y-73191000D01*
X112928000Y-70256000D01*
X128491581Y-70256000D01*
X128524000Y-70259193D01*
X128556419Y-70256000D01*
X128653383Y-70246450D01*
X128777793Y-70208710D01*
X128892450Y-70147425D01*
X128992948Y-70064948D01*
X129075425Y-69964450D01*
X129136710Y-69849793D01*
X129174450Y-69725383D01*
X129187193Y-69596000D01*
X129184000Y-69563581D01*
X129184000Y-62128000D01*
X142539527Y-62128000D01*
X171044001Y-82131140D01*
M02*
