G04 #@! TF.GenerationSoftware,KiCad,Pcbnew,(5.1.5)-3*
G04 #@! TF.CreationDate,2020-02-26T16:54:21-08:00*
G04 #@! TF.ProjectId,Rev0.1,52657630-2e31-42e6-9b69-6361645f7063,rev?*
G04 #@! TF.SameCoordinates,Original*
G04 #@! TF.FileFunction,Copper,L2,Bot*
G04 #@! TF.FilePolarity,Positive*
%FSLAX46Y46*%
G04 Gerber Fmt 4.6, Leading zero omitted, Abs format (unit mm)*
G04 Created by KiCad (PCBNEW (5.1.5)-3) date 2020-02-26 16:54:21*
%MOMM*%
%LPD*%
G04 APERTURE LIST*
%ADD10R,5.080000X1.500000*%
%ADD11R,1.500000X5.080000*%
%ADD12R,1.700000X1.700000*%
%ADD13O,1.700000X1.700000*%
%ADD14C,0.800000*%
%ADD15C,0.254000*%
G04 APERTURE END LIST*
D10*
X102489000Y-82745000D03*
X102489000Y-91245000D03*
D11*
X140648000Y-64389000D03*
X132148000Y-64389000D03*
D10*
X176530000Y-80713000D03*
X176530000Y-89213000D03*
D12*
X118618000Y-74041000D03*
D13*
X121158000Y-74041000D03*
D14*
X129032000Y-78232000D03*
X152908000Y-75184000D03*
D15*
G36*
X185801000Y-98932347D02*
G01*
X86998281Y-98425667D01*
X87645323Y-73191000D01*
X117129928Y-73191000D01*
X117129928Y-74891000D01*
X117142188Y-75015482D01*
X117178498Y-75135180D01*
X117237463Y-75245494D01*
X117316815Y-75342185D01*
X117413506Y-75421537D01*
X117523820Y-75480502D01*
X117643518Y-75516812D01*
X117768000Y-75529072D01*
X119468000Y-75529072D01*
X119592482Y-75516812D01*
X119712180Y-75480502D01*
X119822494Y-75421537D01*
X119919185Y-75342185D01*
X119998537Y-75245494D01*
X120057502Y-75135180D01*
X120093812Y-75015482D01*
X120106072Y-74891000D01*
X120106072Y-73191000D01*
X120093812Y-73066518D01*
X120057502Y-72946820D01*
X119998537Y-72836506D01*
X119919185Y-72739815D01*
X119822494Y-72660463D01*
X119712180Y-72601498D01*
X119592482Y-72565188D01*
X119468000Y-72552928D01*
X117768000Y-72552928D01*
X117643518Y-72565188D01*
X117523820Y-72601498D01*
X117413506Y-72660463D01*
X117316815Y-72739815D01*
X117237463Y-72836506D01*
X117178498Y-72946820D01*
X117142188Y-73066518D01*
X117129928Y-73191000D01*
X87645323Y-73191000D01*
X88007785Y-59055000D01*
X185801000Y-59055000D01*
X185801000Y-98932347D01*
G37*
X185801000Y-98932347D02*
X86998281Y-98425667D01*
X87645323Y-73191000D01*
X117129928Y-73191000D01*
X117129928Y-74891000D01*
X117142188Y-75015482D01*
X117178498Y-75135180D01*
X117237463Y-75245494D01*
X117316815Y-75342185D01*
X117413506Y-75421537D01*
X117523820Y-75480502D01*
X117643518Y-75516812D01*
X117768000Y-75529072D01*
X119468000Y-75529072D01*
X119592482Y-75516812D01*
X119712180Y-75480502D01*
X119822494Y-75421537D01*
X119919185Y-75342185D01*
X119998537Y-75245494D01*
X120057502Y-75135180D01*
X120093812Y-75015482D01*
X120106072Y-74891000D01*
X120106072Y-73191000D01*
X120093812Y-73066518D01*
X120057502Y-72946820D01*
X119998537Y-72836506D01*
X119919185Y-72739815D01*
X119822494Y-72660463D01*
X119712180Y-72601498D01*
X119592482Y-72565188D01*
X119468000Y-72552928D01*
X117768000Y-72552928D01*
X117643518Y-72565188D01*
X117523820Y-72601498D01*
X117413506Y-72660463D01*
X117316815Y-72739815D01*
X117237463Y-72836506D01*
X117178498Y-72946820D01*
X117142188Y-73066518D01*
X117129928Y-73191000D01*
X87645323Y-73191000D01*
X88007785Y-59055000D01*
X185801000Y-59055000D01*
X185801000Y-98932347D01*
M02*
