G04 #@! TF.GenerationSoftware,KiCad,Pcbnew,(5.1.4-0)*
G04 #@! TF.CreationDate,2020-03-08T18:01:59-07:00*
G04 #@! TF.ProjectId,-5V_Rail,2d35565f-5261-4696-9c2e-6b696361645f,rev?*
G04 #@! TF.SameCoordinates,Original*
G04 #@! TF.FileFunction,Copper,L1,Top*
G04 #@! TF.FilePolarity,Positive*
%FSLAX46Y46*%
G04 Gerber Fmt 4.6, Leading zero omitted, Abs format (unit mm)*
G04 Created by KiCad (PCBNEW (5.1.4-0)) date 2020-03-08 18:01:59*
%MOMM*%
%LPD*%
G04 APERTURE LIST*
%ADD10C,0.100000*%
%ADD11C,1.150000*%
%ADD12R,2.600000X2.600000*%
%ADD13C,2.600000*%
%ADD14R,0.870000X2.790000*%
%ADD15R,0.890000X0.775000*%
%ADD16C,0.500000*%
%ADD17R,0.250000X0.500000*%
%ADD18R,1.650000X2.400000*%
%ADD19R,0.600000X0.240000*%
%ADD20R,1.100000X1.220000*%
%ADD21C,0.800000*%
%ADD22C,0.304800*%
%ADD23C,0.250000*%
%ADD24C,0.508000*%
%ADD25C,0.406400*%
%ADD26C,0.249936*%
%ADD27C,0.812800*%
%ADD28C,0.292100*%
%ADD29C,0.254000*%
G04 APERTURE END LIST*
D10*
G36*
X126458505Y-92009204D02*
G01*
X126482773Y-92012804D01*
X126506572Y-92018765D01*
X126529671Y-92027030D01*
X126551850Y-92037520D01*
X126572893Y-92050132D01*
X126592599Y-92064747D01*
X126610777Y-92081223D01*
X126627253Y-92099401D01*
X126641868Y-92119107D01*
X126654480Y-92140150D01*
X126664970Y-92162329D01*
X126673235Y-92185428D01*
X126679196Y-92209227D01*
X126682796Y-92233495D01*
X126684000Y-92257999D01*
X126684000Y-92908001D01*
X126682796Y-92932505D01*
X126679196Y-92956773D01*
X126673235Y-92980572D01*
X126664970Y-93003671D01*
X126654480Y-93025850D01*
X126641868Y-93046893D01*
X126627253Y-93066599D01*
X126610777Y-93084777D01*
X126592599Y-93101253D01*
X126572893Y-93115868D01*
X126551850Y-93128480D01*
X126529671Y-93138970D01*
X126506572Y-93147235D01*
X126482773Y-93153196D01*
X126458505Y-93156796D01*
X126434001Y-93158000D01*
X125533999Y-93158000D01*
X125509495Y-93156796D01*
X125485227Y-93153196D01*
X125461428Y-93147235D01*
X125438329Y-93138970D01*
X125416150Y-93128480D01*
X125395107Y-93115868D01*
X125375401Y-93101253D01*
X125357223Y-93084777D01*
X125340747Y-93066599D01*
X125326132Y-93046893D01*
X125313520Y-93025850D01*
X125303030Y-93003671D01*
X125294765Y-92980572D01*
X125288804Y-92956773D01*
X125285204Y-92932505D01*
X125284000Y-92908001D01*
X125284000Y-92257999D01*
X125285204Y-92233495D01*
X125288804Y-92209227D01*
X125294765Y-92185428D01*
X125303030Y-92162329D01*
X125313520Y-92140150D01*
X125326132Y-92119107D01*
X125340747Y-92099401D01*
X125357223Y-92081223D01*
X125375401Y-92064747D01*
X125395107Y-92050132D01*
X125416150Y-92037520D01*
X125438329Y-92027030D01*
X125461428Y-92018765D01*
X125485227Y-92012804D01*
X125509495Y-92009204D01*
X125533999Y-92008000D01*
X126434001Y-92008000D01*
X126458505Y-92009204D01*
X126458505Y-92009204D01*
G37*
D11*
X125984000Y-92583000D03*
D10*
G36*
X126458505Y-89959204D02*
G01*
X126482773Y-89962804D01*
X126506572Y-89968765D01*
X126529671Y-89977030D01*
X126551850Y-89987520D01*
X126572893Y-90000132D01*
X126592599Y-90014747D01*
X126610777Y-90031223D01*
X126627253Y-90049401D01*
X126641868Y-90069107D01*
X126654480Y-90090150D01*
X126664970Y-90112329D01*
X126673235Y-90135428D01*
X126679196Y-90159227D01*
X126682796Y-90183495D01*
X126684000Y-90207999D01*
X126684000Y-90858001D01*
X126682796Y-90882505D01*
X126679196Y-90906773D01*
X126673235Y-90930572D01*
X126664970Y-90953671D01*
X126654480Y-90975850D01*
X126641868Y-90996893D01*
X126627253Y-91016599D01*
X126610777Y-91034777D01*
X126592599Y-91051253D01*
X126572893Y-91065868D01*
X126551850Y-91078480D01*
X126529671Y-91088970D01*
X126506572Y-91097235D01*
X126482773Y-91103196D01*
X126458505Y-91106796D01*
X126434001Y-91108000D01*
X125533999Y-91108000D01*
X125509495Y-91106796D01*
X125485227Y-91103196D01*
X125461428Y-91097235D01*
X125438329Y-91088970D01*
X125416150Y-91078480D01*
X125395107Y-91065868D01*
X125375401Y-91051253D01*
X125357223Y-91034777D01*
X125340747Y-91016599D01*
X125326132Y-90996893D01*
X125313520Y-90975850D01*
X125303030Y-90953671D01*
X125294765Y-90930572D01*
X125288804Y-90906773D01*
X125285204Y-90882505D01*
X125284000Y-90858001D01*
X125284000Y-90207999D01*
X125285204Y-90183495D01*
X125288804Y-90159227D01*
X125294765Y-90135428D01*
X125303030Y-90112329D01*
X125313520Y-90090150D01*
X125326132Y-90069107D01*
X125340747Y-90049401D01*
X125357223Y-90031223D01*
X125375401Y-90014747D01*
X125395107Y-90000132D01*
X125416150Y-89987520D01*
X125438329Y-89977030D01*
X125461428Y-89968765D01*
X125485227Y-89962804D01*
X125509495Y-89959204D01*
X125533999Y-89958000D01*
X126434001Y-89958000D01*
X126458505Y-89959204D01*
X126458505Y-89959204D01*
G37*
D11*
X125984000Y-90533000D03*
D10*
G36*
X130522505Y-87056204D02*
G01*
X130546773Y-87059804D01*
X130570572Y-87065765D01*
X130593671Y-87074030D01*
X130615850Y-87084520D01*
X130636893Y-87097132D01*
X130656599Y-87111747D01*
X130674777Y-87128223D01*
X130691253Y-87146401D01*
X130705868Y-87166107D01*
X130718480Y-87187150D01*
X130728970Y-87209329D01*
X130737235Y-87232428D01*
X130743196Y-87256227D01*
X130746796Y-87280495D01*
X130748000Y-87304999D01*
X130748000Y-87955001D01*
X130746796Y-87979505D01*
X130743196Y-88003773D01*
X130737235Y-88027572D01*
X130728970Y-88050671D01*
X130718480Y-88072850D01*
X130705868Y-88093893D01*
X130691253Y-88113599D01*
X130674777Y-88131777D01*
X130656599Y-88148253D01*
X130636893Y-88162868D01*
X130615850Y-88175480D01*
X130593671Y-88185970D01*
X130570572Y-88194235D01*
X130546773Y-88200196D01*
X130522505Y-88203796D01*
X130498001Y-88205000D01*
X129597999Y-88205000D01*
X129573495Y-88203796D01*
X129549227Y-88200196D01*
X129525428Y-88194235D01*
X129502329Y-88185970D01*
X129480150Y-88175480D01*
X129459107Y-88162868D01*
X129439401Y-88148253D01*
X129421223Y-88131777D01*
X129404747Y-88113599D01*
X129390132Y-88093893D01*
X129377520Y-88072850D01*
X129367030Y-88050671D01*
X129358765Y-88027572D01*
X129352804Y-88003773D01*
X129349204Y-87979505D01*
X129348000Y-87955001D01*
X129348000Y-87304999D01*
X129349204Y-87280495D01*
X129352804Y-87256227D01*
X129358765Y-87232428D01*
X129367030Y-87209329D01*
X129377520Y-87187150D01*
X129390132Y-87166107D01*
X129404747Y-87146401D01*
X129421223Y-87128223D01*
X129439401Y-87111747D01*
X129459107Y-87097132D01*
X129480150Y-87084520D01*
X129502329Y-87074030D01*
X129525428Y-87065765D01*
X129549227Y-87059804D01*
X129573495Y-87056204D01*
X129597999Y-87055000D01*
X130498001Y-87055000D01*
X130522505Y-87056204D01*
X130522505Y-87056204D01*
G37*
D11*
X130048000Y-87630000D03*
D10*
G36*
X130522505Y-85006204D02*
G01*
X130546773Y-85009804D01*
X130570572Y-85015765D01*
X130593671Y-85024030D01*
X130615850Y-85034520D01*
X130636893Y-85047132D01*
X130656599Y-85061747D01*
X130674777Y-85078223D01*
X130691253Y-85096401D01*
X130705868Y-85116107D01*
X130718480Y-85137150D01*
X130728970Y-85159329D01*
X130737235Y-85182428D01*
X130743196Y-85206227D01*
X130746796Y-85230495D01*
X130748000Y-85254999D01*
X130748000Y-85905001D01*
X130746796Y-85929505D01*
X130743196Y-85953773D01*
X130737235Y-85977572D01*
X130728970Y-86000671D01*
X130718480Y-86022850D01*
X130705868Y-86043893D01*
X130691253Y-86063599D01*
X130674777Y-86081777D01*
X130656599Y-86098253D01*
X130636893Y-86112868D01*
X130615850Y-86125480D01*
X130593671Y-86135970D01*
X130570572Y-86144235D01*
X130546773Y-86150196D01*
X130522505Y-86153796D01*
X130498001Y-86155000D01*
X129597999Y-86155000D01*
X129573495Y-86153796D01*
X129549227Y-86150196D01*
X129525428Y-86144235D01*
X129502329Y-86135970D01*
X129480150Y-86125480D01*
X129459107Y-86112868D01*
X129439401Y-86098253D01*
X129421223Y-86081777D01*
X129404747Y-86063599D01*
X129390132Y-86043893D01*
X129377520Y-86022850D01*
X129367030Y-86000671D01*
X129358765Y-85977572D01*
X129352804Y-85953773D01*
X129349204Y-85929505D01*
X129348000Y-85905001D01*
X129348000Y-85254999D01*
X129349204Y-85230495D01*
X129352804Y-85206227D01*
X129358765Y-85182428D01*
X129367030Y-85159329D01*
X129377520Y-85137150D01*
X129390132Y-85116107D01*
X129404747Y-85096401D01*
X129421223Y-85078223D01*
X129439401Y-85061747D01*
X129459107Y-85047132D01*
X129480150Y-85034520D01*
X129502329Y-85024030D01*
X129525428Y-85015765D01*
X129549227Y-85009804D01*
X129573495Y-85006204D01*
X129597999Y-85005000D01*
X130498001Y-85005000D01*
X130522505Y-85006204D01*
X130522505Y-85006204D01*
G37*
D11*
X130048000Y-85580000D03*
D10*
G36*
X131921505Y-97091204D02*
G01*
X131945773Y-97094804D01*
X131969572Y-97100765D01*
X131992671Y-97109030D01*
X132014850Y-97119520D01*
X132035893Y-97132132D01*
X132055599Y-97146747D01*
X132073777Y-97163223D01*
X132090253Y-97181401D01*
X132104868Y-97201107D01*
X132117480Y-97222150D01*
X132127970Y-97244329D01*
X132136235Y-97267428D01*
X132142196Y-97291227D01*
X132145796Y-97315495D01*
X132147000Y-97339999D01*
X132147000Y-98240001D01*
X132145796Y-98264505D01*
X132142196Y-98288773D01*
X132136235Y-98312572D01*
X132127970Y-98335671D01*
X132117480Y-98357850D01*
X132104868Y-98378893D01*
X132090253Y-98398599D01*
X132073777Y-98416777D01*
X132055599Y-98433253D01*
X132035893Y-98447868D01*
X132014850Y-98460480D01*
X131992671Y-98470970D01*
X131969572Y-98479235D01*
X131945773Y-98485196D01*
X131921505Y-98488796D01*
X131897001Y-98490000D01*
X131246999Y-98490000D01*
X131222495Y-98488796D01*
X131198227Y-98485196D01*
X131174428Y-98479235D01*
X131151329Y-98470970D01*
X131129150Y-98460480D01*
X131108107Y-98447868D01*
X131088401Y-98433253D01*
X131070223Y-98416777D01*
X131053747Y-98398599D01*
X131039132Y-98378893D01*
X131026520Y-98357850D01*
X131016030Y-98335671D01*
X131007765Y-98312572D01*
X131001804Y-98288773D01*
X130998204Y-98264505D01*
X130997000Y-98240001D01*
X130997000Y-97339999D01*
X130998204Y-97315495D01*
X131001804Y-97291227D01*
X131007765Y-97267428D01*
X131016030Y-97244329D01*
X131026520Y-97222150D01*
X131039132Y-97201107D01*
X131053747Y-97181401D01*
X131070223Y-97163223D01*
X131088401Y-97146747D01*
X131108107Y-97132132D01*
X131129150Y-97119520D01*
X131151329Y-97109030D01*
X131174428Y-97100765D01*
X131198227Y-97094804D01*
X131222495Y-97091204D01*
X131246999Y-97090000D01*
X131897001Y-97090000D01*
X131921505Y-97091204D01*
X131921505Y-97091204D01*
G37*
D11*
X131572000Y-97790000D03*
D10*
G36*
X133971505Y-97091204D02*
G01*
X133995773Y-97094804D01*
X134019572Y-97100765D01*
X134042671Y-97109030D01*
X134064850Y-97119520D01*
X134085893Y-97132132D01*
X134105599Y-97146747D01*
X134123777Y-97163223D01*
X134140253Y-97181401D01*
X134154868Y-97201107D01*
X134167480Y-97222150D01*
X134177970Y-97244329D01*
X134186235Y-97267428D01*
X134192196Y-97291227D01*
X134195796Y-97315495D01*
X134197000Y-97339999D01*
X134197000Y-98240001D01*
X134195796Y-98264505D01*
X134192196Y-98288773D01*
X134186235Y-98312572D01*
X134177970Y-98335671D01*
X134167480Y-98357850D01*
X134154868Y-98378893D01*
X134140253Y-98398599D01*
X134123777Y-98416777D01*
X134105599Y-98433253D01*
X134085893Y-98447868D01*
X134064850Y-98460480D01*
X134042671Y-98470970D01*
X134019572Y-98479235D01*
X133995773Y-98485196D01*
X133971505Y-98488796D01*
X133947001Y-98490000D01*
X133296999Y-98490000D01*
X133272495Y-98488796D01*
X133248227Y-98485196D01*
X133224428Y-98479235D01*
X133201329Y-98470970D01*
X133179150Y-98460480D01*
X133158107Y-98447868D01*
X133138401Y-98433253D01*
X133120223Y-98416777D01*
X133103747Y-98398599D01*
X133089132Y-98378893D01*
X133076520Y-98357850D01*
X133066030Y-98335671D01*
X133057765Y-98312572D01*
X133051804Y-98288773D01*
X133048204Y-98264505D01*
X133047000Y-98240001D01*
X133047000Y-97339999D01*
X133048204Y-97315495D01*
X133051804Y-97291227D01*
X133057765Y-97267428D01*
X133066030Y-97244329D01*
X133076520Y-97222150D01*
X133089132Y-97201107D01*
X133103747Y-97181401D01*
X133120223Y-97163223D01*
X133138401Y-97146747D01*
X133158107Y-97132132D01*
X133179150Y-97119520D01*
X133201329Y-97109030D01*
X133224428Y-97100765D01*
X133248227Y-97094804D01*
X133272495Y-97091204D01*
X133296999Y-97090000D01*
X133947001Y-97090000D01*
X133971505Y-97091204D01*
X133971505Y-97091204D01*
G37*
D11*
X133622000Y-97790000D03*
D10*
G36*
X134189505Y-86169204D02*
G01*
X134213773Y-86172804D01*
X134237572Y-86178765D01*
X134260671Y-86187030D01*
X134282850Y-86197520D01*
X134303893Y-86210132D01*
X134323599Y-86224747D01*
X134341777Y-86241223D01*
X134358253Y-86259401D01*
X134372868Y-86279107D01*
X134385480Y-86300150D01*
X134395970Y-86322329D01*
X134404235Y-86345428D01*
X134410196Y-86369227D01*
X134413796Y-86393495D01*
X134415000Y-86417999D01*
X134415000Y-87318001D01*
X134413796Y-87342505D01*
X134410196Y-87366773D01*
X134404235Y-87390572D01*
X134395970Y-87413671D01*
X134385480Y-87435850D01*
X134372868Y-87456893D01*
X134358253Y-87476599D01*
X134341777Y-87494777D01*
X134323599Y-87511253D01*
X134303893Y-87525868D01*
X134282850Y-87538480D01*
X134260671Y-87548970D01*
X134237572Y-87557235D01*
X134213773Y-87563196D01*
X134189505Y-87566796D01*
X134165001Y-87568000D01*
X133514999Y-87568000D01*
X133490495Y-87566796D01*
X133466227Y-87563196D01*
X133442428Y-87557235D01*
X133419329Y-87548970D01*
X133397150Y-87538480D01*
X133376107Y-87525868D01*
X133356401Y-87511253D01*
X133338223Y-87494777D01*
X133321747Y-87476599D01*
X133307132Y-87456893D01*
X133294520Y-87435850D01*
X133284030Y-87413671D01*
X133275765Y-87390572D01*
X133269804Y-87366773D01*
X133266204Y-87342505D01*
X133265000Y-87318001D01*
X133265000Y-86417999D01*
X133266204Y-86393495D01*
X133269804Y-86369227D01*
X133275765Y-86345428D01*
X133284030Y-86322329D01*
X133294520Y-86300150D01*
X133307132Y-86279107D01*
X133321747Y-86259401D01*
X133338223Y-86241223D01*
X133356401Y-86224747D01*
X133376107Y-86210132D01*
X133397150Y-86197520D01*
X133419329Y-86187030D01*
X133442428Y-86178765D01*
X133466227Y-86172804D01*
X133490495Y-86169204D01*
X133514999Y-86168000D01*
X134165001Y-86168000D01*
X134189505Y-86169204D01*
X134189505Y-86169204D01*
G37*
D11*
X133840000Y-86868000D03*
D10*
G36*
X136239505Y-86169204D02*
G01*
X136263773Y-86172804D01*
X136287572Y-86178765D01*
X136310671Y-86187030D01*
X136332850Y-86197520D01*
X136353893Y-86210132D01*
X136373599Y-86224747D01*
X136391777Y-86241223D01*
X136408253Y-86259401D01*
X136422868Y-86279107D01*
X136435480Y-86300150D01*
X136445970Y-86322329D01*
X136454235Y-86345428D01*
X136460196Y-86369227D01*
X136463796Y-86393495D01*
X136465000Y-86417999D01*
X136465000Y-87318001D01*
X136463796Y-87342505D01*
X136460196Y-87366773D01*
X136454235Y-87390572D01*
X136445970Y-87413671D01*
X136435480Y-87435850D01*
X136422868Y-87456893D01*
X136408253Y-87476599D01*
X136391777Y-87494777D01*
X136373599Y-87511253D01*
X136353893Y-87525868D01*
X136332850Y-87538480D01*
X136310671Y-87548970D01*
X136287572Y-87557235D01*
X136263773Y-87563196D01*
X136239505Y-87566796D01*
X136215001Y-87568000D01*
X135564999Y-87568000D01*
X135540495Y-87566796D01*
X135516227Y-87563196D01*
X135492428Y-87557235D01*
X135469329Y-87548970D01*
X135447150Y-87538480D01*
X135426107Y-87525868D01*
X135406401Y-87511253D01*
X135388223Y-87494777D01*
X135371747Y-87476599D01*
X135357132Y-87456893D01*
X135344520Y-87435850D01*
X135334030Y-87413671D01*
X135325765Y-87390572D01*
X135319804Y-87366773D01*
X135316204Y-87342505D01*
X135315000Y-87318001D01*
X135315000Y-86417999D01*
X135316204Y-86393495D01*
X135319804Y-86369227D01*
X135325765Y-86345428D01*
X135334030Y-86322329D01*
X135344520Y-86300150D01*
X135357132Y-86279107D01*
X135371747Y-86259401D01*
X135388223Y-86241223D01*
X135406401Y-86224747D01*
X135426107Y-86210132D01*
X135447150Y-86197520D01*
X135469329Y-86187030D01*
X135492428Y-86178765D01*
X135516227Y-86172804D01*
X135540495Y-86169204D01*
X135564999Y-86168000D01*
X136215001Y-86168000D01*
X136239505Y-86169204D01*
X136239505Y-86169204D01*
G37*
D11*
X135890000Y-86868000D03*
D10*
G36*
X142317505Y-82410004D02*
G01*
X142341773Y-82413604D01*
X142365572Y-82419565D01*
X142388671Y-82427830D01*
X142410850Y-82438320D01*
X142431893Y-82450932D01*
X142451599Y-82465547D01*
X142469777Y-82482023D01*
X142486253Y-82500201D01*
X142500868Y-82519907D01*
X142513480Y-82540950D01*
X142523970Y-82563129D01*
X142532235Y-82586228D01*
X142538196Y-82610027D01*
X142541796Y-82634295D01*
X142543000Y-82658799D01*
X142543000Y-83558801D01*
X142541796Y-83583305D01*
X142538196Y-83607573D01*
X142532235Y-83631372D01*
X142523970Y-83654471D01*
X142513480Y-83676650D01*
X142500868Y-83697693D01*
X142486253Y-83717399D01*
X142469777Y-83735577D01*
X142451599Y-83752053D01*
X142431893Y-83766668D01*
X142410850Y-83779280D01*
X142388671Y-83789770D01*
X142365572Y-83798035D01*
X142341773Y-83803996D01*
X142317505Y-83807596D01*
X142293001Y-83808800D01*
X141642999Y-83808800D01*
X141618495Y-83807596D01*
X141594227Y-83803996D01*
X141570428Y-83798035D01*
X141547329Y-83789770D01*
X141525150Y-83779280D01*
X141504107Y-83766668D01*
X141484401Y-83752053D01*
X141466223Y-83735577D01*
X141449747Y-83717399D01*
X141435132Y-83697693D01*
X141422520Y-83676650D01*
X141412030Y-83654471D01*
X141403765Y-83631372D01*
X141397804Y-83607573D01*
X141394204Y-83583305D01*
X141393000Y-83558801D01*
X141393000Y-82658799D01*
X141394204Y-82634295D01*
X141397804Y-82610027D01*
X141403765Y-82586228D01*
X141412030Y-82563129D01*
X141422520Y-82540950D01*
X141435132Y-82519907D01*
X141449747Y-82500201D01*
X141466223Y-82482023D01*
X141484401Y-82465547D01*
X141504107Y-82450932D01*
X141525150Y-82438320D01*
X141547329Y-82427830D01*
X141570428Y-82419565D01*
X141594227Y-82413604D01*
X141618495Y-82410004D01*
X141642999Y-82408800D01*
X142293001Y-82408800D01*
X142317505Y-82410004D01*
X142317505Y-82410004D01*
G37*
D11*
X141968000Y-83108800D03*
D10*
G36*
X144367505Y-82410004D02*
G01*
X144391773Y-82413604D01*
X144415572Y-82419565D01*
X144438671Y-82427830D01*
X144460850Y-82438320D01*
X144481893Y-82450932D01*
X144501599Y-82465547D01*
X144519777Y-82482023D01*
X144536253Y-82500201D01*
X144550868Y-82519907D01*
X144563480Y-82540950D01*
X144573970Y-82563129D01*
X144582235Y-82586228D01*
X144588196Y-82610027D01*
X144591796Y-82634295D01*
X144593000Y-82658799D01*
X144593000Y-83558801D01*
X144591796Y-83583305D01*
X144588196Y-83607573D01*
X144582235Y-83631372D01*
X144573970Y-83654471D01*
X144563480Y-83676650D01*
X144550868Y-83697693D01*
X144536253Y-83717399D01*
X144519777Y-83735577D01*
X144501599Y-83752053D01*
X144481893Y-83766668D01*
X144460850Y-83779280D01*
X144438671Y-83789770D01*
X144415572Y-83798035D01*
X144391773Y-83803996D01*
X144367505Y-83807596D01*
X144343001Y-83808800D01*
X143692999Y-83808800D01*
X143668495Y-83807596D01*
X143644227Y-83803996D01*
X143620428Y-83798035D01*
X143597329Y-83789770D01*
X143575150Y-83779280D01*
X143554107Y-83766668D01*
X143534401Y-83752053D01*
X143516223Y-83735577D01*
X143499747Y-83717399D01*
X143485132Y-83697693D01*
X143472520Y-83676650D01*
X143462030Y-83654471D01*
X143453765Y-83631372D01*
X143447804Y-83607573D01*
X143444204Y-83583305D01*
X143443000Y-83558801D01*
X143443000Y-82658799D01*
X143444204Y-82634295D01*
X143447804Y-82610027D01*
X143453765Y-82586228D01*
X143462030Y-82563129D01*
X143472520Y-82540950D01*
X143485132Y-82519907D01*
X143499747Y-82500201D01*
X143516223Y-82482023D01*
X143534401Y-82465547D01*
X143554107Y-82450932D01*
X143575150Y-82438320D01*
X143597329Y-82427830D01*
X143620428Y-82419565D01*
X143644227Y-82413604D01*
X143668495Y-82410004D01*
X143692999Y-82408800D01*
X144343001Y-82408800D01*
X144367505Y-82410004D01*
X144367505Y-82410004D01*
G37*
D11*
X144018000Y-83108800D03*
D10*
G36*
X140174505Y-91610204D02*
G01*
X140198773Y-91613804D01*
X140222572Y-91619765D01*
X140245671Y-91628030D01*
X140267850Y-91638520D01*
X140288893Y-91651132D01*
X140308599Y-91665747D01*
X140326777Y-91682223D01*
X140343253Y-91700401D01*
X140357868Y-91720107D01*
X140370480Y-91741150D01*
X140380970Y-91763329D01*
X140389235Y-91786428D01*
X140395196Y-91810227D01*
X140398796Y-91834495D01*
X140400000Y-91858999D01*
X140400000Y-92509001D01*
X140398796Y-92533505D01*
X140395196Y-92557773D01*
X140389235Y-92581572D01*
X140380970Y-92604671D01*
X140370480Y-92626850D01*
X140357868Y-92647893D01*
X140343253Y-92667599D01*
X140326777Y-92685777D01*
X140308599Y-92702253D01*
X140288893Y-92716868D01*
X140267850Y-92729480D01*
X140245671Y-92739970D01*
X140222572Y-92748235D01*
X140198773Y-92754196D01*
X140174505Y-92757796D01*
X140150001Y-92759000D01*
X139249999Y-92759000D01*
X139225495Y-92757796D01*
X139201227Y-92754196D01*
X139177428Y-92748235D01*
X139154329Y-92739970D01*
X139132150Y-92729480D01*
X139111107Y-92716868D01*
X139091401Y-92702253D01*
X139073223Y-92685777D01*
X139056747Y-92667599D01*
X139042132Y-92647893D01*
X139029520Y-92626850D01*
X139019030Y-92604671D01*
X139010765Y-92581572D01*
X139004804Y-92557773D01*
X139001204Y-92533505D01*
X139000000Y-92509001D01*
X139000000Y-91858999D01*
X139001204Y-91834495D01*
X139004804Y-91810227D01*
X139010765Y-91786428D01*
X139019030Y-91763329D01*
X139029520Y-91741150D01*
X139042132Y-91720107D01*
X139056747Y-91700401D01*
X139073223Y-91682223D01*
X139091401Y-91665747D01*
X139111107Y-91651132D01*
X139132150Y-91638520D01*
X139154329Y-91628030D01*
X139177428Y-91619765D01*
X139201227Y-91613804D01*
X139225495Y-91610204D01*
X139249999Y-91609000D01*
X140150001Y-91609000D01*
X140174505Y-91610204D01*
X140174505Y-91610204D01*
G37*
D11*
X139700000Y-92184000D03*
D10*
G36*
X140174505Y-93660204D02*
G01*
X140198773Y-93663804D01*
X140222572Y-93669765D01*
X140245671Y-93678030D01*
X140267850Y-93688520D01*
X140288893Y-93701132D01*
X140308599Y-93715747D01*
X140326777Y-93732223D01*
X140343253Y-93750401D01*
X140357868Y-93770107D01*
X140370480Y-93791150D01*
X140380970Y-93813329D01*
X140389235Y-93836428D01*
X140395196Y-93860227D01*
X140398796Y-93884495D01*
X140400000Y-93908999D01*
X140400000Y-94559001D01*
X140398796Y-94583505D01*
X140395196Y-94607773D01*
X140389235Y-94631572D01*
X140380970Y-94654671D01*
X140370480Y-94676850D01*
X140357868Y-94697893D01*
X140343253Y-94717599D01*
X140326777Y-94735777D01*
X140308599Y-94752253D01*
X140288893Y-94766868D01*
X140267850Y-94779480D01*
X140245671Y-94789970D01*
X140222572Y-94798235D01*
X140198773Y-94804196D01*
X140174505Y-94807796D01*
X140150001Y-94809000D01*
X139249999Y-94809000D01*
X139225495Y-94807796D01*
X139201227Y-94804196D01*
X139177428Y-94798235D01*
X139154329Y-94789970D01*
X139132150Y-94779480D01*
X139111107Y-94766868D01*
X139091401Y-94752253D01*
X139073223Y-94735777D01*
X139056747Y-94717599D01*
X139042132Y-94697893D01*
X139029520Y-94676850D01*
X139019030Y-94654671D01*
X139010765Y-94631572D01*
X139004804Y-94607773D01*
X139001204Y-94583505D01*
X139000000Y-94559001D01*
X139000000Y-93908999D01*
X139001204Y-93884495D01*
X139004804Y-93860227D01*
X139010765Y-93836428D01*
X139019030Y-93813329D01*
X139029520Y-93791150D01*
X139042132Y-93770107D01*
X139056747Y-93750401D01*
X139073223Y-93732223D01*
X139091401Y-93715747D01*
X139111107Y-93701132D01*
X139132150Y-93688520D01*
X139154329Y-93678030D01*
X139177428Y-93669765D01*
X139201227Y-93663804D01*
X139225495Y-93660204D01*
X139249999Y-93659000D01*
X140150001Y-93659000D01*
X140174505Y-93660204D01*
X140174505Y-93660204D01*
G37*
D11*
X139700000Y-94234000D03*
D10*
G36*
X149953505Y-89469204D02*
G01*
X149977773Y-89472804D01*
X150001572Y-89478765D01*
X150024671Y-89487030D01*
X150046850Y-89497520D01*
X150067893Y-89510132D01*
X150087599Y-89524747D01*
X150105777Y-89541223D01*
X150122253Y-89559401D01*
X150136868Y-89579107D01*
X150149480Y-89600150D01*
X150159970Y-89622329D01*
X150168235Y-89645428D01*
X150174196Y-89669227D01*
X150177796Y-89693495D01*
X150179000Y-89717999D01*
X150179000Y-90368001D01*
X150177796Y-90392505D01*
X150174196Y-90416773D01*
X150168235Y-90440572D01*
X150159970Y-90463671D01*
X150149480Y-90485850D01*
X150136868Y-90506893D01*
X150122253Y-90526599D01*
X150105777Y-90544777D01*
X150087599Y-90561253D01*
X150067893Y-90575868D01*
X150046850Y-90588480D01*
X150024671Y-90598970D01*
X150001572Y-90607235D01*
X149977773Y-90613196D01*
X149953505Y-90616796D01*
X149929001Y-90618000D01*
X149028999Y-90618000D01*
X149004495Y-90616796D01*
X148980227Y-90613196D01*
X148956428Y-90607235D01*
X148933329Y-90598970D01*
X148911150Y-90588480D01*
X148890107Y-90575868D01*
X148870401Y-90561253D01*
X148852223Y-90544777D01*
X148835747Y-90526599D01*
X148821132Y-90506893D01*
X148808520Y-90485850D01*
X148798030Y-90463671D01*
X148789765Y-90440572D01*
X148783804Y-90416773D01*
X148780204Y-90392505D01*
X148779000Y-90368001D01*
X148779000Y-89717999D01*
X148780204Y-89693495D01*
X148783804Y-89669227D01*
X148789765Y-89645428D01*
X148798030Y-89622329D01*
X148808520Y-89600150D01*
X148821132Y-89579107D01*
X148835747Y-89559401D01*
X148852223Y-89541223D01*
X148870401Y-89524747D01*
X148890107Y-89510132D01*
X148911150Y-89497520D01*
X148933329Y-89487030D01*
X148956428Y-89478765D01*
X148980227Y-89472804D01*
X149004495Y-89469204D01*
X149028999Y-89468000D01*
X149929001Y-89468000D01*
X149953505Y-89469204D01*
X149953505Y-89469204D01*
G37*
D11*
X149479000Y-90043000D03*
D10*
G36*
X149953505Y-91519204D02*
G01*
X149977773Y-91522804D01*
X150001572Y-91528765D01*
X150024671Y-91537030D01*
X150046850Y-91547520D01*
X150067893Y-91560132D01*
X150087599Y-91574747D01*
X150105777Y-91591223D01*
X150122253Y-91609401D01*
X150136868Y-91629107D01*
X150149480Y-91650150D01*
X150159970Y-91672329D01*
X150168235Y-91695428D01*
X150174196Y-91719227D01*
X150177796Y-91743495D01*
X150179000Y-91767999D01*
X150179000Y-92418001D01*
X150177796Y-92442505D01*
X150174196Y-92466773D01*
X150168235Y-92490572D01*
X150159970Y-92513671D01*
X150149480Y-92535850D01*
X150136868Y-92556893D01*
X150122253Y-92576599D01*
X150105777Y-92594777D01*
X150087599Y-92611253D01*
X150067893Y-92625868D01*
X150046850Y-92638480D01*
X150024671Y-92648970D01*
X150001572Y-92657235D01*
X149977773Y-92663196D01*
X149953505Y-92666796D01*
X149929001Y-92668000D01*
X149028999Y-92668000D01*
X149004495Y-92666796D01*
X148980227Y-92663196D01*
X148956428Y-92657235D01*
X148933329Y-92648970D01*
X148911150Y-92638480D01*
X148890107Y-92625868D01*
X148870401Y-92611253D01*
X148852223Y-92594777D01*
X148835747Y-92576599D01*
X148821132Y-92556893D01*
X148808520Y-92535850D01*
X148798030Y-92513671D01*
X148789765Y-92490572D01*
X148783804Y-92466773D01*
X148780204Y-92442505D01*
X148779000Y-92418001D01*
X148779000Y-91767999D01*
X148780204Y-91743495D01*
X148783804Y-91719227D01*
X148789765Y-91695428D01*
X148798030Y-91672329D01*
X148808520Y-91650150D01*
X148821132Y-91629107D01*
X148835747Y-91609401D01*
X148852223Y-91591223D01*
X148870401Y-91574747D01*
X148890107Y-91560132D01*
X148911150Y-91547520D01*
X148933329Y-91537030D01*
X148956428Y-91528765D01*
X148980227Y-91522804D01*
X149004495Y-91519204D01*
X149028999Y-91518000D01*
X149929001Y-91518000D01*
X149953505Y-91519204D01*
X149953505Y-91519204D01*
G37*
D11*
X149479000Y-92093000D03*
D10*
G36*
X153763505Y-91519204D02*
G01*
X153787773Y-91522804D01*
X153811572Y-91528765D01*
X153834671Y-91537030D01*
X153856850Y-91547520D01*
X153877893Y-91560132D01*
X153897599Y-91574747D01*
X153915777Y-91591223D01*
X153932253Y-91609401D01*
X153946868Y-91629107D01*
X153959480Y-91650150D01*
X153969970Y-91672329D01*
X153978235Y-91695428D01*
X153984196Y-91719227D01*
X153987796Y-91743495D01*
X153989000Y-91767999D01*
X153989000Y-92418001D01*
X153987796Y-92442505D01*
X153984196Y-92466773D01*
X153978235Y-92490572D01*
X153969970Y-92513671D01*
X153959480Y-92535850D01*
X153946868Y-92556893D01*
X153932253Y-92576599D01*
X153915777Y-92594777D01*
X153897599Y-92611253D01*
X153877893Y-92625868D01*
X153856850Y-92638480D01*
X153834671Y-92648970D01*
X153811572Y-92657235D01*
X153787773Y-92663196D01*
X153763505Y-92666796D01*
X153739001Y-92668000D01*
X152838999Y-92668000D01*
X152814495Y-92666796D01*
X152790227Y-92663196D01*
X152766428Y-92657235D01*
X152743329Y-92648970D01*
X152721150Y-92638480D01*
X152700107Y-92625868D01*
X152680401Y-92611253D01*
X152662223Y-92594777D01*
X152645747Y-92576599D01*
X152631132Y-92556893D01*
X152618520Y-92535850D01*
X152608030Y-92513671D01*
X152599765Y-92490572D01*
X152593804Y-92466773D01*
X152590204Y-92442505D01*
X152589000Y-92418001D01*
X152589000Y-91767999D01*
X152590204Y-91743495D01*
X152593804Y-91719227D01*
X152599765Y-91695428D01*
X152608030Y-91672329D01*
X152618520Y-91650150D01*
X152631132Y-91629107D01*
X152645747Y-91609401D01*
X152662223Y-91591223D01*
X152680401Y-91574747D01*
X152700107Y-91560132D01*
X152721150Y-91547520D01*
X152743329Y-91537030D01*
X152766428Y-91528765D01*
X152790227Y-91522804D01*
X152814495Y-91519204D01*
X152838999Y-91518000D01*
X153739001Y-91518000D01*
X153763505Y-91519204D01*
X153763505Y-91519204D01*
G37*
D11*
X153289000Y-92093000D03*
D10*
G36*
X153763505Y-89469204D02*
G01*
X153787773Y-89472804D01*
X153811572Y-89478765D01*
X153834671Y-89487030D01*
X153856850Y-89497520D01*
X153877893Y-89510132D01*
X153897599Y-89524747D01*
X153915777Y-89541223D01*
X153932253Y-89559401D01*
X153946868Y-89579107D01*
X153959480Y-89600150D01*
X153969970Y-89622329D01*
X153978235Y-89645428D01*
X153984196Y-89669227D01*
X153987796Y-89693495D01*
X153989000Y-89717999D01*
X153989000Y-90368001D01*
X153987796Y-90392505D01*
X153984196Y-90416773D01*
X153978235Y-90440572D01*
X153969970Y-90463671D01*
X153959480Y-90485850D01*
X153946868Y-90506893D01*
X153932253Y-90526599D01*
X153915777Y-90544777D01*
X153897599Y-90561253D01*
X153877893Y-90575868D01*
X153856850Y-90588480D01*
X153834671Y-90598970D01*
X153811572Y-90607235D01*
X153787773Y-90613196D01*
X153763505Y-90616796D01*
X153739001Y-90618000D01*
X152838999Y-90618000D01*
X152814495Y-90616796D01*
X152790227Y-90613196D01*
X152766428Y-90607235D01*
X152743329Y-90598970D01*
X152721150Y-90588480D01*
X152700107Y-90575868D01*
X152680401Y-90561253D01*
X152662223Y-90544777D01*
X152645747Y-90526599D01*
X152631132Y-90506893D01*
X152618520Y-90485850D01*
X152608030Y-90463671D01*
X152599765Y-90440572D01*
X152593804Y-90416773D01*
X152590204Y-90392505D01*
X152589000Y-90368001D01*
X152589000Y-89717999D01*
X152590204Y-89693495D01*
X152593804Y-89669227D01*
X152599765Y-89645428D01*
X152608030Y-89622329D01*
X152618520Y-89600150D01*
X152631132Y-89579107D01*
X152645747Y-89559401D01*
X152662223Y-89541223D01*
X152680401Y-89524747D01*
X152700107Y-89510132D01*
X152721150Y-89497520D01*
X152743329Y-89487030D01*
X152766428Y-89478765D01*
X152790227Y-89472804D01*
X152814495Y-89469204D01*
X152838999Y-89468000D01*
X153739001Y-89468000D01*
X153763505Y-89469204D01*
X153763505Y-89469204D01*
G37*
D11*
X153289000Y-90043000D03*
D10*
G36*
X157573505Y-89469204D02*
G01*
X157597773Y-89472804D01*
X157621572Y-89478765D01*
X157644671Y-89487030D01*
X157666850Y-89497520D01*
X157687893Y-89510132D01*
X157707599Y-89524747D01*
X157725777Y-89541223D01*
X157742253Y-89559401D01*
X157756868Y-89579107D01*
X157769480Y-89600150D01*
X157779970Y-89622329D01*
X157788235Y-89645428D01*
X157794196Y-89669227D01*
X157797796Y-89693495D01*
X157799000Y-89717999D01*
X157799000Y-90368001D01*
X157797796Y-90392505D01*
X157794196Y-90416773D01*
X157788235Y-90440572D01*
X157779970Y-90463671D01*
X157769480Y-90485850D01*
X157756868Y-90506893D01*
X157742253Y-90526599D01*
X157725777Y-90544777D01*
X157707599Y-90561253D01*
X157687893Y-90575868D01*
X157666850Y-90588480D01*
X157644671Y-90598970D01*
X157621572Y-90607235D01*
X157597773Y-90613196D01*
X157573505Y-90616796D01*
X157549001Y-90618000D01*
X156648999Y-90618000D01*
X156624495Y-90616796D01*
X156600227Y-90613196D01*
X156576428Y-90607235D01*
X156553329Y-90598970D01*
X156531150Y-90588480D01*
X156510107Y-90575868D01*
X156490401Y-90561253D01*
X156472223Y-90544777D01*
X156455747Y-90526599D01*
X156441132Y-90506893D01*
X156428520Y-90485850D01*
X156418030Y-90463671D01*
X156409765Y-90440572D01*
X156403804Y-90416773D01*
X156400204Y-90392505D01*
X156399000Y-90368001D01*
X156399000Y-89717999D01*
X156400204Y-89693495D01*
X156403804Y-89669227D01*
X156409765Y-89645428D01*
X156418030Y-89622329D01*
X156428520Y-89600150D01*
X156441132Y-89579107D01*
X156455747Y-89559401D01*
X156472223Y-89541223D01*
X156490401Y-89524747D01*
X156510107Y-89510132D01*
X156531150Y-89497520D01*
X156553329Y-89487030D01*
X156576428Y-89478765D01*
X156600227Y-89472804D01*
X156624495Y-89469204D01*
X156648999Y-89468000D01*
X157549001Y-89468000D01*
X157573505Y-89469204D01*
X157573505Y-89469204D01*
G37*
D11*
X157099000Y-90043000D03*
D10*
G36*
X157573505Y-91519204D02*
G01*
X157597773Y-91522804D01*
X157621572Y-91528765D01*
X157644671Y-91537030D01*
X157666850Y-91547520D01*
X157687893Y-91560132D01*
X157707599Y-91574747D01*
X157725777Y-91591223D01*
X157742253Y-91609401D01*
X157756868Y-91629107D01*
X157769480Y-91650150D01*
X157779970Y-91672329D01*
X157788235Y-91695428D01*
X157794196Y-91719227D01*
X157797796Y-91743495D01*
X157799000Y-91767999D01*
X157799000Y-92418001D01*
X157797796Y-92442505D01*
X157794196Y-92466773D01*
X157788235Y-92490572D01*
X157779970Y-92513671D01*
X157769480Y-92535850D01*
X157756868Y-92556893D01*
X157742253Y-92576599D01*
X157725777Y-92594777D01*
X157707599Y-92611253D01*
X157687893Y-92625868D01*
X157666850Y-92638480D01*
X157644671Y-92648970D01*
X157621572Y-92657235D01*
X157597773Y-92663196D01*
X157573505Y-92666796D01*
X157549001Y-92668000D01*
X156648999Y-92668000D01*
X156624495Y-92666796D01*
X156600227Y-92663196D01*
X156576428Y-92657235D01*
X156553329Y-92648970D01*
X156531150Y-92638480D01*
X156510107Y-92625868D01*
X156490401Y-92611253D01*
X156472223Y-92594777D01*
X156455747Y-92576599D01*
X156441132Y-92556893D01*
X156428520Y-92535850D01*
X156418030Y-92513671D01*
X156409765Y-92490572D01*
X156403804Y-92466773D01*
X156400204Y-92442505D01*
X156399000Y-92418001D01*
X156399000Y-91767999D01*
X156400204Y-91743495D01*
X156403804Y-91719227D01*
X156409765Y-91695428D01*
X156418030Y-91672329D01*
X156428520Y-91650150D01*
X156441132Y-91629107D01*
X156455747Y-91609401D01*
X156472223Y-91591223D01*
X156490401Y-91574747D01*
X156510107Y-91560132D01*
X156531150Y-91547520D01*
X156553329Y-91537030D01*
X156576428Y-91528765D01*
X156600227Y-91522804D01*
X156624495Y-91519204D01*
X156648999Y-91518000D01*
X157549001Y-91518000D01*
X157573505Y-91519204D01*
X157573505Y-91519204D01*
G37*
D11*
X157099000Y-92093000D03*
D10*
G36*
X161383505Y-91519204D02*
G01*
X161407773Y-91522804D01*
X161431572Y-91528765D01*
X161454671Y-91537030D01*
X161476850Y-91547520D01*
X161497893Y-91560132D01*
X161517599Y-91574747D01*
X161535777Y-91591223D01*
X161552253Y-91609401D01*
X161566868Y-91629107D01*
X161579480Y-91650150D01*
X161589970Y-91672329D01*
X161598235Y-91695428D01*
X161604196Y-91719227D01*
X161607796Y-91743495D01*
X161609000Y-91767999D01*
X161609000Y-92418001D01*
X161607796Y-92442505D01*
X161604196Y-92466773D01*
X161598235Y-92490572D01*
X161589970Y-92513671D01*
X161579480Y-92535850D01*
X161566868Y-92556893D01*
X161552253Y-92576599D01*
X161535777Y-92594777D01*
X161517599Y-92611253D01*
X161497893Y-92625868D01*
X161476850Y-92638480D01*
X161454671Y-92648970D01*
X161431572Y-92657235D01*
X161407773Y-92663196D01*
X161383505Y-92666796D01*
X161359001Y-92668000D01*
X160458999Y-92668000D01*
X160434495Y-92666796D01*
X160410227Y-92663196D01*
X160386428Y-92657235D01*
X160363329Y-92648970D01*
X160341150Y-92638480D01*
X160320107Y-92625868D01*
X160300401Y-92611253D01*
X160282223Y-92594777D01*
X160265747Y-92576599D01*
X160251132Y-92556893D01*
X160238520Y-92535850D01*
X160228030Y-92513671D01*
X160219765Y-92490572D01*
X160213804Y-92466773D01*
X160210204Y-92442505D01*
X160209000Y-92418001D01*
X160209000Y-91767999D01*
X160210204Y-91743495D01*
X160213804Y-91719227D01*
X160219765Y-91695428D01*
X160228030Y-91672329D01*
X160238520Y-91650150D01*
X160251132Y-91629107D01*
X160265747Y-91609401D01*
X160282223Y-91591223D01*
X160300401Y-91574747D01*
X160320107Y-91560132D01*
X160341150Y-91547520D01*
X160363329Y-91537030D01*
X160386428Y-91528765D01*
X160410227Y-91522804D01*
X160434495Y-91519204D01*
X160458999Y-91518000D01*
X161359001Y-91518000D01*
X161383505Y-91519204D01*
X161383505Y-91519204D01*
G37*
D11*
X160909000Y-92093000D03*
D10*
G36*
X161383505Y-89469204D02*
G01*
X161407773Y-89472804D01*
X161431572Y-89478765D01*
X161454671Y-89487030D01*
X161476850Y-89497520D01*
X161497893Y-89510132D01*
X161517599Y-89524747D01*
X161535777Y-89541223D01*
X161552253Y-89559401D01*
X161566868Y-89579107D01*
X161579480Y-89600150D01*
X161589970Y-89622329D01*
X161598235Y-89645428D01*
X161604196Y-89669227D01*
X161607796Y-89693495D01*
X161609000Y-89717999D01*
X161609000Y-90368001D01*
X161607796Y-90392505D01*
X161604196Y-90416773D01*
X161598235Y-90440572D01*
X161589970Y-90463671D01*
X161579480Y-90485850D01*
X161566868Y-90506893D01*
X161552253Y-90526599D01*
X161535777Y-90544777D01*
X161517599Y-90561253D01*
X161497893Y-90575868D01*
X161476850Y-90588480D01*
X161454671Y-90598970D01*
X161431572Y-90607235D01*
X161407773Y-90613196D01*
X161383505Y-90616796D01*
X161359001Y-90618000D01*
X160458999Y-90618000D01*
X160434495Y-90616796D01*
X160410227Y-90613196D01*
X160386428Y-90607235D01*
X160363329Y-90598970D01*
X160341150Y-90588480D01*
X160320107Y-90575868D01*
X160300401Y-90561253D01*
X160282223Y-90544777D01*
X160265747Y-90526599D01*
X160251132Y-90506893D01*
X160238520Y-90485850D01*
X160228030Y-90463671D01*
X160219765Y-90440572D01*
X160213804Y-90416773D01*
X160210204Y-90392505D01*
X160209000Y-90368001D01*
X160209000Y-89717999D01*
X160210204Y-89693495D01*
X160213804Y-89669227D01*
X160219765Y-89645428D01*
X160228030Y-89622329D01*
X160238520Y-89600150D01*
X160251132Y-89579107D01*
X160265747Y-89559401D01*
X160282223Y-89541223D01*
X160300401Y-89524747D01*
X160320107Y-89510132D01*
X160341150Y-89497520D01*
X160363329Y-89487030D01*
X160386428Y-89478765D01*
X160410227Y-89472804D01*
X160434495Y-89469204D01*
X160458999Y-89468000D01*
X161359001Y-89468000D01*
X161383505Y-89469204D01*
X161383505Y-89469204D01*
G37*
D11*
X160909000Y-90043000D03*
D12*
X111633000Y-96694000D03*
D13*
X111633000Y-91694000D03*
D12*
X171958000Y-93218000D03*
D13*
X171958000Y-98218000D03*
D14*
X137414000Y-101346000D03*
D15*
X137984000Y-99788500D03*
D16*
X137960000Y-100298500D03*
D10*
G36*
X138429115Y-100175733D02*
G01*
X137848732Y-100770474D01*
X137490885Y-100421267D01*
X138071268Y-99826526D01*
X138429115Y-100175733D01*
X138429115Y-100175733D01*
G37*
D16*
X137435500Y-99853000D03*
D10*
G36*
X137892105Y-99754804D02*
G01*
X137329350Y-100307821D01*
X136978895Y-99951196D01*
X137541650Y-99398179D01*
X137892105Y-99754804D01*
X137892105Y-99754804D01*
G37*
D16*
X137435500Y-102839000D03*
D10*
G36*
X137329350Y-102384179D02*
G01*
X137892105Y-102937196D01*
X137541650Y-103293821D01*
X136978895Y-102740804D01*
X137329350Y-102384179D01*
X137329350Y-102384179D01*
G37*
D15*
X137984000Y-102903500D03*
D16*
X137960000Y-102393500D03*
D10*
G36*
X137848732Y-101921526D02*
G01*
X138429115Y-102516267D01*
X138071268Y-102865474D01*
X137490885Y-102270733D01*
X137848732Y-101921526D01*
X137848732Y-101921526D01*
G37*
D14*
X140944000Y-101346000D03*
D15*
X140374000Y-99788500D03*
D16*
X140398000Y-100298500D03*
D10*
G36*
X140286732Y-99826526D02*
G01*
X140867115Y-100421267D01*
X140509268Y-100770474D01*
X139928885Y-100175733D01*
X140286732Y-99826526D01*
X140286732Y-99826526D01*
G37*
D16*
X140922500Y-99853000D03*
D10*
G36*
X140816350Y-99398179D02*
G01*
X141379105Y-99951196D01*
X141028650Y-100307821D01*
X140465895Y-99754804D01*
X140816350Y-99398179D01*
X140816350Y-99398179D01*
G37*
D15*
X140374000Y-102903500D03*
D16*
X140398000Y-102393500D03*
D10*
G36*
X140867115Y-102270733D02*
G01*
X140286732Y-102865474D01*
X139928885Y-102516267D01*
X140509268Y-101921526D01*
X140867115Y-102270733D01*
X140867115Y-102270733D01*
G37*
D16*
X140922500Y-102839000D03*
D10*
G36*
X141379105Y-102740804D02*
G01*
X140816350Y-103293821D01*
X140465895Y-102937196D01*
X141028650Y-102384179D01*
X141379105Y-102740804D01*
X141379105Y-102740804D01*
G37*
G36*
X126333505Y-97091204D02*
G01*
X126357773Y-97094804D01*
X126381572Y-97100765D01*
X126404671Y-97109030D01*
X126426850Y-97119520D01*
X126447893Y-97132132D01*
X126467599Y-97146747D01*
X126485777Y-97163223D01*
X126502253Y-97181401D01*
X126516868Y-97201107D01*
X126529480Y-97222150D01*
X126539970Y-97244329D01*
X126548235Y-97267428D01*
X126554196Y-97291227D01*
X126557796Y-97315495D01*
X126559000Y-97339999D01*
X126559000Y-98240001D01*
X126557796Y-98264505D01*
X126554196Y-98288773D01*
X126548235Y-98312572D01*
X126539970Y-98335671D01*
X126529480Y-98357850D01*
X126516868Y-98378893D01*
X126502253Y-98398599D01*
X126485777Y-98416777D01*
X126467599Y-98433253D01*
X126447893Y-98447868D01*
X126426850Y-98460480D01*
X126404671Y-98470970D01*
X126381572Y-98479235D01*
X126357773Y-98485196D01*
X126333505Y-98488796D01*
X126309001Y-98490000D01*
X125658999Y-98490000D01*
X125634495Y-98488796D01*
X125610227Y-98485196D01*
X125586428Y-98479235D01*
X125563329Y-98470970D01*
X125541150Y-98460480D01*
X125520107Y-98447868D01*
X125500401Y-98433253D01*
X125482223Y-98416777D01*
X125465747Y-98398599D01*
X125451132Y-98378893D01*
X125438520Y-98357850D01*
X125428030Y-98335671D01*
X125419765Y-98312572D01*
X125413804Y-98288773D01*
X125410204Y-98264505D01*
X125409000Y-98240001D01*
X125409000Y-97339999D01*
X125410204Y-97315495D01*
X125413804Y-97291227D01*
X125419765Y-97267428D01*
X125428030Y-97244329D01*
X125438520Y-97222150D01*
X125451132Y-97201107D01*
X125465747Y-97181401D01*
X125482223Y-97163223D01*
X125500401Y-97146747D01*
X125520107Y-97132132D01*
X125541150Y-97119520D01*
X125563329Y-97109030D01*
X125586428Y-97100765D01*
X125610227Y-97094804D01*
X125634495Y-97091204D01*
X125658999Y-97090000D01*
X126309001Y-97090000D01*
X126333505Y-97091204D01*
X126333505Y-97091204D01*
G37*
D11*
X125984000Y-97790000D03*
D10*
G36*
X128383505Y-97091204D02*
G01*
X128407773Y-97094804D01*
X128431572Y-97100765D01*
X128454671Y-97109030D01*
X128476850Y-97119520D01*
X128497893Y-97132132D01*
X128517599Y-97146747D01*
X128535777Y-97163223D01*
X128552253Y-97181401D01*
X128566868Y-97201107D01*
X128579480Y-97222150D01*
X128589970Y-97244329D01*
X128598235Y-97267428D01*
X128604196Y-97291227D01*
X128607796Y-97315495D01*
X128609000Y-97339999D01*
X128609000Y-98240001D01*
X128607796Y-98264505D01*
X128604196Y-98288773D01*
X128598235Y-98312572D01*
X128589970Y-98335671D01*
X128579480Y-98357850D01*
X128566868Y-98378893D01*
X128552253Y-98398599D01*
X128535777Y-98416777D01*
X128517599Y-98433253D01*
X128497893Y-98447868D01*
X128476850Y-98460480D01*
X128454671Y-98470970D01*
X128431572Y-98479235D01*
X128407773Y-98485196D01*
X128383505Y-98488796D01*
X128359001Y-98490000D01*
X127708999Y-98490000D01*
X127684495Y-98488796D01*
X127660227Y-98485196D01*
X127636428Y-98479235D01*
X127613329Y-98470970D01*
X127591150Y-98460480D01*
X127570107Y-98447868D01*
X127550401Y-98433253D01*
X127532223Y-98416777D01*
X127515747Y-98398599D01*
X127501132Y-98378893D01*
X127488520Y-98357850D01*
X127478030Y-98335671D01*
X127469765Y-98312572D01*
X127463804Y-98288773D01*
X127460204Y-98264505D01*
X127459000Y-98240001D01*
X127459000Y-97339999D01*
X127460204Y-97315495D01*
X127463804Y-97291227D01*
X127469765Y-97267428D01*
X127478030Y-97244329D01*
X127488520Y-97222150D01*
X127501132Y-97201107D01*
X127515747Y-97181401D01*
X127532223Y-97163223D01*
X127550401Y-97146747D01*
X127570107Y-97132132D01*
X127591150Y-97119520D01*
X127613329Y-97109030D01*
X127636428Y-97100765D01*
X127660227Y-97094804D01*
X127684495Y-97091204D01*
X127708999Y-97090000D01*
X128359001Y-97090000D01*
X128383505Y-97091204D01*
X128383505Y-97091204D01*
G37*
D11*
X128034000Y-97790000D03*
D10*
G36*
X142353505Y-86169204D02*
G01*
X142377773Y-86172804D01*
X142401572Y-86178765D01*
X142424671Y-86187030D01*
X142446850Y-86197520D01*
X142467893Y-86210132D01*
X142487599Y-86224747D01*
X142505777Y-86241223D01*
X142522253Y-86259401D01*
X142536868Y-86279107D01*
X142549480Y-86300150D01*
X142559970Y-86322329D01*
X142568235Y-86345428D01*
X142574196Y-86369227D01*
X142577796Y-86393495D01*
X142579000Y-86417999D01*
X142579000Y-87318001D01*
X142577796Y-87342505D01*
X142574196Y-87366773D01*
X142568235Y-87390572D01*
X142559970Y-87413671D01*
X142549480Y-87435850D01*
X142536868Y-87456893D01*
X142522253Y-87476599D01*
X142505777Y-87494777D01*
X142487599Y-87511253D01*
X142467893Y-87525868D01*
X142446850Y-87538480D01*
X142424671Y-87548970D01*
X142401572Y-87557235D01*
X142377773Y-87563196D01*
X142353505Y-87566796D01*
X142329001Y-87568000D01*
X141678999Y-87568000D01*
X141654495Y-87566796D01*
X141630227Y-87563196D01*
X141606428Y-87557235D01*
X141583329Y-87548970D01*
X141561150Y-87538480D01*
X141540107Y-87525868D01*
X141520401Y-87511253D01*
X141502223Y-87494777D01*
X141485747Y-87476599D01*
X141471132Y-87456893D01*
X141458520Y-87435850D01*
X141448030Y-87413671D01*
X141439765Y-87390572D01*
X141433804Y-87366773D01*
X141430204Y-87342505D01*
X141429000Y-87318001D01*
X141429000Y-86417999D01*
X141430204Y-86393495D01*
X141433804Y-86369227D01*
X141439765Y-86345428D01*
X141448030Y-86322329D01*
X141458520Y-86300150D01*
X141471132Y-86279107D01*
X141485747Y-86259401D01*
X141502223Y-86241223D01*
X141520401Y-86224747D01*
X141540107Y-86210132D01*
X141561150Y-86197520D01*
X141583329Y-86187030D01*
X141606428Y-86178765D01*
X141630227Y-86172804D01*
X141654495Y-86169204D01*
X141678999Y-86168000D01*
X142329001Y-86168000D01*
X142353505Y-86169204D01*
X142353505Y-86169204D01*
G37*
D11*
X142004000Y-86868000D03*
D10*
G36*
X140303505Y-86169204D02*
G01*
X140327773Y-86172804D01*
X140351572Y-86178765D01*
X140374671Y-86187030D01*
X140396850Y-86197520D01*
X140417893Y-86210132D01*
X140437599Y-86224747D01*
X140455777Y-86241223D01*
X140472253Y-86259401D01*
X140486868Y-86279107D01*
X140499480Y-86300150D01*
X140509970Y-86322329D01*
X140518235Y-86345428D01*
X140524196Y-86369227D01*
X140527796Y-86393495D01*
X140529000Y-86417999D01*
X140529000Y-87318001D01*
X140527796Y-87342505D01*
X140524196Y-87366773D01*
X140518235Y-87390572D01*
X140509970Y-87413671D01*
X140499480Y-87435850D01*
X140486868Y-87456893D01*
X140472253Y-87476599D01*
X140455777Y-87494777D01*
X140437599Y-87511253D01*
X140417893Y-87525868D01*
X140396850Y-87538480D01*
X140374671Y-87548970D01*
X140351572Y-87557235D01*
X140327773Y-87563196D01*
X140303505Y-87566796D01*
X140279001Y-87568000D01*
X139628999Y-87568000D01*
X139604495Y-87566796D01*
X139580227Y-87563196D01*
X139556428Y-87557235D01*
X139533329Y-87548970D01*
X139511150Y-87538480D01*
X139490107Y-87525868D01*
X139470401Y-87511253D01*
X139452223Y-87494777D01*
X139435747Y-87476599D01*
X139421132Y-87456893D01*
X139408520Y-87435850D01*
X139398030Y-87413671D01*
X139389765Y-87390572D01*
X139383804Y-87366773D01*
X139380204Y-87342505D01*
X139379000Y-87318001D01*
X139379000Y-86417999D01*
X139380204Y-86393495D01*
X139383804Y-86369227D01*
X139389765Y-86345428D01*
X139398030Y-86322329D01*
X139408520Y-86300150D01*
X139421132Y-86279107D01*
X139435747Y-86259401D01*
X139452223Y-86241223D01*
X139470401Y-86224747D01*
X139490107Y-86210132D01*
X139511150Y-86197520D01*
X139533329Y-86187030D01*
X139556428Y-86178765D01*
X139580227Y-86172804D01*
X139604495Y-86169204D01*
X139628999Y-86168000D01*
X140279001Y-86168000D01*
X140303505Y-86169204D01*
X140303505Y-86169204D01*
G37*
D11*
X139954000Y-86868000D03*
D10*
G36*
X142587505Y-91501204D02*
G01*
X142611773Y-91504804D01*
X142635572Y-91510765D01*
X142658671Y-91519030D01*
X142680850Y-91529520D01*
X142701893Y-91542132D01*
X142721599Y-91556747D01*
X142739777Y-91573223D01*
X142756253Y-91591401D01*
X142770868Y-91611107D01*
X142783480Y-91632150D01*
X142793970Y-91654329D01*
X142802235Y-91677428D01*
X142808196Y-91701227D01*
X142811796Y-91725495D01*
X142813000Y-91749999D01*
X142813000Y-92400001D01*
X142811796Y-92424505D01*
X142808196Y-92448773D01*
X142802235Y-92472572D01*
X142793970Y-92495671D01*
X142783480Y-92517850D01*
X142770868Y-92538893D01*
X142756253Y-92558599D01*
X142739777Y-92576777D01*
X142721599Y-92593253D01*
X142701893Y-92607868D01*
X142680850Y-92620480D01*
X142658671Y-92630970D01*
X142635572Y-92639235D01*
X142611773Y-92645196D01*
X142587505Y-92648796D01*
X142563001Y-92650000D01*
X141662999Y-92650000D01*
X141638495Y-92648796D01*
X141614227Y-92645196D01*
X141590428Y-92639235D01*
X141567329Y-92630970D01*
X141545150Y-92620480D01*
X141524107Y-92607868D01*
X141504401Y-92593253D01*
X141486223Y-92576777D01*
X141469747Y-92558599D01*
X141455132Y-92538893D01*
X141442520Y-92517850D01*
X141432030Y-92495671D01*
X141423765Y-92472572D01*
X141417804Y-92448773D01*
X141414204Y-92424505D01*
X141413000Y-92400001D01*
X141413000Y-91749999D01*
X141414204Y-91725495D01*
X141417804Y-91701227D01*
X141423765Y-91677428D01*
X141432030Y-91654329D01*
X141442520Y-91632150D01*
X141455132Y-91611107D01*
X141469747Y-91591401D01*
X141486223Y-91573223D01*
X141504401Y-91556747D01*
X141524107Y-91542132D01*
X141545150Y-91529520D01*
X141567329Y-91519030D01*
X141590428Y-91510765D01*
X141614227Y-91504804D01*
X141638495Y-91501204D01*
X141662999Y-91500000D01*
X142563001Y-91500000D01*
X142587505Y-91501204D01*
X142587505Y-91501204D01*
G37*
D11*
X142113000Y-92075000D03*
D10*
G36*
X142587505Y-89451204D02*
G01*
X142611773Y-89454804D01*
X142635572Y-89460765D01*
X142658671Y-89469030D01*
X142680850Y-89479520D01*
X142701893Y-89492132D01*
X142721599Y-89506747D01*
X142739777Y-89523223D01*
X142756253Y-89541401D01*
X142770868Y-89561107D01*
X142783480Y-89582150D01*
X142793970Y-89604329D01*
X142802235Y-89627428D01*
X142808196Y-89651227D01*
X142811796Y-89675495D01*
X142813000Y-89699999D01*
X142813000Y-90350001D01*
X142811796Y-90374505D01*
X142808196Y-90398773D01*
X142802235Y-90422572D01*
X142793970Y-90445671D01*
X142783480Y-90467850D01*
X142770868Y-90488893D01*
X142756253Y-90508599D01*
X142739777Y-90526777D01*
X142721599Y-90543253D01*
X142701893Y-90557868D01*
X142680850Y-90570480D01*
X142658671Y-90580970D01*
X142635572Y-90589235D01*
X142611773Y-90595196D01*
X142587505Y-90598796D01*
X142563001Y-90600000D01*
X141662999Y-90600000D01*
X141638495Y-90598796D01*
X141614227Y-90595196D01*
X141590428Y-90589235D01*
X141567329Y-90580970D01*
X141545150Y-90570480D01*
X141524107Y-90557868D01*
X141504401Y-90543253D01*
X141486223Y-90526777D01*
X141469747Y-90508599D01*
X141455132Y-90488893D01*
X141442520Y-90467850D01*
X141432030Y-90445671D01*
X141423765Y-90422572D01*
X141417804Y-90398773D01*
X141414204Y-90374505D01*
X141413000Y-90350001D01*
X141413000Y-89699999D01*
X141414204Y-89675495D01*
X141417804Y-89651227D01*
X141423765Y-89627428D01*
X141432030Y-89604329D01*
X141442520Y-89582150D01*
X141455132Y-89561107D01*
X141469747Y-89541401D01*
X141486223Y-89523223D01*
X141504401Y-89506747D01*
X141524107Y-89492132D01*
X141545150Y-89479520D01*
X141567329Y-89469030D01*
X141590428Y-89460765D01*
X141614227Y-89454804D01*
X141638495Y-89451204D01*
X141662999Y-89450000D01*
X142563001Y-89450000D01*
X142587505Y-89451204D01*
X142587505Y-89451204D01*
G37*
D11*
X142113000Y-90025000D03*
D10*
G36*
X146889105Y-89434804D02*
G01*
X146913373Y-89438404D01*
X146937172Y-89444365D01*
X146960271Y-89452630D01*
X146982450Y-89463120D01*
X147003493Y-89475732D01*
X147023199Y-89490347D01*
X147041377Y-89506823D01*
X147057853Y-89525001D01*
X147072468Y-89544707D01*
X147085080Y-89565750D01*
X147095570Y-89587929D01*
X147103835Y-89611028D01*
X147109796Y-89634827D01*
X147113396Y-89659095D01*
X147114600Y-89683599D01*
X147114600Y-90333601D01*
X147113396Y-90358105D01*
X147109796Y-90382373D01*
X147103835Y-90406172D01*
X147095570Y-90429271D01*
X147085080Y-90451450D01*
X147072468Y-90472493D01*
X147057853Y-90492199D01*
X147041377Y-90510377D01*
X147023199Y-90526853D01*
X147003493Y-90541468D01*
X146982450Y-90554080D01*
X146960271Y-90564570D01*
X146937172Y-90572835D01*
X146913373Y-90578796D01*
X146889105Y-90582396D01*
X146864601Y-90583600D01*
X145964599Y-90583600D01*
X145940095Y-90582396D01*
X145915827Y-90578796D01*
X145892028Y-90572835D01*
X145868929Y-90564570D01*
X145846750Y-90554080D01*
X145825707Y-90541468D01*
X145806001Y-90526853D01*
X145787823Y-90510377D01*
X145771347Y-90492199D01*
X145756732Y-90472493D01*
X145744120Y-90451450D01*
X145733630Y-90429271D01*
X145725365Y-90406172D01*
X145719404Y-90382373D01*
X145715804Y-90358105D01*
X145714600Y-90333601D01*
X145714600Y-89683599D01*
X145715804Y-89659095D01*
X145719404Y-89634827D01*
X145725365Y-89611028D01*
X145733630Y-89587929D01*
X145744120Y-89565750D01*
X145756732Y-89544707D01*
X145771347Y-89525001D01*
X145787823Y-89506823D01*
X145806001Y-89490347D01*
X145825707Y-89475732D01*
X145846750Y-89463120D01*
X145868929Y-89452630D01*
X145892028Y-89444365D01*
X145915827Y-89438404D01*
X145940095Y-89434804D01*
X145964599Y-89433600D01*
X146864601Y-89433600D01*
X146889105Y-89434804D01*
X146889105Y-89434804D01*
G37*
D11*
X146414600Y-90008600D03*
D10*
G36*
X146889105Y-91484804D02*
G01*
X146913373Y-91488404D01*
X146937172Y-91494365D01*
X146960271Y-91502630D01*
X146982450Y-91513120D01*
X147003493Y-91525732D01*
X147023199Y-91540347D01*
X147041377Y-91556823D01*
X147057853Y-91575001D01*
X147072468Y-91594707D01*
X147085080Y-91615750D01*
X147095570Y-91637929D01*
X147103835Y-91661028D01*
X147109796Y-91684827D01*
X147113396Y-91709095D01*
X147114600Y-91733599D01*
X147114600Y-92383601D01*
X147113396Y-92408105D01*
X147109796Y-92432373D01*
X147103835Y-92456172D01*
X147095570Y-92479271D01*
X147085080Y-92501450D01*
X147072468Y-92522493D01*
X147057853Y-92542199D01*
X147041377Y-92560377D01*
X147023199Y-92576853D01*
X147003493Y-92591468D01*
X146982450Y-92604080D01*
X146960271Y-92614570D01*
X146937172Y-92622835D01*
X146913373Y-92628796D01*
X146889105Y-92632396D01*
X146864601Y-92633600D01*
X145964599Y-92633600D01*
X145940095Y-92632396D01*
X145915827Y-92628796D01*
X145892028Y-92622835D01*
X145868929Y-92614570D01*
X145846750Y-92604080D01*
X145825707Y-92591468D01*
X145806001Y-92576853D01*
X145787823Y-92560377D01*
X145771347Y-92542199D01*
X145756732Y-92522493D01*
X145744120Y-92501450D01*
X145733630Y-92479271D01*
X145725365Y-92456172D01*
X145719404Y-92432373D01*
X145715804Y-92408105D01*
X145714600Y-92383601D01*
X145714600Y-91733599D01*
X145715804Y-91709095D01*
X145719404Y-91684827D01*
X145725365Y-91661028D01*
X145733630Y-91637929D01*
X145744120Y-91615750D01*
X145756732Y-91594707D01*
X145771347Y-91575001D01*
X145787823Y-91556823D01*
X145806001Y-91540347D01*
X145825707Y-91525732D01*
X145846750Y-91513120D01*
X145868929Y-91502630D01*
X145892028Y-91494365D01*
X145915827Y-91488404D01*
X145940095Y-91484804D01*
X145964599Y-91483600D01*
X146864601Y-91483600D01*
X146889105Y-91484804D01*
X146889105Y-91484804D01*
G37*
D11*
X146414600Y-92058600D03*
D17*
X134620000Y-90445000D03*
X134620000Y-93345000D03*
X134120000Y-90445000D03*
X134120000Y-93345000D03*
D18*
X134370000Y-91895000D03*
D19*
X135770000Y-90895000D03*
X135770000Y-91395000D03*
X135770000Y-91895000D03*
X135770000Y-92395000D03*
X135770000Y-92895000D03*
X132970000Y-92895000D03*
X132970000Y-92395000D03*
X132970000Y-91895000D03*
X132970000Y-91395000D03*
X132970000Y-90895000D03*
D20*
X141122000Y-96774000D03*
X137922000Y-96774000D03*
D21*
X107950000Y-103378000D03*
X172212000Y-102870000D03*
X171704000Y-78486000D03*
X106934000Y-79248000D03*
X134772400Y-92608400D03*
X134772400Y-92608400D03*
X134010400Y-92049600D03*
X134620000Y-91186000D03*
X134112000Y-88900000D03*
X128778000Y-90170000D03*
X134112000Y-94869000D03*
X136779000Y-94869000D03*
X129590800Y-97790000D03*
X131572000Y-97739200D03*
X137515600Y-86868000D03*
X139954000Y-86868000D03*
X118364000Y-91694000D03*
X155448000Y-94488000D03*
X147066000Y-94615000D03*
X164846000Y-93218000D03*
D22*
X130048000Y-89052400D02*
X130048000Y-87630000D01*
X131890600Y-90895000D02*
X130048000Y-89052400D01*
D23*
X132970000Y-90895000D02*
X131890600Y-90895000D01*
X134120000Y-88908000D02*
X134112000Y-88900000D01*
X134120000Y-94750000D02*
X134239000Y-94869000D01*
D24*
X136779000Y-92799200D02*
X136779000Y-94869000D01*
X136374800Y-92395000D02*
X136779000Y-92799200D01*
D22*
X135770000Y-92395000D02*
X136374800Y-92395000D01*
D25*
X134620000Y-89890200D02*
X134391800Y-89662000D01*
D26*
X134620000Y-90445000D02*
X134620000Y-89890200D01*
D25*
X134391800Y-89662000D02*
X134128000Y-89662000D01*
D26*
X134620000Y-93345000D02*
X134620000Y-93899800D01*
D25*
X134620000Y-93899800D02*
X134620000Y-93980000D01*
X134620000Y-93980000D02*
X134493000Y-94107000D01*
X134493000Y-94107000D02*
X134239000Y-94107000D01*
D23*
X134120000Y-93345000D02*
X134120000Y-93591000D01*
D25*
X134112000Y-93726000D02*
X134112000Y-94996000D01*
D23*
X134120000Y-93591000D02*
X134112000Y-93599000D01*
X134120000Y-90437000D02*
X134120000Y-90170000D01*
D25*
X134120000Y-90059000D02*
X134120000Y-89408000D01*
X134120000Y-89527000D02*
X134120000Y-88908000D01*
D23*
X132970000Y-91395000D02*
X132797000Y-91395000D01*
D25*
X130384000Y-91395000D02*
X132252000Y-91395000D01*
D23*
X132342000Y-91395000D02*
X132970000Y-91395000D01*
D25*
X128778000Y-90805000D02*
X128778000Y-90170000D01*
X129368000Y-91395000D02*
X128778000Y-90805000D01*
X130384000Y-91395000D02*
X129368000Y-91395000D01*
D24*
X133090999Y-96271001D02*
X133090999Y-93015999D01*
X131572000Y-97790000D02*
X133090999Y-96271001D01*
X133090999Y-93015999D02*
X133090999Y-93001410D01*
D27*
X128034000Y-97790000D02*
X129590800Y-97790000D01*
D24*
X135890000Y-86868000D02*
X135890000Y-90678000D01*
X135890000Y-86868000D02*
X137515600Y-86868000D01*
D22*
X141968000Y-86832000D02*
X142004000Y-86868000D01*
X141968000Y-83108800D02*
X141968000Y-86832000D01*
X142113000Y-90025000D02*
X138829000Y-90025000D01*
D28*
X137486599Y-91367401D02*
X135797599Y-91367401D01*
D22*
X138829000Y-90025000D02*
X137486599Y-91367401D01*
D24*
X142004000Y-89916000D02*
X142113000Y-90025000D01*
X142004000Y-86868000D02*
X142004000Y-89916000D01*
D22*
X144018000Y-88773000D02*
X145253600Y-90008600D01*
X145253600Y-90008600D02*
X146414600Y-90008600D01*
X144018000Y-83108800D02*
X144018000Y-88773000D01*
D24*
X137922000Y-99726500D02*
X137984000Y-99788500D01*
X137922000Y-96774000D02*
X137922000Y-99726500D01*
X136864000Y-96774000D02*
X135763000Y-95673000D01*
X137922000Y-96774000D02*
X136864000Y-96774000D01*
X135763000Y-95673000D02*
X135763000Y-93091000D01*
D27*
X125966000Y-97772000D02*
X125984000Y-97790000D01*
X125984000Y-97790000D02*
X125984000Y-92583000D01*
D22*
X135772200Y-91897200D02*
X135770000Y-91895000D01*
D27*
X142113000Y-94361000D02*
X142113000Y-92710000D01*
X141122000Y-95352000D02*
X142113000Y-94361000D01*
X141122000Y-96774000D02*
X141122000Y-95352000D01*
D29*
G36*
X174117000Y-95504000D02*
G01*
X145542000Y-95504000D01*
X145542000Y-93230700D01*
X145539560Y-93205924D01*
X145532333Y-93182099D01*
X145520597Y-93160143D01*
X145504803Y-93140897D01*
X145492103Y-93128197D01*
X145472857Y-93112403D01*
X145450901Y-93100667D01*
X145427076Y-93093440D01*
X145402300Y-93091000D01*
X137312400Y-93091000D01*
X137312400Y-92825386D01*
X137314979Y-92799199D01*
X137312400Y-92773012D01*
X137312400Y-92773005D01*
X137304681Y-92694635D01*
X137287000Y-92636348D01*
X137287000Y-92087700D01*
X137284560Y-92062924D01*
X137277333Y-92039099D01*
X137265597Y-92017143D01*
X137249803Y-91997897D01*
X137237103Y-91985197D01*
X137217857Y-91969403D01*
X137195901Y-91957667D01*
X137172076Y-91950440D01*
X137147300Y-91948000D01*
X136670049Y-91948000D01*
X136579910Y-91899819D01*
X136479364Y-91869319D01*
X136374800Y-91859021D01*
X136270236Y-91869319D01*
X136169690Y-91899819D01*
X136079551Y-91948000D01*
X135509000Y-91948000D01*
X135509000Y-91821000D01*
X138544300Y-91821000D01*
X138569076Y-91818560D01*
X138592901Y-91811333D01*
X138614857Y-91799597D01*
X138634103Y-91783803D01*
X138646803Y-91771103D01*
X138662597Y-91751857D01*
X138674333Y-91729901D01*
X138681560Y-91706076D01*
X138684000Y-91681300D01*
X138684000Y-91186000D01*
X174117000Y-91186000D01*
X174117000Y-95504000D01*
X174117000Y-95504000D01*
G37*
X174117000Y-95504000D02*
X145542000Y-95504000D01*
X145542000Y-93230700D01*
X145539560Y-93205924D01*
X145532333Y-93182099D01*
X145520597Y-93160143D01*
X145504803Y-93140897D01*
X145492103Y-93128197D01*
X145472857Y-93112403D01*
X145450901Y-93100667D01*
X145427076Y-93093440D01*
X145402300Y-93091000D01*
X137312400Y-93091000D01*
X137312400Y-92825386D01*
X137314979Y-92799199D01*
X137312400Y-92773012D01*
X137312400Y-92773005D01*
X137304681Y-92694635D01*
X137287000Y-92636348D01*
X137287000Y-92087700D01*
X137284560Y-92062924D01*
X137277333Y-92039099D01*
X137265597Y-92017143D01*
X137249803Y-91997897D01*
X137237103Y-91985197D01*
X137217857Y-91969403D01*
X137195901Y-91957667D01*
X137172076Y-91950440D01*
X137147300Y-91948000D01*
X136670049Y-91948000D01*
X136579910Y-91899819D01*
X136479364Y-91869319D01*
X136374800Y-91859021D01*
X136270236Y-91869319D01*
X136169690Y-91899819D01*
X136079551Y-91948000D01*
X135509000Y-91948000D01*
X135509000Y-91821000D01*
X138544300Y-91821000D01*
X138569076Y-91818560D01*
X138592901Y-91811333D01*
X138614857Y-91799597D01*
X138634103Y-91783803D01*
X138646803Y-91771103D01*
X138662597Y-91751857D01*
X138674333Y-91729901D01*
X138681560Y-91706076D01*
X138684000Y-91681300D01*
X138684000Y-91186000D01*
X174117000Y-91186000D01*
X174117000Y-95504000D01*
G36*
X122809000Y-91681300D02*
G01*
X122811440Y-91706076D01*
X122818667Y-91729901D01*
X122830403Y-91751857D01*
X122846197Y-91771103D01*
X122858897Y-91783803D01*
X122878143Y-91799597D01*
X122900099Y-91811333D01*
X122923924Y-91818560D01*
X122948700Y-91821000D01*
X129141223Y-91821000D01*
X129182423Y-91843022D01*
X129273394Y-91870617D01*
X129344293Y-91877600D01*
X129344294Y-91877600D01*
X129367999Y-91879935D01*
X129391704Y-91877600D01*
X132275707Y-91877600D01*
X132346606Y-91870617D01*
X132437577Y-91843022D01*
X132478777Y-91821000D01*
X133223000Y-91821000D01*
X133223000Y-92456000D01*
X127520700Y-92456000D01*
X127495924Y-92458440D01*
X127472099Y-92465667D01*
X127450143Y-92477403D01*
X127430897Y-92493197D01*
X127418197Y-92505897D01*
X127402403Y-92525143D01*
X127390667Y-92547099D01*
X127383440Y-92570924D01*
X127381000Y-92595700D01*
X127381000Y-93599000D01*
X109474000Y-93599000D01*
X109474000Y-89789000D01*
X122809000Y-89789000D01*
X122809000Y-91681300D01*
X122809000Y-91681300D01*
G37*
X122809000Y-91681300D02*
X122811440Y-91706076D01*
X122818667Y-91729901D01*
X122830403Y-91751857D01*
X122846197Y-91771103D01*
X122858897Y-91783803D01*
X122878143Y-91799597D01*
X122900099Y-91811333D01*
X122923924Y-91818560D01*
X122948700Y-91821000D01*
X129141223Y-91821000D01*
X129182423Y-91843022D01*
X129273394Y-91870617D01*
X129344293Y-91877600D01*
X129344294Y-91877600D01*
X129367999Y-91879935D01*
X129391704Y-91877600D01*
X132275707Y-91877600D01*
X132346606Y-91870617D01*
X132437577Y-91843022D01*
X132478777Y-91821000D01*
X133223000Y-91821000D01*
X133223000Y-92456000D01*
X127520700Y-92456000D01*
X127495924Y-92458440D01*
X127472099Y-92465667D01*
X127450143Y-92477403D01*
X127430897Y-92493197D01*
X127418197Y-92505897D01*
X127402403Y-92525143D01*
X127390667Y-92547099D01*
X127383440Y-92570924D01*
X127381000Y-92595700D01*
X127381000Y-93599000D01*
X109474000Y-93599000D01*
X109474000Y-89789000D01*
X122809000Y-89789000D01*
X122809000Y-91681300D01*
M02*
