M48
; DRILL file {KiCad (5.1.4-0)} date Sunday, March 08, 2020 at 06:02:03 PM
; FORMAT={-:-/ absolute / metric / decimal}
; #@! TF.CreationDate,2020-03-08T18:02:03-07:00
; #@! TF.GenerationSoftware,Kicad,Pcbnew,(5.1.4-0)
FMAT,2
METRIC
T1C0.400
T2C1.300
%
G90
G05
T1
X106.934Y-79.248
X107.95Y-103.378
X118.364Y-91.694
X128.778Y-90.17
X129.591Y-97.79
X131.572Y-97.739
X134.01Y-92.05
X134.112Y-88.9
X134.112Y-94.869
X134.62Y-91.186
X134.772Y-92.608
X134.772Y-92.608
X136.779Y-94.869
X137.516Y-86.868
X139.954Y-86.868
X147.066Y-94.615
X155.448Y-94.488
X164.846Y-93.218
X171.704Y-78.486
X172.212Y-102.87
T2
X171.958Y-93.218
X171.958Y-98.218
X111.633Y-91.694
X111.633Y-96.694
T0
M30
