G04 #@! TF.GenerationSoftware,KiCad,Pcbnew,(5.0.2)-1*
G04 #@! TF.CreationDate,2020-02-08T04:52:55-08:00*
G04 #@! TF.ProjectId,Pa Rev 2.0,50612052-6576-4203-922e-302e6b696361,rev?*
G04 #@! TF.SameCoordinates,Original*
G04 #@! TF.FileFunction,Copper,L2,Bot*
G04 #@! TF.FilePolarity,Positive*
%FSLAX46Y46*%
G04 Gerber Fmt 4.6, Leading zero omitted, Abs format (unit mm)*
G04 Created by KiCad (PCBNEW (5.0.2)-1) date 2/8/2020 4:52:55 AM*
%MOMM*%
%LPD*%
G01*
G04 APERTURE LIST*
G04 #@! TA.AperFunction,SMDPad,CuDef*
%ADD10R,5.080000X2.420000*%
G04 #@! TD*
G04 #@! TA.AperFunction,Conductor*
%ADD11C,0.100000*%
G04 #@! TD*
G04 #@! TA.AperFunction,SMDPad,CuDef*
%ADD12C,1.150000*%
G04 #@! TD*
G04 #@! TA.AperFunction,ComponentPad*
%ADD13R,2.200000X2.200000*%
G04 #@! TD*
G04 #@! TA.AperFunction,ComponentPad*
%ADD14O,2.200000X2.200000*%
G04 #@! TD*
G04 #@! TA.AperFunction,ComponentPad*
%ADD15R,1.700000X1.700000*%
G04 #@! TD*
G04 #@! TA.AperFunction,ComponentPad*
%ADD16O,1.700000X1.700000*%
G04 #@! TD*
G04 #@! TA.AperFunction,ComponentPad*
%ADD17R,1.905000X2.000000*%
G04 #@! TD*
G04 #@! TA.AperFunction,ComponentPad*
%ADD18O,1.905000X2.000000*%
G04 #@! TD*
G04 #@! TA.AperFunction,ViaPad*
%ADD19C,1.016000*%
G04 #@! TD*
G04 #@! TA.AperFunction,Conductor*
%ADD20C,1.500000*%
G04 #@! TD*
G04 #@! TA.AperFunction,Conductor*
%ADD21C,1.000000*%
G04 #@! TD*
G04 #@! TA.AperFunction,Conductor*
%ADD22C,0.254000*%
G04 #@! TD*
G04 APERTURE END LIST*
D10*
G04 #@! TO.P,J2,2*
G04 #@! TO.N,GND*
X87472520Y-71571080D03*
X87472520Y-80331080D03*
G04 #@! TD*
G04 #@! TO.P,J1,2*
G04 #@! TO.N,GND*
X48495800Y-71606640D03*
X48495800Y-80366640D03*
G04 #@! TD*
D11*
G04 #@! TO.N,Net-(C3-Pad1)*
G04 #@! TO.C,C3*
G36*
X69158105Y-78600004D02*
X69182373Y-78603604D01*
X69206172Y-78609565D01*
X69229271Y-78617830D01*
X69251450Y-78628320D01*
X69272493Y-78640932D01*
X69292199Y-78655547D01*
X69310377Y-78672023D01*
X69326853Y-78690201D01*
X69341468Y-78709907D01*
X69354080Y-78730950D01*
X69364570Y-78753129D01*
X69372835Y-78776228D01*
X69378796Y-78800027D01*
X69382396Y-78824295D01*
X69383600Y-78848799D01*
X69383600Y-79748801D01*
X69382396Y-79773305D01*
X69378796Y-79797573D01*
X69372835Y-79821372D01*
X69364570Y-79844471D01*
X69354080Y-79866650D01*
X69341468Y-79887693D01*
X69326853Y-79907399D01*
X69310377Y-79925577D01*
X69292199Y-79942053D01*
X69272493Y-79956668D01*
X69251450Y-79969280D01*
X69229271Y-79979770D01*
X69206172Y-79988035D01*
X69182373Y-79993996D01*
X69158105Y-79997596D01*
X69133601Y-79998800D01*
X68483599Y-79998800D01*
X68459095Y-79997596D01*
X68434827Y-79993996D01*
X68411028Y-79988035D01*
X68387929Y-79979770D01*
X68365750Y-79969280D01*
X68344707Y-79956668D01*
X68325001Y-79942053D01*
X68306823Y-79925577D01*
X68290347Y-79907399D01*
X68275732Y-79887693D01*
X68263120Y-79866650D01*
X68252630Y-79844471D01*
X68244365Y-79821372D01*
X68238404Y-79797573D01*
X68234804Y-79773305D01*
X68233600Y-79748801D01*
X68233600Y-78848799D01*
X68234804Y-78824295D01*
X68238404Y-78800027D01*
X68244365Y-78776228D01*
X68252630Y-78753129D01*
X68263120Y-78730950D01*
X68275732Y-78709907D01*
X68290347Y-78690201D01*
X68306823Y-78672023D01*
X68325001Y-78655547D01*
X68344707Y-78640932D01*
X68365750Y-78628320D01*
X68387929Y-78617830D01*
X68411028Y-78609565D01*
X68434827Y-78603604D01*
X68459095Y-78600004D01*
X68483599Y-78598800D01*
X69133601Y-78598800D01*
X69158105Y-78600004D01*
X69158105Y-78600004D01*
G37*
D12*
G04 #@! TD*
G04 #@! TO.P,C3,1*
G04 #@! TO.N,Net-(C3-Pad1)*
X68808600Y-79298800D03*
D11*
G04 #@! TO.N,GND*
G04 #@! TO.C,C3*
G36*
X71208105Y-78600004D02*
X71232373Y-78603604D01*
X71256172Y-78609565D01*
X71279271Y-78617830D01*
X71301450Y-78628320D01*
X71322493Y-78640932D01*
X71342199Y-78655547D01*
X71360377Y-78672023D01*
X71376853Y-78690201D01*
X71391468Y-78709907D01*
X71404080Y-78730950D01*
X71414570Y-78753129D01*
X71422835Y-78776228D01*
X71428796Y-78800027D01*
X71432396Y-78824295D01*
X71433600Y-78848799D01*
X71433600Y-79748801D01*
X71432396Y-79773305D01*
X71428796Y-79797573D01*
X71422835Y-79821372D01*
X71414570Y-79844471D01*
X71404080Y-79866650D01*
X71391468Y-79887693D01*
X71376853Y-79907399D01*
X71360377Y-79925577D01*
X71342199Y-79942053D01*
X71322493Y-79956668D01*
X71301450Y-79969280D01*
X71279271Y-79979770D01*
X71256172Y-79988035D01*
X71232373Y-79993996D01*
X71208105Y-79997596D01*
X71183601Y-79998800D01*
X70533599Y-79998800D01*
X70509095Y-79997596D01*
X70484827Y-79993996D01*
X70461028Y-79988035D01*
X70437929Y-79979770D01*
X70415750Y-79969280D01*
X70394707Y-79956668D01*
X70375001Y-79942053D01*
X70356823Y-79925577D01*
X70340347Y-79907399D01*
X70325732Y-79887693D01*
X70313120Y-79866650D01*
X70302630Y-79844471D01*
X70294365Y-79821372D01*
X70288404Y-79797573D01*
X70284804Y-79773305D01*
X70283600Y-79748801D01*
X70283600Y-78848799D01*
X70284804Y-78824295D01*
X70288404Y-78800027D01*
X70294365Y-78776228D01*
X70302630Y-78753129D01*
X70313120Y-78730950D01*
X70325732Y-78709907D01*
X70340347Y-78690201D01*
X70356823Y-78672023D01*
X70375001Y-78655547D01*
X70394707Y-78640932D01*
X70415750Y-78628320D01*
X70437929Y-78617830D01*
X70461028Y-78609565D01*
X70484827Y-78603604D01*
X70509095Y-78600004D01*
X70533599Y-78598800D01*
X71183601Y-78598800D01*
X71208105Y-78600004D01*
X71208105Y-78600004D01*
G37*
D12*
G04 #@! TD*
G04 #@! TO.P,C3,2*
G04 #@! TO.N,GND*
X70858600Y-79298800D03*
D13*
G04 #@! TO.P,D0,1*
G04 #@! TO.N,Net-(D0-Pad1)*
X55118000Y-62484000D03*
D14*
G04 #@! TO.P,D0,2*
G04 #@! TO.N,Net-(C1-Pad1)*
X67818000Y-62484000D03*
G04 #@! TD*
D15*
G04 #@! TO.P,J0,1*
G04 #@! TO.N,Net-(D0-Pad1)*
X48046640Y-62494160D03*
D16*
G04 #@! TO.P,J0,2*
G04 #@! TO.N,GND*
X48046640Y-65034160D03*
G04 #@! TD*
D11*
G04 #@! TO.N,Net-(C3-Pad1)*
G04 #@! TO.C,R0*
G36*
X69158105Y-74561404D02*
X69182373Y-74565004D01*
X69206172Y-74570965D01*
X69229271Y-74579230D01*
X69251450Y-74589720D01*
X69272493Y-74602332D01*
X69292199Y-74616947D01*
X69310377Y-74633423D01*
X69326853Y-74651601D01*
X69341468Y-74671307D01*
X69354080Y-74692350D01*
X69364570Y-74714529D01*
X69372835Y-74737628D01*
X69378796Y-74761427D01*
X69382396Y-74785695D01*
X69383600Y-74810199D01*
X69383600Y-75710201D01*
X69382396Y-75734705D01*
X69378796Y-75758973D01*
X69372835Y-75782772D01*
X69364570Y-75805871D01*
X69354080Y-75828050D01*
X69341468Y-75849093D01*
X69326853Y-75868799D01*
X69310377Y-75886977D01*
X69292199Y-75903453D01*
X69272493Y-75918068D01*
X69251450Y-75930680D01*
X69229271Y-75941170D01*
X69206172Y-75949435D01*
X69182373Y-75955396D01*
X69158105Y-75958996D01*
X69133601Y-75960200D01*
X68483599Y-75960200D01*
X68459095Y-75958996D01*
X68434827Y-75955396D01*
X68411028Y-75949435D01*
X68387929Y-75941170D01*
X68365750Y-75930680D01*
X68344707Y-75918068D01*
X68325001Y-75903453D01*
X68306823Y-75886977D01*
X68290347Y-75868799D01*
X68275732Y-75849093D01*
X68263120Y-75828050D01*
X68252630Y-75805871D01*
X68244365Y-75782772D01*
X68238404Y-75758973D01*
X68234804Y-75734705D01*
X68233600Y-75710201D01*
X68233600Y-74810199D01*
X68234804Y-74785695D01*
X68238404Y-74761427D01*
X68244365Y-74737628D01*
X68252630Y-74714529D01*
X68263120Y-74692350D01*
X68275732Y-74671307D01*
X68290347Y-74651601D01*
X68306823Y-74633423D01*
X68325001Y-74616947D01*
X68344707Y-74602332D01*
X68365750Y-74589720D01*
X68387929Y-74579230D01*
X68411028Y-74570965D01*
X68434827Y-74565004D01*
X68459095Y-74561404D01*
X68483599Y-74560200D01*
X69133601Y-74560200D01*
X69158105Y-74561404D01*
X69158105Y-74561404D01*
G37*
D12*
G04 #@! TD*
G04 #@! TO.P,R0,1*
G04 #@! TO.N,Net-(C3-Pad1)*
X68808600Y-75260200D03*
D11*
G04 #@! TO.N,GND*
G04 #@! TO.C,R0*
G36*
X71208105Y-74561404D02*
X71232373Y-74565004D01*
X71256172Y-74570965D01*
X71279271Y-74579230D01*
X71301450Y-74589720D01*
X71322493Y-74602332D01*
X71342199Y-74616947D01*
X71360377Y-74633423D01*
X71376853Y-74651601D01*
X71391468Y-74671307D01*
X71404080Y-74692350D01*
X71414570Y-74714529D01*
X71422835Y-74737628D01*
X71428796Y-74761427D01*
X71432396Y-74785695D01*
X71433600Y-74810199D01*
X71433600Y-75710201D01*
X71432396Y-75734705D01*
X71428796Y-75758973D01*
X71422835Y-75782772D01*
X71414570Y-75805871D01*
X71404080Y-75828050D01*
X71391468Y-75849093D01*
X71376853Y-75868799D01*
X71360377Y-75886977D01*
X71342199Y-75903453D01*
X71322493Y-75918068D01*
X71301450Y-75930680D01*
X71279271Y-75941170D01*
X71256172Y-75949435D01*
X71232373Y-75955396D01*
X71208105Y-75958996D01*
X71183601Y-75960200D01*
X70533599Y-75960200D01*
X70509095Y-75958996D01*
X70484827Y-75955396D01*
X70461028Y-75949435D01*
X70437929Y-75941170D01*
X70415750Y-75930680D01*
X70394707Y-75918068D01*
X70375001Y-75903453D01*
X70356823Y-75886977D01*
X70340347Y-75868799D01*
X70325732Y-75849093D01*
X70313120Y-75828050D01*
X70302630Y-75805871D01*
X70294365Y-75782772D01*
X70288404Y-75758973D01*
X70284804Y-75734705D01*
X70283600Y-75710201D01*
X70283600Y-74810199D01*
X70284804Y-74785695D01*
X70288404Y-74761427D01*
X70294365Y-74737628D01*
X70302630Y-74714529D01*
X70313120Y-74692350D01*
X70325732Y-74671307D01*
X70340347Y-74651601D01*
X70356823Y-74633423D01*
X70375001Y-74616947D01*
X70394707Y-74602332D01*
X70415750Y-74589720D01*
X70437929Y-74579230D01*
X70461028Y-74570965D01*
X70484827Y-74565004D01*
X70509095Y-74561404D01*
X70533599Y-74560200D01*
X71183601Y-74560200D01*
X71208105Y-74561404D01*
X71208105Y-74561404D01*
G37*
D12*
G04 #@! TD*
G04 #@! TO.P,R0,2*
G04 #@! TO.N,GND*
X70858600Y-75260200D03*
D11*
G04 #@! TO.N,Net-(R1-Pad2)*
G04 #@! TO.C,R1*
G36*
X63364905Y-71529404D02*
X63389173Y-71533004D01*
X63412972Y-71538965D01*
X63436071Y-71547230D01*
X63458250Y-71557720D01*
X63479293Y-71570332D01*
X63498999Y-71584947D01*
X63517177Y-71601423D01*
X63533653Y-71619601D01*
X63548268Y-71639307D01*
X63560880Y-71660350D01*
X63571370Y-71682529D01*
X63579635Y-71705628D01*
X63585596Y-71729427D01*
X63589196Y-71753695D01*
X63590400Y-71778199D01*
X63590400Y-72428201D01*
X63589196Y-72452705D01*
X63585596Y-72476973D01*
X63579635Y-72500772D01*
X63571370Y-72523871D01*
X63560880Y-72546050D01*
X63548268Y-72567093D01*
X63533653Y-72586799D01*
X63517177Y-72604977D01*
X63498999Y-72621453D01*
X63479293Y-72636068D01*
X63458250Y-72648680D01*
X63436071Y-72659170D01*
X63412972Y-72667435D01*
X63389173Y-72673396D01*
X63364905Y-72676996D01*
X63340401Y-72678200D01*
X62440399Y-72678200D01*
X62415895Y-72676996D01*
X62391627Y-72673396D01*
X62367828Y-72667435D01*
X62344729Y-72659170D01*
X62322550Y-72648680D01*
X62301507Y-72636068D01*
X62281801Y-72621453D01*
X62263623Y-72604977D01*
X62247147Y-72586799D01*
X62232532Y-72567093D01*
X62219920Y-72546050D01*
X62209430Y-72523871D01*
X62201165Y-72500772D01*
X62195204Y-72476973D01*
X62191604Y-72452705D01*
X62190400Y-72428201D01*
X62190400Y-71778199D01*
X62191604Y-71753695D01*
X62195204Y-71729427D01*
X62201165Y-71705628D01*
X62209430Y-71682529D01*
X62219920Y-71660350D01*
X62232532Y-71639307D01*
X62247147Y-71619601D01*
X62263623Y-71601423D01*
X62281801Y-71584947D01*
X62301507Y-71570332D01*
X62322550Y-71557720D01*
X62344729Y-71547230D01*
X62367828Y-71538965D01*
X62391627Y-71533004D01*
X62415895Y-71529404D01*
X62440399Y-71528200D01*
X63340401Y-71528200D01*
X63364905Y-71529404D01*
X63364905Y-71529404D01*
G37*
D12*
G04 #@! TD*
G04 #@! TO.P,R1,2*
G04 #@! TO.N,Net-(R1-Pad2)*
X62890400Y-72103200D03*
D11*
G04 #@! TO.N,Net-(C2-Pad1)*
G04 #@! TO.C,R1*
G36*
X63364905Y-69479404D02*
X63389173Y-69483004D01*
X63412972Y-69488965D01*
X63436071Y-69497230D01*
X63458250Y-69507720D01*
X63479293Y-69520332D01*
X63498999Y-69534947D01*
X63517177Y-69551423D01*
X63533653Y-69569601D01*
X63548268Y-69589307D01*
X63560880Y-69610350D01*
X63571370Y-69632529D01*
X63579635Y-69655628D01*
X63585596Y-69679427D01*
X63589196Y-69703695D01*
X63590400Y-69728199D01*
X63590400Y-70378201D01*
X63589196Y-70402705D01*
X63585596Y-70426973D01*
X63579635Y-70450772D01*
X63571370Y-70473871D01*
X63560880Y-70496050D01*
X63548268Y-70517093D01*
X63533653Y-70536799D01*
X63517177Y-70554977D01*
X63498999Y-70571453D01*
X63479293Y-70586068D01*
X63458250Y-70598680D01*
X63436071Y-70609170D01*
X63412972Y-70617435D01*
X63389173Y-70623396D01*
X63364905Y-70626996D01*
X63340401Y-70628200D01*
X62440399Y-70628200D01*
X62415895Y-70626996D01*
X62391627Y-70623396D01*
X62367828Y-70617435D01*
X62344729Y-70609170D01*
X62322550Y-70598680D01*
X62301507Y-70586068D01*
X62281801Y-70571453D01*
X62263623Y-70554977D01*
X62247147Y-70536799D01*
X62232532Y-70517093D01*
X62219920Y-70496050D01*
X62209430Y-70473871D01*
X62201165Y-70450772D01*
X62195204Y-70426973D01*
X62191604Y-70402705D01*
X62190400Y-70378201D01*
X62190400Y-69728199D01*
X62191604Y-69703695D01*
X62195204Y-69679427D01*
X62201165Y-69655628D01*
X62209430Y-69632529D01*
X62219920Y-69610350D01*
X62232532Y-69589307D01*
X62247147Y-69569601D01*
X62263623Y-69551423D01*
X62281801Y-69534947D01*
X62301507Y-69520332D01*
X62322550Y-69507720D01*
X62344729Y-69497230D01*
X62367828Y-69488965D01*
X62391627Y-69483004D01*
X62415895Y-69479404D01*
X62440399Y-69478200D01*
X63340401Y-69478200D01*
X63364905Y-69479404D01*
X63364905Y-69479404D01*
G37*
D12*
G04 #@! TD*
G04 #@! TO.P,R1,1*
G04 #@! TO.N,Net-(C2-Pad1)*
X62890400Y-70053200D03*
D11*
G04 #@! TO.N,Net-(R1-Pad2)*
G04 #@! TO.C,R2*
G36*
X63364905Y-76693004D02*
X63389173Y-76696604D01*
X63412972Y-76702565D01*
X63436071Y-76710830D01*
X63458250Y-76721320D01*
X63479293Y-76733932D01*
X63498999Y-76748547D01*
X63517177Y-76765023D01*
X63533653Y-76783201D01*
X63548268Y-76802907D01*
X63560880Y-76823950D01*
X63571370Y-76846129D01*
X63579635Y-76869228D01*
X63585596Y-76893027D01*
X63589196Y-76917295D01*
X63590400Y-76941799D01*
X63590400Y-77591801D01*
X63589196Y-77616305D01*
X63585596Y-77640573D01*
X63579635Y-77664372D01*
X63571370Y-77687471D01*
X63560880Y-77709650D01*
X63548268Y-77730693D01*
X63533653Y-77750399D01*
X63517177Y-77768577D01*
X63498999Y-77785053D01*
X63479293Y-77799668D01*
X63458250Y-77812280D01*
X63436071Y-77822770D01*
X63412972Y-77831035D01*
X63389173Y-77836996D01*
X63364905Y-77840596D01*
X63340401Y-77841800D01*
X62440399Y-77841800D01*
X62415895Y-77840596D01*
X62391627Y-77836996D01*
X62367828Y-77831035D01*
X62344729Y-77822770D01*
X62322550Y-77812280D01*
X62301507Y-77799668D01*
X62281801Y-77785053D01*
X62263623Y-77768577D01*
X62247147Y-77750399D01*
X62232532Y-77730693D01*
X62219920Y-77709650D01*
X62209430Y-77687471D01*
X62201165Y-77664372D01*
X62195204Y-77640573D01*
X62191604Y-77616305D01*
X62190400Y-77591801D01*
X62190400Y-76941799D01*
X62191604Y-76917295D01*
X62195204Y-76893027D01*
X62201165Y-76869228D01*
X62209430Y-76846129D01*
X62219920Y-76823950D01*
X62232532Y-76802907D01*
X62247147Y-76783201D01*
X62263623Y-76765023D01*
X62281801Y-76748547D01*
X62301507Y-76733932D01*
X62322550Y-76721320D01*
X62344729Y-76710830D01*
X62367828Y-76702565D01*
X62391627Y-76696604D01*
X62415895Y-76693004D01*
X62440399Y-76691800D01*
X63340401Y-76691800D01*
X63364905Y-76693004D01*
X63364905Y-76693004D01*
G37*
D12*
G04 #@! TD*
G04 #@! TO.P,R2,1*
G04 #@! TO.N,Net-(R1-Pad2)*
X62890400Y-77266800D03*
D11*
G04 #@! TO.N,GND*
G04 #@! TO.C,R2*
G36*
X63364905Y-78743004D02*
X63389173Y-78746604D01*
X63412972Y-78752565D01*
X63436071Y-78760830D01*
X63458250Y-78771320D01*
X63479293Y-78783932D01*
X63498999Y-78798547D01*
X63517177Y-78815023D01*
X63533653Y-78833201D01*
X63548268Y-78852907D01*
X63560880Y-78873950D01*
X63571370Y-78896129D01*
X63579635Y-78919228D01*
X63585596Y-78943027D01*
X63589196Y-78967295D01*
X63590400Y-78991799D01*
X63590400Y-79641801D01*
X63589196Y-79666305D01*
X63585596Y-79690573D01*
X63579635Y-79714372D01*
X63571370Y-79737471D01*
X63560880Y-79759650D01*
X63548268Y-79780693D01*
X63533653Y-79800399D01*
X63517177Y-79818577D01*
X63498999Y-79835053D01*
X63479293Y-79849668D01*
X63458250Y-79862280D01*
X63436071Y-79872770D01*
X63412972Y-79881035D01*
X63389173Y-79886996D01*
X63364905Y-79890596D01*
X63340401Y-79891800D01*
X62440399Y-79891800D01*
X62415895Y-79890596D01*
X62391627Y-79886996D01*
X62367828Y-79881035D01*
X62344729Y-79872770D01*
X62322550Y-79862280D01*
X62301507Y-79849668D01*
X62281801Y-79835053D01*
X62263623Y-79818577D01*
X62247147Y-79800399D01*
X62232532Y-79780693D01*
X62219920Y-79759650D01*
X62209430Y-79737471D01*
X62201165Y-79714372D01*
X62195204Y-79690573D01*
X62191604Y-79666305D01*
X62190400Y-79641801D01*
X62190400Y-78991799D01*
X62191604Y-78967295D01*
X62195204Y-78943027D01*
X62201165Y-78919228D01*
X62209430Y-78896129D01*
X62219920Y-78873950D01*
X62232532Y-78852907D01*
X62247147Y-78833201D01*
X62263623Y-78815023D01*
X62281801Y-78798547D01*
X62301507Y-78783932D01*
X62322550Y-78771320D01*
X62344729Y-78760830D01*
X62367828Y-78752565D01*
X62391627Y-78746604D01*
X62415895Y-78743004D01*
X62440399Y-78741800D01*
X63340401Y-78741800D01*
X63364905Y-78743004D01*
X63364905Y-78743004D01*
G37*
D12*
G04 #@! TD*
G04 #@! TO.P,R2,2*
G04 #@! TO.N,GND*
X62890400Y-79316800D03*
D17*
G04 #@! TO.P,U0,1*
G04 #@! TO.N,Net-(C1-Pad1)*
X79044800Y-62484000D03*
D18*
G04 #@! TO.P,U0,2*
G04 #@! TO.N,GND*
X81584800Y-62484000D03*
G04 #@! TO.P,U0,3*
G04 #@! TO.N,Net-(C2-Pad1)*
X84124800Y-62484000D03*
G04 #@! TD*
D19*
G04 #@! TO.N,Net-(C2-Pad1)*
X76299060Y-77228700D03*
G04 #@! TO.N,Net-(C3-Pad1)*
X68806600Y-73456800D03*
X65887600Y-79296800D03*
G04 #@! TO.N,Net-(Q2-Pad3)*
X67856600Y-70456800D03*
X76186060Y-78496160D03*
G04 #@! TO.N,Net-(R1-Pad2)*
X62890400Y-74726800D03*
G04 #@! TD*
D20*
G04 #@! TO.N,Net-(C2-Pad1)*
X84124800Y-64984000D02*
X84124800Y-62484000D01*
X83068800Y-66040000D02*
X84124800Y-64984000D01*
X62890400Y-67919600D02*
X64770000Y-66040000D01*
X62890400Y-70053200D02*
X62890400Y-67919600D01*
D21*
X76311760Y-76497580D02*
X76311760Y-66040000D01*
X76299060Y-76510280D02*
X76311760Y-76497580D01*
X76299060Y-77228700D02*
X76299060Y-76510280D01*
D20*
X64770000Y-66040000D02*
X76311760Y-66040000D01*
X76311760Y-66040000D02*
X83068800Y-66040000D01*
G04 #@! TO.N,Net-(C3-Pad1)*
X68806600Y-79296800D02*
X68808600Y-79298800D01*
X68806600Y-73456800D02*
X68806600Y-79296800D01*
X65887600Y-79296800D02*
X68806600Y-79296800D01*
D21*
G04 #@! TO.N,Net-(Q2-Pad3)*
X75467640Y-78496160D02*
X74132440Y-77160960D01*
X76186060Y-78496160D02*
X75467640Y-78496160D01*
X74132440Y-77160960D02*
X74132440Y-73080880D01*
X71508360Y-70456800D02*
X67856600Y-70456800D01*
X74132440Y-73080880D02*
X71508360Y-70456800D01*
D20*
G04 #@! TO.N,Net-(R1-Pad2)*
X62890400Y-72103200D02*
X62890400Y-77266800D01*
G04 #@! TD*
D22*
G04 #@! TO.N,GND*
G36*
X53370560Y-61384000D02*
X53370560Y-63584000D01*
X53419843Y-63831765D01*
X53560191Y-64041809D01*
X53770235Y-64182157D01*
X54018000Y-64231440D01*
X56218000Y-64231440D01*
X56465765Y-64182157D01*
X56675809Y-64041809D01*
X56816157Y-63831765D01*
X56865440Y-63584000D01*
X56865440Y-61384000D01*
X56830830Y-61210000D01*
X66601759Y-61210000D01*
X66567135Y-61233135D01*
X66183666Y-61807037D01*
X66049010Y-62484000D01*
X66183666Y-63160963D01*
X66567135Y-63734865D01*
X67141037Y-64118334D01*
X67647120Y-64219000D01*
X67988880Y-64219000D01*
X68494963Y-64118334D01*
X69068865Y-63734865D01*
X69452334Y-63160963D01*
X69586990Y-62484000D01*
X69452334Y-61807037D01*
X69068865Y-61233135D01*
X69034241Y-61210000D01*
X77511673Y-61210000D01*
X77494143Y-61236235D01*
X77444860Y-61484000D01*
X77444860Y-63484000D01*
X77494143Y-63731765D01*
X77634491Y-63941809D01*
X77844535Y-64082157D01*
X78092300Y-64131440D01*
X79997300Y-64131440D01*
X80245065Y-64082157D01*
X80455109Y-63941809D01*
X80592055Y-63736857D01*
X80717876Y-63859973D01*
X81211820Y-64074563D01*
X81457800Y-63954594D01*
X81457800Y-62611000D01*
X81437800Y-62611000D01*
X81437800Y-62357000D01*
X81457800Y-62357000D01*
X81457800Y-62337000D01*
X81711800Y-62337000D01*
X81711800Y-62357000D01*
X81731800Y-62357000D01*
X81731800Y-62611000D01*
X81711800Y-62611000D01*
X81711800Y-63954594D01*
X81957780Y-64074563D01*
X82451724Y-63859973D01*
X82739801Y-63578090D01*
X82739800Y-64410314D01*
X82495115Y-64655000D01*
X64906407Y-64655000D01*
X64770000Y-64627867D01*
X64633593Y-64655000D01*
X64229600Y-64735359D01*
X63771471Y-65041471D01*
X63694202Y-65157112D01*
X62007512Y-66843803D01*
X61891872Y-66921071D01*
X61814603Y-67036712D01*
X61585759Y-67379201D01*
X61478267Y-67919600D01*
X61505401Y-68056011D01*
X61505400Y-70189606D01*
X61585759Y-70593599D01*
X61585825Y-70593697D01*
X61611273Y-70721636D01*
X61805814Y-71012786D01*
X61903713Y-71078200D01*
X61805814Y-71143614D01*
X61611273Y-71434764D01*
X61585825Y-71562703D01*
X61585759Y-71562801D01*
X61505400Y-71966794D01*
X61505401Y-77403207D01*
X61585760Y-77807200D01*
X61585824Y-77807296D01*
X61611273Y-77935236D01*
X61805814Y-78226386D01*
X61806997Y-78227177D01*
X61652073Y-78382102D01*
X61555400Y-78615491D01*
X61555400Y-79031050D01*
X61714150Y-79189800D01*
X62763400Y-79189800D01*
X62763400Y-79169800D01*
X63017400Y-79169800D01*
X63017400Y-79189800D01*
X64066650Y-79189800D01*
X64225400Y-79031050D01*
X64225400Y-78615491D01*
X64128727Y-78382102D01*
X63973803Y-78227177D01*
X63974986Y-78226386D01*
X64169527Y-77935236D01*
X64194975Y-77807299D01*
X64195041Y-77807200D01*
X64275400Y-77403207D01*
X64275400Y-71966793D01*
X64195041Y-71562800D01*
X64194975Y-71562701D01*
X64169527Y-71434764D01*
X63974986Y-71143614D01*
X63877087Y-71078200D01*
X63974986Y-71012786D01*
X64169527Y-70721636D01*
X64194975Y-70593699D01*
X64195041Y-70593600D01*
X64275400Y-70189607D01*
X64275400Y-68493285D01*
X65343686Y-67425000D01*
X75176761Y-67425000D01*
X75176760Y-72600871D01*
X75014049Y-72357356D01*
X74950729Y-72262591D01*
X74855964Y-72199271D01*
X72389973Y-69733282D01*
X72326649Y-69638511D01*
X71951215Y-69387654D01*
X71620143Y-69321800D01*
X71508360Y-69299565D01*
X71396577Y-69321800D01*
X68103271Y-69321800D01*
X68083957Y-69313800D01*
X67629243Y-69313800D01*
X67485310Y-69373419D01*
X67413745Y-69387654D01*
X67353076Y-69428192D01*
X67209142Y-69487811D01*
X67098979Y-69597974D01*
X67038311Y-69638511D01*
X66997774Y-69699179D01*
X66887611Y-69809342D01*
X66827992Y-69953276D01*
X66787454Y-70013945D01*
X66773219Y-70085510D01*
X66713600Y-70229443D01*
X66713600Y-70385236D01*
X66699365Y-70456800D01*
X66713600Y-70528364D01*
X66713600Y-70684157D01*
X66773219Y-70828090D01*
X66787454Y-70899655D01*
X66827992Y-70960324D01*
X66887611Y-71104258D01*
X66997774Y-71214421D01*
X67038311Y-71275089D01*
X67098979Y-71315626D01*
X67209142Y-71425789D01*
X67353076Y-71485408D01*
X67413745Y-71525946D01*
X67485310Y-71540181D01*
X67629243Y-71599800D01*
X68083957Y-71599800D01*
X68103271Y-71591800D01*
X71038229Y-71591800D01*
X72997441Y-73551014D01*
X72997440Y-77049177D01*
X72975205Y-77160960D01*
X72997440Y-77272742D01*
X73063294Y-77603814D01*
X73314151Y-77979249D01*
X73408922Y-78042573D01*
X74586029Y-79219681D01*
X74649351Y-79314449D01*
X74963201Y-79524157D01*
X75024785Y-79565306D01*
X75467640Y-79653395D01*
X75579423Y-79631160D01*
X75939389Y-79631160D01*
X75958703Y-79639160D01*
X76413417Y-79639160D01*
X76557350Y-79579541D01*
X76628915Y-79565306D01*
X76689584Y-79524768D01*
X76833518Y-79465149D01*
X76943681Y-79354986D01*
X77004349Y-79314449D01*
X77044886Y-79253781D01*
X77155049Y-79143618D01*
X77214668Y-78999684D01*
X77217951Y-78994770D01*
X84297520Y-78994770D01*
X84297520Y-80045330D01*
X84456270Y-80204080D01*
X87345520Y-80204080D01*
X87345520Y-78644830D01*
X87186770Y-78486080D01*
X84806211Y-78486080D01*
X84572822Y-78582753D01*
X84394193Y-78761381D01*
X84297520Y-78994770D01*
X77217951Y-78994770D01*
X77255206Y-78939015D01*
X77269441Y-78867450D01*
X77329060Y-78723517D01*
X77329060Y-78567724D01*
X77343295Y-78496160D01*
X77329060Y-78424596D01*
X77329060Y-78268803D01*
X77269441Y-78124870D01*
X77255206Y-78053305D01*
X77214668Y-77992636D01*
X77196188Y-77948019D01*
X77268049Y-77876158D01*
X77327668Y-77732224D01*
X77368206Y-77671555D01*
X77382441Y-77599990D01*
X77442060Y-77456057D01*
X77442060Y-77001343D01*
X77434060Y-76982029D01*
X77434060Y-76673211D01*
X77446760Y-76609363D01*
X77446760Y-76609362D01*
X77468995Y-76497580D01*
X77446760Y-76385797D01*
X77446760Y-71856830D01*
X84297520Y-71856830D01*
X84297520Y-72907390D01*
X84394193Y-73140779D01*
X84572822Y-73319407D01*
X84806211Y-73416080D01*
X87186770Y-73416080D01*
X87345520Y-73257330D01*
X87345520Y-71698080D01*
X84456270Y-71698080D01*
X84297520Y-71856830D01*
X77446760Y-71856830D01*
X77446760Y-70234770D01*
X84297520Y-70234770D01*
X84297520Y-71285330D01*
X84456270Y-71444080D01*
X87345520Y-71444080D01*
X87345520Y-69884830D01*
X87186770Y-69726080D01*
X84806211Y-69726080D01*
X84572822Y-69822753D01*
X84394193Y-70001381D01*
X84297520Y-70234770D01*
X77446760Y-70234770D01*
X77446760Y-67425000D01*
X82932393Y-67425000D01*
X83068800Y-67452133D01*
X83205207Y-67425000D01*
X83609200Y-67344641D01*
X84067329Y-67038529D01*
X84144599Y-66922886D01*
X85007690Y-66059796D01*
X85123328Y-65982529D01*
X85200595Y-65866891D01*
X85200597Y-65866889D01*
X85429441Y-65524400D01*
X85536933Y-64984000D01*
X85509800Y-64847593D01*
X85509800Y-63316122D01*
X85620191Y-63150910D01*
X85712300Y-62687849D01*
X85712300Y-62280150D01*
X85620191Y-61817089D01*
X85269323Y-61291977D01*
X85146635Y-61210000D01*
X89290001Y-61210000D01*
X89290001Y-69726080D01*
X87758270Y-69726080D01*
X87599520Y-69884830D01*
X87599520Y-71444080D01*
X87619520Y-71444080D01*
X87619520Y-71698080D01*
X87599520Y-71698080D01*
X87599520Y-73257330D01*
X87758270Y-73416080D01*
X89290000Y-73416080D01*
X89290000Y-78486080D01*
X87758270Y-78486080D01*
X87599520Y-78644830D01*
X87599520Y-80204080D01*
X87619520Y-80204080D01*
X87619520Y-80458080D01*
X87599520Y-80458080D01*
X87599520Y-80478080D01*
X87345520Y-80478080D01*
X87345520Y-80458080D01*
X84456270Y-80458080D01*
X84297520Y-80616830D01*
X84297520Y-81290000D01*
X51670800Y-81290000D01*
X51670800Y-80652390D01*
X51512050Y-80493640D01*
X48622800Y-80493640D01*
X48622800Y-80513640D01*
X48368800Y-80513640D01*
X48368800Y-80493640D01*
X48348800Y-80493640D01*
X48348800Y-80239640D01*
X48368800Y-80239640D01*
X48368800Y-78680390D01*
X48622800Y-78680390D01*
X48622800Y-80239640D01*
X51512050Y-80239640D01*
X51670800Y-80080890D01*
X51670800Y-79602550D01*
X61555400Y-79602550D01*
X61555400Y-80018109D01*
X61652073Y-80251498D01*
X61830701Y-80430127D01*
X62064090Y-80526800D01*
X62604650Y-80526800D01*
X62763400Y-80368050D01*
X62763400Y-79443800D01*
X63017400Y-79443800D01*
X63017400Y-80368050D01*
X63176150Y-80526800D01*
X63716710Y-80526800D01*
X63950099Y-80430127D01*
X64128727Y-80251498D01*
X64225400Y-80018109D01*
X64225400Y-79602550D01*
X64066650Y-79443800D01*
X63017400Y-79443800D01*
X62763400Y-79443800D01*
X61714150Y-79443800D01*
X61555400Y-79602550D01*
X51670800Y-79602550D01*
X51670800Y-79296800D01*
X64475467Y-79296800D01*
X64582959Y-79837200D01*
X64889071Y-80295329D01*
X65347200Y-80601441D01*
X65751193Y-80681800D01*
X68662142Y-80681800D01*
X68808599Y-80710932D01*
X69348999Y-80603440D01*
X69349095Y-80603376D01*
X69477036Y-80577927D01*
X69768186Y-80383386D01*
X69768977Y-80382203D01*
X69923902Y-80537127D01*
X70157291Y-80633800D01*
X70572850Y-80633800D01*
X70731600Y-80475050D01*
X70731600Y-79425800D01*
X70985600Y-79425800D01*
X70985600Y-80475050D01*
X71144350Y-80633800D01*
X71559909Y-80633800D01*
X71793298Y-80537127D01*
X71971927Y-80358499D01*
X72068600Y-80125110D01*
X72068600Y-79584550D01*
X71909850Y-79425800D01*
X70985600Y-79425800D01*
X70731600Y-79425800D01*
X70711600Y-79425800D01*
X70711600Y-79171800D01*
X70731600Y-79171800D01*
X70731600Y-78122550D01*
X70985600Y-78122550D01*
X70985600Y-79171800D01*
X71909850Y-79171800D01*
X72068600Y-79013050D01*
X72068600Y-78472490D01*
X71971927Y-78239101D01*
X71793298Y-78060473D01*
X71559909Y-77963800D01*
X71144350Y-77963800D01*
X70985600Y-78122550D01*
X70731600Y-78122550D01*
X70572850Y-77963800D01*
X70191600Y-77963800D01*
X70191600Y-76595200D01*
X70572850Y-76595200D01*
X70731600Y-76436450D01*
X70731600Y-75387200D01*
X70985600Y-75387200D01*
X70985600Y-76436450D01*
X71144350Y-76595200D01*
X71559909Y-76595200D01*
X71793298Y-76498527D01*
X71971927Y-76319899D01*
X72068600Y-76086510D01*
X72068600Y-75545950D01*
X71909850Y-75387200D01*
X70985600Y-75387200D01*
X70731600Y-75387200D01*
X70711600Y-75387200D01*
X70711600Y-75133200D01*
X70731600Y-75133200D01*
X70731600Y-74083950D01*
X70985600Y-74083950D01*
X70985600Y-75133200D01*
X71909850Y-75133200D01*
X72068600Y-74974450D01*
X72068600Y-74433890D01*
X71971927Y-74200501D01*
X71793298Y-74021873D01*
X71559909Y-73925200D01*
X71144350Y-73925200D01*
X70985600Y-74083950D01*
X70731600Y-74083950D01*
X70572850Y-73925200D01*
X70191600Y-73925200D01*
X70191600Y-73320393D01*
X70111241Y-72916400D01*
X69805128Y-72458271D01*
X69346999Y-72152159D01*
X68806600Y-72044667D01*
X68266200Y-72152159D01*
X67808071Y-72458272D01*
X67501959Y-72916401D01*
X67421600Y-73320394D01*
X67421601Y-77911800D01*
X65751193Y-77911800D01*
X65347200Y-77992159D01*
X64889071Y-78298271D01*
X64582959Y-78756400D01*
X64475467Y-79296800D01*
X51670800Y-79296800D01*
X51670800Y-79030330D01*
X51574127Y-78796941D01*
X51395498Y-78618313D01*
X51162109Y-78521640D01*
X48781550Y-78521640D01*
X48622800Y-78680390D01*
X48368800Y-78680390D01*
X48210050Y-78521640D01*
X46710000Y-78521640D01*
X46710000Y-73451640D01*
X48210050Y-73451640D01*
X48368800Y-73292890D01*
X48368800Y-71733640D01*
X48622800Y-71733640D01*
X48622800Y-73292890D01*
X48781550Y-73451640D01*
X51162109Y-73451640D01*
X51395498Y-73354967D01*
X51574127Y-73176339D01*
X51670800Y-72942950D01*
X51670800Y-71892390D01*
X51512050Y-71733640D01*
X48622800Y-71733640D01*
X48368800Y-71733640D01*
X48348800Y-71733640D01*
X48348800Y-71479640D01*
X48368800Y-71479640D01*
X48368800Y-69920390D01*
X48622800Y-69920390D01*
X48622800Y-71479640D01*
X51512050Y-71479640D01*
X51670800Y-71320890D01*
X51670800Y-70270330D01*
X51574127Y-70036941D01*
X51395498Y-69858313D01*
X51162109Y-69761640D01*
X48781550Y-69761640D01*
X48622800Y-69920390D01*
X48368800Y-69920390D01*
X48210050Y-69761640D01*
X46710000Y-69761640D01*
X46710000Y-65644162D01*
X46774995Y-65801084D01*
X47165282Y-66229343D01*
X47689748Y-66475646D01*
X47919640Y-66354979D01*
X47919640Y-65161160D01*
X48173640Y-65161160D01*
X48173640Y-66354979D01*
X48403532Y-66475646D01*
X48927998Y-66229343D01*
X49318285Y-65801084D01*
X49488116Y-65391050D01*
X49366795Y-65161160D01*
X48173640Y-65161160D01*
X47919640Y-65161160D01*
X47899640Y-65161160D01*
X47899640Y-64907160D01*
X47919640Y-64907160D01*
X47919640Y-64887160D01*
X48173640Y-64887160D01*
X48173640Y-64907160D01*
X49366795Y-64907160D01*
X49488116Y-64677270D01*
X49318285Y-64267236D01*
X49040932Y-63962899D01*
X49144405Y-63942317D01*
X49354449Y-63801969D01*
X49494797Y-63591925D01*
X49544080Y-63344160D01*
X49544080Y-61644160D01*
X49494797Y-61396395D01*
X49370251Y-61210000D01*
X53405170Y-61210000D01*
X53370560Y-61384000D01*
X53370560Y-61384000D01*
G37*
X53370560Y-61384000D02*
X53370560Y-63584000D01*
X53419843Y-63831765D01*
X53560191Y-64041809D01*
X53770235Y-64182157D01*
X54018000Y-64231440D01*
X56218000Y-64231440D01*
X56465765Y-64182157D01*
X56675809Y-64041809D01*
X56816157Y-63831765D01*
X56865440Y-63584000D01*
X56865440Y-61384000D01*
X56830830Y-61210000D01*
X66601759Y-61210000D01*
X66567135Y-61233135D01*
X66183666Y-61807037D01*
X66049010Y-62484000D01*
X66183666Y-63160963D01*
X66567135Y-63734865D01*
X67141037Y-64118334D01*
X67647120Y-64219000D01*
X67988880Y-64219000D01*
X68494963Y-64118334D01*
X69068865Y-63734865D01*
X69452334Y-63160963D01*
X69586990Y-62484000D01*
X69452334Y-61807037D01*
X69068865Y-61233135D01*
X69034241Y-61210000D01*
X77511673Y-61210000D01*
X77494143Y-61236235D01*
X77444860Y-61484000D01*
X77444860Y-63484000D01*
X77494143Y-63731765D01*
X77634491Y-63941809D01*
X77844535Y-64082157D01*
X78092300Y-64131440D01*
X79997300Y-64131440D01*
X80245065Y-64082157D01*
X80455109Y-63941809D01*
X80592055Y-63736857D01*
X80717876Y-63859973D01*
X81211820Y-64074563D01*
X81457800Y-63954594D01*
X81457800Y-62611000D01*
X81437800Y-62611000D01*
X81437800Y-62357000D01*
X81457800Y-62357000D01*
X81457800Y-62337000D01*
X81711800Y-62337000D01*
X81711800Y-62357000D01*
X81731800Y-62357000D01*
X81731800Y-62611000D01*
X81711800Y-62611000D01*
X81711800Y-63954594D01*
X81957780Y-64074563D01*
X82451724Y-63859973D01*
X82739801Y-63578090D01*
X82739800Y-64410314D01*
X82495115Y-64655000D01*
X64906407Y-64655000D01*
X64770000Y-64627867D01*
X64633593Y-64655000D01*
X64229600Y-64735359D01*
X63771471Y-65041471D01*
X63694202Y-65157112D01*
X62007512Y-66843803D01*
X61891872Y-66921071D01*
X61814603Y-67036712D01*
X61585759Y-67379201D01*
X61478267Y-67919600D01*
X61505401Y-68056011D01*
X61505400Y-70189606D01*
X61585759Y-70593599D01*
X61585825Y-70593697D01*
X61611273Y-70721636D01*
X61805814Y-71012786D01*
X61903713Y-71078200D01*
X61805814Y-71143614D01*
X61611273Y-71434764D01*
X61585825Y-71562703D01*
X61585759Y-71562801D01*
X61505400Y-71966794D01*
X61505401Y-77403207D01*
X61585760Y-77807200D01*
X61585824Y-77807296D01*
X61611273Y-77935236D01*
X61805814Y-78226386D01*
X61806997Y-78227177D01*
X61652073Y-78382102D01*
X61555400Y-78615491D01*
X61555400Y-79031050D01*
X61714150Y-79189800D01*
X62763400Y-79189800D01*
X62763400Y-79169800D01*
X63017400Y-79169800D01*
X63017400Y-79189800D01*
X64066650Y-79189800D01*
X64225400Y-79031050D01*
X64225400Y-78615491D01*
X64128727Y-78382102D01*
X63973803Y-78227177D01*
X63974986Y-78226386D01*
X64169527Y-77935236D01*
X64194975Y-77807299D01*
X64195041Y-77807200D01*
X64275400Y-77403207D01*
X64275400Y-71966793D01*
X64195041Y-71562800D01*
X64194975Y-71562701D01*
X64169527Y-71434764D01*
X63974986Y-71143614D01*
X63877087Y-71078200D01*
X63974986Y-71012786D01*
X64169527Y-70721636D01*
X64194975Y-70593699D01*
X64195041Y-70593600D01*
X64275400Y-70189607D01*
X64275400Y-68493285D01*
X65343686Y-67425000D01*
X75176761Y-67425000D01*
X75176760Y-72600871D01*
X75014049Y-72357356D01*
X74950729Y-72262591D01*
X74855964Y-72199271D01*
X72389973Y-69733282D01*
X72326649Y-69638511D01*
X71951215Y-69387654D01*
X71620143Y-69321800D01*
X71508360Y-69299565D01*
X71396577Y-69321800D01*
X68103271Y-69321800D01*
X68083957Y-69313800D01*
X67629243Y-69313800D01*
X67485310Y-69373419D01*
X67413745Y-69387654D01*
X67353076Y-69428192D01*
X67209142Y-69487811D01*
X67098979Y-69597974D01*
X67038311Y-69638511D01*
X66997774Y-69699179D01*
X66887611Y-69809342D01*
X66827992Y-69953276D01*
X66787454Y-70013945D01*
X66773219Y-70085510D01*
X66713600Y-70229443D01*
X66713600Y-70385236D01*
X66699365Y-70456800D01*
X66713600Y-70528364D01*
X66713600Y-70684157D01*
X66773219Y-70828090D01*
X66787454Y-70899655D01*
X66827992Y-70960324D01*
X66887611Y-71104258D01*
X66997774Y-71214421D01*
X67038311Y-71275089D01*
X67098979Y-71315626D01*
X67209142Y-71425789D01*
X67353076Y-71485408D01*
X67413745Y-71525946D01*
X67485310Y-71540181D01*
X67629243Y-71599800D01*
X68083957Y-71599800D01*
X68103271Y-71591800D01*
X71038229Y-71591800D01*
X72997441Y-73551014D01*
X72997440Y-77049177D01*
X72975205Y-77160960D01*
X72997440Y-77272742D01*
X73063294Y-77603814D01*
X73314151Y-77979249D01*
X73408922Y-78042573D01*
X74586029Y-79219681D01*
X74649351Y-79314449D01*
X74963201Y-79524157D01*
X75024785Y-79565306D01*
X75467640Y-79653395D01*
X75579423Y-79631160D01*
X75939389Y-79631160D01*
X75958703Y-79639160D01*
X76413417Y-79639160D01*
X76557350Y-79579541D01*
X76628915Y-79565306D01*
X76689584Y-79524768D01*
X76833518Y-79465149D01*
X76943681Y-79354986D01*
X77004349Y-79314449D01*
X77044886Y-79253781D01*
X77155049Y-79143618D01*
X77214668Y-78999684D01*
X77217951Y-78994770D01*
X84297520Y-78994770D01*
X84297520Y-80045330D01*
X84456270Y-80204080D01*
X87345520Y-80204080D01*
X87345520Y-78644830D01*
X87186770Y-78486080D01*
X84806211Y-78486080D01*
X84572822Y-78582753D01*
X84394193Y-78761381D01*
X84297520Y-78994770D01*
X77217951Y-78994770D01*
X77255206Y-78939015D01*
X77269441Y-78867450D01*
X77329060Y-78723517D01*
X77329060Y-78567724D01*
X77343295Y-78496160D01*
X77329060Y-78424596D01*
X77329060Y-78268803D01*
X77269441Y-78124870D01*
X77255206Y-78053305D01*
X77214668Y-77992636D01*
X77196188Y-77948019D01*
X77268049Y-77876158D01*
X77327668Y-77732224D01*
X77368206Y-77671555D01*
X77382441Y-77599990D01*
X77442060Y-77456057D01*
X77442060Y-77001343D01*
X77434060Y-76982029D01*
X77434060Y-76673211D01*
X77446760Y-76609363D01*
X77446760Y-76609362D01*
X77468995Y-76497580D01*
X77446760Y-76385797D01*
X77446760Y-71856830D01*
X84297520Y-71856830D01*
X84297520Y-72907390D01*
X84394193Y-73140779D01*
X84572822Y-73319407D01*
X84806211Y-73416080D01*
X87186770Y-73416080D01*
X87345520Y-73257330D01*
X87345520Y-71698080D01*
X84456270Y-71698080D01*
X84297520Y-71856830D01*
X77446760Y-71856830D01*
X77446760Y-70234770D01*
X84297520Y-70234770D01*
X84297520Y-71285330D01*
X84456270Y-71444080D01*
X87345520Y-71444080D01*
X87345520Y-69884830D01*
X87186770Y-69726080D01*
X84806211Y-69726080D01*
X84572822Y-69822753D01*
X84394193Y-70001381D01*
X84297520Y-70234770D01*
X77446760Y-70234770D01*
X77446760Y-67425000D01*
X82932393Y-67425000D01*
X83068800Y-67452133D01*
X83205207Y-67425000D01*
X83609200Y-67344641D01*
X84067329Y-67038529D01*
X84144599Y-66922886D01*
X85007690Y-66059796D01*
X85123328Y-65982529D01*
X85200595Y-65866891D01*
X85200597Y-65866889D01*
X85429441Y-65524400D01*
X85536933Y-64984000D01*
X85509800Y-64847593D01*
X85509800Y-63316122D01*
X85620191Y-63150910D01*
X85712300Y-62687849D01*
X85712300Y-62280150D01*
X85620191Y-61817089D01*
X85269323Y-61291977D01*
X85146635Y-61210000D01*
X89290001Y-61210000D01*
X89290001Y-69726080D01*
X87758270Y-69726080D01*
X87599520Y-69884830D01*
X87599520Y-71444080D01*
X87619520Y-71444080D01*
X87619520Y-71698080D01*
X87599520Y-71698080D01*
X87599520Y-73257330D01*
X87758270Y-73416080D01*
X89290000Y-73416080D01*
X89290000Y-78486080D01*
X87758270Y-78486080D01*
X87599520Y-78644830D01*
X87599520Y-80204080D01*
X87619520Y-80204080D01*
X87619520Y-80458080D01*
X87599520Y-80458080D01*
X87599520Y-80478080D01*
X87345520Y-80478080D01*
X87345520Y-80458080D01*
X84456270Y-80458080D01*
X84297520Y-80616830D01*
X84297520Y-81290000D01*
X51670800Y-81290000D01*
X51670800Y-80652390D01*
X51512050Y-80493640D01*
X48622800Y-80493640D01*
X48622800Y-80513640D01*
X48368800Y-80513640D01*
X48368800Y-80493640D01*
X48348800Y-80493640D01*
X48348800Y-80239640D01*
X48368800Y-80239640D01*
X48368800Y-78680390D01*
X48622800Y-78680390D01*
X48622800Y-80239640D01*
X51512050Y-80239640D01*
X51670800Y-80080890D01*
X51670800Y-79602550D01*
X61555400Y-79602550D01*
X61555400Y-80018109D01*
X61652073Y-80251498D01*
X61830701Y-80430127D01*
X62064090Y-80526800D01*
X62604650Y-80526800D01*
X62763400Y-80368050D01*
X62763400Y-79443800D01*
X63017400Y-79443800D01*
X63017400Y-80368050D01*
X63176150Y-80526800D01*
X63716710Y-80526800D01*
X63950099Y-80430127D01*
X64128727Y-80251498D01*
X64225400Y-80018109D01*
X64225400Y-79602550D01*
X64066650Y-79443800D01*
X63017400Y-79443800D01*
X62763400Y-79443800D01*
X61714150Y-79443800D01*
X61555400Y-79602550D01*
X51670800Y-79602550D01*
X51670800Y-79296800D01*
X64475467Y-79296800D01*
X64582959Y-79837200D01*
X64889071Y-80295329D01*
X65347200Y-80601441D01*
X65751193Y-80681800D01*
X68662142Y-80681800D01*
X68808599Y-80710932D01*
X69348999Y-80603440D01*
X69349095Y-80603376D01*
X69477036Y-80577927D01*
X69768186Y-80383386D01*
X69768977Y-80382203D01*
X69923902Y-80537127D01*
X70157291Y-80633800D01*
X70572850Y-80633800D01*
X70731600Y-80475050D01*
X70731600Y-79425800D01*
X70985600Y-79425800D01*
X70985600Y-80475050D01*
X71144350Y-80633800D01*
X71559909Y-80633800D01*
X71793298Y-80537127D01*
X71971927Y-80358499D01*
X72068600Y-80125110D01*
X72068600Y-79584550D01*
X71909850Y-79425800D01*
X70985600Y-79425800D01*
X70731600Y-79425800D01*
X70711600Y-79425800D01*
X70711600Y-79171800D01*
X70731600Y-79171800D01*
X70731600Y-78122550D01*
X70985600Y-78122550D01*
X70985600Y-79171800D01*
X71909850Y-79171800D01*
X72068600Y-79013050D01*
X72068600Y-78472490D01*
X71971927Y-78239101D01*
X71793298Y-78060473D01*
X71559909Y-77963800D01*
X71144350Y-77963800D01*
X70985600Y-78122550D01*
X70731600Y-78122550D01*
X70572850Y-77963800D01*
X70191600Y-77963800D01*
X70191600Y-76595200D01*
X70572850Y-76595200D01*
X70731600Y-76436450D01*
X70731600Y-75387200D01*
X70985600Y-75387200D01*
X70985600Y-76436450D01*
X71144350Y-76595200D01*
X71559909Y-76595200D01*
X71793298Y-76498527D01*
X71971927Y-76319899D01*
X72068600Y-76086510D01*
X72068600Y-75545950D01*
X71909850Y-75387200D01*
X70985600Y-75387200D01*
X70731600Y-75387200D01*
X70711600Y-75387200D01*
X70711600Y-75133200D01*
X70731600Y-75133200D01*
X70731600Y-74083950D01*
X70985600Y-74083950D01*
X70985600Y-75133200D01*
X71909850Y-75133200D01*
X72068600Y-74974450D01*
X72068600Y-74433890D01*
X71971927Y-74200501D01*
X71793298Y-74021873D01*
X71559909Y-73925200D01*
X71144350Y-73925200D01*
X70985600Y-74083950D01*
X70731600Y-74083950D01*
X70572850Y-73925200D01*
X70191600Y-73925200D01*
X70191600Y-73320393D01*
X70111241Y-72916400D01*
X69805128Y-72458271D01*
X69346999Y-72152159D01*
X68806600Y-72044667D01*
X68266200Y-72152159D01*
X67808071Y-72458272D01*
X67501959Y-72916401D01*
X67421600Y-73320394D01*
X67421601Y-77911800D01*
X65751193Y-77911800D01*
X65347200Y-77992159D01*
X64889071Y-78298271D01*
X64582959Y-78756400D01*
X64475467Y-79296800D01*
X51670800Y-79296800D01*
X51670800Y-79030330D01*
X51574127Y-78796941D01*
X51395498Y-78618313D01*
X51162109Y-78521640D01*
X48781550Y-78521640D01*
X48622800Y-78680390D01*
X48368800Y-78680390D01*
X48210050Y-78521640D01*
X46710000Y-78521640D01*
X46710000Y-73451640D01*
X48210050Y-73451640D01*
X48368800Y-73292890D01*
X48368800Y-71733640D01*
X48622800Y-71733640D01*
X48622800Y-73292890D01*
X48781550Y-73451640D01*
X51162109Y-73451640D01*
X51395498Y-73354967D01*
X51574127Y-73176339D01*
X51670800Y-72942950D01*
X51670800Y-71892390D01*
X51512050Y-71733640D01*
X48622800Y-71733640D01*
X48368800Y-71733640D01*
X48348800Y-71733640D01*
X48348800Y-71479640D01*
X48368800Y-71479640D01*
X48368800Y-69920390D01*
X48622800Y-69920390D01*
X48622800Y-71479640D01*
X51512050Y-71479640D01*
X51670800Y-71320890D01*
X51670800Y-70270330D01*
X51574127Y-70036941D01*
X51395498Y-69858313D01*
X51162109Y-69761640D01*
X48781550Y-69761640D01*
X48622800Y-69920390D01*
X48368800Y-69920390D01*
X48210050Y-69761640D01*
X46710000Y-69761640D01*
X46710000Y-65644162D01*
X46774995Y-65801084D01*
X47165282Y-66229343D01*
X47689748Y-66475646D01*
X47919640Y-66354979D01*
X47919640Y-65161160D01*
X48173640Y-65161160D01*
X48173640Y-66354979D01*
X48403532Y-66475646D01*
X48927998Y-66229343D01*
X49318285Y-65801084D01*
X49488116Y-65391050D01*
X49366795Y-65161160D01*
X48173640Y-65161160D01*
X47919640Y-65161160D01*
X47899640Y-65161160D01*
X47899640Y-64907160D01*
X47919640Y-64907160D01*
X47919640Y-64887160D01*
X48173640Y-64887160D01*
X48173640Y-64907160D01*
X49366795Y-64907160D01*
X49488116Y-64677270D01*
X49318285Y-64267236D01*
X49040932Y-63962899D01*
X49144405Y-63942317D01*
X49354449Y-63801969D01*
X49494797Y-63591925D01*
X49544080Y-63344160D01*
X49544080Y-61644160D01*
X49494797Y-61396395D01*
X49370251Y-61210000D01*
X53405170Y-61210000D01*
X53370560Y-61384000D01*
G04 #@! TD*
M02*
