G04 #@! TF.GenerationSoftware,KiCad,Pcbnew,(5.1.0)-1*
G04 #@! TF.CreationDate,2019-05-07T15:38:39-07:00*
G04 #@! TF.ProjectId,ADC Amplifier,41444320-416d-4706-9c69-666965722e6b,rev?*
G04 #@! TF.SameCoordinates,Original*
G04 #@! TF.FileFunction,Copper,L2,Bot*
G04 #@! TF.FilePolarity,Positive*
%FSLAX46Y46*%
G04 Gerber Fmt 4.6, Leading zero omitted, Abs format (unit mm)*
G04 Created by KiCad (PCBNEW (5.1.0)-1) date 2019-05-07 15:38:39*
%MOMM*%
%LPD*%
G04 APERTURE LIST*
%ADD10O,1.700000X1.700000*%
%ADD11R,1.700000X1.700000*%
%ADD12R,5.080000X1.500000*%
%ADD13R,1.500000X5.080000*%
%ADD14C,2.500000*%
%ADD15C,0.635000*%
%ADD16C,0.381000*%
%ADD17C,0.254000*%
G04 APERTURE END LIST*
D10*
X241300000Y-133350000D03*
X241300000Y-130810000D03*
D11*
X241300000Y-128270000D03*
D12*
X240030000Y-115130000D03*
X240030000Y-123630000D03*
D13*
X211800000Y-134620000D03*
X203300000Y-134620000D03*
D10*
X226060000Y-114300000D03*
X228600000Y-114300000D03*
D11*
X231140000Y-114300000D03*
D14*
X203200000Y-115570000D03*
X209550000Y-115570000D03*
X203200000Y-119380000D03*
X219710000Y-114300000D03*
X219710000Y-118110000D03*
X228600000Y-121412000D03*
X216916000Y-127254000D03*
X222758008Y-116840000D03*
D15*
X231140000Y-114300000D02*
X231140000Y-118872000D01*
X231140000Y-118872000D02*
X228600000Y-121412000D01*
X235458000Y-128270000D02*
X241300000Y-128270000D01*
X228600000Y-121412000D02*
X235458000Y-128270000D01*
X241300000Y-130810000D02*
X220472000Y-130810000D01*
X218165999Y-128503999D02*
X216916000Y-127254000D01*
X220472000Y-130810000D02*
X218165999Y-128503999D01*
D16*
X228600000Y-114300000D02*
X226060000Y-116840000D01*
X226060000Y-116840000D02*
X224525774Y-116840000D01*
X224525774Y-116840000D02*
X222758008Y-116840000D01*
D17*
G36*
X241986601Y-126884020D02*
G01*
X240450000Y-126884020D01*
X240345435Y-126894319D01*
X240244889Y-126924819D01*
X240152225Y-126974349D01*
X240071005Y-127041005D01*
X240004349Y-127122225D01*
X239954819Y-127214889D01*
X239924319Y-127315435D01*
X239914109Y-127419100D01*
X235810454Y-127419100D01*
X230316306Y-121924952D01*
X230383400Y-121587650D01*
X230383400Y-121236350D01*
X230316306Y-120899048D01*
X231712120Y-119503234D01*
X231744588Y-119476588D01*
X231850921Y-119347022D01*
X231929933Y-119199201D01*
X231978588Y-119038806D01*
X231990900Y-118913800D01*
X231990900Y-118913794D01*
X231995016Y-118872001D01*
X231990900Y-118830208D01*
X231990900Y-115685891D01*
X232094565Y-115675681D01*
X232195111Y-115645181D01*
X232287775Y-115595651D01*
X232368995Y-115528995D01*
X232435651Y-115447775D01*
X232485181Y-115355111D01*
X232515681Y-115254565D01*
X232525980Y-115150000D01*
X232525980Y-113450000D01*
X232515681Y-113345435D01*
X232485181Y-113244889D01*
X232435651Y-113152225D01*
X232368995Y-113071005D01*
X232287775Y-113004349D01*
X232195111Y-112954819D01*
X232094565Y-112924319D01*
X231990000Y-112914020D01*
X230290000Y-112914020D01*
X230185435Y-112924319D01*
X230084889Y-112954819D01*
X229992225Y-113004349D01*
X229911005Y-113071005D01*
X229844349Y-113152225D01*
X229794819Y-113244889D01*
X229764319Y-113345435D01*
X229754020Y-113450000D01*
X229754020Y-113525513D01*
X229582944Y-113317056D01*
X229372294Y-113144180D01*
X229131966Y-113015722D01*
X228871194Y-112936617D01*
X228667956Y-112916600D01*
X228532044Y-112916600D01*
X228328806Y-112936617D01*
X228068034Y-113015722D01*
X227827706Y-113144180D01*
X227617056Y-113317056D01*
X227444180Y-113527706D01*
X227315722Y-113768034D01*
X227236617Y-114028806D01*
X227209907Y-114300000D01*
X227236617Y-114571194D01*
X227252546Y-114623705D01*
X225760152Y-116116100D01*
X224388497Y-116116100D01*
X224338436Y-115995243D01*
X224143265Y-115703149D01*
X223894859Y-115454743D01*
X223602765Y-115259572D01*
X223278207Y-115125135D01*
X222933658Y-115056600D01*
X222582358Y-115056600D01*
X222237809Y-115125135D01*
X221913251Y-115259572D01*
X221621157Y-115454743D01*
X221372751Y-115703149D01*
X221177580Y-115995243D01*
X221043143Y-116319801D01*
X220974608Y-116664350D01*
X220974608Y-117015650D01*
X221043143Y-117360199D01*
X221177580Y-117684757D01*
X221372751Y-117976851D01*
X221621157Y-118225257D01*
X221913251Y-118420428D01*
X222237809Y-118554865D01*
X222582358Y-118623400D01*
X222933658Y-118623400D01*
X223278207Y-118554865D01*
X223602765Y-118420428D01*
X223894859Y-118225257D01*
X224143265Y-117976851D01*
X224338436Y-117684757D01*
X224388497Y-117563900D01*
X226024444Y-117563900D01*
X226060000Y-117567402D01*
X226201909Y-117553425D01*
X226338365Y-117512032D01*
X226464123Y-117444813D01*
X226574351Y-117354351D01*
X226597024Y-117326725D01*
X228276295Y-115647454D01*
X228328806Y-115663383D01*
X228532044Y-115683400D01*
X228667956Y-115683400D01*
X228871194Y-115663383D01*
X229131966Y-115584278D01*
X229372294Y-115455820D01*
X229582944Y-115282944D01*
X229754020Y-115074487D01*
X229754020Y-115150000D01*
X229764319Y-115254565D01*
X229794819Y-115355111D01*
X229844349Y-115447775D01*
X229911005Y-115528995D01*
X229992225Y-115595651D01*
X230084889Y-115645181D01*
X230185435Y-115675681D01*
X230289100Y-115685891D01*
X230289101Y-118519545D01*
X229112952Y-119695694D01*
X228775650Y-119628600D01*
X228424350Y-119628600D01*
X228079801Y-119697135D01*
X227755243Y-119831572D01*
X227463149Y-120026743D01*
X227214743Y-120275149D01*
X227019572Y-120567243D01*
X226885135Y-120891801D01*
X226816600Y-121236350D01*
X226816600Y-121587650D01*
X226885135Y-121932199D01*
X227019572Y-122256757D01*
X227214743Y-122548851D01*
X227463149Y-122797257D01*
X227755243Y-122992428D01*
X228079801Y-123126865D01*
X228424350Y-123195400D01*
X228775650Y-123195400D01*
X229112952Y-123128306D01*
X234826766Y-128842120D01*
X234853412Y-128874588D01*
X234982978Y-128980921D01*
X235130799Y-129059933D01*
X235291194Y-129108588D01*
X235416200Y-129120900D01*
X235416207Y-129120900D01*
X235458000Y-129125016D01*
X235499793Y-129120900D01*
X239914109Y-129120900D01*
X239924319Y-129224565D01*
X239954819Y-129325111D01*
X240004349Y-129417775D01*
X240071005Y-129498995D01*
X240152225Y-129565651D01*
X240244889Y-129615181D01*
X240345435Y-129645681D01*
X240450000Y-129655980D01*
X240525513Y-129655980D01*
X240317056Y-129827056D01*
X240208690Y-129959100D01*
X220824455Y-129959100D01*
X218738119Y-127872765D01*
X218632306Y-127766952D01*
X218699400Y-127429650D01*
X218699400Y-127078350D01*
X218630865Y-126733801D01*
X218496428Y-126409243D01*
X218301257Y-126117149D01*
X218052851Y-125868743D01*
X217760757Y-125673572D01*
X217436199Y-125539135D01*
X217091650Y-125470600D01*
X216740350Y-125470600D01*
X216395801Y-125539135D01*
X216071243Y-125673572D01*
X215779149Y-125868743D01*
X215530743Y-126117149D01*
X215335572Y-126409243D01*
X215201135Y-126733801D01*
X215132600Y-127078350D01*
X215132600Y-127429650D01*
X215201135Y-127774199D01*
X215335572Y-128098757D01*
X215530743Y-128390851D01*
X215779149Y-128639257D01*
X216071243Y-128834428D01*
X216395801Y-128968865D01*
X216740350Y-129037400D01*
X217091650Y-129037400D01*
X217428952Y-128970306D01*
X217534765Y-129076119D01*
X219840770Y-131382125D01*
X219867412Y-131414588D01*
X219899875Y-131441230D01*
X219899879Y-131441234D01*
X219942678Y-131476358D01*
X219996978Y-131520921D01*
X220144799Y-131599933D01*
X220305194Y-131648588D01*
X220430200Y-131660900D01*
X220430207Y-131660900D01*
X220472000Y-131665016D01*
X220513793Y-131660900D01*
X240208690Y-131660900D01*
X240317056Y-131792944D01*
X240527706Y-131965820D01*
X240768034Y-132094278D01*
X241028806Y-132173383D01*
X241232044Y-132193400D01*
X241367956Y-132193400D01*
X241571194Y-132173383D01*
X241831966Y-132094278D01*
X241986601Y-132011624D01*
X241986601Y-136576600D01*
X201243400Y-136576600D01*
X201243400Y-112343400D01*
X241986600Y-112343400D01*
X241986601Y-126884020D01*
X241986601Y-126884020D01*
G37*
X241986601Y-126884020D02*
X240450000Y-126884020D01*
X240345435Y-126894319D01*
X240244889Y-126924819D01*
X240152225Y-126974349D01*
X240071005Y-127041005D01*
X240004349Y-127122225D01*
X239954819Y-127214889D01*
X239924319Y-127315435D01*
X239914109Y-127419100D01*
X235810454Y-127419100D01*
X230316306Y-121924952D01*
X230383400Y-121587650D01*
X230383400Y-121236350D01*
X230316306Y-120899048D01*
X231712120Y-119503234D01*
X231744588Y-119476588D01*
X231850921Y-119347022D01*
X231929933Y-119199201D01*
X231978588Y-119038806D01*
X231990900Y-118913800D01*
X231990900Y-118913794D01*
X231995016Y-118872001D01*
X231990900Y-118830208D01*
X231990900Y-115685891D01*
X232094565Y-115675681D01*
X232195111Y-115645181D01*
X232287775Y-115595651D01*
X232368995Y-115528995D01*
X232435651Y-115447775D01*
X232485181Y-115355111D01*
X232515681Y-115254565D01*
X232525980Y-115150000D01*
X232525980Y-113450000D01*
X232515681Y-113345435D01*
X232485181Y-113244889D01*
X232435651Y-113152225D01*
X232368995Y-113071005D01*
X232287775Y-113004349D01*
X232195111Y-112954819D01*
X232094565Y-112924319D01*
X231990000Y-112914020D01*
X230290000Y-112914020D01*
X230185435Y-112924319D01*
X230084889Y-112954819D01*
X229992225Y-113004349D01*
X229911005Y-113071005D01*
X229844349Y-113152225D01*
X229794819Y-113244889D01*
X229764319Y-113345435D01*
X229754020Y-113450000D01*
X229754020Y-113525513D01*
X229582944Y-113317056D01*
X229372294Y-113144180D01*
X229131966Y-113015722D01*
X228871194Y-112936617D01*
X228667956Y-112916600D01*
X228532044Y-112916600D01*
X228328806Y-112936617D01*
X228068034Y-113015722D01*
X227827706Y-113144180D01*
X227617056Y-113317056D01*
X227444180Y-113527706D01*
X227315722Y-113768034D01*
X227236617Y-114028806D01*
X227209907Y-114300000D01*
X227236617Y-114571194D01*
X227252546Y-114623705D01*
X225760152Y-116116100D01*
X224388497Y-116116100D01*
X224338436Y-115995243D01*
X224143265Y-115703149D01*
X223894859Y-115454743D01*
X223602765Y-115259572D01*
X223278207Y-115125135D01*
X222933658Y-115056600D01*
X222582358Y-115056600D01*
X222237809Y-115125135D01*
X221913251Y-115259572D01*
X221621157Y-115454743D01*
X221372751Y-115703149D01*
X221177580Y-115995243D01*
X221043143Y-116319801D01*
X220974608Y-116664350D01*
X220974608Y-117015650D01*
X221043143Y-117360199D01*
X221177580Y-117684757D01*
X221372751Y-117976851D01*
X221621157Y-118225257D01*
X221913251Y-118420428D01*
X222237809Y-118554865D01*
X222582358Y-118623400D01*
X222933658Y-118623400D01*
X223278207Y-118554865D01*
X223602765Y-118420428D01*
X223894859Y-118225257D01*
X224143265Y-117976851D01*
X224338436Y-117684757D01*
X224388497Y-117563900D01*
X226024444Y-117563900D01*
X226060000Y-117567402D01*
X226201909Y-117553425D01*
X226338365Y-117512032D01*
X226464123Y-117444813D01*
X226574351Y-117354351D01*
X226597024Y-117326725D01*
X228276295Y-115647454D01*
X228328806Y-115663383D01*
X228532044Y-115683400D01*
X228667956Y-115683400D01*
X228871194Y-115663383D01*
X229131966Y-115584278D01*
X229372294Y-115455820D01*
X229582944Y-115282944D01*
X229754020Y-115074487D01*
X229754020Y-115150000D01*
X229764319Y-115254565D01*
X229794819Y-115355111D01*
X229844349Y-115447775D01*
X229911005Y-115528995D01*
X229992225Y-115595651D01*
X230084889Y-115645181D01*
X230185435Y-115675681D01*
X230289100Y-115685891D01*
X230289101Y-118519545D01*
X229112952Y-119695694D01*
X228775650Y-119628600D01*
X228424350Y-119628600D01*
X228079801Y-119697135D01*
X227755243Y-119831572D01*
X227463149Y-120026743D01*
X227214743Y-120275149D01*
X227019572Y-120567243D01*
X226885135Y-120891801D01*
X226816600Y-121236350D01*
X226816600Y-121587650D01*
X226885135Y-121932199D01*
X227019572Y-122256757D01*
X227214743Y-122548851D01*
X227463149Y-122797257D01*
X227755243Y-122992428D01*
X228079801Y-123126865D01*
X228424350Y-123195400D01*
X228775650Y-123195400D01*
X229112952Y-123128306D01*
X234826766Y-128842120D01*
X234853412Y-128874588D01*
X234982978Y-128980921D01*
X235130799Y-129059933D01*
X235291194Y-129108588D01*
X235416200Y-129120900D01*
X235416207Y-129120900D01*
X235458000Y-129125016D01*
X235499793Y-129120900D01*
X239914109Y-129120900D01*
X239924319Y-129224565D01*
X239954819Y-129325111D01*
X240004349Y-129417775D01*
X240071005Y-129498995D01*
X240152225Y-129565651D01*
X240244889Y-129615181D01*
X240345435Y-129645681D01*
X240450000Y-129655980D01*
X240525513Y-129655980D01*
X240317056Y-129827056D01*
X240208690Y-129959100D01*
X220824455Y-129959100D01*
X218738119Y-127872765D01*
X218632306Y-127766952D01*
X218699400Y-127429650D01*
X218699400Y-127078350D01*
X218630865Y-126733801D01*
X218496428Y-126409243D01*
X218301257Y-126117149D01*
X218052851Y-125868743D01*
X217760757Y-125673572D01*
X217436199Y-125539135D01*
X217091650Y-125470600D01*
X216740350Y-125470600D01*
X216395801Y-125539135D01*
X216071243Y-125673572D01*
X215779149Y-125868743D01*
X215530743Y-126117149D01*
X215335572Y-126409243D01*
X215201135Y-126733801D01*
X215132600Y-127078350D01*
X215132600Y-127429650D01*
X215201135Y-127774199D01*
X215335572Y-128098757D01*
X215530743Y-128390851D01*
X215779149Y-128639257D01*
X216071243Y-128834428D01*
X216395801Y-128968865D01*
X216740350Y-129037400D01*
X217091650Y-129037400D01*
X217428952Y-128970306D01*
X217534765Y-129076119D01*
X219840770Y-131382125D01*
X219867412Y-131414588D01*
X219899875Y-131441230D01*
X219899879Y-131441234D01*
X219942678Y-131476358D01*
X219996978Y-131520921D01*
X220144799Y-131599933D01*
X220305194Y-131648588D01*
X220430200Y-131660900D01*
X220430207Y-131660900D01*
X220472000Y-131665016D01*
X220513793Y-131660900D01*
X240208690Y-131660900D01*
X240317056Y-131792944D01*
X240527706Y-131965820D01*
X240768034Y-132094278D01*
X241028806Y-132173383D01*
X241232044Y-132193400D01*
X241367956Y-132193400D01*
X241571194Y-132173383D01*
X241831966Y-132094278D01*
X241986601Y-132011624D01*
X241986601Y-136576600D01*
X201243400Y-136576600D01*
X201243400Y-112343400D01*
X241986600Y-112343400D01*
X241986601Y-126884020D01*
M02*
