G04 #@! TF.GenerationSoftware,KiCad,Pcbnew,(5.0.2)-1*
G04 #@! TF.CreationDate,2019-06-06T20:52:43-07:00*
G04 #@! TF.ProjectId,Complete PLL Board Rev5,436f6d70-6c65-4746-9520-504c4c20426f,rev?*
G04 #@! TF.SameCoordinates,Original*
G04 #@! TF.FileFunction,Soldermask,Top*
G04 #@! TF.FilePolarity,Negative*
%FSLAX46Y46*%
G04 Gerber Fmt 4.6, Leading zero omitted, Abs format (unit mm)*
G04 Created by KiCad (PCBNEW (5.0.2)-1) date 6/6/2019 8:52:43 PM*
%MOMM*%
%LPD*%
G01*
G04 APERTURE LIST*
%ADD10C,0.100000*%
G04 APERTURE END LIST*
D10*
G36*
X163705200Y-121971000D02*
X161183200Y-121971000D01*
X161183200Y-116789000D01*
X163705200Y-116789000D01*
X163705200Y-121971000D01*
X163705200Y-121971000D01*
G37*
G36*
X159260200Y-121971000D02*
X156868200Y-121971000D01*
X156868200Y-116789000D01*
X159260200Y-116789000D01*
X159260200Y-121971000D01*
X159260200Y-121971000D01*
G37*
G36*
X154945200Y-121971000D02*
X152423200Y-121971000D01*
X152423200Y-116789000D01*
X154945200Y-116789000D01*
X154945200Y-121971000D01*
X154945200Y-121971000D01*
G37*
G36*
X144579000Y-121971000D02*
X142057000Y-121971000D01*
X142057000Y-116789000D01*
X144579000Y-116789000D01*
X144579000Y-121971000D01*
X144579000Y-121971000D01*
G37*
G36*
X140134000Y-121971000D02*
X137742000Y-121971000D01*
X137742000Y-116789000D01*
X140134000Y-116789000D01*
X140134000Y-121971000D01*
X140134000Y-121971000D01*
G37*
G36*
X135819000Y-121971000D02*
X133297000Y-121971000D01*
X133297000Y-116789000D01*
X135819000Y-116789000D01*
X135819000Y-121971000D01*
X135819000Y-121971000D01*
G37*
G36*
X177472000Y-121920200D02*
X175080000Y-121920200D01*
X175080000Y-116738200D01*
X177472000Y-116738200D01*
X177472000Y-121920200D01*
X177472000Y-121920200D01*
G37*
G36*
X181917000Y-121920200D02*
X179395000Y-121920200D01*
X179395000Y-116738200D01*
X181917000Y-116738200D01*
X181917000Y-121920200D01*
X181917000Y-121920200D01*
G37*
G36*
X173157000Y-121920200D02*
X170635000Y-121920200D01*
X170635000Y-116738200D01*
X173157000Y-116738200D01*
X173157000Y-121920200D01*
X173157000Y-121920200D01*
G37*
G36*
X123674800Y-121717000D02*
X121282800Y-121717000D01*
X121282800Y-116535000D01*
X123674800Y-116535000D01*
X123674800Y-121717000D01*
X123674800Y-121717000D01*
G37*
G36*
X119359800Y-121717000D02*
X116837800Y-121717000D01*
X116837800Y-116535000D01*
X119359800Y-116535000D01*
X119359800Y-121717000D01*
X119359800Y-121717000D01*
G37*
G36*
X128119800Y-121717000D02*
X125597800Y-121717000D01*
X125597800Y-116535000D01*
X128119800Y-116535000D01*
X128119800Y-121717000D01*
X128119800Y-121717000D01*
G37*
G36*
X111736800Y-121590000D02*
X109214800Y-121590000D01*
X109214800Y-116408000D01*
X111736800Y-116408000D01*
X111736800Y-121590000D01*
X111736800Y-121590000D01*
G37*
G36*
X107291800Y-121590000D02*
X104899800Y-121590000D01*
X104899800Y-116408000D01*
X107291800Y-116408000D01*
X107291800Y-121590000D01*
X107291800Y-121590000D01*
G37*
G36*
X102976800Y-121590000D02*
X100454800Y-121590000D01*
X100454800Y-116408000D01*
X102976800Y-116408000D01*
X102976800Y-121590000D01*
X102976800Y-121590000D01*
G37*
G36*
X149409277Y-109032265D02*
X149446964Y-109043698D01*
X149481703Y-109062266D01*
X149512148Y-109087252D01*
X149537134Y-109117697D01*
X149555702Y-109152436D01*
X149567135Y-109190123D01*
X149571600Y-109235461D01*
X149571600Y-110322139D01*
X149567135Y-110367477D01*
X149555702Y-110405164D01*
X149537134Y-110439903D01*
X149512148Y-110470348D01*
X149481703Y-110495334D01*
X149446964Y-110513902D01*
X149409277Y-110525335D01*
X149363939Y-110529800D01*
X148527261Y-110529800D01*
X148481923Y-110525335D01*
X148444236Y-110513902D01*
X148409497Y-110495334D01*
X148379052Y-110470348D01*
X148354066Y-110439903D01*
X148335498Y-110405164D01*
X148324065Y-110367477D01*
X148319600Y-110322139D01*
X148319600Y-109235461D01*
X148324065Y-109190123D01*
X148335498Y-109152436D01*
X148354066Y-109117697D01*
X148379052Y-109087252D01*
X148409497Y-109062266D01*
X148444236Y-109043698D01*
X148481923Y-109032265D01*
X148527261Y-109027800D01*
X149363939Y-109027800D01*
X149409277Y-109032265D01*
X149409277Y-109032265D01*
G37*
G36*
X147359277Y-109032265D02*
X147396964Y-109043698D01*
X147431703Y-109062266D01*
X147462148Y-109087252D01*
X147487134Y-109117697D01*
X147505702Y-109152436D01*
X147517135Y-109190123D01*
X147521600Y-109235461D01*
X147521600Y-110322139D01*
X147517135Y-110367477D01*
X147505702Y-110405164D01*
X147487134Y-110439903D01*
X147462148Y-110470348D01*
X147431703Y-110495334D01*
X147396964Y-110513902D01*
X147359277Y-110525335D01*
X147313939Y-110529800D01*
X146477261Y-110529800D01*
X146431923Y-110525335D01*
X146394236Y-110513902D01*
X146359497Y-110495334D01*
X146329052Y-110470348D01*
X146304066Y-110439903D01*
X146285498Y-110405164D01*
X146274065Y-110367477D01*
X146269600Y-110322139D01*
X146269600Y-109235461D01*
X146274065Y-109190123D01*
X146285498Y-109152436D01*
X146304066Y-109117697D01*
X146329052Y-109087252D01*
X146359497Y-109062266D01*
X146394236Y-109043698D01*
X146431923Y-109032265D01*
X146477261Y-109027800D01*
X147313939Y-109027800D01*
X147359277Y-109032265D01*
X147359277Y-109032265D01*
G37*
G36*
X167116200Y-109280400D02*
X165014200Y-109280400D01*
X165014200Y-107178400D01*
X167116200Y-107178400D01*
X167116200Y-109280400D01*
X167116200Y-109280400D01*
G37*
G36*
X163593837Y-107180075D02*
X163731232Y-107193607D01*
X163929346Y-107253705D01*
X164111929Y-107351297D01*
X164271965Y-107482635D01*
X164403303Y-107642671D01*
X164500895Y-107825254D01*
X164560993Y-108023368D01*
X164581285Y-108229400D01*
X164560993Y-108435432D01*
X164500895Y-108633546D01*
X164403303Y-108816129D01*
X164271965Y-108976165D01*
X164111929Y-109107503D01*
X163929346Y-109205095D01*
X163731232Y-109265193D01*
X163607710Y-109277359D01*
X163576831Y-109280400D01*
X163473569Y-109280400D01*
X163442690Y-109277359D01*
X163319168Y-109265193D01*
X163121054Y-109205095D01*
X162938471Y-109107503D01*
X162778435Y-108976165D01*
X162647097Y-108816129D01*
X162549505Y-108633546D01*
X162489407Y-108435432D01*
X162469115Y-108229400D01*
X162489407Y-108023368D01*
X162549505Y-107825254D01*
X162647097Y-107642671D01*
X162778435Y-107482635D01*
X162938471Y-107351297D01*
X163121054Y-107253705D01*
X163319168Y-107193607D01*
X163456563Y-107180075D01*
X163473569Y-107178400D01*
X163576831Y-107178400D01*
X163593837Y-107180075D01*
X163593837Y-107180075D01*
G37*
G36*
X161053837Y-107180075D02*
X161191232Y-107193607D01*
X161389346Y-107253705D01*
X161571929Y-107351297D01*
X161731965Y-107482635D01*
X161863303Y-107642671D01*
X161960895Y-107825254D01*
X162020993Y-108023368D01*
X162041285Y-108229400D01*
X162020993Y-108435432D01*
X161960895Y-108633546D01*
X161863303Y-108816129D01*
X161731965Y-108976165D01*
X161571929Y-109107503D01*
X161389346Y-109205095D01*
X161191232Y-109265193D01*
X161067710Y-109277359D01*
X161036831Y-109280400D01*
X160933569Y-109280400D01*
X160902690Y-109277359D01*
X160779168Y-109265193D01*
X160581054Y-109205095D01*
X160398471Y-109107503D01*
X160238435Y-108976165D01*
X160107097Y-108816129D01*
X160009505Y-108633546D01*
X159949407Y-108435432D01*
X159929115Y-108229400D01*
X159949407Y-108023368D01*
X160009505Y-107825254D01*
X160107097Y-107642671D01*
X160238435Y-107482635D01*
X160398471Y-107351297D01*
X160581054Y-107253705D01*
X160779168Y-107193607D01*
X160916563Y-107180075D01*
X160933569Y-107178400D01*
X161036831Y-107178400D01*
X161053837Y-107180075D01*
X161053837Y-107180075D01*
G37*
G36*
X158513837Y-107180075D02*
X158651232Y-107193607D01*
X158849346Y-107253705D01*
X159031929Y-107351297D01*
X159191965Y-107482635D01*
X159323303Y-107642671D01*
X159420895Y-107825254D01*
X159480993Y-108023368D01*
X159501285Y-108229400D01*
X159480993Y-108435432D01*
X159420895Y-108633546D01*
X159323303Y-108816129D01*
X159191965Y-108976165D01*
X159031929Y-109107503D01*
X158849346Y-109205095D01*
X158651232Y-109265193D01*
X158527710Y-109277359D01*
X158496831Y-109280400D01*
X158393569Y-109280400D01*
X158362690Y-109277359D01*
X158239168Y-109265193D01*
X158041054Y-109205095D01*
X157858471Y-109107503D01*
X157698435Y-108976165D01*
X157567097Y-108816129D01*
X157469505Y-108633546D01*
X157409407Y-108435432D01*
X157389115Y-108229400D01*
X157409407Y-108023368D01*
X157469505Y-107825254D01*
X157567097Y-107642671D01*
X157698435Y-107482635D01*
X157858471Y-107351297D01*
X158041054Y-107253705D01*
X158239168Y-107193607D01*
X158376563Y-107180075D01*
X158393569Y-107178400D01*
X158496831Y-107178400D01*
X158513837Y-107180075D01*
X158513837Y-107180075D01*
G37*
G36*
X119970510Y-106267041D02*
X120094032Y-106279207D01*
X120292146Y-106339305D01*
X120474729Y-106436897D01*
X120634765Y-106568235D01*
X120766103Y-106728271D01*
X120863695Y-106910854D01*
X120923793Y-107108968D01*
X120944085Y-107315000D01*
X120923793Y-107521032D01*
X120863695Y-107719146D01*
X120766103Y-107901729D01*
X120634765Y-108061765D01*
X120474729Y-108193103D01*
X120292146Y-108290695D01*
X120094032Y-108350793D01*
X119970510Y-108362959D01*
X119939631Y-108366000D01*
X119836369Y-108366000D01*
X119805490Y-108362959D01*
X119681968Y-108350793D01*
X119483854Y-108290695D01*
X119301271Y-108193103D01*
X119141235Y-108061765D01*
X119009897Y-107901729D01*
X118912305Y-107719146D01*
X118852207Y-107521032D01*
X118831915Y-107315000D01*
X118852207Y-107108968D01*
X118912305Y-106910854D01*
X119009897Y-106728271D01*
X119141235Y-106568235D01*
X119301271Y-106436897D01*
X119483854Y-106339305D01*
X119681968Y-106279207D01*
X119805490Y-106267041D01*
X119836369Y-106264000D01*
X119939631Y-106264000D01*
X119970510Y-106267041D01*
X119970510Y-106267041D01*
G37*
G36*
X123479000Y-108366000D02*
X121377000Y-108366000D01*
X121377000Y-106264000D01*
X123479000Y-106264000D01*
X123479000Y-108366000D01*
X123479000Y-108366000D01*
G37*
G36*
X101934677Y-106965465D02*
X101972364Y-106976898D01*
X102007103Y-106995466D01*
X102037548Y-107020452D01*
X102062534Y-107050897D01*
X102081102Y-107085636D01*
X102092535Y-107123323D01*
X102097000Y-107168661D01*
X102097000Y-108005339D01*
X102092535Y-108050677D01*
X102081102Y-108088364D01*
X102062534Y-108123103D01*
X102037548Y-108153548D01*
X102007103Y-108178534D01*
X101972364Y-108197102D01*
X101934677Y-108208535D01*
X101889339Y-108213000D01*
X100802661Y-108213000D01*
X100757323Y-108208535D01*
X100719636Y-108197102D01*
X100684897Y-108178534D01*
X100654452Y-108153548D01*
X100629466Y-108123103D01*
X100610898Y-108088364D01*
X100599465Y-108050677D01*
X100595000Y-108005339D01*
X100595000Y-107168661D01*
X100599465Y-107123323D01*
X100610898Y-107085636D01*
X100629466Y-107050897D01*
X100654452Y-107020452D01*
X100684897Y-106995466D01*
X100719636Y-106976898D01*
X100757323Y-106965465D01*
X100802661Y-106961000D01*
X101889339Y-106961000D01*
X101934677Y-106965465D01*
X101934677Y-106965465D01*
G37*
G36*
X132416510Y-105505041D02*
X132540032Y-105517207D01*
X132738146Y-105577305D01*
X132920729Y-105674897D01*
X133080765Y-105806235D01*
X133212103Y-105966271D01*
X133309695Y-106148854D01*
X133369793Y-106346968D01*
X133390085Y-106553000D01*
X133369793Y-106759032D01*
X133309695Y-106957146D01*
X133212103Y-107139729D01*
X133080765Y-107299765D01*
X132920729Y-107431103D01*
X132738146Y-107528695D01*
X132540032Y-107588793D01*
X132416510Y-107600959D01*
X132385631Y-107604000D01*
X132282369Y-107604000D01*
X132251490Y-107600959D01*
X132127968Y-107588793D01*
X131929854Y-107528695D01*
X131747271Y-107431103D01*
X131587235Y-107299765D01*
X131455897Y-107139729D01*
X131358305Y-106957146D01*
X131298207Y-106759032D01*
X131277915Y-106553000D01*
X131298207Y-106346968D01*
X131358305Y-106148854D01*
X131455897Y-105966271D01*
X131587235Y-105806235D01*
X131747271Y-105674897D01*
X131929854Y-105577305D01*
X132127968Y-105517207D01*
X132251490Y-105505041D01*
X132282369Y-105502000D01*
X132385631Y-105502000D01*
X132416510Y-105505041D01*
X132416510Y-105505041D01*
G37*
G36*
X135925000Y-107604000D02*
X133823000Y-107604000D01*
X133823000Y-105502000D01*
X135925000Y-105502000D01*
X135925000Y-107604000D01*
X135925000Y-107604000D01*
G37*
G36*
X147402677Y-104917465D02*
X147440364Y-104928898D01*
X147475103Y-104947466D01*
X147505548Y-104972452D01*
X147530534Y-105002897D01*
X147549102Y-105037636D01*
X147560535Y-105075323D01*
X147565000Y-105120661D01*
X147565000Y-106207339D01*
X147560535Y-106252677D01*
X147549102Y-106290364D01*
X147530534Y-106325103D01*
X147505548Y-106355548D01*
X147475103Y-106380534D01*
X147440364Y-106399102D01*
X147402677Y-106410535D01*
X147357339Y-106415000D01*
X146520661Y-106415000D01*
X146475323Y-106410535D01*
X146437636Y-106399102D01*
X146402897Y-106380534D01*
X146372452Y-106355548D01*
X146347466Y-106325103D01*
X146328898Y-106290364D01*
X146317465Y-106252677D01*
X146313000Y-106207339D01*
X146313000Y-105120661D01*
X146317465Y-105075323D01*
X146328898Y-105037636D01*
X146347466Y-105002897D01*
X146372452Y-104972452D01*
X146402897Y-104947466D01*
X146437636Y-104928898D01*
X146475323Y-104917465D01*
X146520661Y-104913000D01*
X147357339Y-104913000D01*
X147402677Y-104917465D01*
X147402677Y-104917465D01*
G37*
G36*
X145352677Y-104917465D02*
X145390364Y-104928898D01*
X145425103Y-104947466D01*
X145455548Y-104972452D01*
X145480534Y-105002897D01*
X145499102Y-105037636D01*
X145510535Y-105075323D01*
X145515000Y-105120661D01*
X145515000Y-106207339D01*
X145510535Y-106252677D01*
X145499102Y-106290364D01*
X145480534Y-106325103D01*
X145455548Y-106355548D01*
X145425103Y-106380534D01*
X145390364Y-106399102D01*
X145352677Y-106410535D01*
X145307339Y-106415000D01*
X144470661Y-106415000D01*
X144425323Y-106410535D01*
X144387636Y-106399102D01*
X144352897Y-106380534D01*
X144322452Y-106355548D01*
X144297466Y-106325103D01*
X144278898Y-106290364D01*
X144267465Y-106252677D01*
X144263000Y-106207339D01*
X144263000Y-105120661D01*
X144267465Y-105075323D01*
X144278898Y-105037636D01*
X144297466Y-105002897D01*
X144322452Y-104972452D01*
X144352897Y-104947466D01*
X144387636Y-104928898D01*
X144425323Y-104917465D01*
X144470661Y-104913000D01*
X145307339Y-104913000D01*
X145352677Y-104917465D01*
X145352677Y-104917465D01*
G37*
G36*
X110191510Y-104235041D02*
X110315032Y-104247207D01*
X110513146Y-104307305D01*
X110695729Y-104404897D01*
X110855765Y-104536235D01*
X110987103Y-104696271D01*
X111084695Y-104878854D01*
X111144793Y-105076968D01*
X111165085Y-105283000D01*
X111144793Y-105489032D01*
X111084695Y-105687146D01*
X110987103Y-105869729D01*
X110855765Y-106029765D01*
X110695729Y-106161103D01*
X110513146Y-106258695D01*
X110315032Y-106318793D01*
X110191510Y-106330959D01*
X110160631Y-106334000D01*
X110057369Y-106334000D01*
X110026490Y-106330959D01*
X109902968Y-106318793D01*
X109704854Y-106258695D01*
X109522271Y-106161103D01*
X109362235Y-106029765D01*
X109230897Y-105869729D01*
X109133305Y-105687146D01*
X109073207Y-105489032D01*
X109052915Y-105283000D01*
X109073207Y-105076968D01*
X109133305Y-104878854D01*
X109230897Y-104696271D01*
X109362235Y-104536235D01*
X109522271Y-104404897D01*
X109704854Y-104307305D01*
X109902968Y-104247207D01*
X110026490Y-104235041D01*
X110057369Y-104232000D01*
X110160631Y-104232000D01*
X110191510Y-104235041D01*
X110191510Y-104235041D01*
G37*
G36*
X101934677Y-104915465D02*
X101972364Y-104926898D01*
X102007103Y-104945466D01*
X102037548Y-104970452D01*
X102062534Y-105000897D01*
X102081102Y-105035636D01*
X102092535Y-105073323D01*
X102097000Y-105118661D01*
X102097000Y-105955339D01*
X102092535Y-106000677D01*
X102081102Y-106038364D01*
X102062534Y-106073103D01*
X102037548Y-106103548D01*
X102007103Y-106128534D01*
X101972364Y-106147102D01*
X101934677Y-106158535D01*
X101889339Y-106163000D01*
X100802661Y-106163000D01*
X100757323Y-106158535D01*
X100719636Y-106147102D01*
X100684897Y-106128534D01*
X100654452Y-106103548D01*
X100629466Y-106073103D01*
X100610898Y-106038364D01*
X100599465Y-106000677D01*
X100595000Y-105955339D01*
X100595000Y-105118661D01*
X100599465Y-105073323D01*
X100610898Y-105035636D01*
X100629466Y-105000897D01*
X100654452Y-104970452D01*
X100684897Y-104945466D01*
X100719636Y-104926898D01*
X100757323Y-104915465D01*
X100802661Y-104911000D01*
X101889339Y-104911000D01*
X101934677Y-104915465D01*
X101934677Y-104915465D01*
G37*
G36*
X174248477Y-104654065D02*
X174286164Y-104665498D01*
X174320903Y-104684066D01*
X174351348Y-104709052D01*
X174376334Y-104739497D01*
X174394902Y-104774236D01*
X174406335Y-104811923D01*
X174410800Y-104857261D01*
X174410800Y-105693939D01*
X174406335Y-105739277D01*
X174394902Y-105776964D01*
X174376334Y-105811703D01*
X174351348Y-105842148D01*
X174320903Y-105867134D01*
X174286164Y-105885702D01*
X174248477Y-105897135D01*
X174203139Y-105901600D01*
X173116461Y-105901600D01*
X173071123Y-105897135D01*
X173033436Y-105885702D01*
X172998697Y-105867134D01*
X172968252Y-105842148D01*
X172943266Y-105811703D01*
X172924698Y-105776964D01*
X172913265Y-105739277D01*
X172908800Y-105693939D01*
X172908800Y-104857261D01*
X172913265Y-104811923D01*
X172924698Y-104774236D01*
X172943266Y-104739497D01*
X172968252Y-104709052D01*
X172998697Y-104684066D01*
X173033436Y-104665498D01*
X173071123Y-104654065D01*
X173116461Y-104649600D01*
X174203139Y-104649600D01*
X174248477Y-104654065D01*
X174248477Y-104654065D01*
G37*
G36*
X123016677Y-104171465D02*
X123054364Y-104182898D01*
X123089103Y-104201466D01*
X123119548Y-104226452D01*
X123144534Y-104256897D01*
X123163102Y-104291636D01*
X123174535Y-104329323D01*
X123179000Y-104374661D01*
X123179000Y-105211339D01*
X123174535Y-105256677D01*
X123163102Y-105294364D01*
X123144534Y-105329103D01*
X123119548Y-105359548D01*
X123089103Y-105384534D01*
X123054364Y-105403102D01*
X123016677Y-105414535D01*
X122971339Y-105419000D01*
X121884661Y-105419000D01*
X121839323Y-105414535D01*
X121801636Y-105403102D01*
X121766897Y-105384534D01*
X121736452Y-105359548D01*
X121711466Y-105329103D01*
X121692898Y-105294364D01*
X121681465Y-105256677D01*
X121677000Y-105211339D01*
X121677000Y-104374661D01*
X121681465Y-104329323D01*
X121692898Y-104291636D01*
X121711466Y-104256897D01*
X121736452Y-104226452D01*
X121766897Y-104201466D01*
X121801636Y-104182898D01*
X121839323Y-104171465D01*
X121884661Y-104167000D01*
X122971339Y-104167000D01*
X123016677Y-104171465D01*
X123016677Y-104171465D01*
G37*
G36*
X121001000Y-104274000D02*
X120299000Y-104274000D01*
X120299000Y-103072000D01*
X121001000Y-103072000D01*
X121001000Y-104274000D01*
X121001000Y-104274000D01*
G37*
G36*
X131654510Y-101949041D02*
X131778032Y-101961207D01*
X131976146Y-102021305D01*
X132158729Y-102118897D01*
X132318765Y-102250235D01*
X132450103Y-102410271D01*
X132547695Y-102592854D01*
X132607793Y-102790968D01*
X132628085Y-102997000D01*
X132607793Y-103203032D01*
X132547695Y-103401146D01*
X132450103Y-103583729D01*
X132318765Y-103743765D01*
X132158729Y-103875103D01*
X131976146Y-103972695D01*
X131778032Y-104032793D01*
X131654510Y-104044959D01*
X131623631Y-104048000D01*
X131520369Y-104048000D01*
X131489490Y-104044959D01*
X131365968Y-104032793D01*
X131167854Y-103972695D01*
X130985271Y-103875103D01*
X130825235Y-103743765D01*
X130693897Y-103583729D01*
X130596305Y-103401146D01*
X130536207Y-103203032D01*
X130515915Y-102997000D01*
X130536207Y-102790968D01*
X130596305Y-102592854D01*
X130693897Y-102410271D01*
X130825235Y-102250235D01*
X130985271Y-102118897D01*
X131167854Y-102021305D01*
X131365968Y-101961207D01*
X131489490Y-101949041D01*
X131520369Y-101946000D01*
X131623631Y-101946000D01*
X131654510Y-101949041D01*
X131654510Y-101949041D01*
G37*
G36*
X178337877Y-102622065D02*
X178375564Y-102633498D01*
X178410303Y-102652066D01*
X178440748Y-102677052D01*
X178465734Y-102707497D01*
X178484302Y-102742236D01*
X178495735Y-102779923D01*
X178500200Y-102825261D01*
X178500200Y-103661939D01*
X178495735Y-103707277D01*
X178484302Y-103744964D01*
X178465734Y-103779703D01*
X178440748Y-103810148D01*
X178410303Y-103835134D01*
X178375564Y-103853702D01*
X178337877Y-103865135D01*
X178292539Y-103869600D01*
X177205861Y-103869600D01*
X177160523Y-103865135D01*
X177122836Y-103853702D01*
X177088097Y-103835134D01*
X177057652Y-103810148D01*
X177032666Y-103779703D01*
X177014098Y-103744964D01*
X177002665Y-103707277D01*
X176998200Y-103661939D01*
X176998200Y-102825261D01*
X177002665Y-102779923D01*
X177014098Y-102742236D01*
X177032666Y-102707497D01*
X177057652Y-102677052D01*
X177088097Y-102652066D01*
X177122836Y-102633498D01*
X177160523Y-102622065D01*
X177205861Y-102617600D01*
X178292539Y-102617600D01*
X178337877Y-102622065D01*
X178337877Y-102622065D01*
G37*
G36*
X174248477Y-102604065D02*
X174286164Y-102615498D01*
X174320903Y-102634066D01*
X174351348Y-102659052D01*
X174376334Y-102689497D01*
X174394902Y-102724236D01*
X174406335Y-102761923D01*
X174410800Y-102807261D01*
X174410800Y-103643939D01*
X174406335Y-103689277D01*
X174394902Y-103726964D01*
X174376334Y-103761703D01*
X174351348Y-103792148D01*
X174320903Y-103817134D01*
X174286164Y-103835702D01*
X174248477Y-103847135D01*
X174203139Y-103851600D01*
X173116461Y-103851600D01*
X173071123Y-103847135D01*
X173033436Y-103835702D01*
X172998697Y-103817134D01*
X172968252Y-103792148D01*
X172943266Y-103761703D01*
X172924698Y-103726964D01*
X172913265Y-103689277D01*
X172908800Y-103643939D01*
X172908800Y-102807261D01*
X172913265Y-102761923D01*
X172924698Y-102724236D01*
X172943266Y-102689497D01*
X172968252Y-102659052D01*
X172998697Y-102634066D01*
X173033436Y-102615498D01*
X173071123Y-102604065D01*
X173116461Y-102599600D01*
X174203139Y-102599600D01*
X174248477Y-102604065D01*
X174248477Y-102604065D01*
G37*
G36*
X102397000Y-103794000D02*
X100295000Y-103794000D01*
X100295000Y-101692000D01*
X102397000Y-101692000D01*
X102397000Y-103794000D01*
X102397000Y-103794000D01*
G37*
G36*
X111160000Y-103794000D02*
X109058000Y-103794000D01*
X109058000Y-101692000D01*
X111160000Y-101692000D01*
X111160000Y-103794000D01*
X111160000Y-103794000D01*
G37*
G36*
X103967725Y-101694964D02*
X104092032Y-101707207D01*
X104290146Y-101767305D01*
X104472729Y-101864897D01*
X104632765Y-101996235D01*
X104764103Y-102156271D01*
X104861695Y-102338854D01*
X104921793Y-102536968D01*
X104942085Y-102743000D01*
X104921793Y-102949032D01*
X104861695Y-103147146D01*
X104764103Y-103329729D01*
X104632765Y-103489765D01*
X104472729Y-103621103D01*
X104290146Y-103718695D01*
X104092032Y-103778793D01*
X103979441Y-103789882D01*
X103937631Y-103794000D01*
X103834369Y-103794000D01*
X103792559Y-103789882D01*
X103679968Y-103778793D01*
X103481854Y-103718695D01*
X103299271Y-103621103D01*
X103139235Y-103489765D01*
X103007897Y-103329729D01*
X102910305Y-103147146D01*
X102850207Y-102949032D01*
X102829915Y-102743000D01*
X102850207Y-102536968D01*
X102910305Y-102338854D01*
X103007897Y-102156271D01*
X103139235Y-101996235D01*
X103299271Y-101864897D01*
X103481854Y-101767305D01*
X103679968Y-101707207D01*
X103804275Y-101694964D01*
X103834369Y-101692000D01*
X103937631Y-101692000D01*
X103967725Y-101694964D01*
X103967725Y-101694964D01*
G37*
G36*
X147580477Y-102123465D02*
X147618164Y-102134898D01*
X147652903Y-102153466D01*
X147683348Y-102178452D01*
X147708334Y-102208897D01*
X147726902Y-102243636D01*
X147738335Y-102281323D01*
X147742800Y-102326661D01*
X147742800Y-103413339D01*
X147738335Y-103458677D01*
X147726902Y-103496364D01*
X147708334Y-103531103D01*
X147683348Y-103561548D01*
X147652903Y-103586534D01*
X147618164Y-103605102D01*
X147580477Y-103616535D01*
X147535139Y-103621000D01*
X146698461Y-103621000D01*
X146653123Y-103616535D01*
X146615436Y-103605102D01*
X146580697Y-103586534D01*
X146550252Y-103561548D01*
X146525266Y-103531103D01*
X146506698Y-103496364D01*
X146495265Y-103458677D01*
X146490800Y-103413339D01*
X146490800Y-102326661D01*
X146495265Y-102281323D01*
X146506698Y-102243636D01*
X146525266Y-102208897D01*
X146550252Y-102178452D01*
X146580697Y-102153466D01*
X146615436Y-102134898D01*
X146653123Y-102123465D01*
X146698461Y-102119000D01*
X147535139Y-102119000D01*
X147580477Y-102123465D01*
X147580477Y-102123465D01*
G37*
G36*
X145530477Y-102123465D02*
X145568164Y-102134898D01*
X145602903Y-102153466D01*
X145633348Y-102178452D01*
X145658334Y-102208897D01*
X145676902Y-102243636D01*
X145688335Y-102281323D01*
X145692800Y-102326661D01*
X145692800Y-103413339D01*
X145688335Y-103458677D01*
X145676902Y-103496364D01*
X145658334Y-103531103D01*
X145633348Y-103561548D01*
X145602903Y-103586534D01*
X145568164Y-103605102D01*
X145530477Y-103616535D01*
X145485139Y-103621000D01*
X144648461Y-103621000D01*
X144603123Y-103616535D01*
X144565436Y-103605102D01*
X144530697Y-103586534D01*
X144500252Y-103561548D01*
X144475266Y-103531103D01*
X144456698Y-103496364D01*
X144445265Y-103458677D01*
X144440800Y-103413339D01*
X144440800Y-102326661D01*
X144445265Y-102281323D01*
X144456698Y-102243636D01*
X144475266Y-102208897D01*
X144500252Y-102178452D01*
X144530697Y-102153466D01*
X144565436Y-102134898D01*
X144603123Y-102123465D01*
X144648461Y-102119000D01*
X145485139Y-102119000D01*
X145530477Y-102123465D01*
X145530477Y-102123465D01*
G37*
G36*
X123016677Y-102121465D02*
X123054364Y-102132898D01*
X123089103Y-102151466D01*
X123119548Y-102176452D01*
X123144534Y-102206897D01*
X123163102Y-102241636D01*
X123174535Y-102279323D01*
X123179000Y-102324661D01*
X123179000Y-103161339D01*
X123174535Y-103206677D01*
X123163102Y-103244364D01*
X123144534Y-103279103D01*
X123119548Y-103309548D01*
X123089103Y-103334534D01*
X123054364Y-103353102D01*
X123016677Y-103364535D01*
X122971339Y-103369000D01*
X121884661Y-103369000D01*
X121839323Y-103364535D01*
X121801636Y-103353102D01*
X121766897Y-103334534D01*
X121736452Y-103309548D01*
X121711466Y-103279103D01*
X121692898Y-103244364D01*
X121681465Y-103206677D01*
X121677000Y-103161339D01*
X121677000Y-102324661D01*
X121681465Y-102279323D01*
X121692898Y-102241636D01*
X121711466Y-102206897D01*
X121736452Y-102176452D01*
X121766897Y-102151466D01*
X121801636Y-102132898D01*
X121839323Y-102121465D01*
X121884661Y-102117000D01*
X122971339Y-102117000D01*
X123016677Y-102121465D01*
X123016677Y-102121465D01*
G37*
G36*
X118199000Y-103190000D02*
X116497000Y-103190000D01*
X116497000Y-101088000D01*
X118199000Y-101088000D01*
X118199000Y-103190000D01*
X118199000Y-103190000D01*
G37*
G36*
X121001000Y-102074000D02*
X120299000Y-102074000D01*
X120299000Y-100872000D01*
X121001000Y-100872000D01*
X121001000Y-102074000D01*
X121001000Y-102074000D01*
G37*
G36*
X178337877Y-100572065D02*
X178375564Y-100583498D01*
X178410303Y-100602066D01*
X178440748Y-100627052D01*
X178465734Y-100657497D01*
X178484302Y-100692236D01*
X178495735Y-100729923D01*
X178500200Y-100775261D01*
X178500200Y-101611939D01*
X178495735Y-101657277D01*
X178484302Y-101694964D01*
X178465734Y-101729703D01*
X178440748Y-101760148D01*
X178410303Y-101785134D01*
X178375564Y-101803702D01*
X178337877Y-101815135D01*
X178292539Y-101819600D01*
X177205861Y-101819600D01*
X177160523Y-101815135D01*
X177122836Y-101803702D01*
X177088097Y-101785134D01*
X177057652Y-101760148D01*
X177032666Y-101729703D01*
X177014098Y-101694964D01*
X177002665Y-101657277D01*
X176998200Y-101611939D01*
X176998200Y-100775261D01*
X177002665Y-100729923D01*
X177014098Y-100692236D01*
X177032666Y-100657497D01*
X177057652Y-100627052D01*
X177088097Y-100602066D01*
X177122836Y-100583498D01*
X177160523Y-100572065D01*
X177205861Y-100567600D01*
X178292539Y-100567600D01*
X178337877Y-100572065D01*
X178337877Y-100572065D01*
G37*
G36*
X132623000Y-101508000D02*
X130521000Y-101508000D01*
X130521000Y-99406000D01*
X132623000Y-99406000D01*
X132623000Y-101508000D01*
X132623000Y-101508000D01*
G37*
G36*
X158585600Y-101141200D02*
X157183600Y-101141200D01*
X157183600Y-100589200D01*
X158585600Y-100589200D01*
X158585600Y-101141200D01*
X158585600Y-101141200D01*
G37*
G36*
X169778077Y-99853465D02*
X169815764Y-99864898D01*
X169850503Y-99883466D01*
X169880948Y-99908452D01*
X169905934Y-99938897D01*
X169924502Y-99973636D01*
X169935935Y-100011323D01*
X169940400Y-100056661D01*
X169940400Y-100893339D01*
X169935935Y-100938677D01*
X169924502Y-100976364D01*
X169905934Y-101011103D01*
X169880948Y-101041548D01*
X169850503Y-101066534D01*
X169815764Y-101085102D01*
X169778077Y-101096535D01*
X169732739Y-101101000D01*
X168646061Y-101101000D01*
X168600723Y-101096535D01*
X168563036Y-101085102D01*
X168528297Y-101066534D01*
X168497852Y-101041548D01*
X168472866Y-101011103D01*
X168454298Y-100976364D01*
X168442865Y-100938677D01*
X168438400Y-100893339D01*
X168438400Y-100056661D01*
X168442865Y-100011323D01*
X168454298Y-99973636D01*
X168472866Y-99938897D01*
X168497852Y-99908452D01*
X168528297Y-99883466D01*
X168563036Y-99864898D01*
X168600723Y-99853465D01*
X168646061Y-99849000D01*
X169732739Y-99849000D01*
X169778077Y-99853465D01*
X169778077Y-99853465D01*
G37*
G36*
X166755477Y-99853465D02*
X166793164Y-99864898D01*
X166827903Y-99883466D01*
X166858348Y-99908452D01*
X166883334Y-99938897D01*
X166901902Y-99973636D01*
X166913335Y-100011323D01*
X166917800Y-100056661D01*
X166917800Y-100893339D01*
X166913335Y-100938677D01*
X166901902Y-100976364D01*
X166883334Y-101011103D01*
X166858348Y-101041548D01*
X166827903Y-101066534D01*
X166793164Y-101085102D01*
X166755477Y-101096535D01*
X166710139Y-101101000D01*
X165623461Y-101101000D01*
X165578123Y-101096535D01*
X165540436Y-101085102D01*
X165505697Y-101066534D01*
X165475252Y-101041548D01*
X165450266Y-101011103D01*
X165431698Y-100976364D01*
X165420265Y-100938677D01*
X165415800Y-100893339D01*
X165415800Y-100056661D01*
X165420265Y-100011323D01*
X165431698Y-99973636D01*
X165450266Y-99938897D01*
X165475252Y-99908452D01*
X165505697Y-99883466D01*
X165540436Y-99864898D01*
X165578123Y-99853465D01*
X165623461Y-99849000D01*
X166710139Y-99849000D01*
X166755477Y-99853465D01*
X166755477Y-99853465D01*
G37*
G36*
X156685600Y-101091200D02*
X156133600Y-101091200D01*
X156133600Y-97689200D01*
X156685600Y-97689200D01*
X156685600Y-101091200D01*
X156685600Y-101091200D01*
G37*
G36*
X159635600Y-101091200D02*
X159083600Y-101091200D01*
X159083600Y-97689200D01*
X159635600Y-97689200D01*
X159635600Y-101091200D01*
X159635600Y-101091200D01*
G37*
G36*
X127347000Y-101062000D02*
X126145000Y-101062000D01*
X126145000Y-100360000D01*
X127347000Y-100360000D01*
X127347000Y-101062000D01*
X127347000Y-101062000D01*
G37*
G36*
X125147000Y-101062000D02*
X123945000Y-101062000D01*
X123945000Y-100360000D01*
X125147000Y-100360000D01*
X125147000Y-101062000D01*
X125147000Y-101062000D01*
G37*
G36*
X103841677Y-99202465D02*
X103879364Y-99213898D01*
X103914103Y-99232466D01*
X103944548Y-99257452D01*
X103969534Y-99287897D01*
X103988102Y-99322636D01*
X103999535Y-99360323D01*
X104004000Y-99405661D01*
X104004000Y-100492339D01*
X103999535Y-100537677D01*
X103988102Y-100575364D01*
X103969534Y-100610103D01*
X103944548Y-100640548D01*
X103914103Y-100665534D01*
X103879364Y-100684102D01*
X103841677Y-100695535D01*
X103796339Y-100700000D01*
X102959661Y-100700000D01*
X102914323Y-100695535D01*
X102876636Y-100684102D01*
X102841897Y-100665534D01*
X102811452Y-100640548D01*
X102786466Y-100610103D01*
X102767898Y-100575364D01*
X102756465Y-100537677D01*
X102752000Y-100492339D01*
X102752000Y-99405661D01*
X102756465Y-99360323D01*
X102767898Y-99322636D01*
X102786466Y-99287897D01*
X102811452Y-99257452D01*
X102841897Y-99232466D01*
X102876636Y-99213898D01*
X102914323Y-99202465D01*
X102959661Y-99198000D01*
X103796339Y-99198000D01*
X103841677Y-99202465D01*
X103841677Y-99202465D01*
G37*
G36*
X101791677Y-99202465D02*
X101829364Y-99213898D01*
X101864103Y-99232466D01*
X101894548Y-99257452D01*
X101919534Y-99287897D01*
X101938102Y-99322636D01*
X101949535Y-99360323D01*
X101954000Y-99405661D01*
X101954000Y-100492339D01*
X101949535Y-100537677D01*
X101938102Y-100575364D01*
X101919534Y-100610103D01*
X101894548Y-100640548D01*
X101864103Y-100665534D01*
X101829364Y-100684102D01*
X101791677Y-100695535D01*
X101746339Y-100700000D01*
X100909661Y-100700000D01*
X100864323Y-100695535D01*
X100826636Y-100684102D01*
X100791897Y-100665534D01*
X100761452Y-100640548D01*
X100736466Y-100610103D01*
X100717898Y-100575364D01*
X100706465Y-100537677D01*
X100702000Y-100492339D01*
X100702000Y-99405661D01*
X100706465Y-99360323D01*
X100717898Y-99322636D01*
X100736466Y-99287897D01*
X100761452Y-99257452D01*
X100791897Y-99232466D01*
X100826636Y-99213898D01*
X100864323Y-99202465D01*
X100909661Y-99198000D01*
X101746339Y-99198000D01*
X101791677Y-99202465D01*
X101791677Y-99202465D01*
G37*
G36*
X121349677Y-97932465D02*
X121387364Y-97943898D01*
X121422103Y-97962466D01*
X121452548Y-97987452D01*
X121477534Y-98017897D01*
X121496102Y-98052636D01*
X121507535Y-98090323D01*
X121512000Y-98135661D01*
X121512000Y-99222339D01*
X121507535Y-99267677D01*
X121496102Y-99305364D01*
X121477534Y-99340103D01*
X121452548Y-99370548D01*
X121422103Y-99395534D01*
X121387364Y-99414102D01*
X121349677Y-99425535D01*
X121304339Y-99430000D01*
X120467661Y-99430000D01*
X120422323Y-99425535D01*
X120384636Y-99414102D01*
X120349897Y-99395534D01*
X120319452Y-99370548D01*
X120294466Y-99340103D01*
X120275898Y-99305364D01*
X120264465Y-99267677D01*
X120260000Y-99222339D01*
X120260000Y-98135661D01*
X120264465Y-98090323D01*
X120275898Y-98052636D01*
X120294466Y-98017897D01*
X120319452Y-97987452D01*
X120349897Y-97962466D01*
X120384636Y-97943898D01*
X120422323Y-97932465D01*
X120467661Y-97928000D01*
X121304339Y-97928000D01*
X121349677Y-97932465D01*
X121349677Y-97932465D01*
G37*
G36*
X123399677Y-97932465D02*
X123437364Y-97943898D01*
X123472103Y-97962466D01*
X123502548Y-97987452D01*
X123527534Y-98017897D01*
X123546102Y-98052636D01*
X123557535Y-98090323D01*
X123562000Y-98135661D01*
X123562000Y-99222339D01*
X123557535Y-99267677D01*
X123546102Y-99305364D01*
X123527534Y-99340103D01*
X123502548Y-99370548D01*
X123472103Y-99395534D01*
X123437364Y-99414102D01*
X123399677Y-99425535D01*
X123354339Y-99430000D01*
X122517661Y-99430000D01*
X122472323Y-99425535D01*
X122434636Y-99414102D01*
X122399897Y-99395534D01*
X122369452Y-99370548D01*
X122344466Y-99340103D01*
X122325898Y-99305364D01*
X122314465Y-99267677D01*
X122310000Y-99222339D01*
X122310000Y-98135661D01*
X122314465Y-98090323D01*
X122325898Y-98052636D01*
X122344466Y-98017897D01*
X122369452Y-97987452D01*
X122399897Y-97962466D01*
X122434636Y-97943898D01*
X122472323Y-97932465D01*
X122517661Y-97928000D01*
X123354339Y-97928000D01*
X123399677Y-97932465D01*
X123399677Y-97932465D01*
G37*
G36*
X127735677Y-97805465D02*
X127773364Y-97816898D01*
X127808103Y-97835466D01*
X127838548Y-97860452D01*
X127863534Y-97890897D01*
X127882102Y-97925636D01*
X127893535Y-97963323D01*
X127898000Y-98008661D01*
X127898000Y-99095339D01*
X127893535Y-99140677D01*
X127882102Y-99178364D01*
X127863534Y-99213103D01*
X127838548Y-99243548D01*
X127808103Y-99268534D01*
X127773364Y-99287102D01*
X127735677Y-99298535D01*
X127690339Y-99303000D01*
X126853661Y-99303000D01*
X126808323Y-99298535D01*
X126770636Y-99287102D01*
X126735897Y-99268534D01*
X126705452Y-99243548D01*
X126680466Y-99213103D01*
X126661898Y-99178364D01*
X126650465Y-99140677D01*
X126646000Y-99095339D01*
X126646000Y-98008661D01*
X126650465Y-97963323D01*
X126661898Y-97925636D01*
X126680466Y-97890897D01*
X126705452Y-97860452D01*
X126735897Y-97835466D01*
X126770636Y-97816898D01*
X126808323Y-97805465D01*
X126853661Y-97801000D01*
X127690339Y-97801000D01*
X127735677Y-97805465D01*
X127735677Y-97805465D01*
G37*
G36*
X125685677Y-97805465D02*
X125723364Y-97816898D01*
X125758103Y-97835466D01*
X125788548Y-97860452D01*
X125813534Y-97890897D01*
X125832102Y-97925636D01*
X125843535Y-97963323D01*
X125848000Y-98008661D01*
X125848000Y-99095339D01*
X125843535Y-99140677D01*
X125832102Y-99178364D01*
X125813534Y-99213103D01*
X125788548Y-99243548D01*
X125758103Y-99268534D01*
X125723364Y-99287102D01*
X125685677Y-99298535D01*
X125640339Y-99303000D01*
X124803661Y-99303000D01*
X124758323Y-99298535D01*
X124720636Y-99287102D01*
X124685897Y-99268534D01*
X124655452Y-99243548D01*
X124630466Y-99213103D01*
X124611898Y-99178364D01*
X124600465Y-99140677D01*
X124596000Y-99095339D01*
X124596000Y-98008661D01*
X124600465Y-97963323D01*
X124611898Y-97925636D01*
X124630466Y-97890897D01*
X124655452Y-97860452D01*
X124685897Y-97835466D01*
X124720636Y-97816898D01*
X124758323Y-97805465D01*
X124803661Y-97801000D01*
X125640339Y-97801000D01*
X125685677Y-97805465D01*
X125685677Y-97805465D01*
G37*
G36*
X166755477Y-97803465D02*
X166793164Y-97814898D01*
X166827903Y-97833466D01*
X166858348Y-97858452D01*
X166883334Y-97888897D01*
X166901902Y-97923636D01*
X166913335Y-97961323D01*
X166917800Y-98006661D01*
X166917800Y-98843339D01*
X166913335Y-98888677D01*
X166901902Y-98926364D01*
X166883334Y-98961103D01*
X166858348Y-98991548D01*
X166827903Y-99016534D01*
X166793164Y-99035102D01*
X166755477Y-99046535D01*
X166710139Y-99051000D01*
X165623461Y-99051000D01*
X165578123Y-99046535D01*
X165540436Y-99035102D01*
X165505697Y-99016534D01*
X165475252Y-98991548D01*
X165450266Y-98961103D01*
X165431698Y-98926364D01*
X165420265Y-98888677D01*
X165415800Y-98843339D01*
X165415800Y-98006661D01*
X165420265Y-97961323D01*
X165431698Y-97923636D01*
X165450266Y-97888897D01*
X165475252Y-97858452D01*
X165505697Y-97833466D01*
X165540436Y-97814898D01*
X165578123Y-97803465D01*
X165623461Y-97799000D01*
X166710139Y-97799000D01*
X166755477Y-97803465D01*
X166755477Y-97803465D01*
G37*
G36*
X169778077Y-97803465D02*
X169815764Y-97814898D01*
X169850503Y-97833466D01*
X169880948Y-97858452D01*
X169905934Y-97888897D01*
X169924502Y-97923636D01*
X169935935Y-97961323D01*
X169940400Y-98006661D01*
X169940400Y-98843339D01*
X169935935Y-98888677D01*
X169924502Y-98926364D01*
X169905934Y-98961103D01*
X169880948Y-98991548D01*
X169850503Y-99016534D01*
X169815764Y-99035102D01*
X169778077Y-99046535D01*
X169732739Y-99051000D01*
X168646061Y-99051000D01*
X168600723Y-99046535D01*
X168563036Y-99035102D01*
X168528297Y-99016534D01*
X168497852Y-98991548D01*
X168472866Y-98961103D01*
X168454298Y-98926364D01*
X168442865Y-98888677D01*
X168438400Y-98843339D01*
X168438400Y-98006661D01*
X168442865Y-97961323D01*
X168454298Y-97923636D01*
X168472866Y-97888897D01*
X168497852Y-97858452D01*
X168528297Y-97833466D01*
X168563036Y-97814898D01*
X168600723Y-97803465D01*
X168646061Y-97799000D01*
X169732739Y-97799000D01*
X169778077Y-97803465D01*
X169778077Y-97803465D01*
G37*
G36*
X173638877Y-97796065D02*
X173676564Y-97807498D01*
X173711303Y-97826066D01*
X173741748Y-97851052D01*
X173766734Y-97881497D01*
X173785302Y-97916236D01*
X173796735Y-97953923D01*
X173801200Y-97999261D01*
X173801200Y-98835939D01*
X173796735Y-98881277D01*
X173785302Y-98918964D01*
X173766734Y-98953703D01*
X173741748Y-98984148D01*
X173711303Y-99009134D01*
X173676564Y-99027702D01*
X173638877Y-99039135D01*
X173593539Y-99043600D01*
X172506861Y-99043600D01*
X172461523Y-99039135D01*
X172423836Y-99027702D01*
X172389097Y-99009134D01*
X172358652Y-98984148D01*
X172333666Y-98953703D01*
X172315098Y-98918964D01*
X172303665Y-98881277D01*
X172299200Y-98835939D01*
X172299200Y-97999261D01*
X172303665Y-97953923D01*
X172315098Y-97916236D01*
X172333666Y-97881497D01*
X172358652Y-97851052D01*
X172389097Y-97826066D01*
X172423836Y-97807498D01*
X172461523Y-97796065D01*
X172506861Y-97791600D01*
X173593539Y-97791600D01*
X173638877Y-97796065D01*
X173638877Y-97796065D01*
G37*
G36*
X104474677Y-97389665D02*
X104512364Y-97401098D01*
X104547103Y-97419666D01*
X104577548Y-97444652D01*
X104602534Y-97475097D01*
X104621102Y-97509836D01*
X104632535Y-97547523D01*
X104637000Y-97592861D01*
X104637000Y-98429539D01*
X104632535Y-98474877D01*
X104621102Y-98512564D01*
X104602534Y-98547303D01*
X104577548Y-98577748D01*
X104547103Y-98602734D01*
X104512364Y-98621302D01*
X104474677Y-98632735D01*
X104429339Y-98637200D01*
X103342661Y-98637200D01*
X103297323Y-98632735D01*
X103259636Y-98621302D01*
X103224897Y-98602734D01*
X103194452Y-98577748D01*
X103169466Y-98547303D01*
X103150898Y-98512564D01*
X103139465Y-98474877D01*
X103135000Y-98429539D01*
X103135000Y-97592861D01*
X103139465Y-97547523D01*
X103150898Y-97509836D01*
X103169466Y-97475097D01*
X103194452Y-97444652D01*
X103224897Y-97419666D01*
X103259636Y-97401098D01*
X103297323Y-97389665D01*
X103342661Y-97385200D01*
X104429339Y-97385200D01*
X104474677Y-97389665D01*
X104474677Y-97389665D01*
G37*
G36*
X158585600Y-98191200D02*
X157183600Y-98191200D01*
X157183600Y-97639200D01*
X158585600Y-97639200D01*
X158585600Y-98191200D01*
X158585600Y-98191200D01*
G37*
G36*
X145802310Y-96030841D02*
X145925832Y-96043007D01*
X146123946Y-96103105D01*
X146306529Y-96200697D01*
X146466565Y-96332035D01*
X146597903Y-96492071D01*
X146695495Y-96674654D01*
X146755593Y-96872768D01*
X146775885Y-97078800D01*
X146755593Y-97284832D01*
X146695495Y-97482946D01*
X146597903Y-97665529D01*
X146466565Y-97825565D01*
X146306529Y-97956903D01*
X146123946Y-98054495D01*
X145925832Y-98114593D01*
X145802310Y-98126759D01*
X145771431Y-98129800D01*
X145668169Y-98129800D01*
X145637290Y-98126759D01*
X145513768Y-98114593D01*
X145315654Y-98054495D01*
X145133071Y-97956903D01*
X144973035Y-97825565D01*
X144841697Y-97665529D01*
X144744105Y-97482946D01*
X144684007Y-97284832D01*
X144663715Y-97078800D01*
X144684007Y-96872768D01*
X144744105Y-96674654D01*
X144841697Y-96492071D01*
X144973035Y-96332035D01*
X145133071Y-96200697D01*
X145315654Y-96103105D01*
X145513768Y-96043007D01*
X145637290Y-96030841D01*
X145668169Y-96027800D01*
X145771431Y-96027800D01*
X145802310Y-96030841D01*
X145802310Y-96030841D01*
G37*
G36*
X149536110Y-96030841D02*
X149659632Y-96043007D01*
X149857746Y-96103105D01*
X150040329Y-96200697D01*
X150200365Y-96332035D01*
X150331703Y-96492071D01*
X150429295Y-96674654D01*
X150489393Y-96872768D01*
X150509685Y-97078800D01*
X150489393Y-97284832D01*
X150429295Y-97482946D01*
X150331703Y-97665529D01*
X150200365Y-97825565D01*
X150040329Y-97956903D01*
X149857746Y-98054495D01*
X149659632Y-98114593D01*
X149536110Y-98126759D01*
X149505231Y-98129800D01*
X149401969Y-98129800D01*
X149371090Y-98126759D01*
X149247568Y-98114593D01*
X149049454Y-98054495D01*
X148866871Y-97956903D01*
X148706835Y-97825565D01*
X148575497Y-97665529D01*
X148477905Y-97482946D01*
X148417807Y-97284832D01*
X148397515Y-97078800D01*
X148417807Y-96872768D01*
X148477905Y-96674654D01*
X148575497Y-96492071D01*
X148706835Y-96332035D01*
X148866871Y-96200697D01*
X149049454Y-96103105D01*
X149247568Y-96043007D01*
X149371090Y-96030841D01*
X149401969Y-96027800D01*
X149505231Y-96027800D01*
X149536110Y-96030841D01*
X149536110Y-96030841D01*
G37*
G36*
X153044600Y-98129800D02*
X150942600Y-98129800D01*
X150942600Y-96027800D01*
X153044600Y-96027800D01*
X153044600Y-98129800D01*
X153044600Y-98129800D01*
G37*
G36*
X144230800Y-98129800D02*
X142128800Y-98129800D01*
X142128800Y-96027800D01*
X144230800Y-96027800D01*
X144230800Y-98129800D01*
X144230800Y-98129800D01*
G37*
G36*
X185121510Y-95345041D02*
X185245032Y-95357207D01*
X185443146Y-95417305D01*
X185625729Y-95514897D01*
X185785765Y-95646235D01*
X185917103Y-95806271D01*
X186014695Y-95988854D01*
X186074793Y-96186968D01*
X186095085Y-96393000D01*
X186074793Y-96599032D01*
X186014695Y-96797146D01*
X185917103Y-96979729D01*
X185785765Y-97139765D01*
X185625729Y-97271103D01*
X185443146Y-97368695D01*
X185245032Y-97428793D01*
X185121510Y-97440959D01*
X185090631Y-97444000D01*
X184987369Y-97444000D01*
X184956490Y-97440959D01*
X184832968Y-97428793D01*
X184634854Y-97368695D01*
X184452271Y-97271103D01*
X184292235Y-97139765D01*
X184160897Y-96979729D01*
X184063305Y-96797146D01*
X184003207Y-96599032D01*
X183982915Y-96393000D01*
X184003207Y-96186968D01*
X184063305Y-95988854D01*
X184160897Y-95806271D01*
X184292235Y-95646235D01*
X184452271Y-95514897D01*
X184634854Y-95417305D01*
X184832968Y-95357207D01*
X184956490Y-95345041D01*
X184987369Y-95342000D01*
X185090631Y-95342000D01*
X185121510Y-95345041D01*
X185121510Y-95345041D01*
G37*
G36*
X127734077Y-95722665D02*
X127771764Y-95734098D01*
X127806503Y-95752666D01*
X127836948Y-95777652D01*
X127861934Y-95808097D01*
X127880502Y-95842836D01*
X127891935Y-95880523D01*
X127896400Y-95925861D01*
X127896400Y-97012539D01*
X127891935Y-97057877D01*
X127880502Y-97095564D01*
X127861934Y-97130303D01*
X127836948Y-97160748D01*
X127806503Y-97185734D01*
X127771764Y-97204302D01*
X127734077Y-97215735D01*
X127688739Y-97220200D01*
X126852061Y-97220200D01*
X126806723Y-97215735D01*
X126769036Y-97204302D01*
X126734297Y-97185734D01*
X126703852Y-97160748D01*
X126678866Y-97130303D01*
X126660298Y-97095564D01*
X126648865Y-97057877D01*
X126644400Y-97012539D01*
X126644400Y-95925861D01*
X126648865Y-95880523D01*
X126660298Y-95842836D01*
X126678866Y-95808097D01*
X126703852Y-95777652D01*
X126734297Y-95752666D01*
X126769036Y-95734098D01*
X126806723Y-95722665D01*
X126852061Y-95718200D01*
X127688739Y-95718200D01*
X127734077Y-95722665D01*
X127734077Y-95722665D01*
G37*
G36*
X129784077Y-95722665D02*
X129821764Y-95734098D01*
X129856503Y-95752666D01*
X129886948Y-95777652D01*
X129911934Y-95808097D01*
X129930502Y-95842836D01*
X129941935Y-95880523D01*
X129946400Y-95925861D01*
X129946400Y-97012539D01*
X129941935Y-97057877D01*
X129930502Y-97095564D01*
X129911934Y-97130303D01*
X129886948Y-97160748D01*
X129856503Y-97185734D01*
X129821764Y-97204302D01*
X129784077Y-97215735D01*
X129738739Y-97220200D01*
X128902061Y-97220200D01*
X128856723Y-97215735D01*
X128819036Y-97204302D01*
X128784297Y-97185734D01*
X128753852Y-97160748D01*
X128728866Y-97130303D01*
X128710298Y-97095564D01*
X128698865Y-97057877D01*
X128694400Y-97012539D01*
X128694400Y-95925861D01*
X128698865Y-95880523D01*
X128710298Y-95842836D01*
X128728866Y-95808097D01*
X128753852Y-95777652D01*
X128784297Y-95752666D01*
X128819036Y-95734098D01*
X128856723Y-95722665D01*
X128902061Y-95718200D01*
X129738739Y-95718200D01*
X129784077Y-95722665D01*
X129784077Y-95722665D01*
G37*
G36*
X118199000Y-97190000D02*
X116497000Y-97190000D01*
X116497000Y-95088000D01*
X118199000Y-95088000D01*
X118199000Y-97190000D01*
X118199000Y-97190000D01*
G37*
G36*
X123296443Y-95248519D02*
X123362627Y-95255037D01*
X123475853Y-95289384D01*
X123532467Y-95306557D01*
X123627225Y-95357207D01*
X123688991Y-95390222D01*
X123713730Y-95410525D01*
X123826186Y-95502814D01*
X123904897Y-95598725D01*
X123938778Y-95640009D01*
X123938779Y-95640011D01*
X124022443Y-95796533D01*
X124027540Y-95813335D01*
X124073963Y-95966373D01*
X124091359Y-96143000D01*
X124073963Y-96319627D01*
X124043763Y-96419183D01*
X124022443Y-96489467D01*
X123963878Y-96599032D01*
X123938778Y-96645991D01*
X123925608Y-96662038D01*
X123826186Y-96783186D01*
X123724729Y-96866448D01*
X123688991Y-96895778D01*
X123688989Y-96895779D01*
X123532467Y-96979443D01*
X123503038Y-96988370D01*
X123362627Y-97030963D01*
X123296443Y-97037481D01*
X123230260Y-97044000D01*
X122641740Y-97044000D01*
X122575557Y-97037481D01*
X122509373Y-97030963D01*
X122368962Y-96988370D01*
X122339533Y-96979443D01*
X122183011Y-96895779D01*
X122183009Y-96895778D01*
X122147271Y-96866448D01*
X122045814Y-96783186D01*
X121946392Y-96662038D01*
X121933222Y-96645991D01*
X121908122Y-96599032D01*
X121849557Y-96489467D01*
X121828237Y-96419183D01*
X121798037Y-96319627D01*
X121780641Y-96143000D01*
X121798037Y-95966373D01*
X121844460Y-95813335D01*
X121849557Y-95796533D01*
X121933221Y-95640011D01*
X121933222Y-95640009D01*
X121967103Y-95598725D01*
X122045814Y-95502814D01*
X122158270Y-95410525D01*
X122183009Y-95390222D01*
X122244775Y-95357207D01*
X122339533Y-95306557D01*
X122396147Y-95289384D01*
X122509373Y-95255037D01*
X122575557Y-95248519D01*
X122641740Y-95242000D01*
X123230260Y-95242000D01*
X123296443Y-95248519D01*
X123296443Y-95248519D01*
G37*
G36*
X173638877Y-95746065D02*
X173676564Y-95757498D01*
X173711303Y-95776066D01*
X173741748Y-95801052D01*
X173766734Y-95831497D01*
X173785302Y-95866236D01*
X173796735Y-95903923D01*
X173801200Y-95949261D01*
X173801200Y-96785939D01*
X173796735Y-96831277D01*
X173785302Y-96868964D01*
X173766734Y-96903703D01*
X173741748Y-96934148D01*
X173711303Y-96959134D01*
X173676564Y-96977702D01*
X173638877Y-96989135D01*
X173593539Y-96993600D01*
X172506861Y-96993600D01*
X172461523Y-96989135D01*
X172423836Y-96977702D01*
X172389097Y-96959134D01*
X172358652Y-96934148D01*
X172333666Y-96903703D01*
X172315098Y-96868964D01*
X172303665Y-96831277D01*
X172299200Y-96785939D01*
X172299200Y-95949261D01*
X172303665Y-95903923D01*
X172315098Y-95866236D01*
X172333666Y-95831497D01*
X172358652Y-95801052D01*
X172389097Y-95776066D01*
X172423836Y-95757498D01*
X172461523Y-95746065D01*
X172506861Y-95741600D01*
X173593539Y-95741600D01*
X173638877Y-95746065D01*
X173638877Y-95746065D01*
G37*
G36*
X101574887Y-95013038D02*
X101663992Y-95021814D01*
X101835480Y-95073835D01*
X101835482Y-95073836D01*
X101835485Y-95073837D01*
X101993521Y-95158308D01*
X102132053Y-95271997D01*
X102245742Y-95410529D01*
X102330213Y-95568565D01*
X102330214Y-95568568D01*
X102330215Y-95568570D01*
X102382236Y-95740058D01*
X102399801Y-95918400D01*
X102382236Y-96096742D01*
X102330215Y-96268230D01*
X102330213Y-96268235D01*
X102245742Y-96426271D01*
X102132053Y-96564803D01*
X101993521Y-96678492D01*
X101835485Y-96762963D01*
X101835482Y-96762964D01*
X101835480Y-96762965D01*
X101663992Y-96814986D01*
X101574887Y-96823762D01*
X101530336Y-96828150D01*
X100958464Y-96828150D01*
X100913913Y-96823762D01*
X100824808Y-96814986D01*
X100653320Y-96762965D01*
X100653318Y-96762964D01*
X100653315Y-96762963D01*
X100495279Y-96678492D01*
X100356747Y-96564803D01*
X100243058Y-96426271D01*
X100158587Y-96268235D01*
X100158585Y-96268230D01*
X100106564Y-96096742D01*
X100088999Y-95918400D01*
X100106564Y-95740058D01*
X100158585Y-95568570D01*
X100158586Y-95568568D01*
X100158587Y-95568565D01*
X100243058Y-95410529D01*
X100356747Y-95271997D01*
X100495279Y-95158308D01*
X100653315Y-95073837D01*
X100653318Y-95073836D01*
X100653320Y-95073835D01*
X100824808Y-95021814D01*
X100913913Y-95013038D01*
X100958464Y-95008650D01*
X101530336Y-95008650D01*
X101574887Y-95013038D01*
X101574887Y-95013038D01*
G37*
G36*
X112602677Y-95535465D02*
X112640364Y-95546898D01*
X112675103Y-95565466D01*
X112705548Y-95590452D01*
X112730534Y-95620897D01*
X112749102Y-95655636D01*
X112760535Y-95693323D01*
X112765000Y-95738661D01*
X112765000Y-96575339D01*
X112760535Y-96620677D01*
X112749102Y-96658364D01*
X112730534Y-96693103D01*
X112705548Y-96723548D01*
X112675103Y-96748534D01*
X112640364Y-96767102D01*
X112602677Y-96778535D01*
X112557339Y-96783000D01*
X111470661Y-96783000D01*
X111425323Y-96778535D01*
X111387636Y-96767102D01*
X111352897Y-96748534D01*
X111322452Y-96723548D01*
X111297466Y-96693103D01*
X111278898Y-96658364D01*
X111267465Y-96620677D01*
X111263000Y-96575339D01*
X111263000Y-95738661D01*
X111267465Y-95693323D01*
X111278898Y-95655636D01*
X111297466Y-95620897D01*
X111322452Y-95590452D01*
X111352897Y-95565466D01*
X111387636Y-95546898D01*
X111425323Y-95535465D01*
X111470661Y-95531000D01*
X112557339Y-95531000D01*
X112602677Y-95535465D01*
X112602677Y-95535465D01*
G37*
G36*
X120984677Y-95535465D02*
X121022364Y-95546898D01*
X121057103Y-95565466D01*
X121087548Y-95590452D01*
X121112534Y-95620897D01*
X121131102Y-95655636D01*
X121142535Y-95693323D01*
X121147000Y-95738661D01*
X121147000Y-96575339D01*
X121142535Y-96620677D01*
X121131102Y-96658364D01*
X121112534Y-96693103D01*
X121087548Y-96723548D01*
X121057103Y-96748534D01*
X121022364Y-96767102D01*
X120984677Y-96778535D01*
X120939339Y-96783000D01*
X119852661Y-96783000D01*
X119807323Y-96778535D01*
X119769636Y-96767102D01*
X119734897Y-96748534D01*
X119704452Y-96723548D01*
X119679466Y-96693103D01*
X119660898Y-96658364D01*
X119649465Y-96620677D01*
X119645000Y-96575339D01*
X119645000Y-95738661D01*
X119649465Y-95693323D01*
X119660898Y-95655636D01*
X119679466Y-95620897D01*
X119704452Y-95590452D01*
X119734897Y-95565466D01*
X119769636Y-95546898D01*
X119807323Y-95535465D01*
X119852661Y-95531000D01*
X120939339Y-95531000D01*
X120984677Y-95535465D01*
X120984677Y-95535465D01*
G37*
G36*
X114888677Y-95535465D02*
X114926364Y-95546898D01*
X114961103Y-95565466D01*
X114991548Y-95590452D01*
X115016534Y-95620897D01*
X115035102Y-95655636D01*
X115046535Y-95693323D01*
X115051000Y-95738661D01*
X115051000Y-96575339D01*
X115046535Y-96620677D01*
X115035102Y-96658364D01*
X115016534Y-96693103D01*
X114991548Y-96723548D01*
X114961103Y-96748534D01*
X114926364Y-96767102D01*
X114888677Y-96778535D01*
X114843339Y-96783000D01*
X113756661Y-96783000D01*
X113711323Y-96778535D01*
X113673636Y-96767102D01*
X113638897Y-96748534D01*
X113608452Y-96723548D01*
X113583466Y-96693103D01*
X113564898Y-96658364D01*
X113553465Y-96620677D01*
X113549000Y-96575339D01*
X113549000Y-95738661D01*
X113553465Y-95693323D01*
X113564898Y-95655636D01*
X113583466Y-95620897D01*
X113608452Y-95590452D01*
X113638897Y-95565466D01*
X113673636Y-95546898D01*
X113711323Y-95535465D01*
X113756661Y-95531000D01*
X114843339Y-95531000D01*
X114888677Y-95535465D01*
X114888677Y-95535465D01*
G37*
G36*
X106381677Y-95214665D02*
X106419364Y-95226098D01*
X106454103Y-95244666D01*
X106484548Y-95269652D01*
X106509534Y-95300097D01*
X106528102Y-95334836D01*
X106539535Y-95372523D01*
X106544000Y-95417861D01*
X106544000Y-96504539D01*
X106539535Y-96549877D01*
X106528102Y-96587564D01*
X106509534Y-96622303D01*
X106484548Y-96652748D01*
X106454103Y-96677734D01*
X106419364Y-96696302D01*
X106381677Y-96707735D01*
X106336339Y-96712200D01*
X105499661Y-96712200D01*
X105454323Y-96707735D01*
X105416636Y-96696302D01*
X105381897Y-96677734D01*
X105351452Y-96652748D01*
X105326466Y-96622303D01*
X105307898Y-96587564D01*
X105296465Y-96549877D01*
X105292000Y-96504539D01*
X105292000Y-95417861D01*
X105296465Y-95372523D01*
X105307898Y-95334836D01*
X105326466Y-95300097D01*
X105351452Y-95269652D01*
X105381897Y-95244666D01*
X105416636Y-95226098D01*
X105454323Y-95214665D01*
X105499661Y-95210200D01*
X106336339Y-95210200D01*
X106381677Y-95214665D01*
X106381677Y-95214665D01*
G37*
G36*
X108431677Y-95214665D02*
X108469364Y-95226098D01*
X108504103Y-95244666D01*
X108534548Y-95269652D01*
X108559534Y-95300097D01*
X108578102Y-95334836D01*
X108589535Y-95372523D01*
X108594000Y-95417861D01*
X108594000Y-96504539D01*
X108589535Y-96549877D01*
X108578102Y-96587564D01*
X108559534Y-96622303D01*
X108534548Y-96652748D01*
X108504103Y-96677734D01*
X108469364Y-96696302D01*
X108431677Y-96707735D01*
X108386339Y-96712200D01*
X107549661Y-96712200D01*
X107504323Y-96707735D01*
X107466636Y-96696302D01*
X107431897Y-96677734D01*
X107401452Y-96652748D01*
X107376466Y-96622303D01*
X107357898Y-96587564D01*
X107346465Y-96549877D01*
X107342000Y-96504539D01*
X107342000Y-95417861D01*
X107346465Y-95372523D01*
X107357898Y-95334836D01*
X107376466Y-95300097D01*
X107401452Y-95269652D01*
X107431897Y-95244666D01*
X107466636Y-95226098D01*
X107504323Y-95214665D01*
X107549661Y-95210200D01*
X108386339Y-95210200D01*
X108431677Y-95214665D01*
X108431677Y-95214665D01*
G37*
G36*
X104474677Y-95339665D02*
X104512364Y-95351098D01*
X104547103Y-95369666D01*
X104577548Y-95394652D01*
X104602534Y-95425097D01*
X104621102Y-95459836D01*
X104632535Y-95497523D01*
X104637000Y-95542861D01*
X104637000Y-96379539D01*
X104632535Y-96424877D01*
X104621102Y-96462564D01*
X104602534Y-96497303D01*
X104577548Y-96527748D01*
X104547103Y-96552734D01*
X104512364Y-96571302D01*
X104474677Y-96582735D01*
X104429339Y-96587200D01*
X103342661Y-96587200D01*
X103297323Y-96582735D01*
X103259636Y-96571302D01*
X103224897Y-96552734D01*
X103194452Y-96527748D01*
X103169466Y-96497303D01*
X103150898Y-96462564D01*
X103139465Y-96424877D01*
X103135000Y-96379539D01*
X103135000Y-95542861D01*
X103139465Y-95497523D01*
X103150898Y-95459836D01*
X103169466Y-95425097D01*
X103194452Y-95394652D01*
X103224897Y-95369666D01*
X103259636Y-95351098D01*
X103297323Y-95339665D01*
X103342661Y-95335200D01*
X104429339Y-95335200D01*
X104474677Y-95339665D01*
X104474677Y-95339665D01*
G37*
G36*
X165637877Y-94570265D02*
X165675564Y-94581698D01*
X165710303Y-94600266D01*
X165740748Y-94625252D01*
X165765734Y-94655697D01*
X165784302Y-94690436D01*
X165795735Y-94728123D01*
X165800200Y-94773461D01*
X165800200Y-95610139D01*
X165795735Y-95655477D01*
X165784302Y-95693164D01*
X165765734Y-95727903D01*
X165740748Y-95758348D01*
X165710303Y-95783334D01*
X165675564Y-95801902D01*
X165637877Y-95813335D01*
X165592539Y-95817800D01*
X164505861Y-95817800D01*
X164460523Y-95813335D01*
X164422836Y-95801902D01*
X164388097Y-95783334D01*
X164357652Y-95758348D01*
X164332666Y-95727903D01*
X164314098Y-95693164D01*
X164302665Y-95655477D01*
X164298200Y-95610139D01*
X164298200Y-94773461D01*
X164302665Y-94728123D01*
X164314098Y-94690436D01*
X164332666Y-94655697D01*
X164357652Y-94625252D01*
X164388097Y-94600266D01*
X164422836Y-94581698D01*
X164460523Y-94570265D01*
X164505861Y-94565800D01*
X165592539Y-94565800D01*
X165637877Y-94570265D01*
X165637877Y-94570265D01*
G37*
G36*
X163097877Y-94570265D02*
X163135564Y-94581698D01*
X163170303Y-94600266D01*
X163200748Y-94625252D01*
X163225734Y-94655697D01*
X163244302Y-94690436D01*
X163255735Y-94728123D01*
X163260200Y-94773461D01*
X163260200Y-95610139D01*
X163255735Y-95655477D01*
X163244302Y-95693164D01*
X163225734Y-95727903D01*
X163200748Y-95758348D01*
X163170303Y-95783334D01*
X163135564Y-95801902D01*
X163097877Y-95813335D01*
X163052539Y-95817800D01*
X161965861Y-95817800D01*
X161920523Y-95813335D01*
X161882836Y-95801902D01*
X161848097Y-95783334D01*
X161817652Y-95758348D01*
X161792666Y-95727903D01*
X161774098Y-95693164D01*
X161762665Y-95655477D01*
X161758200Y-95610139D01*
X161758200Y-94773461D01*
X161762665Y-94728123D01*
X161774098Y-94690436D01*
X161792666Y-94655697D01*
X161817652Y-94625252D01*
X161848097Y-94600266D01*
X161882836Y-94581698D01*
X161920523Y-94570265D01*
X161965861Y-94565800D01*
X163052539Y-94565800D01*
X163097877Y-94570265D01*
X163097877Y-94570265D01*
G37*
G36*
X186090000Y-94904000D02*
X183988000Y-94904000D01*
X183988000Y-92802000D01*
X186090000Y-92802000D01*
X186090000Y-94904000D01*
X186090000Y-94904000D01*
G37*
G36*
X108413677Y-93360465D02*
X108451364Y-93371898D01*
X108486103Y-93390466D01*
X108516548Y-93415452D01*
X108541534Y-93445897D01*
X108560102Y-93480636D01*
X108571535Y-93518323D01*
X108576000Y-93563661D01*
X108576000Y-94650339D01*
X108571535Y-94695677D01*
X108560102Y-94733364D01*
X108541534Y-94768103D01*
X108516548Y-94798548D01*
X108486103Y-94823534D01*
X108451364Y-94842102D01*
X108413677Y-94853535D01*
X108368339Y-94858000D01*
X107531661Y-94858000D01*
X107486323Y-94853535D01*
X107448636Y-94842102D01*
X107413897Y-94823534D01*
X107383452Y-94798548D01*
X107358466Y-94768103D01*
X107339898Y-94733364D01*
X107328465Y-94695677D01*
X107324000Y-94650339D01*
X107324000Y-93563661D01*
X107328465Y-93518323D01*
X107339898Y-93480636D01*
X107358466Y-93445897D01*
X107383452Y-93415452D01*
X107413897Y-93390466D01*
X107448636Y-93371898D01*
X107486323Y-93360465D01*
X107531661Y-93356000D01*
X108368339Y-93356000D01*
X108413677Y-93360465D01*
X108413677Y-93360465D01*
G37*
G36*
X110463677Y-93360465D02*
X110501364Y-93371898D01*
X110536103Y-93390466D01*
X110566548Y-93415452D01*
X110591534Y-93445897D01*
X110610102Y-93480636D01*
X110621535Y-93518323D01*
X110626000Y-93563661D01*
X110626000Y-94650339D01*
X110621535Y-94695677D01*
X110610102Y-94733364D01*
X110591534Y-94768103D01*
X110566548Y-94798548D01*
X110536103Y-94823534D01*
X110501364Y-94842102D01*
X110463677Y-94853535D01*
X110418339Y-94858000D01*
X109581661Y-94858000D01*
X109536323Y-94853535D01*
X109498636Y-94842102D01*
X109463897Y-94823534D01*
X109433452Y-94798548D01*
X109408466Y-94768103D01*
X109389898Y-94733364D01*
X109378465Y-94695677D01*
X109374000Y-94650339D01*
X109374000Y-93563661D01*
X109378465Y-93518323D01*
X109389898Y-93480636D01*
X109408466Y-93445897D01*
X109433452Y-93415452D01*
X109463897Y-93390466D01*
X109498636Y-93371898D01*
X109536323Y-93360465D01*
X109581661Y-93356000D01*
X110418339Y-93356000D01*
X110463677Y-93360465D01*
X110463677Y-93360465D01*
G37*
G36*
X123296442Y-92958518D02*
X123362627Y-92965037D01*
X123475853Y-92999384D01*
X123532467Y-93016557D01*
X123635573Y-93071669D01*
X123688991Y-93100222D01*
X123695444Y-93105518D01*
X123826186Y-93212814D01*
X123896073Y-93297973D01*
X123938778Y-93350009D01*
X123938779Y-93350011D01*
X124022443Y-93506533D01*
X124038704Y-93560139D01*
X124073963Y-93676373D01*
X124091359Y-93853000D01*
X124073963Y-94029627D01*
X124046093Y-94121501D01*
X124022443Y-94199467D01*
X123948348Y-94338087D01*
X123938778Y-94355991D01*
X123930993Y-94365477D01*
X123826186Y-94493186D01*
X123731331Y-94571030D01*
X123688991Y-94605778D01*
X123688989Y-94605779D01*
X123532467Y-94689443D01*
X123502497Y-94698534D01*
X123362627Y-94740963D01*
X123296442Y-94747482D01*
X123230260Y-94754000D01*
X122641740Y-94754000D01*
X122575557Y-94747481D01*
X122509373Y-94740963D01*
X122369503Y-94698534D01*
X122339533Y-94689443D01*
X122183011Y-94605779D01*
X122183009Y-94605778D01*
X122140669Y-94571030D01*
X122045814Y-94493186D01*
X121941007Y-94365477D01*
X121933222Y-94355991D01*
X121923652Y-94338087D01*
X121849557Y-94199467D01*
X121825907Y-94121501D01*
X121798037Y-94029627D01*
X121780641Y-93853000D01*
X121798037Y-93676373D01*
X121833296Y-93560139D01*
X121849557Y-93506533D01*
X121933221Y-93350011D01*
X121933222Y-93350009D01*
X121975927Y-93297973D01*
X122045814Y-93212814D01*
X122176556Y-93105518D01*
X122183009Y-93100222D01*
X122236427Y-93071669D01*
X122339533Y-93016557D01*
X122396147Y-92999384D01*
X122509373Y-92965037D01*
X122575558Y-92958518D01*
X122641740Y-92952000D01*
X123230260Y-92952000D01*
X123296442Y-92958518D01*
X123296442Y-92958518D01*
G37*
G36*
X114888677Y-93485465D02*
X114926364Y-93496898D01*
X114961103Y-93515466D01*
X114991548Y-93540452D01*
X115016534Y-93570897D01*
X115035102Y-93605636D01*
X115046535Y-93643323D01*
X115051000Y-93688661D01*
X115051000Y-94525339D01*
X115046535Y-94570677D01*
X115035102Y-94608364D01*
X115016534Y-94643103D01*
X114991548Y-94673548D01*
X114961103Y-94698534D01*
X114926364Y-94717102D01*
X114888677Y-94728535D01*
X114843339Y-94733000D01*
X113756661Y-94733000D01*
X113711323Y-94728535D01*
X113673636Y-94717102D01*
X113638897Y-94698534D01*
X113608452Y-94673548D01*
X113583466Y-94643103D01*
X113564898Y-94608364D01*
X113553465Y-94570677D01*
X113549000Y-94525339D01*
X113549000Y-93688661D01*
X113553465Y-93643323D01*
X113564898Y-93605636D01*
X113583466Y-93570897D01*
X113608452Y-93540452D01*
X113638897Y-93515466D01*
X113673636Y-93496898D01*
X113711323Y-93485465D01*
X113756661Y-93481000D01*
X114843339Y-93481000D01*
X114888677Y-93485465D01*
X114888677Y-93485465D01*
G37*
G36*
X120984677Y-93485465D02*
X121022364Y-93496898D01*
X121057103Y-93515466D01*
X121087548Y-93540452D01*
X121112534Y-93570897D01*
X121131102Y-93605636D01*
X121142535Y-93643323D01*
X121147000Y-93688661D01*
X121147000Y-94525339D01*
X121142535Y-94570677D01*
X121131102Y-94608364D01*
X121112534Y-94643103D01*
X121087548Y-94673548D01*
X121057103Y-94698534D01*
X121022364Y-94717102D01*
X120984677Y-94728535D01*
X120939339Y-94733000D01*
X119852661Y-94733000D01*
X119807323Y-94728535D01*
X119769636Y-94717102D01*
X119734897Y-94698534D01*
X119704452Y-94673548D01*
X119679466Y-94643103D01*
X119660898Y-94608364D01*
X119649465Y-94570677D01*
X119645000Y-94525339D01*
X119645000Y-93688661D01*
X119649465Y-93643323D01*
X119660898Y-93605636D01*
X119679466Y-93570897D01*
X119704452Y-93540452D01*
X119734897Y-93515466D01*
X119769636Y-93496898D01*
X119807323Y-93485465D01*
X119852661Y-93481000D01*
X120939339Y-93481000D01*
X120984677Y-93485465D01*
X120984677Y-93485465D01*
G37*
G36*
X112602677Y-93485465D02*
X112640364Y-93496898D01*
X112675103Y-93515466D01*
X112705548Y-93540452D01*
X112730534Y-93570897D01*
X112749102Y-93605636D01*
X112760535Y-93643323D01*
X112765000Y-93688661D01*
X112765000Y-94525339D01*
X112760535Y-94570677D01*
X112749102Y-94608364D01*
X112730534Y-94643103D01*
X112705548Y-94673548D01*
X112675103Y-94698534D01*
X112640364Y-94717102D01*
X112602677Y-94728535D01*
X112557339Y-94733000D01*
X111470661Y-94733000D01*
X111425323Y-94728535D01*
X111387636Y-94717102D01*
X111352897Y-94698534D01*
X111322452Y-94673548D01*
X111297466Y-94643103D01*
X111278898Y-94608364D01*
X111267465Y-94570677D01*
X111263000Y-94525339D01*
X111263000Y-93688661D01*
X111267465Y-93643323D01*
X111278898Y-93605636D01*
X111297466Y-93570897D01*
X111322452Y-93540452D01*
X111352897Y-93515466D01*
X111387636Y-93496898D01*
X111425323Y-93485465D01*
X111470661Y-93481000D01*
X112557339Y-93481000D01*
X112602677Y-93485465D01*
X112602677Y-93485465D01*
G37*
G36*
X101574887Y-92723038D02*
X101663992Y-92731814D01*
X101835480Y-92783835D01*
X101835482Y-92783836D01*
X101835485Y-92783837D01*
X101993521Y-92868308D01*
X102132053Y-92981997D01*
X102245742Y-93120529D01*
X102330213Y-93278565D01*
X102330214Y-93278568D01*
X102330215Y-93278570D01*
X102382236Y-93450058D01*
X102399801Y-93628400D01*
X102382236Y-93806742D01*
X102330215Y-93978230D01*
X102330213Y-93978235D01*
X102245742Y-94136271D01*
X102132053Y-94274803D01*
X101993521Y-94388492D01*
X101835485Y-94472963D01*
X101835482Y-94472964D01*
X101835480Y-94472965D01*
X101663992Y-94524986D01*
X101574887Y-94533762D01*
X101530336Y-94538150D01*
X100958464Y-94538150D01*
X100913913Y-94533762D01*
X100824808Y-94524986D01*
X100653320Y-94472965D01*
X100653318Y-94472964D01*
X100653315Y-94472963D01*
X100495279Y-94388492D01*
X100356747Y-94274803D01*
X100243058Y-94136271D01*
X100158587Y-93978235D01*
X100158585Y-93978230D01*
X100106564Y-93806742D01*
X100088999Y-93628400D01*
X100106564Y-93450058D01*
X100158585Y-93278570D01*
X100158586Y-93278568D01*
X100158587Y-93278565D01*
X100243058Y-93120529D01*
X100356747Y-92981997D01*
X100495279Y-92868308D01*
X100653315Y-92783837D01*
X100653318Y-92783836D01*
X100653320Y-92783835D01*
X100824808Y-92731814D01*
X100913913Y-92723038D01*
X100958464Y-92718650D01*
X101530336Y-92718650D01*
X101574887Y-92723038D01*
X101574887Y-92723038D01*
G37*
G36*
X154547477Y-93030265D02*
X154585164Y-93041698D01*
X154619903Y-93060266D01*
X154650348Y-93085252D01*
X154675334Y-93115697D01*
X154693902Y-93150436D01*
X154705335Y-93188123D01*
X154709800Y-93233461D01*
X154709800Y-94320139D01*
X154705335Y-94365477D01*
X154693902Y-94403164D01*
X154675334Y-94437903D01*
X154650348Y-94468348D01*
X154619903Y-94493334D01*
X154585164Y-94511902D01*
X154547477Y-94523335D01*
X154502139Y-94527800D01*
X153665461Y-94527800D01*
X153620123Y-94523335D01*
X153582436Y-94511902D01*
X153547697Y-94493334D01*
X153517252Y-94468348D01*
X153492266Y-94437903D01*
X153473698Y-94403164D01*
X153462265Y-94365477D01*
X153457800Y-94320139D01*
X153457800Y-93233461D01*
X153462265Y-93188123D01*
X153473698Y-93150436D01*
X153492266Y-93115697D01*
X153517252Y-93085252D01*
X153547697Y-93060266D01*
X153582436Y-93041698D01*
X153620123Y-93030265D01*
X153665461Y-93025800D01*
X154502139Y-93025800D01*
X154547477Y-93030265D01*
X154547477Y-93030265D01*
G37*
G36*
X156597477Y-93030265D02*
X156635164Y-93041698D01*
X156669903Y-93060266D01*
X156700348Y-93085252D01*
X156725334Y-93115697D01*
X156743902Y-93150436D01*
X156755335Y-93188123D01*
X156759800Y-93233461D01*
X156759800Y-94320139D01*
X156755335Y-94365477D01*
X156743902Y-94403164D01*
X156725334Y-94437903D01*
X156700348Y-94468348D01*
X156669903Y-94493334D01*
X156635164Y-94511902D01*
X156597477Y-94523335D01*
X156552139Y-94527800D01*
X155715461Y-94527800D01*
X155670123Y-94523335D01*
X155632436Y-94511902D01*
X155597697Y-94493334D01*
X155567252Y-94468348D01*
X155542266Y-94437903D01*
X155523698Y-94403164D01*
X155512265Y-94365477D01*
X155507800Y-94320139D01*
X155507800Y-93233461D01*
X155512265Y-93188123D01*
X155523698Y-93150436D01*
X155542266Y-93115697D01*
X155567252Y-93085252D01*
X155597697Y-93060266D01*
X155632436Y-93041698D01*
X155670123Y-93030265D01*
X155715461Y-93025800D01*
X156552139Y-93025800D01*
X156597477Y-93030265D01*
X156597477Y-93030265D01*
G37*
G36*
X145827710Y-92195441D02*
X145951232Y-92207607D01*
X146149346Y-92267705D01*
X146331929Y-92365297D01*
X146491965Y-92496635D01*
X146623303Y-92656671D01*
X146720895Y-92839254D01*
X146780993Y-93037368D01*
X146801285Y-93243400D01*
X146780993Y-93449432D01*
X146720895Y-93647546D01*
X146623303Y-93830129D01*
X146491965Y-93990165D01*
X146331929Y-94121503D01*
X146149346Y-94219095D01*
X145951232Y-94279193D01*
X145827710Y-94291359D01*
X145796831Y-94294400D01*
X145693569Y-94294400D01*
X145662690Y-94291359D01*
X145539168Y-94279193D01*
X145341054Y-94219095D01*
X145158471Y-94121503D01*
X144998435Y-93990165D01*
X144867097Y-93830129D01*
X144769505Y-93647546D01*
X144709407Y-93449432D01*
X144689115Y-93243400D01*
X144709407Y-93037368D01*
X144769505Y-92839254D01*
X144867097Y-92656671D01*
X144998435Y-92496635D01*
X145158471Y-92365297D01*
X145341054Y-92267705D01*
X145539168Y-92207607D01*
X145662690Y-92195441D01*
X145693569Y-92192400D01*
X145796831Y-92192400D01*
X145827710Y-92195441D01*
X145827710Y-92195441D01*
G37*
G36*
X144256200Y-94294400D02*
X142154200Y-94294400D01*
X142154200Y-92192400D01*
X144256200Y-92192400D01*
X144256200Y-94294400D01*
X144256200Y-94294400D01*
G37*
G36*
X165637877Y-92520265D02*
X165675564Y-92531698D01*
X165710303Y-92550266D01*
X165740748Y-92575252D01*
X165765734Y-92605697D01*
X165784302Y-92640436D01*
X165795735Y-92678123D01*
X165800200Y-92723461D01*
X165800200Y-93560139D01*
X165795735Y-93605477D01*
X165784302Y-93643164D01*
X165765734Y-93677903D01*
X165740748Y-93708348D01*
X165710303Y-93733334D01*
X165675564Y-93751902D01*
X165637877Y-93763335D01*
X165592539Y-93767800D01*
X164505861Y-93767800D01*
X164460523Y-93763335D01*
X164422836Y-93751902D01*
X164388097Y-93733334D01*
X164357652Y-93708348D01*
X164332666Y-93677903D01*
X164314098Y-93643164D01*
X164302665Y-93605477D01*
X164298200Y-93560139D01*
X164298200Y-92723461D01*
X164302665Y-92678123D01*
X164314098Y-92640436D01*
X164332666Y-92605697D01*
X164357652Y-92575252D01*
X164388097Y-92550266D01*
X164422836Y-92531698D01*
X164460523Y-92520265D01*
X164505861Y-92515800D01*
X165592539Y-92515800D01*
X165637877Y-92520265D01*
X165637877Y-92520265D01*
G37*
G36*
X163097877Y-92520265D02*
X163135564Y-92531698D01*
X163170303Y-92550266D01*
X163200748Y-92575252D01*
X163225734Y-92605697D01*
X163244302Y-92640436D01*
X163255735Y-92678123D01*
X163260200Y-92723461D01*
X163260200Y-93560139D01*
X163255735Y-93605477D01*
X163244302Y-93643164D01*
X163225734Y-93677903D01*
X163200748Y-93708348D01*
X163170303Y-93733334D01*
X163135564Y-93751902D01*
X163097877Y-93763335D01*
X163052539Y-93767800D01*
X161965861Y-93767800D01*
X161920523Y-93763335D01*
X161882836Y-93751902D01*
X161848097Y-93733334D01*
X161817652Y-93708348D01*
X161792666Y-93677903D01*
X161774098Y-93643164D01*
X161762665Y-93605477D01*
X161758200Y-93560139D01*
X161758200Y-92723461D01*
X161762665Y-92678123D01*
X161774098Y-92640436D01*
X161792666Y-92605697D01*
X161817652Y-92575252D01*
X161848097Y-92550266D01*
X161882836Y-92531698D01*
X161920523Y-92520265D01*
X161965861Y-92515800D01*
X163052539Y-92515800D01*
X163097877Y-92520265D01*
X163097877Y-92520265D01*
G37*
G36*
X168000077Y-92487465D02*
X168037764Y-92498898D01*
X168072503Y-92517466D01*
X168102948Y-92542452D01*
X168127934Y-92572897D01*
X168146502Y-92607636D01*
X168157935Y-92645323D01*
X168162400Y-92690661D01*
X168162400Y-93527339D01*
X168157935Y-93572677D01*
X168146502Y-93610364D01*
X168127934Y-93645103D01*
X168102948Y-93675548D01*
X168072503Y-93700534D01*
X168037764Y-93719102D01*
X168000077Y-93730535D01*
X167954739Y-93735000D01*
X166868061Y-93735000D01*
X166822723Y-93730535D01*
X166785036Y-93719102D01*
X166750297Y-93700534D01*
X166719852Y-93675548D01*
X166694866Y-93645103D01*
X166676298Y-93610364D01*
X166664865Y-93572677D01*
X166660400Y-93527339D01*
X166660400Y-92690661D01*
X166664865Y-92645323D01*
X166676298Y-92607636D01*
X166694866Y-92572897D01*
X166719852Y-92542452D01*
X166750297Y-92517466D01*
X166785036Y-92498898D01*
X166822723Y-92487465D01*
X166868061Y-92483000D01*
X167954739Y-92483000D01*
X168000077Y-92487465D01*
X168000077Y-92487465D01*
G37*
G36*
X124087000Y-92464000D02*
X121785000Y-92464000D01*
X121785000Y-90662000D01*
X124087000Y-90662000D01*
X124087000Y-92464000D01*
X124087000Y-92464000D01*
G37*
G36*
X156572077Y-90820465D02*
X156609764Y-90831898D01*
X156644503Y-90850466D01*
X156674948Y-90875452D01*
X156699934Y-90905897D01*
X156718502Y-90940636D01*
X156729935Y-90978323D01*
X156734400Y-91023661D01*
X156734400Y-92110339D01*
X156729935Y-92155677D01*
X156718502Y-92193364D01*
X156699934Y-92228103D01*
X156674948Y-92258548D01*
X156644503Y-92283534D01*
X156609764Y-92302102D01*
X156572077Y-92313535D01*
X156526739Y-92318000D01*
X155690061Y-92318000D01*
X155644723Y-92313535D01*
X155607036Y-92302102D01*
X155572297Y-92283534D01*
X155541852Y-92258548D01*
X155516866Y-92228103D01*
X155498298Y-92193364D01*
X155486865Y-92155677D01*
X155482400Y-92110339D01*
X155482400Y-91023661D01*
X155486865Y-90978323D01*
X155498298Y-90940636D01*
X155516866Y-90905897D01*
X155541852Y-90875452D01*
X155572297Y-90850466D01*
X155607036Y-90831898D01*
X155644723Y-90820465D01*
X155690061Y-90816000D01*
X156526739Y-90816000D01*
X156572077Y-90820465D01*
X156572077Y-90820465D01*
G37*
G36*
X154522077Y-90820465D02*
X154559764Y-90831898D01*
X154594503Y-90850466D01*
X154624948Y-90875452D01*
X154649934Y-90905897D01*
X154668502Y-90940636D01*
X154679935Y-90978323D01*
X154684400Y-91023661D01*
X154684400Y-92110339D01*
X154679935Y-92155677D01*
X154668502Y-92193364D01*
X154649934Y-92228103D01*
X154624948Y-92258548D01*
X154594503Y-92283534D01*
X154559764Y-92302102D01*
X154522077Y-92313535D01*
X154476739Y-92318000D01*
X153640061Y-92318000D01*
X153594723Y-92313535D01*
X153557036Y-92302102D01*
X153522297Y-92283534D01*
X153491852Y-92258548D01*
X153466866Y-92228103D01*
X153448298Y-92193364D01*
X153436865Y-92155677D01*
X153432400Y-92110339D01*
X153432400Y-91023661D01*
X153436865Y-90978323D01*
X153448298Y-90940636D01*
X153466866Y-90905897D01*
X153491852Y-90875452D01*
X153522297Y-90850466D01*
X153557036Y-90831898D01*
X153594723Y-90820465D01*
X153640061Y-90816000D01*
X154476739Y-90816000D01*
X154522077Y-90820465D01*
X154522077Y-90820465D01*
G37*
G36*
X102395400Y-92248150D02*
X100093400Y-92248150D01*
X100093400Y-90428650D01*
X102395400Y-90428650D01*
X102395400Y-92248150D01*
X102395400Y-92248150D01*
G37*
G36*
X168000077Y-90437465D02*
X168037764Y-90448898D01*
X168072503Y-90467466D01*
X168102948Y-90492452D01*
X168127934Y-90522897D01*
X168146502Y-90557636D01*
X168157935Y-90595323D01*
X168162400Y-90640661D01*
X168162400Y-91477339D01*
X168157935Y-91522677D01*
X168146502Y-91560364D01*
X168127934Y-91595103D01*
X168102948Y-91625548D01*
X168072503Y-91650534D01*
X168037764Y-91669102D01*
X168000077Y-91680535D01*
X167954739Y-91685000D01*
X166868061Y-91685000D01*
X166822723Y-91680535D01*
X166785036Y-91669102D01*
X166750297Y-91650534D01*
X166719852Y-91625548D01*
X166694866Y-91595103D01*
X166676298Y-91560364D01*
X166664865Y-91522677D01*
X166660400Y-91477339D01*
X166660400Y-90640661D01*
X166664865Y-90595323D01*
X166676298Y-90557636D01*
X166694866Y-90522897D01*
X166719852Y-90492452D01*
X166750297Y-90467466D01*
X166785036Y-90448898D01*
X166822723Y-90437465D01*
X166868061Y-90433000D01*
X167954739Y-90433000D01*
X168000077Y-90437465D01*
X168000077Y-90437465D01*
G37*
G36*
X156630277Y-88610665D02*
X156667964Y-88622098D01*
X156702703Y-88640666D01*
X156733148Y-88665652D01*
X156758134Y-88696097D01*
X156776702Y-88730836D01*
X156788135Y-88768523D01*
X156792600Y-88813861D01*
X156792600Y-89900539D01*
X156788135Y-89945877D01*
X156776702Y-89983564D01*
X156758134Y-90018303D01*
X156733148Y-90048748D01*
X156702703Y-90073734D01*
X156667964Y-90092302D01*
X156630277Y-90103735D01*
X156584939Y-90108200D01*
X155748261Y-90108200D01*
X155702923Y-90103735D01*
X155665236Y-90092302D01*
X155630497Y-90073734D01*
X155600052Y-90048748D01*
X155575066Y-90018303D01*
X155556498Y-89983564D01*
X155545065Y-89945877D01*
X155540600Y-89900539D01*
X155540600Y-88813861D01*
X155545065Y-88768523D01*
X155556498Y-88730836D01*
X155575066Y-88696097D01*
X155600052Y-88665652D01*
X155630497Y-88640666D01*
X155665236Y-88622098D01*
X155702923Y-88610665D01*
X155748261Y-88606200D01*
X156584939Y-88606200D01*
X156630277Y-88610665D01*
X156630277Y-88610665D01*
G37*
G36*
X158680277Y-88610665D02*
X158717964Y-88622098D01*
X158752703Y-88640666D01*
X158783148Y-88665652D01*
X158808134Y-88696097D01*
X158826702Y-88730836D01*
X158838135Y-88768523D01*
X158842600Y-88813861D01*
X158842600Y-89900539D01*
X158838135Y-89945877D01*
X158826702Y-89983564D01*
X158808134Y-90018303D01*
X158783148Y-90048748D01*
X158752703Y-90073734D01*
X158717964Y-90092302D01*
X158680277Y-90103735D01*
X158634939Y-90108200D01*
X157798261Y-90108200D01*
X157752923Y-90103735D01*
X157715236Y-90092302D01*
X157680497Y-90073734D01*
X157650052Y-90048748D01*
X157625066Y-90018303D01*
X157606498Y-89983564D01*
X157595065Y-89945877D01*
X157590600Y-89900539D01*
X157590600Y-88813861D01*
X157595065Y-88768523D01*
X157606498Y-88730836D01*
X157625066Y-88696097D01*
X157650052Y-88665652D01*
X157680497Y-88640666D01*
X157715236Y-88622098D01*
X157752923Y-88610665D01*
X157798261Y-88606200D01*
X158634939Y-88606200D01*
X158680277Y-88610665D01*
X158680277Y-88610665D01*
G37*
G36*
X186136800Y-89286600D02*
X183534800Y-89286600D01*
X183534800Y-86684600D01*
X186136800Y-86684600D01*
X186136800Y-89286600D01*
X186136800Y-89286600D01*
G37*
G36*
X174773678Y-86687946D02*
X174930840Y-86703425D01*
X175176080Y-86777818D01*
X175176082Y-86777819D01*
X175402096Y-86898626D01*
X175600197Y-87061203D01*
X175762774Y-87259304D01*
X175762876Y-87259495D01*
X175883582Y-87485320D01*
X175957975Y-87730560D01*
X175983094Y-87985600D01*
X175957975Y-88240640D01*
X175883582Y-88485880D01*
X175883581Y-88485882D01*
X175762774Y-88711896D01*
X175600197Y-88909997D01*
X175402096Y-89072574D01*
X175402094Y-89072575D01*
X175176080Y-89193382D01*
X174930840Y-89267775D01*
X174787489Y-89281894D01*
X174739706Y-89286600D01*
X174611894Y-89286600D01*
X174564111Y-89281894D01*
X174420760Y-89267775D01*
X174175520Y-89193382D01*
X173949506Y-89072575D01*
X173949504Y-89072574D01*
X173751403Y-88909997D01*
X173588826Y-88711896D01*
X173468019Y-88485882D01*
X173468018Y-88485880D01*
X173393625Y-88240640D01*
X173368506Y-87985600D01*
X173393625Y-87730560D01*
X173468018Y-87485320D01*
X173588724Y-87259495D01*
X173588826Y-87259304D01*
X173751403Y-87061203D01*
X173949504Y-86898626D01*
X174175518Y-86777819D01*
X174175520Y-86777818D01*
X174420760Y-86703425D01*
X174577922Y-86687946D01*
X174611894Y-86684600D01*
X174739706Y-86684600D01*
X174773678Y-86687946D01*
X174773678Y-86687946D01*
G37*
G36*
X105371830Y-85401930D02*
X105371833Y-85401931D01*
X105371834Y-85401931D01*
X105579373Y-85464887D01*
X105579375Y-85464888D01*
X105770644Y-85567123D01*
X105938291Y-85704709D01*
X106075877Y-85872356D01*
X106178112Y-86063625D01*
X106178113Y-86063627D01*
X106241069Y-86271166D01*
X106241070Y-86271170D01*
X106262327Y-86487000D01*
X106241070Y-86702830D01*
X106241069Y-86702833D01*
X106241069Y-86702834D01*
X106181677Y-86898625D01*
X106178112Y-86910375D01*
X106075877Y-87101644D01*
X105938291Y-87269291D01*
X105770644Y-87406877D01*
X105579375Y-87509112D01*
X105579373Y-87509113D01*
X105371834Y-87572069D01*
X105371833Y-87572069D01*
X105371830Y-87572070D01*
X105210089Y-87588000D01*
X105101911Y-87588000D01*
X104940170Y-87572070D01*
X104940167Y-87572069D01*
X104940166Y-87572069D01*
X104732627Y-87509113D01*
X104732625Y-87509112D01*
X104541356Y-87406877D01*
X104373709Y-87269291D01*
X104236123Y-87101644D01*
X104133888Y-86910375D01*
X104130324Y-86898625D01*
X104070931Y-86702834D01*
X104070931Y-86702833D01*
X104070930Y-86702830D01*
X104049673Y-86487000D01*
X104070930Y-86271170D01*
X104070931Y-86271166D01*
X104133887Y-86063627D01*
X104133888Y-86063625D01*
X104236123Y-85872356D01*
X104373709Y-85704709D01*
X104541356Y-85567123D01*
X104732625Y-85464888D01*
X104732627Y-85464887D01*
X104940166Y-85401931D01*
X104940167Y-85401931D01*
X104940170Y-85401930D01*
X105101911Y-85386000D01*
X105210089Y-85386000D01*
X105371830Y-85401930D01*
X105371830Y-85401930D01*
G37*
G36*
X107911830Y-85401930D02*
X107911833Y-85401931D01*
X107911834Y-85401931D01*
X108119373Y-85464887D01*
X108119375Y-85464888D01*
X108310644Y-85567123D01*
X108478291Y-85704709D01*
X108615877Y-85872356D01*
X108718112Y-86063625D01*
X108718113Y-86063627D01*
X108781069Y-86271166D01*
X108781070Y-86271170D01*
X108802327Y-86487000D01*
X108781070Y-86702830D01*
X108781069Y-86702833D01*
X108781069Y-86702834D01*
X108721677Y-86898625D01*
X108718112Y-86910375D01*
X108615877Y-87101644D01*
X108478291Y-87269291D01*
X108310644Y-87406877D01*
X108119375Y-87509112D01*
X108119373Y-87509113D01*
X107911834Y-87572069D01*
X107911833Y-87572069D01*
X107911830Y-87572070D01*
X107750089Y-87588000D01*
X107641911Y-87588000D01*
X107480170Y-87572070D01*
X107480167Y-87572069D01*
X107480166Y-87572069D01*
X107272627Y-87509113D01*
X107272625Y-87509112D01*
X107081356Y-87406877D01*
X106913709Y-87269291D01*
X106776123Y-87101644D01*
X106673888Y-86910375D01*
X106670324Y-86898625D01*
X106610931Y-86702834D01*
X106610931Y-86702833D01*
X106610930Y-86702830D01*
X106589673Y-86487000D01*
X106610930Y-86271170D01*
X106610931Y-86271166D01*
X106673887Y-86063627D01*
X106673888Y-86063625D01*
X106776123Y-85872356D01*
X106913709Y-85704709D01*
X107081356Y-85567123D01*
X107272625Y-85464888D01*
X107272627Y-85464887D01*
X107480166Y-85401931D01*
X107480167Y-85401931D01*
X107480170Y-85401930D01*
X107641911Y-85386000D01*
X107750089Y-85386000D01*
X107911830Y-85401930D01*
X107911830Y-85401930D01*
G37*
G36*
X111337000Y-87588000D02*
X109135000Y-87588000D01*
X109135000Y-85386000D01*
X111337000Y-85386000D01*
X111337000Y-87588000D01*
X111337000Y-87588000D01*
G37*
G36*
X128301000Y-87534000D02*
X125699000Y-87534000D01*
X125699000Y-84932000D01*
X128301000Y-84932000D01*
X128301000Y-87534000D01*
X128301000Y-87534000D01*
G37*
G36*
X116951689Y-84936706D02*
X117095040Y-84950825D01*
X117340280Y-85025218D01*
X117340282Y-85025219D01*
X117566296Y-85146026D01*
X117764397Y-85308603D01*
X117926974Y-85506704D01*
X117926975Y-85506706D01*
X118047782Y-85732720D01*
X118122175Y-85977960D01*
X118147294Y-86233000D01*
X118122175Y-86488040D01*
X118056838Y-86703425D01*
X118047781Y-86733282D01*
X117926974Y-86959296D01*
X117764397Y-87157397D01*
X117566296Y-87319974D01*
X117403712Y-87406877D01*
X117340280Y-87440782D01*
X117095040Y-87515175D01*
X116951689Y-87529294D01*
X116903906Y-87534000D01*
X116776094Y-87534000D01*
X116728311Y-87529294D01*
X116584960Y-87515175D01*
X116339720Y-87440782D01*
X116276288Y-87406877D01*
X116113704Y-87319974D01*
X115915603Y-87157397D01*
X115753026Y-86959296D01*
X115632219Y-86733282D01*
X115623162Y-86703425D01*
X115557825Y-86488040D01*
X115532706Y-86233000D01*
X115557825Y-85977960D01*
X115632218Y-85732720D01*
X115753025Y-85506706D01*
X115753026Y-85506704D01*
X115915603Y-85308603D01*
X116113704Y-85146026D01*
X116339718Y-85025219D01*
X116339720Y-85025218D01*
X116584960Y-84950825D01*
X116728311Y-84936706D01*
X116776094Y-84932000D01*
X116903906Y-84932000D01*
X116951689Y-84936706D01*
X116951689Y-84936706D01*
G37*
G36*
X134931110Y-85235841D02*
X135054632Y-85248007D01*
X135252746Y-85308105D01*
X135435329Y-85405697D01*
X135595365Y-85537035D01*
X135726703Y-85697071D01*
X135824295Y-85879654D01*
X135884393Y-86077768D01*
X135904685Y-86283800D01*
X135884393Y-86489832D01*
X135824295Y-86687946D01*
X135726703Y-86870529D01*
X135595365Y-87030565D01*
X135435329Y-87161903D01*
X135252746Y-87259495D01*
X135054632Y-87319593D01*
X134931110Y-87331759D01*
X134900231Y-87334800D01*
X134796969Y-87334800D01*
X134766090Y-87331759D01*
X134642568Y-87319593D01*
X134444454Y-87259495D01*
X134261871Y-87161903D01*
X134101835Y-87030565D01*
X133970497Y-86870529D01*
X133872905Y-86687946D01*
X133812807Y-86489832D01*
X133792515Y-86283800D01*
X133812807Y-86077768D01*
X133872905Y-85879654D01*
X133970497Y-85697071D01*
X134101835Y-85537035D01*
X134261871Y-85405697D01*
X134444454Y-85308105D01*
X134642568Y-85248007D01*
X134766090Y-85235841D01*
X134796969Y-85232800D01*
X134900231Y-85232800D01*
X134931110Y-85235841D01*
X134931110Y-85235841D01*
G37*
G36*
X133359600Y-87334800D02*
X131257600Y-87334800D01*
X131257600Y-85232800D01*
X133359600Y-85232800D01*
X133359600Y-87334800D01*
X133359600Y-87334800D01*
G37*
G36*
X175239077Y-84334065D02*
X175276764Y-84345498D01*
X175311503Y-84364066D01*
X175341948Y-84389052D01*
X175366934Y-84419497D01*
X175385502Y-84454236D01*
X175396935Y-84491923D01*
X175401400Y-84537261D01*
X175401400Y-85373939D01*
X175396935Y-85419277D01*
X175385502Y-85456964D01*
X175366934Y-85491703D01*
X175341948Y-85522148D01*
X175311503Y-85547134D01*
X175276764Y-85565702D01*
X175239077Y-85577135D01*
X175193739Y-85581600D01*
X174107061Y-85581600D01*
X174061723Y-85577135D01*
X174024036Y-85565702D01*
X173989297Y-85547134D01*
X173958852Y-85522148D01*
X173933866Y-85491703D01*
X173915298Y-85456964D01*
X173903865Y-85419277D01*
X173899400Y-85373939D01*
X173899400Y-84537261D01*
X173903865Y-84491923D01*
X173915298Y-84454236D01*
X173933866Y-84419497D01*
X173958852Y-84389052D01*
X173989297Y-84364066D01*
X174024036Y-84345498D01*
X174061723Y-84334065D01*
X174107061Y-84329600D01*
X175193739Y-84329600D01*
X175239077Y-84334065D01*
X175239077Y-84334065D01*
G37*
G36*
X142626200Y-83744000D02*
X140104200Y-83744000D01*
X140104200Y-78562000D01*
X142626200Y-78562000D01*
X142626200Y-83744000D01*
X142626200Y-83744000D01*
G37*
G36*
X151386200Y-83744000D02*
X148864200Y-83744000D01*
X148864200Y-78562000D01*
X151386200Y-78562000D01*
X151386200Y-83744000D01*
X151386200Y-83744000D01*
G37*
G36*
X146941200Y-83744000D02*
X144549200Y-83744000D01*
X144549200Y-78562000D01*
X146941200Y-78562000D01*
X146941200Y-83744000D01*
X146941200Y-83744000D01*
G37*
G36*
X166905600Y-83649600D02*
X164383600Y-83649600D01*
X164383600Y-78467600D01*
X166905600Y-78467600D01*
X166905600Y-83649600D01*
X166905600Y-83649600D01*
G37*
G36*
X162460600Y-83649600D02*
X160068600Y-83649600D01*
X160068600Y-78467600D01*
X162460600Y-78467600D01*
X162460600Y-83649600D01*
X162460600Y-83649600D01*
G37*
G36*
X158145600Y-83649600D02*
X155623600Y-83649600D01*
X155623600Y-78467600D01*
X158145600Y-78467600D01*
X158145600Y-83649600D01*
X158145600Y-83649600D01*
G37*
G36*
X175239077Y-82284065D02*
X175276764Y-82295498D01*
X175311503Y-82314066D01*
X175341948Y-82339052D01*
X175366934Y-82369497D01*
X175385502Y-82404236D01*
X175396935Y-82441923D01*
X175401400Y-82487261D01*
X175401400Y-83323939D01*
X175396935Y-83369277D01*
X175385502Y-83406964D01*
X175366934Y-83441703D01*
X175341948Y-83472148D01*
X175311503Y-83497134D01*
X175276764Y-83515702D01*
X175239077Y-83527135D01*
X175193739Y-83531600D01*
X174107061Y-83531600D01*
X174061723Y-83527135D01*
X174024036Y-83515702D01*
X173989297Y-83497134D01*
X173958852Y-83472148D01*
X173933866Y-83441703D01*
X173915298Y-83406964D01*
X173903865Y-83369277D01*
X173899400Y-83323939D01*
X173899400Y-82487261D01*
X173903865Y-82441923D01*
X173915298Y-82404236D01*
X173933866Y-82369497D01*
X173958852Y-82339052D01*
X173989297Y-82314066D01*
X174024036Y-82295498D01*
X174061723Y-82284065D01*
X174107061Y-82279600D01*
X175193739Y-82279600D01*
X175239077Y-82284065D01*
X175239077Y-82284065D01*
G37*
M02*
