G04 ================== begin FILE IDENTIFICATION RECORD ==================*
G04 Layout Name:  PADesignV1.brd*
G04 Film Name:    BOTTOM*
G04 File Format:  Gerber RS274X*
G04 File Origin:  Cadence Allegro 17.2-S029*
G04 Origin Date:  Wed Apr 17 19:27:00 2019*
G04 *
G04 Layer:  ETCH/BOTTOM*
G04 Layer:  PIN/BOTTOM*
G04 Layer:  VIA CLASS/BOTTOM*
G04 *
G04 Offset:    (0.0 0.0)*
G04 Mirror:    No*
G04 Mode:      Positive*
G04 Rotation:  0*
G04 FullContactRelief:  No*
G04 UndefLineWidth:     1.0*
G04 ================== end FILE IDENTIFICATION RECORD ====================*
%FSLAX45Y45*MOIN*%
%IR0*IPPOS*OFA0.00000B0.00000*MIA0B0*SFA1.00000B1.00000*%
%ADD12R,.1X.08*%
%ADD14R,.04X.034*%
%ADD15R,.05X.034*%
%ADD17C,.062*%
%ADD11R,.05X.05*%
%ADD16R,.062X.062*%
%ADD13R,.076X.048*%
%ADD10R,.058X.058*%
%ADD18C,.03*%
%ADD19C,.012*%
%ADD20C,.05*%
%ADD21C,.034*%
%ADD22C,.025*%
%ADD23C,.0784*%
G75*
%LPD*%
G75*
G36*
G01X1111500Y1043310D02*
G03X1110690Y1042500I0J-810D01*
G01Y1037500D01*
G03X1111500Y1036690I810J0D01*
G01X1155400D01*
G03X1156100Y1036290I700J413D01*
G01X1162000D01*
Y971000D01*
X820000D01*
Y998290D01*
X825900D01*
G03X826600Y998690I0J813D01*
G01X865500D01*
G03X866310Y999500I0J810D01*
G01Y1004500D01*
G03X865500Y1005310I-810J0D01*
G01X826600D01*
G03X825900Y1005710I-700J-413D01*
G01X820000D01*
Y1077000D01*
X1162000D01*
Y1043710D01*
X1156100D01*
G03X1155400Y1043310I0J-812D01*
G01X1111500D01*
G37*
%LPC*%
G75*
G36*
G01X1096810Y1036000D02*
G02X1096000Y1035190I-810J0D01*
G01X1086000D01*
G02X1085190Y1036000I0J810D01*
G01Y1044000D01*
G02X1086000Y1044810I810J0D01*
G01X1096000D01*
G02X1096810Y1044000I0J-810D01*
G01Y1043310D01*
X1105600D01*
X1108100D01*
G02X1108910Y1042500I0J-810D01*
G01Y1037500D01*
G02X1108100Y1036690I-810J0D01*
G01X1105600D01*
X1096810D01*
Y1036000D01*
G37*
G36*
G01X1016270Y1034540D02*
X993210D01*
G02X988660Y1034660I-2212J2461D01*
G01X986630Y1036690D01*
X939810D01*
Y1036000D01*
G02X939000Y1035190I-810J0D01*
G01X929000D01*
G02X928190Y1036000I0J810D01*
G01Y1044000D01*
G02X929000Y1044810I810J0D01*
G01X939000D01*
G02X939810Y1044000I0J-810D01*
G01Y1043310D01*
X989370D01*
X993340Y1039340D01*
G02X993860Y1038660I-2346J-2333D01*
G01X1016270D01*
X1016330Y1038750D01*
G02X1017000Y1039110I670J-443D01*
G01X1021000D01*
G02X1021810Y1038300I0J-810D01*
G01Y1034900D01*
G02X1021000Y1034090I-810J0D01*
G01X1017000D01*
G02X1016330Y1034450I0J803D01*
G01X1016270Y1034540D01*
G37*
G36*
G01X1085190Y998000D02*
Y1006000D01*
G02X1086000Y1006810I810J0D01*
G01X1096000D01*
G02X1096810Y1006000I0J-810D01*
G01Y998000D01*
G02X1096000Y997190I-810J0D01*
G01X1086000D01*
G02X1085190Y998000I0J810D01*
G37*
G36*
G01X1059290Y1052500D02*
Y1057500D01*
G02X1060100Y1058310I810J0D01*
G01X1065100D01*
G02X1065910Y1057500I0J-810D01*
G01Y1052500D01*
G02X1065100Y1051690I-810J0D01*
G01X1060100D01*
G02X1059290Y1052500I0J810D01*
G37*
G36*
G01X1007290Y1049500D02*
Y1054500D01*
G02X1008100Y1055310I810J0D01*
G01X1013100D01*
G02X1013910Y1054500I0J-810D01*
G01Y1049500D01*
G02X1013100Y1048690I-810J0D01*
G01X1008100D01*
G02X1007290Y1049500I0J810D01*
G37*
G36*
G01X1004690Y1005900D02*
Y1010900D01*
G02X1005500Y1011710I810J0D01*
G01X1010500D01*
G02X1011310Y1010900I0J-810D01*
G01Y1005900D01*
G02X1010500Y1005090I-810J0D01*
G01X1005500D01*
G02X1004690Y1005900I0J810D01*
G37*
G36*
G01X981690Y1010100D02*
Y1015100D01*
G02X982500Y1015910I810J0D01*
G01X987500D01*
G02X988310Y1015100I0J-810D01*
G01Y1010100D01*
G02X987500Y1009290I-810J0D01*
G01X982500D01*
G02X981690Y1010100I0J810D01*
G37*
G36*
G01X949290Y1010500D02*
Y1015500D01*
G02X950100Y1016310I810J0D01*
G01X955100D01*
G02X955910Y1015500I0J-810D01*
G01Y1010500D01*
G02X955100Y1009690I-810J0D01*
G01X950100D01*
G02X949290Y1010500I0J810D01*
G37*
G36*
G01X880190Y1036000D02*
Y1044000D01*
G02X881000Y1044810I810J0D01*
G01X891000D01*
G02X891810Y1044000I0J-810D01*
G01Y1036000D01*
G02X891000Y1035190I-810J0D01*
G01X881000D01*
G02X880190Y1036000I0J810D01*
G37*
G36*
G01X1048810D02*
G02X1048000Y1035190I-810J0D01*
G01X1038000D01*
G02X1037190Y1036000I0J810D01*
G01Y1037490D01*
X1034460D01*
X1034160Y1037790D01*
X1024400D01*
G02X1023590Y1038600I0J810D01*
G01Y1042000D01*
G02X1024400Y1042810I810J0D01*
G01X1036240D01*
X1036540Y1042510D01*
X1037190D01*
Y1044000D01*
G02X1038000Y1044810I810J0D01*
G01X1048000D01*
G02X1048810Y1044000I0J-810D01*
G01Y1036000D01*
G37*
G36*
G01Y1017000D02*
G02X1048000Y1016190I-810J0D01*
G01X1038000D01*
G02X1037190Y1017000I0J810D01*
G01Y1017690D01*
X1002500D01*
G02X1001690Y1018500I0J810D01*
G01Y1023500D01*
G02X1002500Y1024310I810J0D01*
G01X1037190D01*
Y1025000D01*
G02X1038000Y1025810I810J0D01*
G01X1048000D01*
G02X1048810Y1025000I0J-810D01*
G01Y1024310D01*
X1057630D01*
X1067690Y1034370D01*
Y1057500D01*
G02X1068490Y1058310I810J0D01*
G03X1068690Y1058510I0J200D01*
G01Y1063110D01*
X1068570Y1063160D01*
G02X1068090Y1063900I330J740D01*
G01Y1070100D01*
G02X1068900Y1070910I810J0D01*
G01X1075100D01*
G02X1075910Y1070100I0J-810D01*
G01Y1063900D01*
G02X1075430Y1063160I-810J0D01*
G01X1075310Y1063110D01*
Y1054630D01*
X1074310Y1053630D01*
Y1031630D01*
X1060370Y1017690D01*
X1048810D01*
Y1017000D01*
G37*
G36*
G01X939810D02*
G02X939000Y1016190I-810J0D01*
G01X929000D01*
G02X928190Y1017000I0J810D01*
G01Y1025000D01*
G02X929000Y1025810I810J0D01*
G01X939000D01*
G02X939810Y1025000I0J-810D01*
G01Y1024310D01*
X943670D01*
X943770Y1024210D01*
X962530D01*
X962630Y1024310D01*
X999100D01*
G02X999910Y1023500I0J-810D01*
G01Y1018500D01*
G02X999100Y1017690I-810J0D01*
G01X996910D01*
X996880Y1017680D01*
G02X995320I-780J3220D01*
G01X995290Y1017690D01*
X965370D01*
X965270Y1017590D01*
X941030D01*
X940930Y1017690D01*
X939810D01*
Y1017000D01*
G37*
G36*
G01X964310Y1010500D02*
G02X963500Y1009690I-810J0D01*
G01X958500D01*
G02X957690Y1010500I0J810D01*
G01Y1015500D01*
G02X958500Y1016310I810J0D01*
G01X963500D01*
G02X964310Y1015500I0J-810D01*
G01Y1015060D01*
X966390D01*
Y1015400D01*
G02X967200Y1016210I810J0D01*
G01X974800D01*
G02X975610Y1015400I0J-810D01*
G01Y1010600D01*
G02X974800Y1009790I-810J0D01*
G01X967200D01*
G02X966390Y1010600I0J810D01*
G01Y1010940D01*
X964310D01*
Y1010500D01*
G37*
G36*
G01X891810Y998000D02*
G02X891000Y997190I-810J0D01*
G01X881000D01*
G02X880190Y998000I0J810D01*
G01Y998690D01*
X868900D01*
G02X868090Y999500I0J810D01*
G01Y1004500D01*
G02X868900Y1005310I810J0D01*
G01X880190D01*
Y1006000D01*
G02X881000Y1006810I810J0D01*
G01X891000D01*
G02X891810Y1006000I0J-810D01*
G01Y998000D01*
G37*
G36*
G01X1027070Y993150D02*
G02X1026400Y992790I-670J443D01*
G01X1021400D01*
G02X1020590Y993600I0J810D01*
G01Y997000D01*
G02X1021400Y997810I810J0D01*
G01X1026400D01*
G02X1027070Y997450I0J-803D01*
G01X1027130Y997360D01*
X1034450D01*
X1037190Y1000100D01*
Y1006000D01*
G02X1038000Y1006810I810J0D01*
G01X1048000D01*
G02X1048810Y1006000I0J-810D01*
G01Y998000D01*
G02X1048000Y997190I-810J0D01*
G01X1040100D01*
X1036150Y993240D01*
X1027130D01*
X1027070Y993150D01*
G37*
G36*
G01X1016190Y1042300D02*
Y1045700D01*
G02X1017000Y1046510I810J0D01*
G01X1021000D01*
G02X1021810Y1045700I0J-810D01*
G01Y1042300D01*
G02X1021000Y1041490I-810J0D01*
G01X1017000D01*
G02X1016190Y1042300I0J810D01*
G37*
G36*
G01X1015690Y1049500D02*
Y1054500D01*
G02X1016500Y1055310I810J0D01*
G01X1021500D01*
G02X1022310Y1054500I0J-810D01*
G01Y1049500D01*
G02X1021500Y1048690I-810J0D01*
G01X1016500D01*
G02X1015690Y1049500I0J810D01*
G37*
G36*
G01X1016370Y1003310D02*
X1018190Y1001490D01*
X1018240Y1001470D01*
G02X1018810Y1000750I-238J-774D01*
G02Y997250I-2810J-1750D01*
G02X1018180Y996510I-809J51D01*
G02X1013820I-2180J2490D01*
G02X1013520Y996650I185J788D01*
G01X1013460Y996690D01*
X1008000D01*
X1005500D01*
G02X1004690Y997500I0J810D01*
G01Y1002500D01*
G02X1005500Y1003310I810J0D01*
G01X1008000D01*
X1016370D01*
G37*
G36*
G01X996370Y989290D02*
G02X994000Y988290I-2370J2308D01*
G01X944030D01*
X935130Y997190D01*
X929000D01*
G02X928190Y998000I0J810D01*
G01Y1006000D01*
G02X929000Y1006810I810J0D01*
G01X939000D01*
G02X939810Y1006000I0J-810D01*
G01Y1001870D01*
X946770Y994910D01*
X994000D01*
G02X996370Y993910I0J-3308D01*
G01X1013460D01*
X1013520Y993950D01*
G02X1014000Y994110I480J-640D01*
G01X1018000D01*
G02X1018810Y993300I0J-810D01*
G01Y989900D01*
G02X1018000Y989090I-810J0D01*
G01X1014000D01*
G02X1013520Y989250I0J800D01*
G01X1013460Y989290D01*
X996370D01*
G37*
G54D23*
X1062000Y1067000D03*
%LPD*%
G75*
G54D10*
X823000Y1002000D03*
X1159000Y1040000D03*
G54D20*
G01X823000Y1002000D02*
X863000D01*
G01X871400D02*
X886000D01*
G01X934000D02*
X935000D01*
X945400Y991600D01*
X994000D01*
G01X985000Y1021000D02*
X964000D01*
X963900Y1020900D01*
X942400D01*
X942300Y1021000D01*
X934000D01*
G01X991000Y1037000D02*
X988000Y1040000D01*
X934000D01*
G01X985000Y1021000D02*
X996000D01*
X996100Y1020900D01*
G01X1005000Y1021000D02*
X1043000D01*
G01X1008000Y1000000D02*
X1015000D01*
X1016000Y999000D01*
G01X1071000Y1055000D02*
Y1033000D01*
X1059000Y1021000D01*
X1043000D01*
G01X1072000Y1067000D02*
Y1056000D01*
X1071000Y1055000D01*
G01X1105600Y1040000D02*
X1091000D01*
G01X1159000D02*
X1114400D01*
G54D11*
X863000Y1002000D03*
X871400D03*
X961000Y1013000D03*
X952600D03*
X985000Y1021000D03*
Y1012600D03*
X1005000Y1021000D03*
X996600D03*
X1008000Y1000000D03*
Y1008400D03*
X1019000Y1052000D03*
X1010600D03*
X1071000Y1055000D03*
X1062600D03*
X1105600Y1040000D03*
X1114000D03*
G54D21*
G01X1026900Y1040300D02*
X1035200D01*
X1035500Y1040000D01*
X1043000D01*
G54D12*
X886000Y1002000D03*
Y1040000D03*
X934000Y1021000D03*
Y1002000D03*
Y1040000D03*
X1043000Y1002000D03*
Y1021000D03*
Y1040000D03*
X1091000Y1002000D03*
Y1040000D03*
G54D22*
G01X971000Y1013000D02*
X961000D01*
G01X1019000Y1036600D02*
X991400D01*
X991000Y1037000D01*
G01X1008000Y999000D02*
Y1000000D01*
G01X1023900Y995300D02*
X1035300D01*
X1042000Y1002000D01*
X1043000D01*
G54D13*
X971000Y1013000D03*
Y1020900D03*
G54D14*
X1016000Y991600D03*
Y999000D03*
X1019000Y1044000D03*
Y1036600D03*
G54D15*
X1023900Y995300D03*
X1026900Y1040300D03*
G54D16*
X1072000Y1067000D03*
G54D17*
X1062000D03*
G54D18*
G01X994000Y991600D02*
X1016000D01*
G54D19*
G01X886000Y1034990D02*
Y1040000D01*
G01D02*
Y1045010D01*
G01X879990Y1040000D02*
X886000D01*
G01D02*
X892010D01*
G01X952600Y1009490D02*
Y1013000D01*
G01D02*
Y1016510D01*
G01X949090Y1013000D02*
X952600D01*
G01D02*
X956110D01*
G01X985000Y1009090D02*
Y1012600D01*
G01D02*
Y1016110D01*
G01X981490Y1012600D02*
X985000D01*
G01D02*
X988510D01*
G01X1008000Y1004890D02*
Y1008400D01*
G01D02*
Y1011910D01*
G01X1004490Y1008400D02*
X1008000D01*
G01D02*
X1011510D01*
G01X1010600Y1048490D02*
Y1052000D01*
G01D02*
Y1055510D01*
G01X1007090Y1052000D02*
X1010600D01*
G01D02*
X1014110D01*
G01X1062600Y1051490D02*
Y1055000D01*
G01D02*
Y1058510D01*
G01X1059090Y1055000D02*
X1062600D01*
G01D02*
X1066110D01*
G01X1062000Y1062890D02*
Y1067000D01*
G01D02*
Y1071110D01*
G01X1057890Y1067000D02*
X1062000D01*
G01D02*
X1066110D01*
G01X1091000Y996990D02*
Y1002000D01*
G01D02*
Y1007010D01*
G01X1084990Y1002000D02*
X1091000D01*
G01D02*
X1097010D01*
M02*
