G04 #@! TF.GenerationSoftware,KiCad,Pcbnew,(5.0.2)-1*
G04 #@! TF.CreationDate,2020-03-07T14:31:03-08:00*
G04 #@! TF.ProjectId,PA Rev 4.0,50412052-6576-4203-942e-302e6b696361,rev?*
G04 #@! TF.SameCoordinates,Original*
G04 #@! TF.FileFunction,Copper,L1,Top*
G04 #@! TF.FilePolarity,Positive*
%FSLAX46Y46*%
G04 Gerber Fmt 4.6, Leading zero omitted, Abs format (unit mm)*
G04 Created by KiCad (PCBNEW (5.0.2)-1) date 3/7/2020 2:31:03 PM*
%MOMM*%
%LPD*%
G01*
G04 APERTURE LIST*
G04 #@! TA.AperFunction,SMDPad,CuDef*
%ADD10R,5.080000X2.420000*%
G04 #@! TD*
G04 #@! TA.AperFunction,SMDPad,CuDef*
%ADD11R,5.080000X2.290000*%
G04 #@! TD*
G04 #@! TA.AperFunction,Conductor*
%ADD12C,0.100000*%
G04 #@! TD*
G04 #@! TA.AperFunction,SMDPad,CuDef*
%ADD13C,1.150000*%
G04 #@! TD*
G04 #@! TA.AperFunction,ComponentPad*
%ADD14R,1.700000X1.700000*%
G04 #@! TD*
G04 #@! TA.AperFunction,ComponentPad*
%ADD15O,1.700000X1.700000*%
G04 #@! TD*
G04 #@! TA.AperFunction,SMDPad,CuDef*
%ADD16R,1.900000X0.800000*%
G04 #@! TD*
G04 #@! TA.AperFunction,SMDPad,CuDef*
%ADD17R,0.800000X1.900000*%
G04 #@! TD*
G04 #@! TA.AperFunction,SMDPad,CuDef*
%ADD18R,1.400000X0.760000*%
G04 #@! TD*
G04 #@! TA.AperFunction,SMDPad,CuDef*
%ADD19R,0.760000X1.400000*%
G04 #@! TD*
G04 #@! TA.AperFunction,ViaPad*
%ADD20C,1.016000*%
G04 #@! TD*
G04 #@! TA.AperFunction,Conductor*
%ADD21C,1.000000*%
G04 #@! TD*
G04 #@! TA.AperFunction,Conductor*
%ADD22C,1.500000*%
G04 #@! TD*
G04 #@! TA.AperFunction,Conductor*
%ADD23C,0.254000*%
G04 #@! TD*
G04 APERTURE END LIST*
D10*
G04 #@! TO.P,J2,2*
G04 #@! TO.N,GND*
X97224000Y-61914000D03*
X97224000Y-70674000D03*
D11*
G04 #@! TO.P,J2,1*
G04 #@! TO.N,Net-(J2-Pad1)*
X97224000Y-66294000D03*
G04 #@! TD*
G04 #@! TO.P,J1,1*
G04 #@! TO.N,Net-(J1-Pad1)*
X42857000Y-66294000D03*
D10*
G04 #@! TO.P,J1,2*
G04 #@! TO.N,GND*
X42857000Y-61914000D03*
X42857000Y-70674000D03*
G04 #@! TD*
D12*
G04 #@! TO.N,Net-(C0-Pad1)*
G04 #@! TO.C,C0*
G36*
X52709605Y-49997604D02*
X52733873Y-50001204D01*
X52757672Y-50007165D01*
X52780771Y-50015430D01*
X52802950Y-50025920D01*
X52823993Y-50038532D01*
X52843699Y-50053147D01*
X52861877Y-50069623D01*
X52878353Y-50087801D01*
X52892968Y-50107507D01*
X52905580Y-50128550D01*
X52916070Y-50150729D01*
X52924335Y-50173828D01*
X52930296Y-50197627D01*
X52933896Y-50221895D01*
X52935100Y-50246399D01*
X52935100Y-50896401D01*
X52933896Y-50920905D01*
X52930296Y-50945173D01*
X52924335Y-50968972D01*
X52916070Y-50992071D01*
X52905580Y-51014250D01*
X52892968Y-51035293D01*
X52878353Y-51054999D01*
X52861877Y-51073177D01*
X52843699Y-51089653D01*
X52823993Y-51104268D01*
X52802950Y-51116880D01*
X52780771Y-51127370D01*
X52757672Y-51135635D01*
X52733873Y-51141596D01*
X52709605Y-51145196D01*
X52685101Y-51146400D01*
X51785099Y-51146400D01*
X51760595Y-51145196D01*
X51736327Y-51141596D01*
X51712528Y-51135635D01*
X51689429Y-51127370D01*
X51667250Y-51116880D01*
X51646207Y-51104268D01*
X51626501Y-51089653D01*
X51608323Y-51073177D01*
X51591847Y-51054999D01*
X51577232Y-51035293D01*
X51564620Y-51014250D01*
X51554130Y-50992071D01*
X51545865Y-50968972D01*
X51539904Y-50945173D01*
X51536304Y-50920905D01*
X51535100Y-50896401D01*
X51535100Y-50246399D01*
X51536304Y-50221895D01*
X51539904Y-50197627D01*
X51545865Y-50173828D01*
X51554130Y-50150729D01*
X51564620Y-50128550D01*
X51577232Y-50107507D01*
X51591847Y-50087801D01*
X51608323Y-50069623D01*
X51626501Y-50053147D01*
X51646207Y-50038532D01*
X51667250Y-50025920D01*
X51689429Y-50015430D01*
X51712528Y-50007165D01*
X51736327Y-50001204D01*
X51760595Y-49997604D01*
X51785099Y-49996400D01*
X52685101Y-49996400D01*
X52709605Y-49997604D01*
X52709605Y-49997604D01*
G37*
D13*
G04 #@! TD*
G04 #@! TO.P,C0,1*
G04 #@! TO.N,Net-(C0-Pad1)*
X52235100Y-50571400D03*
D12*
G04 #@! TO.N,GND*
G04 #@! TO.C,C0*
G36*
X52709605Y-52047604D02*
X52733873Y-52051204D01*
X52757672Y-52057165D01*
X52780771Y-52065430D01*
X52802950Y-52075920D01*
X52823993Y-52088532D01*
X52843699Y-52103147D01*
X52861877Y-52119623D01*
X52878353Y-52137801D01*
X52892968Y-52157507D01*
X52905580Y-52178550D01*
X52916070Y-52200729D01*
X52924335Y-52223828D01*
X52930296Y-52247627D01*
X52933896Y-52271895D01*
X52935100Y-52296399D01*
X52935100Y-52946401D01*
X52933896Y-52970905D01*
X52930296Y-52995173D01*
X52924335Y-53018972D01*
X52916070Y-53042071D01*
X52905580Y-53064250D01*
X52892968Y-53085293D01*
X52878353Y-53104999D01*
X52861877Y-53123177D01*
X52843699Y-53139653D01*
X52823993Y-53154268D01*
X52802950Y-53166880D01*
X52780771Y-53177370D01*
X52757672Y-53185635D01*
X52733873Y-53191596D01*
X52709605Y-53195196D01*
X52685101Y-53196400D01*
X51785099Y-53196400D01*
X51760595Y-53195196D01*
X51736327Y-53191596D01*
X51712528Y-53185635D01*
X51689429Y-53177370D01*
X51667250Y-53166880D01*
X51646207Y-53154268D01*
X51626501Y-53139653D01*
X51608323Y-53123177D01*
X51591847Y-53104999D01*
X51577232Y-53085293D01*
X51564620Y-53064250D01*
X51554130Y-53042071D01*
X51545865Y-53018972D01*
X51539904Y-52995173D01*
X51536304Y-52970905D01*
X51535100Y-52946401D01*
X51535100Y-52296399D01*
X51536304Y-52271895D01*
X51539904Y-52247627D01*
X51545865Y-52223828D01*
X51554130Y-52200729D01*
X51564620Y-52178550D01*
X51577232Y-52157507D01*
X51591847Y-52137801D01*
X51608323Y-52119623D01*
X51626501Y-52103147D01*
X51646207Y-52088532D01*
X51667250Y-52075920D01*
X51689429Y-52065430D01*
X51712528Y-52057165D01*
X51736327Y-52051204D01*
X51760595Y-52047604D01*
X51785099Y-52046400D01*
X52685101Y-52046400D01*
X52709605Y-52047604D01*
X52709605Y-52047604D01*
G37*
D13*
G04 #@! TD*
G04 #@! TO.P,C0,2*
G04 #@! TO.N,GND*
X52235100Y-52621400D03*
D12*
G04 #@! TO.N,GND*
G04 #@! TO.C,CB1*
G36*
X60746165Y-73680784D02*
X60770433Y-73684384D01*
X60794232Y-73690345D01*
X60817331Y-73698610D01*
X60839510Y-73709100D01*
X60860553Y-73721712D01*
X60880259Y-73736327D01*
X60898437Y-73752803D01*
X60914913Y-73770981D01*
X60929528Y-73790687D01*
X60942140Y-73811730D01*
X60952630Y-73833909D01*
X60960895Y-73857008D01*
X60966856Y-73880807D01*
X60970456Y-73905075D01*
X60971660Y-73929579D01*
X60971660Y-74579581D01*
X60970456Y-74604085D01*
X60966856Y-74628353D01*
X60960895Y-74652152D01*
X60952630Y-74675251D01*
X60942140Y-74697430D01*
X60929528Y-74718473D01*
X60914913Y-74738179D01*
X60898437Y-74756357D01*
X60880259Y-74772833D01*
X60860553Y-74787448D01*
X60839510Y-74800060D01*
X60817331Y-74810550D01*
X60794232Y-74818815D01*
X60770433Y-74824776D01*
X60746165Y-74828376D01*
X60721661Y-74829580D01*
X59821659Y-74829580D01*
X59797155Y-74828376D01*
X59772887Y-74824776D01*
X59749088Y-74818815D01*
X59725989Y-74810550D01*
X59703810Y-74800060D01*
X59682767Y-74787448D01*
X59663061Y-74772833D01*
X59644883Y-74756357D01*
X59628407Y-74738179D01*
X59613792Y-74718473D01*
X59601180Y-74697430D01*
X59590690Y-74675251D01*
X59582425Y-74652152D01*
X59576464Y-74628353D01*
X59572864Y-74604085D01*
X59571660Y-74579581D01*
X59571660Y-73929579D01*
X59572864Y-73905075D01*
X59576464Y-73880807D01*
X59582425Y-73857008D01*
X59590690Y-73833909D01*
X59601180Y-73811730D01*
X59613792Y-73790687D01*
X59628407Y-73770981D01*
X59644883Y-73752803D01*
X59663061Y-73736327D01*
X59682767Y-73721712D01*
X59703810Y-73709100D01*
X59725989Y-73698610D01*
X59749088Y-73690345D01*
X59772887Y-73684384D01*
X59797155Y-73680784D01*
X59821659Y-73679580D01*
X60721661Y-73679580D01*
X60746165Y-73680784D01*
X60746165Y-73680784D01*
G37*
D13*
G04 #@! TD*
G04 #@! TO.P,CB1,2*
G04 #@! TO.N,GND*
X60271660Y-74254580D03*
D12*
G04 #@! TO.N,Net-(CB1-Pad1)*
G04 #@! TO.C,CB1*
G36*
X60746165Y-71630784D02*
X60770433Y-71634384D01*
X60794232Y-71640345D01*
X60817331Y-71648610D01*
X60839510Y-71659100D01*
X60860553Y-71671712D01*
X60880259Y-71686327D01*
X60898437Y-71702803D01*
X60914913Y-71720981D01*
X60929528Y-71740687D01*
X60942140Y-71761730D01*
X60952630Y-71783909D01*
X60960895Y-71807008D01*
X60966856Y-71830807D01*
X60970456Y-71855075D01*
X60971660Y-71879579D01*
X60971660Y-72529581D01*
X60970456Y-72554085D01*
X60966856Y-72578353D01*
X60960895Y-72602152D01*
X60952630Y-72625251D01*
X60942140Y-72647430D01*
X60929528Y-72668473D01*
X60914913Y-72688179D01*
X60898437Y-72706357D01*
X60880259Y-72722833D01*
X60860553Y-72737448D01*
X60839510Y-72750060D01*
X60817331Y-72760550D01*
X60794232Y-72768815D01*
X60770433Y-72774776D01*
X60746165Y-72778376D01*
X60721661Y-72779580D01*
X59821659Y-72779580D01*
X59797155Y-72778376D01*
X59772887Y-72774776D01*
X59749088Y-72768815D01*
X59725989Y-72760550D01*
X59703810Y-72750060D01*
X59682767Y-72737448D01*
X59663061Y-72722833D01*
X59644883Y-72706357D01*
X59628407Y-72688179D01*
X59613792Y-72668473D01*
X59601180Y-72647430D01*
X59590690Y-72625251D01*
X59582425Y-72602152D01*
X59576464Y-72578353D01*
X59572864Y-72554085D01*
X59571660Y-72529581D01*
X59571660Y-71879579D01*
X59572864Y-71855075D01*
X59576464Y-71830807D01*
X59582425Y-71807008D01*
X59590690Y-71783909D01*
X59601180Y-71761730D01*
X59613792Y-71740687D01*
X59628407Y-71720981D01*
X59644883Y-71702803D01*
X59663061Y-71686327D01*
X59682767Y-71671712D01*
X59703810Y-71659100D01*
X59725989Y-71648610D01*
X59749088Y-71640345D01*
X59772887Y-71634384D01*
X59797155Y-71630784D01*
X59821659Y-71629580D01*
X60721661Y-71629580D01*
X60746165Y-71630784D01*
X60746165Y-71630784D01*
G37*
D13*
G04 #@! TD*
G04 #@! TO.P,CB1,1*
G04 #@! TO.N,Net-(CB1-Pad1)*
X60271660Y-72204580D03*
D12*
G04 #@! TO.N,GND*
G04 #@! TO.C,CB2*
G36*
X71073805Y-51236904D02*
X71098073Y-51240504D01*
X71121872Y-51246465D01*
X71144971Y-51254730D01*
X71167150Y-51265220D01*
X71188193Y-51277832D01*
X71207899Y-51292447D01*
X71226077Y-51308923D01*
X71242553Y-51327101D01*
X71257168Y-51346807D01*
X71269780Y-51367850D01*
X71280270Y-51390029D01*
X71288535Y-51413128D01*
X71294496Y-51436927D01*
X71298096Y-51461195D01*
X71299300Y-51485699D01*
X71299300Y-52135701D01*
X71298096Y-52160205D01*
X71294496Y-52184473D01*
X71288535Y-52208272D01*
X71280270Y-52231371D01*
X71269780Y-52253550D01*
X71257168Y-52274593D01*
X71242553Y-52294299D01*
X71226077Y-52312477D01*
X71207899Y-52328953D01*
X71188193Y-52343568D01*
X71167150Y-52356180D01*
X71144971Y-52366670D01*
X71121872Y-52374935D01*
X71098073Y-52380896D01*
X71073805Y-52384496D01*
X71049301Y-52385700D01*
X70149299Y-52385700D01*
X70124795Y-52384496D01*
X70100527Y-52380896D01*
X70076728Y-52374935D01*
X70053629Y-52366670D01*
X70031450Y-52356180D01*
X70010407Y-52343568D01*
X69990701Y-52328953D01*
X69972523Y-52312477D01*
X69956047Y-52294299D01*
X69941432Y-52274593D01*
X69928820Y-52253550D01*
X69918330Y-52231371D01*
X69910065Y-52208272D01*
X69904104Y-52184473D01*
X69900504Y-52160205D01*
X69899300Y-52135701D01*
X69899300Y-51485699D01*
X69900504Y-51461195D01*
X69904104Y-51436927D01*
X69910065Y-51413128D01*
X69918330Y-51390029D01*
X69928820Y-51367850D01*
X69941432Y-51346807D01*
X69956047Y-51327101D01*
X69972523Y-51308923D01*
X69990701Y-51292447D01*
X70010407Y-51277832D01*
X70031450Y-51265220D01*
X70053629Y-51254730D01*
X70076728Y-51246465D01*
X70100527Y-51240504D01*
X70124795Y-51236904D01*
X70149299Y-51235700D01*
X71049301Y-51235700D01*
X71073805Y-51236904D01*
X71073805Y-51236904D01*
G37*
D13*
G04 #@! TD*
G04 #@! TO.P,CB2,1*
G04 #@! TO.N,GND*
X70599300Y-51810700D03*
D12*
G04 #@! TO.N,Net-(CB2-Pad2)*
G04 #@! TO.C,CB2*
G36*
X71073805Y-53286904D02*
X71098073Y-53290504D01*
X71121872Y-53296465D01*
X71144971Y-53304730D01*
X71167150Y-53315220D01*
X71188193Y-53327832D01*
X71207899Y-53342447D01*
X71226077Y-53358923D01*
X71242553Y-53377101D01*
X71257168Y-53396807D01*
X71269780Y-53417850D01*
X71280270Y-53440029D01*
X71288535Y-53463128D01*
X71294496Y-53486927D01*
X71298096Y-53511195D01*
X71299300Y-53535699D01*
X71299300Y-54185701D01*
X71298096Y-54210205D01*
X71294496Y-54234473D01*
X71288535Y-54258272D01*
X71280270Y-54281371D01*
X71269780Y-54303550D01*
X71257168Y-54324593D01*
X71242553Y-54344299D01*
X71226077Y-54362477D01*
X71207899Y-54378953D01*
X71188193Y-54393568D01*
X71167150Y-54406180D01*
X71144971Y-54416670D01*
X71121872Y-54424935D01*
X71098073Y-54430896D01*
X71073805Y-54434496D01*
X71049301Y-54435700D01*
X70149299Y-54435700D01*
X70124795Y-54434496D01*
X70100527Y-54430896D01*
X70076728Y-54424935D01*
X70053629Y-54416670D01*
X70031450Y-54406180D01*
X70010407Y-54393568D01*
X69990701Y-54378953D01*
X69972523Y-54362477D01*
X69956047Y-54344299D01*
X69941432Y-54324593D01*
X69928820Y-54303550D01*
X69918330Y-54281371D01*
X69910065Y-54258272D01*
X69904104Y-54234473D01*
X69900504Y-54210205D01*
X69899300Y-54185701D01*
X69899300Y-53535699D01*
X69900504Y-53511195D01*
X69904104Y-53486927D01*
X69910065Y-53463128D01*
X69918330Y-53440029D01*
X69928820Y-53417850D01*
X69941432Y-53396807D01*
X69956047Y-53377101D01*
X69972523Y-53358923D01*
X69990701Y-53342447D01*
X70010407Y-53327832D01*
X70031450Y-53315220D01*
X70053629Y-53304730D01*
X70076728Y-53296465D01*
X70100527Y-53290504D01*
X70124795Y-53286904D01*
X70149299Y-53285700D01*
X71049301Y-53285700D01*
X71073805Y-53286904D01*
X71073805Y-53286904D01*
G37*
D13*
G04 #@! TD*
G04 #@! TO.P,CB2,2*
G04 #@! TO.N,Net-(CB2-Pad2)*
X70599300Y-53860700D03*
D14*
G04 #@! TO.P,J0,1*
G04 #@! TO.N,Net-(C0-Pad1)*
X48933100Y-50596800D03*
D15*
G04 #@! TO.P,J0,2*
G04 #@! TO.N,GND*
X46393100Y-50596800D03*
G04 #@! TD*
D16*
G04 #@! TO.P,QN1,1*
G04 #@! TO.N,Net-(QN1-Pad1)*
X69015480Y-66299040D03*
G04 #@! TO.P,QN1,2*
G04 #@! TO.N,Net-(CB1-Pad1)*
X69015480Y-68199040D03*
G04 #@! TO.P,QN1,3*
G04 #@! TO.N,Net-(QN1-Pad3)*
X72015480Y-67249040D03*
G04 #@! TD*
G04 #@! TO.P,QN2,3*
G04 #@! TO.N,Net-(CB2-Pad2)*
X65962400Y-58204100D03*
G04 #@! TO.P,QN2,2*
G04 #@! TO.N,Net-(QN2-Pad2)*
X68962400Y-57254100D03*
G04 #@! TO.P,QN2,1*
G04 #@! TO.N,Net-(QN2-Pad1)*
X68962400Y-59154100D03*
G04 #@! TD*
D17*
G04 #@! TO.P,QP1,1*
G04 #@! TO.N,Net-(QN1-Pad3)*
X68069420Y-75210800D03*
G04 #@! TO.P,QP1,2*
G04 #@! TO.N,Net-(QP1-Pad2)*
X69969420Y-75210800D03*
G04 #@! TO.P,QP1,3*
G04 #@! TO.N,Net-(CB1-Pad1)*
X69019420Y-72210800D03*
G04 #@! TD*
G04 #@! TO.P,QP2,3*
G04 #@! TO.N,Net-(QN2-Pad1)*
X58529220Y-55205500D03*
G04 #@! TO.P,QP2,2*
G04 #@! TO.N,Net-(CB2-Pad2)*
X59479220Y-58205500D03*
G04 #@! TO.P,QP2,1*
G04 #@! TO.N,Net-(QP2-Pad1)*
X57579220Y-58205500D03*
G04 #@! TD*
D12*
G04 #@! TO.N,Net-(CB1-Pad1)*
G04 #@! TO.C,RE1*
G36*
X65117505Y-71630784D02*
X65141773Y-71634384D01*
X65165572Y-71640345D01*
X65188671Y-71648610D01*
X65210850Y-71659100D01*
X65231893Y-71671712D01*
X65251599Y-71686327D01*
X65269777Y-71702803D01*
X65286253Y-71720981D01*
X65300868Y-71740687D01*
X65313480Y-71761730D01*
X65323970Y-71783909D01*
X65332235Y-71807008D01*
X65338196Y-71830807D01*
X65341796Y-71855075D01*
X65343000Y-71879579D01*
X65343000Y-72529581D01*
X65341796Y-72554085D01*
X65338196Y-72578353D01*
X65332235Y-72602152D01*
X65323970Y-72625251D01*
X65313480Y-72647430D01*
X65300868Y-72668473D01*
X65286253Y-72688179D01*
X65269777Y-72706357D01*
X65251599Y-72722833D01*
X65231893Y-72737448D01*
X65210850Y-72750060D01*
X65188671Y-72760550D01*
X65165572Y-72768815D01*
X65141773Y-72774776D01*
X65117505Y-72778376D01*
X65093001Y-72779580D01*
X64192999Y-72779580D01*
X64168495Y-72778376D01*
X64144227Y-72774776D01*
X64120428Y-72768815D01*
X64097329Y-72760550D01*
X64075150Y-72750060D01*
X64054107Y-72737448D01*
X64034401Y-72722833D01*
X64016223Y-72706357D01*
X63999747Y-72688179D01*
X63985132Y-72668473D01*
X63972520Y-72647430D01*
X63962030Y-72625251D01*
X63953765Y-72602152D01*
X63947804Y-72578353D01*
X63944204Y-72554085D01*
X63943000Y-72529581D01*
X63943000Y-71879579D01*
X63944204Y-71855075D01*
X63947804Y-71830807D01*
X63953765Y-71807008D01*
X63962030Y-71783909D01*
X63972520Y-71761730D01*
X63985132Y-71740687D01*
X63999747Y-71720981D01*
X64016223Y-71702803D01*
X64034401Y-71686327D01*
X64054107Y-71671712D01*
X64075150Y-71659100D01*
X64097329Y-71648610D01*
X64120428Y-71640345D01*
X64144227Y-71634384D01*
X64168495Y-71630784D01*
X64192999Y-71629580D01*
X65093001Y-71629580D01*
X65117505Y-71630784D01*
X65117505Y-71630784D01*
G37*
D13*
G04 #@! TD*
G04 #@! TO.P,RE1,1*
G04 #@! TO.N,Net-(CB1-Pad1)*
X64643000Y-72204580D03*
D12*
G04 #@! TO.N,GND*
G04 #@! TO.C,RE1*
G36*
X65117505Y-73680784D02*
X65141773Y-73684384D01*
X65165572Y-73690345D01*
X65188671Y-73698610D01*
X65210850Y-73709100D01*
X65231893Y-73721712D01*
X65251599Y-73736327D01*
X65269777Y-73752803D01*
X65286253Y-73770981D01*
X65300868Y-73790687D01*
X65313480Y-73811730D01*
X65323970Y-73833909D01*
X65332235Y-73857008D01*
X65338196Y-73880807D01*
X65341796Y-73905075D01*
X65343000Y-73929579D01*
X65343000Y-74579581D01*
X65341796Y-74604085D01*
X65338196Y-74628353D01*
X65332235Y-74652152D01*
X65323970Y-74675251D01*
X65313480Y-74697430D01*
X65300868Y-74718473D01*
X65286253Y-74738179D01*
X65269777Y-74756357D01*
X65251599Y-74772833D01*
X65231893Y-74787448D01*
X65210850Y-74800060D01*
X65188671Y-74810550D01*
X65165572Y-74818815D01*
X65141773Y-74824776D01*
X65117505Y-74828376D01*
X65093001Y-74829580D01*
X64192999Y-74829580D01*
X64168495Y-74828376D01*
X64144227Y-74824776D01*
X64120428Y-74818815D01*
X64097329Y-74810550D01*
X64075150Y-74800060D01*
X64054107Y-74787448D01*
X64034401Y-74772833D01*
X64016223Y-74756357D01*
X63999747Y-74738179D01*
X63985132Y-74718473D01*
X63972520Y-74697430D01*
X63962030Y-74675251D01*
X63953765Y-74652152D01*
X63947804Y-74628353D01*
X63944204Y-74604085D01*
X63943000Y-74579581D01*
X63943000Y-73929579D01*
X63944204Y-73905075D01*
X63947804Y-73880807D01*
X63953765Y-73857008D01*
X63962030Y-73833909D01*
X63972520Y-73811730D01*
X63985132Y-73790687D01*
X63999747Y-73770981D01*
X64016223Y-73752803D01*
X64034401Y-73736327D01*
X64054107Y-73721712D01*
X64075150Y-73709100D01*
X64097329Y-73698610D01*
X64120428Y-73690345D01*
X64144227Y-73684384D01*
X64168495Y-73680784D01*
X64192999Y-73679580D01*
X65093001Y-73679580D01*
X65117505Y-73680784D01*
X65117505Y-73680784D01*
G37*
D13*
G04 #@! TD*
G04 #@! TO.P,RE1,2*
G04 #@! TO.N,GND*
X64643000Y-74254580D03*
D12*
G04 #@! TO.N,Net-(CB2-Pad2)*
G04 #@! TO.C,RE2*
G36*
X66438305Y-53295904D02*
X66462573Y-53299504D01*
X66486372Y-53305465D01*
X66509471Y-53313730D01*
X66531650Y-53324220D01*
X66552693Y-53336832D01*
X66572399Y-53351447D01*
X66590577Y-53367923D01*
X66607053Y-53386101D01*
X66621668Y-53405807D01*
X66634280Y-53426850D01*
X66644770Y-53449029D01*
X66653035Y-53472128D01*
X66658996Y-53495927D01*
X66662596Y-53520195D01*
X66663800Y-53544699D01*
X66663800Y-54194701D01*
X66662596Y-54219205D01*
X66658996Y-54243473D01*
X66653035Y-54267272D01*
X66644770Y-54290371D01*
X66634280Y-54312550D01*
X66621668Y-54333593D01*
X66607053Y-54353299D01*
X66590577Y-54371477D01*
X66572399Y-54387953D01*
X66552693Y-54402568D01*
X66531650Y-54415180D01*
X66509471Y-54425670D01*
X66486372Y-54433935D01*
X66462573Y-54439896D01*
X66438305Y-54443496D01*
X66413801Y-54444700D01*
X65513799Y-54444700D01*
X65489295Y-54443496D01*
X65465027Y-54439896D01*
X65441228Y-54433935D01*
X65418129Y-54425670D01*
X65395950Y-54415180D01*
X65374907Y-54402568D01*
X65355201Y-54387953D01*
X65337023Y-54371477D01*
X65320547Y-54353299D01*
X65305932Y-54333593D01*
X65293320Y-54312550D01*
X65282830Y-54290371D01*
X65274565Y-54267272D01*
X65268604Y-54243473D01*
X65265004Y-54219205D01*
X65263800Y-54194701D01*
X65263800Y-53544699D01*
X65265004Y-53520195D01*
X65268604Y-53495927D01*
X65274565Y-53472128D01*
X65282830Y-53449029D01*
X65293320Y-53426850D01*
X65305932Y-53405807D01*
X65320547Y-53386101D01*
X65337023Y-53367923D01*
X65355201Y-53351447D01*
X65374907Y-53336832D01*
X65395950Y-53324220D01*
X65418129Y-53313730D01*
X65441228Y-53305465D01*
X65465027Y-53299504D01*
X65489295Y-53295904D01*
X65513799Y-53294700D01*
X66413801Y-53294700D01*
X66438305Y-53295904D01*
X66438305Y-53295904D01*
G37*
D13*
G04 #@! TD*
G04 #@! TO.P,RE2,2*
G04 #@! TO.N,Net-(CB2-Pad2)*
X65963800Y-53869700D03*
D12*
G04 #@! TO.N,GND*
G04 #@! TO.C,RE2*
G36*
X66438305Y-51245904D02*
X66462573Y-51249504D01*
X66486372Y-51255465D01*
X66509471Y-51263730D01*
X66531650Y-51274220D01*
X66552693Y-51286832D01*
X66572399Y-51301447D01*
X66590577Y-51317923D01*
X66607053Y-51336101D01*
X66621668Y-51355807D01*
X66634280Y-51376850D01*
X66644770Y-51399029D01*
X66653035Y-51422128D01*
X66658996Y-51445927D01*
X66662596Y-51470195D01*
X66663800Y-51494699D01*
X66663800Y-52144701D01*
X66662596Y-52169205D01*
X66658996Y-52193473D01*
X66653035Y-52217272D01*
X66644770Y-52240371D01*
X66634280Y-52262550D01*
X66621668Y-52283593D01*
X66607053Y-52303299D01*
X66590577Y-52321477D01*
X66572399Y-52337953D01*
X66552693Y-52352568D01*
X66531650Y-52365180D01*
X66509471Y-52375670D01*
X66486372Y-52383935D01*
X66462573Y-52389896D01*
X66438305Y-52393496D01*
X66413801Y-52394700D01*
X65513799Y-52394700D01*
X65489295Y-52393496D01*
X65465027Y-52389896D01*
X65441228Y-52383935D01*
X65418129Y-52375670D01*
X65395950Y-52365180D01*
X65374907Y-52352568D01*
X65355201Y-52337953D01*
X65337023Y-52321477D01*
X65320547Y-52303299D01*
X65305932Y-52283593D01*
X65293320Y-52262550D01*
X65282830Y-52240371D01*
X65274565Y-52217272D01*
X65268604Y-52193473D01*
X65265004Y-52169205D01*
X65263800Y-52144701D01*
X65263800Y-51494699D01*
X65265004Y-51470195D01*
X65268604Y-51445927D01*
X65274565Y-51422128D01*
X65282830Y-51399029D01*
X65293320Y-51376850D01*
X65305932Y-51355807D01*
X65320547Y-51336101D01*
X65337023Y-51317923D01*
X65355201Y-51301447D01*
X65374907Y-51286832D01*
X65395950Y-51274220D01*
X65418129Y-51263730D01*
X65441228Y-51255465D01*
X65465027Y-51249504D01*
X65489295Y-51245904D01*
X65513799Y-51244700D01*
X66413801Y-51244700D01*
X66438305Y-51245904D01*
X66438305Y-51245904D01*
G37*
D13*
G04 #@! TD*
G04 #@! TO.P,RE2,1*
G04 #@! TO.N,GND*
X65963800Y-51819700D03*
D18*
G04 #@! TO.P,T1,1*
G04 #@! TO.N,GND*
X54165000Y-63754000D03*
G04 #@! TO.P,T1,2*
G04 #@! TO.N,Net-(J1-Pad1)*
X54165000Y-66294000D03*
G04 #@! TO.P,T1,3*
G04 #@! TO.N,Net-(QN1-Pad1)*
X57595000Y-66294000D03*
G04 #@! TO.P,T1,4*
G04 #@! TO.N,Net-(R1-Pad2)*
X57595000Y-65024000D03*
G04 #@! TO.P,T1,5*
G04 #@! TO.N,Net-(QP2-Pad1)*
X57595000Y-63754000D03*
G04 #@! TD*
D19*
G04 #@! TO.P,T2,5*
G04 #@! TO.N,Net-(QN2-Pad2)*
X84932520Y-62856880D03*
G04 #@! TO.P,T2,4*
G04 #@! TO.N,Net-(C0-Pad1)*
X86202520Y-62856880D03*
G04 #@! TO.P,T2,3*
G04 #@! TO.N,Net-(QP1-Pad2)*
X87472520Y-62856880D03*
G04 #@! TO.P,T2,2*
G04 #@! TO.N,Net-(J2-Pad1)*
X87472520Y-66286880D03*
G04 #@! TO.P,T2,1*
G04 #@! TO.N,GND*
X84932520Y-66286880D03*
G04 #@! TD*
D20*
G04 #@! TO.N,Net-(C0-Pad1)*
X86202520Y-56415940D03*
X55041800Y-50596800D03*
G04 #@! TO.N,Net-(QN1-Pad3)*
X66303020Y-75210800D03*
X74889360Y-67249040D03*
G04 #@! TO.N,Net-(QN2-Pad1)*
X58534300Y-52539900D03*
X68962400Y-62015500D03*
G04 #@! TO.N,Net-(QP1-Pad2)*
X90262740Y-58366660D03*
X73820020Y-75206860D03*
G04 #@! TO.N,Net-(R1-Pad2)*
X63461900Y-60858400D03*
G04 #@! TD*
D21*
G04 #@! TO.N,Net-(C0-Pad1)*
X86202520Y-62856880D02*
X86202520Y-56415940D01*
X86202520Y-56415940D02*
X86202520Y-56415940D01*
X86202520Y-56415940D02*
X86202520Y-56415940D01*
D22*
X48933100Y-50596800D02*
X51283100Y-50596800D01*
X51283100Y-50596800D02*
X55041800Y-50596800D01*
X55041800Y-50596800D02*
X55041800Y-50596800D01*
D21*
G04 #@! TO.N,Net-(CB1-Pad1)*
X69015480Y-72206860D02*
X69019420Y-72210800D01*
X69015480Y-68199040D02*
X69015480Y-72206860D01*
X64649220Y-72210800D02*
X64643000Y-72204580D01*
X69019420Y-72210800D02*
X64649220Y-72210800D01*
X64643000Y-72204580D02*
X60271660Y-72204580D01*
G04 #@! TO.N,Net-(CB2-Pad2)*
X59480620Y-58204100D02*
X59479220Y-58205500D01*
X65962400Y-58204100D02*
X59480620Y-58204100D01*
X65962400Y-53871100D02*
X65963800Y-53869700D01*
X65962400Y-58204100D02*
X65962400Y-53871100D01*
X70590300Y-53869700D02*
X70599300Y-53860700D01*
X65963800Y-53869700D02*
X70590300Y-53869700D01*
D22*
G04 #@! TO.N,Net-(J1-Pad1)*
X42857000Y-66294000D02*
X54165000Y-66294000D01*
G04 #@! TO.N,Net-(J2-Pad1)*
X87479640Y-66294000D02*
X87472520Y-66286880D01*
X97224000Y-66294000D02*
X87479640Y-66294000D01*
D21*
G04 #@! TO.N,Net-(QN1-Pad1)*
X57600040Y-66299040D02*
X57595000Y-66294000D01*
X69015480Y-66299040D02*
X57600040Y-66299040D01*
G04 #@! TO.N,Net-(QN1-Pad3)*
X72015480Y-67249040D02*
X74889360Y-67249040D01*
X73965480Y-67249040D02*
X74889360Y-67249040D01*
X74889360Y-67249040D02*
X73965480Y-67249040D01*
X68069420Y-75210800D02*
X66303020Y-75210800D01*
X66303020Y-75210800D02*
X66303020Y-75210800D01*
X74889360Y-67249040D02*
X74889360Y-67249040D01*
G04 #@! TO.N,Net-(QN2-Pad2)*
X79649740Y-57254100D02*
X79664940Y-57238900D01*
X68962400Y-57254100D02*
X79649740Y-57254100D01*
X79664940Y-57238900D02*
X82778600Y-57238900D01*
X84932520Y-59392820D02*
X84932520Y-62856880D01*
X82778600Y-57238900D02*
X84932520Y-59392820D01*
G04 #@! TO.N,Net-(QN2-Pad1)*
X68962400Y-59154100D02*
X68962400Y-60554100D01*
X58529220Y-53255500D02*
X58534300Y-52539900D01*
X58529220Y-55205500D02*
X58529220Y-53255500D01*
X58534300Y-53250420D02*
X58534300Y-52539900D01*
X58534300Y-52539900D02*
X58534300Y-53250420D01*
X68962400Y-60554100D02*
X68962400Y-62015500D01*
X68962400Y-62015500D02*
X68962400Y-62015500D01*
G04 #@! TO.N,Net-(QP1-Pad2)*
X71369420Y-75210800D02*
X71373360Y-75206860D01*
X69969420Y-75210800D02*
X71369420Y-75210800D01*
X71373360Y-75206860D02*
X73820020Y-75206860D01*
X73820020Y-75206860D02*
X73820020Y-75206860D01*
X87472520Y-61156880D02*
X90262740Y-58366660D01*
X87472520Y-62856880D02*
X87472520Y-61156880D01*
X90262740Y-58366660D02*
X90262740Y-58366660D01*
G04 #@! TO.N,Net-(QP2-Pad1)*
X57579220Y-63738220D02*
X57595000Y-63754000D01*
X57579220Y-58205500D02*
X57579220Y-63738220D01*
G04 #@! TO.N,Net-(R1-Pad2)*
X57595000Y-65024000D02*
X59295000Y-65024000D01*
X59295000Y-65024000D02*
X59296300Y-65024000D01*
X59296300Y-65024000D02*
X63461900Y-60858400D01*
X63461900Y-60858400D02*
X63461900Y-60858400D01*
G04 #@! TD*
D23*
G04 #@! TO.N,GND*
G36*
X98858000Y-60069000D02*
X97509750Y-60069000D01*
X97351000Y-60227750D01*
X97351000Y-61787000D01*
X97371000Y-61787000D01*
X97371000Y-62041000D01*
X97351000Y-62041000D01*
X97351000Y-63600250D01*
X97509750Y-63759000D01*
X98858001Y-63759000D01*
X98858001Y-64501560D01*
X94684000Y-64501560D01*
X94436235Y-64550843D01*
X94226191Y-64691191D01*
X94085843Y-64901235D01*
X94084298Y-64909000D01*
X87644722Y-64909000D01*
X87472520Y-64874747D01*
X87147286Y-64939440D01*
X87092520Y-64939440D01*
X86844755Y-64988723D01*
X86634711Y-65129071D01*
X86572071Y-65222817D01*
X86473992Y-65288352D01*
X86167879Y-65746481D01*
X86060387Y-66286880D01*
X86167879Y-66827279D01*
X86396723Y-67169768D01*
X86403840Y-67176885D01*
X86481111Y-67292529D01*
X86574925Y-67355213D01*
X86634711Y-67444689D01*
X86844755Y-67585037D01*
X87092520Y-67634320D01*
X87118611Y-67634320D01*
X87343233Y-67679000D01*
X87479639Y-67706133D01*
X87616045Y-67679000D01*
X94084298Y-67679000D01*
X94085843Y-67686765D01*
X94226191Y-67896809D01*
X94436235Y-68037157D01*
X94684000Y-68086440D01*
X98858001Y-68086440D01*
X98858001Y-68829000D01*
X97509750Y-68829000D01*
X97351000Y-68987750D01*
X97351000Y-70547000D01*
X97371000Y-70547000D01*
X97371000Y-70801000D01*
X97351000Y-70801000D01*
X97351000Y-72360250D01*
X97509750Y-72519000D01*
X98858001Y-72519000D01*
X98858001Y-76506000D01*
X70902473Y-76506000D01*
X70967577Y-76408565D01*
X70980062Y-76345800D01*
X71257637Y-76345800D01*
X71369420Y-76368035D01*
X71481203Y-76345800D01*
X71501011Y-76341860D01*
X73573349Y-76341860D01*
X73592663Y-76349860D01*
X74047377Y-76349860D01*
X74191310Y-76290241D01*
X74262875Y-76276006D01*
X74323544Y-76235468D01*
X74467478Y-76175849D01*
X74577641Y-76065686D01*
X74638309Y-76025149D01*
X74678846Y-75964481D01*
X74789009Y-75854318D01*
X74848628Y-75710384D01*
X74889166Y-75649715D01*
X74903401Y-75578150D01*
X74963020Y-75434217D01*
X74963020Y-75278424D01*
X74977255Y-75206860D01*
X74963020Y-75135296D01*
X74963020Y-74979503D01*
X74903401Y-74835570D01*
X74889166Y-74764005D01*
X74848628Y-74703336D01*
X74789009Y-74559402D01*
X74678846Y-74449239D01*
X74638309Y-74388571D01*
X74577641Y-74348034D01*
X74467478Y-74237871D01*
X74323544Y-74178252D01*
X74262875Y-74137714D01*
X74191310Y-74123479D01*
X74047377Y-74063860D01*
X73592663Y-74063860D01*
X73573349Y-74071860D01*
X71485142Y-74071860D01*
X71373359Y-74049625D01*
X71241768Y-74075800D01*
X70980062Y-74075800D01*
X70967577Y-74013035D01*
X70827229Y-73802991D01*
X70617185Y-73662643D01*
X70369420Y-73613360D01*
X69880736Y-73613360D01*
X70017577Y-73408565D01*
X70066860Y-73160800D01*
X70066860Y-72686140D01*
X70088566Y-72653655D01*
X70176655Y-72210800D01*
X70150480Y-72079209D01*
X70150480Y-70959750D01*
X94049000Y-70959750D01*
X94049000Y-72010310D01*
X94145673Y-72243699D01*
X94324302Y-72422327D01*
X94557691Y-72519000D01*
X96938250Y-72519000D01*
X97097000Y-72360250D01*
X97097000Y-70801000D01*
X94207750Y-70801000D01*
X94049000Y-70959750D01*
X70150480Y-70959750D01*
X70150480Y-69337690D01*
X94049000Y-69337690D01*
X94049000Y-70388250D01*
X94207750Y-70547000D01*
X97097000Y-70547000D01*
X97097000Y-68987750D01*
X96938250Y-68829000D01*
X94557691Y-68829000D01*
X94324302Y-68925673D01*
X94145673Y-69104301D01*
X94049000Y-69337690D01*
X70150480Y-69337690D01*
X70150480Y-69209682D01*
X70213245Y-69197197D01*
X70423289Y-69056849D01*
X70563637Y-68846805D01*
X70612920Y-68599040D01*
X70612920Y-68110356D01*
X70817715Y-68247197D01*
X71065480Y-68296480D01*
X71540140Y-68296480D01*
X71572625Y-68318186D01*
X71903697Y-68384040D01*
X74642689Y-68384040D01*
X74662003Y-68392040D01*
X75116717Y-68392040D01*
X75260650Y-68332421D01*
X75332215Y-68318186D01*
X75392884Y-68277648D01*
X75536818Y-68218029D01*
X75646981Y-68107866D01*
X75707649Y-68067329D01*
X75748186Y-68006661D01*
X75858349Y-67896498D01*
X75917968Y-67752564D01*
X75958506Y-67691895D01*
X75972741Y-67620330D01*
X76032360Y-67476397D01*
X76032360Y-67320604D01*
X76046595Y-67249040D01*
X76032360Y-67177476D01*
X76032360Y-67021683D01*
X75972741Y-66877750D01*
X75958506Y-66806185D01*
X75917968Y-66745516D01*
X75858349Y-66601582D01*
X75829397Y-66572630D01*
X83917520Y-66572630D01*
X83917520Y-67113189D01*
X84014193Y-67346578D01*
X84192821Y-67525207D01*
X84426210Y-67621880D01*
X84646770Y-67621880D01*
X84805520Y-67463130D01*
X84805520Y-66413880D01*
X85059520Y-66413880D01*
X85059520Y-67463130D01*
X85218270Y-67621880D01*
X85438830Y-67621880D01*
X85672219Y-67525207D01*
X85850847Y-67346578D01*
X85947520Y-67113189D01*
X85947520Y-66572630D01*
X85788770Y-66413880D01*
X85059520Y-66413880D01*
X84805520Y-66413880D01*
X84076270Y-66413880D01*
X83917520Y-66572630D01*
X75829397Y-66572630D01*
X75748186Y-66491419D01*
X75707649Y-66430751D01*
X75646981Y-66390214D01*
X75536818Y-66280051D01*
X75392884Y-66220432D01*
X75332215Y-66179894D01*
X75260650Y-66165659D01*
X75116717Y-66106040D01*
X74662003Y-66106040D01*
X74642689Y-66114040D01*
X71903697Y-66114040D01*
X71572625Y-66179894D01*
X71540140Y-66201600D01*
X71065480Y-66201600D01*
X70817715Y-66250883D01*
X70612920Y-66387724D01*
X70612920Y-65899040D01*
X70563637Y-65651275D01*
X70436212Y-65460571D01*
X83917520Y-65460571D01*
X83917520Y-66001130D01*
X84076270Y-66159880D01*
X84805520Y-66159880D01*
X84805520Y-65110630D01*
X85059520Y-65110630D01*
X85059520Y-66159880D01*
X85788770Y-66159880D01*
X85947520Y-66001130D01*
X85947520Y-65460571D01*
X85850847Y-65227182D01*
X85672219Y-65048553D01*
X85438830Y-64951880D01*
X85218270Y-64951880D01*
X85059520Y-65110630D01*
X84805520Y-65110630D01*
X84646770Y-64951880D01*
X84426210Y-64951880D01*
X84192821Y-65048553D01*
X84014193Y-65227182D01*
X83917520Y-65460571D01*
X70436212Y-65460571D01*
X70423289Y-65441231D01*
X70213245Y-65300883D01*
X69965480Y-65251600D01*
X69490820Y-65251600D01*
X69458335Y-65229894D01*
X69127263Y-65164040D01*
X60761391Y-65164040D01*
X64090042Y-61835390D01*
X64109358Y-61827389D01*
X64219521Y-61717226D01*
X64280189Y-61676689D01*
X64320726Y-61616021D01*
X64430889Y-61505858D01*
X64490508Y-61361924D01*
X64531046Y-61301255D01*
X64545281Y-61229690D01*
X64604900Y-61085757D01*
X64604900Y-60929964D01*
X64614739Y-60880500D01*
X64619135Y-60858401D01*
X64604900Y-60786837D01*
X64604900Y-60631043D01*
X64545281Y-60487110D01*
X64531046Y-60415545D01*
X64490508Y-60354876D01*
X64430889Y-60210942D01*
X64320726Y-60100779D01*
X64280189Y-60040111D01*
X64219521Y-59999574D01*
X64109358Y-59889411D01*
X63965424Y-59829792D01*
X63904755Y-59789254D01*
X63833190Y-59775019D01*
X63689257Y-59715400D01*
X63533463Y-59715400D01*
X63461899Y-59701165D01*
X63390335Y-59715400D01*
X63234543Y-59715400D01*
X63090610Y-59775019D01*
X63019045Y-59789254D01*
X62958376Y-59829792D01*
X62814442Y-59889411D01*
X62704279Y-59999574D01*
X62643611Y-60040111D01*
X62603074Y-60100779D01*
X62492911Y-60210942D01*
X62484910Y-60230258D01*
X58942440Y-63772729D01*
X58942440Y-63374000D01*
X58893157Y-63126235D01*
X58752809Y-62916191D01*
X58714220Y-62890406D01*
X58714220Y-59675322D01*
X58831455Y-59753657D01*
X59079220Y-59802940D01*
X59879220Y-59802940D01*
X60126985Y-59753657D01*
X60337029Y-59613309D01*
X60477377Y-59403265D01*
X60490140Y-59339100D01*
X65850617Y-59339100D01*
X65962400Y-59361335D01*
X66074183Y-59339100D01*
X66405255Y-59273246D01*
X66437740Y-59251540D01*
X66912400Y-59251540D01*
X67160165Y-59202257D01*
X67364960Y-59065416D01*
X67364960Y-59554100D01*
X67414243Y-59801865D01*
X67554591Y-60011909D01*
X67764635Y-60152257D01*
X67827400Y-60164742D01*
X67827400Y-61768829D01*
X67819400Y-61788143D01*
X67819400Y-61943936D01*
X67805165Y-62015500D01*
X67819400Y-62087064D01*
X67819400Y-62242857D01*
X67879019Y-62386790D01*
X67893254Y-62458355D01*
X67933792Y-62519024D01*
X67993411Y-62662958D01*
X68103574Y-62773121D01*
X68144111Y-62833789D01*
X68204779Y-62874326D01*
X68314942Y-62984489D01*
X68458876Y-63044108D01*
X68519545Y-63084646D01*
X68591110Y-63098881D01*
X68735043Y-63158500D01*
X68890836Y-63158500D01*
X68962400Y-63172735D01*
X69033964Y-63158500D01*
X69189757Y-63158500D01*
X69333690Y-63098881D01*
X69405255Y-63084646D01*
X69465924Y-63044108D01*
X69609858Y-62984489D01*
X69720021Y-62874326D01*
X69780689Y-62833789D01*
X69821226Y-62773121D01*
X69931389Y-62662958D01*
X69991008Y-62519024D01*
X70031546Y-62458355D01*
X70045781Y-62386790D01*
X70105400Y-62242857D01*
X70105400Y-62087064D01*
X70119635Y-62015500D01*
X70105400Y-61943936D01*
X70105400Y-61788143D01*
X70097400Y-61768829D01*
X70097400Y-60164742D01*
X70160165Y-60152257D01*
X70370209Y-60011909D01*
X70510557Y-59801865D01*
X70559840Y-59554100D01*
X70559840Y-58754100D01*
X70510557Y-58506335D01*
X70432222Y-58389100D01*
X79537957Y-58389100D01*
X79649740Y-58411335D01*
X79761523Y-58389100D01*
X79837939Y-58373900D01*
X82308469Y-58373900D01*
X83797520Y-59862952D01*
X83797521Y-62968663D01*
X83863375Y-63299735D01*
X83905080Y-63362151D01*
X83905080Y-63556880D01*
X83954363Y-63804645D01*
X84094711Y-64014689D01*
X84304755Y-64155037D01*
X84552520Y-64204320D01*
X85312520Y-64204320D01*
X85560285Y-64155037D01*
X85567520Y-64150203D01*
X85574755Y-64155037D01*
X85822520Y-64204320D01*
X86582520Y-64204320D01*
X86830285Y-64155037D01*
X86837520Y-64150203D01*
X86844755Y-64155037D01*
X87092520Y-64204320D01*
X87852520Y-64204320D01*
X88100285Y-64155037D01*
X88310329Y-64014689D01*
X88450677Y-63804645D01*
X88499960Y-63556880D01*
X88499960Y-63362152D01*
X88541666Y-63299735D01*
X88607520Y-62968663D01*
X88607520Y-62199750D01*
X94049000Y-62199750D01*
X94049000Y-63250310D01*
X94145673Y-63483699D01*
X94324302Y-63662327D01*
X94557691Y-63759000D01*
X96938250Y-63759000D01*
X97097000Y-63600250D01*
X97097000Y-62041000D01*
X94207750Y-62041000D01*
X94049000Y-62199750D01*
X88607520Y-62199750D01*
X88607520Y-61627011D01*
X89656841Y-60577690D01*
X94049000Y-60577690D01*
X94049000Y-61628250D01*
X94207750Y-61787000D01*
X97097000Y-61787000D01*
X97097000Y-60227750D01*
X96938250Y-60069000D01*
X94557691Y-60069000D01*
X94324302Y-60165673D01*
X94145673Y-60344301D01*
X94049000Y-60577690D01*
X89656841Y-60577690D01*
X90890882Y-59343650D01*
X90910198Y-59335649D01*
X91020361Y-59225486D01*
X91081029Y-59184949D01*
X91121566Y-59124281D01*
X91231729Y-59014118D01*
X91291348Y-58870184D01*
X91331886Y-58809515D01*
X91346121Y-58737950D01*
X91405740Y-58594017D01*
X91405740Y-58438224D01*
X91419975Y-58366660D01*
X91405740Y-58295096D01*
X91405740Y-58139303D01*
X91346121Y-57995370D01*
X91331886Y-57923805D01*
X91291348Y-57863136D01*
X91231729Y-57719202D01*
X91121566Y-57609039D01*
X91081029Y-57548371D01*
X91020361Y-57507834D01*
X90910198Y-57397671D01*
X90766264Y-57338052D01*
X90705595Y-57297514D01*
X90634030Y-57283279D01*
X90490097Y-57223660D01*
X90334304Y-57223660D01*
X90262740Y-57209425D01*
X90191176Y-57223660D01*
X90035383Y-57223660D01*
X89891450Y-57283279D01*
X89819885Y-57297514D01*
X89759216Y-57338052D01*
X89615282Y-57397671D01*
X89505119Y-57507834D01*
X89444451Y-57548371D01*
X89403914Y-57609039D01*
X89293751Y-57719202D01*
X89285750Y-57738518D01*
X87337520Y-59686749D01*
X87337520Y-56662611D01*
X87345520Y-56643297D01*
X87345520Y-56487504D01*
X87359755Y-56415940D01*
X87345520Y-56344376D01*
X87345520Y-56188583D01*
X87285901Y-56044650D01*
X87271666Y-55973085D01*
X87231128Y-55912416D01*
X87171509Y-55768482D01*
X87061346Y-55658319D01*
X87020809Y-55597651D01*
X86960141Y-55557114D01*
X86849978Y-55446951D01*
X86706044Y-55387332D01*
X86645375Y-55346794D01*
X86573810Y-55332559D01*
X86429877Y-55272940D01*
X86274084Y-55272940D01*
X86202520Y-55258705D01*
X86130956Y-55272940D01*
X85975163Y-55272940D01*
X85831230Y-55332559D01*
X85759665Y-55346794D01*
X85698996Y-55387332D01*
X85555062Y-55446951D01*
X85444899Y-55557114D01*
X85384231Y-55597651D01*
X85343694Y-55658319D01*
X85233531Y-55768482D01*
X85173912Y-55912416D01*
X85133374Y-55973085D01*
X85119139Y-56044650D01*
X85059520Y-56188583D01*
X85059520Y-56344376D01*
X85045285Y-56415940D01*
X85059520Y-56487504D01*
X85059520Y-56643297D01*
X85067521Y-56662613D01*
X85067521Y-57922689D01*
X83660213Y-56515382D01*
X83596889Y-56420611D01*
X83221455Y-56169754D01*
X82890383Y-56103900D01*
X82778600Y-56081665D01*
X82666817Y-56103900D01*
X79776722Y-56103900D01*
X79664939Y-56081665D01*
X79476741Y-56119100D01*
X68850617Y-56119100D01*
X68519545Y-56184954D01*
X68487060Y-56206660D01*
X68012400Y-56206660D01*
X67764635Y-56255943D01*
X67554591Y-56396291D01*
X67414243Y-56606335D01*
X67364960Y-56854100D01*
X67364960Y-57342784D01*
X67160165Y-57205943D01*
X67097400Y-57193458D01*
X67097400Y-55004700D01*
X69790708Y-55004700D01*
X69805864Y-55014827D01*
X70149299Y-55083140D01*
X71049301Y-55083140D01*
X71392736Y-55014827D01*
X71683886Y-54820286D01*
X71878427Y-54529136D01*
X71946740Y-54185701D01*
X71946740Y-53535699D01*
X71878427Y-53192264D01*
X71683886Y-52901114D01*
X71682703Y-52900323D01*
X71837627Y-52745398D01*
X71934300Y-52512009D01*
X71934300Y-52096450D01*
X71775550Y-51937700D01*
X70726300Y-51937700D01*
X70726300Y-51957700D01*
X70472300Y-51957700D01*
X70472300Y-51937700D01*
X69423050Y-51937700D01*
X69264300Y-52096450D01*
X69264300Y-52512009D01*
X69356542Y-52734700D01*
X67210286Y-52734700D01*
X67298800Y-52521009D01*
X67298800Y-52105450D01*
X67140050Y-51946700D01*
X66090800Y-51946700D01*
X66090800Y-51966700D01*
X65836800Y-51966700D01*
X65836800Y-51946700D01*
X64787550Y-51946700D01*
X64628800Y-52105450D01*
X64628800Y-52521009D01*
X64725473Y-52754398D01*
X64880397Y-52909323D01*
X64879214Y-52910114D01*
X64684673Y-53201264D01*
X64616360Y-53544699D01*
X64616360Y-54194701D01*
X64684673Y-54538136D01*
X64827401Y-54751742D01*
X64827400Y-57069100D01*
X60489583Y-57069100D01*
X60477377Y-57007735D01*
X60337029Y-56797691D01*
X60126985Y-56657343D01*
X59879220Y-56608060D01*
X59390536Y-56608060D01*
X59527377Y-56403265D01*
X59576660Y-56155500D01*
X59576660Y-55680840D01*
X59598366Y-55648355D01*
X59664220Y-55317283D01*
X59664220Y-53387741D01*
X59669300Y-53362202D01*
X59669300Y-52786571D01*
X59677300Y-52767257D01*
X59677300Y-52312543D01*
X59619788Y-52173696D01*
X59606562Y-52104646D01*
X59604263Y-52101152D01*
X59603446Y-52097045D01*
X59562908Y-52036376D01*
X59503289Y-51892442D01*
X59397021Y-51786174D01*
X59358377Y-51727441D01*
X59354915Y-51725092D01*
X59352589Y-51721611D01*
X59295851Y-51683700D01*
X59291921Y-51681074D01*
X59181758Y-51570911D01*
X59042912Y-51513399D01*
X58984733Y-51473925D01*
X58980636Y-51473080D01*
X58977155Y-51470754D01*
X58905590Y-51456519D01*
X58761657Y-51396900D01*
X58611370Y-51396900D01*
X58542514Y-51382695D01*
X58538406Y-51383482D01*
X58534300Y-51382665D01*
X58462736Y-51396900D01*
X58306943Y-51396900D01*
X58168097Y-51454412D01*
X58099046Y-51467638D01*
X58095552Y-51469937D01*
X58091445Y-51470754D01*
X58030776Y-51511292D01*
X57886842Y-51570911D01*
X57780574Y-51677179D01*
X57721841Y-51715823D01*
X57719492Y-51719285D01*
X57716011Y-51721611D01*
X57675474Y-51782279D01*
X57565311Y-51892442D01*
X57507799Y-52031288D01*
X57468325Y-52089467D01*
X57467480Y-52093564D01*
X57465154Y-52097045D01*
X57450919Y-52168610D01*
X57391300Y-52312543D01*
X57391300Y-52767257D01*
X57397551Y-52782349D01*
X57395014Y-53139729D01*
X57394221Y-53143717D01*
X57394221Y-53251467D01*
X57393456Y-53359223D01*
X57394221Y-53363216D01*
X57394220Y-55317282D01*
X57460074Y-55648354D01*
X57481780Y-55680839D01*
X57481780Y-56155500D01*
X57531063Y-56403265D01*
X57667904Y-56608060D01*
X57179220Y-56608060D01*
X56931455Y-56657343D01*
X56721411Y-56797691D01*
X56581063Y-57007735D01*
X56531780Y-57255500D01*
X56531780Y-57730161D01*
X56510074Y-57762646D01*
X56444220Y-58093718D01*
X56444221Y-62911494D01*
X56437191Y-62916191D01*
X56296843Y-63126235D01*
X56247560Y-63374000D01*
X56247560Y-64134000D01*
X56296843Y-64381765D01*
X56301677Y-64389000D01*
X56296843Y-64396235D01*
X56247560Y-64644000D01*
X56247560Y-65404000D01*
X56296843Y-65651765D01*
X56301677Y-65659000D01*
X56296843Y-65666235D01*
X56247560Y-65914000D01*
X56247560Y-66674000D01*
X56296843Y-66921765D01*
X56437191Y-67131809D01*
X56647235Y-67272157D01*
X56895000Y-67321440D01*
X57087225Y-67321440D01*
X57157185Y-67368186D01*
X57488257Y-67434040D01*
X57600040Y-67456275D01*
X57711823Y-67434040D01*
X67545658Y-67434040D01*
X67467323Y-67551275D01*
X67418040Y-67799040D01*
X67418040Y-68599040D01*
X67467323Y-68846805D01*
X67607671Y-69056849D01*
X67817715Y-69197197D01*
X67880480Y-69209682D01*
X67880481Y-71075800D01*
X65474370Y-71075800D01*
X65436436Y-71050453D01*
X65093001Y-70982140D01*
X64192999Y-70982140D01*
X63849564Y-71050453D01*
X63820939Y-71069580D01*
X61093721Y-71069580D01*
X61065096Y-71050453D01*
X60721661Y-70982140D01*
X59821659Y-70982140D01*
X59478224Y-71050453D01*
X59187074Y-71244994D01*
X58992533Y-71536144D01*
X58924220Y-71879579D01*
X58924220Y-72529581D01*
X58992533Y-72873016D01*
X59187074Y-73164166D01*
X59188257Y-73164957D01*
X59033333Y-73319882D01*
X58936660Y-73553271D01*
X58936660Y-73968830D01*
X59095410Y-74127580D01*
X60144660Y-74127580D01*
X60144660Y-74107580D01*
X60398660Y-74107580D01*
X60398660Y-74127580D01*
X61447910Y-74127580D01*
X61606660Y-73968830D01*
X61606660Y-73553271D01*
X61518146Y-73339580D01*
X63396514Y-73339580D01*
X63308000Y-73553271D01*
X63308000Y-73968830D01*
X63466750Y-74127580D01*
X64516000Y-74127580D01*
X64516000Y-74107580D01*
X64770000Y-74107580D01*
X64770000Y-74127580D01*
X64790000Y-74127580D01*
X64790000Y-74381580D01*
X64770000Y-74381580D01*
X64770000Y-75305830D01*
X64928750Y-75464580D01*
X65170965Y-75464580D01*
X65219639Y-75582090D01*
X65233874Y-75653655D01*
X65274412Y-75714324D01*
X65334031Y-75858258D01*
X65444194Y-75968421D01*
X65484731Y-76029089D01*
X65545399Y-76069626D01*
X65655562Y-76179789D01*
X65799496Y-76239408D01*
X65860165Y-76279946D01*
X65931730Y-76294181D01*
X66075663Y-76353800D01*
X66530377Y-76353800D01*
X66549691Y-76345800D01*
X67058778Y-76345800D01*
X67071263Y-76408565D01*
X67136367Y-76506000D01*
X41350000Y-76506000D01*
X41350000Y-74540330D01*
X58936660Y-74540330D01*
X58936660Y-74955889D01*
X59033333Y-75189278D01*
X59211961Y-75367907D01*
X59445350Y-75464580D01*
X59985910Y-75464580D01*
X60144660Y-75305830D01*
X60144660Y-74381580D01*
X60398660Y-74381580D01*
X60398660Y-75305830D01*
X60557410Y-75464580D01*
X61097970Y-75464580D01*
X61331359Y-75367907D01*
X61509987Y-75189278D01*
X61606660Y-74955889D01*
X61606660Y-74540330D01*
X63308000Y-74540330D01*
X63308000Y-74955889D01*
X63404673Y-75189278D01*
X63583301Y-75367907D01*
X63816690Y-75464580D01*
X64357250Y-75464580D01*
X64516000Y-75305830D01*
X64516000Y-74381580D01*
X63466750Y-74381580D01*
X63308000Y-74540330D01*
X61606660Y-74540330D01*
X61447910Y-74381580D01*
X60398660Y-74381580D01*
X60144660Y-74381580D01*
X59095410Y-74381580D01*
X58936660Y-74540330D01*
X41350000Y-74540330D01*
X41350000Y-72519000D01*
X42571250Y-72519000D01*
X42730000Y-72360250D01*
X42730000Y-70801000D01*
X42984000Y-70801000D01*
X42984000Y-72360250D01*
X43142750Y-72519000D01*
X45523309Y-72519000D01*
X45756698Y-72422327D01*
X45935327Y-72243699D01*
X46032000Y-72010310D01*
X46032000Y-70959750D01*
X45873250Y-70801000D01*
X42984000Y-70801000D01*
X42730000Y-70801000D01*
X42710000Y-70801000D01*
X42710000Y-70547000D01*
X42730000Y-70547000D01*
X42730000Y-68987750D01*
X42984000Y-68987750D01*
X42984000Y-70547000D01*
X45873250Y-70547000D01*
X46032000Y-70388250D01*
X46032000Y-69337690D01*
X45935327Y-69104301D01*
X45756698Y-68925673D01*
X45523309Y-68829000D01*
X43142750Y-68829000D01*
X42984000Y-68987750D01*
X42730000Y-68987750D01*
X42571250Y-68829000D01*
X41350000Y-68829000D01*
X41350000Y-68086440D01*
X45397000Y-68086440D01*
X45644765Y-68037157D01*
X45854809Y-67896809D01*
X45995157Y-67686765D01*
X45996702Y-67679000D01*
X54301407Y-67679000D01*
X54705400Y-67598641D01*
X55163529Y-67292529D01*
X55229065Y-67194447D01*
X55322809Y-67131809D01*
X55463157Y-66921765D01*
X55512440Y-66674000D01*
X55512440Y-66619234D01*
X55577133Y-66294000D01*
X55512440Y-65968766D01*
X55512440Y-65914000D01*
X55463157Y-65666235D01*
X55322809Y-65456191D01*
X55229065Y-65393553D01*
X55163529Y-65295471D01*
X54705400Y-64989359D01*
X54301407Y-64909000D01*
X45996702Y-64909000D01*
X45995157Y-64901235D01*
X45854809Y-64691191D01*
X45644765Y-64550843D01*
X45397000Y-64501560D01*
X41350000Y-64501560D01*
X41350000Y-64039750D01*
X52830000Y-64039750D01*
X52830000Y-64260310D01*
X52926673Y-64493699D01*
X53105302Y-64672327D01*
X53338691Y-64769000D01*
X53879250Y-64769000D01*
X54038000Y-64610250D01*
X54038000Y-63881000D01*
X54292000Y-63881000D01*
X54292000Y-64610250D01*
X54450750Y-64769000D01*
X54991309Y-64769000D01*
X55224698Y-64672327D01*
X55403327Y-64493699D01*
X55500000Y-64260310D01*
X55500000Y-64039750D01*
X55341250Y-63881000D01*
X54292000Y-63881000D01*
X54038000Y-63881000D01*
X52988750Y-63881000D01*
X52830000Y-64039750D01*
X41350000Y-64039750D01*
X41350000Y-63759000D01*
X42571250Y-63759000D01*
X42730000Y-63600250D01*
X42730000Y-62041000D01*
X42984000Y-62041000D01*
X42984000Y-63600250D01*
X43142750Y-63759000D01*
X45523309Y-63759000D01*
X45756698Y-63662327D01*
X45935327Y-63483699D01*
X46032000Y-63250310D01*
X46032000Y-63247690D01*
X52830000Y-63247690D01*
X52830000Y-63468250D01*
X52988750Y-63627000D01*
X54038000Y-63627000D01*
X54038000Y-62897750D01*
X54292000Y-62897750D01*
X54292000Y-63627000D01*
X55341250Y-63627000D01*
X55500000Y-63468250D01*
X55500000Y-63247690D01*
X55403327Y-63014301D01*
X55224698Y-62835673D01*
X54991309Y-62739000D01*
X54450750Y-62739000D01*
X54292000Y-62897750D01*
X54038000Y-62897750D01*
X53879250Y-62739000D01*
X53338691Y-62739000D01*
X53105302Y-62835673D01*
X52926673Y-63014301D01*
X52830000Y-63247690D01*
X46032000Y-63247690D01*
X46032000Y-62199750D01*
X45873250Y-62041000D01*
X42984000Y-62041000D01*
X42730000Y-62041000D01*
X42710000Y-62041000D01*
X42710000Y-61787000D01*
X42730000Y-61787000D01*
X42730000Y-60227750D01*
X42984000Y-60227750D01*
X42984000Y-61787000D01*
X45873250Y-61787000D01*
X46032000Y-61628250D01*
X46032000Y-60577690D01*
X45935327Y-60344301D01*
X45756698Y-60165673D01*
X45523309Y-60069000D01*
X43142750Y-60069000D01*
X42984000Y-60227750D01*
X42730000Y-60227750D01*
X42571250Y-60069000D01*
X41350000Y-60069000D01*
X41350000Y-52907150D01*
X50900100Y-52907150D01*
X50900100Y-53322709D01*
X50996773Y-53556098D01*
X51175401Y-53734727D01*
X51408790Y-53831400D01*
X51949350Y-53831400D01*
X52108100Y-53672650D01*
X52108100Y-52748400D01*
X52362100Y-52748400D01*
X52362100Y-53672650D01*
X52520850Y-53831400D01*
X53061410Y-53831400D01*
X53294799Y-53734727D01*
X53473427Y-53556098D01*
X53570100Y-53322709D01*
X53570100Y-52907150D01*
X53411350Y-52748400D01*
X52362100Y-52748400D01*
X52108100Y-52748400D01*
X51058850Y-52748400D01*
X50900100Y-52907150D01*
X41350000Y-52907150D01*
X41350000Y-50953692D01*
X44951614Y-50953692D01*
X45197917Y-51478158D01*
X45626176Y-51868445D01*
X46036210Y-52038276D01*
X46266100Y-51916955D01*
X46266100Y-50723800D01*
X45072281Y-50723800D01*
X44951614Y-50953692D01*
X41350000Y-50953692D01*
X41350000Y-50239908D01*
X44951614Y-50239908D01*
X45072281Y-50469800D01*
X46266100Y-50469800D01*
X46266100Y-49276645D01*
X46520100Y-49276645D01*
X46520100Y-50469800D01*
X46540100Y-50469800D01*
X46540100Y-50723800D01*
X46520100Y-50723800D01*
X46520100Y-51916955D01*
X46749990Y-52038276D01*
X47160024Y-51868445D01*
X47464361Y-51591092D01*
X47484943Y-51694565D01*
X47625291Y-51904609D01*
X47835335Y-52044957D01*
X48083100Y-52094240D01*
X49783100Y-52094240D01*
X50030865Y-52044957D01*
X50125385Y-51981800D01*
X50900100Y-51981800D01*
X50900100Y-52335650D01*
X51058850Y-52494400D01*
X52108100Y-52494400D01*
X52108100Y-52474400D01*
X52362100Y-52474400D01*
X52362100Y-52494400D01*
X53411350Y-52494400D01*
X53570100Y-52335650D01*
X53570100Y-51981800D01*
X55178207Y-51981800D01*
X55582200Y-51901441D01*
X56040329Y-51595329D01*
X56346441Y-51137200D01*
X56350182Y-51118391D01*
X64628800Y-51118391D01*
X64628800Y-51533950D01*
X64787550Y-51692700D01*
X65836800Y-51692700D01*
X65836800Y-50768450D01*
X66090800Y-50768450D01*
X66090800Y-51692700D01*
X67140050Y-51692700D01*
X67298800Y-51533950D01*
X67298800Y-51118391D01*
X67295073Y-51109391D01*
X69264300Y-51109391D01*
X69264300Y-51524950D01*
X69423050Y-51683700D01*
X70472300Y-51683700D01*
X70472300Y-50759450D01*
X70726300Y-50759450D01*
X70726300Y-51683700D01*
X71775550Y-51683700D01*
X71934300Y-51524950D01*
X71934300Y-51109391D01*
X71837627Y-50876002D01*
X71658999Y-50697373D01*
X71425610Y-50600700D01*
X70885050Y-50600700D01*
X70726300Y-50759450D01*
X70472300Y-50759450D01*
X70313550Y-50600700D01*
X69772990Y-50600700D01*
X69539601Y-50697373D01*
X69360973Y-50876002D01*
X69264300Y-51109391D01*
X67295073Y-51109391D01*
X67202127Y-50885002D01*
X67023499Y-50706373D01*
X66790110Y-50609700D01*
X66249550Y-50609700D01*
X66090800Y-50768450D01*
X65836800Y-50768450D01*
X65678050Y-50609700D01*
X65137490Y-50609700D01*
X64904101Y-50706373D01*
X64725473Y-50885002D01*
X64628800Y-51118391D01*
X56350182Y-51118391D01*
X56453933Y-50596800D01*
X56346441Y-50056400D01*
X56040329Y-49598271D01*
X55582200Y-49292159D01*
X55178207Y-49211800D01*
X50125385Y-49211800D01*
X50030865Y-49148643D01*
X49783100Y-49099360D01*
X48083100Y-49099360D01*
X47835335Y-49148643D01*
X47625291Y-49288991D01*
X47484943Y-49499035D01*
X47464361Y-49602508D01*
X47160024Y-49325155D01*
X46749990Y-49155324D01*
X46520100Y-49276645D01*
X46266100Y-49276645D01*
X46036210Y-49155324D01*
X45626176Y-49325155D01*
X45197917Y-49715442D01*
X44951614Y-50239908D01*
X41350000Y-50239908D01*
X41350000Y-47954000D01*
X98858000Y-47954000D01*
X98858000Y-60069000D01*
X98858000Y-60069000D01*
G37*
X98858000Y-60069000D02*
X97509750Y-60069000D01*
X97351000Y-60227750D01*
X97351000Y-61787000D01*
X97371000Y-61787000D01*
X97371000Y-62041000D01*
X97351000Y-62041000D01*
X97351000Y-63600250D01*
X97509750Y-63759000D01*
X98858001Y-63759000D01*
X98858001Y-64501560D01*
X94684000Y-64501560D01*
X94436235Y-64550843D01*
X94226191Y-64691191D01*
X94085843Y-64901235D01*
X94084298Y-64909000D01*
X87644722Y-64909000D01*
X87472520Y-64874747D01*
X87147286Y-64939440D01*
X87092520Y-64939440D01*
X86844755Y-64988723D01*
X86634711Y-65129071D01*
X86572071Y-65222817D01*
X86473992Y-65288352D01*
X86167879Y-65746481D01*
X86060387Y-66286880D01*
X86167879Y-66827279D01*
X86396723Y-67169768D01*
X86403840Y-67176885D01*
X86481111Y-67292529D01*
X86574925Y-67355213D01*
X86634711Y-67444689D01*
X86844755Y-67585037D01*
X87092520Y-67634320D01*
X87118611Y-67634320D01*
X87343233Y-67679000D01*
X87479639Y-67706133D01*
X87616045Y-67679000D01*
X94084298Y-67679000D01*
X94085843Y-67686765D01*
X94226191Y-67896809D01*
X94436235Y-68037157D01*
X94684000Y-68086440D01*
X98858001Y-68086440D01*
X98858001Y-68829000D01*
X97509750Y-68829000D01*
X97351000Y-68987750D01*
X97351000Y-70547000D01*
X97371000Y-70547000D01*
X97371000Y-70801000D01*
X97351000Y-70801000D01*
X97351000Y-72360250D01*
X97509750Y-72519000D01*
X98858001Y-72519000D01*
X98858001Y-76506000D01*
X70902473Y-76506000D01*
X70967577Y-76408565D01*
X70980062Y-76345800D01*
X71257637Y-76345800D01*
X71369420Y-76368035D01*
X71481203Y-76345800D01*
X71501011Y-76341860D01*
X73573349Y-76341860D01*
X73592663Y-76349860D01*
X74047377Y-76349860D01*
X74191310Y-76290241D01*
X74262875Y-76276006D01*
X74323544Y-76235468D01*
X74467478Y-76175849D01*
X74577641Y-76065686D01*
X74638309Y-76025149D01*
X74678846Y-75964481D01*
X74789009Y-75854318D01*
X74848628Y-75710384D01*
X74889166Y-75649715D01*
X74903401Y-75578150D01*
X74963020Y-75434217D01*
X74963020Y-75278424D01*
X74977255Y-75206860D01*
X74963020Y-75135296D01*
X74963020Y-74979503D01*
X74903401Y-74835570D01*
X74889166Y-74764005D01*
X74848628Y-74703336D01*
X74789009Y-74559402D01*
X74678846Y-74449239D01*
X74638309Y-74388571D01*
X74577641Y-74348034D01*
X74467478Y-74237871D01*
X74323544Y-74178252D01*
X74262875Y-74137714D01*
X74191310Y-74123479D01*
X74047377Y-74063860D01*
X73592663Y-74063860D01*
X73573349Y-74071860D01*
X71485142Y-74071860D01*
X71373359Y-74049625D01*
X71241768Y-74075800D01*
X70980062Y-74075800D01*
X70967577Y-74013035D01*
X70827229Y-73802991D01*
X70617185Y-73662643D01*
X70369420Y-73613360D01*
X69880736Y-73613360D01*
X70017577Y-73408565D01*
X70066860Y-73160800D01*
X70066860Y-72686140D01*
X70088566Y-72653655D01*
X70176655Y-72210800D01*
X70150480Y-72079209D01*
X70150480Y-70959750D01*
X94049000Y-70959750D01*
X94049000Y-72010310D01*
X94145673Y-72243699D01*
X94324302Y-72422327D01*
X94557691Y-72519000D01*
X96938250Y-72519000D01*
X97097000Y-72360250D01*
X97097000Y-70801000D01*
X94207750Y-70801000D01*
X94049000Y-70959750D01*
X70150480Y-70959750D01*
X70150480Y-69337690D01*
X94049000Y-69337690D01*
X94049000Y-70388250D01*
X94207750Y-70547000D01*
X97097000Y-70547000D01*
X97097000Y-68987750D01*
X96938250Y-68829000D01*
X94557691Y-68829000D01*
X94324302Y-68925673D01*
X94145673Y-69104301D01*
X94049000Y-69337690D01*
X70150480Y-69337690D01*
X70150480Y-69209682D01*
X70213245Y-69197197D01*
X70423289Y-69056849D01*
X70563637Y-68846805D01*
X70612920Y-68599040D01*
X70612920Y-68110356D01*
X70817715Y-68247197D01*
X71065480Y-68296480D01*
X71540140Y-68296480D01*
X71572625Y-68318186D01*
X71903697Y-68384040D01*
X74642689Y-68384040D01*
X74662003Y-68392040D01*
X75116717Y-68392040D01*
X75260650Y-68332421D01*
X75332215Y-68318186D01*
X75392884Y-68277648D01*
X75536818Y-68218029D01*
X75646981Y-68107866D01*
X75707649Y-68067329D01*
X75748186Y-68006661D01*
X75858349Y-67896498D01*
X75917968Y-67752564D01*
X75958506Y-67691895D01*
X75972741Y-67620330D01*
X76032360Y-67476397D01*
X76032360Y-67320604D01*
X76046595Y-67249040D01*
X76032360Y-67177476D01*
X76032360Y-67021683D01*
X75972741Y-66877750D01*
X75958506Y-66806185D01*
X75917968Y-66745516D01*
X75858349Y-66601582D01*
X75829397Y-66572630D01*
X83917520Y-66572630D01*
X83917520Y-67113189D01*
X84014193Y-67346578D01*
X84192821Y-67525207D01*
X84426210Y-67621880D01*
X84646770Y-67621880D01*
X84805520Y-67463130D01*
X84805520Y-66413880D01*
X85059520Y-66413880D01*
X85059520Y-67463130D01*
X85218270Y-67621880D01*
X85438830Y-67621880D01*
X85672219Y-67525207D01*
X85850847Y-67346578D01*
X85947520Y-67113189D01*
X85947520Y-66572630D01*
X85788770Y-66413880D01*
X85059520Y-66413880D01*
X84805520Y-66413880D01*
X84076270Y-66413880D01*
X83917520Y-66572630D01*
X75829397Y-66572630D01*
X75748186Y-66491419D01*
X75707649Y-66430751D01*
X75646981Y-66390214D01*
X75536818Y-66280051D01*
X75392884Y-66220432D01*
X75332215Y-66179894D01*
X75260650Y-66165659D01*
X75116717Y-66106040D01*
X74662003Y-66106040D01*
X74642689Y-66114040D01*
X71903697Y-66114040D01*
X71572625Y-66179894D01*
X71540140Y-66201600D01*
X71065480Y-66201600D01*
X70817715Y-66250883D01*
X70612920Y-66387724D01*
X70612920Y-65899040D01*
X70563637Y-65651275D01*
X70436212Y-65460571D01*
X83917520Y-65460571D01*
X83917520Y-66001130D01*
X84076270Y-66159880D01*
X84805520Y-66159880D01*
X84805520Y-65110630D01*
X85059520Y-65110630D01*
X85059520Y-66159880D01*
X85788770Y-66159880D01*
X85947520Y-66001130D01*
X85947520Y-65460571D01*
X85850847Y-65227182D01*
X85672219Y-65048553D01*
X85438830Y-64951880D01*
X85218270Y-64951880D01*
X85059520Y-65110630D01*
X84805520Y-65110630D01*
X84646770Y-64951880D01*
X84426210Y-64951880D01*
X84192821Y-65048553D01*
X84014193Y-65227182D01*
X83917520Y-65460571D01*
X70436212Y-65460571D01*
X70423289Y-65441231D01*
X70213245Y-65300883D01*
X69965480Y-65251600D01*
X69490820Y-65251600D01*
X69458335Y-65229894D01*
X69127263Y-65164040D01*
X60761391Y-65164040D01*
X64090042Y-61835390D01*
X64109358Y-61827389D01*
X64219521Y-61717226D01*
X64280189Y-61676689D01*
X64320726Y-61616021D01*
X64430889Y-61505858D01*
X64490508Y-61361924D01*
X64531046Y-61301255D01*
X64545281Y-61229690D01*
X64604900Y-61085757D01*
X64604900Y-60929964D01*
X64614739Y-60880500D01*
X64619135Y-60858401D01*
X64604900Y-60786837D01*
X64604900Y-60631043D01*
X64545281Y-60487110D01*
X64531046Y-60415545D01*
X64490508Y-60354876D01*
X64430889Y-60210942D01*
X64320726Y-60100779D01*
X64280189Y-60040111D01*
X64219521Y-59999574D01*
X64109358Y-59889411D01*
X63965424Y-59829792D01*
X63904755Y-59789254D01*
X63833190Y-59775019D01*
X63689257Y-59715400D01*
X63533463Y-59715400D01*
X63461899Y-59701165D01*
X63390335Y-59715400D01*
X63234543Y-59715400D01*
X63090610Y-59775019D01*
X63019045Y-59789254D01*
X62958376Y-59829792D01*
X62814442Y-59889411D01*
X62704279Y-59999574D01*
X62643611Y-60040111D01*
X62603074Y-60100779D01*
X62492911Y-60210942D01*
X62484910Y-60230258D01*
X58942440Y-63772729D01*
X58942440Y-63374000D01*
X58893157Y-63126235D01*
X58752809Y-62916191D01*
X58714220Y-62890406D01*
X58714220Y-59675322D01*
X58831455Y-59753657D01*
X59079220Y-59802940D01*
X59879220Y-59802940D01*
X60126985Y-59753657D01*
X60337029Y-59613309D01*
X60477377Y-59403265D01*
X60490140Y-59339100D01*
X65850617Y-59339100D01*
X65962400Y-59361335D01*
X66074183Y-59339100D01*
X66405255Y-59273246D01*
X66437740Y-59251540D01*
X66912400Y-59251540D01*
X67160165Y-59202257D01*
X67364960Y-59065416D01*
X67364960Y-59554100D01*
X67414243Y-59801865D01*
X67554591Y-60011909D01*
X67764635Y-60152257D01*
X67827400Y-60164742D01*
X67827400Y-61768829D01*
X67819400Y-61788143D01*
X67819400Y-61943936D01*
X67805165Y-62015500D01*
X67819400Y-62087064D01*
X67819400Y-62242857D01*
X67879019Y-62386790D01*
X67893254Y-62458355D01*
X67933792Y-62519024D01*
X67993411Y-62662958D01*
X68103574Y-62773121D01*
X68144111Y-62833789D01*
X68204779Y-62874326D01*
X68314942Y-62984489D01*
X68458876Y-63044108D01*
X68519545Y-63084646D01*
X68591110Y-63098881D01*
X68735043Y-63158500D01*
X68890836Y-63158500D01*
X68962400Y-63172735D01*
X69033964Y-63158500D01*
X69189757Y-63158500D01*
X69333690Y-63098881D01*
X69405255Y-63084646D01*
X69465924Y-63044108D01*
X69609858Y-62984489D01*
X69720021Y-62874326D01*
X69780689Y-62833789D01*
X69821226Y-62773121D01*
X69931389Y-62662958D01*
X69991008Y-62519024D01*
X70031546Y-62458355D01*
X70045781Y-62386790D01*
X70105400Y-62242857D01*
X70105400Y-62087064D01*
X70119635Y-62015500D01*
X70105400Y-61943936D01*
X70105400Y-61788143D01*
X70097400Y-61768829D01*
X70097400Y-60164742D01*
X70160165Y-60152257D01*
X70370209Y-60011909D01*
X70510557Y-59801865D01*
X70559840Y-59554100D01*
X70559840Y-58754100D01*
X70510557Y-58506335D01*
X70432222Y-58389100D01*
X79537957Y-58389100D01*
X79649740Y-58411335D01*
X79761523Y-58389100D01*
X79837939Y-58373900D01*
X82308469Y-58373900D01*
X83797520Y-59862952D01*
X83797521Y-62968663D01*
X83863375Y-63299735D01*
X83905080Y-63362151D01*
X83905080Y-63556880D01*
X83954363Y-63804645D01*
X84094711Y-64014689D01*
X84304755Y-64155037D01*
X84552520Y-64204320D01*
X85312520Y-64204320D01*
X85560285Y-64155037D01*
X85567520Y-64150203D01*
X85574755Y-64155037D01*
X85822520Y-64204320D01*
X86582520Y-64204320D01*
X86830285Y-64155037D01*
X86837520Y-64150203D01*
X86844755Y-64155037D01*
X87092520Y-64204320D01*
X87852520Y-64204320D01*
X88100285Y-64155037D01*
X88310329Y-64014689D01*
X88450677Y-63804645D01*
X88499960Y-63556880D01*
X88499960Y-63362152D01*
X88541666Y-63299735D01*
X88607520Y-62968663D01*
X88607520Y-62199750D01*
X94049000Y-62199750D01*
X94049000Y-63250310D01*
X94145673Y-63483699D01*
X94324302Y-63662327D01*
X94557691Y-63759000D01*
X96938250Y-63759000D01*
X97097000Y-63600250D01*
X97097000Y-62041000D01*
X94207750Y-62041000D01*
X94049000Y-62199750D01*
X88607520Y-62199750D01*
X88607520Y-61627011D01*
X89656841Y-60577690D01*
X94049000Y-60577690D01*
X94049000Y-61628250D01*
X94207750Y-61787000D01*
X97097000Y-61787000D01*
X97097000Y-60227750D01*
X96938250Y-60069000D01*
X94557691Y-60069000D01*
X94324302Y-60165673D01*
X94145673Y-60344301D01*
X94049000Y-60577690D01*
X89656841Y-60577690D01*
X90890882Y-59343650D01*
X90910198Y-59335649D01*
X91020361Y-59225486D01*
X91081029Y-59184949D01*
X91121566Y-59124281D01*
X91231729Y-59014118D01*
X91291348Y-58870184D01*
X91331886Y-58809515D01*
X91346121Y-58737950D01*
X91405740Y-58594017D01*
X91405740Y-58438224D01*
X91419975Y-58366660D01*
X91405740Y-58295096D01*
X91405740Y-58139303D01*
X91346121Y-57995370D01*
X91331886Y-57923805D01*
X91291348Y-57863136D01*
X91231729Y-57719202D01*
X91121566Y-57609039D01*
X91081029Y-57548371D01*
X91020361Y-57507834D01*
X90910198Y-57397671D01*
X90766264Y-57338052D01*
X90705595Y-57297514D01*
X90634030Y-57283279D01*
X90490097Y-57223660D01*
X90334304Y-57223660D01*
X90262740Y-57209425D01*
X90191176Y-57223660D01*
X90035383Y-57223660D01*
X89891450Y-57283279D01*
X89819885Y-57297514D01*
X89759216Y-57338052D01*
X89615282Y-57397671D01*
X89505119Y-57507834D01*
X89444451Y-57548371D01*
X89403914Y-57609039D01*
X89293751Y-57719202D01*
X89285750Y-57738518D01*
X87337520Y-59686749D01*
X87337520Y-56662611D01*
X87345520Y-56643297D01*
X87345520Y-56487504D01*
X87359755Y-56415940D01*
X87345520Y-56344376D01*
X87345520Y-56188583D01*
X87285901Y-56044650D01*
X87271666Y-55973085D01*
X87231128Y-55912416D01*
X87171509Y-55768482D01*
X87061346Y-55658319D01*
X87020809Y-55597651D01*
X86960141Y-55557114D01*
X86849978Y-55446951D01*
X86706044Y-55387332D01*
X86645375Y-55346794D01*
X86573810Y-55332559D01*
X86429877Y-55272940D01*
X86274084Y-55272940D01*
X86202520Y-55258705D01*
X86130956Y-55272940D01*
X85975163Y-55272940D01*
X85831230Y-55332559D01*
X85759665Y-55346794D01*
X85698996Y-55387332D01*
X85555062Y-55446951D01*
X85444899Y-55557114D01*
X85384231Y-55597651D01*
X85343694Y-55658319D01*
X85233531Y-55768482D01*
X85173912Y-55912416D01*
X85133374Y-55973085D01*
X85119139Y-56044650D01*
X85059520Y-56188583D01*
X85059520Y-56344376D01*
X85045285Y-56415940D01*
X85059520Y-56487504D01*
X85059520Y-56643297D01*
X85067521Y-56662613D01*
X85067521Y-57922689D01*
X83660213Y-56515382D01*
X83596889Y-56420611D01*
X83221455Y-56169754D01*
X82890383Y-56103900D01*
X82778600Y-56081665D01*
X82666817Y-56103900D01*
X79776722Y-56103900D01*
X79664939Y-56081665D01*
X79476741Y-56119100D01*
X68850617Y-56119100D01*
X68519545Y-56184954D01*
X68487060Y-56206660D01*
X68012400Y-56206660D01*
X67764635Y-56255943D01*
X67554591Y-56396291D01*
X67414243Y-56606335D01*
X67364960Y-56854100D01*
X67364960Y-57342784D01*
X67160165Y-57205943D01*
X67097400Y-57193458D01*
X67097400Y-55004700D01*
X69790708Y-55004700D01*
X69805864Y-55014827D01*
X70149299Y-55083140D01*
X71049301Y-55083140D01*
X71392736Y-55014827D01*
X71683886Y-54820286D01*
X71878427Y-54529136D01*
X71946740Y-54185701D01*
X71946740Y-53535699D01*
X71878427Y-53192264D01*
X71683886Y-52901114D01*
X71682703Y-52900323D01*
X71837627Y-52745398D01*
X71934300Y-52512009D01*
X71934300Y-52096450D01*
X71775550Y-51937700D01*
X70726300Y-51937700D01*
X70726300Y-51957700D01*
X70472300Y-51957700D01*
X70472300Y-51937700D01*
X69423050Y-51937700D01*
X69264300Y-52096450D01*
X69264300Y-52512009D01*
X69356542Y-52734700D01*
X67210286Y-52734700D01*
X67298800Y-52521009D01*
X67298800Y-52105450D01*
X67140050Y-51946700D01*
X66090800Y-51946700D01*
X66090800Y-51966700D01*
X65836800Y-51966700D01*
X65836800Y-51946700D01*
X64787550Y-51946700D01*
X64628800Y-52105450D01*
X64628800Y-52521009D01*
X64725473Y-52754398D01*
X64880397Y-52909323D01*
X64879214Y-52910114D01*
X64684673Y-53201264D01*
X64616360Y-53544699D01*
X64616360Y-54194701D01*
X64684673Y-54538136D01*
X64827401Y-54751742D01*
X64827400Y-57069100D01*
X60489583Y-57069100D01*
X60477377Y-57007735D01*
X60337029Y-56797691D01*
X60126985Y-56657343D01*
X59879220Y-56608060D01*
X59390536Y-56608060D01*
X59527377Y-56403265D01*
X59576660Y-56155500D01*
X59576660Y-55680840D01*
X59598366Y-55648355D01*
X59664220Y-55317283D01*
X59664220Y-53387741D01*
X59669300Y-53362202D01*
X59669300Y-52786571D01*
X59677300Y-52767257D01*
X59677300Y-52312543D01*
X59619788Y-52173696D01*
X59606562Y-52104646D01*
X59604263Y-52101152D01*
X59603446Y-52097045D01*
X59562908Y-52036376D01*
X59503289Y-51892442D01*
X59397021Y-51786174D01*
X59358377Y-51727441D01*
X59354915Y-51725092D01*
X59352589Y-51721611D01*
X59295851Y-51683700D01*
X59291921Y-51681074D01*
X59181758Y-51570911D01*
X59042912Y-51513399D01*
X58984733Y-51473925D01*
X58980636Y-51473080D01*
X58977155Y-51470754D01*
X58905590Y-51456519D01*
X58761657Y-51396900D01*
X58611370Y-51396900D01*
X58542514Y-51382695D01*
X58538406Y-51383482D01*
X58534300Y-51382665D01*
X58462736Y-51396900D01*
X58306943Y-51396900D01*
X58168097Y-51454412D01*
X58099046Y-51467638D01*
X58095552Y-51469937D01*
X58091445Y-51470754D01*
X58030776Y-51511292D01*
X57886842Y-51570911D01*
X57780574Y-51677179D01*
X57721841Y-51715823D01*
X57719492Y-51719285D01*
X57716011Y-51721611D01*
X57675474Y-51782279D01*
X57565311Y-51892442D01*
X57507799Y-52031288D01*
X57468325Y-52089467D01*
X57467480Y-52093564D01*
X57465154Y-52097045D01*
X57450919Y-52168610D01*
X57391300Y-52312543D01*
X57391300Y-52767257D01*
X57397551Y-52782349D01*
X57395014Y-53139729D01*
X57394221Y-53143717D01*
X57394221Y-53251467D01*
X57393456Y-53359223D01*
X57394221Y-53363216D01*
X57394220Y-55317282D01*
X57460074Y-55648354D01*
X57481780Y-55680839D01*
X57481780Y-56155500D01*
X57531063Y-56403265D01*
X57667904Y-56608060D01*
X57179220Y-56608060D01*
X56931455Y-56657343D01*
X56721411Y-56797691D01*
X56581063Y-57007735D01*
X56531780Y-57255500D01*
X56531780Y-57730161D01*
X56510074Y-57762646D01*
X56444220Y-58093718D01*
X56444221Y-62911494D01*
X56437191Y-62916191D01*
X56296843Y-63126235D01*
X56247560Y-63374000D01*
X56247560Y-64134000D01*
X56296843Y-64381765D01*
X56301677Y-64389000D01*
X56296843Y-64396235D01*
X56247560Y-64644000D01*
X56247560Y-65404000D01*
X56296843Y-65651765D01*
X56301677Y-65659000D01*
X56296843Y-65666235D01*
X56247560Y-65914000D01*
X56247560Y-66674000D01*
X56296843Y-66921765D01*
X56437191Y-67131809D01*
X56647235Y-67272157D01*
X56895000Y-67321440D01*
X57087225Y-67321440D01*
X57157185Y-67368186D01*
X57488257Y-67434040D01*
X57600040Y-67456275D01*
X57711823Y-67434040D01*
X67545658Y-67434040D01*
X67467323Y-67551275D01*
X67418040Y-67799040D01*
X67418040Y-68599040D01*
X67467323Y-68846805D01*
X67607671Y-69056849D01*
X67817715Y-69197197D01*
X67880480Y-69209682D01*
X67880481Y-71075800D01*
X65474370Y-71075800D01*
X65436436Y-71050453D01*
X65093001Y-70982140D01*
X64192999Y-70982140D01*
X63849564Y-71050453D01*
X63820939Y-71069580D01*
X61093721Y-71069580D01*
X61065096Y-71050453D01*
X60721661Y-70982140D01*
X59821659Y-70982140D01*
X59478224Y-71050453D01*
X59187074Y-71244994D01*
X58992533Y-71536144D01*
X58924220Y-71879579D01*
X58924220Y-72529581D01*
X58992533Y-72873016D01*
X59187074Y-73164166D01*
X59188257Y-73164957D01*
X59033333Y-73319882D01*
X58936660Y-73553271D01*
X58936660Y-73968830D01*
X59095410Y-74127580D01*
X60144660Y-74127580D01*
X60144660Y-74107580D01*
X60398660Y-74107580D01*
X60398660Y-74127580D01*
X61447910Y-74127580D01*
X61606660Y-73968830D01*
X61606660Y-73553271D01*
X61518146Y-73339580D01*
X63396514Y-73339580D01*
X63308000Y-73553271D01*
X63308000Y-73968830D01*
X63466750Y-74127580D01*
X64516000Y-74127580D01*
X64516000Y-74107580D01*
X64770000Y-74107580D01*
X64770000Y-74127580D01*
X64790000Y-74127580D01*
X64790000Y-74381580D01*
X64770000Y-74381580D01*
X64770000Y-75305830D01*
X64928750Y-75464580D01*
X65170965Y-75464580D01*
X65219639Y-75582090D01*
X65233874Y-75653655D01*
X65274412Y-75714324D01*
X65334031Y-75858258D01*
X65444194Y-75968421D01*
X65484731Y-76029089D01*
X65545399Y-76069626D01*
X65655562Y-76179789D01*
X65799496Y-76239408D01*
X65860165Y-76279946D01*
X65931730Y-76294181D01*
X66075663Y-76353800D01*
X66530377Y-76353800D01*
X66549691Y-76345800D01*
X67058778Y-76345800D01*
X67071263Y-76408565D01*
X67136367Y-76506000D01*
X41350000Y-76506000D01*
X41350000Y-74540330D01*
X58936660Y-74540330D01*
X58936660Y-74955889D01*
X59033333Y-75189278D01*
X59211961Y-75367907D01*
X59445350Y-75464580D01*
X59985910Y-75464580D01*
X60144660Y-75305830D01*
X60144660Y-74381580D01*
X60398660Y-74381580D01*
X60398660Y-75305830D01*
X60557410Y-75464580D01*
X61097970Y-75464580D01*
X61331359Y-75367907D01*
X61509987Y-75189278D01*
X61606660Y-74955889D01*
X61606660Y-74540330D01*
X63308000Y-74540330D01*
X63308000Y-74955889D01*
X63404673Y-75189278D01*
X63583301Y-75367907D01*
X63816690Y-75464580D01*
X64357250Y-75464580D01*
X64516000Y-75305830D01*
X64516000Y-74381580D01*
X63466750Y-74381580D01*
X63308000Y-74540330D01*
X61606660Y-74540330D01*
X61447910Y-74381580D01*
X60398660Y-74381580D01*
X60144660Y-74381580D01*
X59095410Y-74381580D01*
X58936660Y-74540330D01*
X41350000Y-74540330D01*
X41350000Y-72519000D01*
X42571250Y-72519000D01*
X42730000Y-72360250D01*
X42730000Y-70801000D01*
X42984000Y-70801000D01*
X42984000Y-72360250D01*
X43142750Y-72519000D01*
X45523309Y-72519000D01*
X45756698Y-72422327D01*
X45935327Y-72243699D01*
X46032000Y-72010310D01*
X46032000Y-70959750D01*
X45873250Y-70801000D01*
X42984000Y-70801000D01*
X42730000Y-70801000D01*
X42710000Y-70801000D01*
X42710000Y-70547000D01*
X42730000Y-70547000D01*
X42730000Y-68987750D01*
X42984000Y-68987750D01*
X42984000Y-70547000D01*
X45873250Y-70547000D01*
X46032000Y-70388250D01*
X46032000Y-69337690D01*
X45935327Y-69104301D01*
X45756698Y-68925673D01*
X45523309Y-68829000D01*
X43142750Y-68829000D01*
X42984000Y-68987750D01*
X42730000Y-68987750D01*
X42571250Y-68829000D01*
X41350000Y-68829000D01*
X41350000Y-68086440D01*
X45397000Y-68086440D01*
X45644765Y-68037157D01*
X45854809Y-67896809D01*
X45995157Y-67686765D01*
X45996702Y-67679000D01*
X54301407Y-67679000D01*
X54705400Y-67598641D01*
X55163529Y-67292529D01*
X55229065Y-67194447D01*
X55322809Y-67131809D01*
X55463157Y-66921765D01*
X55512440Y-66674000D01*
X55512440Y-66619234D01*
X55577133Y-66294000D01*
X55512440Y-65968766D01*
X55512440Y-65914000D01*
X55463157Y-65666235D01*
X55322809Y-65456191D01*
X55229065Y-65393553D01*
X55163529Y-65295471D01*
X54705400Y-64989359D01*
X54301407Y-64909000D01*
X45996702Y-64909000D01*
X45995157Y-64901235D01*
X45854809Y-64691191D01*
X45644765Y-64550843D01*
X45397000Y-64501560D01*
X41350000Y-64501560D01*
X41350000Y-64039750D01*
X52830000Y-64039750D01*
X52830000Y-64260310D01*
X52926673Y-64493699D01*
X53105302Y-64672327D01*
X53338691Y-64769000D01*
X53879250Y-64769000D01*
X54038000Y-64610250D01*
X54038000Y-63881000D01*
X54292000Y-63881000D01*
X54292000Y-64610250D01*
X54450750Y-64769000D01*
X54991309Y-64769000D01*
X55224698Y-64672327D01*
X55403327Y-64493699D01*
X55500000Y-64260310D01*
X55500000Y-64039750D01*
X55341250Y-63881000D01*
X54292000Y-63881000D01*
X54038000Y-63881000D01*
X52988750Y-63881000D01*
X52830000Y-64039750D01*
X41350000Y-64039750D01*
X41350000Y-63759000D01*
X42571250Y-63759000D01*
X42730000Y-63600250D01*
X42730000Y-62041000D01*
X42984000Y-62041000D01*
X42984000Y-63600250D01*
X43142750Y-63759000D01*
X45523309Y-63759000D01*
X45756698Y-63662327D01*
X45935327Y-63483699D01*
X46032000Y-63250310D01*
X46032000Y-63247690D01*
X52830000Y-63247690D01*
X52830000Y-63468250D01*
X52988750Y-63627000D01*
X54038000Y-63627000D01*
X54038000Y-62897750D01*
X54292000Y-62897750D01*
X54292000Y-63627000D01*
X55341250Y-63627000D01*
X55500000Y-63468250D01*
X55500000Y-63247690D01*
X55403327Y-63014301D01*
X55224698Y-62835673D01*
X54991309Y-62739000D01*
X54450750Y-62739000D01*
X54292000Y-62897750D01*
X54038000Y-62897750D01*
X53879250Y-62739000D01*
X53338691Y-62739000D01*
X53105302Y-62835673D01*
X52926673Y-63014301D01*
X52830000Y-63247690D01*
X46032000Y-63247690D01*
X46032000Y-62199750D01*
X45873250Y-62041000D01*
X42984000Y-62041000D01*
X42730000Y-62041000D01*
X42710000Y-62041000D01*
X42710000Y-61787000D01*
X42730000Y-61787000D01*
X42730000Y-60227750D01*
X42984000Y-60227750D01*
X42984000Y-61787000D01*
X45873250Y-61787000D01*
X46032000Y-61628250D01*
X46032000Y-60577690D01*
X45935327Y-60344301D01*
X45756698Y-60165673D01*
X45523309Y-60069000D01*
X43142750Y-60069000D01*
X42984000Y-60227750D01*
X42730000Y-60227750D01*
X42571250Y-60069000D01*
X41350000Y-60069000D01*
X41350000Y-52907150D01*
X50900100Y-52907150D01*
X50900100Y-53322709D01*
X50996773Y-53556098D01*
X51175401Y-53734727D01*
X51408790Y-53831400D01*
X51949350Y-53831400D01*
X52108100Y-53672650D01*
X52108100Y-52748400D01*
X52362100Y-52748400D01*
X52362100Y-53672650D01*
X52520850Y-53831400D01*
X53061410Y-53831400D01*
X53294799Y-53734727D01*
X53473427Y-53556098D01*
X53570100Y-53322709D01*
X53570100Y-52907150D01*
X53411350Y-52748400D01*
X52362100Y-52748400D01*
X52108100Y-52748400D01*
X51058850Y-52748400D01*
X50900100Y-52907150D01*
X41350000Y-52907150D01*
X41350000Y-50953692D01*
X44951614Y-50953692D01*
X45197917Y-51478158D01*
X45626176Y-51868445D01*
X46036210Y-52038276D01*
X46266100Y-51916955D01*
X46266100Y-50723800D01*
X45072281Y-50723800D01*
X44951614Y-50953692D01*
X41350000Y-50953692D01*
X41350000Y-50239908D01*
X44951614Y-50239908D01*
X45072281Y-50469800D01*
X46266100Y-50469800D01*
X46266100Y-49276645D01*
X46520100Y-49276645D01*
X46520100Y-50469800D01*
X46540100Y-50469800D01*
X46540100Y-50723800D01*
X46520100Y-50723800D01*
X46520100Y-51916955D01*
X46749990Y-52038276D01*
X47160024Y-51868445D01*
X47464361Y-51591092D01*
X47484943Y-51694565D01*
X47625291Y-51904609D01*
X47835335Y-52044957D01*
X48083100Y-52094240D01*
X49783100Y-52094240D01*
X50030865Y-52044957D01*
X50125385Y-51981800D01*
X50900100Y-51981800D01*
X50900100Y-52335650D01*
X51058850Y-52494400D01*
X52108100Y-52494400D01*
X52108100Y-52474400D01*
X52362100Y-52474400D01*
X52362100Y-52494400D01*
X53411350Y-52494400D01*
X53570100Y-52335650D01*
X53570100Y-51981800D01*
X55178207Y-51981800D01*
X55582200Y-51901441D01*
X56040329Y-51595329D01*
X56346441Y-51137200D01*
X56350182Y-51118391D01*
X64628800Y-51118391D01*
X64628800Y-51533950D01*
X64787550Y-51692700D01*
X65836800Y-51692700D01*
X65836800Y-50768450D01*
X66090800Y-50768450D01*
X66090800Y-51692700D01*
X67140050Y-51692700D01*
X67298800Y-51533950D01*
X67298800Y-51118391D01*
X67295073Y-51109391D01*
X69264300Y-51109391D01*
X69264300Y-51524950D01*
X69423050Y-51683700D01*
X70472300Y-51683700D01*
X70472300Y-50759450D01*
X70726300Y-50759450D01*
X70726300Y-51683700D01*
X71775550Y-51683700D01*
X71934300Y-51524950D01*
X71934300Y-51109391D01*
X71837627Y-50876002D01*
X71658999Y-50697373D01*
X71425610Y-50600700D01*
X70885050Y-50600700D01*
X70726300Y-50759450D01*
X70472300Y-50759450D01*
X70313550Y-50600700D01*
X69772990Y-50600700D01*
X69539601Y-50697373D01*
X69360973Y-50876002D01*
X69264300Y-51109391D01*
X67295073Y-51109391D01*
X67202127Y-50885002D01*
X67023499Y-50706373D01*
X66790110Y-50609700D01*
X66249550Y-50609700D01*
X66090800Y-50768450D01*
X65836800Y-50768450D01*
X65678050Y-50609700D01*
X65137490Y-50609700D01*
X64904101Y-50706373D01*
X64725473Y-50885002D01*
X64628800Y-51118391D01*
X56350182Y-51118391D01*
X56453933Y-50596800D01*
X56346441Y-50056400D01*
X56040329Y-49598271D01*
X55582200Y-49292159D01*
X55178207Y-49211800D01*
X50125385Y-49211800D01*
X50030865Y-49148643D01*
X49783100Y-49099360D01*
X48083100Y-49099360D01*
X47835335Y-49148643D01*
X47625291Y-49288991D01*
X47484943Y-49499035D01*
X47464361Y-49602508D01*
X47160024Y-49325155D01*
X46749990Y-49155324D01*
X46520100Y-49276645D01*
X46266100Y-49276645D01*
X46036210Y-49155324D01*
X45626176Y-49325155D01*
X45197917Y-49715442D01*
X44951614Y-50239908D01*
X41350000Y-50239908D01*
X41350000Y-47954000D01*
X98858000Y-47954000D01*
X98858000Y-60069000D01*
G04 #@! TD*
M02*
