G04 #@! TF.GenerationSoftware,KiCad,Pcbnew,(6.0.0-rc1-dev-305-gf0b8b21)*
G04 #@! TF.CreationDate,2020-01-21T15:09:04-08:00*
G04 #@! TF.ProjectId,3rd Order Inverse Chebyshev,337264204F7264657220496E76657273,rev?*
G04 #@! TF.SameCoordinates,Original*
G04 #@! TF.FileFunction,Legend,Top*
G04 #@! TF.FilePolarity,Positive*
%FSLAX46Y46*%
G04 Gerber Fmt 4.6, Leading zero omitted, Abs format (unit mm)*
G04 Created by KiCad (PCBNEW (6.0.0-rc1-dev-305-gf0b8b21)) date Tuesday, January 21, 2020 at 03:09:04 PM*
%MOMM*%
%LPD*%
G01*
G04 APERTURE LIST*
%ADD10C,0.120000*%
%ADD11C,0.150000*%
G04 APERTURE END LIST*
D10*
G04 #@! TO.C,C1*
X128354000Y-44061748D02*
X128354000Y-44584252D01*
X126934000Y-44061748D02*
X126934000Y-44584252D01*
G04 #@! TO.C,C2*
X129982000Y-44061748D02*
X129982000Y-44584252D01*
X131402000Y-44061748D02*
X131402000Y-44584252D01*
D11*
G04 #@! TO.C,C3*
G36*
X135445500Y-44807124D02*
X133286500Y-44807124D01*
X133286500Y-47601124D01*
X135445500Y-47601124D01*
X135445500Y-44807124D01*
G37*
X135445500Y-44807124D02*
X133286500Y-44807124D01*
X133286500Y-47601124D01*
X135445500Y-47601124D01*
X135445500Y-44807124D01*
G04 #@! TO.C,C5*
G36*
X145772124Y-42227500D02*
X145772124Y-44386500D01*
X148566124Y-44386500D01*
X148566124Y-42227500D01*
X145772124Y-42227500D01*
G37*
X145772124Y-42227500D02*
X145772124Y-44386500D01*
X148566124Y-44386500D01*
X148566124Y-42227500D01*
X145772124Y-42227500D01*
G04 #@! TO.C,C7*
G36*
X155838652Y-42227500D02*
X155838652Y-44386500D01*
X158632652Y-44386500D01*
X158632652Y-42227500D01*
X155838652Y-42227500D01*
G37*
X155838652Y-42227500D02*
X155838652Y-44386500D01*
X158632652Y-44386500D01*
X158632652Y-42227500D01*
X155838652Y-42227500D01*
D10*
G04 #@! TO.C,C8*
X175589000Y-44061748D02*
X175589000Y-44584252D01*
X174169000Y-44061748D02*
X174169000Y-44584252D01*
G04 #@! TO.C,C9*
X164390000Y-44070748D02*
X164390000Y-44593252D01*
X165810000Y-44070748D02*
X165810000Y-44593252D01*
D11*
G04 #@! TO.C,C10*
G36*
X172656500Y-44807124D02*
X170497500Y-44807124D01*
X170497500Y-47601124D01*
X172656500Y-47601124D01*
X172656500Y-44807124D01*
G37*
X172656500Y-44807124D02*
X170497500Y-44807124D01*
X170497500Y-47601124D01*
X172656500Y-47601124D01*
X172656500Y-44807124D01*
D10*
G04 #@! TO.C,J1*
X124876000Y-43180000D02*
X125376000Y-43430000D01*
X125376000Y-43430000D02*
X125376000Y-42930000D01*
X125376000Y-42930000D02*
X124876000Y-43180000D01*
G04 #@! TO.C,J2*
X176884000Y-43430000D02*
X177384000Y-43180000D01*
X176884000Y-42930000D02*
X176884000Y-43430000D01*
X177384000Y-43180000D02*
X176884000Y-42930000D01*
G04 #@! TO.C,L1*
X138505000Y-44061748D02*
X138505000Y-44584252D01*
X137085000Y-44061748D02*
X137085000Y-44584252D01*
G04 #@! TO.C,L2*
X147049748Y-33349000D02*
X147572252Y-33349000D01*
X147049748Y-31929000D02*
X147572252Y-31929000D01*
G04 #@! TO.C,L3*
X147049748Y-36524000D02*
X147572252Y-36524000D01*
X147049748Y-35104000D02*
X147572252Y-35104000D01*
G04 #@! TO.C,L4*
X157209748Y-32056000D02*
X157732252Y-32056000D01*
X157209748Y-33476000D02*
X157732252Y-33476000D01*
G04 #@! TO.C,L5*
X157218748Y-36651000D02*
X157741252Y-36651000D01*
X157218748Y-35231000D02*
X157741252Y-35231000D01*
G04 #@! TO.C,L6*
X169230000Y-44061748D02*
X169230000Y-44584252D01*
X167810000Y-44061748D02*
X167810000Y-44584252D01*
G04 #@! TO.C,C4*
X147595252Y-38152000D02*
X147072748Y-38152000D01*
X147595252Y-39572000D02*
X147072748Y-39572000D01*
G04 #@! TO.C,C6*
X157741252Y-39572000D02*
X157218748Y-39572000D01*
X157741252Y-38152000D02*
X157218748Y-38152000D01*
G04 #@! TO.C,C1*
D11*
X129651142Y-44489666D02*
X129698761Y-44537285D01*
X129746380Y-44680142D01*
X129746380Y-44775380D01*
X129698761Y-44918238D01*
X129603523Y-45013476D01*
X129508285Y-45061095D01*
X129317809Y-45108714D01*
X129174952Y-45108714D01*
X128984476Y-45061095D01*
X128889238Y-45013476D01*
X128794000Y-44918238D01*
X128746380Y-44775380D01*
X128746380Y-44680142D01*
X128794000Y-44537285D01*
X128841619Y-44489666D01*
X129746380Y-43537285D02*
X129746380Y-44108714D01*
X129746380Y-43823000D02*
X128746380Y-43823000D01*
X128889238Y-43918238D01*
X128984476Y-44013476D01*
X129032095Y-44108714D01*
G04 #@! TO.C,C2*
X132699142Y-44489666D02*
X132746761Y-44537285D01*
X132794380Y-44680142D01*
X132794380Y-44775380D01*
X132746761Y-44918238D01*
X132651523Y-45013476D01*
X132556285Y-45061095D01*
X132365809Y-45108714D01*
X132222952Y-45108714D01*
X132032476Y-45061095D01*
X131937238Y-45013476D01*
X131842000Y-44918238D01*
X131794380Y-44775380D01*
X131794380Y-44680142D01*
X131842000Y-44537285D01*
X131889619Y-44489666D01*
X131889619Y-44108714D02*
X131842000Y-44061095D01*
X131794380Y-43965857D01*
X131794380Y-43727761D01*
X131842000Y-43632523D01*
X131889619Y-43584904D01*
X131984857Y-43537285D01*
X132080095Y-43537285D01*
X132222952Y-43584904D01*
X132794380Y-44156333D01*
X132794380Y-43537285D01*
G04 #@! TO.C,C3*
X127103142Y-45989790D02*
X127150761Y-46037409D01*
X127198380Y-46180266D01*
X127198380Y-46275504D01*
X127150761Y-46418362D01*
X127055523Y-46513600D01*
X126960285Y-46561219D01*
X126769809Y-46608838D01*
X126626952Y-46608838D01*
X126436476Y-46561219D01*
X126341238Y-46513600D01*
X126246000Y-46418362D01*
X126198380Y-46275504D01*
X126198380Y-46180266D01*
X126246000Y-46037409D01*
X126293619Y-45989790D01*
X126198380Y-45656457D02*
X126198380Y-45037409D01*
X126579333Y-45370743D01*
X126579333Y-45227885D01*
X126626952Y-45132647D01*
X126674571Y-45085028D01*
X126769809Y-45037409D01*
X127007904Y-45037409D01*
X127103142Y-45085028D01*
X127150761Y-45132647D01*
X127198380Y-45227885D01*
X127198380Y-45513600D01*
X127150761Y-45608838D01*
X127103142Y-45656457D01*
G04 #@! TO.C,C5*
X146621457Y-51284142D02*
X146573838Y-51331761D01*
X146430981Y-51379380D01*
X146335743Y-51379380D01*
X146192885Y-51331761D01*
X146097647Y-51236523D01*
X146050028Y-51141285D01*
X146002409Y-50950809D01*
X146002409Y-50807952D01*
X146050028Y-50617476D01*
X146097647Y-50522238D01*
X146192885Y-50427000D01*
X146335743Y-50379380D01*
X146430981Y-50379380D01*
X146573838Y-50427000D01*
X146621457Y-50474619D01*
X147526219Y-50379380D02*
X147050028Y-50379380D01*
X147002409Y-50855571D01*
X147050028Y-50807952D01*
X147145266Y-50760333D01*
X147383362Y-50760333D01*
X147478600Y-50807952D01*
X147526219Y-50855571D01*
X147573838Y-50950809D01*
X147573838Y-51188904D01*
X147526219Y-51284142D01*
X147478600Y-51331761D01*
X147383362Y-51379380D01*
X147145266Y-51379380D01*
X147050028Y-51331761D01*
X147002409Y-51284142D01*
G04 #@! TO.C,C7*
X156687985Y-51284142D02*
X156640366Y-51331761D01*
X156497509Y-51379380D01*
X156402271Y-51379380D01*
X156259413Y-51331761D01*
X156164175Y-51236523D01*
X156116556Y-51141285D01*
X156068937Y-50950809D01*
X156068937Y-50807952D01*
X156116556Y-50617476D01*
X156164175Y-50522238D01*
X156259413Y-50427000D01*
X156402271Y-50379380D01*
X156497509Y-50379380D01*
X156640366Y-50427000D01*
X156687985Y-50474619D01*
X157021318Y-50379380D02*
X157687985Y-50379380D01*
X157259413Y-51379380D01*
G04 #@! TO.C,C8*
X176886142Y-44489666D02*
X176933761Y-44537285D01*
X176981380Y-44680142D01*
X176981380Y-44775380D01*
X176933761Y-44918238D01*
X176838523Y-45013476D01*
X176743285Y-45061095D01*
X176552809Y-45108714D01*
X176409952Y-45108714D01*
X176219476Y-45061095D01*
X176124238Y-45013476D01*
X176029000Y-44918238D01*
X175981380Y-44775380D01*
X175981380Y-44680142D01*
X176029000Y-44537285D01*
X176076619Y-44489666D01*
X176409952Y-43918238D02*
X176362333Y-44013476D01*
X176314714Y-44061095D01*
X176219476Y-44108714D01*
X176171857Y-44108714D01*
X176076619Y-44061095D01*
X176029000Y-44013476D01*
X175981380Y-43918238D01*
X175981380Y-43727761D01*
X176029000Y-43632523D01*
X176076619Y-43584904D01*
X176171857Y-43537285D01*
X176219476Y-43537285D01*
X176314714Y-43584904D01*
X176362333Y-43632523D01*
X176409952Y-43727761D01*
X176409952Y-43918238D01*
X176457571Y-44013476D01*
X176505190Y-44061095D01*
X176600428Y-44108714D01*
X176790904Y-44108714D01*
X176886142Y-44061095D01*
X176933761Y-44013476D01*
X176981380Y-43918238D01*
X176981380Y-43727761D01*
X176933761Y-43632523D01*
X176886142Y-43584904D01*
X176790904Y-43537285D01*
X176600428Y-43537285D01*
X176505190Y-43584904D01*
X176457571Y-43632523D01*
X176409952Y-43727761D01*
G04 #@! TO.C,C9*
X167107142Y-44498666D02*
X167154761Y-44546285D01*
X167202380Y-44689142D01*
X167202380Y-44784380D01*
X167154761Y-44927238D01*
X167059523Y-45022476D01*
X166964285Y-45070095D01*
X166773809Y-45117714D01*
X166630952Y-45117714D01*
X166440476Y-45070095D01*
X166345238Y-45022476D01*
X166250000Y-44927238D01*
X166202380Y-44784380D01*
X166202380Y-44689142D01*
X166250000Y-44546285D01*
X166297619Y-44498666D01*
X167202380Y-44022476D02*
X167202380Y-43832000D01*
X167154761Y-43736761D01*
X167107142Y-43689142D01*
X166964285Y-43593904D01*
X166773809Y-43546285D01*
X166392857Y-43546285D01*
X166297619Y-43593904D01*
X166250000Y-43641523D01*
X166202380Y-43736761D01*
X166202380Y-43927238D01*
X166250000Y-44022476D01*
X166297619Y-44070095D01*
X166392857Y-44117714D01*
X166630952Y-44117714D01*
X166726190Y-44070095D01*
X166773809Y-44022476D01*
X166821428Y-43927238D01*
X166821428Y-43736761D01*
X166773809Y-43641523D01*
X166726190Y-43593904D01*
X166630952Y-43546285D01*
G04 #@! TO.C,C10*
X164314142Y-46465981D02*
X164361761Y-46513600D01*
X164409380Y-46656457D01*
X164409380Y-46751695D01*
X164361761Y-46894552D01*
X164266523Y-46989790D01*
X164171285Y-47037409D01*
X163980809Y-47085028D01*
X163837952Y-47085028D01*
X163647476Y-47037409D01*
X163552238Y-46989790D01*
X163457000Y-46894552D01*
X163409380Y-46751695D01*
X163409380Y-46656457D01*
X163457000Y-46513600D01*
X163504619Y-46465981D01*
X164409380Y-45513600D02*
X164409380Y-46085028D01*
X164409380Y-45799314D02*
X163409380Y-45799314D01*
X163552238Y-45894552D01*
X163647476Y-45989790D01*
X163695095Y-46085028D01*
X163409380Y-44894552D02*
X163409380Y-44799314D01*
X163457000Y-44704076D01*
X163504619Y-44656457D01*
X163599857Y-44608838D01*
X163790333Y-44561219D01*
X164028428Y-44561219D01*
X164218904Y-44608838D01*
X164314142Y-44656457D01*
X164361761Y-44704076D01*
X164409380Y-44799314D01*
X164409380Y-44894552D01*
X164361761Y-44989790D01*
X164314142Y-45037409D01*
X164218904Y-45085028D01*
X164028428Y-45132647D01*
X163790333Y-45132647D01*
X163599857Y-45085028D01*
X163504619Y-45037409D01*
X163457000Y-44989790D01*
X163409380Y-44894552D01*
G04 #@! TO.C,J1*
X125078380Y-46513333D02*
X125792666Y-46513333D01*
X125935523Y-46560952D01*
X126030761Y-46656190D01*
X126078380Y-46799047D01*
X126078380Y-46894285D01*
X126078380Y-45513333D02*
X126078380Y-46084761D01*
X126078380Y-45799047D02*
X125078380Y-45799047D01*
X125221238Y-45894285D01*
X125316476Y-45989523D01*
X125364095Y-46084761D01*
G04 #@! TO.C,J2*
X176086380Y-40513333D02*
X176800666Y-40513333D01*
X176943523Y-40560952D01*
X177038761Y-40656190D01*
X177086380Y-40799047D01*
X177086380Y-40894285D01*
X176181619Y-40084761D02*
X176134000Y-40037142D01*
X176086380Y-39941904D01*
X176086380Y-39703809D01*
X176134000Y-39608571D01*
X176181619Y-39560952D01*
X176276857Y-39513333D01*
X176372095Y-39513333D01*
X176514952Y-39560952D01*
X177086380Y-40132380D01*
X177086380Y-39513333D01*
G04 #@! TO.C,L1*
X139897380Y-44489666D02*
X139897380Y-44965857D01*
X138897380Y-44965857D01*
X139897380Y-43632523D02*
X139897380Y-44203952D01*
X139897380Y-43918238D02*
X138897380Y-43918238D01*
X139040238Y-44013476D01*
X139135476Y-44108714D01*
X139183095Y-44203952D01*
G04 #@! TO.C,L2*
X147144333Y-31441380D02*
X146668142Y-31441380D01*
X146668142Y-30441380D01*
X147430047Y-30536619D02*
X147477666Y-30489000D01*
X147572904Y-30441380D01*
X147811000Y-30441380D01*
X147906238Y-30489000D01*
X147953857Y-30536619D01*
X148001476Y-30631857D01*
X148001476Y-30727095D01*
X147953857Y-30869952D01*
X147382428Y-31441380D01*
X148001476Y-31441380D01*
G04 #@! TO.C,L3*
X147144333Y-34616380D02*
X146668142Y-34616380D01*
X146668142Y-33616380D01*
X147382428Y-33616380D02*
X148001476Y-33616380D01*
X147668142Y-33997333D01*
X147811000Y-33997333D01*
X147906238Y-34044952D01*
X147953857Y-34092571D01*
X148001476Y-34187809D01*
X148001476Y-34425904D01*
X147953857Y-34521142D01*
X147906238Y-34568761D01*
X147811000Y-34616380D01*
X147525285Y-34616380D01*
X147430047Y-34568761D01*
X147382428Y-34521142D01*
G04 #@! TO.C,L4*
X157304333Y-31568380D02*
X156828142Y-31568380D01*
X156828142Y-30568380D01*
X158066238Y-30901714D02*
X158066238Y-31568380D01*
X157828142Y-30520761D02*
X157590047Y-31235047D01*
X158209095Y-31235047D01*
G04 #@! TO.C,L5*
X157313333Y-34743380D02*
X156837142Y-34743380D01*
X156837142Y-33743380D01*
X158122857Y-33743380D02*
X157646666Y-33743380D01*
X157599047Y-34219571D01*
X157646666Y-34171952D01*
X157741904Y-34124333D01*
X157980000Y-34124333D01*
X158075238Y-34171952D01*
X158122857Y-34219571D01*
X158170476Y-34314809D01*
X158170476Y-34552904D01*
X158122857Y-34648142D01*
X158075238Y-34695761D01*
X157980000Y-34743380D01*
X157741904Y-34743380D01*
X157646666Y-34695761D01*
X157599047Y-34648142D01*
G04 #@! TO.C,L6*
X170622380Y-44489666D02*
X170622380Y-44965857D01*
X169622380Y-44965857D01*
X169622380Y-43727761D02*
X169622380Y-43918238D01*
X169670000Y-44013476D01*
X169717619Y-44061095D01*
X169860476Y-44156333D01*
X170050952Y-44203952D01*
X170431904Y-44203952D01*
X170527142Y-44156333D01*
X170574761Y-44108714D01*
X170622380Y-44013476D01*
X170622380Y-43823000D01*
X170574761Y-43727761D01*
X170527142Y-43680142D01*
X170431904Y-43632523D01*
X170193809Y-43632523D01*
X170098571Y-43680142D01*
X170050952Y-43727761D01*
X170003333Y-43823000D01*
X170003333Y-44013476D01*
X170050952Y-44108714D01*
X170098571Y-44156333D01*
X170193809Y-44203952D01*
G04 #@! TO.C,C4*
X147167333Y-40869142D02*
X147119714Y-40916761D01*
X146976857Y-40964380D01*
X146881619Y-40964380D01*
X146738761Y-40916761D01*
X146643523Y-40821523D01*
X146595904Y-40726285D01*
X146548285Y-40535809D01*
X146548285Y-40392952D01*
X146595904Y-40202476D01*
X146643523Y-40107238D01*
X146738761Y-40012000D01*
X146881619Y-39964380D01*
X146976857Y-39964380D01*
X147119714Y-40012000D01*
X147167333Y-40059619D01*
X148024476Y-40297714D02*
X148024476Y-40964380D01*
X147786380Y-39916761D02*
X147548285Y-40631047D01*
X148167333Y-40631047D01*
G04 #@! TO.C,C6*
X157313333Y-40869142D02*
X157265714Y-40916761D01*
X157122857Y-40964380D01*
X157027619Y-40964380D01*
X156884761Y-40916761D01*
X156789523Y-40821523D01*
X156741904Y-40726285D01*
X156694285Y-40535809D01*
X156694285Y-40392952D01*
X156741904Y-40202476D01*
X156789523Y-40107238D01*
X156884761Y-40012000D01*
X157027619Y-39964380D01*
X157122857Y-39964380D01*
X157265714Y-40012000D01*
X157313333Y-40059619D01*
X158170476Y-39964380D02*
X157980000Y-39964380D01*
X157884761Y-40012000D01*
X157837142Y-40059619D01*
X157741904Y-40202476D01*
X157694285Y-40392952D01*
X157694285Y-40773904D01*
X157741904Y-40869142D01*
X157789523Y-40916761D01*
X157884761Y-40964380D01*
X158075238Y-40964380D01*
X158170476Y-40916761D01*
X158218095Y-40869142D01*
X158265714Y-40773904D01*
X158265714Y-40535809D01*
X158218095Y-40440571D01*
X158170476Y-40392952D01*
X158075238Y-40345333D01*
X157884761Y-40345333D01*
X157789523Y-40392952D01*
X157741904Y-40440571D01*
X157694285Y-40535809D01*
G04 #@! TD*
M02*
