G04 #@! TF.GenerationSoftware,KiCad,Pcbnew,(5.1.5)-3*
G04 #@! TF.CreationDate,2020-02-18T08:15:09-08:00*
G04 #@! TF.ProjectId,PA Rev 3.0,50412052-6576-4203-932e-302e6b696361,rev?*
G04 #@! TF.SameCoordinates,Original*
G04 #@! TF.FileFunction,Copper,L2,Bot*
G04 #@! TF.FilePolarity,Positive*
%FSLAX46Y46*%
G04 Gerber Fmt 4.6, Leading zero omitted, Abs format (unit mm)*
G04 Created by KiCad (PCBNEW (5.1.5)-3) date 2020-02-18 08:15:09*
%MOMM*%
%LPD*%
G04 APERTURE LIST*
%ADD10R,5.080000X2.420000*%
%ADD11C,0.100000*%
%ADD12R,1.700000X1.700000*%
%ADD13O,1.700000X1.700000*%
%ADD14C,1.016000*%
%ADD15C,1.000000*%
%ADD16C,1.500000*%
%ADD17C,0.254000*%
G04 APERTURE END LIST*
D10*
X101600000Y-77179400D03*
X101600000Y-85939400D03*
X53652000Y-77230200D03*
X53652000Y-85990200D03*
G04 #@! TA.AperFunction,SMDPad,CuDef*
D11*
G36*
X73542685Y-71654804D02*
G01*
X73566953Y-71658404D01*
X73590752Y-71664365D01*
X73613851Y-71672630D01*
X73636030Y-71683120D01*
X73657073Y-71695732D01*
X73676779Y-71710347D01*
X73694957Y-71726823D01*
X73711433Y-71745001D01*
X73726048Y-71764707D01*
X73738660Y-71785750D01*
X73749150Y-71807929D01*
X73757415Y-71831028D01*
X73763376Y-71854827D01*
X73766976Y-71879095D01*
X73768180Y-71903599D01*
X73768180Y-72553601D01*
X73766976Y-72578105D01*
X73763376Y-72602373D01*
X73757415Y-72626172D01*
X73749150Y-72649271D01*
X73738660Y-72671450D01*
X73726048Y-72692493D01*
X73711433Y-72712199D01*
X73694957Y-72730377D01*
X73676779Y-72746853D01*
X73657073Y-72761468D01*
X73636030Y-72774080D01*
X73613851Y-72784570D01*
X73590752Y-72792835D01*
X73566953Y-72798796D01*
X73542685Y-72802396D01*
X73518181Y-72803600D01*
X72618179Y-72803600D01*
X72593675Y-72802396D01*
X72569407Y-72798796D01*
X72545608Y-72792835D01*
X72522509Y-72784570D01*
X72500330Y-72774080D01*
X72479287Y-72761468D01*
X72459581Y-72746853D01*
X72441403Y-72730377D01*
X72424927Y-72712199D01*
X72410312Y-72692493D01*
X72397700Y-72671450D01*
X72387210Y-72649271D01*
X72378945Y-72626172D01*
X72372984Y-72602373D01*
X72369384Y-72578105D01*
X72368180Y-72553601D01*
X72368180Y-71903599D01*
X72369384Y-71879095D01*
X72372984Y-71854827D01*
X72378945Y-71831028D01*
X72387210Y-71807929D01*
X72397700Y-71785750D01*
X72410312Y-71764707D01*
X72424927Y-71745001D01*
X72441403Y-71726823D01*
X72459581Y-71710347D01*
X72479287Y-71695732D01*
X72500330Y-71683120D01*
X72522509Y-71672630D01*
X72545608Y-71664365D01*
X72569407Y-71658404D01*
X72593675Y-71654804D01*
X72618179Y-71653600D01*
X73518181Y-71653600D01*
X73542685Y-71654804D01*
G37*
G04 #@! TD.AperFunction*
G04 #@! TA.AperFunction,SMDPad,CuDef*
G36*
X73542685Y-73704804D02*
G01*
X73566953Y-73708404D01*
X73590752Y-73714365D01*
X73613851Y-73722630D01*
X73636030Y-73733120D01*
X73657073Y-73745732D01*
X73676779Y-73760347D01*
X73694957Y-73776823D01*
X73711433Y-73795001D01*
X73726048Y-73814707D01*
X73738660Y-73835750D01*
X73749150Y-73857929D01*
X73757415Y-73881028D01*
X73763376Y-73904827D01*
X73766976Y-73929095D01*
X73768180Y-73953599D01*
X73768180Y-74603601D01*
X73766976Y-74628105D01*
X73763376Y-74652373D01*
X73757415Y-74676172D01*
X73749150Y-74699271D01*
X73738660Y-74721450D01*
X73726048Y-74742493D01*
X73711433Y-74762199D01*
X73694957Y-74780377D01*
X73676779Y-74796853D01*
X73657073Y-74811468D01*
X73636030Y-74824080D01*
X73613851Y-74834570D01*
X73590752Y-74842835D01*
X73566953Y-74848796D01*
X73542685Y-74852396D01*
X73518181Y-74853600D01*
X72618179Y-74853600D01*
X72593675Y-74852396D01*
X72569407Y-74848796D01*
X72545608Y-74842835D01*
X72522509Y-74834570D01*
X72500330Y-74824080D01*
X72479287Y-74811468D01*
X72459581Y-74796853D01*
X72441403Y-74780377D01*
X72424927Y-74762199D01*
X72410312Y-74742493D01*
X72397700Y-74721450D01*
X72387210Y-74699271D01*
X72378945Y-74676172D01*
X72372984Y-74652373D01*
X72369384Y-74628105D01*
X72368180Y-74603601D01*
X72368180Y-73953599D01*
X72369384Y-73929095D01*
X72372984Y-73904827D01*
X72378945Y-73881028D01*
X72387210Y-73857929D01*
X72397700Y-73835750D01*
X72410312Y-73814707D01*
X72424927Y-73795001D01*
X72441403Y-73776823D01*
X72459581Y-73760347D01*
X72479287Y-73745732D01*
X72500330Y-73733120D01*
X72522509Y-73722630D01*
X72545608Y-73714365D01*
X72569407Y-73708404D01*
X72593675Y-73704804D01*
X72618179Y-73703600D01*
X73518181Y-73703600D01*
X73542685Y-73704804D01*
G37*
G04 #@! TD.AperFunction*
D12*
X69535040Y-72224900D03*
D13*
X66995040Y-72224900D03*
G04 #@! TA.AperFunction,SMDPad,CuDef*
D11*
G36*
X70017165Y-74856364D02*
G01*
X70041433Y-74859964D01*
X70065232Y-74865925D01*
X70088331Y-74874190D01*
X70110510Y-74884680D01*
X70131553Y-74897292D01*
X70151259Y-74911907D01*
X70169437Y-74928383D01*
X70185913Y-74946561D01*
X70200528Y-74966267D01*
X70213140Y-74987310D01*
X70223630Y-75009489D01*
X70231895Y-75032588D01*
X70237856Y-75056387D01*
X70241456Y-75080655D01*
X70242660Y-75105159D01*
X70242660Y-75755161D01*
X70241456Y-75779665D01*
X70237856Y-75803933D01*
X70231895Y-75827732D01*
X70223630Y-75850831D01*
X70213140Y-75873010D01*
X70200528Y-75894053D01*
X70185913Y-75913759D01*
X70169437Y-75931937D01*
X70151259Y-75948413D01*
X70131553Y-75963028D01*
X70110510Y-75975640D01*
X70088331Y-75986130D01*
X70065232Y-75994395D01*
X70041433Y-76000356D01*
X70017165Y-76003956D01*
X69992661Y-76005160D01*
X69092659Y-76005160D01*
X69068155Y-76003956D01*
X69043887Y-76000356D01*
X69020088Y-75994395D01*
X68996989Y-75986130D01*
X68974810Y-75975640D01*
X68953767Y-75963028D01*
X68934061Y-75948413D01*
X68915883Y-75931937D01*
X68899407Y-75913759D01*
X68884792Y-75894053D01*
X68872180Y-75873010D01*
X68861690Y-75850831D01*
X68853425Y-75827732D01*
X68847464Y-75803933D01*
X68843864Y-75779665D01*
X68842660Y-75755161D01*
X68842660Y-75105159D01*
X68843864Y-75080655D01*
X68847464Y-75056387D01*
X68853425Y-75032588D01*
X68861690Y-75009489D01*
X68872180Y-74987310D01*
X68884792Y-74966267D01*
X68899407Y-74946561D01*
X68915883Y-74928383D01*
X68934061Y-74911907D01*
X68953767Y-74897292D01*
X68974810Y-74884680D01*
X68996989Y-74874190D01*
X69020088Y-74865925D01*
X69043887Y-74859964D01*
X69068155Y-74856364D01*
X69092659Y-74855160D01*
X69992661Y-74855160D01*
X70017165Y-74856364D01*
G37*
G04 #@! TD.AperFunction*
G04 #@! TA.AperFunction,SMDPad,CuDef*
G36*
X70017165Y-76906364D02*
G01*
X70041433Y-76909964D01*
X70065232Y-76915925D01*
X70088331Y-76924190D01*
X70110510Y-76934680D01*
X70131553Y-76947292D01*
X70151259Y-76961907D01*
X70169437Y-76978383D01*
X70185913Y-76996561D01*
X70200528Y-77016267D01*
X70213140Y-77037310D01*
X70223630Y-77059489D01*
X70231895Y-77082588D01*
X70237856Y-77106387D01*
X70241456Y-77130655D01*
X70242660Y-77155159D01*
X70242660Y-77805161D01*
X70241456Y-77829665D01*
X70237856Y-77853933D01*
X70231895Y-77877732D01*
X70223630Y-77900831D01*
X70213140Y-77923010D01*
X70200528Y-77944053D01*
X70185913Y-77963759D01*
X70169437Y-77981937D01*
X70151259Y-77998413D01*
X70131553Y-78013028D01*
X70110510Y-78025640D01*
X70088331Y-78036130D01*
X70065232Y-78044395D01*
X70041433Y-78050356D01*
X70017165Y-78053956D01*
X69992661Y-78055160D01*
X69092659Y-78055160D01*
X69068155Y-78053956D01*
X69043887Y-78050356D01*
X69020088Y-78044395D01*
X68996989Y-78036130D01*
X68974810Y-78025640D01*
X68953767Y-78013028D01*
X68934061Y-77998413D01*
X68915883Y-77981937D01*
X68899407Y-77963759D01*
X68884792Y-77944053D01*
X68872180Y-77923010D01*
X68861690Y-77900831D01*
X68853425Y-77877732D01*
X68847464Y-77853933D01*
X68843864Y-77829665D01*
X68842660Y-77805161D01*
X68842660Y-77155159D01*
X68843864Y-77130655D01*
X68847464Y-77106387D01*
X68853425Y-77082588D01*
X68861690Y-77059489D01*
X68872180Y-77037310D01*
X68884792Y-77016267D01*
X68899407Y-76996561D01*
X68915883Y-76978383D01*
X68934061Y-76961907D01*
X68953767Y-76947292D01*
X68974810Y-76934680D01*
X68996989Y-76924190D01*
X69020088Y-76915925D01*
X69043887Y-76909964D01*
X69068155Y-76906364D01*
X69092659Y-76905160D01*
X69992661Y-76905160D01*
X70017165Y-76906364D01*
G37*
G04 #@! TD.AperFunction*
G04 #@! TA.AperFunction,SMDPad,CuDef*
G36*
X70029865Y-84668824D02*
G01*
X70054133Y-84672424D01*
X70077932Y-84678385D01*
X70101031Y-84686650D01*
X70123210Y-84697140D01*
X70144253Y-84709752D01*
X70163959Y-84724367D01*
X70182137Y-84740843D01*
X70198613Y-84759021D01*
X70213228Y-84778727D01*
X70225840Y-84799770D01*
X70236330Y-84821949D01*
X70244595Y-84845048D01*
X70250556Y-84868847D01*
X70254156Y-84893115D01*
X70255360Y-84917619D01*
X70255360Y-85567621D01*
X70254156Y-85592125D01*
X70250556Y-85616393D01*
X70244595Y-85640192D01*
X70236330Y-85663291D01*
X70225840Y-85685470D01*
X70213228Y-85706513D01*
X70198613Y-85726219D01*
X70182137Y-85744397D01*
X70163959Y-85760873D01*
X70144253Y-85775488D01*
X70123210Y-85788100D01*
X70101031Y-85798590D01*
X70077932Y-85806855D01*
X70054133Y-85812816D01*
X70029865Y-85816416D01*
X70005361Y-85817620D01*
X69105359Y-85817620D01*
X69080855Y-85816416D01*
X69056587Y-85812816D01*
X69032788Y-85806855D01*
X69009689Y-85798590D01*
X68987510Y-85788100D01*
X68966467Y-85775488D01*
X68946761Y-85760873D01*
X68928583Y-85744397D01*
X68912107Y-85726219D01*
X68897492Y-85706513D01*
X68884880Y-85685470D01*
X68874390Y-85663291D01*
X68866125Y-85640192D01*
X68860164Y-85616393D01*
X68856564Y-85592125D01*
X68855360Y-85567621D01*
X68855360Y-84917619D01*
X68856564Y-84893115D01*
X68860164Y-84868847D01*
X68866125Y-84845048D01*
X68874390Y-84821949D01*
X68884880Y-84799770D01*
X68897492Y-84778727D01*
X68912107Y-84759021D01*
X68928583Y-84740843D01*
X68946761Y-84724367D01*
X68966467Y-84709752D01*
X68987510Y-84697140D01*
X69009689Y-84686650D01*
X69032788Y-84678385D01*
X69056587Y-84672424D01*
X69080855Y-84668824D01*
X69105359Y-84667620D01*
X70005361Y-84667620D01*
X70029865Y-84668824D01*
G37*
G04 #@! TD.AperFunction*
G04 #@! TA.AperFunction,SMDPad,CuDef*
G36*
X70029865Y-82618824D02*
G01*
X70054133Y-82622424D01*
X70077932Y-82628385D01*
X70101031Y-82636650D01*
X70123210Y-82647140D01*
X70144253Y-82659752D01*
X70163959Y-82674367D01*
X70182137Y-82690843D01*
X70198613Y-82709021D01*
X70213228Y-82728727D01*
X70225840Y-82749770D01*
X70236330Y-82771949D01*
X70244595Y-82795048D01*
X70250556Y-82818847D01*
X70254156Y-82843115D01*
X70255360Y-82867619D01*
X70255360Y-83517621D01*
X70254156Y-83542125D01*
X70250556Y-83566393D01*
X70244595Y-83590192D01*
X70236330Y-83613291D01*
X70225840Y-83635470D01*
X70213228Y-83656513D01*
X70198613Y-83676219D01*
X70182137Y-83694397D01*
X70163959Y-83710873D01*
X70144253Y-83725488D01*
X70123210Y-83738100D01*
X70101031Y-83748590D01*
X70077932Y-83756855D01*
X70054133Y-83762816D01*
X70029865Y-83766416D01*
X70005361Y-83767620D01*
X69105359Y-83767620D01*
X69080855Y-83766416D01*
X69056587Y-83762816D01*
X69032788Y-83756855D01*
X69009689Y-83748590D01*
X68987510Y-83738100D01*
X68966467Y-83725488D01*
X68946761Y-83710873D01*
X68928583Y-83694397D01*
X68912107Y-83676219D01*
X68897492Y-83656513D01*
X68884880Y-83635470D01*
X68874390Y-83613291D01*
X68866125Y-83590192D01*
X68860164Y-83566393D01*
X68856564Y-83542125D01*
X68855360Y-83517621D01*
X68855360Y-82867619D01*
X68856564Y-82843115D01*
X68860164Y-82818847D01*
X68866125Y-82795048D01*
X68874390Y-82771949D01*
X68884880Y-82749770D01*
X68897492Y-82728727D01*
X68912107Y-82709021D01*
X68928583Y-82690843D01*
X68946761Y-82674367D01*
X68966467Y-82659752D01*
X68987510Y-82647140D01*
X69009689Y-82636650D01*
X69032788Y-82628385D01*
X69056587Y-82622424D01*
X69080855Y-82618824D01*
X69105359Y-82617620D01*
X70005361Y-82617620D01*
X70029865Y-82618824D01*
G37*
G04 #@! TD.AperFunction*
D14*
X77068680Y-76073000D03*
X87335360Y-84099400D03*
X69545200Y-80340200D03*
X87335360Y-82829400D03*
D15*
X85095080Y-84099400D02*
X87335360Y-84099400D01*
X77068680Y-76073000D02*
X85095080Y-84099400D01*
D16*
X69542660Y-80337660D02*
X69545200Y-80340200D01*
X69542660Y-77480160D02*
X69542660Y-80337660D01*
X69545200Y-83182460D02*
X69555360Y-83192620D01*
X69545200Y-80340200D02*
X69545200Y-83182460D01*
X69542660Y-72232520D02*
X69535040Y-72224900D01*
X69542660Y-75430160D02*
X69542660Y-72232520D01*
X73064480Y-72224900D02*
X73068180Y-72228600D01*
X69535040Y-72224900D02*
X73064480Y-72224900D01*
X87335360Y-76446380D02*
X87335360Y-82641399D01*
X73068180Y-72228600D02*
X83117580Y-72228600D01*
X83117580Y-72228600D02*
X87335360Y-76446380D01*
D17*
G36*
X66868038Y-70904744D02*
G01*
X66638150Y-70783424D01*
X66490941Y-70828075D01*
X66228120Y-70953259D01*
X65994771Y-71127312D01*
X65799862Y-71343545D01*
X65650883Y-71593648D01*
X65553559Y-71868009D01*
X65674226Y-72097900D01*
X66868040Y-72097900D01*
X66868040Y-72077900D01*
X67122040Y-72077900D01*
X67122040Y-72097900D01*
X67142040Y-72097900D01*
X67142040Y-72351900D01*
X67122040Y-72351900D01*
X67122040Y-73545055D01*
X67351930Y-73666376D01*
X67499139Y-73621725D01*
X67761960Y-73496541D01*
X67995309Y-73322488D01*
X68071074Y-73238434D01*
X68095538Y-73319080D01*
X68154503Y-73429394D01*
X68157661Y-73433242D01*
X68157660Y-75498196D01*
X68177700Y-75701666D01*
X68209713Y-75807200D01*
X68221652Y-75928415D01*
X68272188Y-76095011D01*
X68354255Y-76248547D01*
X68464698Y-76383122D01*
X68552476Y-76455160D01*
X68464698Y-76527198D01*
X68354255Y-76661773D01*
X68272188Y-76815309D01*
X68221652Y-76981905D01*
X68209713Y-77103120D01*
X68177700Y-77208654D01*
X68157660Y-77412124D01*
X68157661Y-80269621D01*
X68150960Y-80337660D01*
X68160200Y-80431480D01*
X68160201Y-83114421D01*
X68153500Y-83182460D01*
X68180240Y-83453967D01*
X68225816Y-83604212D01*
X68234352Y-83690875D01*
X68284888Y-83857471D01*
X68366955Y-84011007D01*
X68477398Y-84145582D01*
X68483954Y-84150962D01*
X68404175Y-84216435D01*
X68324823Y-84313126D01*
X68265858Y-84423440D01*
X68229548Y-84543138D01*
X68217288Y-84667620D01*
X68220360Y-84956870D01*
X68379110Y-85115620D01*
X69428360Y-85115620D01*
X69428360Y-85095620D01*
X69682360Y-85095620D01*
X69682360Y-85115620D01*
X70731610Y-85115620D01*
X70890360Y-84956870D01*
X70893432Y-84667620D01*
X70881172Y-84543138D01*
X70844862Y-84423440D01*
X70785897Y-84313126D01*
X70706545Y-84216435D01*
X70626766Y-84150962D01*
X70633322Y-84145582D01*
X70743765Y-84011007D01*
X70825832Y-83857471D01*
X70876368Y-83690875D01*
X70888307Y-83569655D01*
X70920319Y-83464126D01*
X70947060Y-83192619D01*
X70930200Y-83021437D01*
X70930200Y-80408226D01*
X70936900Y-80340199D01*
X70930200Y-80272173D01*
X70930200Y-80272163D01*
X70927660Y-80246374D01*
X70927660Y-77412123D01*
X70907620Y-77208653D01*
X70875606Y-77103119D01*
X70863668Y-76981905D01*
X70813132Y-76815309D01*
X70731065Y-76661773D01*
X70620622Y-76527198D01*
X70532844Y-76455160D01*
X70620622Y-76383122D01*
X70731065Y-76248547D01*
X70813132Y-76095011D01*
X70863668Y-75928415D01*
X70875606Y-75807201D01*
X70907620Y-75701667D01*
X70927660Y-75498197D01*
X70927660Y-74853600D01*
X71730108Y-74853600D01*
X71742368Y-74978082D01*
X71778678Y-75097780D01*
X71837643Y-75208094D01*
X71916995Y-75304785D01*
X72013686Y-75384137D01*
X72124000Y-75443102D01*
X72243698Y-75479412D01*
X72368180Y-75491672D01*
X72782430Y-75488600D01*
X72941180Y-75329850D01*
X72941180Y-74405600D01*
X73195180Y-74405600D01*
X73195180Y-75329850D01*
X73353930Y-75488600D01*
X73768180Y-75491672D01*
X73892662Y-75479412D01*
X74012360Y-75443102D01*
X74122674Y-75384137D01*
X74219365Y-75304785D01*
X74298717Y-75208094D01*
X74357682Y-75097780D01*
X74393992Y-74978082D01*
X74406252Y-74853600D01*
X74403180Y-74564350D01*
X74244430Y-74405600D01*
X73195180Y-74405600D01*
X72941180Y-74405600D01*
X71891930Y-74405600D01*
X71733180Y-74564350D01*
X71730108Y-74853600D01*
X70927660Y-74853600D01*
X70927660Y-73609900D01*
X71739336Y-73609900D01*
X71730108Y-73703600D01*
X71733180Y-73992850D01*
X71891930Y-74151600D01*
X72941180Y-74151600D01*
X72941180Y-74131600D01*
X73195180Y-74131600D01*
X73195180Y-74151600D01*
X74244430Y-74151600D01*
X74403180Y-73992850D01*
X74406252Y-73703600D01*
X74397388Y-73613600D01*
X82543895Y-73613600D01*
X85950360Y-77020066D01*
X85950361Y-82709436D01*
X85970401Y-82912906D01*
X85986022Y-82964400D01*
X85565212Y-82964400D01*
X77979290Y-75378479D01*
X77956506Y-75344380D01*
X77797300Y-75185174D01*
X77610093Y-75060087D01*
X77402081Y-74973925D01*
X77181256Y-74930000D01*
X76956104Y-74930000D01*
X76735279Y-74973925D01*
X76527267Y-75060087D01*
X76340060Y-75185174D01*
X76180854Y-75344380D01*
X76055767Y-75531587D01*
X75969605Y-75739599D01*
X75925680Y-75960424D01*
X75925680Y-76185576D01*
X75969605Y-76406401D01*
X76055767Y-76614413D01*
X76180854Y-76801620D01*
X76340060Y-76960826D01*
X76374159Y-76983610D01*
X84253089Y-84862541D01*
X84288631Y-84905849D01*
X84387789Y-84987226D01*
X84461457Y-85047684D01*
X84658633Y-85153076D01*
X84872581Y-85217977D01*
X85095080Y-85239891D01*
X85150832Y-85234400D01*
X87182565Y-85234400D01*
X87222784Y-85242400D01*
X87447936Y-85242400D01*
X87668761Y-85198475D01*
X87876773Y-85112313D01*
X88063980Y-84987226D01*
X88223186Y-84828020D01*
X88289081Y-84729400D01*
X98421928Y-84729400D01*
X98425000Y-85653650D01*
X98583750Y-85812400D01*
X101473000Y-85812400D01*
X101473000Y-84253150D01*
X101314250Y-84094400D01*
X99060000Y-84091328D01*
X98935518Y-84103588D01*
X98815820Y-84139898D01*
X98705506Y-84198863D01*
X98608815Y-84278215D01*
X98529463Y-84374906D01*
X98470498Y-84485220D01*
X98434188Y-84604918D01*
X98421928Y-84729400D01*
X88289081Y-84729400D01*
X88348273Y-84640813D01*
X88434435Y-84432801D01*
X88478360Y-84211976D01*
X88478360Y-83986824D01*
X88434435Y-83765999D01*
X88357181Y-83579493D01*
X88492517Y-83414587D01*
X88621124Y-83173980D01*
X88700320Y-82912906D01*
X88720360Y-82709436D01*
X88720360Y-78389400D01*
X98421928Y-78389400D01*
X98434188Y-78513882D01*
X98470498Y-78633580D01*
X98529463Y-78743894D01*
X98608815Y-78840585D01*
X98705506Y-78919937D01*
X98815820Y-78978902D01*
X98935518Y-79015212D01*
X99060000Y-79027472D01*
X101314250Y-79024400D01*
X101473000Y-78865650D01*
X101473000Y-77306400D01*
X98583750Y-77306400D01*
X98425000Y-77465150D01*
X98421928Y-78389400D01*
X88720360Y-78389400D01*
X88720360Y-76514409D01*
X88727060Y-76446380D01*
X88720360Y-76378351D01*
X88720360Y-76378343D01*
X88700320Y-76174873D01*
X88637991Y-75969400D01*
X98421928Y-75969400D01*
X98425000Y-76893650D01*
X98583750Y-77052400D01*
X101473000Y-77052400D01*
X101473000Y-75493150D01*
X101314250Y-75334400D01*
X99060000Y-75331328D01*
X98935518Y-75343588D01*
X98815820Y-75379898D01*
X98705506Y-75438863D01*
X98608815Y-75518215D01*
X98529463Y-75614906D01*
X98470498Y-75725220D01*
X98434188Y-75844918D01*
X98421928Y-75969400D01*
X88637991Y-75969400D01*
X88621124Y-75913799D01*
X88492517Y-75673192D01*
X88462449Y-75636554D01*
X88362812Y-75515146D01*
X88362805Y-75515139D01*
X88319440Y-75462299D01*
X88266601Y-75418935D01*
X84145032Y-71297367D01*
X84101661Y-71244519D01*
X83890768Y-71071443D01*
X83650161Y-70942836D01*
X83389087Y-70863640D01*
X83185617Y-70843600D01*
X83185609Y-70843600D01*
X83117580Y-70836900D01*
X83049551Y-70843600D01*
X73170084Y-70843600D01*
X73132517Y-70839900D01*
X73132509Y-70839900D01*
X73064480Y-70833200D01*
X72996451Y-70839900D01*
X70731184Y-70839900D01*
X70629220Y-70785398D01*
X70558680Y-70764000D01*
X103480001Y-70764000D01*
X103480001Y-75332227D01*
X101885750Y-75334400D01*
X101727000Y-75493150D01*
X101727000Y-77052400D01*
X101747000Y-77052400D01*
X101747000Y-77306400D01*
X101727000Y-77306400D01*
X101727000Y-78865650D01*
X101885750Y-79024400D01*
X103480001Y-79026573D01*
X103480000Y-84092227D01*
X101885750Y-84094400D01*
X101727000Y-84253150D01*
X101727000Y-85812400D01*
X101747000Y-85812400D01*
X101747000Y-86066400D01*
X101727000Y-86066400D01*
X101727000Y-86086400D01*
X101473000Y-86086400D01*
X101473000Y-86066400D01*
X98583750Y-86066400D01*
X98425000Y-86225150D01*
X98421928Y-87149400D01*
X98434188Y-87273882D01*
X98470498Y-87393580D01*
X98529463Y-87503894D01*
X98608815Y-87600585D01*
X98705506Y-87679937D01*
X98802907Y-87732000D01*
X56544131Y-87732000D01*
X56546494Y-87730737D01*
X56643185Y-87651385D01*
X56722537Y-87554694D01*
X56781502Y-87444380D01*
X56817812Y-87324682D01*
X56830072Y-87200200D01*
X56827000Y-86275950D01*
X56668250Y-86117200D01*
X53779000Y-86117200D01*
X53779000Y-86137200D01*
X53525000Y-86137200D01*
X53525000Y-86117200D01*
X53505000Y-86117200D01*
X53505000Y-85863200D01*
X53525000Y-85863200D01*
X53525000Y-84303950D01*
X53779000Y-84303950D01*
X53779000Y-85863200D01*
X56668250Y-85863200D01*
X56713830Y-85817620D01*
X68217288Y-85817620D01*
X68229548Y-85942102D01*
X68265858Y-86061800D01*
X68324823Y-86172114D01*
X68404175Y-86268805D01*
X68500866Y-86348157D01*
X68611180Y-86407122D01*
X68730878Y-86443432D01*
X68855360Y-86455692D01*
X69269610Y-86452620D01*
X69428360Y-86293870D01*
X69428360Y-85369620D01*
X69682360Y-85369620D01*
X69682360Y-86293870D01*
X69841110Y-86452620D01*
X70255360Y-86455692D01*
X70379842Y-86443432D01*
X70499540Y-86407122D01*
X70609854Y-86348157D01*
X70706545Y-86268805D01*
X70785897Y-86172114D01*
X70844862Y-86061800D01*
X70881172Y-85942102D01*
X70893432Y-85817620D01*
X70890360Y-85528370D01*
X70731610Y-85369620D01*
X69682360Y-85369620D01*
X69428360Y-85369620D01*
X68379110Y-85369620D01*
X68220360Y-85528370D01*
X68217288Y-85817620D01*
X56713830Y-85817620D01*
X56827000Y-85704450D01*
X56830072Y-84780200D01*
X56817812Y-84655718D01*
X56781502Y-84536020D01*
X56722537Y-84425706D01*
X56643185Y-84329015D01*
X56546494Y-84249663D01*
X56436180Y-84190698D01*
X56316482Y-84154388D01*
X56192000Y-84142128D01*
X53937750Y-84145200D01*
X53779000Y-84303950D01*
X53525000Y-84303950D01*
X53366250Y-84145200D01*
X51968000Y-84143295D01*
X51968000Y-79077105D01*
X53366250Y-79075200D01*
X53525000Y-78916450D01*
X53525000Y-77357200D01*
X53779000Y-77357200D01*
X53779000Y-78916450D01*
X53937750Y-79075200D01*
X56192000Y-79078272D01*
X56316482Y-79066012D01*
X56436180Y-79029702D01*
X56546494Y-78970737D01*
X56643185Y-78891385D01*
X56722537Y-78794694D01*
X56781502Y-78684380D01*
X56817812Y-78564682D01*
X56830072Y-78440200D01*
X56827000Y-77515950D01*
X56668250Y-77357200D01*
X53779000Y-77357200D01*
X53525000Y-77357200D01*
X53505000Y-77357200D01*
X53505000Y-77103200D01*
X53525000Y-77103200D01*
X53525000Y-75543950D01*
X53779000Y-75543950D01*
X53779000Y-77103200D01*
X56668250Y-77103200D01*
X56827000Y-76944450D01*
X56830072Y-76020200D01*
X56817812Y-75895718D01*
X56781502Y-75776020D01*
X56722537Y-75665706D01*
X56643185Y-75569015D01*
X56546494Y-75489663D01*
X56436180Y-75430698D01*
X56316482Y-75394388D01*
X56192000Y-75382128D01*
X53937750Y-75385200D01*
X53779000Y-75543950D01*
X53525000Y-75543950D01*
X53366250Y-75385200D01*
X51968000Y-75383295D01*
X51968000Y-72581791D01*
X65553559Y-72581791D01*
X65650883Y-72856152D01*
X65799862Y-73106255D01*
X65994771Y-73322488D01*
X66228120Y-73496541D01*
X66490941Y-73621725D01*
X66638150Y-73666376D01*
X66868040Y-73545055D01*
X66868040Y-72351900D01*
X65674226Y-72351900D01*
X65553559Y-72581791D01*
X51968000Y-72581791D01*
X51968000Y-70764000D01*
X66868038Y-70764000D01*
X66868038Y-70904744D01*
G37*
X66868038Y-70904744D02*
X66638150Y-70783424D01*
X66490941Y-70828075D01*
X66228120Y-70953259D01*
X65994771Y-71127312D01*
X65799862Y-71343545D01*
X65650883Y-71593648D01*
X65553559Y-71868009D01*
X65674226Y-72097900D01*
X66868040Y-72097900D01*
X66868040Y-72077900D01*
X67122040Y-72077900D01*
X67122040Y-72097900D01*
X67142040Y-72097900D01*
X67142040Y-72351900D01*
X67122040Y-72351900D01*
X67122040Y-73545055D01*
X67351930Y-73666376D01*
X67499139Y-73621725D01*
X67761960Y-73496541D01*
X67995309Y-73322488D01*
X68071074Y-73238434D01*
X68095538Y-73319080D01*
X68154503Y-73429394D01*
X68157661Y-73433242D01*
X68157660Y-75498196D01*
X68177700Y-75701666D01*
X68209713Y-75807200D01*
X68221652Y-75928415D01*
X68272188Y-76095011D01*
X68354255Y-76248547D01*
X68464698Y-76383122D01*
X68552476Y-76455160D01*
X68464698Y-76527198D01*
X68354255Y-76661773D01*
X68272188Y-76815309D01*
X68221652Y-76981905D01*
X68209713Y-77103120D01*
X68177700Y-77208654D01*
X68157660Y-77412124D01*
X68157661Y-80269621D01*
X68150960Y-80337660D01*
X68160200Y-80431480D01*
X68160201Y-83114421D01*
X68153500Y-83182460D01*
X68180240Y-83453967D01*
X68225816Y-83604212D01*
X68234352Y-83690875D01*
X68284888Y-83857471D01*
X68366955Y-84011007D01*
X68477398Y-84145582D01*
X68483954Y-84150962D01*
X68404175Y-84216435D01*
X68324823Y-84313126D01*
X68265858Y-84423440D01*
X68229548Y-84543138D01*
X68217288Y-84667620D01*
X68220360Y-84956870D01*
X68379110Y-85115620D01*
X69428360Y-85115620D01*
X69428360Y-85095620D01*
X69682360Y-85095620D01*
X69682360Y-85115620D01*
X70731610Y-85115620D01*
X70890360Y-84956870D01*
X70893432Y-84667620D01*
X70881172Y-84543138D01*
X70844862Y-84423440D01*
X70785897Y-84313126D01*
X70706545Y-84216435D01*
X70626766Y-84150962D01*
X70633322Y-84145582D01*
X70743765Y-84011007D01*
X70825832Y-83857471D01*
X70876368Y-83690875D01*
X70888307Y-83569655D01*
X70920319Y-83464126D01*
X70947060Y-83192619D01*
X70930200Y-83021437D01*
X70930200Y-80408226D01*
X70936900Y-80340199D01*
X70930200Y-80272173D01*
X70930200Y-80272163D01*
X70927660Y-80246374D01*
X70927660Y-77412123D01*
X70907620Y-77208653D01*
X70875606Y-77103119D01*
X70863668Y-76981905D01*
X70813132Y-76815309D01*
X70731065Y-76661773D01*
X70620622Y-76527198D01*
X70532844Y-76455160D01*
X70620622Y-76383122D01*
X70731065Y-76248547D01*
X70813132Y-76095011D01*
X70863668Y-75928415D01*
X70875606Y-75807201D01*
X70907620Y-75701667D01*
X70927660Y-75498197D01*
X70927660Y-74853600D01*
X71730108Y-74853600D01*
X71742368Y-74978082D01*
X71778678Y-75097780D01*
X71837643Y-75208094D01*
X71916995Y-75304785D01*
X72013686Y-75384137D01*
X72124000Y-75443102D01*
X72243698Y-75479412D01*
X72368180Y-75491672D01*
X72782430Y-75488600D01*
X72941180Y-75329850D01*
X72941180Y-74405600D01*
X73195180Y-74405600D01*
X73195180Y-75329850D01*
X73353930Y-75488600D01*
X73768180Y-75491672D01*
X73892662Y-75479412D01*
X74012360Y-75443102D01*
X74122674Y-75384137D01*
X74219365Y-75304785D01*
X74298717Y-75208094D01*
X74357682Y-75097780D01*
X74393992Y-74978082D01*
X74406252Y-74853600D01*
X74403180Y-74564350D01*
X74244430Y-74405600D01*
X73195180Y-74405600D01*
X72941180Y-74405600D01*
X71891930Y-74405600D01*
X71733180Y-74564350D01*
X71730108Y-74853600D01*
X70927660Y-74853600D01*
X70927660Y-73609900D01*
X71739336Y-73609900D01*
X71730108Y-73703600D01*
X71733180Y-73992850D01*
X71891930Y-74151600D01*
X72941180Y-74151600D01*
X72941180Y-74131600D01*
X73195180Y-74131600D01*
X73195180Y-74151600D01*
X74244430Y-74151600D01*
X74403180Y-73992850D01*
X74406252Y-73703600D01*
X74397388Y-73613600D01*
X82543895Y-73613600D01*
X85950360Y-77020066D01*
X85950361Y-82709436D01*
X85970401Y-82912906D01*
X85986022Y-82964400D01*
X85565212Y-82964400D01*
X77979290Y-75378479D01*
X77956506Y-75344380D01*
X77797300Y-75185174D01*
X77610093Y-75060087D01*
X77402081Y-74973925D01*
X77181256Y-74930000D01*
X76956104Y-74930000D01*
X76735279Y-74973925D01*
X76527267Y-75060087D01*
X76340060Y-75185174D01*
X76180854Y-75344380D01*
X76055767Y-75531587D01*
X75969605Y-75739599D01*
X75925680Y-75960424D01*
X75925680Y-76185576D01*
X75969605Y-76406401D01*
X76055767Y-76614413D01*
X76180854Y-76801620D01*
X76340060Y-76960826D01*
X76374159Y-76983610D01*
X84253089Y-84862541D01*
X84288631Y-84905849D01*
X84387789Y-84987226D01*
X84461457Y-85047684D01*
X84658633Y-85153076D01*
X84872581Y-85217977D01*
X85095080Y-85239891D01*
X85150832Y-85234400D01*
X87182565Y-85234400D01*
X87222784Y-85242400D01*
X87447936Y-85242400D01*
X87668761Y-85198475D01*
X87876773Y-85112313D01*
X88063980Y-84987226D01*
X88223186Y-84828020D01*
X88289081Y-84729400D01*
X98421928Y-84729400D01*
X98425000Y-85653650D01*
X98583750Y-85812400D01*
X101473000Y-85812400D01*
X101473000Y-84253150D01*
X101314250Y-84094400D01*
X99060000Y-84091328D01*
X98935518Y-84103588D01*
X98815820Y-84139898D01*
X98705506Y-84198863D01*
X98608815Y-84278215D01*
X98529463Y-84374906D01*
X98470498Y-84485220D01*
X98434188Y-84604918D01*
X98421928Y-84729400D01*
X88289081Y-84729400D01*
X88348273Y-84640813D01*
X88434435Y-84432801D01*
X88478360Y-84211976D01*
X88478360Y-83986824D01*
X88434435Y-83765999D01*
X88357181Y-83579493D01*
X88492517Y-83414587D01*
X88621124Y-83173980D01*
X88700320Y-82912906D01*
X88720360Y-82709436D01*
X88720360Y-78389400D01*
X98421928Y-78389400D01*
X98434188Y-78513882D01*
X98470498Y-78633580D01*
X98529463Y-78743894D01*
X98608815Y-78840585D01*
X98705506Y-78919937D01*
X98815820Y-78978902D01*
X98935518Y-79015212D01*
X99060000Y-79027472D01*
X101314250Y-79024400D01*
X101473000Y-78865650D01*
X101473000Y-77306400D01*
X98583750Y-77306400D01*
X98425000Y-77465150D01*
X98421928Y-78389400D01*
X88720360Y-78389400D01*
X88720360Y-76514409D01*
X88727060Y-76446380D01*
X88720360Y-76378351D01*
X88720360Y-76378343D01*
X88700320Y-76174873D01*
X88637991Y-75969400D01*
X98421928Y-75969400D01*
X98425000Y-76893650D01*
X98583750Y-77052400D01*
X101473000Y-77052400D01*
X101473000Y-75493150D01*
X101314250Y-75334400D01*
X99060000Y-75331328D01*
X98935518Y-75343588D01*
X98815820Y-75379898D01*
X98705506Y-75438863D01*
X98608815Y-75518215D01*
X98529463Y-75614906D01*
X98470498Y-75725220D01*
X98434188Y-75844918D01*
X98421928Y-75969400D01*
X88637991Y-75969400D01*
X88621124Y-75913799D01*
X88492517Y-75673192D01*
X88462449Y-75636554D01*
X88362812Y-75515146D01*
X88362805Y-75515139D01*
X88319440Y-75462299D01*
X88266601Y-75418935D01*
X84145032Y-71297367D01*
X84101661Y-71244519D01*
X83890768Y-71071443D01*
X83650161Y-70942836D01*
X83389087Y-70863640D01*
X83185617Y-70843600D01*
X83185609Y-70843600D01*
X83117580Y-70836900D01*
X83049551Y-70843600D01*
X73170084Y-70843600D01*
X73132517Y-70839900D01*
X73132509Y-70839900D01*
X73064480Y-70833200D01*
X72996451Y-70839900D01*
X70731184Y-70839900D01*
X70629220Y-70785398D01*
X70558680Y-70764000D01*
X103480001Y-70764000D01*
X103480001Y-75332227D01*
X101885750Y-75334400D01*
X101727000Y-75493150D01*
X101727000Y-77052400D01*
X101747000Y-77052400D01*
X101747000Y-77306400D01*
X101727000Y-77306400D01*
X101727000Y-78865650D01*
X101885750Y-79024400D01*
X103480001Y-79026573D01*
X103480000Y-84092227D01*
X101885750Y-84094400D01*
X101727000Y-84253150D01*
X101727000Y-85812400D01*
X101747000Y-85812400D01*
X101747000Y-86066400D01*
X101727000Y-86066400D01*
X101727000Y-86086400D01*
X101473000Y-86086400D01*
X101473000Y-86066400D01*
X98583750Y-86066400D01*
X98425000Y-86225150D01*
X98421928Y-87149400D01*
X98434188Y-87273882D01*
X98470498Y-87393580D01*
X98529463Y-87503894D01*
X98608815Y-87600585D01*
X98705506Y-87679937D01*
X98802907Y-87732000D01*
X56544131Y-87732000D01*
X56546494Y-87730737D01*
X56643185Y-87651385D01*
X56722537Y-87554694D01*
X56781502Y-87444380D01*
X56817812Y-87324682D01*
X56830072Y-87200200D01*
X56827000Y-86275950D01*
X56668250Y-86117200D01*
X53779000Y-86117200D01*
X53779000Y-86137200D01*
X53525000Y-86137200D01*
X53525000Y-86117200D01*
X53505000Y-86117200D01*
X53505000Y-85863200D01*
X53525000Y-85863200D01*
X53525000Y-84303950D01*
X53779000Y-84303950D01*
X53779000Y-85863200D01*
X56668250Y-85863200D01*
X56713830Y-85817620D01*
X68217288Y-85817620D01*
X68229548Y-85942102D01*
X68265858Y-86061800D01*
X68324823Y-86172114D01*
X68404175Y-86268805D01*
X68500866Y-86348157D01*
X68611180Y-86407122D01*
X68730878Y-86443432D01*
X68855360Y-86455692D01*
X69269610Y-86452620D01*
X69428360Y-86293870D01*
X69428360Y-85369620D01*
X69682360Y-85369620D01*
X69682360Y-86293870D01*
X69841110Y-86452620D01*
X70255360Y-86455692D01*
X70379842Y-86443432D01*
X70499540Y-86407122D01*
X70609854Y-86348157D01*
X70706545Y-86268805D01*
X70785897Y-86172114D01*
X70844862Y-86061800D01*
X70881172Y-85942102D01*
X70893432Y-85817620D01*
X70890360Y-85528370D01*
X70731610Y-85369620D01*
X69682360Y-85369620D01*
X69428360Y-85369620D01*
X68379110Y-85369620D01*
X68220360Y-85528370D01*
X68217288Y-85817620D01*
X56713830Y-85817620D01*
X56827000Y-85704450D01*
X56830072Y-84780200D01*
X56817812Y-84655718D01*
X56781502Y-84536020D01*
X56722537Y-84425706D01*
X56643185Y-84329015D01*
X56546494Y-84249663D01*
X56436180Y-84190698D01*
X56316482Y-84154388D01*
X56192000Y-84142128D01*
X53937750Y-84145200D01*
X53779000Y-84303950D01*
X53525000Y-84303950D01*
X53366250Y-84145200D01*
X51968000Y-84143295D01*
X51968000Y-79077105D01*
X53366250Y-79075200D01*
X53525000Y-78916450D01*
X53525000Y-77357200D01*
X53779000Y-77357200D01*
X53779000Y-78916450D01*
X53937750Y-79075200D01*
X56192000Y-79078272D01*
X56316482Y-79066012D01*
X56436180Y-79029702D01*
X56546494Y-78970737D01*
X56643185Y-78891385D01*
X56722537Y-78794694D01*
X56781502Y-78684380D01*
X56817812Y-78564682D01*
X56830072Y-78440200D01*
X56827000Y-77515950D01*
X56668250Y-77357200D01*
X53779000Y-77357200D01*
X53525000Y-77357200D01*
X53505000Y-77357200D01*
X53505000Y-77103200D01*
X53525000Y-77103200D01*
X53525000Y-75543950D01*
X53779000Y-75543950D01*
X53779000Y-77103200D01*
X56668250Y-77103200D01*
X56827000Y-76944450D01*
X56830072Y-76020200D01*
X56817812Y-75895718D01*
X56781502Y-75776020D01*
X56722537Y-75665706D01*
X56643185Y-75569015D01*
X56546494Y-75489663D01*
X56436180Y-75430698D01*
X56316482Y-75394388D01*
X56192000Y-75382128D01*
X53937750Y-75385200D01*
X53779000Y-75543950D01*
X53525000Y-75543950D01*
X53366250Y-75385200D01*
X51968000Y-75383295D01*
X51968000Y-72581791D01*
X65553559Y-72581791D01*
X65650883Y-72856152D01*
X65799862Y-73106255D01*
X65994771Y-73322488D01*
X66228120Y-73496541D01*
X66490941Y-73621725D01*
X66638150Y-73666376D01*
X66868040Y-73545055D01*
X66868040Y-72351900D01*
X65674226Y-72351900D01*
X65553559Y-72581791D01*
X51968000Y-72581791D01*
X51968000Y-70764000D01*
X66868038Y-70764000D01*
X66868038Y-70904744D01*
M02*
