G04 #@! TF.GenerationSoftware,KiCad,Pcbnew,(5.1.5)-3*
G04 #@! TF.CreationDate,2020-02-29T13:01:13-08:00*
G04 #@! TF.ProjectId,PA Rev 3.0,50412052-6576-4203-932e-302e6b696361,rev?*
G04 #@! TF.SameCoordinates,Original*
G04 #@! TF.FileFunction,Copper,L2,Bot*
G04 #@! TF.FilePolarity,Positive*
%FSLAX46Y46*%
G04 Gerber Fmt 4.6, Leading zero omitted, Abs format (unit mm)*
G04 Created by KiCad (PCBNEW (5.1.5)-3) date 2020-02-29 13:01:13*
%MOMM*%
%LPD*%
G04 APERTURE LIST*
%ADD10C,0.100000*%
%ADD11R,1.700000X1.700000*%
%ADD12O,1.700000X1.700000*%
%ADD13C,1.270000*%
%ADD14C,1.016000*%
%ADD15C,1.000000*%
%ADD16C,1.500000*%
%ADD17C,0.254000*%
G04 APERTURE END LIST*
G04 #@! TA.AperFunction,SMDPad,CuDef*
D10*
G36*
X73542685Y-71654804D02*
G01*
X73566953Y-71658404D01*
X73590752Y-71664365D01*
X73613851Y-71672630D01*
X73636030Y-71683120D01*
X73657073Y-71695732D01*
X73676779Y-71710347D01*
X73694957Y-71726823D01*
X73711433Y-71745001D01*
X73726048Y-71764707D01*
X73738660Y-71785750D01*
X73749150Y-71807929D01*
X73757415Y-71831028D01*
X73763376Y-71854827D01*
X73766976Y-71879095D01*
X73768180Y-71903599D01*
X73768180Y-72553601D01*
X73766976Y-72578105D01*
X73763376Y-72602373D01*
X73757415Y-72626172D01*
X73749150Y-72649271D01*
X73738660Y-72671450D01*
X73726048Y-72692493D01*
X73711433Y-72712199D01*
X73694957Y-72730377D01*
X73676779Y-72746853D01*
X73657073Y-72761468D01*
X73636030Y-72774080D01*
X73613851Y-72784570D01*
X73590752Y-72792835D01*
X73566953Y-72798796D01*
X73542685Y-72802396D01*
X73518181Y-72803600D01*
X72618179Y-72803600D01*
X72593675Y-72802396D01*
X72569407Y-72798796D01*
X72545608Y-72792835D01*
X72522509Y-72784570D01*
X72500330Y-72774080D01*
X72479287Y-72761468D01*
X72459581Y-72746853D01*
X72441403Y-72730377D01*
X72424927Y-72712199D01*
X72410312Y-72692493D01*
X72397700Y-72671450D01*
X72387210Y-72649271D01*
X72378945Y-72626172D01*
X72372984Y-72602373D01*
X72369384Y-72578105D01*
X72368180Y-72553601D01*
X72368180Y-71903599D01*
X72369384Y-71879095D01*
X72372984Y-71854827D01*
X72378945Y-71831028D01*
X72387210Y-71807929D01*
X72397700Y-71785750D01*
X72410312Y-71764707D01*
X72424927Y-71745001D01*
X72441403Y-71726823D01*
X72459581Y-71710347D01*
X72479287Y-71695732D01*
X72500330Y-71683120D01*
X72522509Y-71672630D01*
X72545608Y-71664365D01*
X72569407Y-71658404D01*
X72593675Y-71654804D01*
X72618179Y-71653600D01*
X73518181Y-71653600D01*
X73542685Y-71654804D01*
G37*
G04 #@! TD.AperFunction*
G04 #@! TA.AperFunction,SMDPad,CuDef*
G36*
X73542685Y-73704804D02*
G01*
X73566953Y-73708404D01*
X73590752Y-73714365D01*
X73613851Y-73722630D01*
X73636030Y-73733120D01*
X73657073Y-73745732D01*
X73676779Y-73760347D01*
X73694957Y-73776823D01*
X73711433Y-73795001D01*
X73726048Y-73814707D01*
X73738660Y-73835750D01*
X73749150Y-73857929D01*
X73757415Y-73881028D01*
X73763376Y-73904827D01*
X73766976Y-73929095D01*
X73768180Y-73953599D01*
X73768180Y-74603601D01*
X73766976Y-74628105D01*
X73763376Y-74652373D01*
X73757415Y-74676172D01*
X73749150Y-74699271D01*
X73738660Y-74721450D01*
X73726048Y-74742493D01*
X73711433Y-74762199D01*
X73694957Y-74780377D01*
X73676779Y-74796853D01*
X73657073Y-74811468D01*
X73636030Y-74824080D01*
X73613851Y-74834570D01*
X73590752Y-74842835D01*
X73566953Y-74848796D01*
X73542685Y-74852396D01*
X73518181Y-74853600D01*
X72618179Y-74853600D01*
X72593675Y-74852396D01*
X72569407Y-74848796D01*
X72545608Y-74842835D01*
X72522509Y-74834570D01*
X72500330Y-74824080D01*
X72479287Y-74811468D01*
X72459581Y-74796853D01*
X72441403Y-74780377D01*
X72424927Y-74762199D01*
X72410312Y-74742493D01*
X72397700Y-74721450D01*
X72387210Y-74699271D01*
X72378945Y-74676172D01*
X72372984Y-74652373D01*
X72369384Y-74628105D01*
X72368180Y-74603601D01*
X72368180Y-73953599D01*
X72369384Y-73929095D01*
X72372984Y-73904827D01*
X72378945Y-73881028D01*
X72387210Y-73857929D01*
X72397700Y-73835750D01*
X72410312Y-73814707D01*
X72424927Y-73795001D01*
X72441403Y-73776823D01*
X72459581Y-73760347D01*
X72479287Y-73745732D01*
X72500330Y-73733120D01*
X72522509Y-73722630D01*
X72545608Y-73714365D01*
X72569407Y-73708404D01*
X72593675Y-73704804D01*
X72618179Y-73703600D01*
X73518181Y-73703600D01*
X73542685Y-73704804D01*
G37*
G04 #@! TD.AperFunction*
D11*
X64516000Y-72217280D03*
D12*
X61976000Y-72217280D03*
G04 #@! TA.AperFunction,SMDPad,CuDef*
D10*
G36*
X70017165Y-74856364D02*
G01*
X70041433Y-74859964D01*
X70065232Y-74865925D01*
X70088331Y-74874190D01*
X70110510Y-74884680D01*
X70131553Y-74897292D01*
X70151259Y-74911907D01*
X70169437Y-74928383D01*
X70185913Y-74946561D01*
X70200528Y-74966267D01*
X70213140Y-74987310D01*
X70223630Y-75009489D01*
X70231895Y-75032588D01*
X70237856Y-75056387D01*
X70241456Y-75080655D01*
X70242660Y-75105159D01*
X70242660Y-75755161D01*
X70241456Y-75779665D01*
X70237856Y-75803933D01*
X70231895Y-75827732D01*
X70223630Y-75850831D01*
X70213140Y-75873010D01*
X70200528Y-75894053D01*
X70185913Y-75913759D01*
X70169437Y-75931937D01*
X70151259Y-75948413D01*
X70131553Y-75963028D01*
X70110510Y-75975640D01*
X70088331Y-75986130D01*
X70065232Y-75994395D01*
X70041433Y-76000356D01*
X70017165Y-76003956D01*
X69992661Y-76005160D01*
X69092659Y-76005160D01*
X69068155Y-76003956D01*
X69043887Y-76000356D01*
X69020088Y-75994395D01*
X68996989Y-75986130D01*
X68974810Y-75975640D01*
X68953767Y-75963028D01*
X68934061Y-75948413D01*
X68915883Y-75931937D01*
X68899407Y-75913759D01*
X68884792Y-75894053D01*
X68872180Y-75873010D01*
X68861690Y-75850831D01*
X68853425Y-75827732D01*
X68847464Y-75803933D01*
X68843864Y-75779665D01*
X68842660Y-75755161D01*
X68842660Y-75105159D01*
X68843864Y-75080655D01*
X68847464Y-75056387D01*
X68853425Y-75032588D01*
X68861690Y-75009489D01*
X68872180Y-74987310D01*
X68884792Y-74966267D01*
X68899407Y-74946561D01*
X68915883Y-74928383D01*
X68934061Y-74911907D01*
X68953767Y-74897292D01*
X68974810Y-74884680D01*
X68996989Y-74874190D01*
X69020088Y-74865925D01*
X69043887Y-74859964D01*
X69068155Y-74856364D01*
X69092659Y-74855160D01*
X69992661Y-74855160D01*
X70017165Y-74856364D01*
G37*
G04 #@! TD.AperFunction*
G04 #@! TA.AperFunction,SMDPad,CuDef*
G36*
X70017165Y-76906364D02*
G01*
X70041433Y-76909964D01*
X70065232Y-76915925D01*
X70088331Y-76924190D01*
X70110510Y-76934680D01*
X70131553Y-76947292D01*
X70151259Y-76961907D01*
X70169437Y-76978383D01*
X70185913Y-76996561D01*
X70200528Y-77016267D01*
X70213140Y-77037310D01*
X70223630Y-77059489D01*
X70231895Y-77082588D01*
X70237856Y-77106387D01*
X70241456Y-77130655D01*
X70242660Y-77155159D01*
X70242660Y-77805161D01*
X70241456Y-77829665D01*
X70237856Y-77853933D01*
X70231895Y-77877732D01*
X70223630Y-77900831D01*
X70213140Y-77923010D01*
X70200528Y-77944053D01*
X70185913Y-77963759D01*
X70169437Y-77981937D01*
X70151259Y-77998413D01*
X70131553Y-78013028D01*
X70110510Y-78025640D01*
X70088331Y-78036130D01*
X70065232Y-78044395D01*
X70041433Y-78050356D01*
X70017165Y-78053956D01*
X69992661Y-78055160D01*
X69092659Y-78055160D01*
X69068155Y-78053956D01*
X69043887Y-78050356D01*
X69020088Y-78044395D01*
X68996989Y-78036130D01*
X68974810Y-78025640D01*
X68953767Y-78013028D01*
X68934061Y-77998413D01*
X68915883Y-77981937D01*
X68899407Y-77963759D01*
X68884792Y-77944053D01*
X68872180Y-77923010D01*
X68861690Y-77900831D01*
X68853425Y-77877732D01*
X68847464Y-77853933D01*
X68843864Y-77829665D01*
X68842660Y-77805161D01*
X68842660Y-77155159D01*
X68843864Y-77130655D01*
X68847464Y-77106387D01*
X68853425Y-77082588D01*
X68861690Y-77059489D01*
X68872180Y-77037310D01*
X68884792Y-77016267D01*
X68899407Y-76996561D01*
X68915883Y-76978383D01*
X68934061Y-76961907D01*
X68953767Y-76947292D01*
X68974810Y-76934680D01*
X68996989Y-76924190D01*
X69020088Y-76915925D01*
X69043887Y-76909964D01*
X69068155Y-76906364D01*
X69092659Y-76905160D01*
X69992661Y-76905160D01*
X70017165Y-76906364D01*
G37*
G04 #@! TD.AperFunction*
G04 #@! TA.AperFunction,SMDPad,CuDef*
G36*
X70029865Y-84668824D02*
G01*
X70054133Y-84672424D01*
X70077932Y-84678385D01*
X70101031Y-84686650D01*
X70123210Y-84697140D01*
X70144253Y-84709752D01*
X70163959Y-84724367D01*
X70182137Y-84740843D01*
X70198613Y-84759021D01*
X70213228Y-84778727D01*
X70225840Y-84799770D01*
X70236330Y-84821949D01*
X70244595Y-84845048D01*
X70250556Y-84868847D01*
X70254156Y-84893115D01*
X70255360Y-84917619D01*
X70255360Y-85567621D01*
X70254156Y-85592125D01*
X70250556Y-85616393D01*
X70244595Y-85640192D01*
X70236330Y-85663291D01*
X70225840Y-85685470D01*
X70213228Y-85706513D01*
X70198613Y-85726219D01*
X70182137Y-85744397D01*
X70163959Y-85760873D01*
X70144253Y-85775488D01*
X70123210Y-85788100D01*
X70101031Y-85798590D01*
X70077932Y-85806855D01*
X70054133Y-85812816D01*
X70029865Y-85816416D01*
X70005361Y-85817620D01*
X69105359Y-85817620D01*
X69080855Y-85816416D01*
X69056587Y-85812816D01*
X69032788Y-85806855D01*
X69009689Y-85798590D01*
X68987510Y-85788100D01*
X68966467Y-85775488D01*
X68946761Y-85760873D01*
X68928583Y-85744397D01*
X68912107Y-85726219D01*
X68897492Y-85706513D01*
X68884880Y-85685470D01*
X68874390Y-85663291D01*
X68866125Y-85640192D01*
X68860164Y-85616393D01*
X68856564Y-85592125D01*
X68855360Y-85567621D01*
X68855360Y-84917619D01*
X68856564Y-84893115D01*
X68860164Y-84868847D01*
X68866125Y-84845048D01*
X68874390Y-84821949D01*
X68884880Y-84799770D01*
X68897492Y-84778727D01*
X68912107Y-84759021D01*
X68928583Y-84740843D01*
X68946761Y-84724367D01*
X68966467Y-84709752D01*
X68987510Y-84697140D01*
X69009689Y-84686650D01*
X69032788Y-84678385D01*
X69056587Y-84672424D01*
X69080855Y-84668824D01*
X69105359Y-84667620D01*
X70005361Y-84667620D01*
X70029865Y-84668824D01*
G37*
G04 #@! TD.AperFunction*
G04 #@! TA.AperFunction,SMDPad,CuDef*
G36*
X70029865Y-82618824D02*
G01*
X70054133Y-82622424D01*
X70077932Y-82628385D01*
X70101031Y-82636650D01*
X70123210Y-82647140D01*
X70144253Y-82659752D01*
X70163959Y-82674367D01*
X70182137Y-82690843D01*
X70198613Y-82709021D01*
X70213228Y-82728727D01*
X70225840Y-82749770D01*
X70236330Y-82771949D01*
X70244595Y-82795048D01*
X70250556Y-82818847D01*
X70254156Y-82843115D01*
X70255360Y-82867619D01*
X70255360Y-83517621D01*
X70254156Y-83542125D01*
X70250556Y-83566393D01*
X70244595Y-83590192D01*
X70236330Y-83613291D01*
X70225840Y-83635470D01*
X70213228Y-83656513D01*
X70198613Y-83676219D01*
X70182137Y-83694397D01*
X70163959Y-83710873D01*
X70144253Y-83725488D01*
X70123210Y-83738100D01*
X70101031Y-83748590D01*
X70077932Y-83756855D01*
X70054133Y-83762816D01*
X70029865Y-83766416D01*
X70005361Y-83767620D01*
X69105359Y-83767620D01*
X69080855Y-83766416D01*
X69056587Y-83762816D01*
X69032788Y-83756855D01*
X69009689Y-83748590D01*
X68987510Y-83738100D01*
X68966467Y-83725488D01*
X68946761Y-83710873D01*
X68928583Y-83694397D01*
X68912107Y-83676219D01*
X68897492Y-83656513D01*
X68884880Y-83635470D01*
X68874390Y-83613291D01*
X68866125Y-83590192D01*
X68860164Y-83566393D01*
X68856564Y-83542125D01*
X68855360Y-83517621D01*
X68855360Y-82867619D01*
X68856564Y-82843115D01*
X68860164Y-82818847D01*
X68866125Y-82795048D01*
X68874390Y-82771949D01*
X68884880Y-82749770D01*
X68897492Y-82728727D01*
X68912107Y-82709021D01*
X68928583Y-82690843D01*
X68946761Y-82674367D01*
X68966467Y-82659752D01*
X68987510Y-82647140D01*
X69009689Y-82636650D01*
X69032788Y-82628385D01*
X69056587Y-82622424D01*
X69080855Y-82618824D01*
X69105359Y-82617620D01*
X70005361Y-82617620D01*
X70029865Y-82618824D01*
G37*
G04 #@! TD.AperFunction*
D13*
X81780380Y-82562700D03*
X97307400Y-75671680D03*
D14*
X69545200Y-80340200D03*
D13*
X69535040Y-72224900D03*
X93858080Y-72228600D03*
D15*
X81780380Y-82562700D02*
X88671400Y-75671680D01*
X88671400Y-75671680D02*
X97307400Y-75671680D01*
D16*
X69542660Y-80337660D02*
X69545200Y-80340200D01*
X69542660Y-77480160D02*
X69542660Y-80337660D01*
X69545200Y-83182460D02*
X69555360Y-83192620D01*
X69545200Y-80340200D02*
X69545200Y-83182460D01*
X69542660Y-72232520D02*
X69535040Y-72224900D01*
X69542660Y-75430160D02*
X69542660Y-72232520D01*
X69535040Y-72224900D02*
X73064480Y-72224900D01*
X69535040Y-72224900D02*
X69535040Y-72224900D01*
X73068180Y-72228600D02*
X93858080Y-72228600D01*
X93858080Y-72228600D02*
X93858080Y-72228600D01*
D17*
G36*
X61848998Y-70897124D02*
G01*
X61619110Y-70775804D01*
X61471901Y-70820455D01*
X61209080Y-70945639D01*
X60975731Y-71119692D01*
X60780822Y-71335925D01*
X60631843Y-71586028D01*
X60534519Y-71860389D01*
X60655186Y-72090280D01*
X61849000Y-72090280D01*
X61849000Y-72070280D01*
X62103000Y-72070280D01*
X62103000Y-72090280D01*
X62123000Y-72090280D01*
X62123000Y-72344280D01*
X62103000Y-72344280D01*
X62103000Y-73537435D01*
X62332890Y-73658756D01*
X62480099Y-73614105D01*
X62742920Y-73488921D01*
X62976269Y-73314868D01*
X63052034Y-73230814D01*
X63076498Y-73311460D01*
X63135463Y-73421774D01*
X63214815Y-73518465D01*
X63311506Y-73597817D01*
X63421820Y-73656782D01*
X63541518Y-73693092D01*
X63666000Y-73705352D01*
X65366000Y-73705352D01*
X65490482Y-73693092D01*
X65610180Y-73656782D01*
X65720494Y-73597817D01*
X65817185Y-73518465D01*
X65896537Y-73421774D01*
X65955502Y-73311460D01*
X65991812Y-73191762D01*
X66004072Y-73067280D01*
X66004072Y-72224900D01*
X68143339Y-72224900D01*
X68157661Y-72370314D01*
X68157660Y-75498196D01*
X68177700Y-75701666D01*
X68209713Y-75807200D01*
X68221652Y-75928415D01*
X68272188Y-76095011D01*
X68354255Y-76248547D01*
X68464698Y-76383122D01*
X68552476Y-76455160D01*
X68464698Y-76527198D01*
X68354255Y-76661773D01*
X68272188Y-76815309D01*
X68221652Y-76981905D01*
X68209713Y-77103120D01*
X68177700Y-77208654D01*
X68157660Y-77412124D01*
X68157661Y-80269621D01*
X68150960Y-80337660D01*
X68160200Y-80431480D01*
X68160201Y-83114421D01*
X68153500Y-83182460D01*
X68180240Y-83453967D01*
X68225816Y-83604212D01*
X68234352Y-83690875D01*
X68284888Y-83857471D01*
X68366955Y-84011007D01*
X68477398Y-84145582D01*
X68483954Y-84150962D01*
X68404175Y-84216435D01*
X68324823Y-84313126D01*
X68265858Y-84423440D01*
X68229548Y-84543138D01*
X68217288Y-84667620D01*
X68220360Y-84956870D01*
X68379110Y-85115620D01*
X69428360Y-85115620D01*
X69428360Y-85095620D01*
X69682360Y-85095620D01*
X69682360Y-85115620D01*
X70731610Y-85115620D01*
X70890360Y-84956870D01*
X70893432Y-84667620D01*
X70881172Y-84543138D01*
X70844862Y-84423440D01*
X70785897Y-84313126D01*
X70706545Y-84216435D01*
X70626766Y-84150962D01*
X70633322Y-84145582D01*
X70743765Y-84011007D01*
X70825832Y-83857471D01*
X70876368Y-83690875D01*
X70888307Y-83569655D01*
X70920319Y-83464126D01*
X70947060Y-83192619D01*
X70930200Y-83021437D01*
X70930200Y-82437616D01*
X80510380Y-82437616D01*
X80510380Y-82687784D01*
X80559185Y-82933145D01*
X80654921Y-83164271D01*
X80793907Y-83372278D01*
X80970802Y-83549173D01*
X81178809Y-83688159D01*
X81409935Y-83783895D01*
X81655296Y-83832700D01*
X81905464Y-83832700D01*
X82150825Y-83783895D01*
X82381951Y-83688159D01*
X82589958Y-83549173D01*
X82766853Y-83372278D01*
X82905839Y-83164271D01*
X82992035Y-82956176D01*
X89141532Y-76806680D01*
X96728863Y-76806680D01*
X96936955Y-76892875D01*
X97182316Y-76941680D01*
X97432484Y-76941680D01*
X97677845Y-76892875D01*
X97908971Y-76797139D01*
X98116978Y-76658153D01*
X98293873Y-76481258D01*
X98432859Y-76273251D01*
X98528595Y-76042125D01*
X98577400Y-75796764D01*
X98577400Y-75546596D01*
X98528595Y-75301235D01*
X98432859Y-75070109D01*
X98293873Y-74862102D01*
X98116978Y-74685207D01*
X97908971Y-74546221D01*
X97677845Y-74450485D01*
X97432484Y-74401680D01*
X97182316Y-74401680D01*
X96936955Y-74450485D01*
X96728863Y-74536680D01*
X88727151Y-74536680D01*
X88671400Y-74531189D01*
X88615648Y-74536680D01*
X88448901Y-74553103D01*
X88234953Y-74618004D01*
X88037777Y-74723396D01*
X87864951Y-74865231D01*
X87829409Y-74908539D01*
X81386904Y-81351045D01*
X81178809Y-81437241D01*
X80970802Y-81576227D01*
X80793907Y-81753122D01*
X80654921Y-81961129D01*
X80559185Y-82192255D01*
X80510380Y-82437616D01*
X70930200Y-82437616D01*
X70930200Y-80408226D01*
X70936900Y-80340199D01*
X70930200Y-80272173D01*
X70930200Y-80272163D01*
X70927660Y-80246374D01*
X70927660Y-77412123D01*
X70907620Y-77208653D01*
X70875606Y-77103119D01*
X70863668Y-76981905D01*
X70813132Y-76815309D01*
X70731065Y-76661773D01*
X70620622Y-76527198D01*
X70532844Y-76455160D01*
X70620622Y-76383122D01*
X70731065Y-76248547D01*
X70813132Y-76095011D01*
X70863668Y-75928415D01*
X70875606Y-75807201D01*
X70907620Y-75701667D01*
X70927660Y-75498197D01*
X70927660Y-74853600D01*
X71730108Y-74853600D01*
X71742368Y-74978082D01*
X71778678Y-75097780D01*
X71837643Y-75208094D01*
X71916995Y-75304785D01*
X72013686Y-75384137D01*
X72124000Y-75443102D01*
X72243698Y-75479412D01*
X72368180Y-75491672D01*
X72782430Y-75488600D01*
X72941180Y-75329850D01*
X72941180Y-74405600D01*
X73195180Y-74405600D01*
X73195180Y-75329850D01*
X73353930Y-75488600D01*
X73768180Y-75491672D01*
X73892662Y-75479412D01*
X74012360Y-75443102D01*
X74122674Y-75384137D01*
X74219365Y-75304785D01*
X74298717Y-75208094D01*
X74357682Y-75097780D01*
X74393992Y-74978082D01*
X74406252Y-74853600D01*
X74403180Y-74564350D01*
X74244430Y-74405600D01*
X73195180Y-74405600D01*
X72941180Y-74405600D01*
X71891930Y-74405600D01*
X71733180Y-74564350D01*
X71730108Y-74853600D01*
X70927660Y-74853600D01*
X70927660Y-73609900D01*
X71739336Y-73609900D01*
X71730108Y-73703600D01*
X71733180Y-73992850D01*
X71891930Y-74151600D01*
X72941180Y-74151600D01*
X72941180Y-74131600D01*
X73195180Y-74131600D01*
X73195180Y-74151600D01*
X74244430Y-74151600D01*
X74403180Y-73992850D01*
X74406252Y-73703600D01*
X74397388Y-73613600D01*
X93926117Y-73613600D01*
X94129587Y-73593560D01*
X94390661Y-73514364D01*
X94631268Y-73385757D01*
X94842161Y-73212681D01*
X95015237Y-73001788D01*
X95143844Y-72761181D01*
X95223040Y-72500107D01*
X95249781Y-72228600D01*
X95223040Y-71957093D01*
X95143844Y-71696019D01*
X95015237Y-71455412D01*
X94842161Y-71244519D01*
X94631268Y-71071443D01*
X94390661Y-70942836D01*
X94129587Y-70863640D01*
X93926117Y-70843600D01*
X73170084Y-70843600D01*
X73132517Y-70839900D01*
X69603069Y-70839900D01*
X69535040Y-70833200D01*
X69467011Y-70839900D01*
X69467003Y-70839900D01*
X69263533Y-70859940D01*
X69002459Y-70939136D01*
X68761852Y-71067743D01*
X68550959Y-71240819D01*
X68377883Y-71451712D01*
X68249276Y-71692319D01*
X68170080Y-71953393D01*
X68143339Y-72224900D01*
X66004072Y-72224900D01*
X66004072Y-71367280D01*
X65991812Y-71242798D01*
X65955502Y-71123100D01*
X65896537Y-71012786D01*
X65817185Y-70916095D01*
X65720494Y-70836743D01*
X65610180Y-70777778D01*
X65564760Y-70764000D01*
X103480001Y-70764000D01*
X103480000Y-87732000D01*
X51968000Y-87732000D01*
X51968000Y-85817620D01*
X68217288Y-85817620D01*
X68229548Y-85942102D01*
X68265858Y-86061800D01*
X68324823Y-86172114D01*
X68404175Y-86268805D01*
X68500866Y-86348157D01*
X68611180Y-86407122D01*
X68730878Y-86443432D01*
X68855360Y-86455692D01*
X69269610Y-86452620D01*
X69428360Y-86293870D01*
X69428360Y-85369620D01*
X69682360Y-85369620D01*
X69682360Y-86293870D01*
X69841110Y-86452620D01*
X70255360Y-86455692D01*
X70379842Y-86443432D01*
X70499540Y-86407122D01*
X70609854Y-86348157D01*
X70706545Y-86268805D01*
X70785897Y-86172114D01*
X70844862Y-86061800D01*
X70881172Y-85942102D01*
X70893432Y-85817620D01*
X70890360Y-85528370D01*
X70731610Y-85369620D01*
X69682360Y-85369620D01*
X69428360Y-85369620D01*
X68379110Y-85369620D01*
X68220360Y-85528370D01*
X68217288Y-85817620D01*
X51968000Y-85817620D01*
X51968000Y-72574171D01*
X60534519Y-72574171D01*
X60631843Y-72848532D01*
X60780822Y-73098635D01*
X60975731Y-73314868D01*
X61209080Y-73488921D01*
X61471901Y-73614105D01*
X61619110Y-73658756D01*
X61849000Y-73537435D01*
X61849000Y-72344280D01*
X60655186Y-72344280D01*
X60534519Y-72574171D01*
X51968000Y-72574171D01*
X51968000Y-70764000D01*
X61848998Y-70764000D01*
X61848998Y-70897124D01*
G37*
X61848998Y-70897124D02*
X61619110Y-70775804D01*
X61471901Y-70820455D01*
X61209080Y-70945639D01*
X60975731Y-71119692D01*
X60780822Y-71335925D01*
X60631843Y-71586028D01*
X60534519Y-71860389D01*
X60655186Y-72090280D01*
X61849000Y-72090280D01*
X61849000Y-72070280D01*
X62103000Y-72070280D01*
X62103000Y-72090280D01*
X62123000Y-72090280D01*
X62123000Y-72344280D01*
X62103000Y-72344280D01*
X62103000Y-73537435D01*
X62332890Y-73658756D01*
X62480099Y-73614105D01*
X62742920Y-73488921D01*
X62976269Y-73314868D01*
X63052034Y-73230814D01*
X63076498Y-73311460D01*
X63135463Y-73421774D01*
X63214815Y-73518465D01*
X63311506Y-73597817D01*
X63421820Y-73656782D01*
X63541518Y-73693092D01*
X63666000Y-73705352D01*
X65366000Y-73705352D01*
X65490482Y-73693092D01*
X65610180Y-73656782D01*
X65720494Y-73597817D01*
X65817185Y-73518465D01*
X65896537Y-73421774D01*
X65955502Y-73311460D01*
X65991812Y-73191762D01*
X66004072Y-73067280D01*
X66004072Y-72224900D01*
X68143339Y-72224900D01*
X68157661Y-72370314D01*
X68157660Y-75498196D01*
X68177700Y-75701666D01*
X68209713Y-75807200D01*
X68221652Y-75928415D01*
X68272188Y-76095011D01*
X68354255Y-76248547D01*
X68464698Y-76383122D01*
X68552476Y-76455160D01*
X68464698Y-76527198D01*
X68354255Y-76661773D01*
X68272188Y-76815309D01*
X68221652Y-76981905D01*
X68209713Y-77103120D01*
X68177700Y-77208654D01*
X68157660Y-77412124D01*
X68157661Y-80269621D01*
X68150960Y-80337660D01*
X68160200Y-80431480D01*
X68160201Y-83114421D01*
X68153500Y-83182460D01*
X68180240Y-83453967D01*
X68225816Y-83604212D01*
X68234352Y-83690875D01*
X68284888Y-83857471D01*
X68366955Y-84011007D01*
X68477398Y-84145582D01*
X68483954Y-84150962D01*
X68404175Y-84216435D01*
X68324823Y-84313126D01*
X68265858Y-84423440D01*
X68229548Y-84543138D01*
X68217288Y-84667620D01*
X68220360Y-84956870D01*
X68379110Y-85115620D01*
X69428360Y-85115620D01*
X69428360Y-85095620D01*
X69682360Y-85095620D01*
X69682360Y-85115620D01*
X70731610Y-85115620D01*
X70890360Y-84956870D01*
X70893432Y-84667620D01*
X70881172Y-84543138D01*
X70844862Y-84423440D01*
X70785897Y-84313126D01*
X70706545Y-84216435D01*
X70626766Y-84150962D01*
X70633322Y-84145582D01*
X70743765Y-84011007D01*
X70825832Y-83857471D01*
X70876368Y-83690875D01*
X70888307Y-83569655D01*
X70920319Y-83464126D01*
X70947060Y-83192619D01*
X70930200Y-83021437D01*
X70930200Y-82437616D01*
X80510380Y-82437616D01*
X80510380Y-82687784D01*
X80559185Y-82933145D01*
X80654921Y-83164271D01*
X80793907Y-83372278D01*
X80970802Y-83549173D01*
X81178809Y-83688159D01*
X81409935Y-83783895D01*
X81655296Y-83832700D01*
X81905464Y-83832700D01*
X82150825Y-83783895D01*
X82381951Y-83688159D01*
X82589958Y-83549173D01*
X82766853Y-83372278D01*
X82905839Y-83164271D01*
X82992035Y-82956176D01*
X89141532Y-76806680D01*
X96728863Y-76806680D01*
X96936955Y-76892875D01*
X97182316Y-76941680D01*
X97432484Y-76941680D01*
X97677845Y-76892875D01*
X97908971Y-76797139D01*
X98116978Y-76658153D01*
X98293873Y-76481258D01*
X98432859Y-76273251D01*
X98528595Y-76042125D01*
X98577400Y-75796764D01*
X98577400Y-75546596D01*
X98528595Y-75301235D01*
X98432859Y-75070109D01*
X98293873Y-74862102D01*
X98116978Y-74685207D01*
X97908971Y-74546221D01*
X97677845Y-74450485D01*
X97432484Y-74401680D01*
X97182316Y-74401680D01*
X96936955Y-74450485D01*
X96728863Y-74536680D01*
X88727151Y-74536680D01*
X88671400Y-74531189D01*
X88615648Y-74536680D01*
X88448901Y-74553103D01*
X88234953Y-74618004D01*
X88037777Y-74723396D01*
X87864951Y-74865231D01*
X87829409Y-74908539D01*
X81386904Y-81351045D01*
X81178809Y-81437241D01*
X80970802Y-81576227D01*
X80793907Y-81753122D01*
X80654921Y-81961129D01*
X80559185Y-82192255D01*
X80510380Y-82437616D01*
X70930200Y-82437616D01*
X70930200Y-80408226D01*
X70936900Y-80340199D01*
X70930200Y-80272173D01*
X70930200Y-80272163D01*
X70927660Y-80246374D01*
X70927660Y-77412123D01*
X70907620Y-77208653D01*
X70875606Y-77103119D01*
X70863668Y-76981905D01*
X70813132Y-76815309D01*
X70731065Y-76661773D01*
X70620622Y-76527198D01*
X70532844Y-76455160D01*
X70620622Y-76383122D01*
X70731065Y-76248547D01*
X70813132Y-76095011D01*
X70863668Y-75928415D01*
X70875606Y-75807201D01*
X70907620Y-75701667D01*
X70927660Y-75498197D01*
X70927660Y-74853600D01*
X71730108Y-74853600D01*
X71742368Y-74978082D01*
X71778678Y-75097780D01*
X71837643Y-75208094D01*
X71916995Y-75304785D01*
X72013686Y-75384137D01*
X72124000Y-75443102D01*
X72243698Y-75479412D01*
X72368180Y-75491672D01*
X72782430Y-75488600D01*
X72941180Y-75329850D01*
X72941180Y-74405600D01*
X73195180Y-74405600D01*
X73195180Y-75329850D01*
X73353930Y-75488600D01*
X73768180Y-75491672D01*
X73892662Y-75479412D01*
X74012360Y-75443102D01*
X74122674Y-75384137D01*
X74219365Y-75304785D01*
X74298717Y-75208094D01*
X74357682Y-75097780D01*
X74393992Y-74978082D01*
X74406252Y-74853600D01*
X74403180Y-74564350D01*
X74244430Y-74405600D01*
X73195180Y-74405600D01*
X72941180Y-74405600D01*
X71891930Y-74405600D01*
X71733180Y-74564350D01*
X71730108Y-74853600D01*
X70927660Y-74853600D01*
X70927660Y-73609900D01*
X71739336Y-73609900D01*
X71730108Y-73703600D01*
X71733180Y-73992850D01*
X71891930Y-74151600D01*
X72941180Y-74151600D01*
X72941180Y-74131600D01*
X73195180Y-74131600D01*
X73195180Y-74151600D01*
X74244430Y-74151600D01*
X74403180Y-73992850D01*
X74406252Y-73703600D01*
X74397388Y-73613600D01*
X93926117Y-73613600D01*
X94129587Y-73593560D01*
X94390661Y-73514364D01*
X94631268Y-73385757D01*
X94842161Y-73212681D01*
X95015237Y-73001788D01*
X95143844Y-72761181D01*
X95223040Y-72500107D01*
X95249781Y-72228600D01*
X95223040Y-71957093D01*
X95143844Y-71696019D01*
X95015237Y-71455412D01*
X94842161Y-71244519D01*
X94631268Y-71071443D01*
X94390661Y-70942836D01*
X94129587Y-70863640D01*
X93926117Y-70843600D01*
X73170084Y-70843600D01*
X73132517Y-70839900D01*
X69603069Y-70839900D01*
X69535040Y-70833200D01*
X69467011Y-70839900D01*
X69467003Y-70839900D01*
X69263533Y-70859940D01*
X69002459Y-70939136D01*
X68761852Y-71067743D01*
X68550959Y-71240819D01*
X68377883Y-71451712D01*
X68249276Y-71692319D01*
X68170080Y-71953393D01*
X68143339Y-72224900D01*
X66004072Y-72224900D01*
X66004072Y-71367280D01*
X65991812Y-71242798D01*
X65955502Y-71123100D01*
X65896537Y-71012786D01*
X65817185Y-70916095D01*
X65720494Y-70836743D01*
X65610180Y-70777778D01*
X65564760Y-70764000D01*
X103480001Y-70764000D01*
X103480000Y-87732000D01*
X51968000Y-87732000D01*
X51968000Y-85817620D01*
X68217288Y-85817620D01*
X68229548Y-85942102D01*
X68265858Y-86061800D01*
X68324823Y-86172114D01*
X68404175Y-86268805D01*
X68500866Y-86348157D01*
X68611180Y-86407122D01*
X68730878Y-86443432D01*
X68855360Y-86455692D01*
X69269610Y-86452620D01*
X69428360Y-86293870D01*
X69428360Y-85369620D01*
X69682360Y-85369620D01*
X69682360Y-86293870D01*
X69841110Y-86452620D01*
X70255360Y-86455692D01*
X70379842Y-86443432D01*
X70499540Y-86407122D01*
X70609854Y-86348157D01*
X70706545Y-86268805D01*
X70785897Y-86172114D01*
X70844862Y-86061800D01*
X70881172Y-85942102D01*
X70893432Y-85817620D01*
X70890360Y-85528370D01*
X70731610Y-85369620D01*
X69682360Y-85369620D01*
X69428360Y-85369620D01*
X68379110Y-85369620D01*
X68220360Y-85528370D01*
X68217288Y-85817620D01*
X51968000Y-85817620D01*
X51968000Y-72574171D01*
X60534519Y-72574171D01*
X60631843Y-72848532D01*
X60780822Y-73098635D01*
X60975731Y-73314868D01*
X61209080Y-73488921D01*
X61471901Y-73614105D01*
X61619110Y-73658756D01*
X61849000Y-73537435D01*
X61849000Y-72344280D01*
X60655186Y-72344280D01*
X60534519Y-72574171D01*
X51968000Y-72574171D01*
X51968000Y-70764000D01*
X61848998Y-70764000D01*
X61848998Y-70897124D01*
M02*
