M48
INCH,TZ
T1C0.0157
T2C0.0181
T3C0.0197
T4C0.0354
T5C0.0394
%
G90
G05
T1
X45240Y-40280
X51520Y-38010
X61220Y-40120
X61580Y-38110
X62150Y-39130
T2
X67676Y-45626
X71124Y-45626
X60506Y-45646
X63954Y-45646
X61766Y-33267
X65214Y-33267
X40046Y-45496
X43494Y-45496
X46496Y-45546
X49944Y-45546
X52976Y-45646
X56424Y-45646
X55656Y-33304
X59104Y-33304
T3
X62650Y-35850
X62740Y-38120
X62740Y-40140
X63490Y-34120
X64000Y-40000
X67600Y-39850
T4
X48400Y-36048
X48400Y-36950
X48400Y-37852
X39860Y-35960
X39860Y-36862
X39860Y-37763
T5
X51800Y-39550
X51800Y-40550
X56370Y-38220
X57370Y-38220
X52100Y-41950
X53100Y-41950
X56380Y-36710
X57380Y-36710
X46000Y-33950
X50000Y-33950
X47200Y-42250
X48200Y-42250
X52090Y-33970
X53090Y-33970
X39900Y-40450
X40900Y-40450
X58840Y-38220
X59840Y-38220
X43350Y-40450
X43350Y-41450
X68770Y-34640
X72770Y-34640
X41400Y-34050
X42400Y-34050
X43400Y-34050
X72850Y-36950
X72850Y-37950
X62380Y-42610
X63380Y-42610
X64380Y-42610
X65380Y-42610
T0
M30
