G04 #@! TF.GenerationSoftware,KiCad,Pcbnew,(5.0.2)-1*
G04 #@! TF.CreationDate,2019-06-06T20:52:43-07:00*
G04 #@! TF.ProjectId,Complete PLL Board Rev5,436f6d70-6c65-4746-9520-504c4c20426f,rev?*
G04 #@! TF.SameCoordinates,Original*
G04 #@! TF.FileFunction,Paste,Top*
G04 #@! TF.FilePolarity,Positive*
%FSLAX46Y46*%
G04 Gerber Fmt 4.6, Leading zero omitted, Abs format (unit mm)*
G04 Created by KiCad (PCBNEW (5.0.2)-1) date 6/6/2019 8:52:43 PM*
%MOMM*%
%LPD*%
G01*
G04 APERTURE LIST*
%ADD10R,2.290000X5.080000*%
%ADD11R,2.420000X5.080000*%
%ADD12C,0.100000*%
%ADD13C,1.150000*%
%ADD14R,1.600000X2.000000*%
%ADD15R,1.100000X0.600000*%
%ADD16R,0.600000X1.100000*%
%ADD17R,0.450000X0.300000*%
%ADD18R,0.300000X0.450000*%
G04 APERTURE END LIST*
D10*
G04 #@! TO.C,VCO_Out*
X106095800Y-118999000D03*
D11*
X101715800Y-118999000D03*
X110475800Y-118999000D03*
G04 #@! TD*
D12*
G04 #@! TO.C,R13*
G36*
X129669905Y-95770404D02*
X129694173Y-95774004D01*
X129717972Y-95779965D01*
X129741071Y-95788230D01*
X129763250Y-95798720D01*
X129784293Y-95811332D01*
X129803999Y-95825947D01*
X129822177Y-95842423D01*
X129838653Y-95860601D01*
X129853268Y-95880307D01*
X129865880Y-95901350D01*
X129876370Y-95923529D01*
X129884635Y-95946628D01*
X129890596Y-95970427D01*
X129894196Y-95994695D01*
X129895400Y-96019199D01*
X129895400Y-96919201D01*
X129894196Y-96943705D01*
X129890596Y-96967973D01*
X129884635Y-96991772D01*
X129876370Y-97014871D01*
X129865880Y-97037050D01*
X129853268Y-97058093D01*
X129838653Y-97077799D01*
X129822177Y-97095977D01*
X129803999Y-97112453D01*
X129784293Y-97127068D01*
X129763250Y-97139680D01*
X129741071Y-97150170D01*
X129717972Y-97158435D01*
X129694173Y-97164396D01*
X129669905Y-97167996D01*
X129645401Y-97169200D01*
X128995399Y-97169200D01*
X128970895Y-97167996D01*
X128946627Y-97164396D01*
X128922828Y-97158435D01*
X128899729Y-97150170D01*
X128877550Y-97139680D01*
X128856507Y-97127068D01*
X128836801Y-97112453D01*
X128818623Y-97095977D01*
X128802147Y-97077799D01*
X128787532Y-97058093D01*
X128774920Y-97037050D01*
X128764430Y-97014871D01*
X128756165Y-96991772D01*
X128750204Y-96967973D01*
X128746604Y-96943705D01*
X128745400Y-96919201D01*
X128745400Y-96019199D01*
X128746604Y-95994695D01*
X128750204Y-95970427D01*
X128756165Y-95946628D01*
X128764430Y-95923529D01*
X128774920Y-95901350D01*
X128787532Y-95880307D01*
X128802147Y-95860601D01*
X128818623Y-95842423D01*
X128836801Y-95825947D01*
X128856507Y-95811332D01*
X128877550Y-95798720D01*
X128899729Y-95788230D01*
X128922828Y-95779965D01*
X128946627Y-95774004D01*
X128970895Y-95770404D01*
X128995399Y-95769200D01*
X129645401Y-95769200D01*
X129669905Y-95770404D01*
X129669905Y-95770404D01*
G37*
D13*
X129320400Y-96469200D03*
D12*
G36*
X127619905Y-95770404D02*
X127644173Y-95774004D01*
X127667972Y-95779965D01*
X127691071Y-95788230D01*
X127713250Y-95798720D01*
X127734293Y-95811332D01*
X127753999Y-95825947D01*
X127772177Y-95842423D01*
X127788653Y-95860601D01*
X127803268Y-95880307D01*
X127815880Y-95901350D01*
X127826370Y-95923529D01*
X127834635Y-95946628D01*
X127840596Y-95970427D01*
X127844196Y-95994695D01*
X127845400Y-96019199D01*
X127845400Y-96919201D01*
X127844196Y-96943705D01*
X127840596Y-96967973D01*
X127834635Y-96991772D01*
X127826370Y-97014871D01*
X127815880Y-97037050D01*
X127803268Y-97058093D01*
X127788653Y-97077799D01*
X127772177Y-97095977D01*
X127753999Y-97112453D01*
X127734293Y-97127068D01*
X127713250Y-97139680D01*
X127691071Y-97150170D01*
X127667972Y-97158435D01*
X127644173Y-97164396D01*
X127619905Y-97167996D01*
X127595401Y-97169200D01*
X126945399Y-97169200D01*
X126920895Y-97167996D01*
X126896627Y-97164396D01*
X126872828Y-97158435D01*
X126849729Y-97150170D01*
X126827550Y-97139680D01*
X126806507Y-97127068D01*
X126786801Y-97112453D01*
X126768623Y-97095977D01*
X126752147Y-97077799D01*
X126737532Y-97058093D01*
X126724920Y-97037050D01*
X126714430Y-97014871D01*
X126706165Y-96991772D01*
X126700204Y-96967973D01*
X126696604Y-96943705D01*
X126695400Y-96919201D01*
X126695400Y-96019199D01*
X126696604Y-95994695D01*
X126700204Y-95970427D01*
X126706165Y-95946628D01*
X126714430Y-95923529D01*
X126724920Y-95901350D01*
X126737532Y-95880307D01*
X126752147Y-95860601D01*
X126768623Y-95842423D01*
X126786801Y-95825947D01*
X126806507Y-95811332D01*
X126827550Y-95798720D01*
X126849729Y-95788230D01*
X126872828Y-95779965D01*
X126896627Y-95774004D01*
X126920895Y-95770404D01*
X126945399Y-95769200D01*
X127595401Y-95769200D01*
X127619905Y-95770404D01*
X127619905Y-95770404D01*
G37*
D13*
X127270400Y-96469200D03*
G04 #@! TD*
D11*
G04 #@! TO.C,VCO_Test*
X126858800Y-119126000D03*
X118098800Y-119126000D03*
D10*
X122478800Y-119126000D03*
G04 #@! TD*
G04 #@! TO.C,Ref_Osc*
X138938000Y-119380000D03*
D11*
X134558000Y-119380000D03*
X143318000Y-119380000D03*
G04 #@! TD*
G04 #@! TO.C,Test_CPo*
X141365200Y-81153000D03*
X150125200Y-81153000D03*
D10*
X145745200Y-81153000D03*
G04 #@! TD*
D12*
G04 #@! TO.C,C27*
G36*
X127621505Y-97853204D02*
X127645773Y-97856804D01*
X127669572Y-97862765D01*
X127692671Y-97871030D01*
X127714850Y-97881520D01*
X127735893Y-97894132D01*
X127755599Y-97908747D01*
X127773777Y-97925223D01*
X127790253Y-97943401D01*
X127804868Y-97963107D01*
X127817480Y-97984150D01*
X127827970Y-98006329D01*
X127836235Y-98029428D01*
X127842196Y-98053227D01*
X127845796Y-98077495D01*
X127847000Y-98101999D01*
X127847000Y-99002001D01*
X127845796Y-99026505D01*
X127842196Y-99050773D01*
X127836235Y-99074572D01*
X127827970Y-99097671D01*
X127817480Y-99119850D01*
X127804868Y-99140893D01*
X127790253Y-99160599D01*
X127773777Y-99178777D01*
X127755599Y-99195253D01*
X127735893Y-99209868D01*
X127714850Y-99222480D01*
X127692671Y-99232970D01*
X127669572Y-99241235D01*
X127645773Y-99247196D01*
X127621505Y-99250796D01*
X127597001Y-99252000D01*
X126946999Y-99252000D01*
X126922495Y-99250796D01*
X126898227Y-99247196D01*
X126874428Y-99241235D01*
X126851329Y-99232970D01*
X126829150Y-99222480D01*
X126808107Y-99209868D01*
X126788401Y-99195253D01*
X126770223Y-99178777D01*
X126753747Y-99160599D01*
X126739132Y-99140893D01*
X126726520Y-99119850D01*
X126716030Y-99097671D01*
X126707765Y-99074572D01*
X126701804Y-99050773D01*
X126698204Y-99026505D01*
X126697000Y-99002001D01*
X126697000Y-98101999D01*
X126698204Y-98077495D01*
X126701804Y-98053227D01*
X126707765Y-98029428D01*
X126716030Y-98006329D01*
X126726520Y-97984150D01*
X126739132Y-97963107D01*
X126753747Y-97943401D01*
X126770223Y-97925223D01*
X126788401Y-97908747D01*
X126808107Y-97894132D01*
X126829150Y-97881520D01*
X126851329Y-97871030D01*
X126874428Y-97862765D01*
X126898227Y-97856804D01*
X126922495Y-97853204D01*
X126946999Y-97852000D01*
X127597001Y-97852000D01*
X127621505Y-97853204D01*
X127621505Y-97853204D01*
G37*
D13*
X127272000Y-98552000D03*
D12*
G36*
X125571505Y-97853204D02*
X125595773Y-97856804D01*
X125619572Y-97862765D01*
X125642671Y-97871030D01*
X125664850Y-97881520D01*
X125685893Y-97894132D01*
X125705599Y-97908747D01*
X125723777Y-97925223D01*
X125740253Y-97943401D01*
X125754868Y-97963107D01*
X125767480Y-97984150D01*
X125777970Y-98006329D01*
X125786235Y-98029428D01*
X125792196Y-98053227D01*
X125795796Y-98077495D01*
X125797000Y-98101999D01*
X125797000Y-99002001D01*
X125795796Y-99026505D01*
X125792196Y-99050773D01*
X125786235Y-99074572D01*
X125777970Y-99097671D01*
X125767480Y-99119850D01*
X125754868Y-99140893D01*
X125740253Y-99160599D01*
X125723777Y-99178777D01*
X125705599Y-99195253D01*
X125685893Y-99209868D01*
X125664850Y-99222480D01*
X125642671Y-99232970D01*
X125619572Y-99241235D01*
X125595773Y-99247196D01*
X125571505Y-99250796D01*
X125547001Y-99252000D01*
X124896999Y-99252000D01*
X124872495Y-99250796D01*
X124848227Y-99247196D01*
X124824428Y-99241235D01*
X124801329Y-99232970D01*
X124779150Y-99222480D01*
X124758107Y-99209868D01*
X124738401Y-99195253D01*
X124720223Y-99178777D01*
X124703747Y-99160599D01*
X124689132Y-99140893D01*
X124676520Y-99119850D01*
X124666030Y-99097671D01*
X124657765Y-99074572D01*
X124651804Y-99050773D01*
X124648204Y-99026505D01*
X124647000Y-99002001D01*
X124647000Y-98101999D01*
X124648204Y-98077495D01*
X124651804Y-98053227D01*
X124657765Y-98029428D01*
X124666030Y-98006329D01*
X124676520Y-97984150D01*
X124689132Y-97963107D01*
X124703747Y-97943401D01*
X124720223Y-97925223D01*
X124738401Y-97908747D01*
X124758107Y-97894132D01*
X124779150Y-97881520D01*
X124801329Y-97871030D01*
X124824428Y-97862765D01*
X124848227Y-97856804D01*
X124872495Y-97853204D01*
X124896999Y-97852000D01*
X125547001Y-97852000D01*
X125571505Y-97853204D01*
X125571505Y-97853204D01*
G37*
D13*
X125222000Y-98552000D03*
G04 #@! TD*
D12*
G04 #@! TO.C,R10*
G36*
X104360505Y-95387404D02*
X104384773Y-95391004D01*
X104408572Y-95396965D01*
X104431671Y-95405230D01*
X104453850Y-95415720D01*
X104474893Y-95428332D01*
X104494599Y-95442947D01*
X104512777Y-95459423D01*
X104529253Y-95477601D01*
X104543868Y-95497307D01*
X104556480Y-95518350D01*
X104566970Y-95540529D01*
X104575235Y-95563628D01*
X104581196Y-95587427D01*
X104584796Y-95611695D01*
X104586000Y-95636199D01*
X104586000Y-96286201D01*
X104584796Y-96310705D01*
X104581196Y-96334973D01*
X104575235Y-96358772D01*
X104566970Y-96381871D01*
X104556480Y-96404050D01*
X104543868Y-96425093D01*
X104529253Y-96444799D01*
X104512777Y-96462977D01*
X104494599Y-96479453D01*
X104474893Y-96494068D01*
X104453850Y-96506680D01*
X104431671Y-96517170D01*
X104408572Y-96525435D01*
X104384773Y-96531396D01*
X104360505Y-96534996D01*
X104336001Y-96536200D01*
X103435999Y-96536200D01*
X103411495Y-96534996D01*
X103387227Y-96531396D01*
X103363428Y-96525435D01*
X103340329Y-96517170D01*
X103318150Y-96506680D01*
X103297107Y-96494068D01*
X103277401Y-96479453D01*
X103259223Y-96462977D01*
X103242747Y-96444799D01*
X103228132Y-96425093D01*
X103215520Y-96404050D01*
X103205030Y-96381871D01*
X103196765Y-96358772D01*
X103190804Y-96334973D01*
X103187204Y-96310705D01*
X103186000Y-96286201D01*
X103186000Y-95636199D01*
X103187204Y-95611695D01*
X103190804Y-95587427D01*
X103196765Y-95563628D01*
X103205030Y-95540529D01*
X103215520Y-95518350D01*
X103228132Y-95497307D01*
X103242747Y-95477601D01*
X103259223Y-95459423D01*
X103277401Y-95442947D01*
X103297107Y-95428332D01*
X103318150Y-95415720D01*
X103340329Y-95405230D01*
X103363428Y-95396965D01*
X103387227Y-95391004D01*
X103411495Y-95387404D01*
X103435999Y-95386200D01*
X104336001Y-95386200D01*
X104360505Y-95387404D01*
X104360505Y-95387404D01*
G37*
D13*
X103886000Y-95961200D03*
D12*
G36*
X104360505Y-97437404D02*
X104384773Y-97441004D01*
X104408572Y-97446965D01*
X104431671Y-97455230D01*
X104453850Y-97465720D01*
X104474893Y-97478332D01*
X104494599Y-97492947D01*
X104512777Y-97509423D01*
X104529253Y-97527601D01*
X104543868Y-97547307D01*
X104556480Y-97568350D01*
X104566970Y-97590529D01*
X104575235Y-97613628D01*
X104581196Y-97637427D01*
X104584796Y-97661695D01*
X104586000Y-97686199D01*
X104586000Y-98336201D01*
X104584796Y-98360705D01*
X104581196Y-98384973D01*
X104575235Y-98408772D01*
X104566970Y-98431871D01*
X104556480Y-98454050D01*
X104543868Y-98475093D01*
X104529253Y-98494799D01*
X104512777Y-98512977D01*
X104494599Y-98529453D01*
X104474893Y-98544068D01*
X104453850Y-98556680D01*
X104431671Y-98567170D01*
X104408572Y-98575435D01*
X104384773Y-98581396D01*
X104360505Y-98584996D01*
X104336001Y-98586200D01*
X103435999Y-98586200D01*
X103411495Y-98584996D01*
X103387227Y-98581396D01*
X103363428Y-98575435D01*
X103340329Y-98567170D01*
X103318150Y-98556680D01*
X103297107Y-98544068D01*
X103277401Y-98529453D01*
X103259223Y-98512977D01*
X103242747Y-98494799D01*
X103228132Y-98475093D01*
X103215520Y-98454050D01*
X103205030Y-98431871D01*
X103196765Y-98408772D01*
X103190804Y-98384973D01*
X103187204Y-98360705D01*
X103186000Y-98336201D01*
X103186000Y-97686199D01*
X103187204Y-97661695D01*
X103190804Y-97637427D01*
X103196765Y-97613628D01*
X103205030Y-97590529D01*
X103215520Y-97568350D01*
X103228132Y-97547307D01*
X103242747Y-97527601D01*
X103259223Y-97509423D01*
X103277401Y-97492947D01*
X103297107Y-97478332D01*
X103318150Y-97465720D01*
X103340329Y-97455230D01*
X103363428Y-97446965D01*
X103387227Y-97441004D01*
X103411495Y-97437404D01*
X103435999Y-97436200D01*
X104336001Y-97436200D01*
X104360505Y-97437404D01*
X104360505Y-97437404D01*
G37*
D13*
X103886000Y-98011200D03*
G04 #@! TD*
D12*
G04 #@! TO.C,R12*
G36*
X122902505Y-102169204D02*
X122926773Y-102172804D01*
X122950572Y-102178765D01*
X122973671Y-102187030D01*
X122995850Y-102197520D01*
X123016893Y-102210132D01*
X123036599Y-102224747D01*
X123054777Y-102241223D01*
X123071253Y-102259401D01*
X123085868Y-102279107D01*
X123098480Y-102300150D01*
X123108970Y-102322329D01*
X123117235Y-102345428D01*
X123123196Y-102369227D01*
X123126796Y-102393495D01*
X123128000Y-102417999D01*
X123128000Y-103068001D01*
X123126796Y-103092505D01*
X123123196Y-103116773D01*
X123117235Y-103140572D01*
X123108970Y-103163671D01*
X123098480Y-103185850D01*
X123085868Y-103206893D01*
X123071253Y-103226599D01*
X123054777Y-103244777D01*
X123036599Y-103261253D01*
X123016893Y-103275868D01*
X122995850Y-103288480D01*
X122973671Y-103298970D01*
X122950572Y-103307235D01*
X122926773Y-103313196D01*
X122902505Y-103316796D01*
X122878001Y-103318000D01*
X121977999Y-103318000D01*
X121953495Y-103316796D01*
X121929227Y-103313196D01*
X121905428Y-103307235D01*
X121882329Y-103298970D01*
X121860150Y-103288480D01*
X121839107Y-103275868D01*
X121819401Y-103261253D01*
X121801223Y-103244777D01*
X121784747Y-103226599D01*
X121770132Y-103206893D01*
X121757520Y-103185850D01*
X121747030Y-103163671D01*
X121738765Y-103140572D01*
X121732804Y-103116773D01*
X121729204Y-103092505D01*
X121728000Y-103068001D01*
X121728000Y-102417999D01*
X121729204Y-102393495D01*
X121732804Y-102369227D01*
X121738765Y-102345428D01*
X121747030Y-102322329D01*
X121757520Y-102300150D01*
X121770132Y-102279107D01*
X121784747Y-102259401D01*
X121801223Y-102241223D01*
X121819401Y-102224747D01*
X121839107Y-102210132D01*
X121860150Y-102197520D01*
X121882329Y-102187030D01*
X121905428Y-102178765D01*
X121929227Y-102172804D01*
X121953495Y-102169204D01*
X121977999Y-102168000D01*
X122878001Y-102168000D01*
X122902505Y-102169204D01*
X122902505Y-102169204D01*
G37*
D13*
X122428000Y-102743000D03*
D12*
G36*
X122902505Y-104219204D02*
X122926773Y-104222804D01*
X122950572Y-104228765D01*
X122973671Y-104237030D01*
X122995850Y-104247520D01*
X123016893Y-104260132D01*
X123036599Y-104274747D01*
X123054777Y-104291223D01*
X123071253Y-104309401D01*
X123085868Y-104329107D01*
X123098480Y-104350150D01*
X123108970Y-104372329D01*
X123117235Y-104395428D01*
X123123196Y-104419227D01*
X123126796Y-104443495D01*
X123128000Y-104467999D01*
X123128000Y-105118001D01*
X123126796Y-105142505D01*
X123123196Y-105166773D01*
X123117235Y-105190572D01*
X123108970Y-105213671D01*
X123098480Y-105235850D01*
X123085868Y-105256893D01*
X123071253Y-105276599D01*
X123054777Y-105294777D01*
X123036599Y-105311253D01*
X123016893Y-105325868D01*
X122995850Y-105338480D01*
X122973671Y-105348970D01*
X122950572Y-105357235D01*
X122926773Y-105363196D01*
X122902505Y-105366796D01*
X122878001Y-105368000D01*
X121977999Y-105368000D01*
X121953495Y-105366796D01*
X121929227Y-105363196D01*
X121905428Y-105357235D01*
X121882329Y-105348970D01*
X121860150Y-105338480D01*
X121839107Y-105325868D01*
X121819401Y-105311253D01*
X121801223Y-105294777D01*
X121784747Y-105276599D01*
X121770132Y-105256893D01*
X121757520Y-105235850D01*
X121747030Y-105213671D01*
X121738765Y-105190572D01*
X121732804Y-105166773D01*
X121729204Y-105142505D01*
X121728000Y-105118001D01*
X121728000Y-104467999D01*
X121729204Y-104443495D01*
X121732804Y-104419227D01*
X121738765Y-104395428D01*
X121747030Y-104372329D01*
X121757520Y-104350150D01*
X121770132Y-104329107D01*
X121784747Y-104309401D01*
X121801223Y-104291223D01*
X121819401Y-104274747D01*
X121839107Y-104260132D01*
X121860150Y-104247520D01*
X121882329Y-104237030D01*
X121905428Y-104228765D01*
X121929227Y-104222804D01*
X121953495Y-104219204D01*
X121977999Y-104218000D01*
X122878001Y-104218000D01*
X122902505Y-104219204D01*
X122902505Y-104219204D01*
G37*
D13*
X122428000Y-104793000D03*
G04 #@! TD*
D14*
G04 #@! TO.C,C19*
X117348000Y-96139000D03*
X117348000Y-102139000D03*
G04 #@! TD*
D12*
G04 #@! TO.C,R8*
G36*
X108317505Y-95262404D02*
X108341773Y-95266004D01*
X108365572Y-95271965D01*
X108388671Y-95280230D01*
X108410850Y-95290720D01*
X108431893Y-95303332D01*
X108451599Y-95317947D01*
X108469777Y-95334423D01*
X108486253Y-95352601D01*
X108500868Y-95372307D01*
X108513480Y-95393350D01*
X108523970Y-95415529D01*
X108532235Y-95438628D01*
X108538196Y-95462427D01*
X108541796Y-95486695D01*
X108543000Y-95511199D01*
X108543000Y-96411201D01*
X108541796Y-96435705D01*
X108538196Y-96459973D01*
X108532235Y-96483772D01*
X108523970Y-96506871D01*
X108513480Y-96529050D01*
X108500868Y-96550093D01*
X108486253Y-96569799D01*
X108469777Y-96587977D01*
X108451599Y-96604453D01*
X108431893Y-96619068D01*
X108410850Y-96631680D01*
X108388671Y-96642170D01*
X108365572Y-96650435D01*
X108341773Y-96656396D01*
X108317505Y-96659996D01*
X108293001Y-96661200D01*
X107642999Y-96661200D01*
X107618495Y-96659996D01*
X107594227Y-96656396D01*
X107570428Y-96650435D01*
X107547329Y-96642170D01*
X107525150Y-96631680D01*
X107504107Y-96619068D01*
X107484401Y-96604453D01*
X107466223Y-96587977D01*
X107449747Y-96569799D01*
X107435132Y-96550093D01*
X107422520Y-96529050D01*
X107412030Y-96506871D01*
X107403765Y-96483772D01*
X107397804Y-96459973D01*
X107394204Y-96435705D01*
X107393000Y-96411201D01*
X107393000Y-95511199D01*
X107394204Y-95486695D01*
X107397804Y-95462427D01*
X107403765Y-95438628D01*
X107412030Y-95415529D01*
X107422520Y-95393350D01*
X107435132Y-95372307D01*
X107449747Y-95352601D01*
X107466223Y-95334423D01*
X107484401Y-95317947D01*
X107504107Y-95303332D01*
X107525150Y-95290720D01*
X107547329Y-95280230D01*
X107570428Y-95271965D01*
X107594227Y-95266004D01*
X107618495Y-95262404D01*
X107642999Y-95261200D01*
X108293001Y-95261200D01*
X108317505Y-95262404D01*
X108317505Y-95262404D01*
G37*
D13*
X107968000Y-95961200D03*
D12*
G36*
X106267505Y-95262404D02*
X106291773Y-95266004D01*
X106315572Y-95271965D01*
X106338671Y-95280230D01*
X106360850Y-95290720D01*
X106381893Y-95303332D01*
X106401599Y-95317947D01*
X106419777Y-95334423D01*
X106436253Y-95352601D01*
X106450868Y-95372307D01*
X106463480Y-95393350D01*
X106473970Y-95415529D01*
X106482235Y-95438628D01*
X106488196Y-95462427D01*
X106491796Y-95486695D01*
X106493000Y-95511199D01*
X106493000Y-96411201D01*
X106491796Y-96435705D01*
X106488196Y-96459973D01*
X106482235Y-96483772D01*
X106473970Y-96506871D01*
X106463480Y-96529050D01*
X106450868Y-96550093D01*
X106436253Y-96569799D01*
X106419777Y-96587977D01*
X106401599Y-96604453D01*
X106381893Y-96619068D01*
X106360850Y-96631680D01*
X106338671Y-96642170D01*
X106315572Y-96650435D01*
X106291773Y-96656396D01*
X106267505Y-96659996D01*
X106243001Y-96661200D01*
X105592999Y-96661200D01*
X105568495Y-96659996D01*
X105544227Y-96656396D01*
X105520428Y-96650435D01*
X105497329Y-96642170D01*
X105475150Y-96631680D01*
X105454107Y-96619068D01*
X105434401Y-96604453D01*
X105416223Y-96587977D01*
X105399747Y-96569799D01*
X105385132Y-96550093D01*
X105372520Y-96529050D01*
X105362030Y-96506871D01*
X105353765Y-96483772D01*
X105347804Y-96459973D01*
X105344204Y-96435705D01*
X105343000Y-96411201D01*
X105343000Y-95511199D01*
X105344204Y-95486695D01*
X105347804Y-95462427D01*
X105353765Y-95438628D01*
X105362030Y-95415529D01*
X105372520Y-95393350D01*
X105385132Y-95372307D01*
X105399747Y-95352601D01*
X105416223Y-95334423D01*
X105434401Y-95317947D01*
X105454107Y-95303332D01*
X105475150Y-95290720D01*
X105497329Y-95280230D01*
X105520428Y-95271965D01*
X105544227Y-95266004D01*
X105568495Y-95262404D01*
X105592999Y-95261200D01*
X106243001Y-95261200D01*
X106267505Y-95262404D01*
X106267505Y-95262404D01*
G37*
D13*
X105918000Y-95961200D03*
G04 #@! TD*
D12*
G04 #@! TO.C,C17*
G36*
X101820505Y-107013204D02*
X101844773Y-107016804D01*
X101868572Y-107022765D01*
X101891671Y-107031030D01*
X101913850Y-107041520D01*
X101934893Y-107054132D01*
X101954599Y-107068747D01*
X101972777Y-107085223D01*
X101989253Y-107103401D01*
X102003868Y-107123107D01*
X102016480Y-107144150D01*
X102026970Y-107166329D01*
X102035235Y-107189428D01*
X102041196Y-107213227D01*
X102044796Y-107237495D01*
X102046000Y-107261999D01*
X102046000Y-107912001D01*
X102044796Y-107936505D01*
X102041196Y-107960773D01*
X102035235Y-107984572D01*
X102026970Y-108007671D01*
X102016480Y-108029850D01*
X102003868Y-108050893D01*
X101989253Y-108070599D01*
X101972777Y-108088777D01*
X101954599Y-108105253D01*
X101934893Y-108119868D01*
X101913850Y-108132480D01*
X101891671Y-108142970D01*
X101868572Y-108151235D01*
X101844773Y-108157196D01*
X101820505Y-108160796D01*
X101796001Y-108162000D01*
X100895999Y-108162000D01*
X100871495Y-108160796D01*
X100847227Y-108157196D01*
X100823428Y-108151235D01*
X100800329Y-108142970D01*
X100778150Y-108132480D01*
X100757107Y-108119868D01*
X100737401Y-108105253D01*
X100719223Y-108088777D01*
X100702747Y-108070599D01*
X100688132Y-108050893D01*
X100675520Y-108029850D01*
X100665030Y-108007671D01*
X100656765Y-107984572D01*
X100650804Y-107960773D01*
X100647204Y-107936505D01*
X100646000Y-107912001D01*
X100646000Y-107261999D01*
X100647204Y-107237495D01*
X100650804Y-107213227D01*
X100656765Y-107189428D01*
X100665030Y-107166329D01*
X100675520Y-107144150D01*
X100688132Y-107123107D01*
X100702747Y-107103401D01*
X100719223Y-107085223D01*
X100737401Y-107068747D01*
X100757107Y-107054132D01*
X100778150Y-107041520D01*
X100800329Y-107031030D01*
X100823428Y-107022765D01*
X100847227Y-107016804D01*
X100871495Y-107013204D01*
X100895999Y-107012000D01*
X101796001Y-107012000D01*
X101820505Y-107013204D01*
X101820505Y-107013204D01*
G37*
D13*
X101346000Y-107587000D03*
D12*
G36*
X101820505Y-104963204D02*
X101844773Y-104966804D01*
X101868572Y-104972765D01*
X101891671Y-104981030D01*
X101913850Y-104991520D01*
X101934893Y-105004132D01*
X101954599Y-105018747D01*
X101972777Y-105035223D01*
X101989253Y-105053401D01*
X102003868Y-105073107D01*
X102016480Y-105094150D01*
X102026970Y-105116329D01*
X102035235Y-105139428D01*
X102041196Y-105163227D01*
X102044796Y-105187495D01*
X102046000Y-105211999D01*
X102046000Y-105862001D01*
X102044796Y-105886505D01*
X102041196Y-105910773D01*
X102035235Y-105934572D01*
X102026970Y-105957671D01*
X102016480Y-105979850D01*
X102003868Y-106000893D01*
X101989253Y-106020599D01*
X101972777Y-106038777D01*
X101954599Y-106055253D01*
X101934893Y-106069868D01*
X101913850Y-106082480D01*
X101891671Y-106092970D01*
X101868572Y-106101235D01*
X101844773Y-106107196D01*
X101820505Y-106110796D01*
X101796001Y-106112000D01*
X100895999Y-106112000D01*
X100871495Y-106110796D01*
X100847227Y-106107196D01*
X100823428Y-106101235D01*
X100800329Y-106092970D01*
X100778150Y-106082480D01*
X100757107Y-106069868D01*
X100737401Y-106055253D01*
X100719223Y-106038777D01*
X100702747Y-106020599D01*
X100688132Y-106000893D01*
X100675520Y-105979850D01*
X100665030Y-105957671D01*
X100656765Y-105934572D01*
X100650804Y-105910773D01*
X100647204Y-105886505D01*
X100646000Y-105862001D01*
X100646000Y-105211999D01*
X100647204Y-105187495D01*
X100650804Y-105163227D01*
X100656765Y-105139428D01*
X100665030Y-105116329D01*
X100675520Y-105094150D01*
X100688132Y-105073107D01*
X100702747Y-105053401D01*
X100719223Y-105035223D01*
X100737401Y-105018747D01*
X100757107Y-105004132D01*
X100778150Y-104991520D01*
X100800329Y-104981030D01*
X100823428Y-104972765D01*
X100847227Y-104966804D01*
X100871495Y-104963204D01*
X100895999Y-104962000D01*
X101796001Y-104962000D01*
X101820505Y-104963204D01*
X101820505Y-104963204D01*
G37*
D13*
X101346000Y-105537000D03*
G04 #@! TD*
D11*
G04 #@! TO.C,FoLD1*
X180656000Y-119329200D03*
X171896000Y-119329200D03*
D10*
X176276000Y-119329200D03*
G04 #@! TD*
G04 #@! TO.C,FL1*
X161264600Y-81058600D03*
D11*
X165644600Y-81058600D03*
X156884600Y-81058600D03*
G04 #@! TD*
D10*
G04 #@! TO.C,OSC_OUT*
X158064200Y-119380000D03*
D11*
X153684200Y-119380000D03*
X162444200Y-119380000D03*
G04 #@! TD*
D12*
G04 #@! TO.C,C1*
G36*
X175124905Y-82331804D02*
X175149173Y-82335404D01*
X175172972Y-82341365D01*
X175196071Y-82349630D01*
X175218250Y-82360120D01*
X175239293Y-82372732D01*
X175258999Y-82387347D01*
X175277177Y-82403823D01*
X175293653Y-82422001D01*
X175308268Y-82441707D01*
X175320880Y-82462750D01*
X175331370Y-82484929D01*
X175339635Y-82508028D01*
X175345596Y-82531827D01*
X175349196Y-82556095D01*
X175350400Y-82580599D01*
X175350400Y-83230601D01*
X175349196Y-83255105D01*
X175345596Y-83279373D01*
X175339635Y-83303172D01*
X175331370Y-83326271D01*
X175320880Y-83348450D01*
X175308268Y-83369493D01*
X175293653Y-83389199D01*
X175277177Y-83407377D01*
X175258999Y-83423853D01*
X175239293Y-83438468D01*
X175218250Y-83451080D01*
X175196071Y-83461570D01*
X175172972Y-83469835D01*
X175149173Y-83475796D01*
X175124905Y-83479396D01*
X175100401Y-83480600D01*
X174200399Y-83480600D01*
X174175895Y-83479396D01*
X174151627Y-83475796D01*
X174127828Y-83469835D01*
X174104729Y-83461570D01*
X174082550Y-83451080D01*
X174061507Y-83438468D01*
X174041801Y-83423853D01*
X174023623Y-83407377D01*
X174007147Y-83389199D01*
X173992532Y-83369493D01*
X173979920Y-83348450D01*
X173969430Y-83326271D01*
X173961165Y-83303172D01*
X173955204Y-83279373D01*
X173951604Y-83255105D01*
X173950400Y-83230601D01*
X173950400Y-82580599D01*
X173951604Y-82556095D01*
X173955204Y-82531827D01*
X173961165Y-82508028D01*
X173969430Y-82484929D01*
X173979920Y-82462750D01*
X173992532Y-82441707D01*
X174007147Y-82422001D01*
X174023623Y-82403823D01*
X174041801Y-82387347D01*
X174061507Y-82372732D01*
X174082550Y-82360120D01*
X174104729Y-82349630D01*
X174127828Y-82341365D01*
X174151627Y-82335404D01*
X174175895Y-82331804D01*
X174200399Y-82330600D01*
X175100401Y-82330600D01*
X175124905Y-82331804D01*
X175124905Y-82331804D01*
G37*
D13*
X174650400Y-82905600D03*
D12*
G36*
X175124905Y-84381804D02*
X175149173Y-84385404D01*
X175172972Y-84391365D01*
X175196071Y-84399630D01*
X175218250Y-84410120D01*
X175239293Y-84422732D01*
X175258999Y-84437347D01*
X175277177Y-84453823D01*
X175293653Y-84472001D01*
X175308268Y-84491707D01*
X175320880Y-84512750D01*
X175331370Y-84534929D01*
X175339635Y-84558028D01*
X175345596Y-84581827D01*
X175349196Y-84606095D01*
X175350400Y-84630599D01*
X175350400Y-85280601D01*
X175349196Y-85305105D01*
X175345596Y-85329373D01*
X175339635Y-85353172D01*
X175331370Y-85376271D01*
X175320880Y-85398450D01*
X175308268Y-85419493D01*
X175293653Y-85439199D01*
X175277177Y-85457377D01*
X175258999Y-85473853D01*
X175239293Y-85488468D01*
X175218250Y-85501080D01*
X175196071Y-85511570D01*
X175172972Y-85519835D01*
X175149173Y-85525796D01*
X175124905Y-85529396D01*
X175100401Y-85530600D01*
X174200399Y-85530600D01*
X174175895Y-85529396D01*
X174151627Y-85525796D01*
X174127828Y-85519835D01*
X174104729Y-85511570D01*
X174082550Y-85501080D01*
X174061507Y-85488468D01*
X174041801Y-85473853D01*
X174023623Y-85457377D01*
X174007147Y-85439199D01*
X173992532Y-85419493D01*
X173979920Y-85398450D01*
X173969430Y-85376271D01*
X173961165Y-85353172D01*
X173955204Y-85329373D01*
X173951604Y-85305105D01*
X173950400Y-85280601D01*
X173950400Y-84630599D01*
X173951604Y-84606095D01*
X173955204Y-84581827D01*
X173961165Y-84558028D01*
X173969430Y-84534929D01*
X173979920Y-84512750D01*
X173992532Y-84491707D01*
X174007147Y-84472001D01*
X174023623Y-84453823D01*
X174041801Y-84437347D01*
X174061507Y-84422732D01*
X174082550Y-84410120D01*
X174104729Y-84399630D01*
X174127828Y-84391365D01*
X174151627Y-84385404D01*
X174175895Y-84381804D01*
X174200399Y-84380600D01*
X175100401Y-84380600D01*
X175124905Y-84381804D01*
X175124905Y-84381804D01*
G37*
D13*
X174650400Y-84955600D03*
G04 #@! TD*
D12*
G04 #@! TO.C,C2*
G36*
X166641305Y-99901204D02*
X166665573Y-99904804D01*
X166689372Y-99910765D01*
X166712471Y-99919030D01*
X166734650Y-99929520D01*
X166755693Y-99942132D01*
X166775399Y-99956747D01*
X166793577Y-99973223D01*
X166810053Y-99991401D01*
X166824668Y-100011107D01*
X166837280Y-100032150D01*
X166847770Y-100054329D01*
X166856035Y-100077428D01*
X166861996Y-100101227D01*
X166865596Y-100125495D01*
X166866800Y-100149999D01*
X166866800Y-100800001D01*
X166865596Y-100824505D01*
X166861996Y-100848773D01*
X166856035Y-100872572D01*
X166847770Y-100895671D01*
X166837280Y-100917850D01*
X166824668Y-100938893D01*
X166810053Y-100958599D01*
X166793577Y-100976777D01*
X166775399Y-100993253D01*
X166755693Y-101007868D01*
X166734650Y-101020480D01*
X166712471Y-101030970D01*
X166689372Y-101039235D01*
X166665573Y-101045196D01*
X166641305Y-101048796D01*
X166616801Y-101050000D01*
X165716799Y-101050000D01*
X165692295Y-101048796D01*
X165668027Y-101045196D01*
X165644228Y-101039235D01*
X165621129Y-101030970D01*
X165598950Y-101020480D01*
X165577907Y-101007868D01*
X165558201Y-100993253D01*
X165540023Y-100976777D01*
X165523547Y-100958599D01*
X165508932Y-100938893D01*
X165496320Y-100917850D01*
X165485830Y-100895671D01*
X165477565Y-100872572D01*
X165471604Y-100848773D01*
X165468004Y-100824505D01*
X165466800Y-100800001D01*
X165466800Y-100149999D01*
X165468004Y-100125495D01*
X165471604Y-100101227D01*
X165477565Y-100077428D01*
X165485830Y-100054329D01*
X165496320Y-100032150D01*
X165508932Y-100011107D01*
X165523547Y-99991401D01*
X165540023Y-99973223D01*
X165558201Y-99956747D01*
X165577907Y-99942132D01*
X165598950Y-99929520D01*
X165621129Y-99919030D01*
X165644228Y-99910765D01*
X165668027Y-99904804D01*
X165692295Y-99901204D01*
X165716799Y-99900000D01*
X166616801Y-99900000D01*
X166641305Y-99901204D01*
X166641305Y-99901204D01*
G37*
D13*
X166166800Y-100475000D03*
D12*
G36*
X166641305Y-97851204D02*
X166665573Y-97854804D01*
X166689372Y-97860765D01*
X166712471Y-97869030D01*
X166734650Y-97879520D01*
X166755693Y-97892132D01*
X166775399Y-97906747D01*
X166793577Y-97923223D01*
X166810053Y-97941401D01*
X166824668Y-97961107D01*
X166837280Y-97982150D01*
X166847770Y-98004329D01*
X166856035Y-98027428D01*
X166861996Y-98051227D01*
X166865596Y-98075495D01*
X166866800Y-98099999D01*
X166866800Y-98750001D01*
X166865596Y-98774505D01*
X166861996Y-98798773D01*
X166856035Y-98822572D01*
X166847770Y-98845671D01*
X166837280Y-98867850D01*
X166824668Y-98888893D01*
X166810053Y-98908599D01*
X166793577Y-98926777D01*
X166775399Y-98943253D01*
X166755693Y-98957868D01*
X166734650Y-98970480D01*
X166712471Y-98980970D01*
X166689372Y-98989235D01*
X166665573Y-98995196D01*
X166641305Y-98998796D01*
X166616801Y-99000000D01*
X165716799Y-99000000D01*
X165692295Y-98998796D01*
X165668027Y-98995196D01*
X165644228Y-98989235D01*
X165621129Y-98980970D01*
X165598950Y-98970480D01*
X165577907Y-98957868D01*
X165558201Y-98943253D01*
X165540023Y-98926777D01*
X165523547Y-98908599D01*
X165508932Y-98888893D01*
X165496320Y-98867850D01*
X165485830Y-98845671D01*
X165477565Y-98822572D01*
X165471604Y-98798773D01*
X165468004Y-98774505D01*
X165466800Y-98750001D01*
X165466800Y-98099999D01*
X165468004Y-98075495D01*
X165471604Y-98051227D01*
X165477565Y-98027428D01*
X165485830Y-98004329D01*
X165496320Y-97982150D01*
X165508932Y-97961107D01*
X165523547Y-97941401D01*
X165540023Y-97923223D01*
X165558201Y-97906747D01*
X165577907Y-97892132D01*
X165598950Y-97879520D01*
X165621129Y-97869030D01*
X165644228Y-97860765D01*
X165668027Y-97854804D01*
X165692295Y-97851204D01*
X165716799Y-97850000D01*
X166616801Y-97850000D01*
X166641305Y-97851204D01*
X166641305Y-97851204D01*
G37*
D13*
X166166800Y-98425000D03*
G04 #@! TD*
D12*
G04 #@! TO.C,C3*
G36*
X169663905Y-97851204D02*
X169688173Y-97854804D01*
X169711972Y-97860765D01*
X169735071Y-97869030D01*
X169757250Y-97879520D01*
X169778293Y-97892132D01*
X169797999Y-97906747D01*
X169816177Y-97923223D01*
X169832653Y-97941401D01*
X169847268Y-97961107D01*
X169859880Y-97982150D01*
X169870370Y-98004329D01*
X169878635Y-98027428D01*
X169884596Y-98051227D01*
X169888196Y-98075495D01*
X169889400Y-98099999D01*
X169889400Y-98750001D01*
X169888196Y-98774505D01*
X169884596Y-98798773D01*
X169878635Y-98822572D01*
X169870370Y-98845671D01*
X169859880Y-98867850D01*
X169847268Y-98888893D01*
X169832653Y-98908599D01*
X169816177Y-98926777D01*
X169797999Y-98943253D01*
X169778293Y-98957868D01*
X169757250Y-98970480D01*
X169735071Y-98980970D01*
X169711972Y-98989235D01*
X169688173Y-98995196D01*
X169663905Y-98998796D01*
X169639401Y-99000000D01*
X168739399Y-99000000D01*
X168714895Y-98998796D01*
X168690627Y-98995196D01*
X168666828Y-98989235D01*
X168643729Y-98980970D01*
X168621550Y-98970480D01*
X168600507Y-98957868D01*
X168580801Y-98943253D01*
X168562623Y-98926777D01*
X168546147Y-98908599D01*
X168531532Y-98888893D01*
X168518920Y-98867850D01*
X168508430Y-98845671D01*
X168500165Y-98822572D01*
X168494204Y-98798773D01*
X168490604Y-98774505D01*
X168489400Y-98750001D01*
X168489400Y-98099999D01*
X168490604Y-98075495D01*
X168494204Y-98051227D01*
X168500165Y-98027428D01*
X168508430Y-98004329D01*
X168518920Y-97982150D01*
X168531532Y-97961107D01*
X168546147Y-97941401D01*
X168562623Y-97923223D01*
X168580801Y-97906747D01*
X168600507Y-97892132D01*
X168621550Y-97879520D01*
X168643729Y-97869030D01*
X168666828Y-97860765D01*
X168690627Y-97854804D01*
X168714895Y-97851204D01*
X168739399Y-97850000D01*
X169639401Y-97850000D01*
X169663905Y-97851204D01*
X169663905Y-97851204D01*
G37*
D13*
X169189400Y-98425000D03*
D12*
G36*
X169663905Y-99901204D02*
X169688173Y-99904804D01*
X169711972Y-99910765D01*
X169735071Y-99919030D01*
X169757250Y-99929520D01*
X169778293Y-99942132D01*
X169797999Y-99956747D01*
X169816177Y-99973223D01*
X169832653Y-99991401D01*
X169847268Y-100011107D01*
X169859880Y-100032150D01*
X169870370Y-100054329D01*
X169878635Y-100077428D01*
X169884596Y-100101227D01*
X169888196Y-100125495D01*
X169889400Y-100149999D01*
X169889400Y-100800001D01*
X169888196Y-100824505D01*
X169884596Y-100848773D01*
X169878635Y-100872572D01*
X169870370Y-100895671D01*
X169859880Y-100917850D01*
X169847268Y-100938893D01*
X169832653Y-100958599D01*
X169816177Y-100976777D01*
X169797999Y-100993253D01*
X169778293Y-101007868D01*
X169757250Y-101020480D01*
X169735071Y-101030970D01*
X169711972Y-101039235D01*
X169688173Y-101045196D01*
X169663905Y-101048796D01*
X169639401Y-101050000D01*
X168739399Y-101050000D01*
X168714895Y-101048796D01*
X168690627Y-101045196D01*
X168666828Y-101039235D01*
X168643729Y-101030970D01*
X168621550Y-101020480D01*
X168600507Y-101007868D01*
X168580801Y-100993253D01*
X168562623Y-100976777D01*
X168546147Y-100958599D01*
X168531532Y-100938893D01*
X168518920Y-100917850D01*
X168508430Y-100895671D01*
X168500165Y-100872572D01*
X168494204Y-100848773D01*
X168490604Y-100824505D01*
X168489400Y-100800001D01*
X168489400Y-100149999D01*
X168490604Y-100125495D01*
X168494204Y-100101227D01*
X168500165Y-100077428D01*
X168508430Y-100054329D01*
X168518920Y-100032150D01*
X168531532Y-100011107D01*
X168546147Y-99991401D01*
X168562623Y-99973223D01*
X168580801Y-99956747D01*
X168600507Y-99942132D01*
X168621550Y-99929520D01*
X168643729Y-99919030D01*
X168666828Y-99910765D01*
X168690627Y-99904804D01*
X168714895Y-99901204D01*
X168739399Y-99900000D01*
X169639401Y-99900000D01*
X169663905Y-99901204D01*
X169663905Y-99901204D01*
G37*
D13*
X169189400Y-100475000D03*
G04 #@! TD*
D12*
G04 #@! TO.C,C4*
G36*
X147466305Y-102171204D02*
X147490573Y-102174804D01*
X147514372Y-102180765D01*
X147537471Y-102189030D01*
X147559650Y-102199520D01*
X147580693Y-102212132D01*
X147600399Y-102226747D01*
X147618577Y-102243223D01*
X147635053Y-102261401D01*
X147649668Y-102281107D01*
X147662280Y-102302150D01*
X147672770Y-102324329D01*
X147681035Y-102347428D01*
X147686996Y-102371227D01*
X147690596Y-102395495D01*
X147691800Y-102419999D01*
X147691800Y-103320001D01*
X147690596Y-103344505D01*
X147686996Y-103368773D01*
X147681035Y-103392572D01*
X147672770Y-103415671D01*
X147662280Y-103437850D01*
X147649668Y-103458893D01*
X147635053Y-103478599D01*
X147618577Y-103496777D01*
X147600399Y-103513253D01*
X147580693Y-103527868D01*
X147559650Y-103540480D01*
X147537471Y-103550970D01*
X147514372Y-103559235D01*
X147490573Y-103565196D01*
X147466305Y-103568796D01*
X147441801Y-103570000D01*
X146791799Y-103570000D01*
X146767295Y-103568796D01*
X146743027Y-103565196D01*
X146719228Y-103559235D01*
X146696129Y-103550970D01*
X146673950Y-103540480D01*
X146652907Y-103527868D01*
X146633201Y-103513253D01*
X146615023Y-103496777D01*
X146598547Y-103478599D01*
X146583932Y-103458893D01*
X146571320Y-103437850D01*
X146560830Y-103415671D01*
X146552565Y-103392572D01*
X146546604Y-103368773D01*
X146543004Y-103344505D01*
X146541800Y-103320001D01*
X146541800Y-102419999D01*
X146543004Y-102395495D01*
X146546604Y-102371227D01*
X146552565Y-102347428D01*
X146560830Y-102324329D01*
X146571320Y-102302150D01*
X146583932Y-102281107D01*
X146598547Y-102261401D01*
X146615023Y-102243223D01*
X146633201Y-102226747D01*
X146652907Y-102212132D01*
X146673950Y-102199520D01*
X146696129Y-102189030D01*
X146719228Y-102180765D01*
X146743027Y-102174804D01*
X146767295Y-102171204D01*
X146791799Y-102170000D01*
X147441801Y-102170000D01*
X147466305Y-102171204D01*
X147466305Y-102171204D01*
G37*
D13*
X147116800Y-102870000D03*
D12*
G36*
X145416305Y-102171204D02*
X145440573Y-102174804D01*
X145464372Y-102180765D01*
X145487471Y-102189030D01*
X145509650Y-102199520D01*
X145530693Y-102212132D01*
X145550399Y-102226747D01*
X145568577Y-102243223D01*
X145585053Y-102261401D01*
X145599668Y-102281107D01*
X145612280Y-102302150D01*
X145622770Y-102324329D01*
X145631035Y-102347428D01*
X145636996Y-102371227D01*
X145640596Y-102395495D01*
X145641800Y-102419999D01*
X145641800Y-103320001D01*
X145640596Y-103344505D01*
X145636996Y-103368773D01*
X145631035Y-103392572D01*
X145622770Y-103415671D01*
X145612280Y-103437850D01*
X145599668Y-103458893D01*
X145585053Y-103478599D01*
X145568577Y-103496777D01*
X145550399Y-103513253D01*
X145530693Y-103527868D01*
X145509650Y-103540480D01*
X145487471Y-103550970D01*
X145464372Y-103559235D01*
X145440573Y-103565196D01*
X145416305Y-103568796D01*
X145391801Y-103570000D01*
X144741799Y-103570000D01*
X144717295Y-103568796D01*
X144693027Y-103565196D01*
X144669228Y-103559235D01*
X144646129Y-103550970D01*
X144623950Y-103540480D01*
X144602907Y-103527868D01*
X144583201Y-103513253D01*
X144565023Y-103496777D01*
X144548547Y-103478599D01*
X144533932Y-103458893D01*
X144521320Y-103437850D01*
X144510830Y-103415671D01*
X144502565Y-103392572D01*
X144496604Y-103368773D01*
X144493004Y-103344505D01*
X144491800Y-103320001D01*
X144491800Y-102419999D01*
X144493004Y-102395495D01*
X144496604Y-102371227D01*
X144502565Y-102347428D01*
X144510830Y-102324329D01*
X144521320Y-102302150D01*
X144533932Y-102281107D01*
X144548547Y-102261401D01*
X144565023Y-102243223D01*
X144583201Y-102226747D01*
X144602907Y-102212132D01*
X144623950Y-102199520D01*
X144646129Y-102189030D01*
X144669228Y-102180765D01*
X144693027Y-102174804D01*
X144717295Y-102171204D01*
X144741799Y-102170000D01*
X145391801Y-102170000D01*
X145416305Y-102171204D01*
X145416305Y-102171204D01*
G37*
D13*
X145066800Y-102870000D03*
G04 #@! TD*
D12*
G04 #@! TO.C,C5*
G36*
X174134305Y-102651804D02*
X174158573Y-102655404D01*
X174182372Y-102661365D01*
X174205471Y-102669630D01*
X174227650Y-102680120D01*
X174248693Y-102692732D01*
X174268399Y-102707347D01*
X174286577Y-102723823D01*
X174303053Y-102742001D01*
X174317668Y-102761707D01*
X174330280Y-102782750D01*
X174340770Y-102804929D01*
X174349035Y-102828028D01*
X174354996Y-102851827D01*
X174358596Y-102876095D01*
X174359800Y-102900599D01*
X174359800Y-103550601D01*
X174358596Y-103575105D01*
X174354996Y-103599373D01*
X174349035Y-103623172D01*
X174340770Y-103646271D01*
X174330280Y-103668450D01*
X174317668Y-103689493D01*
X174303053Y-103709199D01*
X174286577Y-103727377D01*
X174268399Y-103743853D01*
X174248693Y-103758468D01*
X174227650Y-103771080D01*
X174205471Y-103781570D01*
X174182372Y-103789835D01*
X174158573Y-103795796D01*
X174134305Y-103799396D01*
X174109801Y-103800600D01*
X173209799Y-103800600D01*
X173185295Y-103799396D01*
X173161027Y-103795796D01*
X173137228Y-103789835D01*
X173114129Y-103781570D01*
X173091950Y-103771080D01*
X173070907Y-103758468D01*
X173051201Y-103743853D01*
X173033023Y-103727377D01*
X173016547Y-103709199D01*
X173001932Y-103689493D01*
X172989320Y-103668450D01*
X172978830Y-103646271D01*
X172970565Y-103623172D01*
X172964604Y-103599373D01*
X172961004Y-103575105D01*
X172959800Y-103550601D01*
X172959800Y-102900599D01*
X172961004Y-102876095D01*
X172964604Y-102851827D01*
X172970565Y-102828028D01*
X172978830Y-102804929D01*
X172989320Y-102782750D01*
X173001932Y-102761707D01*
X173016547Y-102742001D01*
X173033023Y-102723823D01*
X173051201Y-102707347D01*
X173070907Y-102692732D01*
X173091950Y-102680120D01*
X173114129Y-102669630D01*
X173137228Y-102661365D01*
X173161027Y-102655404D01*
X173185295Y-102651804D01*
X173209799Y-102650600D01*
X174109801Y-102650600D01*
X174134305Y-102651804D01*
X174134305Y-102651804D01*
G37*
D13*
X173659800Y-103225600D03*
D12*
G36*
X174134305Y-104701804D02*
X174158573Y-104705404D01*
X174182372Y-104711365D01*
X174205471Y-104719630D01*
X174227650Y-104730120D01*
X174248693Y-104742732D01*
X174268399Y-104757347D01*
X174286577Y-104773823D01*
X174303053Y-104792001D01*
X174317668Y-104811707D01*
X174330280Y-104832750D01*
X174340770Y-104854929D01*
X174349035Y-104878028D01*
X174354996Y-104901827D01*
X174358596Y-104926095D01*
X174359800Y-104950599D01*
X174359800Y-105600601D01*
X174358596Y-105625105D01*
X174354996Y-105649373D01*
X174349035Y-105673172D01*
X174340770Y-105696271D01*
X174330280Y-105718450D01*
X174317668Y-105739493D01*
X174303053Y-105759199D01*
X174286577Y-105777377D01*
X174268399Y-105793853D01*
X174248693Y-105808468D01*
X174227650Y-105821080D01*
X174205471Y-105831570D01*
X174182372Y-105839835D01*
X174158573Y-105845796D01*
X174134305Y-105849396D01*
X174109801Y-105850600D01*
X173209799Y-105850600D01*
X173185295Y-105849396D01*
X173161027Y-105845796D01*
X173137228Y-105839835D01*
X173114129Y-105831570D01*
X173091950Y-105821080D01*
X173070907Y-105808468D01*
X173051201Y-105793853D01*
X173033023Y-105777377D01*
X173016547Y-105759199D01*
X173001932Y-105739493D01*
X172989320Y-105718450D01*
X172978830Y-105696271D01*
X172970565Y-105673172D01*
X172964604Y-105649373D01*
X172961004Y-105625105D01*
X172959800Y-105600601D01*
X172959800Y-104950599D01*
X172961004Y-104926095D01*
X172964604Y-104901827D01*
X172970565Y-104878028D01*
X172978830Y-104854929D01*
X172989320Y-104832750D01*
X173001932Y-104811707D01*
X173016547Y-104792001D01*
X173033023Y-104773823D01*
X173051201Y-104757347D01*
X173070907Y-104742732D01*
X173091950Y-104730120D01*
X173114129Y-104719630D01*
X173137228Y-104711365D01*
X173161027Y-104705404D01*
X173185295Y-104701804D01*
X173209799Y-104700600D01*
X174109801Y-104700600D01*
X174134305Y-104701804D01*
X174134305Y-104701804D01*
G37*
D13*
X173659800Y-105275600D03*
G04 #@! TD*
D12*
G04 #@! TO.C,C6*
G36*
X162983705Y-94618004D02*
X163007973Y-94621604D01*
X163031772Y-94627565D01*
X163054871Y-94635830D01*
X163077050Y-94646320D01*
X163098093Y-94658932D01*
X163117799Y-94673547D01*
X163135977Y-94690023D01*
X163152453Y-94708201D01*
X163167068Y-94727907D01*
X163179680Y-94748950D01*
X163190170Y-94771129D01*
X163198435Y-94794228D01*
X163204396Y-94818027D01*
X163207996Y-94842295D01*
X163209200Y-94866799D01*
X163209200Y-95516801D01*
X163207996Y-95541305D01*
X163204396Y-95565573D01*
X163198435Y-95589372D01*
X163190170Y-95612471D01*
X163179680Y-95634650D01*
X163167068Y-95655693D01*
X163152453Y-95675399D01*
X163135977Y-95693577D01*
X163117799Y-95710053D01*
X163098093Y-95724668D01*
X163077050Y-95737280D01*
X163054871Y-95747770D01*
X163031772Y-95756035D01*
X163007973Y-95761996D01*
X162983705Y-95765596D01*
X162959201Y-95766800D01*
X162059199Y-95766800D01*
X162034695Y-95765596D01*
X162010427Y-95761996D01*
X161986628Y-95756035D01*
X161963529Y-95747770D01*
X161941350Y-95737280D01*
X161920307Y-95724668D01*
X161900601Y-95710053D01*
X161882423Y-95693577D01*
X161865947Y-95675399D01*
X161851332Y-95655693D01*
X161838720Y-95634650D01*
X161828230Y-95612471D01*
X161819965Y-95589372D01*
X161814004Y-95565573D01*
X161810404Y-95541305D01*
X161809200Y-95516801D01*
X161809200Y-94866799D01*
X161810404Y-94842295D01*
X161814004Y-94818027D01*
X161819965Y-94794228D01*
X161828230Y-94771129D01*
X161838720Y-94748950D01*
X161851332Y-94727907D01*
X161865947Y-94708201D01*
X161882423Y-94690023D01*
X161900601Y-94673547D01*
X161920307Y-94658932D01*
X161941350Y-94646320D01*
X161963529Y-94635830D01*
X161986628Y-94627565D01*
X162010427Y-94621604D01*
X162034695Y-94618004D01*
X162059199Y-94616800D01*
X162959201Y-94616800D01*
X162983705Y-94618004D01*
X162983705Y-94618004D01*
G37*
D13*
X162509200Y-95191800D03*
D12*
G36*
X162983705Y-92568004D02*
X163007973Y-92571604D01*
X163031772Y-92577565D01*
X163054871Y-92585830D01*
X163077050Y-92596320D01*
X163098093Y-92608932D01*
X163117799Y-92623547D01*
X163135977Y-92640023D01*
X163152453Y-92658201D01*
X163167068Y-92677907D01*
X163179680Y-92698950D01*
X163190170Y-92721129D01*
X163198435Y-92744228D01*
X163204396Y-92768027D01*
X163207996Y-92792295D01*
X163209200Y-92816799D01*
X163209200Y-93466801D01*
X163207996Y-93491305D01*
X163204396Y-93515573D01*
X163198435Y-93539372D01*
X163190170Y-93562471D01*
X163179680Y-93584650D01*
X163167068Y-93605693D01*
X163152453Y-93625399D01*
X163135977Y-93643577D01*
X163117799Y-93660053D01*
X163098093Y-93674668D01*
X163077050Y-93687280D01*
X163054871Y-93697770D01*
X163031772Y-93706035D01*
X163007973Y-93711996D01*
X162983705Y-93715596D01*
X162959201Y-93716800D01*
X162059199Y-93716800D01*
X162034695Y-93715596D01*
X162010427Y-93711996D01*
X161986628Y-93706035D01*
X161963529Y-93697770D01*
X161941350Y-93687280D01*
X161920307Y-93674668D01*
X161900601Y-93660053D01*
X161882423Y-93643577D01*
X161865947Y-93625399D01*
X161851332Y-93605693D01*
X161838720Y-93584650D01*
X161828230Y-93562471D01*
X161819965Y-93539372D01*
X161814004Y-93515573D01*
X161810404Y-93491305D01*
X161809200Y-93466801D01*
X161809200Y-92816799D01*
X161810404Y-92792295D01*
X161814004Y-92768027D01*
X161819965Y-92744228D01*
X161828230Y-92721129D01*
X161838720Y-92698950D01*
X161851332Y-92677907D01*
X161865947Y-92658201D01*
X161882423Y-92640023D01*
X161900601Y-92623547D01*
X161920307Y-92608932D01*
X161941350Y-92596320D01*
X161963529Y-92585830D01*
X161986628Y-92577565D01*
X162010427Y-92571604D01*
X162034695Y-92568004D01*
X162059199Y-92566800D01*
X162959201Y-92566800D01*
X162983705Y-92568004D01*
X162983705Y-92568004D01*
G37*
D13*
X162509200Y-93141800D03*
G04 #@! TD*
D12*
G04 #@! TO.C,C7*
G36*
X165523705Y-94618004D02*
X165547973Y-94621604D01*
X165571772Y-94627565D01*
X165594871Y-94635830D01*
X165617050Y-94646320D01*
X165638093Y-94658932D01*
X165657799Y-94673547D01*
X165675977Y-94690023D01*
X165692453Y-94708201D01*
X165707068Y-94727907D01*
X165719680Y-94748950D01*
X165730170Y-94771129D01*
X165738435Y-94794228D01*
X165744396Y-94818027D01*
X165747996Y-94842295D01*
X165749200Y-94866799D01*
X165749200Y-95516801D01*
X165747996Y-95541305D01*
X165744396Y-95565573D01*
X165738435Y-95589372D01*
X165730170Y-95612471D01*
X165719680Y-95634650D01*
X165707068Y-95655693D01*
X165692453Y-95675399D01*
X165675977Y-95693577D01*
X165657799Y-95710053D01*
X165638093Y-95724668D01*
X165617050Y-95737280D01*
X165594871Y-95747770D01*
X165571772Y-95756035D01*
X165547973Y-95761996D01*
X165523705Y-95765596D01*
X165499201Y-95766800D01*
X164599199Y-95766800D01*
X164574695Y-95765596D01*
X164550427Y-95761996D01*
X164526628Y-95756035D01*
X164503529Y-95747770D01*
X164481350Y-95737280D01*
X164460307Y-95724668D01*
X164440601Y-95710053D01*
X164422423Y-95693577D01*
X164405947Y-95675399D01*
X164391332Y-95655693D01*
X164378720Y-95634650D01*
X164368230Y-95612471D01*
X164359965Y-95589372D01*
X164354004Y-95565573D01*
X164350404Y-95541305D01*
X164349200Y-95516801D01*
X164349200Y-94866799D01*
X164350404Y-94842295D01*
X164354004Y-94818027D01*
X164359965Y-94794228D01*
X164368230Y-94771129D01*
X164378720Y-94748950D01*
X164391332Y-94727907D01*
X164405947Y-94708201D01*
X164422423Y-94690023D01*
X164440601Y-94673547D01*
X164460307Y-94658932D01*
X164481350Y-94646320D01*
X164503529Y-94635830D01*
X164526628Y-94627565D01*
X164550427Y-94621604D01*
X164574695Y-94618004D01*
X164599199Y-94616800D01*
X165499201Y-94616800D01*
X165523705Y-94618004D01*
X165523705Y-94618004D01*
G37*
D13*
X165049200Y-95191800D03*
D12*
G36*
X165523705Y-92568004D02*
X165547973Y-92571604D01*
X165571772Y-92577565D01*
X165594871Y-92585830D01*
X165617050Y-92596320D01*
X165638093Y-92608932D01*
X165657799Y-92623547D01*
X165675977Y-92640023D01*
X165692453Y-92658201D01*
X165707068Y-92677907D01*
X165719680Y-92698950D01*
X165730170Y-92721129D01*
X165738435Y-92744228D01*
X165744396Y-92768027D01*
X165747996Y-92792295D01*
X165749200Y-92816799D01*
X165749200Y-93466801D01*
X165747996Y-93491305D01*
X165744396Y-93515573D01*
X165738435Y-93539372D01*
X165730170Y-93562471D01*
X165719680Y-93584650D01*
X165707068Y-93605693D01*
X165692453Y-93625399D01*
X165675977Y-93643577D01*
X165657799Y-93660053D01*
X165638093Y-93674668D01*
X165617050Y-93687280D01*
X165594871Y-93697770D01*
X165571772Y-93706035D01*
X165547973Y-93711996D01*
X165523705Y-93715596D01*
X165499201Y-93716800D01*
X164599199Y-93716800D01*
X164574695Y-93715596D01*
X164550427Y-93711996D01*
X164526628Y-93706035D01*
X164503529Y-93697770D01*
X164481350Y-93687280D01*
X164460307Y-93674668D01*
X164440601Y-93660053D01*
X164422423Y-93643577D01*
X164405947Y-93625399D01*
X164391332Y-93605693D01*
X164378720Y-93584650D01*
X164368230Y-93562471D01*
X164359965Y-93539372D01*
X164354004Y-93515573D01*
X164350404Y-93491305D01*
X164349200Y-93466801D01*
X164349200Y-92816799D01*
X164350404Y-92792295D01*
X164354004Y-92768027D01*
X164359965Y-92744228D01*
X164368230Y-92721129D01*
X164378720Y-92698950D01*
X164391332Y-92677907D01*
X164405947Y-92658201D01*
X164422423Y-92640023D01*
X164440601Y-92623547D01*
X164460307Y-92608932D01*
X164481350Y-92596320D01*
X164503529Y-92585830D01*
X164526628Y-92577565D01*
X164550427Y-92571604D01*
X164574695Y-92568004D01*
X164599199Y-92566800D01*
X165499201Y-92566800D01*
X165523705Y-92568004D01*
X165523705Y-92568004D01*
G37*
D13*
X165049200Y-93141800D03*
G04 #@! TD*
D12*
G04 #@! TO.C,C8*
G36*
X149295105Y-109080004D02*
X149319373Y-109083604D01*
X149343172Y-109089565D01*
X149366271Y-109097830D01*
X149388450Y-109108320D01*
X149409493Y-109120932D01*
X149429199Y-109135547D01*
X149447377Y-109152023D01*
X149463853Y-109170201D01*
X149478468Y-109189907D01*
X149491080Y-109210950D01*
X149501570Y-109233129D01*
X149509835Y-109256228D01*
X149515796Y-109280027D01*
X149519396Y-109304295D01*
X149520600Y-109328799D01*
X149520600Y-110228801D01*
X149519396Y-110253305D01*
X149515796Y-110277573D01*
X149509835Y-110301372D01*
X149501570Y-110324471D01*
X149491080Y-110346650D01*
X149478468Y-110367693D01*
X149463853Y-110387399D01*
X149447377Y-110405577D01*
X149429199Y-110422053D01*
X149409493Y-110436668D01*
X149388450Y-110449280D01*
X149366271Y-110459770D01*
X149343172Y-110468035D01*
X149319373Y-110473996D01*
X149295105Y-110477596D01*
X149270601Y-110478800D01*
X148620599Y-110478800D01*
X148596095Y-110477596D01*
X148571827Y-110473996D01*
X148548028Y-110468035D01*
X148524929Y-110459770D01*
X148502750Y-110449280D01*
X148481707Y-110436668D01*
X148462001Y-110422053D01*
X148443823Y-110405577D01*
X148427347Y-110387399D01*
X148412732Y-110367693D01*
X148400120Y-110346650D01*
X148389630Y-110324471D01*
X148381365Y-110301372D01*
X148375404Y-110277573D01*
X148371804Y-110253305D01*
X148370600Y-110228801D01*
X148370600Y-109328799D01*
X148371804Y-109304295D01*
X148375404Y-109280027D01*
X148381365Y-109256228D01*
X148389630Y-109233129D01*
X148400120Y-109210950D01*
X148412732Y-109189907D01*
X148427347Y-109170201D01*
X148443823Y-109152023D01*
X148462001Y-109135547D01*
X148481707Y-109120932D01*
X148502750Y-109108320D01*
X148524929Y-109097830D01*
X148548028Y-109089565D01*
X148571827Y-109083604D01*
X148596095Y-109080004D01*
X148620599Y-109078800D01*
X149270601Y-109078800D01*
X149295105Y-109080004D01*
X149295105Y-109080004D01*
G37*
D13*
X148945600Y-109778800D03*
D12*
G36*
X147245105Y-109080004D02*
X147269373Y-109083604D01*
X147293172Y-109089565D01*
X147316271Y-109097830D01*
X147338450Y-109108320D01*
X147359493Y-109120932D01*
X147379199Y-109135547D01*
X147397377Y-109152023D01*
X147413853Y-109170201D01*
X147428468Y-109189907D01*
X147441080Y-109210950D01*
X147451570Y-109233129D01*
X147459835Y-109256228D01*
X147465796Y-109280027D01*
X147469396Y-109304295D01*
X147470600Y-109328799D01*
X147470600Y-110228801D01*
X147469396Y-110253305D01*
X147465796Y-110277573D01*
X147459835Y-110301372D01*
X147451570Y-110324471D01*
X147441080Y-110346650D01*
X147428468Y-110367693D01*
X147413853Y-110387399D01*
X147397377Y-110405577D01*
X147379199Y-110422053D01*
X147359493Y-110436668D01*
X147338450Y-110449280D01*
X147316271Y-110459770D01*
X147293172Y-110468035D01*
X147269373Y-110473996D01*
X147245105Y-110477596D01*
X147220601Y-110478800D01*
X146570599Y-110478800D01*
X146546095Y-110477596D01*
X146521827Y-110473996D01*
X146498028Y-110468035D01*
X146474929Y-110459770D01*
X146452750Y-110449280D01*
X146431707Y-110436668D01*
X146412001Y-110422053D01*
X146393823Y-110405577D01*
X146377347Y-110387399D01*
X146362732Y-110367693D01*
X146350120Y-110346650D01*
X146339630Y-110324471D01*
X146331365Y-110301372D01*
X146325404Y-110277573D01*
X146321804Y-110253305D01*
X146320600Y-110228801D01*
X146320600Y-109328799D01*
X146321804Y-109304295D01*
X146325404Y-109280027D01*
X146331365Y-109256228D01*
X146339630Y-109233129D01*
X146350120Y-109210950D01*
X146362732Y-109189907D01*
X146377347Y-109170201D01*
X146393823Y-109152023D01*
X146412001Y-109135547D01*
X146431707Y-109120932D01*
X146452750Y-109108320D01*
X146474929Y-109097830D01*
X146498028Y-109089565D01*
X146521827Y-109083604D01*
X146546095Y-109080004D01*
X146570599Y-109078800D01*
X147220601Y-109078800D01*
X147245105Y-109080004D01*
X147245105Y-109080004D01*
G37*
D13*
X146895600Y-109778800D03*
G04 #@! TD*
D12*
G04 #@! TO.C,C9*
G36*
X147288505Y-104965204D02*
X147312773Y-104968804D01*
X147336572Y-104974765D01*
X147359671Y-104983030D01*
X147381850Y-104993520D01*
X147402893Y-105006132D01*
X147422599Y-105020747D01*
X147440777Y-105037223D01*
X147457253Y-105055401D01*
X147471868Y-105075107D01*
X147484480Y-105096150D01*
X147494970Y-105118329D01*
X147503235Y-105141428D01*
X147509196Y-105165227D01*
X147512796Y-105189495D01*
X147514000Y-105213999D01*
X147514000Y-106114001D01*
X147512796Y-106138505D01*
X147509196Y-106162773D01*
X147503235Y-106186572D01*
X147494970Y-106209671D01*
X147484480Y-106231850D01*
X147471868Y-106252893D01*
X147457253Y-106272599D01*
X147440777Y-106290777D01*
X147422599Y-106307253D01*
X147402893Y-106321868D01*
X147381850Y-106334480D01*
X147359671Y-106344970D01*
X147336572Y-106353235D01*
X147312773Y-106359196D01*
X147288505Y-106362796D01*
X147264001Y-106364000D01*
X146613999Y-106364000D01*
X146589495Y-106362796D01*
X146565227Y-106359196D01*
X146541428Y-106353235D01*
X146518329Y-106344970D01*
X146496150Y-106334480D01*
X146475107Y-106321868D01*
X146455401Y-106307253D01*
X146437223Y-106290777D01*
X146420747Y-106272599D01*
X146406132Y-106252893D01*
X146393520Y-106231850D01*
X146383030Y-106209671D01*
X146374765Y-106186572D01*
X146368804Y-106162773D01*
X146365204Y-106138505D01*
X146364000Y-106114001D01*
X146364000Y-105213999D01*
X146365204Y-105189495D01*
X146368804Y-105165227D01*
X146374765Y-105141428D01*
X146383030Y-105118329D01*
X146393520Y-105096150D01*
X146406132Y-105075107D01*
X146420747Y-105055401D01*
X146437223Y-105037223D01*
X146455401Y-105020747D01*
X146475107Y-105006132D01*
X146496150Y-104993520D01*
X146518329Y-104983030D01*
X146541428Y-104974765D01*
X146565227Y-104968804D01*
X146589495Y-104965204D01*
X146613999Y-104964000D01*
X147264001Y-104964000D01*
X147288505Y-104965204D01*
X147288505Y-104965204D01*
G37*
D13*
X146939000Y-105664000D03*
D12*
G36*
X145238505Y-104965204D02*
X145262773Y-104968804D01*
X145286572Y-104974765D01*
X145309671Y-104983030D01*
X145331850Y-104993520D01*
X145352893Y-105006132D01*
X145372599Y-105020747D01*
X145390777Y-105037223D01*
X145407253Y-105055401D01*
X145421868Y-105075107D01*
X145434480Y-105096150D01*
X145444970Y-105118329D01*
X145453235Y-105141428D01*
X145459196Y-105165227D01*
X145462796Y-105189495D01*
X145464000Y-105213999D01*
X145464000Y-106114001D01*
X145462796Y-106138505D01*
X145459196Y-106162773D01*
X145453235Y-106186572D01*
X145444970Y-106209671D01*
X145434480Y-106231850D01*
X145421868Y-106252893D01*
X145407253Y-106272599D01*
X145390777Y-106290777D01*
X145372599Y-106307253D01*
X145352893Y-106321868D01*
X145331850Y-106334480D01*
X145309671Y-106344970D01*
X145286572Y-106353235D01*
X145262773Y-106359196D01*
X145238505Y-106362796D01*
X145214001Y-106364000D01*
X144563999Y-106364000D01*
X144539495Y-106362796D01*
X144515227Y-106359196D01*
X144491428Y-106353235D01*
X144468329Y-106344970D01*
X144446150Y-106334480D01*
X144425107Y-106321868D01*
X144405401Y-106307253D01*
X144387223Y-106290777D01*
X144370747Y-106272599D01*
X144356132Y-106252893D01*
X144343520Y-106231850D01*
X144333030Y-106209671D01*
X144324765Y-106186572D01*
X144318804Y-106162773D01*
X144315204Y-106138505D01*
X144314000Y-106114001D01*
X144314000Y-105213999D01*
X144315204Y-105189495D01*
X144318804Y-105165227D01*
X144324765Y-105141428D01*
X144333030Y-105118329D01*
X144343520Y-105096150D01*
X144356132Y-105075107D01*
X144370747Y-105055401D01*
X144387223Y-105037223D01*
X144405401Y-105020747D01*
X144425107Y-105006132D01*
X144446150Y-104993520D01*
X144468329Y-104983030D01*
X144491428Y-104974765D01*
X144515227Y-104968804D01*
X144539495Y-104965204D01*
X144563999Y-104964000D01*
X145214001Y-104964000D01*
X145238505Y-104965204D01*
X145238505Y-104965204D01*
G37*
D13*
X144889000Y-105664000D03*
G04 #@! TD*
D12*
G04 #@! TO.C,C10*
G36*
X156457905Y-90868204D02*
X156482173Y-90871804D01*
X156505972Y-90877765D01*
X156529071Y-90886030D01*
X156551250Y-90896520D01*
X156572293Y-90909132D01*
X156591999Y-90923747D01*
X156610177Y-90940223D01*
X156626653Y-90958401D01*
X156641268Y-90978107D01*
X156653880Y-90999150D01*
X156664370Y-91021329D01*
X156672635Y-91044428D01*
X156678596Y-91068227D01*
X156682196Y-91092495D01*
X156683400Y-91116999D01*
X156683400Y-92017001D01*
X156682196Y-92041505D01*
X156678596Y-92065773D01*
X156672635Y-92089572D01*
X156664370Y-92112671D01*
X156653880Y-92134850D01*
X156641268Y-92155893D01*
X156626653Y-92175599D01*
X156610177Y-92193777D01*
X156591999Y-92210253D01*
X156572293Y-92224868D01*
X156551250Y-92237480D01*
X156529071Y-92247970D01*
X156505972Y-92256235D01*
X156482173Y-92262196D01*
X156457905Y-92265796D01*
X156433401Y-92267000D01*
X155783399Y-92267000D01*
X155758895Y-92265796D01*
X155734627Y-92262196D01*
X155710828Y-92256235D01*
X155687729Y-92247970D01*
X155665550Y-92237480D01*
X155644507Y-92224868D01*
X155624801Y-92210253D01*
X155606623Y-92193777D01*
X155590147Y-92175599D01*
X155575532Y-92155893D01*
X155562920Y-92134850D01*
X155552430Y-92112671D01*
X155544165Y-92089572D01*
X155538204Y-92065773D01*
X155534604Y-92041505D01*
X155533400Y-92017001D01*
X155533400Y-91116999D01*
X155534604Y-91092495D01*
X155538204Y-91068227D01*
X155544165Y-91044428D01*
X155552430Y-91021329D01*
X155562920Y-90999150D01*
X155575532Y-90978107D01*
X155590147Y-90958401D01*
X155606623Y-90940223D01*
X155624801Y-90923747D01*
X155644507Y-90909132D01*
X155665550Y-90896520D01*
X155687729Y-90886030D01*
X155710828Y-90877765D01*
X155734627Y-90871804D01*
X155758895Y-90868204D01*
X155783399Y-90867000D01*
X156433401Y-90867000D01*
X156457905Y-90868204D01*
X156457905Y-90868204D01*
G37*
D13*
X156108400Y-91567000D03*
D12*
G36*
X154407905Y-90868204D02*
X154432173Y-90871804D01*
X154455972Y-90877765D01*
X154479071Y-90886030D01*
X154501250Y-90896520D01*
X154522293Y-90909132D01*
X154541999Y-90923747D01*
X154560177Y-90940223D01*
X154576653Y-90958401D01*
X154591268Y-90978107D01*
X154603880Y-90999150D01*
X154614370Y-91021329D01*
X154622635Y-91044428D01*
X154628596Y-91068227D01*
X154632196Y-91092495D01*
X154633400Y-91116999D01*
X154633400Y-92017001D01*
X154632196Y-92041505D01*
X154628596Y-92065773D01*
X154622635Y-92089572D01*
X154614370Y-92112671D01*
X154603880Y-92134850D01*
X154591268Y-92155893D01*
X154576653Y-92175599D01*
X154560177Y-92193777D01*
X154541999Y-92210253D01*
X154522293Y-92224868D01*
X154501250Y-92237480D01*
X154479071Y-92247970D01*
X154455972Y-92256235D01*
X154432173Y-92262196D01*
X154407905Y-92265796D01*
X154383401Y-92267000D01*
X153733399Y-92267000D01*
X153708895Y-92265796D01*
X153684627Y-92262196D01*
X153660828Y-92256235D01*
X153637729Y-92247970D01*
X153615550Y-92237480D01*
X153594507Y-92224868D01*
X153574801Y-92210253D01*
X153556623Y-92193777D01*
X153540147Y-92175599D01*
X153525532Y-92155893D01*
X153512920Y-92134850D01*
X153502430Y-92112671D01*
X153494165Y-92089572D01*
X153488204Y-92065773D01*
X153484604Y-92041505D01*
X153483400Y-92017001D01*
X153483400Y-91116999D01*
X153484604Y-91092495D01*
X153488204Y-91068227D01*
X153494165Y-91044428D01*
X153502430Y-91021329D01*
X153512920Y-90999150D01*
X153525532Y-90978107D01*
X153540147Y-90958401D01*
X153556623Y-90940223D01*
X153574801Y-90923747D01*
X153594507Y-90909132D01*
X153615550Y-90896520D01*
X153637729Y-90886030D01*
X153660828Y-90877765D01*
X153684627Y-90871804D01*
X153708895Y-90868204D01*
X153733399Y-90867000D01*
X154383401Y-90867000D01*
X154407905Y-90868204D01*
X154407905Y-90868204D01*
G37*
D13*
X154058400Y-91567000D03*
G04 #@! TD*
D12*
G04 #@! TO.C,C11*
G36*
X154433305Y-93078004D02*
X154457573Y-93081604D01*
X154481372Y-93087565D01*
X154504471Y-93095830D01*
X154526650Y-93106320D01*
X154547693Y-93118932D01*
X154567399Y-93133547D01*
X154585577Y-93150023D01*
X154602053Y-93168201D01*
X154616668Y-93187907D01*
X154629280Y-93208950D01*
X154639770Y-93231129D01*
X154648035Y-93254228D01*
X154653996Y-93278027D01*
X154657596Y-93302295D01*
X154658800Y-93326799D01*
X154658800Y-94226801D01*
X154657596Y-94251305D01*
X154653996Y-94275573D01*
X154648035Y-94299372D01*
X154639770Y-94322471D01*
X154629280Y-94344650D01*
X154616668Y-94365693D01*
X154602053Y-94385399D01*
X154585577Y-94403577D01*
X154567399Y-94420053D01*
X154547693Y-94434668D01*
X154526650Y-94447280D01*
X154504471Y-94457770D01*
X154481372Y-94466035D01*
X154457573Y-94471996D01*
X154433305Y-94475596D01*
X154408801Y-94476800D01*
X153758799Y-94476800D01*
X153734295Y-94475596D01*
X153710027Y-94471996D01*
X153686228Y-94466035D01*
X153663129Y-94457770D01*
X153640950Y-94447280D01*
X153619907Y-94434668D01*
X153600201Y-94420053D01*
X153582023Y-94403577D01*
X153565547Y-94385399D01*
X153550932Y-94365693D01*
X153538320Y-94344650D01*
X153527830Y-94322471D01*
X153519565Y-94299372D01*
X153513604Y-94275573D01*
X153510004Y-94251305D01*
X153508800Y-94226801D01*
X153508800Y-93326799D01*
X153510004Y-93302295D01*
X153513604Y-93278027D01*
X153519565Y-93254228D01*
X153527830Y-93231129D01*
X153538320Y-93208950D01*
X153550932Y-93187907D01*
X153565547Y-93168201D01*
X153582023Y-93150023D01*
X153600201Y-93133547D01*
X153619907Y-93118932D01*
X153640950Y-93106320D01*
X153663129Y-93095830D01*
X153686228Y-93087565D01*
X153710027Y-93081604D01*
X153734295Y-93078004D01*
X153758799Y-93076800D01*
X154408801Y-93076800D01*
X154433305Y-93078004D01*
X154433305Y-93078004D01*
G37*
D13*
X154083800Y-93776800D03*
D12*
G36*
X156483305Y-93078004D02*
X156507573Y-93081604D01*
X156531372Y-93087565D01*
X156554471Y-93095830D01*
X156576650Y-93106320D01*
X156597693Y-93118932D01*
X156617399Y-93133547D01*
X156635577Y-93150023D01*
X156652053Y-93168201D01*
X156666668Y-93187907D01*
X156679280Y-93208950D01*
X156689770Y-93231129D01*
X156698035Y-93254228D01*
X156703996Y-93278027D01*
X156707596Y-93302295D01*
X156708800Y-93326799D01*
X156708800Y-94226801D01*
X156707596Y-94251305D01*
X156703996Y-94275573D01*
X156698035Y-94299372D01*
X156689770Y-94322471D01*
X156679280Y-94344650D01*
X156666668Y-94365693D01*
X156652053Y-94385399D01*
X156635577Y-94403577D01*
X156617399Y-94420053D01*
X156597693Y-94434668D01*
X156576650Y-94447280D01*
X156554471Y-94457770D01*
X156531372Y-94466035D01*
X156507573Y-94471996D01*
X156483305Y-94475596D01*
X156458801Y-94476800D01*
X155808799Y-94476800D01*
X155784295Y-94475596D01*
X155760027Y-94471996D01*
X155736228Y-94466035D01*
X155713129Y-94457770D01*
X155690950Y-94447280D01*
X155669907Y-94434668D01*
X155650201Y-94420053D01*
X155632023Y-94403577D01*
X155615547Y-94385399D01*
X155600932Y-94365693D01*
X155588320Y-94344650D01*
X155577830Y-94322471D01*
X155569565Y-94299372D01*
X155563604Y-94275573D01*
X155560004Y-94251305D01*
X155558800Y-94226801D01*
X155558800Y-93326799D01*
X155560004Y-93302295D01*
X155563604Y-93278027D01*
X155569565Y-93254228D01*
X155577830Y-93231129D01*
X155588320Y-93208950D01*
X155600932Y-93187907D01*
X155615547Y-93168201D01*
X155632023Y-93150023D01*
X155650201Y-93133547D01*
X155669907Y-93118932D01*
X155690950Y-93106320D01*
X155713129Y-93095830D01*
X155736228Y-93087565D01*
X155760027Y-93081604D01*
X155784295Y-93078004D01*
X155808799Y-93076800D01*
X156458801Y-93076800D01*
X156483305Y-93078004D01*
X156483305Y-93078004D01*
G37*
D13*
X156133800Y-93776800D03*
G04 #@! TD*
D12*
G04 #@! TO.C,C15*
G36*
X120870505Y-93533204D02*
X120894773Y-93536804D01*
X120918572Y-93542765D01*
X120941671Y-93551030D01*
X120963850Y-93561520D01*
X120984893Y-93574132D01*
X121004599Y-93588747D01*
X121022777Y-93605223D01*
X121039253Y-93623401D01*
X121053868Y-93643107D01*
X121066480Y-93664150D01*
X121076970Y-93686329D01*
X121085235Y-93709428D01*
X121091196Y-93733227D01*
X121094796Y-93757495D01*
X121096000Y-93781999D01*
X121096000Y-94432001D01*
X121094796Y-94456505D01*
X121091196Y-94480773D01*
X121085235Y-94504572D01*
X121076970Y-94527671D01*
X121066480Y-94549850D01*
X121053868Y-94570893D01*
X121039253Y-94590599D01*
X121022777Y-94608777D01*
X121004599Y-94625253D01*
X120984893Y-94639868D01*
X120963850Y-94652480D01*
X120941671Y-94662970D01*
X120918572Y-94671235D01*
X120894773Y-94677196D01*
X120870505Y-94680796D01*
X120846001Y-94682000D01*
X119945999Y-94682000D01*
X119921495Y-94680796D01*
X119897227Y-94677196D01*
X119873428Y-94671235D01*
X119850329Y-94662970D01*
X119828150Y-94652480D01*
X119807107Y-94639868D01*
X119787401Y-94625253D01*
X119769223Y-94608777D01*
X119752747Y-94590599D01*
X119738132Y-94570893D01*
X119725520Y-94549850D01*
X119715030Y-94527671D01*
X119706765Y-94504572D01*
X119700804Y-94480773D01*
X119697204Y-94456505D01*
X119696000Y-94432001D01*
X119696000Y-93781999D01*
X119697204Y-93757495D01*
X119700804Y-93733227D01*
X119706765Y-93709428D01*
X119715030Y-93686329D01*
X119725520Y-93664150D01*
X119738132Y-93643107D01*
X119752747Y-93623401D01*
X119769223Y-93605223D01*
X119787401Y-93588747D01*
X119807107Y-93574132D01*
X119828150Y-93561520D01*
X119850329Y-93551030D01*
X119873428Y-93542765D01*
X119897227Y-93536804D01*
X119921495Y-93533204D01*
X119945999Y-93532000D01*
X120846001Y-93532000D01*
X120870505Y-93533204D01*
X120870505Y-93533204D01*
G37*
D13*
X120396000Y-94107000D03*
D12*
G36*
X120870505Y-95583204D02*
X120894773Y-95586804D01*
X120918572Y-95592765D01*
X120941671Y-95601030D01*
X120963850Y-95611520D01*
X120984893Y-95624132D01*
X121004599Y-95638747D01*
X121022777Y-95655223D01*
X121039253Y-95673401D01*
X121053868Y-95693107D01*
X121066480Y-95714150D01*
X121076970Y-95736329D01*
X121085235Y-95759428D01*
X121091196Y-95783227D01*
X121094796Y-95807495D01*
X121096000Y-95831999D01*
X121096000Y-96482001D01*
X121094796Y-96506505D01*
X121091196Y-96530773D01*
X121085235Y-96554572D01*
X121076970Y-96577671D01*
X121066480Y-96599850D01*
X121053868Y-96620893D01*
X121039253Y-96640599D01*
X121022777Y-96658777D01*
X121004599Y-96675253D01*
X120984893Y-96689868D01*
X120963850Y-96702480D01*
X120941671Y-96712970D01*
X120918572Y-96721235D01*
X120894773Y-96727196D01*
X120870505Y-96730796D01*
X120846001Y-96732000D01*
X119945999Y-96732000D01*
X119921495Y-96730796D01*
X119897227Y-96727196D01*
X119873428Y-96721235D01*
X119850329Y-96712970D01*
X119828150Y-96702480D01*
X119807107Y-96689868D01*
X119787401Y-96675253D01*
X119769223Y-96658777D01*
X119752747Y-96640599D01*
X119738132Y-96620893D01*
X119725520Y-96599850D01*
X119715030Y-96577671D01*
X119706765Y-96554572D01*
X119700804Y-96530773D01*
X119697204Y-96506505D01*
X119696000Y-96482001D01*
X119696000Y-95831999D01*
X119697204Y-95807495D01*
X119700804Y-95783227D01*
X119706765Y-95759428D01*
X119715030Y-95736329D01*
X119725520Y-95714150D01*
X119738132Y-95693107D01*
X119752747Y-95673401D01*
X119769223Y-95655223D01*
X119787401Y-95638747D01*
X119807107Y-95624132D01*
X119828150Y-95611520D01*
X119850329Y-95601030D01*
X119873428Y-95592765D01*
X119897227Y-95586804D01*
X119921495Y-95583204D01*
X119945999Y-95582000D01*
X120846001Y-95582000D01*
X120870505Y-95583204D01*
X120870505Y-95583204D01*
G37*
D13*
X120396000Y-96157000D03*
G04 #@! TD*
D12*
G04 #@! TO.C,C16*
G36*
X112488505Y-93533204D02*
X112512773Y-93536804D01*
X112536572Y-93542765D01*
X112559671Y-93551030D01*
X112581850Y-93561520D01*
X112602893Y-93574132D01*
X112622599Y-93588747D01*
X112640777Y-93605223D01*
X112657253Y-93623401D01*
X112671868Y-93643107D01*
X112684480Y-93664150D01*
X112694970Y-93686329D01*
X112703235Y-93709428D01*
X112709196Y-93733227D01*
X112712796Y-93757495D01*
X112714000Y-93781999D01*
X112714000Y-94432001D01*
X112712796Y-94456505D01*
X112709196Y-94480773D01*
X112703235Y-94504572D01*
X112694970Y-94527671D01*
X112684480Y-94549850D01*
X112671868Y-94570893D01*
X112657253Y-94590599D01*
X112640777Y-94608777D01*
X112622599Y-94625253D01*
X112602893Y-94639868D01*
X112581850Y-94652480D01*
X112559671Y-94662970D01*
X112536572Y-94671235D01*
X112512773Y-94677196D01*
X112488505Y-94680796D01*
X112464001Y-94682000D01*
X111563999Y-94682000D01*
X111539495Y-94680796D01*
X111515227Y-94677196D01*
X111491428Y-94671235D01*
X111468329Y-94662970D01*
X111446150Y-94652480D01*
X111425107Y-94639868D01*
X111405401Y-94625253D01*
X111387223Y-94608777D01*
X111370747Y-94590599D01*
X111356132Y-94570893D01*
X111343520Y-94549850D01*
X111333030Y-94527671D01*
X111324765Y-94504572D01*
X111318804Y-94480773D01*
X111315204Y-94456505D01*
X111314000Y-94432001D01*
X111314000Y-93781999D01*
X111315204Y-93757495D01*
X111318804Y-93733227D01*
X111324765Y-93709428D01*
X111333030Y-93686329D01*
X111343520Y-93664150D01*
X111356132Y-93643107D01*
X111370747Y-93623401D01*
X111387223Y-93605223D01*
X111405401Y-93588747D01*
X111425107Y-93574132D01*
X111446150Y-93561520D01*
X111468329Y-93551030D01*
X111491428Y-93542765D01*
X111515227Y-93536804D01*
X111539495Y-93533204D01*
X111563999Y-93532000D01*
X112464001Y-93532000D01*
X112488505Y-93533204D01*
X112488505Y-93533204D01*
G37*
D13*
X112014000Y-94107000D03*
D12*
G36*
X112488505Y-95583204D02*
X112512773Y-95586804D01*
X112536572Y-95592765D01*
X112559671Y-95601030D01*
X112581850Y-95611520D01*
X112602893Y-95624132D01*
X112622599Y-95638747D01*
X112640777Y-95655223D01*
X112657253Y-95673401D01*
X112671868Y-95693107D01*
X112684480Y-95714150D01*
X112694970Y-95736329D01*
X112703235Y-95759428D01*
X112709196Y-95783227D01*
X112712796Y-95807495D01*
X112714000Y-95831999D01*
X112714000Y-96482001D01*
X112712796Y-96506505D01*
X112709196Y-96530773D01*
X112703235Y-96554572D01*
X112694970Y-96577671D01*
X112684480Y-96599850D01*
X112671868Y-96620893D01*
X112657253Y-96640599D01*
X112640777Y-96658777D01*
X112622599Y-96675253D01*
X112602893Y-96689868D01*
X112581850Y-96702480D01*
X112559671Y-96712970D01*
X112536572Y-96721235D01*
X112512773Y-96727196D01*
X112488505Y-96730796D01*
X112464001Y-96732000D01*
X111563999Y-96732000D01*
X111539495Y-96730796D01*
X111515227Y-96727196D01*
X111491428Y-96721235D01*
X111468329Y-96712970D01*
X111446150Y-96702480D01*
X111425107Y-96689868D01*
X111405401Y-96675253D01*
X111387223Y-96658777D01*
X111370747Y-96640599D01*
X111356132Y-96620893D01*
X111343520Y-96599850D01*
X111333030Y-96577671D01*
X111324765Y-96554572D01*
X111318804Y-96530773D01*
X111315204Y-96506505D01*
X111314000Y-96482001D01*
X111314000Y-95831999D01*
X111315204Y-95807495D01*
X111318804Y-95783227D01*
X111324765Y-95759428D01*
X111333030Y-95736329D01*
X111343520Y-95714150D01*
X111356132Y-95693107D01*
X111370747Y-95673401D01*
X111387223Y-95655223D01*
X111405401Y-95638747D01*
X111425107Y-95624132D01*
X111446150Y-95611520D01*
X111468329Y-95601030D01*
X111491428Y-95592765D01*
X111515227Y-95586804D01*
X111539495Y-95583204D01*
X111563999Y-95582000D01*
X112464001Y-95582000D01*
X112488505Y-95583204D01*
X112488505Y-95583204D01*
G37*
D13*
X112014000Y-96157000D03*
G04 #@! TD*
D12*
G04 #@! TO.C,C20*
G36*
X110349505Y-93408204D02*
X110373773Y-93411804D01*
X110397572Y-93417765D01*
X110420671Y-93426030D01*
X110442850Y-93436520D01*
X110463893Y-93449132D01*
X110483599Y-93463747D01*
X110501777Y-93480223D01*
X110518253Y-93498401D01*
X110532868Y-93518107D01*
X110545480Y-93539150D01*
X110555970Y-93561329D01*
X110564235Y-93584428D01*
X110570196Y-93608227D01*
X110573796Y-93632495D01*
X110575000Y-93656999D01*
X110575000Y-94557001D01*
X110573796Y-94581505D01*
X110570196Y-94605773D01*
X110564235Y-94629572D01*
X110555970Y-94652671D01*
X110545480Y-94674850D01*
X110532868Y-94695893D01*
X110518253Y-94715599D01*
X110501777Y-94733777D01*
X110483599Y-94750253D01*
X110463893Y-94764868D01*
X110442850Y-94777480D01*
X110420671Y-94787970D01*
X110397572Y-94796235D01*
X110373773Y-94802196D01*
X110349505Y-94805796D01*
X110325001Y-94807000D01*
X109674999Y-94807000D01*
X109650495Y-94805796D01*
X109626227Y-94802196D01*
X109602428Y-94796235D01*
X109579329Y-94787970D01*
X109557150Y-94777480D01*
X109536107Y-94764868D01*
X109516401Y-94750253D01*
X109498223Y-94733777D01*
X109481747Y-94715599D01*
X109467132Y-94695893D01*
X109454520Y-94674850D01*
X109444030Y-94652671D01*
X109435765Y-94629572D01*
X109429804Y-94605773D01*
X109426204Y-94581505D01*
X109425000Y-94557001D01*
X109425000Y-93656999D01*
X109426204Y-93632495D01*
X109429804Y-93608227D01*
X109435765Y-93584428D01*
X109444030Y-93561329D01*
X109454520Y-93539150D01*
X109467132Y-93518107D01*
X109481747Y-93498401D01*
X109498223Y-93480223D01*
X109516401Y-93463747D01*
X109536107Y-93449132D01*
X109557150Y-93436520D01*
X109579329Y-93426030D01*
X109602428Y-93417765D01*
X109626227Y-93411804D01*
X109650495Y-93408204D01*
X109674999Y-93407000D01*
X110325001Y-93407000D01*
X110349505Y-93408204D01*
X110349505Y-93408204D01*
G37*
D13*
X110000000Y-94107000D03*
D12*
G36*
X108299505Y-93408204D02*
X108323773Y-93411804D01*
X108347572Y-93417765D01*
X108370671Y-93426030D01*
X108392850Y-93436520D01*
X108413893Y-93449132D01*
X108433599Y-93463747D01*
X108451777Y-93480223D01*
X108468253Y-93498401D01*
X108482868Y-93518107D01*
X108495480Y-93539150D01*
X108505970Y-93561329D01*
X108514235Y-93584428D01*
X108520196Y-93608227D01*
X108523796Y-93632495D01*
X108525000Y-93656999D01*
X108525000Y-94557001D01*
X108523796Y-94581505D01*
X108520196Y-94605773D01*
X108514235Y-94629572D01*
X108505970Y-94652671D01*
X108495480Y-94674850D01*
X108482868Y-94695893D01*
X108468253Y-94715599D01*
X108451777Y-94733777D01*
X108433599Y-94750253D01*
X108413893Y-94764868D01*
X108392850Y-94777480D01*
X108370671Y-94787970D01*
X108347572Y-94796235D01*
X108323773Y-94802196D01*
X108299505Y-94805796D01*
X108275001Y-94807000D01*
X107624999Y-94807000D01*
X107600495Y-94805796D01*
X107576227Y-94802196D01*
X107552428Y-94796235D01*
X107529329Y-94787970D01*
X107507150Y-94777480D01*
X107486107Y-94764868D01*
X107466401Y-94750253D01*
X107448223Y-94733777D01*
X107431747Y-94715599D01*
X107417132Y-94695893D01*
X107404520Y-94674850D01*
X107394030Y-94652671D01*
X107385765Y-94629572D01*
X107379804Y-94605773D01*
X107376204Y-94581505D01*
X107375000Y-94557001D01*
X107375000Y-93656999D01*
X107376204Y-93632495D01*
X107379804Y-93608227D01*
X107385765Y-93584428D01*
X107394030Y-93561329D01*
X107404520Y-93539150D01*
X107417132Y-93518107D01*
X107431747Y-93498401D01*
X107448223Y-93480223D01*
X107466401Y-93463747D01*
X107486107Y-93449132D01*
X107507150Y-93436520D01*
X107529329Y-93426030D01*
X107552428Y-93417765D01*
X107576227Y-93411804D01*
X107600495Y-93408204D01*
X107624999Y-93407000D01*
X108275001Y-93407000D01*
X108299505Y-93408204D01*
X108299505Y-93408204D01*
G37*
D13*
X107950000Y-94107000D03*
G04 #@! TD*
D15*
G04 #@! TO.C,D3*
X124546000Y-100711000D03*
X126746000Y-100711000D03*
G04 #@! TD*
D16*
G04 #@! TO.C,D4*
X120650000Y-103673000D03*
X120650000Y-101473000D03*
G04 #@! TD*
D12*
G04 #@! TO.C,L1*
G36*
X121235505Y-97980204D02*
X121259773Y-97983804D01*
X121283572Y-97989765D01*
X121306671Y-97998030D01*
X121328850Y-98008520D01*
X121349893Y-98021132D01*
X121369599Y-98035747D01*
X121387777Y-98052223D01*
X121404253Y-98070401D01*
X121418868Y-98090107D01*
X121431480Y-98111150D01*
X121441970Y-98133329D01*
X121450235Y-98156428D01*
X121456196Y-98180227D01*
X121459796Y-98204495D01*
X121461000Y-98228999D01*
X121461000Y-99129001D01*
X121459796Y-99153505D01*
X121456196Y-99177773D01*
X121450235Y-99201572D01*
X121441970Y-99224671D01*
X121431480Y-99246850D01*
X121418868Y-99267893D01*
X121404253Y-99287599D01*
X121387777Y-99305777D01*
X121369599Y-99322253D01*
X121349893Y-99336868D01*
X121328850Y-99349480D01*
X121306671Y-99359970D01*
X121283572Y-99368235D01*
X121259773Y-99374196D01*
X121235505Y-99377796D01*
X121211001Y-99379000D01*
X120560999Y-99379000D01*
X120536495Y-99377796D01*
X120512227Y-99374196D01*
X120488428Y-99368235D01*
X120465329Y-99359970D01*
X120443150Y-99349480D01*
X120422107Y-99336868D01*
X120402401Y-99322253D01*
X120384223Y-99305777D01*
X120367747Y-99287599D01*
X120353132Y-99267893D01*
X120340520Y-99246850D01*
X120330030Y-99224671D01*
X120321765Y-99201572D01*
X120315804Y-99177773D01*
X120312204Y-99153505D01*
X120311000Y-99129001D01*
X120311000Y-98228999D01*
X120312204Y-98204495D01*
X120315804Y-98180227D01*
X120321765Y-98156428D01*
X120330030Y-98133329D01*
X120340520Y-98111150D01*
X120353132Y-98090107D01*
X120367747Y-98070401D01*
X120384223Y-98052223D01*
X120402401Y-98035747D01*
X120422107Y-98021132D01*
X120443150Y-98008520D01*
X120465329Y-97998030D01*
X120488428Y-97989765D01*
X120512227Y-97983804D01*
X120536495Y-97980204D01*
X120560999Y-97979000D01*
X121211001Y-97979000D01*
X121235505Y-97980204D01*
X121235505Y-97980204D01*
G37*
D13*
X120886000Y-98679000D03*
D12*
G36*
X123285505Y-97980204D02*
X123309773Y-97983804D01*
X123333572Y-97989765D01*
X123356671Y-97998030D01*
X123378850Y-98008520D01*
X123399893Y-98021132D01*
X123419599Y-98035747D01*
X123437777Y-98052223D01*
X123454253Y-98070401D01*
X123468868Y-98090107D01*
X123481480Y-98111150D01*
X123491970Y-98133329D01*
X123500235Y-98156428D01*
X123506196Y-98180227D01*
X123509796Y-98204495D01*
X123511000Y-98228999D01*
X123511000Y-99129001D01*
X123509796Y-99153505D01*
X123506196Y-99177773D01*
X123500235Y-99201572D01*
X123491970Y-99224671D01*
X123481480Y-99246850D01*
X123468868Y-99267893D01*
X123454253Y-99287599D01*
X123437777Y-99305777D01*
X123419599Y-99322253D01*
X123399893Y-99336868D01*
X123378850Y-99349480D01*
X123356671Y-99359970D01*
X123333572Y-99368235D01*
X123309773Y-99374196D01*
X123285505Y-99377796D01*
X123261001Y-99379000D01*
X122610999Y-99379000D01*
X122586495Y-99377796D01*
X122562227Y-99374196D01*
X122538428Y-99368235D01*
X122515329Y-99359970D01*
X122493150Y-99349480D01*
X122472107Y-99336868D01*
X122452401Y-99322253D01*
X122434223Y-99305777D01*
X122417747Y-99287599D01*
X122403132Y-99267893D01*
X122390520Y-99246850D01*
X122380030Y-99224671D01*
X122371765Y-99201572D01*
X122365804Y-99177773D01*
X122362204Y-99153505D01*
X122361000Y-99129001D01*
X122361000Y-98228999D01*
X122362204Y-98204495D01*
X122365804Y-98180227D01*
X122371765Y-98156428D01*
X122380030Y-98133329D01*
X122390520Y-98111150D01*
X122403132Y-98090107D01*
X122417747Y-98070401D01*
X122434223Y-98052223D01*
X122452401Y-98035747D01*
X122472107Y-98021132D01*
X122493150Y-98008520D01*
X122515329Y-97998030D01*
X122538428Y-97989765D01*
X122562227Y-97983804D01*
X122586495Y-97980204D01*
X122610999Y-97979000D01*
X123261001Y-97979000D01*
X123285505Y-97980204D01*
X123285505Y-97980204D01*
G37*
D13*
X122936000Y-98679000D03*
G04 #@! TD*
D12*
G04 #@! TO.C,R1*
G36*
X173524705Y-95793804D02*
X173548973Y-95797404D01*
X173572772Y-95803365D01*
X173595871Y-95811630D01*
X173618050Y-95822120D01*
X173639093Y-95834732D01*
X173658799Y-95849347D01*
X173676977Y-95865823D01*
X173693453Y-95884001D01*
X173708068Y-95903707D01*
X173720680Y-95924750D01*
X173731170Y-95946929D01*
X173739435Y-95970028D01*
X173745396Y-95993827D01*
X173748996Y-96018095D01*
X173750200Y-96042599D01*
X173750200Y-96692601D01*
X173748996Y-96717105D01*
X173745396Y-96741373D01*
X173739435Y-96765172D01*
X173731170Y-96788271D01*
X173720680Y-96810450D01*
X173708068Y-96831493D01*
X173693453Y-96851199D01*
X173676977Y-96869377D01*
X173658799Y-96885853D01*
X173639093Y-96900468D01*
X173618050Y-96913080D01*
X173595871Y-96923570D01*
X173572772Y-96931835D01*
X173548973Y-96937796D01*
X173524705Y-96941396D01*
X173500201Y-96942600D01*
X172600199Y-96942600D01*
X172575695Y-96941396D01*
X172551427Y-96937796D01*
X172527628Y-96931835D01*
X172504529Y-96923570D01*
X172482350Y-96913080D01*
X172461307Y-96900468D01*
X172441601Y-96885853D01*
X172423423Y-96869377D01*
X172406947Y-96851199D01*
X172392332Y-96831493D01*
X172379720Y-96810450D01*
X172369230Y-96788271D01*
X172360965Y-96765172D01*
X172355004Y-96741373D01*
X172351404Y-96717105D01*
X172350200Y-96692601D01*
X172350200Y-96042599D01*
X172351404Y-96018095D01*
X172355004Y-95993827D01*
X172360965Y-95970028D01*
X172369230Y-95946929D01*
X172379720Y-95924750D01*
X172392332Y-95903707D01*
X172406947Y-95884001D01*
X172423423Y-95865823D01*
X172441601Y-95849347D01*
X172461307Y-95834732D01*
X172482350Y-95822120D01*
X172504529Y-95811630D01*
X172527628Y-95803365D01*
X172551427Y-95797404D01*
X172575695Y-95793804D01*
X172600199Y-95792600D01*
X173500201Y-95792600D01*
X173524705Y-95793804D01*
X173524705Y-95793804D01*
G37*
D13*
X173050200Y-96367600D03*
D12*
G36*
X173524705Y-97843804D02*
X173548973Y-97847404D01*
X173572772Y-97853365D01*
X173595871Y-97861630D01*
X173618050Y-97872120D01*
X173639093Y-97884732D01*
X173658799Y-97899347D01*
X173676977Y-97915823D01*
X173693453Y-97934001D01*
X173708068Y-97953707D01*
X173720680Y-97974750D01*
X173731170Y-97996929D01*
X173739435Y-98020028D01*
X173745396Y-98043827D01*
X173748996Y-98068095D01*
X173750200Y-98092599D01*
X173750200Y-98742601D01*
X173748996Y-98767105D01*
X173745396Y-98791373D01*
X173739435Y-98815172D01*
X173731170Y-98838271D01*
X173720680Y-98860450D01*
X173708068Y-98881493D01*
X173693453Y-98901199D01*
X173676977Y-98919377D01*
X173658799Y-98935853D01*
X173639093Y-98950468D01*
X173618050Y-98963080D01*
X173595871Y-98973570D01*
X173572772Y-98981835D01*
X173548973Y-98987796D01*
X173524705Y-98991396D01*
X173500201Y-98992600D01*
X172600199Y-98992600D01*
X172575695Y-98991396D01*
X172551427Y-98987796D01*
X172527628Y-98981835D01*
X172504529Y-98973570D01*
X172482350Y-98963080D01*
X172461307Y-98950468D01*
X172441601Y-98935853D01*
X172423423Y-98919377D01*
X172406947Y-98901199D01*
X172392332Y-98881493D01*
X172379720Y-98860450D01*
X172369230Y-98838271D01*
X172360965Y-98815172D01*
X172355004Y-98791373D01*
X172351404Y-98767105D01*
X172350200Y-98742601D01*
X172350200Y-98092599D01*
X172351404Y-98068095D01*
X172355004Y-98043827D01*
X172360965Y-98020028D01*
X172369230Y-97996929D01*
X172379720Y-97974750D01*
X172392332Y-97953707D01*
X172406947Y-97934001D01*
X172423423Y-97915823D01*
X172441601Y-97899347D01*
X172461307Y-97884732D01*
X172482350Y-97872120D01*
X172504529Y-97861630D01*
X172527628Y-97853365D01*
X172551427Y-97847404D01*
X172575695Y-97843804D01*
X172600199Y-97842600D01*
X173500201Y-97842600D01*
X173524705Y-97843804D01*
X173524705Y-97843804D01*
G37*
D13*
X173050200Y-98417600D03*
G04 #@! TD*
D12*
G04 #@! TO.C,R2*
G36*
X178223705Y-102669804D02*
X178247973Y-102673404D01*
X178271772Y-102679365D01*
X178294871Y-102687630D01*
X178317050Y-102698120D01*
X178338093Y-102710732D01*
X178357799Y-102725347D01*
X178375977Y-102741823D01*
X178392453Y-102760001D01*
X178407068Y-102779707D01*
X178419680Y-102800750D01*
X178430170Y-102822929D01*
X178438435Y-102846028D01*
X178444396Y-102869827D01*
X178447996Y-102894095D01*
X178449200Y-102918599D01*
X178449200Y-103568601D01*
X178447996Y-103593105D01*
X178444396Y-103617373D01*
X178438435Y-103641172D01*
X178430170Y-103664271D01*
X178419680Y-103686450D01*
X178407068Y-103707493D01*
X178392453Y-103727199D01*
X178375977Y-103745377D01*
X178357799Y-103761853D01*
X178338093Y-103776468D01*
X178317050Y-103789080D01*
X178294871Y-103799570D01*
X178271772Y-103807835D01*
X178247973Y-103813796D01*
X178223705Y-103817396D01*
X178199201Y-103818600D01*
X177299199Y-103818600D01*
X177274695Y-103817396D01*
X177250427Y-103813796D01*
X177226628Y-103807835D01*
X177203529Y-103799570D01*
X177181350Y-103789080D01*
X177160307Y-103776468D01*
X177140601Y-103761853D01*
X177122423Y-103745377D01*
X177105947Y-103727199D01*
X177091332Y-103707493D01*
X177078720Y-103686450D01*
X177068230Y-103664271D01*
X177059965Y-103641172D01*
X177054004Y-103617373D01*
X177050404Y-103593105D01*
X177049200Y-103568601D01*
X177049200Y-102918599D01*
X177050404Y-102894095D01*
X177054004Y-102869827D01*
X177059965Y-102846028D01*
X177068230Y-102822929D01*
X177078720Y-102800750D01*
X177091332Y-102779707D01*
X177105947Y-102760001D01*
X177122423Y-102741823D01*
X177140601Y-102725347D01*
X177160307Y-102710732D01*
X177181350Y-102698120D01*
X177203529Y-102687630D01*
X177226628Y-102679365D01*
X177250427Y-102673404D01*
X177274695Y-102669804D01*
X177299199Y-102668600D01*
X178199201Y-102668600D01*
X178223705Y-102669804D01*
X178223705Y-102669804D01*
G37*
D13*
X177749200Y-103243600D03*
D12*
G36*
X178223705Y-100619804D02*
X178247973Y-100623404D01*
X178271772Y-100629365D01*
X178294871Y-100637630D01*
X178317050Y-100648120D01*
X178338093Y-100660732D01*
X178357799Y-100675347D01*
X178375977Y-100691823D01*
X178392453Y-100710001D01*
X178407068Y-100729707D01*
X178419680Y-100750750D01*
X178430170Y-100772929D01*
X178438435Y-100796028D01*
X178444396Y-100819827D01*
X178447996Y-100844095D01*
X178449200Y-100868599D01*
X178449200Y-101518601D01*
X178447996Y-101543105D01*
X178444396Y-101567373D01*
X178438435Y-101591172D01*
X178430170Y-101614271D01*
X178419680Y-101636450D01*
X178407068Y-101657493D01*
X178392453Y-101677199D01*
X178375977Y-101695377D01*
X178357799Y-101711853D01*
X178338093Y-101726468D01*
X178317050Y-101739080D01*
X178294871Y-101749570D01*
X178271772Y-101757835D01*
X178247973Y-101763796D01*
X178223705Y-101767396D01*
X178199201Y-101768600D01*
X177299199Y-101768600D01*
X177274695Y-101767396D01*
X177250427Y-101763796D01*
X177226628Y-101757835D01*
X177203529Y-101749570D01*
X177181350Y-101739080D01*
X177160307Y-101726468D01*
X177140601Y-101711853D01*
X177122423Y-101695377D01*
X177105947Y-101677199D01*
X177091332Y-101657493D01*
X177078720Y-101636450D01*
X177068230Y-101614271D01*
X177059965Y-101591172D01*
X177054004Y-101567373D01*
X177050404Y-101543105D01*
X177049200Y-101518601D01*
X177049200Y-100868599D01*
X177050404Y-100844095D01*
X177054004Y-100819827D01*
X177059965Y-100796028D01*
X177068230Y-100772929D01*
X177078720Y-100750750D01*
X177091332Y-100729707D01*
X177105947Y-100710001D01*
X177122423Y-100691823D01*
X177140601Y-100675347D01*
X177160307Y-100660732D01*
X177181350Y-100648120D01*
X177203529Y-100637630D01*
X177226628Y-100629365D01*
X177250427Y-100623404D01*
X177274695Y-100619804D01*
X177299199Y-100618600D01*
X178199201Y-100618600D01*
X178223705Y-100619804D01*
X178223705Y-100619804D01*
G37*
D13*
X177749200Y-101193600D03*
G04 #@! TD*
D12*
G04 #@! TO.C,R3*
G36*
X167885905Y-92535204D02*
X167910173Y-92538804D01*
X167933972Y-92544765D01*
X167957071Y-92553030D01*
X167979250Y-92563520D01*
X168000293Y-92576132D01*
X168019999Y-92590747D01*
X168038177Y-92607223D01*
X168054653Y-92625401D01*
X168069268Y-92645107D01*
X168081880Y-92666150D01*
X168092370Y-92688329D01*
X168100635Y-92711428D01*
X168106596Y-92735227D01*
X168110196Y-92759495D01*
X168111400Y-92783999D01*
X168111400Y-93434001D01*
X168110196Y-93458505D01*
X168106596Y-93482773D01*
X168100635Y-93506572D01*
X168092370Y-93529671D01*
X168081880Y-93551850D01*
X168069268Y-93572893D01*
X168054653Y-93592599D01*
X168038177Y-93610777D01*
X168019999Y-93627253D01*
X168000293Y-93641868D01*
X167979250Y-93654480D01*
X167957071Y-93664970D01*
X167933972Y-93673235D01*
X167910173Y-93679196D01*
X167885905Y-93682796D01*
X167861401Y-93684000D01*
X166961399Y-93684000D01*
X166936895Y-93682796D01*
X166912627Y-93679196D01*
X166888828Y-93673235D01*
X166865729Y-93664970D01*
X166843550Y-93654480D01*
X166822507Y-93641868D01*
X166802801Y-93627253D01*
X166784623Y-93610777D01*
X166768147Y-93592599D01*
X166753532Y-93572893D01*
X166740920Y-93551850D01*
X166730430Y-93529671D01*
X166722165Y-93506572D01*
X166716204Y-93482773D01*
X166712604Y-93458505D01*
X166711400Y-93434001D01*
X166711400Y-92783999D01*
X166712604Y-92759495D01*
X166716204Y-92735227D01*
X166722165Y-92711428D01*
X166730430Y-92688329D01*
X166740920Y-92666150D01*
X166753532Y-92645107D01*
X166768147Y-92625401D01*
X166784623Y-92607223D01*
X166802801Y-92590747D01*
X166822507Y-92576132D01*
X166843550Y-92563520D01*
X166865729Y-92553030D01*
X166888828Y-92544765D01*
X166912627Y-92538804D01*
X166936895Y-92535204D01*
X166961399Y-92534000D01*
X167861401Y-92534000D01*
X167885905Y-92535204D01*
X167885905Y-92535204D01*
G37*
D13*
X167411400Y-93109000D03*
D12*
G36*
X167885905Y-90485204D02*
X167910173Y-90488804D01*
X167933972Y-90494765D01*
X167957071Y-90503030D01*
X167979250Y-90513520D01*
X168000293Y-90526132D01*
X168019999Y-90540747D01*
X168038177Y-90557223D01*
X168054653Y-90575401D01*
X168069268Y-90595107D01*
X168081880Y-90616150D01*
X168092370Y-90638329D01*
X168100635Y-90661428D01*
X168106596Y-90685227D01*
X168110196Y-90709495D01*
X168111400Y-90733999D01*
X168111400Y-91384001D01*
X168110196Y-91408505D01*
X168106596Y-91432773D01*
X168100635Y-91456572D01*
X168092370Y-91479671D01*
X168081880Y-91501850D01*
X168069268Y-91522893D01*
X168054653Y-91542599D01*
X168038177Y-91560777D01*
X168019999Y-91577253D01*
X168000293Y-91591868D01*
X167979250Y-91604480D01*
X167957071Y-91614970D01*
X167933972Y-91623235D01*
X167910173Y-91629196D01*
X167885905Y-91632796D01*
X167861401Y-91634000D01*
X166961399Y-91634000D01*
X166936895Y-91632796D01*
X166912627Y-91629196D01*
X166888828Y-91623235D01*
X166865729Y-91614970D01*
X166843550Y-91604480D01*
X166822507Y-91591868D01*
X166802801Y-91577253D01*
X166784623Y-91560777D01*
X166768147Y-91542599D01*
X166753532Y-91522893D01*
X166740920Y-91501850D01*
X166730430Y-91479671D01*
X166722165Y-91456572D01*
X166716204Y-91432773D01*
X166712604Y-91408505D01*
X166711400Y-91384001D01*
X166711400Y-90733999D01*
X166712604Y-90709495D01*
X166716204Y-90685227D01*
X166722165Y-90661428D01*
X166730430Y-90638329D01*
X166740920Y-90616150D01*
X166753532Y-90595107D01*
X166768147Y-90575401D01*
X166784623Y-90557223D01*
X166802801Y-90540747D01*
X166822507Y-90526132D01*
X166843550Y-90513520D01*
X166865729Y-90503030D01*
X166888828Y-90494765D01*
X166912627Y-90488804D01*
X166936895Y-90485204D01*
X166961399Y-90484000D01*
X167861401Y-90484000D01*
X167885905Y-90485204D01*
X167885905Y-90485204D01*
G37*
D13*
X167411400Y-91059000D03*
G04 #@! TD*
D12*
G04 #@! TO.C,R4*
G36*
X158566105Y-88658404D02*
X158590373Y-88662004D01*
X158614172Y-88667965D01*
X158637271Y-88676230D01*
X158659450Y-88686720D01*
X158680493Y-88699332D01*
X158700199Y-88713947D01*
X158718377Y-88730423D01*
X158734853Y-88748601D01*
X158749468Y-88768307D01*
X158762080Y-88789350D01*
X158772570Y-88811529D01*
X158780835Y-88834628D01*
X158786796Y-88858427D01*
X158790396Y-88882695D01*
X158791600Y-88907199D01*
X158791600Y-89807201D01*
X158790396Y-89831705D01*
X158786796Y-89855973D01*
X158780835Y-89879772D01*
X158772570Y-89902871D01*
X158762080Y-89925050D01*
X158749468Y-89946093D01*
X158734853Y-89965799D01*
X158718377Y-89983977D01*
X158700199Y-90000453D01*
X158680493Y-90015068D01*
X158659450Y-90027680D01*
X158637271Y-90038170D01*
X158614172Y-90046435D01*
X158590373Y-90052396D01*
X158566105Y-90055996D01*
X158541601Y-90057200D01*
X157891599Y-90057200D01*
X157867095Y-90055996D01*
X157842827Y-90052396D01*
X157819028Y-90046435D01*
X157795929Y-90038170D01*
X157773750Y-90027680D01*
X157752707Y-90015068D01*
X157733001Y-90000453D01*
X157714823Y-89983977D01*
X157698347Y-89965799D01*
X157683732Y-89946093D01*
X157671120Y-89925050D01*
X157660630Y-89902871D01*
X157652365Y-89879772D01*
X157646404Y-89855973D01*
X157642804Y-89831705D01*
X157641600Y-89807201D01*
X157641600Y-88907199D01*
X157642804Y-88882695D01*
X157646404Y-88858427D01*
X157652365Y-88834628D01*
X157660630Y-88811529D01*
X157671120Y-88789350D01*
X157683732Y-88768307D01*
X157698347Y-88748601D01*
X157714823Y-88730423D01*
X157733001Y-88713947D01*
X157752707Y-88699332D01*
X157773750Y-88686720D01*
X157795929Y-88676230D01*
X157819028Y-88667965D01*
X157842827Y-88662004D01*
X157867095Y-88658404D01*
X157891599Y-88657200D01*
X158541601Y-88657200D01*
X158566105Y-88658404D01*
X158566105Y-88658404D01*
G37*
D13*
X158216600Y-89357200D03*
D12*
G36*
X156516105Y-88658404D02*
X156540373Y-88662004D01*
X156564172Y-88667965D01*
X156587271Y-88676230D01*
X156609450Y-88686720D01*
X156630493Y-88699332D01*
X156650199Y-88713947D01*
X156668377Y-88730423D01*
X156684853Y-88748601D01*
X156699468Y-88768307D01*
X156712080Y-88789350D01*
X156722570Y-88811529D01*
X156730835Y-88834628D01*
X156736796Y-88858427D01*
X156740396Y-88882695D01*
X156741600Y-88907199D01*
X156741600Y-89807201D01*
X156740396Y-89831705D01*
X156736796Y-89855973D01*
X156730835Y-89879772D01*
X156722570Y-89902871D01*
X156712080Y-89925050D01*
X156699468Y-89946093D01*
X156684853Y-89965799D01*
X156668377Y-89983977D01*
X156650199Y-90000453D01*
X156630493Y-90015068D01*
X156609450Y-90027680D01*
X156587271Y-90038170D01*
X156564172Y-90046435D01*
X156540373Y-90052396D01*
X156516105Y-90055996D01*
X156491601Y-90057200D01*
X155841599Y-90057200D01*
X155817095Y-90055996D01*
X155792827Y-90052396D01*
X155769028Y-90046435D01*
X155745929Y-90038170D01*
X155723750Y-90027680D01*
X155702707Y-90015068D01*
X155683001Y-90000453D01*
X155664823Y-89983977D01*
X155648347Y-89965799D01*
X155633732Y-89946093D01*
X155621120Y-89925050D01*
X155610630Y-89902871D01*
X155602365Y-89879772D01*
X155596404Y-89855973D01*
X155592804Y-89831705D01*
X155591600Y-89807201D01*
X155591600Y-88907199D01*
X155592804Y-88882695D01*
X155596404Y-88858427D01*
X155602365Y-88834628D01*
X155610630Y-88811529D01*
X155621120Y-88789350D01*
X155633732Y-88768307D01*
X155648347Y-88748601D01*
X155664823Y-88730423D01*
X155683001Y-88713947D01*
X155702707Y-88699332D01*
X155723750Y-88686720D01*
X155745929Y-88676230D01*
X155769028Y-88667965D01*
X155792827Y-88662004D01*
X155817095Y-88658404D01*
X155841599Y-88657200D01*
X156491601Y-88657200D01*
X156516105Y-88658404D01*
X156516105Y-88658404D01*
G37*
D13*
X156166600Y-89357200D03*
G04 #@! TD*
D12*
G04 #@! TO.C,R9*
G36*
X114774505Y-93533204D02*
X114798773Y-93536804D01*
X114822572Y-93542765D01*
X114845671Y-93551030D01*
X114867850Y-93561520D01*
X114888893Y-93574132D01*
X114908599Y-93588747D01*
X114926777Y-93605223D01*
X114943253Y-93623401D01*
X114957868Y-93643107D01*
X114970480Y-93664150D01*
X114980970Y-93686329D01*
X114989235Y-93709428D01*
X114995196Y-93733227D01*
X114998796Y-93757495D01*
X115000000Y-93781999D01*
X115000000Y-94432001D01*
X114998796Y-94456505D01*
X114995196Y-94480773D01*
X114989235Y-94504572D01*
X114980970Y-94527671D01*
X114970480Y-94549850D01*
X114957868Y-94570893D01*
X114943253Y-94590599D01*
X114926777Y-94608777D01*
X114908599Y-94625253D01*
X114888893Y-94639868D01*
X114867850Y-94652480D01*
X114845671Y-94662970D01*
X114822572Y-94671235D01*
X114798773Y-94677196D01*
X114774505Y-94680796D01*
X114750001Y-94682000D01*
X113849999Y-94682000D01*
X113825495Y-94680796D01*
X113801227Y-94677196D01*
X113777428Y-94671235D01*
X113754329Y-94662970D01*
X113732150Y-94652480D01*
X113711107Y-94639868D01*
X113691401Y-94625253D01*
X113673223Y-94608777D01*
X113656747Y-94590599D01*
X113642132Y-94570893D01*
X113629520Y-94549850D01*
X113619030Y-94527671D01*
X113610765Y-94504572D01*
X113604804Y-94480773D01*
X113601204Y-94456505D01*
X113600000Y-94432001D01*
X113600000Y-93781999D01*
X113601204Y-93757495D01*
X113604804Y-93733227D01*
X113610765Y-93709428D01*
X113619030Y-93686329D01*
X113629520Y-93664150D01*
X113642132Y-93643107D01*
X113656747Y-93623401D01*
X113673223Y-93605223D01*
X113691401Y-93588747D01*
X113711107Y-93574132D01*
X113732150Y-93561520D01*
X113754329Y-93551030D01*
X113777428Y-93542765D01*
X113801227Y-93536804D01*
X113825495Y-93533204D01*
X113849999Y-93532000D01*
X114750001Y-93532000D01*
X114774505Y-93533204D01*
X114774505Y-93533204D01*
G37*
D13*
X114300000Y-94107000D03*
D12*
G36*
X114774505Y-95583204D02*
X114798773Y-95586804D01*
X114822572Y-95592765D01*
X114845671Y-95601030D01*
X114867850Y-95611520D01*
X114888893Y-95624132D01*
X114908599Y-95638747D01*
X114926777Y-95655223D01*
X114943253Y-95673401D01*
X114957868Y-95693107D01*
X114970480Y-95714150D01*
X114980970Y-95736329D01*
X114989235Y-95759428D01*
X114995196Y-95783227D01*
X114998796Y-95807495D01*
X115000000Y-95831999D01*
X115000000Y-96482001D01*
X114998796Y-96506505D01*
X114995196Y-96530773D01*
X114989235Y-96554572D01*
X114980970Y-96577671D01*
X114970480Y-96599850D01*
X114957868Y-96620893D01*
X114943253Y-96640599D01*
X114926777Y-96658777D01*
X114908599Y-96675253D01*
X114888893Y-96689868D01*
X114867850Y-96702480D01*
X114845671Y-96712970D01*
X114822572Y-96721235D01*
X114798773Y-96727196D01*
X114774505Y-96730796D01*
X114750001Y-96732000D01*
X113849999Y-96732000D01*
X113825495Y-96730796D01*
X113801227Y-96727196D01*
X113777428Y-96721235D01*
X113754329Y-96712970D01*
X113732150Y-96702480D01*
X113711107Y-96689868D01*
X113691401Y-96675253D01*
X113673223Y-96658777D01*
X113656747Y-96640599D01*
X113642132Y-96620893D01*
X113629520Y-96599850D01*
X113619030Y-96577671D01*
X113610765Y-96554572D01*
X113604804Y-96530773D01*
X113601204Y-96506505D01*
X113600000Y-96482001D01*
X113600000Y-95831999D01*
X113601204Y-95807495D01*
X113604804Y-95783227D01*
X113610765Y-95759428D01*
X113619030Y-95736329D01*
X113629520Y-95714150D01*
X113642132Y-95693107D01*
X113656747Y-95673401D01*
X113673223Y-95655223D01*
X113691401Y-95638747D01*
X113711107Y-95624132D01*
X113732150Y-95611520D01*
X113754329Y-95601030D01*
X113777428Y-95592765D01*
X113801227Y-95586804D01*
X113825495Y-95583204D01*
X113849999Y-95582000D01*
X114750001Y-95582000D01*
X114774505Y-95583204D01*
X114774505Y-95583204D01*
G37*
D13*
X114300000Y-96157000D03*
G04 #@! TD*
D12*
G04 #@! TO.C,R11*
G36*
X103727505Y-99250204D02*
X103751773Y-99253804D01*
X103775572Y-99259765D01*
X103798671Y-99268030D01*
X103820850Y-99278520D01*
X103841893Y-99291132D01*
X103861599Y-99305747D01*
X103879777Y-99322223D01*
X103896253Y-99340401D01*
X103910868Y-99360107D01*
X103923480Y-99381150D01*
X103933970Y-99403329D01*
X103942235Y-99426428D01*
X103948196Y-99450227D01*
X103951796Y-99474495D01*
X103953000Y-99498999D01*
X103953000Y-100399001D01*
X103951796Y-100423505D01*
X103948196Y-100447773D01*
X103942235Y-100471572D01*
X103933970Y-100494671D01*
X103923480Y-100516850D01*
X103910868Y-100537893D01*
X103896253Y-100557599D01*
X103879777Y-100575777D01*
X103861599Y-100592253D01*
X103841893Y-100606868D01*
X103820850Y-100619480D01*
X103798671Y-100629970D01*
X103775572Y-100638235D01*
X103751773Y-100644196D01*
X103727505Y-100647796D01*
X103703001Y-100649000D01*
X103052999Y-100649000D01*
X103028495Y-100647796D01*
X103004227Y-100644196D01*
X102980428Y-100638235D01*
X102957329Y-100629970D01*
X102935150Y-100619480D01*
X102914107Y-100606868D01*
X102894401Y-100592253D01*
X102876223Y-100575777D01*
X102859747Y-100557599D01*
X102845132Y-100537893D01*
X102832520Y-100516850D01*
X102822030Y-100494671D01*
X102813765Y-100471572D01*
X102807804Y-100447773D01*
X102804204Y-100423505D01*
X102803000Y-100399001D01*
X102803000Y-99498999D01*
X102804204Y-99474495D01*
X102807804Y-99450227D01*
X102813765Y-99426428D01*
X102822030Y-99403329D01*
X102832520Y-99381150D01*
X102845132Y-99360107D01*
X102859747Y-99340401D01*
X102876223Y-99322223D01*
X102894401Y-99305747D01*
X102914107Y-99291132D01*
X102935150Y-99278520D01*
X102957329Y-99268030D01*
X102980428Y-99259765D01*
X103004227Y-99253804D01*
X103028495Y-99250204D01*
X103052999Y-99249000D01*
X103703001Y-99249000D01*
X103727505Y-99250204D01*
X103727505Y-99250204D01*
G37*
D13*
X103378000Y-99949000D03*
D12*
G36*
X101677505Y-99250204D02*
X101701773Y-99253804D01*
X101725572Y-99259765D01*
X101748671Y-99268030D01*
X101770850Y-99278520D01*
X101791893Y-99291132D01*
X101811599Y-99305747D01*
X101829777Y-99322223D01*
X101846253Y-99340401D01*
X101860868Y-99360107D01*
X101873480Y-99381150D01*
X101883970Y-99403329D01*
X101892235Y-99426428D01*
X101898196Y-99450227D01*
X101901796Y-99474495D01*
X101903000Y-99498999D01*
X101903000Y-100399001D01*
X101901796Y-100423505D01*
X101898196Y-100447773D01*
X101892235Y-100471572D01*
X101883970Y-100494671D01*
X101873480Y-100516850D01*
X101860868Y-100537893D01*
X101846253Y-100557599D01*
X101829777Y-100575777D01*
X101811599Y-100592253D01*
X101791893Y-100606868D01*
X101770850Y-100619480D01*
X101748671Y-100629970D01*
X101725572Y-100638235D01*
X101701773Y-100644196D01*
X101677505Y-100647796D01*
X101653001Y-100649000D01*
X101002999Y-100649000D01*
X100978495Y-100647796D01*
X100954227Y-100644196D01*
X100930428Y-100638235D01*
X100907329Y-100629970D01*
X100885150Y-100619480D01*
X100864107Y-100606868D01*
X100844401Y-100592253D01*
X100826223Y-100575777D01*
X100809747Y-100557599D01*
X100795132Y-100537893D01*
X100782520Y-100516850D01*
X100772030Y-100494671D01*
X100763765Y-100471572D01*
X100757804Y-100447773D01*
X100754204Y-100423505D01*
X100753000Y-100399001D01*
X100753000Y-99498999D01*
X100754204Y-99474495D01*
X100757804Y-99450227D01*
X100763765Y-99426428D01*
X100772030Y-99403329D01*
X100782520Y-99381150D01*
X100795132Y-99360107D01*
X100809747Y-99340401D01*
X100826223Y-99322223D01*
X100844401Y-99305747D01*
X100864107Y-99291132D01*
X100885150Y-99278520D01*
X100907329Y-99268030D01*
X100930428Y-99259765D01*
X100954227Y-99253804D01*
X100978495Y-99250204D01*
X101002999Y-99249000D01*
X101653001Y-99249000D01*
X101677505Y-99250204D01*
X101677505Y-99250204D01*
G37*
D13*
X101328000Y-99949000D03*
G04 #@! TD*
D17*
G04 #@! TO.C,U1*
X156409600Y-97890200D03*
X156409600Y-98390200D03*
X156409600Y-98890200D03*
X156409600Y-99390200D03*
X156409600Y-99890200D03*
X156409600Y-100390200D03*
X156409600Y-100890200D03*
X159359600Y-97890200D03*
X159359600Y-98390200D03*
X159359600Y-98890200D03*
X159359600Y-99390200D03*
X159359600Y-99890200D03*
X159359600Y-100390200D03*
X159359600Y-100890200D03*
D18*
X157884600Y-97915200D03*
X157884600Y-100865200D03*
X157384600Y-97915200D03*
X158384600Y-97915200D03*
X157384600Y-100865200D03*
X158384600Y-100865200D03*
G04 #@! TD*
M02*
