G04 #@! TF.GenerationSoftware,KiCad,Pcbnew,(5.0.2)-1*
G04 #@! TF.CreationDate,2019-06-06T20:52:43-07:00*
G04 #@! TF.ProjectId,Complete PLL Board Rev5,436f6d70-6c65-4746-9520-504c4c20426f,rev?*
G04 #@! TF.SameCoordinates,Original*
G04 #@! TF.FileFunction,Copper,L2,Bot*
G04 #@! TF.FilePolarity,Positive*
%FSLAX46Y46*%
G04 Gerber Fmt 4.6, Leading zero omitted, Abs format (unit mm)*
G04 Created by KiCad (PCBNEW (5.0.2)-1) date 6/6/2019 8:52:43 PM*
%MOMM*%
%LPD*%
G01*
G04 APERTURE LIST*
G04 #@! TA.AperFunction,SMDPad,CuDef*
%ADD10R,2.420000X5.080000*%
G04 #@! TD*
G04 #@! TA.AperFunction,ViaPad*
%ADD11C,0.970000*%
G04 #@! TD*
G04 #@! TA.AperFunction,Conductor*
%ADD12R,0.460000X0.950000*%
G04 #@! TD*
G04 #@! TA.AperFunction,ComponentPad*
%ADD13O,2.000000X2.000000*%
G04 #@! TD*
G04 #@! TA.AperFunction,ComponentPad*
%ADD14R,2.000000X2.000000*%
G04 #@! TD*
G04 #@! TA.AperFunction,Conductor*
%ADD15C,0.100000*%
G04 #@! TD*
G04 #@! TA.AperFunction,SMDPad,CuDef*
%ADD16C,1.150000*%
G04 #@! TD*
G04 #@! TA.AperFunction,ComponentPad*
%ADD17O,2.200000X1.717500*%
G04 #@! TD*
G04 #@! TA.AperFunction,ComponentPad*
%ADD18R,2.200000X1.717500*%
G04 #@! TD*
G04 #@! TA.AperFunction,ComponentPad*
%ADD19R,2.200000X1.700000*%
G04 #@! TD*
G04 #@! TA.AperFunction,ComponentPad*
%ADD20O,2.200000X1.700000*%
G04 #@! TD*
G04 #@! TA.AperFunction,ComponentPad*
%ADD21R,2.500000X2.500000*%
G04 #@! TD*
G04 #@! TA.AperFunction,ComponentPad*
%ADD22O,2.500000X2.500000*%
G04 #@! TD*
G04 #@! TA.AperFunction,ComponentPad*
%ADD23R,2.100000X2.100000*%
G04 #@! TD*
G04 #@! TA.AperFunction,ComponentPad*
%ADD24O,2.100000X2.100000*%
G04 #@! TD*
G04 #@! TA.AperFunction,ViaPad*
%ADD25C,0.800000*%
G04 #@! TD*
G04 #@! TA.AperFunction,ViaPad*
%ADD26C,1.000000*%
G04 #@! TD*
G04 #@! TA.AperFunction,Conductor*
%ADD27C,0.250000*%
G04 #@! TD*
G04 #@! TA.AperFunction,Conductor*
%ADD28C,0.508000*%
G04 #@! TD*
G04 #@! TA.AperFunction,Conductor*
%ADD29C,0.762000*%
G04 #@! TD*
G04 #@! TA.AperFunction,Conductor*
%ADD30C,0.254000*%
G04 #@! TD*
G04 APERTURE END LIST*
D10*
G04 #@! TO.P,VCO_Out,2*
G04 #@! TO.N,GND*
X101715800Y-118999000D03*
X110475800Y-118999000D03*
D11*
G04 #@! TD*
G04 #@! TO.N,GND*
G04 #@! TO.C,VCO_Out*
X101715800Y-115559000D03*
G04 #@! TO.N,GND*
G04 #@! TO.C,VCO_Out*
X110475800Y-115559000D03*
D12*
X101715800Y-116009000D03*
X110475800Y-116009000D03*
G04 #@! TD*
D13*
G04 #@! TO.P,3.3V,2*
G04 #@! TO.N,GND*
X185039000Y-96393000D03*
D14*
G04 #@! TO.P,3.3V,1*
G04 #@! TO.N,Net-(D1-Pad1)*
X185039000Y-93853000D03*
G04 #@! TD*
D12*
G04 #@! TO.N,GND*
G04 #@! TO.C,VCO_Test*
X126858800Y-116136000D03*
X118098800Y-116136000D03*
D11*
X126858800Y-115686000D03*
X118098800Y-115686000D03*
D10*
G04 #@! TD*
G04 #@! TO.P,VCO_Test,2*
G04 #@! TO.N,GND*
X126858800Y-119126000D03*
G04 #@! TO.P,VCO_Test,2*
G04 #@! TO.N,GND*
X118098800Y-119126000D03*
G04 #@! TD*
G04 #@! TO.P,Ref_Osc,2*
G04 #@! TO.N,GND*
X134558000Y-119380000D03*
X143318000Y-119380000D03*
D11*
G04 #@! TD*
G04 #@! TO.N,GND*
G04 #@! TO.C,Ref_Osc*
X134558000Y-115940000D03*
G04 #@! TO.N,GND*
G04 #@! TO.C,Ref_Osc*
X143318000Y-115940000D03*
D12*
X134558000Y-116390000D03*
X143318000Y-116390000D03*
G04 #@! TD*
G04 #@! TO.N,GND*
G04 #@! TO.C,Test_CPo*
X141365200Y-84143000D03*
X150125200Y-84143000D03*
D11*
X141365200Y-84593000D03*
X150125200Y-84593000D03*
D10*
G04 #@! TD*
G04 #@! TO.P,Test_CPo,2*
G04 #@! TO.N,GND*
X141365200Y-81153000D03*
G04 #@! TO.P,Test_CPo,2*
G04 #@! TO.N,GND*
X150125200Y-81153000D03*
G04 #@! TD*
D15*
G04 #@! TO.N,Net-(C28-Pad2)*
G04 #@! TO.C,C28*
G36*
X122837305Y-110400804D02*
X122861573Y-110404404D01*
X122885372Y-110410365D01*
X122908471Y-110418630D01*
X122930650Y-110429120D01*
X122951693Y-110441732D01*
X122971399Y-110456347D01*
X122989577Y-110472823D01*
X123006053Y-110491001D01*
X123020668Y-110510707D01*
X123033280Y-110531750D01*
X123043770Y-110553929D01*
X123052035Y-110577028D01*
X123057996Y-110600827D01*
X123061596Y-110625095D01*
X123062800Y-110649599D01*
X123062800Y-111549601D01*
X123061596Y-111574105D01*
X123057996Y-111598373D01*
X123052035Y-111622172D01*
X123043770Y-111645271D01*
X123033280Y-111667450D01*
X123020668Y-111688493D01*
X123006053Y-111708199D01*
X122989577Y-111726377D01*
X122971399Y-111742853D01*
X122951693Y-111757468D01*
X122930650Y-111770080D01*
X122908471Y-111780570D01*
X122885372Y-111788835D01*
X122861573Y-111794796D01*
X122837305Y-111798396D01*
X122812801Y-111799600D01*
X122162799Y-111799600D01*
X122138295Y-111798396D01*
X122114027Y-111794796D01*
X122090228Y-111788835D01*
X122067129Y-111780570D01*
X122044950Y-111770080D01*
X122023907Y-111757468D01*
X122004201Y-111742853D01*
X121986023Y-111726377D01*
X121969547Y-111708199D01*
X121954932Y-111688493D01*
X121942320Y-111667450D01*
X121931830Y-111645271D01*
X121923565Y-111622172D01*
X121917604Y-111598373D01*
X121914004Y-111574105D01*
X121912800Y-111549601D01*
X121912800Y-110649599D01*
X121914004Y-110625095D01*
X121917604Y-110600827D01*
X121923565Y-110577028D01*
X121931830Y-110553929D01*
X121942320Y-110531750D01*
X121954932Y-110510707D01*
X121969547Y-110491001D01*
X121986023Y-110472823D01*
X122004201Y-110456347D01*
X122023907Y-110441732D01*
X122044950Y-110429120D01*
X122067129Y-110418630D01*
X122090228Y-110410365D01*
X122114027Y-110404404D01*
X122138295Y-110400804D01*
X122162799Y-110399600D01*
X122812801Y-110399600D01*
X122837305Y-110400804D01*
X122837305Y-110400804D01*
G37*
D16*
G04 #@! TD*
G04 #@! TO.P,C28,2*
G04 #@! TO.N,Net-(C28-Pad2)*
X122487800Y-111099600D03*
D15*
G04 #@! TO.N,GND*
G04 #@! TO.C,C28*
G36*
X120787305Y-110400804D02*
X120811573Y-110404404D01*
X120835372Y-110410365D01*
X120858471Y-110418630D01*
X120880650Y-110429120D01*
X120901693Y-110441732D01*
X120921399Y-110456347D01*
X120939577Y-110472823D01*
X120956053Y-110491001D01*
X120970668Y-110510707D01*
X120983280Y-110531750D01*
X120993770Y-110553929D01*
X121002035Y-110577028D01*
X121007996Y-110600827D01*
X121011596Y-110625095D01*
X121012800Y-110649599D01*
X121012800Y-111549601D01*
X121011596Y-111574105D01*
X121007996Y-111598373D01*
X121002035Y-111622172D01*
X120993770Y-111645271D01*
X120983280Y-111667450D01*
X120970668Y-111688493D01*
X120956053Y-111708199D01*
X120939577Y-111726377D01*
X120921399Y-111742853D01*
X120901693Y-111757468D01*
X120880650Y-111770080D01*
X120858471Y-111780570D01*
X120835372Y-111788835D01*
X120811573Y-111794796D01*
X120787305Y-111798396D01*
X120762801Y-111799600D01*
X120112799Y-111799600D01*
X120088295Y-111798396D01*
X120064027Y-111794796D01*
X120040228Y-111788835D01*
X120017129Y-111780570D01*
X119994950Y-111770080D01*
X119973907Y-111757468D01*
X119954201Y-111742853D01*
X119936023Y-111726377D01*
X119919547Y-111708199D01*
X119904932Y-111688493D01*
X119892320Y-111667450D01*
X119881830Y-111645271D01*
X119873565Y-111622172D01*
X119867604Y-111598373D01*
X119864004Y-111574105D01*
X119862800Y-111549601D01*
X119862800Y-110649599D01*
X119864004Y-110625095D01*
X119867604Y-110600827D01*
X119873565Y-110577028D01*
X119881830Y-110553929D01*
X119892320Y-110531750D01*
X119904932Y-110510707D01*
X119919547Y-110491001D01*
X119936023Y-110472823D01*
X119954201Y-110456347D01*
X119973907Y-110441732D01*
X119994950Y-110429120D01*
X120017129Y-110418630D01*
X120040228Y-110410365D01*
X120064027Y-110404404D01*
X120088295Y-110400804D01*
X120112799Y-110399600D01*
X120762801Y-110399600D01*
X120787305Y-110400804D01*
X120787305Y-110400804D01*
G37*
D16*
G04 #@! TD*
G04 #@! TO.P,C28,1*
G04 #@! TO.N,GND*
X120437800Y-111099600D03*
D15*
G04 #@! TO.N,GND*
G04 #@! TO.C,C29*
G36*
X120778305Y-108622804D02*
X120802573Y-108626404D01*
X120826372Y-108632365D01*
X120849471Y-108640630D01*
X120871650Y-108651120D01*
X120892693Y-108663732D01*
X120912399Y-108678347D01*
X120930577Y-108694823D01*
X120947053Y-108713001D01*
X120961668Y-108732707D01*
X120974280Y-108753750D01*
X120984770Y-108775929D01*
X120993035Y-108799028D01*
X120998996Y-108822827D01*
X121002596Y-108847095D01*
X121003800Y-108871599D01*
X121003800Y-109771601D01*
X121002596Y-109796105D01*
X120998996Y-109820373D01*
X120993035Y-109844172D01*
X120984770Y-109867271D01*
X120974280Y-109889450D01*
X120961668Y-109910493D01*
X120947053Y-109930199D01*
X120930577Y-109948377D01*
X120912399Y-109964853D01*
X120892693Y-109979468D01*
X120871650Y-109992080D01*
X120849471Y-110002570D01*
X120826372Y-110010835D01*
X120802573Y-110016796D01*
X120778305Y-110020396D01*
X120753801Y-110021600D01*
X120103799Y-110021600D01*
X120079295Y-110020396D01*
X120055027Y-110016796D01*
X120031228Y-110010835D01*
X120008129Y-110002570D01*
X119985950Y-109992080D01*
X119964907Y-109979468D01*
X119945201Y-109964853D01*
X119927023Y-109948377D01*
X119910547Y-109930199D01*
X119895932Y-109910493D01*
X119883320Y-109889450D01*
X119872830Y-109867271D01*
X119864565Y-109844172D01*
X119858604Y-109820373D01*
X119855004Y-109796105D01*
X119853800Y-109771601D01*
X119853800Y-108871599D01*
X119855004Y-108847095D01*
X119858604Y-108822827D01*
X119864565Y-108799028D01*
X119872830Y-108775929D01*
X119883320Y-108753750D01*
X119895932Y-108732707D01*
X119910547Y-108713001D01*
X119927023Y-108694823D01*
X119945201Y-108678347D01*
X119964907Y-108663732D01*
X119985950Y-108651120D01*
X120008129Y-108640630D01*
X120031228Y-108632365D01*
X120055027Y-108626404D01*
X120079295Y-108622804D01*
X120103799Y-108621600D01*
X120753801Y-108621600D01*
X120778305Y-108622804D01*
X120778305Y-108622804D01*
G37*
D16*
G04 #@! TD*
G04 #@! TO.P,C29,1*
G04 #@! TO.N,GND*
X120428800Y-109321600D03*
D15*
G04 #@! TO.N,Net-(C28-Pad2)*
G04 #@! TO.C,C29*
G36*
X122828305Y-108622804D02*
X122852573Y-108626404D01*
X122876372Y-108632365D01*
X122899471Y-108640630D01*
X122921650Y-108651120D01*
X122942693Y-108663732D01*
X122962399Y-108678347D01*
X122980577Y-108694823D01*
X122997053Y-108713001D01*
X123011668Y-108732707D01*
X123024280Y-108753750D01*
X123034770Y-108775929D01*
X123043035Y-108799028D01*
X123048996Y-108822827D01*
X123052596Y-108847095D01*
X123053800Y-108871599D01*
X123053800Y-109771601D01*
X123052596Y-109796105D01*
X123048996Y-109820373D01*
X123043035Y-109844172D01*
X123034770Y-109867271D01*
X123024280Y-109889450D01*
X123011668Y-109910493D01*
X122997053Y-109930199D01*
X122980577Y-109948377D01*
X122962399Y-109964853D01*
X122942693Y-109979468D01*
X122921650Y-109992080D01*
X122899471Y-110002570D01*
X122876372Y-110010835D01*
X122852573Y-110016796D01*
X122828305Y-110020396D01*
X122803801Y-110021600D01*
X122153799Y-110021600D01*
X122129295Y-110020396D01*
X122105027Y-110016796D01*
X122081228Y-110010835D01*
X122058129Y-110002570D01*
X122035950Y-109992080D01*
X122014907Y-109979468D01*
X121995201Y-109964853D01*
X121977023Y-109948377D01*
X121960547Y-109930199D01*
X121945932Y-109910493D01*
X121933320Y-109889450D01*
X121922830Y-109867271D01*
X121914565Y-109844172D01*
X121908604Y-109820373D01*
X121905004Y-109796105D01*
X121903800Y-109771601D01*
X121903800Y-108871599D01*
X121905004Y-108847095D01*
X121908604Y-108822827D01*
X121914565Y-108799028D01*
X121922830Y-108775929D01*
X121933320Y-108753750D01*
X121945932Y-108732707D01*
X121960547Y-108713001D01*
X121977023Y-108694823D01*
X121995201Y-108678347D01*
X122014907Y-108663732D01*
X122035950Y-108651120D01*
X122058129Y-108640630D01*
X122081228Y-108632365D01*
X122105027Y-108626404D01*
X122129295Y-108622804D01*
X122153799Y-108621600D01*
X122803801Y-108621600D01*
X122828305Y-108622804D01*
X122828305Y-108622804D01*
G37*
D16*
G04 #@! TD*
G04 #@! TO.P,C29,2*
G04 #@! TO.N,Net-(C28-Pad2)*
X122478800Y-109321600D03*
D15*
G04 #@! TO.N,8V*
G04 #@! TO.C,C26*
G36*
X123349005Y-88696504D02*
X123373273Y-88700104D01*
X123397072Y-88706065D01*
X123420171Y-88714330D01*
X123442350Y-88724820D01*
X123463393Y-88737432D01*
X123483099Y-88752047D01*
X123501277Y-88768523D01*
X123517753Y-88786701D01*
X123532368Y-88806407D01*
X123544980Y-88827450D01*
X123555470Y-88849629D01*
X123563735Y-88872728D01*
X123569696Y-88896527D01*
X123573296Y-88920795D01*
X123574500Y-88945299D01*
X123574500Y-89845301D01*
X123573296Y-89869805D01*
X123569696Y-89894073D01*
X123563735Y-89917872D01*
X123555470Y-89940971D01*
X123544980Y-89963150D01*
X123532368Y-89984193D01*
X123517753Y-90003899D01*
X123501277Y-90022077D01*
X123483099Y-90038553D01*
X123463393Y-90053168D01*
X123442350Y-90065780D01*
X123420171Y-90076270D01*
X123397072Y-90084535D01*
X123373273Y-90090496D01*
X123349005Y-90094096D01*
X123324501Y-90095300D01*
X122674499Y-90095300D01*
X122649995Y-90094096D01*
X122625727Y-90090496D01*
X122601928Y-90084535D01*
X122578829Y-90076270D01*
X122556650Y-90065780D01*
X122535607Y-90053168D01*
X122515901Y-90038553D01*
X122497723Y-90022077D01*
X122481247Y-90003899D01*
X122466632Y-89984193D01*
X122454020Y-89963150D01*
X122443530Y-89940971D01*
X122435265Y-89917872D01*
X122429304Y-89894073D01*
X122425704Y-89869805D01*
X122424500Y-89845301D01*
X122424500Y-88945299D01*
X122425704Y-88920795D01*
X122429304Y-88896527D01*
X122435265Y-88872728D01*
X122443530Y-88849629D01*
X122454020Y-88827450D01*
X122466632Y-88806407D01*
X122481247Y-88786701D01*
X122497723Y-88768523D01*
X122515901Y-88752047D01*
X122535607Y-88737432D01*
X122556650Y-88724820D01*
X122578829Y-88714330D01*
X122601928Y-88706065D01*
X122625727Y-88700104D01*
X122649995Y-88696504D01*
X122674499Y-88695300D01*
X123324501Y-88695300D01*
X123349005Y-88696504D01*
X123349005Y-88696504D01*
G37*
D16*
G04 #@! TD*
G04 #@! TO.P,C26,2*
G04 #@! TO.N,8V*
X122999500Y-89395300D03*
D15*
G04 #@! TO.N,GND*
G04 #@! TO.C,C26*
G36*
X125399005Y-88696504D02*
X125423273Y-88700104D01*
X125447072Y-88706065D01*
X125470171Y-88714330D01*
X125492350Y-88724820D01*
X125513393Y-88737432D01*
X125533099Y-88752047D01*
X125551277Y-88768523D01*
X125567753Y-88786701D01*
X125582368Y-88806407D01*
X125594980Y-88827450D01*
X125605470Y-88849629D01*
X125613735Y-88872728D01*
X125619696Y-88896527D01*
X125623296Y-88920795D01*
X125624500Y-88945299D01*
X125624500Y-89845301D01*
X125623296Y-89869805D01*
X125619696Y-89894073D01*
X125613735Y-89917872D01*
X125605470Y-89940971D01*
X125594980Y-89963150D01*
X125582368Y-89984193D01*
X125567753Y-90003899D01*
X125551277Y-90022077D01*
X125533099Y-90038553D01*
X125513393Y-90053168D01*
X125492350Y-90065780D01*
X125470171Y-90076270D01*
X125447072Y-90084535D01*
X125423273Y-90090496D01*
X125399005Y-90094096D01*
X125374501Y-90095300D01*
X124724499Y-90095300D01*
X124699995Y-90094096D01*
X124675727Y-90090496D01*
X124651928Y-90084535D01*
X124628829Y-90076270D01*
X124606650Y-90065780D01*
X124585607Y-90053168D01*
X124565901Y-90038553D01*
X124547723Y-90022077D01*
X124531247Y-90003899D01*
X124516632Y-89984193D01*
X124504020Y-89963150D01*
X124493530Y-89940971D01*
X124485265Y-89917872D01*
X124479304Y-89894073D01*
X124475704Y-89869805D01*
X124474500Y-89845301D01*
X124474500Y-88945299D01*
X124475704Y-88920795D01*
X124479304Y-88896527D01*
X124485265Y-88872728D01*
X124493530Y-88849629D01*
X124504020Y-88827450D01*
X124516632Y-88806407D01*
X124531247Y-88786701D01*
X124547723Y-88768523D01*
X124565901Y-88752047D01*
X124585607Y-88737432D01*
X124606650Y-88724820D01*
X124628829Y-88714330D01*
X124651928Y-88706065D01*
X124675727Y-88700104D01*
X124699995Y-88696504D01*
X124724499Y-88695300D01*
X125374501Y-88695300D01*
X125399005Y-88696504D01*
X125399005Y-88696504D01*
G37*
D16*
G04 #@! TD*
G04 #@! TO.P,C26,1*
G04 #@! TO.N,GND*
X125049500Y-89395300D03*
D15*
G04 #@! TO.N,GND*
G04 #@! TO.C,C25*
G36*
X99658205Y-86334304D02*
X99682473Y-86337904D01*
X99706272Y-86343865D01*
X99729371Y-86352130D01*
X99751550Y-86362620D01*
X99772593Y-86375232D01*
X99792299Y-86389847D01*
X99810477Y-86406323D01*
X99826953Y-86424501D01*
X99841568Y-86444207D01*
X99854180Y-86465250D01*
X99864670Y-86487429D01*
X99872935Y-86510528D01*
X99878896Y-86534327D01*
X99882496Y-86558595D01*
X99883700Y-86583099D01*
X99883700Y-87483101D01*
X99882496Y-87507605D01*
X99878896Y-87531873D01*
X99872935Y-87555672D01*
X99864670Y-87578771D01*
X99854180Y-87600950D01*
X99841568Y-87621993D01*
X99826953Y-87641699D01*
X99810477Y-87659877D01*
X99792299Y-87676353D01*
X99772593Y-87690968D01*
X99751550Y-87703580D01*
X99729371Y-87714070D01*
X99706272Y-87722335D01*
X99682473Y-87728296D01*
X99658205Y-87731896D01*
X99633701Y-87733100D01*
X98983699Y-87733100D01*
X98959195Y-87731896D01*
X98934927Y-87728296D01*
X98911128Y-87722335D01*
X98888029Y-87714070D01*
X98865850Y-87703580D01*
X98844807Y-87690968D01*
X98825101Y-87676353D01*
X98806923Y-87659877D01*
X98790447Y-87641699D01*
X98775832Y-87621993D01*
X98763220Y-87600950D01*
X98752730Y-87578771D01*
X98744465Y-87555672D01*
X98738504Y-87531873D01*
X98734904Y-87507605D01*
X98733700Y-87483101D01*
X98733700Y-86583099D01*
X98734904Y-86558595D01*
X98738504Y-86534327D01*
X98744465Y-86510528D01*
X98752730Y-86487429D01*
X98763220Y-86465250D01*
X98775832Y-86444207D01*
X98790447Y-86424501D01*
X98806923Y-86406323D01*
X98825101Y-86389847D01*
X98844807Y-86375232D01*
X98865850Y-86362620D01*
X98888029Y-86352130D01*
X98911128Y-86343865D01*
X98934927Y-86337904D01*
X98959195Y-86334304D01*
X98983699Y-86333100D01*
X99633701Y-86333100D01*
X99658205Y-86334304D01*
X99658205Y-86334304D01*
G37*
D16*
G04 #@! TD*
G04 #@! TO.P,C25,1*
G04 #@! TO.N,GND*
X99308700Y-87033100D03*
D15*
G04 #@! TO.N,8V*
G04 #@! TO.C,C25*
G36*
X101708205Y-86334304D02*
X101732473Y-86337904D01*
X101756272Y-86343865D01*
X101779371Y-86352130D01*
X101801550Y-86362620D01*
X101822593Y-86375232D01*
X101842299Y-86389847D01*
X101860477Y-86406323D01*
X101876953Y-86424501D01*
X101891568Y-86444207D01*
X101904180Y-86465250D01*
X101914670Y-86487429D01*
X101922935Y-86510528D01*
X101928896Y-86534327D01*
X101932496Y-86558595D01*
X101933700Y-86583099D01*
X101933700Y-87483101D01*
X101932496Y-87507605D01*
X101928896Y-87531873D01*
X101922935Y-87555672D01*
X101914670Y-87578771D01*
X101904180Y-87600950D01*
X101891568Y-87621993D01*
X101876953Y-87641699D01*
X101860477Y-87659877D01*
X101842299Y-87676353D01*
X101822593Y-87690968D01*
X101801550Y-87703580D01*
X101779371Y-87714070D01*
X101756272Y-87722335D01*
X101732473Y-87728296D01*
X101708205Y-87731896D01*
X101683701Y-87733100D01*
X101033699Y-87733100D01*
X101009195Y-87731896D01*
X100984927Y-87728296D01*
X100961128Y-87722335D01*
X100938029Y-87714070D01*
X100915850Y-87703580D01*
X100894807Y-87690968D01*
X100875101Y-87676353D01*
X100856923Y-87659877D01*
X100840447Y-87641699D01*
X100825832Y-87621993D01*
X100813220Y-87600950D01*
X100802730Y-87578771D01*
X100794465Y-87555672D01*
X100788504Y-87531873D01*
X100784904Y-87507605D01*
X100783700Y-87483101D01*
X100783700Y-86583099D01*
X100784904Y-86558595D01*
X100788504Y-86534327D01*
X100794465Y-86510528D01*
X100802730Y-86487429D01*
X100813220Y-86465250D01*
X100825832Y-86444207D01*
X100840447Y-86424501D01*
X100856923Y-86406323D01*
X100875101Y-86389847D01*
X100894807Y-86375232D01*
X100915850Y-86362620D01*
X100938029Y-86352130D01*
X100961128Y-86343865D01*
X100984927Y-86337904D01*
X101009195Y-86334304D01*
X101033699Y-86333100D01*
X101683701Y-86333100D01*
X101708205Y-86334304D01*
X101708205Y-86334304D01*
G37*
D16*
G04 #@! TD*
G04 #@! TO.P,C25,2*
G04 #@! TO.N,8V*
X101358700Y-87033100D03*
D15*
G04 #@! TO.N,GND*
G04 #@! TO.C,C24*
G36*
X135348505Y-95819204D02*
X135372773Y-95822804D01*
X135396572Y-95828765D01*
X135419671Y-95837030D01*
X135441850Y-95847520D01*
X135462893Y-95860132D01*
X135482599Y-95874747D01*
X135500777Y-95891223D01*
X135517253Y-95909401D01*
X135531868Y-95929107D01*
X135544480Y-95950150D01*
X135554970Y-95972329D01*
X135563235Y-95995428D01*
X135569196Y-96019227D01*
X135572796Y-96043495D01*
X135574000Y-96067999D01*
X135574000Y-96718001D01*
X135572796Y-96742505D01*
X135569196Y-96766773D01*
X135563235Y-96790572D01*
X135554970Y-96813671D01*
X135544480Y-96835850D01*
X135531868Y-96856893D01*
X135517253Y-96876599D01*
X135500777Y-96894777D01*
X135482599Y-96911253D01*
X135462893Y-96925868D01*
X135441850Y-96938480D01*
X135419671Y-96948970D01*
X135396572Y-96957235D01*
X135372773Y-96963196D01*
X135348505Y-96966796D01*
X135324001Y-96968000D01*
X134423999Y-96968000D01*
X134399495Y-96966796D01*
X134375227Y-96963196D01*
X134351428Y-96957235D01*
X134328329Y-96948970D01*
X134306150Y-96938480D01*
X134285107Y-96925868D01*
X134265401Y-96911253D01*
X134247223Y-96894777D01*
X134230747Y-96876599D01*
X134216132Y-96856893D01*
X134203520Y-96835850D01*
X134193030Y-96813671D01*
X134184765Y-96790572D01*
X134178804Y-96766773D01*
X134175204Y-96742505D01*
X134174000Y-96718001D01*
X134174000Y-96067999D01*
X134175204Y-96043495D01*
X134178804Y-96019227D01*
X134184765Y-95995428D01*
X134193030Y-95972329D01*
X134203520Y-95950150D01*
X134216132Y-95929107D01*
X134230747Y-95909401D01*
X134247223Y-95891223D01*
X134265401Y-95874747D01*
X134285107Y-95860132D01*
X134306150Y-95847520D01*
X134328329Y-95837030D01*
X134351428Y-95828765D01*
X134375227Y-95822804D01*
X134399495Y-95819204D01*
X134423999Y-95818000D01*
X135324001Y-95818000D01*
X135348505Y-95819204D01*
X135348505Y-95819204D01*
G37*
D16*
G04 #@! TD*
G04 #@! TO.P,C24,2*
G04 #@! TO.N,GND*
X134874000Y-96393000D03*
D15*
G04 #@! TO.N,Net-(C24-Pad1)*
G04 #@! TO.C,C24*
G36*
X135348505Y-97869204D02*
X135372773Y-97872804D01*
X135396572Y-97878765D01*
X135419671Y-97887030D01*
X135441850Y-97897520D01*
X135462893Y-97910132D01*
X135482599Y-97924747D01*
X135500777Y-97941223D01*
X135517253Y-97959401D01*
X135531868Y-97979107D01*
X135544480Y-98000150D01*
X135554970Y-98022329D01*
X135563235Y-98045428D01*
X135569196Y-98069227D01*
X135572796Y-98093495D01*
X135574000Y-98117999D01*
X135574000Y-98768001D01*
X135572796Y-98792505D01*
X135569196Y-98816773D01*
X135563235Y-98840572D01*
X135554970Y-98863671D01*
X135544480Y-98885850D01*
X135531868Y-98906893D01*
X135517253Y-98926599D01*
X135500777Y-98944777D01*
X135482599Y-98961253D01*
X135462893Y-98975868D01*
X135441850Y-98988480D01*
X135419671Y-98998970D01*
X135396572Y-99007235D01*
X135372773Y-99013196D01*
X135348505Y-99016796D01*
X135324001Y-99018000D01*
X134423999Y-99018000D01*
X134399495Y-99016796D01*
X134375227Y-99013196D01*
X134351428Y-99007235D01*
X134328329Y-98998970D01*
X134306150Y-98988480D01*
X134285107Y-98975868D01*
X134265401Y-98961253D01*
X134247223Y-98944777D01*
X134230747Y-98926599D01*
X134216132Y-98906893D01*
X134203520Y-98885850D01*
X134193030Y-98863671D01*
X134184765Y-98840572D01*
X134178804Y-98816773D01*
X134175204Y-98792505D01*
X134174000Y-98768001D01*
X134174000Y-98117999D01*
X134175204Y-98093495D01*
X134178804Y-98069227D01*
X134184765Y-98045428D01*
X134193030Y-98022329D01*
X134203520Y-98000150D01*
X134216132Y-97979107D01*
X134230747Y-97959401D01*
X134247223Y-97941223D01*
X134265401Y-97924747D01*
X134285107Y-97910132D01*
X134306150Y-97897520D01*
X134328329Y-97887030D01*
X134351428Y-97878765D01*
X134375227Y-97872804D01*
X134399495Y-97869204D01*
X134423999Y-97868000D01*
X135324001Y-97868000D01*
X135348505Y-97869204D01*
X135348505Y-97869204D01*
G37*
D16*
G04 #@! TD*
G04 #@! TO.P,C24,1*
G04 #@! TO.N,Net-(C24-Pad1)*
X134874000Y-98443000D03*
D15*
G04 #@! TO.N,Net-(C23-Pad1)*
G04 #@! TO.C,C23*
G36*
X137634505Y-97851204D02*
X137658773Y-97854804D01*
X137682572Y-97860765D01*
X137705671Y-97869030D01*
X137727850Y-97879520D01*
X137748893Y-97892132D01*
X137768599Y-97906747D01*
X137786777Y-97923223D01*
X137803253Y-97941401D01*
X137817868Y-97961107D01*
X137830480Y-97982150D01*
X137840970Y-98004329D01*
X137849235Y-98027428D01*
X137855196Y-98051227D01*
X137858796Y-98075495D01*
X137860000Y-98099999D01*
X137860000Y-98750001D01*
X137858796Y-98774505D01*
X137855196Y-98798773D01*
X137849235Y-98822572D01*
X137840970Y-98845671D01*
X137830480Y-98867850D01*
X137817868Y-98888893D01*
X137803253Y-98908599D01*
X137786777Y-98926777D01*
X137768599Y-98943253D01*
X137748893Y-98957868D01*
X137727850Y-98970480D01*
X137705671Y-98980970D01*
X137682572Y-98989235D01*
X137658773Y-98995196D01*
X137634505Y-98998796D01*
X137610001Y-99000000D01*
X136709999Y-99000000D01*
X136685495Y-98998796D01*
X136661227Y-98995196D01*
X136637428Y-98989235D01*
X136614329Y-98980970D01*
X136592150Y-98970480D01*
X136571107Y-98957868D01*
X136551401Y-98943253D01*
X136533223Y-98926777D01*
X136516747Y-98908599D01*
X136502132Y-98888893D01*
X136489520Y-98867850D01*
X136479030Y-98845671D01*
X136470765Y-98822572D01*
X136464804Y-98798773D01*
X136461204Y-98774505D01*
X136460000Y-98750001D01*
X136460000Y-98099999D01*
X136461204Y-98075495D01*
X136464804Y-98051227D01*
X136470765Y-98027428D01*
X136479030Y-98004329D01*
X136489520Y-97982150D01*
X136502132Y-97961107D01*
X136516747Y-97941401D01*
X136533223Y-97923223D01*
X136551401Y-97906747D01*
X136571107Y-97892132D01*
X136592150Y-97879520D01*
X136614329Y-97869030D01*
X136637428Y-97860765D01*
X136661227Y-97854804D01*
X136685495Y-97851204D01*
X136709999Y-97850000D01*
X137610001Y-97850000D01*
X137634505Y-97851204D01*
X137634505Y-97851204D01*
G37*
D16*
G04 #@! TD*
G04 #@! TO.P,C23,1*
G04 #@! TO.N,Net-(C23-Pad1)*
X137160000Y-98425000D03*
D15*
G04 #@! TO.N,GND*
G04 #@! TO.C,C23*
G36*
X137634505Y-95801204D02*
X137658773Y-95804804D01*
X137682572Y-95810765D01*
X137705671Y-95819030D01*
X137727850Y-95829520D01*
X137748893Y-95842132D01*
X137768599Y-95856747D01*
X137786777Y-95873223D01*
X137803253Y-95891401D01*
X137817868Y-95911107D01*
X137830480Y-95932150D01*
X137840970Y-95954329D01*
X137849235Y-95977428D01*
X137855196Y-96001227D01*
X137858796Y-96025495D01*
X137860000Y-96049999D01*
X137860000Y-96700001D01*
X137858796Y-96724505D01*
X137855196Y-96748773D01*
X137849235Y-96772572D01*
X137840970Y-96795671D01*
X137830480Y-96817850D01*
X137817868Y-96838893D01*
X137803253Y-96858599D01*
X137786777Y-96876777D01*
X137768599Y-96893253D01*
X137748893Y-96907868D01*
X137727850Y-96920480D01*
X137705671Y-96930970D01*
X137682572Y-96939235D01*
X137658773Y-96945196D01*
X137634505Y-96948796D01*
X137610001Y-96950000D01*
X136709999Y-96950000D01*
X136685495Y-96948796D01*
X136661227Y-96945196D01*
X136637428Y-96939235D01*
X136614329Y-96930970D01*
X136592150Y-96920480D01*
X136571107Y-96907868D01*
X136551401Y-96893253D01*
X136533223Y-96876777D01*
X136516747Y-96858599D01*
X136502132Y-96838893D01*
X136489520Y-96817850D01*
X136479030Y-96795671D01*
X136470765Y-96772572D01*
X136464804Y-96748773D01*
X136461204Y-96724505D01*
X136460000Y-96700001D01*
X136460000Y-96049999D01*
X136461204Y-96025495D01*
X136464804Y-96001227D01*
X136470765Y-95977428D01*
X136479030Y-95954329D01*
X136489520Y-95932150D01*
X136502132Y-95911107D01*
X136516747Y-95891401D01*
X136533223Y-95873223D01*
X136551401Y-95856747D01*
X136571107Y-95842132D01*
X136592150Y-95829520D01*
X136614329Y-95819030D01*
X136637428Y-95810765D01*
X136661227Y-95804804D01*
X136685495Y-95801204D01*
X136709999Y-95800000D01*
X137610001Y-95800000D01*
X137634505Y-95801204D01*
X137634505Y-95801204D01*
G37*
D16*
G04 #@! TD*
G04 #@! TO.P,C23,2*
G04 #@! TO.N,GND*
X137160000Y-96375000D03*
D15*
G04 #@! TO.N,Net-(C12-Pad2)*
G04 #@! TO.C,R7*
G36*
X137634505Y-101933204D02*
X137658773Y-101936804D01*
X137682572Y-101942765D01*
X137705671Y-101951030D01*
X137727850Y-101961520D01*
X137748893Y-101974132D01*
X137768599Y-101988747D01*
X137786777Y-102005223D01*
X137803253Y-102023401D01*
X137817868Y-102043107D01*
X137830480Y-102064150D01*
X137840970Y-102086329D01*
X137849235Y-102109428D01*
X137855196Y-102133227D01*
X137858796Y-102157495D01*
X137860000Y-102181999D01*
X137860000Y-102832001D01*
X137858796Y-102856505D01*
X137855196Y-102880773D01*
X137849235Y-102904572D01*
X137840970Y-102927671D01*
X137830480Y-102949850D01*
X137817868Y-102970893D01*
X137803253Y-102990599D01*
X137786777Y-103008777D01*
X137768599Y-103025253D01*
X137748893Y-103039868D01*
X137727850Y-103052480D01*
X137705671Y-103062970D01*
X137682572Y-103071235D01*
X137658773Y-103077196D01*
X137634505Y-103080796D01*
X137610001Y-103082000D01*
X136709999Y-103082000D01*
X136685495Y-103080796D01*
X136661227Y-103077196D01*
X136637428Y-103071235D01*
X136614329Y-103062970D01*
X136592150Y-103052480D01*
X136571107Y-103039868D01*
X136551401Y-103025253D01*
X136533223Y-103008777D01*
X136516747Y-102990599D01*
X136502132Y-102970893D01*
X136489520Y-102949850D01*
X136479030Y-102927671D01*
X136470765Y-102904572D01*
X136464804Y-102880773D01*
X136461204Y-102856505D01*
X136460000Y-102832001D01*
X136460000Y-102181999D01*
X136461204Y-102157495D01*
X136464804Y-102133227D01*
X136470765Y-102109428D01*
X136479030Y-102086329D01*
X136489520Y-102064150D01*
X136502132Y-102043107D01*
X136516747Y-102023401D01*
X136533223Y-102005223D01*
X136551401Y-101988747D01*
X136571107Y-101974132D01*
X136592150Y-101961520D01*
X136614329Y-101951030D01*
X136637428Y-101942765D01*
X136661227Y-101936804D01*
X136685495Y-101933204D01*
X136709999Y-101932000D01*
X137610001Y-101932000D01*
X137634505Y-101933204D01*
X137634505Y-101933204D01*
G37*
D16*
G04 #@! TD*
G04 #@! TO.P,R7,1*
G04 #@! TO.N,Net-(C12-Pad2)*
X137160000Y-102507000D03*
D15*
G04 #@! TO.N,Net-(C23-Pad1)*
G04 #@! TO.C,R7*
G36*
X137634505Y-99883204D02*
X137658773Y-99886804D01*
X137682572Y-99892765D01*
X137705671Y-99901030D01*
X137727850Y-99911520D01*
X137748893Y-99924132D01*
X137768599Y-99938747D01*
X137786777Y-99955223D01*
X137803253Y-99973401D01*
X137817868Y-99993107D01*
X137830480Y-100014150D01*
X137840970Y-100036329D01*
X137849235Y-100059428D01*
X137855196Y-100083227D01*
X137858796Y-100107495D01*
X137860000Y-100131999D01*
X137860000Y-100782001D01*
X137858796Y-100806505D01*
X137855196Y-100830773D01*
X137849235Y-100854572D01*
X137840970Y-100877671D01*
X137830480Y-100899850D01*
X137817868Y-100920893D01*
X137803253Y-100940599D01*
X137786777Y-100958777D01*
X137768599Y-100975253D01*
X137748893Y-100989868D01*
X137727850Y-101002480D01*
X137705671Y-101012970D01*
X137682572Y-101021235D01*
X137658773Y-101027196D01*
X137634505Y-101030796D01*
X137610001Y-101032000D01*
X136709999Y-101032000D01*
X136685495Y-101030796D01*
X136661227Y-101027196D01*
X136637428Y-101021235D01*
X136614329Y-101012970D01*
X136592150Y-101002480D01*
X136571107Y-100989868D01*
X136551401Y-100975253D01*
X136533223Y-100958777D01*
X136516747Y-100940599D01*
X136502132Y-100920893D01*
X136489520Y-100899850D01*
X136479030Y-100877671D01*
X136470765Y-100854572D01*
X136464804Y-100830773D01*
X136461204Y-100806505D01*
X136460000Y-100782001D01*
X136460000Y-100131999D01*
X136461204Y-100107495D01*
X136464804Y-100083227D01*
X136470765Y-100059428D01*
X136479030Y-100036329D01*
X136489520Y-100014150D01*
X136502132Y-99993107D01*
X136516747Y-99973401D01*
X136533223Y-99955223D01*
X136551401Y-99938747D01*
X136571107Y-99924132D01*
X136592150Y-99911520D01*
X136614329Y-99901030D01*
X136637428Y-99892765D01*
X136661227Y-99886804D01*
X136685495Y-99883204D01*
X136709999Y-99882000D01*
X137610001Y-99882000D01*
X137634505Y-99883204D01*
X137634505Y-99883204D01*
G37*
D16*
G04 #@! TD*
G04 #@! TO.P,R7,2*
G04 #@! TO.N,Net-(C23-Pad1)*
X137160000Y-100457000D03*
D15*
G04 #@! TO.N,Net-(C14-Pad1)*
G04 #@! TO.C,C14*
G36*
X143476505Y-108011204D02*
X143500773Y-108014804D01*
X143524572Y-108020765D01*
X143547671Y-108029030D01*
X143569850Y-108039520D01*
X143590893Y-108052132D01*
X143610599Y-108066747D01*
X143628777Y-108083223D01*
X143645253Y-108101401D01*
X143659868Y-108121107D01*
X143672480Y-108142150D01*
X143682970Y-108164329D01*
X143691235Y-108187428D01*
X143697196Y-108211227D01*
X143700796Y-108235495D01*
X143702000Y-108259999D01*
X143702000Y-108910001D01*
X143700796Y-108934505D01*
X143697196Y-108958773D01*
X143691235Y-108982572D01*
X143682970Y-109005671D01*
X143672480Y-109027850D01*
X143659868Y-109048893D01*
X143645253Y-109068599D01*
X143628777Y-109086777D01*
X143610599Y-109103253D01*
X143590893Y-109117868D01*
X143569850Y-109130480D01*
X143547671Y-109140970D01*
X143524572Y-109149235D01*
X143500773Y-109155196D01*
X143476505Y-109158796D01*
X143452001Y-109160000D01*
X142551999Y-109160000D01*
X142527495Y-109158796D01*
X142503227Y-109155196D01*
X142479428Y-109149235D01*
X142456329Y-109140970D01*
X142434150Y-109130480D01*
X142413107Y-109117868D01*
X142393401Y-109103253D01*
X142375223Y-109086777D01*
X142358747Y-109068599D01*
X142344132Y-109048893D01*
X142331520Y-109027850D01*
X142321030Y-109005671D01*
X142312765Y-108982572D01*
X142306804Y-108958773D01*
X142303204Y-108934505D01*
X142302000Y-108910001D01*
X142302000Y-108259999D01*
X142303204Y-108235495D01*
X142306804Y-108211227D01*
X142312765Y-108187428D01*
X142321030Y-108164329D01*
X142331520Y-108142150D01*
X142344132Y-108121107D01*
X142358747Y-108101401D01*
X142375223Y-108083223D01*
X142393401Y-108066747D01*
X142413107Y-108052132D01*
X142434150Y-108039520D01*
X142456329Y-108029030D01*
X142479428Y-108020765D01*
X142503227Y-108014804D01*
X142527495Y-108011204D01*
X142551999Y-108010000D01*
X143452001Y-108010000D01*
X143476505Y-108011204D01*
X143476505Y-108011204D01*
G37*
D16*
G04 #@! TD*
G04 #@! TO.P,C14,1*
G04 #@! TO.N,Net-(C14-Pad1)*
X143002000Y-108585000D03*
D15*
G04 #@! TO.N,GND*
G04 #@! TO.C,C14*
G36*
X143476505Y-110061204D02*
X143500773Y-110064804D01*
X143524572Y-110070765D01*
X143547671Y-110079030D01*
X143569850Y-110089520D01*
X143590893Y-110102132D01*
X143610599Y-110116747D01*
X143628777Y-110133223D01*
X143645253Y-110151401D01*
X143659868Y-110171107D01*
X143672480Y-110192150D01*
X143682970Y-110214329D01*
X143691235Y-110237428D01*
X143697196Y-110261227D01*
X143700796Y-110285495D01*
X143702000Y-110309999D01*
X143702000Y-110960001D01*
X143700796Y-110984505D01*
X143697196Y-111008773D01*
X143691235Y-111032572D01*
X143682970Y-111055671D01*
X143672480Y-111077850D01*
X143659868Y-111098893D01*
X143645253Y-111118599D01*
X143628777Y-111136777D01*
X143610599Y-111153253D01*
X143590893Y-111167868D01*
X143569850Y-111180480D01*
X143547671Y-111190970D01*
X143524572Y-111199235D01*
X143500773Y-111205196D01*
X143476505Y-111208796D01*
X143452001Y-111210000D01*
X142551999Y-111210000D01*
X142527495Y-111208796D01*
X142503227Y-111205196D01*
X142479428Y-111199235D01*
X142456329Y-111190970D01*
X142434150Y-111180480D01*
X142413107Y-111167868D01*
X142393401Y-111153253D01*
X142375223Y-111136777D01*
X142358747Y-111118599D01*
X142344132Y-111098893D01*
X142331520Y-111077850D01*
X142321030Y-111055671D01*
X142312765Y-111032572D01*
X142306804Y-111008773D01*
X142303204Y-110984505D01*
X142302000Y-110960001D01*
X142302000Y-110309999D01*
X142303204Y-110285495D01*
X142306804Y-110261227D01*
X142312765Y-110237428D01*
X142321030Y-110214329D01*
X142331520Y-110192150D01*
X142344132Y-110171107D01*
X142358747Y-110151401D01*
X142375223Y-110133223D01*
X142393401Y-110116747D01*
X142413107Y-110102132D01*
X142434150Y-110089520D01*
X142456329Y-110079030D01*
X142479428Y-110070765D01*
X142503227Y-110064804D01*
X142527495Y-110061204D01*
X142551999Y-110060000D01*
X143452001Y-110060000D01*
X143476505Y-110061204D01*
X143476505Y-110061204D01*
G37*
D16*
G04 #@! TD*
G04 #@! TO.P,C14,2*
G04 #@! TO.N,GND*
X143002000Y-110635000D03*
D17*
G04 #@! TO.P,Q2,3*
G04 #@! TO.N,Net-(Q2-Pad3)*
X101244400Y-95918400D03*
G04 #@! TO.P,Q2,2*
G04 #@! TO.N,Net-(C17-Pad1)*
X101244400Y-93628400D03*
D18*
G04 #@! TO.P,Q2,1*
G04 #@! TO.N,8V*
X101244400Y-91338400D03*
G04 #@! TD*
D19*
G04 #@! TO.P,Q1,1*
G04 #@! TO.N,8V*
X122936000Y-91563000D03*
D20*
G04 #@! TO.P,Q1,2*
G04 #@! TO.N,Net-(C15-Pad1)*
X122936000Y-93853000D03*
G04 #@! TO.P,Q1,3*
G04 #@! TO.N,Net-(C15-Pad2)*
X122936000Y-96143000D03*
G04 #@! TD*
D12*
G04 #@! TO.N,GND*
G04 #@! TO.C,FoLD1*
X180656000Y-116339200D03*
X171896000Y-116339200D03*
D11*
X180656000Y-115889200D03*
X171896000Y-115889200D03*
D10*
G04 #@! TD*
G04 #@! TO.P,FoLD1,2*
G04 #@! TO.N,GND*
X180656000Y-119329200D03*
G04 #@! TO.P,FoLD1,2*
G04 #@! TO.N,GND*
X171896000Y-119329200D03*
G04 #@! TD*
G04 #@! TO.P,FL1,2*
G04 #@! TO.N,GND*
X165644600Y-81058600D03*
X156884600Y-81058600D03*
D11*
G04 #@! TD*
G04 #@! TO.N,GND*
G04 #@! TO.C,FL1*
X165644600Y-84498600D03*
G04 #@! TO.N,GND*
G04 #@! TO.C,FL1*
X156884600Y-84498600D03*
D12*
X165644600Y-84048600D03*
X156884600Y-84048600D03*
G04 #@! TD*
D10*
G04 #@! TO.P,OSC_OUT,2*
G04 #@! TO.N,GND*
X153684200Y-119380000D03*
X162444200Y-119380000D03*
D11*
G04 #@! TD*
G04 #@! TO.N,GND*
G04 #@! TO.C,OSC_OUT*
X153684200Y-115940000D03*
G04 #@! TO.N,GND*
G04 #@! TO.C,OSC_OUT*
X162444200Y-115940000D03*
D12*
X153684200Y-116390000D03*
X162444200Y-116390000D03*
G04 #@! TD*
D15*
G04 #@! TO.N,Net-(C12-Pad2)*
G04 #@! TO.C,C12*
G36*
X139920505Y-101933204D02*
X139944773Y-101936804D01*
X139968572Y-101942765D01*
X139991671Y-101951030D01*
X140013850Y-101961520D01*
X140034893Y-101974132D01*
X140054599Y-101988747D01*
X140072777Y-102005223D01*
X140089253Y-102023401D01*
X140103868Y-102043107D01*
X140116480Y-102064150D01*
X140126970Y-102086329D01*
X140135235Y-102109428D01*
X140141196Y-102133227D01*
X140144796Y-102157495D01*
X140146000Y-102181999D01*
X140146000Y-102832001D01*
X140144796Y-102856505D01*
X140141196Y-102880773D01*
X140135235Y-102904572D01*
X140126970Y-102927671D01*
X140116480Y-102949850D01*
X140103868Y-102970893D01*
X140089253Y-102990599D01*
X140072777Y-103008777D01*
X140054599Y-103025253D01*
X140034893Y-103039868D01*
X140013850Y-103052480D01*
X139991671Y-103062970D01*
X139968572Y-103071235D01*
X139944773Y-103077196D01*
X139920505Y-103080796D01*
X139896001Y-103082000D01*
X138995999Y-103082000D01*
X138971495Y-103080796D01*
X138947227Y-103077196D01*
X138923428Y-103071235D01*
X138900329Y-103062970D01*
X138878150Y-103052480D01*
X138857107Y-103039868D01*
X138837401Y-103025253D01*
X138819223Y-103008777D01*
X138802747Y-102990599D01*
X138788132Y-102970893D01*
X138775520Y-102949850D01*
X138765030Y-102927671D01*
X138756765Y-102904572D01*
X138750804Y-102880773D01*
X138747204Y-102856505D01*
X138746000Y-102832001D01*
X138746000Y-102181999D01*
X138747204Y-102157495D01*
X138750804Y-102133227D01*
X138756765Y-102109428D01*
X138765030Y-102086329D01*
X138775520Y-102064150D01*
X138788132Y-102043107D01*
X138802747Y-102023401D01*
X138819223Y-102005223D01*
X138837401Y-101988747D01*
X138857107Y-101974132D01*
X138878150Y-101961520D01*
X138900329Y-101951030D01*
X138923428Y-101942765D01*
X138947227Y-101936804D01*
X138971495Y-101933204D01*
X138995999Y-101932000D01*
X139896001Y-101932000D01*
X139920505Y-101933204D01*
X139920505Y-101933204D01*
G37*
D16*
G04 #@! TD*
G04 #@! TO.P,C12,2*
G04 #@! TO.N,Net-(C12-Pad2)*
X139446000Y-102507000D03*
D15*
G04 #@! TO.N,GND*
G04 #@! TO.C,C12*
G36*
X139920505Y-99883204D02*
X139944773Y-99886804D01*
X139968572Y-99892765D01*
X139991671Y-99901030D01*
X140013850Y-99911520D01*
X140034893Y-99924132D01*
X140054599Y-99938747D01*
X140072777Y-99955223D01*
X140089253Y-99973401D01*
X140103868Y-99993107D01*
X140116480Y-100014150D01*
X140126970Y-100036329D01*
X140135235Y-100059428D01*
X140141196Y-100083227D01*
X140144796Y-100107495D01*
X140146000Y-100131999D01*
X140146000Y-100782001D01*
X140144796Y-100806505D01*
X140141196Y-100830773D01*
X140135235Y-100854572D01*
X140126970Y-100877671D01*
X140116480Y-100899850D01*
X140103868Y-100920893D01*
X140089253Y-100940599D01*
X140072777Y-100958777D01*
X140054599Y-100975253D01*
X140034893Y-100989868D01*
X140013850Y-101002480D01*
X139991671Y-101012970D01*
X139968572Y-101021235D01*
X139944773Y-101027196D01*
X139920505Y-101030796D01*
X139896001Y-101032000D01*
X138995999Y-101032000D01*
X138971495Y-101030796D01*
X138947227Y-101027196D01*
X138923428Y-101021235D01*
X138900329Y-101012970D01*
X138878150Y-101002480D01*
X138857107Y-100989868D01*
X138837401Y-100975253D01*
X138819223Y-100958777D01*
X138802747Y-100940599D01*
X138788132Y-100920893D01*
X138775520Y-100899850D01*
X138765030Y-100877671D01*
X138756765Y-100854572D01*
X138750804Y-100830773D01*
X138747204Y-100806505D01*
X138746000Y-100782001D01*
X138746000Y-100131999D01*
X138747204Y-100107495D01*
X138750804Y-100083227D01*
X138756765Y-100059428D01*
X138765030Y-100036329D01*
X138775520Y-100014150D01*
X138788132Y-99993107D01*
X138802747Y-99973401D01*
X138819223Y-99955223D01*
X138837401Y-99938747D01*
X138857107Y-99924132D01*
X138878150Y-99911520D01*
X138900329Y-99901030D01*
X138923428Y-99892765D01*
X138947227Y-99886804D01*
X138971495Y-99883204D01*
X138995999Y-99882000D01*
X139896001Y-99882000D01*
X139920505Y-99883204D01*
X139920505Y-99883204D01*
G37*
D16*
G04 #@! TD*
G04 #@! TO.P,C12,1*
G04 #@! TO.N,GND*
X139446000Y-100457000D03*
D15*
G04 #@! TO.N,GND*
G04 #@! TO.C,C13*
G36*
X138561605Y-108016504D02*
X138585873Y-108020104D01*
X138609672Y-108026065D01*
X138632771Y-108034330D01*
X138654950Y-108044820D01*
X138675993Y-108057432D01*
X138695699Y-108072047D01*
X138713877Y-108088523D01*
X138730353Y-108106701D01*
X138744968Y-108126407D01*
X138757580Y-108147450D01*
X138768070Y-108169629D01*
X138776335Y-108192728D01*
X138782296Y-108216527D01*
X138785896Y-108240795D01*
X138787100Y-108265299D01*
X138787100Y-108915301D01*
X138785896Y-108939805D01*
X138782296Y-108964073D01*
X138776335Y-108987872D01*
X138768070Y-109010971D01*
X138757580Y-109033150D01*
X138744968Y-109054193D01*
X138730353Y-109073899D01*
X138713877Y-109092077D01*
X138695699Y-109108553D01*
X138675993Y-109123168D01*
X138654950Y-109135780D01*
X138632771Y-109146270D01*
X138609672Y-109154535D01*
X138585873Y-109160496D01*
X138561605Y-109164096D01*
X138537101Y-109165300D01*
X137637099Y-109165300D01*
X137612595Y-109164096D01*
X137588327Y-109160496D01*
X137564528Y-109154535D01*
X137541429Y-109146270D01*
X137519250Y-109135780D01*
X137498207Y-109123168D01*
X137478501Y-109108553D01*
X137460323Y-109092077D01*
X137443847Y-109073899D01*
X137429232Y-109054193D01*
X137416620Y-109033150D01*
X137406130Y-109010971D01*
X137397865Y-108987872D01*
X137391904Y-108964073D01*
X137388304Y-108939805D01*
X137387100Y-108915301D01*
X137387100Y-108265299D01*
X137388304Y-108240795D01*
X137391904Y-108216527D01*
X137397865Y-108192728D01*
X137406130Y-108169629D01*
X137416620Y-108147450D01*
X137429232Y-108126407D01*
X137443847Y-108106701D01*
X137460323Y-108088523D01*
X137478501Y-108072047D01*
X137498207Y-108057432D01*
X137519250Y-108044820D01*
X137541429Y-108034330D01*
X137564528Y-108026065D01*
X137588327Y-108020104D01*
X137612595Y-108016504D01*
X137637099Y-108015300D01*
X138537101Y-108015300D01*
X138561605Y-108016504D01*
X138561605Y-108016504D01*
G37*
D16*
G04 #@! TD*
G04 #@! TO.P,C13,2*
G04 #@! TO.N,GND*
X138087100Y-108590300D03*
D15*
G04 #@! TO.N,Net-(C13-Pad1)*
G04 #@! TO.C,C13*
G36*
X138561605Y-105966504D02*
X138585873Y-105970104D01*
X138609672Y-105976065D01*
X138632771Y-105984330D01*
X138654950Y-105994820D01*
X138675993Y-106007432D01*
X138695699Y-106022047D01*
X138713877Y-106038523D01*
X138730353Y-106056701D01*
X138744968Y-106076407D01*
X138757580Y-106097450D01*
X138768070Y-106119629D01*
X138776335Y-106142728D01*
X138782296Y-106166527D01*
X138785896Y-106190795D01*
X138787100Y-106215299D01*
X138787100Y-106865301D01*
X138785896Y-106889805D01*
X138782296Y-106914073D01*
X138776335Y-106937872D01*
X138768070Y-106960971D01*
X138757580Y-106983150D01*
X138744968Y-107004193D01*
X138730353Y-107023899D01*
X138713877Y-107042077D01*
X138695699Y-107058553D01*
X138675993Y-107073168D01*
X138654950Y-107085780D01*
X138632771Y-107096270D01*
X138609672Y-107104535D01*
X138585873Y-107110496D01*
X138561605Y-107114096D01*
X138537101Y-107115300D01*
X137637099Y-107115300D01*
X137612595Y-107114096D01*
X137588327Y-107110496D01*
X137564528Y-107104535D01*
X137541429Y-107096270D01*
X137519250Y-107085780D01*
X137498207Y-107073168D01*
X137478501Y-107058553D01*
X137460323Y-107042077D01*
X137443847Y-107023899D01*
X137429232Y-107004193D01*
X137416620Y-106983150D01*
X137406130Y-106960971D01*
X137397865Y-106937872D01*
X137391904Y-106914073D01*
X137388304Y-106889805D01*
X137387100Y-106865301D01*
X137387100Y-106215299D01*
X137388304Y-106190795D01*
X137391904Y-106166527D01*
X137397865Y-106142728D01*
X137406130Y-106119629D01*
X137416620Y-106097450D01*
X137429232Y-106076407D01*
X137443847Y-106056701D01*
X137460323Y-106038523D01*
X137478501Y-106022047D01*
X137498207Y-106007432D01*
X137519250Y-105994820D01*
X137541429Y-105984330D01*
X137564528Y-105976065D01*
X137588327Y-105970104D01*
X137612595Y-105966504D01*
X137637099Y-105965300D01*
X138537101Y-105965300D01*
X138561605Y-105966504D01*
X138561605Y-105966504D01*
G37*
D16*
G04 #@! TD*
G04 #@! TO.P,C13,1*
G04 #@! TO.N,Net-(C13-Pad1)*
X138087100Y-106540300D03*
D15*
G04 #@! TO.N,GND*
G04 #@! TO.C,C18*
G36*
X99676205Y-88340904D02*
X99700473Y-88344504D01*
X99724272Y-88350465D01*
X99747371Y-88358730D01*
X99769550Y-88369220D01*
X99790593Y-88381832D01*
X99810299Y-88396447D01*
X99828477Y-88412923D01*
X99844953Y-88431101D01*
X99859568Y-88450807D01*
X99872180Y-88471850D01*
X99882670Y-88494029D01*
X99890935Y-88517128D01*
X99896896Y-88540927D01*
X99900496Y-88565195D01*
X99901700Y-88589699D01*
X99901700Y-89489701D01*
X99900496Y-89514205D01*
X99896896Y-89538473D01*
X99890935Y-89562272D01*
X99882670Y-89585371D01*
X99872180Y-89607550D01*
X99859568Y-89628593D01*
X99844953Y-89648299D01*
X99828477Y-89666477D01*
X99810299Y-89682953D01*
X99790593Y-89697568D01*
X99769550Y-89710180D01*
X99747371Y-89720670D01*
X99724272Y-89728935D01*
X99700473Y-89734896D01*
X99676205Y-89738496D01*
X99651701Y-89739700D01*
X99001699Y-89739700D01*
X98977195Y-89738496D01*
X98952927Y-89734896D01*
X98929128Y-89728935D01*
X98906029Y-89720670D01*
X98883850Y-89710180D01*
X98862807Y-89697568D01*
X98843101Y-89682953D01*
X98824923Y-89666477D01*
X98808447Y-89648299D01*
X98793832Y-89628593D01*
X98781220Y-89607550D01*
X98770730Y-89585371D01*
X98762465Y-89562272D01*
X98756504Y-89538473D01*
X98752904Y-89514205D01*
X98751700Y-89489701D01*
X98751700Y-88589699D01*
X98752904Y-88565195D01*
X98756504Y-88540927D01*
X98762465Y-88517128D01*
X98770730Y-88494029D01*
X98781220Y-88471850D01*
X98793832Y-88450807D01*
X98808447Y-88431101D01*
X98824923Y-88412923D01*
X98843101Y-88396447D01*
X98862807Y-88381832D01*
X98883850Y-88369220D01*
X98906029Y-88358730D01*
X98929128Y-88350465D01*
X98952927Y-88344504D01*
X98977195Y-88340904D01*
X99001699Y-88339700D01*
X99651701Y-88339700D01*
X99676205Y-88340904D01*
X99676205Y-88340904D01*
G37*
D16*
G04 #@! TD*
G04 #@! TO.P,C18,1*
G04 #@! TO.N,GND*
X99326700Y-89039700D03*
D15*
G04 #@! TO.N,8V*
G04 #@! TO.C,C18*
G36*
X101726205Y-88340904D02*
X101750473Y-88344504D01*
X101774272Y-88350465D01*
X101797371Y-88358730D01*
X101819550Y-88369220D01*
X101840593Y-88381832D01*
X101860299Y-88396447D01*
X101878477Y-88412923D01*
X101894953Y-88431101D01*
X101909568Y-88450807D01*
X101922180Y-88471850D01*
X101932670Y-88494029D01*
X101940935Y-88517128D01*
X101946896Y-88540927D01*
X101950496Y-88565195D01*
X101951700Y-88589699D01*
X101951700Y-89489701D01*
X101950496Y-89514205D01*
X101946896Y-89538473D01*
X101940935Y-89562272D01*
X101932670Y-89585371D01*
X101922180Y-89607550D01*
X101909568Y-89628593D01*
X101894953Y-89648299D01*
X101878477Y-89666477D01*
X101860299Y-89682953D01*
X101840593Y-89697568D01*
X101819550Y-89710180D01*
X101797371Y-89720670D01*
X101774272Y-89728935D01*
X101750473Y-89734896D01*
X101726205Y-89738496D01*
X101701701Y-89739700D01*
X101051699Y-89739700D01*
X101027195Y-89738496D01*
X101002927Y-89734896D01*
X100979128Y-89728935D01*
X100956029Y-89720670D01*
X100933850Y-89710180D01*
X100912807Y-89697568D01*
X100893101Y-89682953D01*
X100874923Y-89666477D01*
X100858447Y-89648299D01*
X100843832Y-89628593D01*
X100831220Y-89607550D01*
X100820730Y-89585371D01*
X100812465Y-89562272D01*
X100806504Y-89538473D01*
X100802904Y-89514205D01*
X100801700Y-89489701D01*
X100801700Y-88589699D01*
X100802904Y-88565195D01*
X100806504Y-88540927D01*
X100812465Y-88517128D01*
X100820730Y-88494029D01*
X100831220Y-88471850D01*
X100843832Y-88450807D01*
X100858447Y-88431101D01*
X100874923Y-88412923D01*
X100893101Y-88396447D01*
X100912807Y-88381832D01*
X100933850Y-88369220D01*
X100956029Y-88358730D01*
X100979128Y-88350465D01*
X101002927Y-88344504D01*
X101027195Y-88340904D01*
X101051699Y-88339700D01*
X101701701Y-88339700D01*
X101726205Y-88340904D01*
X101726205Y-88340904D01*
G37*
D16*
G04 #@! TD*
G04 #@! TO.P,C18,2*
G04 #@! TO.N,8V*
X101376700Y-89039700D03*
D15*
G04 #@! TO.N,Net-(C21-Pad1)*
G04 #@! TO.C,C21*
G36*
X114520505Y-85668204D02*
X114544773Y-85671804D01*
X114568572Y-85677765D01*
X114591671Y-85686030D01*
X114613850Y-85696520D01*
X114634893Y-85709132D01*
X114654599Y-85723747D01*
X114672777Y-85740223D01*
X114689253Y-85758401D01*
X114703868Y-85778107D01*
X114716480Y-85799150D01*
X114726970Y-85821329D01*
X114735235Y-85844428D01*
X114741196Y-85868227D01*
X114744796Y-85892495D01*
X114746000Y-85916999D01*
X114746000Y-86567001D01*
X114744796Y-86591505D01*
X114741196Y-86615773D01*
X114735235Y-86639572D01*
X114726970Y-86662671D01*
X114716480Y-86684850D01*
X114703868Y-86705893D01*
X114689253Y-86725599D01*
X114672777Y-86743777D01*
X114654599Y-86760253D01*
X114634893Y-86774868D01*
X114613850Y-86787480D01*
X114591671Y-86797970D01*
X114568572Y-86806235D01*
X114544773Y-86812196D01*
X114520505Y-86815796D01*
X114496001Y-86817000D01*
X113595999Y-86817000D01*
X113571495Y-86815796D01*
X113547227Y-86812196D01*
X113523428Y-86806235D01*
X113500329Y-86797970D01*
X113478150Y-86787480D01*
X113457107Y-86774868D01*
X113437401Y-86760253D01*
X113419223Y-86743777D01*
X113402747Y-86725599D01*
X113388132Y-86705893D01*
X113375520Y-86684850D01*
X113365030Y-86662671D01*
X113356765Y-86639572D01*
X113350804Y-86615773D01*
X113347204Y-86591505D01*
X113346000Y-86567001D01*
X113346000Y-85916999D01*
X113347204Y-85892495D01*
X113350804Y-85868227D01*
X113356765Y-85844428D01*
X113365030Y-85821329D01*
X113375520Y-85799150D01*
X113388132Y-85778107D01*
X113402747Y-85758401D01*
X113419223Y-85740223D01*
X113437401Y-85723747D01*
X113457107Y-85709132D01*
X113478150Y-85696520D01*
X113500329Y-85686030D01*
X113523428Y-85677765D01*
X113547227Y-85671804D01*
X113571495Y-85668204D01*
X113595999Y-85667000D01*
X114496001Y-85667000D01*
X114520505Y-85668204D01*
X114520505Y-85668204D01*
G37*
D16*
G04 #@! TD*
G04 #@! TO.P,C21,1*
G04 #@! TO.N,Net-(C21-Pad1)*
X114046000Y-86242000D03*
D15*
G04 #@! TO.N,GND*
G04 #@! TO.C,C21*
G36*
X114520505Y-83618204D02*
X114544773Y-83621804D01*
X114568572Y-83627765D01*
X114591671Y-83636030D01*
X114613850Y-83646520D01*
X114634893Y-83659132D01*
X114654599Y-83673747D01*
X114672777Y-83690223D01*
X114689253Y-83708401D01*
X114703868Y-83728107D01*
X114716480Y-83749150D01*
X114726970Y-83771329D01*
X114735235Y-83794428D01*
X114741196Y-83818227D01*
X114744796Y-83842495D01*
X114746000Y-83866999D01*
X114746000Y-84517001D01*
X114744796Y-84541505D01*
X114741196Y-84565773D01*
X114735235Y-84589572D01*
X114726970Y-84612671D01*
X114716480Y-84634850D01*
X114703868Y-84655893D01*
X114689253Y-84675599D01*
X114672777Y-84693777D01*
X114654599Y-84710253D01*
X114634893Y-84724868D01*
X114613850Y-84737480D01*
X114591671Y-84747970D01*
X114568572Y-84756235D01*
X114544773Y-84762196D01*
X114520505Y-84765796D01*
X114496001Y-84767000D01*
X113595999Y-84767000D01*
X113571495Y-84765796D01*
X113547227Y-84762196D01*
X113523428Y-84756235D01*
X113500329Y-84747970D01*
X113478150Y-84737480D01*
X113457107Y-84724868D01*
X113437401Y-84710253D01*
X113419223Y-84693777D01*
X113402747Y-84675599D01*
X113388132Y-84655893D01*
X113375520Y-84634850D01*
X113365030Y-84612671D01*
X113356765Y-84589572D01*
X113350804Y-84565773D01*
X113347204Y-84541505D01*
X113346000Y-84517001D01*
X113346000Y-83866999D01*
X113347204Y-83842495D01*
X113350804Y-83818227D01*
X113356765Y-83794428D01*
X113365030Y-83771329D01*
X113375520Y-83749150D01*
X113388132Y-83728107D01*
X113402747Y-83708401D01*
X113419223Y-83690223D01*
X113437401Y-83673747D01*
X113457107Y-83659132D01*
X113478150Y-83646520D01*
X113500329Y-83636030D01*
X113523428Y-83627765D01*
X113547227Y-83621804D01*
X113571495Y-83618204D01*
X113595999Y-83617000D01*
X114496001Y-83617000D01*
X114520505Y-83618204D01*
X114520505Y-83618204D01*
G37*
D16*
G04 #@! TD*
G04 #@! TO.P,C21,2*
G04 #@! TO.N,GND*
X114046000Y-84192000D03*
D15*
G04 #@! TO.N,GND*
G04 #@! TO.C,C22*
G36*
X127913605Y-90868204D02*
X127937873Y-90871804D01*
X127961672Y-90877765D01*
X127984771Y-90886030D01*
X128006950Y-90896520D01*
X128027993Y-90909132D01*
X128047699Y-90923747D01*
X128065877Y-90940223D01*
X128082353Y-90958401D01*
X128096968Y-90978107D01*
X128109580Y-90999150D01*
X128120070Y-91021329D01*
X128128335Y-91044428D01*
X128134296Y-91068227D01*
X128137896Y-91092495D01*
X128139100Y-91116999D01*
X128139100Y-92017001D01*
X128137896Y-92041505D01*
X128134296Y-92065773D01*
X128128335Y-92089572D01*
X128120070Y-92112671D01*
X128109580Y-92134850D01*
X128096968Y-92155893D01*
X128082353Y-92175599D01*
X128065877Y-92193777D01*
X128047699Y-92210253D01*
X128027993Y-92224868D01*
X128006950Y-92237480D01*
X127984771Y-92247970D01*
X127961672Y-92256235D01*
X127937873Y-92262196D01*
X127913605Y-92265796D01*
X127889101Y-92267000D01*
X127239099Y-92267000D01*
X127214595Y-92265796D01*
X127190327Y-92262196D01*
X127166528Y-92256235D01*
X127143429Y-92247970D01*
X127121250Y-92237480D01*
X127100207Y-92224868D01*
X127080501Y-92210253D01*
X127062323Y-92193777D01*
X127045847Y-92175599D01*
X127031232Y-92155893D01*
X127018620Y-92134850D01*
X127008130Y-92112671D01*
X126999865Y-92089572D01*
X126993904Y-92065773D01*
X126990304Y-92041505D01*
X126989100Y-92017001D01*
X126989100Y-91116999D01*
X126990304Y-91092495D01*
X126993904Y-91068227D01*
X126999865Y-91044428D01*
X127008130Y-91021329D01*
X127018620Y-90999150D01*
X127031232Y-90978107D01*
X127045847Y-90958401D01*
X127062323Y-90940223D01*
X127080501Y-90923747D01*
X127100207Y-90909132D01*
X127121250Y-90896520D01*
X127143429Y-90886030D01*
X127166528Y-90877765D01*
X127190327Y-90871804D01*
X127214595Y-90868204D01*
X127239099Y-90867000D01*
X127889101Y-90867000D01*
X127913605Y-90868204D01*
X127913605Y-90868204D01*
G37*
D16*
G04 #@! TD*
G04 #@! TO.P,C22,1*
G04 #@! TO.N,GND*
X127564100Y-91567000D03*
D15*
G04 #@! TO.N,8V*
G04 #@! TO.C,C22*
G36*
X125863605Y-90868204D02*
X125887873Y-90871804D01*
X125911672Y-90877765D01*
X125934771Y-90886030D01*
X125956950Y-90896520D01*
X125977993Y-90909132D01*
X125997699Y-90923747D01*
X126015877Y-90940223D01*
X126032353Y-90958401D01*
X126046968Y-90978107D01*
X126059580Y-90999150D01*
X126070070Y-91021329D01*
X126078335Y-91044428D01*
X126084296Y-91068227D01*
X126087896Y-91092495D01*
X126089100Y-91116999D01*
X126089100Y-92017001D01*
X126087896Y-92041505D01*
X126084296Y-92065773D01*
X126078335Y-92089572D01*
X126070070Y-92112671D01*
X126059580Y-92134850D01*
X126046968Y-92155893D01*
X126032353Y-92175599D01*
X126015877Y-92193777D01*
X125997699Y-92210253D01*
X125977993Y-92224868D01*
X125956950Y-92237480D01*
X125934771Y-92247970D01*
X125911672Y-92256235D01*
X125887873Y-92262196D01*
X125863605Y-92265796D01*
X125839101Y-92267000D01*
X125189099Y-92267000D01*
X125164595Y-92265796D01*
X125140327Y-92262196D01*
X125116528Y-92256235D01*
X125093429Y-92247970D01*
X125071250Y-92237480D01*
X125050207Y-92224868D01*
X125030501Y-92210253D01*
X125012323Y-92193777D01*
X124995847Y-92175599D01*
X124981232Y-92155893D01*
X124968620Y-92134850D01*
X124958130Y-92112671D01*
X124949865Y-92089572D01*
X124943904Y-92065773D01*
X124940304Y-92041505D01*
X124939100Y-92017001D01*
X124939100Y-91116999D01*
X124940304Y-91092495D01*
X124943904Y-91068227D01*
X124949865Y-91044428D01*
X124958130Y-91021329D01*
X124968620Y-90999150D01*
X124981232Y-90978107D01*
X124995847Y-90958401D01*
X125012323Y-90940223D01*
X125030501Y-90923747D01*
X125050207Y-90909132D01*
X125071250Y-90896520D01*
X125093429Y-90886030D01*
X125116528Y-90877765D01*
X125140327Y-90871804D01*
X125164595Y-90868204D01*
X125189099Y-90867000D01*
X125839101Y-90867000D01*
X125863605Y-90868204D01*
X125863605Y-90868204D01*
G37*
D16*
G04 #@! TD*
G04 #@! TO.P,C22,2*
G04 #@! TO.N,8V*
X125514100Y-91567000D03*
D21*
G04 #@! TO.P,D1,1*
G04 #@! TO.N,Net-(D1-Pad1)*
X184835800Y-87985600D03*
D22*
G04 #@! TO.P,D1,2*
G04 #@! TO.N,PLL_Power*
X174675800Y-87985600D03*
G04 #@! TD*
G04 #@! TO.P,D5,2*
G04 #@! TO.N,Net-(C21-Pad1)*
X116840000Y-86233000D03*
D21*
G04 #@! TO.P,D5,1*
G04 #@! TO.N,Net-(D5-Pad1)*
X127000000Y-86233000D03*
G04 #@! TD*
D14*
G04 #@! TO.P,uWire,1*
G04 #@! TO.N,LE*
X166065200Y-108229400D03*
D13*
G04 #@! TO.P,uWire,2*
G04 #@! TO.N,Data*
X163525200Y-108229400D03*
G04 #@! TO.P,uWire,3*
G04 #@! TO.N,Clock*
X160985200Y-108229400D03*
G04 #@! TO.P,uWire,4*
G04 #@! TO.N,GND*
X158445200Y-108229400D03*
G04 #@! TD*
D14*
G04 #@! TO.P,J5,1*
G04 #@! TO.N,Net-(C4-Pad1)*
X110109000Y-102743000D03*
D13*
G04 #@! TO.P,J5,2*
G04 #@! TO.N,Net-(J2-Pad1)*
X110109000Y-105283000D03*
G04 #@! TD*
G04 #@! TO.P,J7,2*
G04 #@! TO.N,Net-(C4-Pad1)*
X103886000Y-102743000D03*
D14*
G04 #@! TO.P,J7,1*
G04 #@! TO.N,Net-(C17-Pad1)*
X101346000Y-102743000D03*
G04 #@! TD*
G04 #@! TO.P,J8,1*
G04 #@! TO.N,Net-(C28-Pad2)*
X122428000Y-107315000D03*
D13*
G04 #@! TO.P,J8,2*
G04 #@! TO.N,GND*
X119888000Y-107315000D03*
G04 #@! TD*
G04 #@! TO.P,J13,2*
G04 #@! TO.N,Net-(J13-Pad2)*
X145745200Y-93243400D03*
D14*
G04 #@! TO.P,J13,1*
G04 #@! TO.N,Net-(C12-Pad2)*
X143205200Y-93243400D03*
G04 #@! TD*
G04 #@! TO.P,J14,1*
G04 #@! TO.N,Net-(C13-Pad1)*
X143179800Y-97078800D03*
D13*
G04 #@! TO.P,J14,2*
G04 #@! TO.N,Net-(J13-Pad2)*
X145719800Y-97078800D03*
G04 #@! TD*
G04 #@! TO.P,J15,2*
G04 #@! TO.N,Net-(D3-Pad1)*
X132334000Y-106553000D03*
D14*
G04 #@! TO.P,J15,1*
G04 #@! TO.N,Net-(C13-Pad1)*
X134874000Y-106553000D03*
G04 #@! TD*
G04 #@! TO.P,J16,1*
G04 #@! TO.N,Net-(C24-Pad1)*
X131572000Y-100457000D03*
D13*
G04 #@! TO.P,J16,2*
G04 #@! TO.N,Net-(D3-Pad1)*
X131572000Y-102997000D03*
G04 #@! TD*
D14*
G04 #@! TO.P,11V,1*
G04 #@! TO.N,Net-(D5-Pad1)*
X132308600Y-86283800D03*
D13*
G04 #@! TO.P,11V,2*
G04 #@! TO.N,GND*
X134848600Y-86283800D03*
G04 #@! TD*
G04 #@! TO.P,J20,2*
G04 #@! TO.N,Net-(J13-Pad2)*
X149453600Y-97078800D03*
D14*
G04 #@! TO.P,J20,1*
G04 #@! TO.N,CPo*
X151993600Y-97078800D03*
G04 #@! TD*
D15*
G04 #@! TO.N,Net-(C13-Pad1)*
G04 #@! TO.C,R5*
G36*
X141190505Y-105979204D02*
X141214773Y-105982804D01*
X141238572Y-105988765D01*
X141261671Y-105997030D01*
X141283850Y-106007520D01*
X141304893Y-106020132D01*
X141324599Y-106034747D01*
X141342777Y-106051223D01*
X141359253Y-106069401D01*
X141373868Y-106089107D01*
X141386480Y-106110150D01*
X141396970Y-106132329D01*
X141405235Y-106155428D01*
X141411196Y-106179227D01*
X141414796Y-106203495D01*
X141416000Y-106227999D01*
X141416000Y-106878001D01*
X141414796Y-106902505D01*
X141411196Y-106926773D01*
X141405235Y-106950572D01*
X141396970Y-106973671D01*
X141386480Y-106995850D01*
X141373868Y-107016893D01*
X141359253Y-107036599D01*
X141342777Y-107054777D01*
X141324599Y-107071253D01*
X141304893Y-107085868D01*
X141283850Y-107098480D01*
X141261671Y-107108970D01*
X141238572Y-107117235D01*
X141214773Y-107123196D01*
X141190505Y-107126796D01*
X141166001Y-107128000D01*
X140265999Y-107128000D01*
X140241495Y-107126796D01*
X140217227Y-107123196D01*
X140193428Y-107117235D01*
X140170329Y-107108970D01*
X140148150Y-107098480D01*
X140127107Y-107085868D01*
X140107401Y-107071253D01*
X140089223Y-107054777D01*
X140072747Y-107036599D01*
X140058132Y-107016893D01*
X140045520Y-106995850D01*
X140035030Y-106973671D01*
X140026765Y-106950572D01*
X140020804Y-106926773D01*
X140017204Y-106902505D01*
X140016000Y-106878001D01*
X140016000Y-106227999D01*
X140017204Y-106203495D01*
X140020804Y-106179227D01*
X140026765Y-106155428D01*
X140035030Y-106132329D01*
X140045520Y-106110150D01*
X140058132Y-106089107D01*
X140072747Y-106069401D01*
X140089223Y-106051223D01*
X140107401Y-106034747D01*
X140127107Y-106020132D01*
X140148150Y-106007520D01*
X140170329Y-105997030D01*
X140193428Y-105988765D01*
X140217227Y-105982804D01*
X140241495Y-105979204D01*
X140265999Y-105978000D01*
X141166001Y-105978000D01*
X141190505Y-105979204D01*
X141190505Y-105979204D01*
G37*
D16*
G04 #@! TD*
G04 #@! TO.P,R5,2*
G04 #@! TO.N,Net-(C13-Pad1)*
X140716000Y-106553000D03*
D15*
G04 #@! TO.N,Net-(C14-Pad1)*
G04 #@! TO.C,R5*
G36*
X141190505Y-108029204D02*
X141214773Y-108032804D01*
X141238572Y-108038765D01*
X141261671Y-108047030D01*
X141283850Y-108057520D01*
X141304893Y-108070132D01*
X141324599Y-108084747D01*
X141342777Y-108101223D01*
X141359253Y-108119401D01*
X141373868Y-108139107D01*
X141386480Y-108160150D01*
X141396970Y-108182329D01*
X141405235Y-108205428D01*
X141411196Y-108229227D01*
X141414796Y-108253495D01*
X141416000Y-108277999D01*
X141416000Y-108928001D01*
X141414796Y-108952505D01*
X141411196Y-108976773D01*
X141405235Y-109000572D01*
X141396970Y-109023671D01*
X141386480Y-109045850D01*
X141373868Y-109066893D01*
X141359253Y-109086599D01*
X141342777Y-109104777D01*
X141324599Y-109121253D01*
X141304893Y-109135868D01*
X141283850Y-109148480D01*
X141261671Y-109158970D01*
X141238572Y-109167235D01*
X141214773Y-109173196D01*
X141190505Y-109176796D01*
X141166001Y-109178000D01*
X140265999Y-109178000D01*
X140241495Y-109176796D01*
X140217227Y-109173196D01*
X140193428Y-109167235D01*
X140170329Y-109158970D01*
X140148150Y-109148480D01*
X140127107Y-109135868D01*
X140107401Y-109121253D01*
X140089223Y-109104777D01*
X140072747Y-109086599D01*
X140058132Y-109066893D01*
X140045520Y-109045850D01*
X140035030Y-109023671D01*
X140026765Y-109000572D01*
X140020804Y-108976773D01*
X140017204Y-108952505D01*
X140016000Y-108928001D01*
X140016000Y-108277999D01*
X140017204Y-108253495D01*
X140020804Y-108229227D01*
X140026765Y-108205428D01*
X140035030Y-108182329D01*
X140045520Y-108160150D01*
X140058132Y-108139107D01*
X140072747Y-108119401D01*
X140089223Y-108101223D01*
X140107401Y-108084747D01*
X140127107Y-108070132D01*
X140148150Y-108057520D01*
X140170329Y-108047030D01*
X140193428Y-108038765D01*
X140217227Y-108032804D01*
X140241495Y-108029204D01*
X140265999Y-108028000D01*
X141166001Y-108028000D01*
X141190505Y-108029204D01*
X141190505Y-108029204D01*
G37*
D16*
G04 #@! TD*
G04 #@! TO.P,R5,1*
G04 #@! TO.N,Net-(C14-Pad1)*
X140716000Y-108603000D03*
D15*
G04 #@! TO.N,Net-(C12-Pad2)*
G04 #@! TO.C,R6*
G36*
X135348505Y-101924204D02*
X135372773Y-101927804D01*
X135396572Y-101933765D01*
X135419671Y-101942030D01*
X135441850Y-101952520D01*
X135462893Y-101965132D01*
X135482599Y-101979747D01*
X135500777Y-101996223D01*
X135517253Y-102014401D01*
X135531868Y-102034107D01*
X135544480Y-102055150D01*
X135554970Y-102077329D01*
X135563235Y-102100428D01*
X135569196Y-102124227D01*
X135572796Y-102148495D01*
X135574000Y-102172999D01*
X135574000Y-102823001D01*
X135572796Y-102847505D01*
X135569196Y-102871773D01*
X135563235Y-102895572D01*
X135554970Y-102918671D01*
X135544480Y-102940850D01*
X135531868Y-102961893D01*
X135517253Y-102981599D01*
X135500777Y-102999777D01*
X135482599Y-103016253D01*
X135462893Y-103030868D01*
X135441850Y-103043480D01*
X135419671Y-103053970D01*
X135396572Y-103062235D01*
X135372773Y-103068196D01*
X135348505Y-103071796D01*
X135324001Y-103073000D01*
X134423999Y-103073000D01*
X134399495Y-103071796D01*
X134375227Y-103068196D01*
X134351428Y-103062235D01*
X134328329Y-103053970D01*
X134306150Y-103043480D01*
X134285107Y-103030868D01*
X134265401Y-103016253D01*
X134247223Y-102999777D01*
X134230747Y-102981599D01*
X134216132Y-102961893D01*
X134203520Y-102940850D01*
X134193030Y-102918671D01*
X134184765Y-102895572D01*
X134178804Y-102871773D01*
X134175204Y-102847505D01*
X134174000Y-102823001D01*
X134174000Y-102172999D01*
X134175204Y-102148495D01*
X134178804Y-102124227D01*
X134184765Y-102100428D01*
X134193030Y-102077329D01*
X134203520Y-102055150D01*
X134216132Y-102034107D01*
X134230747Y-102014401D01*
X134247223Y-101996223D01*
X134265401Y-101979747D01*
X134285107Y-101965132D01*
X134306150Y-101952520D01*
X134328329Y-101942030D01*
X134351428Y-101933765D01*
X134375227Y-101927804D01*
X134399495Y-101924204D01*
X134423999Y-101923000D01*
X135324001Y-101923000D01*
X135348505Y-101924204D01*
X135348505Y-101924204D01*
G37*
D16*
G04 #@! TD*
G04 #@! TO.P,R6,2*
G04 #@! TO.N,Net-(C12-Pad2)*
X134874000Y-102498000D03*
D15*
G04 #@! TO.N,Net-(C24-Pad1)*
G04 #@! TO.C,R6*
G36*
X135348505Y-99874204D02*
X135372773Y-99877804D01*
X135396572Y-99883765D01*
X135419671Y-99892030D01*
X135441850Y-99902520D01*
X135462893Y-99915132D01*
X135482599Y-99929747D01*
X135500777Y-99946223D01*
X135517253Y-99964401D01*
X135531868Y-99984107D01*
X135544480Y-100005150D01*
X135554970Y-100027329D01*
X135563235Y-100050428D01*
X135569196Y-100074227D01*
X135572796Y-100098495D01*
X135574000Y-100122999D01*
X135574000Y-100773001D01*
X135572796Y-100797505D01*
X135569196Y-100821773D01*
X135563235Y-100845572D01*
X135554970Y-100868671D01*
X135544480Y-100890850D01*
X135531868Y-100911893D01*
X135517253Y-100931599D01*
X135500777Y-100949777D01*
X135482599Y-100966253D01*
X135462893Y-100980868D01*
X135441850Y-100993480D01*
X135419671Y-101003970D01*
X135396572Y-101012235D01*
X135372773Y-101018196D01*
X135348505Y-101021796D01*
X135324001Y-101023000D01*
X134423999Y-101023000D01*
X134399495Y-101021796D01*
X134375227Y-101018196D01*
X134351428Y-101012235D01*
X134328329Y-101003970D01*
X134306150Y-100993480D01*
X134285107Y-100980868D01*
X134265401Y-100966253D01*
X134247223Y-100949777D01*
X134230747Y-100931599D01*
X134216132Y-100911893D01*
X134203520Y-100890850D01*
X134193030Y-100868671D01*
X134184765Y-100845572D01*
X134178804Y-100821773D01*
X134175204Y-100797505D01*
X134174000Y-100773001D01*
X134174000Y-100122999D01*
X134175204Y-100098495D01*
X134178804Y-100074227D01*
X134184765Y-100050428D01*
X134193030Y-100027329D01*
X134203520Y-100005150D01*
X134216132Y-99984107D01*
X134230747Y-99964401D01*
X134247223Y-99946223D01*
X134265401Y-99929747D01*
X134285107Y-99915132D01*
X134306150Y-99902520D01*
X134328329Y-99892030D01*
X134351428Y-99883765D01*
X134375227Y-99877804D01*
X134399495Y-99874204D01*
X134423999Y-99873000D01*
X135324001Y-99873000D01*
X135348505Y-99874204D01*
X135348505Y-99874204D01*
G37*
D16*
G04 #@! TD*
G04 #@! TO.P,R6,1*
G04 #@! TO.N,Net-(C24-Pad1)*
X134874000Y-100448000D03*
D23*
G04 #@! TO.P,8V Regulator,1*
G04 #@! TO.N,Net-(C21-Pad1)*
X110236000Y-86487000D03*
D24*
G04 #@! TO.P,8V Regulator,2*
G04 #@! TO.N,GND*
X107696000Y-86487000D03*
G04 #@! TO.P,8V Regulator,3*
G04 #@! TO.N,8V*
X105156000Y-86487000D03*
G04 #@! TD*
D25*
G04 #@! TO.N,GND*
X159359600Y-101955600D03*
X171704000Y-101219000D03*
X162560000Y-101600000D03*
X156413200Y-96799400D03*
X157861000Y-99390200D03*
X155498800Y-101904800D03*
X114909600Y-102311200D03*
X159359600Y-96824800D03*
X130860800Y-96545400D03*
D26*
G04 #@! TO.N,FL*
X159131000Y-91059000D03*
X161264600Y-86664800D03*
G04 #@! TD*
D27*
G04 #@! TO.N,GND*
X171896000Y-116539200D02*
X171896000Y-115889200D01*
X171896000Y-119329200D02*
X171896000Y-116539200D01*
X110475800Y-118999000D02*
X110475800Y-115559000D01*
X126858800Y-119126000D02*
X126858800Y-116136000D01*
G04 #@! TO.N,Net-(C12-Pad2)*
X134883000Y-102507000D02*
X134874000Y-102498000D01*
X139446000Y-102507000D02*
X134883000Y-102507000D01*
X141955200Y-93243400D02*
X143205200Y-93243400D01*
X141097000Y-94101600D02*
X141955200Y-93243400D01*
X141097000Y-101656000D02*
X141097000Y-94101600D01*
X140246000Y-102507000D02*
X141097000Y-101656000D01*
X139446000Y-102507000D02*
X140246000Y-102507000D01*
G04 #@! TO.N,8V*
X125510100Y-91563000D02*
X125514100Y-91567000D01*
D28*
X122936000Y-91563000D02*
X125510100Y-91563000D01*
D27*
X122936000Y-89458800D02*
X122999500Y-89395300D01*
D28*
X122936000Y-91563000D02*
X122936000Y-89458800D01*
D27*
X122324500Y-89395300D02*
X122999500Y-89395300D01*
D28*
X106579376Y-89395300D02*
X122324500Y-89395300D01*
X105156000Y-87971924D02*
X106579376Y-89395300D01*
X105156000Y-86487000D02*
X105156000Y-87971924D01*
D27*
X101904800Y-86487000D02*
X101358700Y-87033100D01*
D28*
X105156000Y-86487000D02*
X101904800Y-86487000D01*
D27*
X101358700Y-89021700D02*
X101376700Y-89039700D01*
D28*
X101358700Y-87033100D02*
X101358700Y-89021700D01*
D27*
X101376700Y-91206100D02*
X101244400Y-91338400D01*
D28*
X101376700Y-89039700D02*
X101376700Y-91206100D01*
D27*
G04 #@! TO.N,Net-(C21-Pad1)*
X114055000Y-86233000D02*
X114046000Y-86242000D01*
D28*
X116840000Y-86233000D02*
X114055000Y-86233000D01*
D27*
X110481000Y-86242000D02*
X110236000Y-86487000D01*
D28*
X114046000Y-86242000D02*
X110481000Y-86242000D01*
D27*
G04 #@! TO.N,FL*
X161264600Y-88925400D02*
X159131000Y-91059000D01*
X161264600Y-86664800D02*
X161264600Y-88925400D01*
G04 #@! TO.N,Net-(C13-Pad1)*
X138099800Y-106553000D02*
X138087100Y-106540300D01*
X140716000Y-106553000D02*
X138099800Y-106553000D01*
X134886700Y-106540300D02*
X134874000Y-106553000D01*
X138087100Y-106540300D02*
X134886700Y-106540300D01*
X143179800Y-104089200D02*
X143179800Y-97078800D01*
X140716000Y-106553000D02*
X143179800Y-104089200D01*
G04 #@! TO.N,Net-(C14-Pad1)*
X140734000Y-108585000D02*
X140716000Y-108603000D01*
X143002000Y-108585000D02*
X140734000Y-108585000D01*
G04 #@! TO.N,Net-(C23-Pad1)*
X137160000Y-100457000D02*
X137160000Y-98425000D01*
G04 #@! TO.N,Net-(C24-Pad1)*
X134874000Y-100448000D02*
X134874000Y-98443000D01*
X134865000Y-100457000D02*
X134874000Y-100448000D01*
X131572000Y-100457000D02*
X134865000Y-100457000D01*
G04 #@! TO.N,Net-(C28-Pad2)*
X122428000Y-109270800D02*
X122478800Y-109321600D01*
D29*
X122428000Y-107315000D02*
X122428000Y-109270800D01*
D27*
X122478800Y-111090600D02*
X122487800Y-111099600D01*
D29*
X122478800Y-109321600D02*
X122478800Y-111090600D01*
G04 #@! TD*
D30*
G04 #@! TO.N,GND*
G36*
X139520200Y-80867250D02*
X139678950Y-81026000D01*
X141238200Y-81026000D01*
X141238200Y-81006000D01*
X141492200Y-81006000D01*
X141492200Y-81026000D01*
X143051450Y-81026000D01*
X143210200Y-80867250D01*
X143210200Y-78942000D01*
X148280200Y-78942000D01*
X148280200Y-80867250D01*
X148438950Y-81026000D01*
X149998200Y-81026000D01*
X149998200Y-81006000D01*
X150252200Y-81006000D01*
X150252200Y-81026000D01*
X151811450Y-81026000D01*
X151970200Y-80867250D01*
X151970200Y-78942000D01*
X155039600Y-78942000D01*
X155039600Y-80772850D01*
X155198350Y-80931600D01*
X156757600Y-80931600D01*
X156757600Y-80911600D01*
X157011600Y-80911600D01*
X157011600Y-80931600D01*
X158570850Y-80931600D01*
X158729600Y-80772850D01*
X158729600Y-78942000D01*
X163799600Y-78942000D01*
X163799600Y-80772850D01*
X163958350Y-80931600D01*
X165517600Y-80931600D01*
X165517600Y-80911600D01*
X165771600Y-80911600D01*
X165771600Y-80931600D01*
X167330850Y-80931600D01*
X167489600Y-80772850D01*
X167489600Y-78942000D01*
X186742001Y-78942000D01*
X186742000Y-121210000D01*
X182501000Y-121210000D01*
X182501000Y-119614950D01*
X182342250Y-119456200D01*
X180783000Y-119456200D01*
X180783000Y-119476200D01*
X180529000Y-119476200D01*
X180529000Y-119456200D01*
X178969750Y-119456200D01*
X178811000Y-119614950D01*
X178811000Y-121210000D01*
X173741000Y-121210000D01*
X173741000Y-119614950D01*
X173582250Y-119456200D01*
X172023000Y-119456200D01*
X172023000Y-119476200D01*
X171769000Y-119476200D01*
X171769000Y-119456200D01*
X170209750Y-119456200D01*
X170051000Y-119614950D01*
X170051000Y-121210000D01*
X164289200Y-121210000D01*
X164289200Y-119665750D01*
X164130450Y-119507000D01*
X162571200Y-119507000D01*
X162571200Y-119527000D01*
X162317200Y-119527000D01*
X162317200Y-119507000D01*
X160757950Y-119507000D01*
X160599200Y-119665750D01*
X160599200Y-121210000D01*
X155529200Y-121210000D01*
X155529200Y-119665750D01*
X155370450Y-119507000D01*
X153811200Y-119507000D01*
X153811200Y-119527000D01*
X153557200Y-119527000D01*
X153557200Y-119507000D01*
X151997950Y-119507000D01*
X151839200Y-119665750D01*
X151839200Y-121210000D01*
X145163000Y-121210000D01*
X145163000Y-119665750D01*
X145004250Y-119507000D01*
X143445000Y-119507000D01*
X143445000Y-119527000D01*
X143191000Y-119527000D01*
X143191000Y-119507000D01*
X141631750Y-119507000D01*
X141473000Y-119665750D01*
X141473000Y-121210000D01*
X136403000Y-121210000D01*
X136403000Y-119665750D01*
X136244250Y-119507000D01*
X134685000Y-119507000D01*
X134685000Y-119527000D01*
X134431000Y-119527000D01*
X134431000Y-119507000D01*
X132871750Y-119507000D01*
X132713000Y-119665750D01*
X132713000Y-121210000D01*
X128703800Y-121210000D01*
X128703800Y-119411750D01*
X128545050Y-119253000D01*
X126985800Y-119253000D01*
X126985800Y-119273000D01*
X126731800Y-119273000D01*
X126731800Y-119253000D01*
X125172550Y-119253000D01*
X125013800Y-119411750D01*
X125013800Y-121210000D01*
X119943800Y-121210000D01*
X119943800Y-119411750D01*
X119785050Y-119253000D01*
X118225800Y-119253000D01*
X118225800Y-119273000D01*
X117971800Y-119273000D01*
X117971800Y-119253000D01*
X116412550Y-119253000D01*
X116253800Y-119411750D01*
X116253800Y-121210000D01*
X112320800Y-121210000D01*
X112320800Y-119284750D01*
X112162050Y-119126000D01*
X110602800Y-119126000D01*
X110602800Y-119146000D01*
X110348800Y-119146000D01*
X110348800Y-119126000D01*
X108789550Y-119126000D01*
X108630800Y-119284750D01*
X108630800Y-121210000D01*
X103560800Y-121210000D01*
X103560800Y-119284750D01*
X103402050Y-119126000D01*
X101842800Y-119126000D01*
X101842800Y-119146000D01*
X101588800Y-119146000D01*
X101588800Y-119126000D01*
X100029550Y-119126000D01*
X99870800Y-119284750D01*
X99870800Y-121210000D01*
X95706000Y-121210000D01*
X95706000Y-116332691D01*
X99870800Y-116332691D01*
X99870800Y-118713250D01*
X100029550Y-118872000D01*
X101588800Y-118872000D01*
X101588800Y-118852000D01*
X101842800Y-118852000D01*
X101842800Y-118872000D01*
X103402050Y-118872000D01*
X103560800Y-118713250D01*
X103560800Y-116332691D01*
X108630800Y-116332691D01*
X108630800Y-118713250D01*
X108789550Y-118872000D01*
X110348800Y-118872000D01*
X110348800Y-118852000D01*
X110602800Y-118852000D01*
X110602800Y-118872000D01*
X112162050Y-118872000D01*
X112320800Y-118713250D01*
X112320800Y-116459691D01*
X116253800Y-116459691D01*
X116253800Y-118840250D01*
X116412550Y-118999000D01*
X117971800Y-118999000D01*
X117971800Y-118979000D01*
X118225800Y-118979000D01*
X118225800Y-118999000D01*
X119785050Y-118999000D01*
X119943800Y-118840250D01*
X119943800Y-116459691D01*
X125013800Y-116459691D01*
X125013800Y-118840250D01*
X125172550Y-118999000D01*
X126731800Y-118999000D01*
X126731800Y-118979000D01*
X126985800Y-118979000D01*
X126985800Y-118999000D01*
X128545050Y-118999000D01*
X128703800Y-118840250D01*
X128703800Y-116713691D01*
X132713000Y-116713691D01*
X132713000Y-119094250D01*
X132871750Y-119253000D01*
X134431000Y-119253000D01*
X134431000Y-119233000D01*
X134685000Y-119233000D01*
X134685000Y-119253000D01*
X136244250Y-119253000D01*
X136403000Y-119094250D01*
X136403000Y-116713691D01*
X141473000Y-116713691D01*
X141473000Y-119094250D01*
X141631750Y-119253000D01*
X143191000Y-119253000D01*
X143191000Y-119233000D01*
X143445000Y-119233000D01*
X143445000Y-119253000D01*
X145004250Y-119253000D01*
X145163000Y-119094250D01*
X145163000Y-116713691D01*
X151839200Y-116713691D01*
X151839200Y-119094250D01*
X151997950Y-119253000D01*
X153557200Y-119253000D01*
X153557200Y-119233000D01*
X153811200Y-119233000D01*
X153811200Y-119253000D01*
X155370450Y-119253000D01*
X155529200Y-119094250D01*
X155529200Y-116713691D01*
X160599200Y-116713691D01*
X160599200Y-119094250D01*
X160757950Y-119253000D01*
X162317200Y-119253000D01*
X162317200Y-119233000D01*
X162571200Y-119233000D01*
X162571200Y-119253000D01*
X164130450Y-119253000D01*
X164289200Y-119094250D01*
X164289200Y-116713691D01*
X164268158Y-116662891D01*
X170051000Y-116662891D01*
X170051000Y-119043450D01*
X170209750Y-119202200D01*
X171769000Y-119202200D01*
X171769000Y-119182200D01*
X172023000Y-119182200D01*
X172023000Y-119202200D01*
X173582250Y-119202200D01*
X173741000Y-119043450D01*
X173741000Y-116662891D01*
X178811000Y-116662891D01*
X178811000Y-119043450D01*
X178969750Y-119202200D01*
X180529000Y-119202200D01*
X180529000Y-119182200D01*
X180783000Y-119182200D01*
X180783000Y-119202200D01*
X182342250Y-119202200D01*
X182501000Y-119043450D01*
X182501000Y-116662891D01*
X182404327Y-116429502D01*
X182225699Y-116250873D01*
X181992310Y-116154200D01*
X181748129Y-116154200D01*
X181789149Y-116030636D01*
X181757018Y-115586232D01*
X181648768Y-115324892D01*
X181435200Y-115289605D01*
X181322315Y-115402490D01*
X181245699Y-115325873D01*
X181100051Y-115265544D01*
X181255595Y-115110000D01*
X181220308Y-114896432D01*
X180797436Y-114756051D01*
X180353032Y-114788182D01*
X180091692Y-114896432D01*
X180056405Y-115110000D01*
X180211949Y-115265544D01*
X180066301Y-115325873D01*
X179989685Y-115402490D01*
X179876800Y-115289605D01*
X179663232Y-115324892D01*
X179522851Y-115747764D01*
X179552237Y-116154200D01*
X179319690Y-116154200D01*
X179086301Y-116250873D01*
X178907673Y-116429502D01*
X178811000Y-116662891D01*
X173741000Y-116662891D01*
X173644327Y-116429502D01*
X173465699Y-116250873D01*
X173232310Y-116154200D01*
X172988129Y-116154200D01*
X173029149Y-116030636D01*
X172997018Y-115586232D01*
X172888768Y-115324892D01*
X172675200Y-115289605D01*
X172562315Y-115402490D01*
X172485699Y-115325873D01*
X172340051Y-115265544D01*
X172495595Y-115110000D01*
X172460308Y-114896432D01*
X172037436Y-114756051D01*
X171593032Y-114788182D01*
X171331692Y-114896432D01*
X171296405Y-115110000D01*
X171451949Y-115265544D01*
X171306301Y-115325873D01*
X171229685Y-115402490D01*
X171116800Y-115289605D01*
X170903232Y-115324892D01*
X170762851Y-115747764D01*
X170792237Y-116154200D01*
X170559690Y-116154200D01*
X170326301Y-116250873D01*
X170147673Y-116429502D01*
X170051000Y-116662891D01*
X164268158Y-116662891D01*
X164192527Y-116480302D01*
X164013899Y-116301673D01*
X163780510Y-116205000D01*
X163536329Y-116205000D01*
X163577349Y-116081436D01*
X163545218Y-115637032D01*
X163436968Y-115375692D01*
X163223400Y-115340405D01*
X163110515Y-115453290D01*
X163033899Y-115376673D01*
X162888251Y-115316344D01*
X163043795Y-115160800D01*
X163008508Y-114947232D01*
X162585636Y-114806851D01*
X162141232Y-114838982D01*
X161879892Y-114947232D01*
X161844605Y-115160800D01*
X162000149Y-115316344D01*
X161854501Y-115376673D01*
X161777885Y-115453290D01*
X161665000Y-115340405D01*
X161451432Y-115375692D01*
X161311051Y-115798564D01*
X161340437Y-116205000D01*
X161107890Y-116205000D01*
X160874501Y-116301673D01*
X160695873Y-116480302D01*
X160599200Y-116713691D01*
X155529200Y-116713691D01*
X155432527Y-116480302D01*
X155253899Y-116301673D01*
X155020510Y-116205000D01*
X154776329Y-116205000D01*
X154817349Y-116081436D01*
X154785218Y-115637032D01*
X154676968Y-115375692D01*
X154463400Y-115340405D01*
X154350515Y-115453290D01*
X154273899Y-115376673D01*
X154128251Y-115316344D01*
X154283795Y-115160800D01*
X154248508Y-114947232D01*
X153825636Y-114806851D01*
X153381232Y-114838982D01*
X153119892Y-114947232D01*
X153084605Y-115160800D01*
X153240149Y-115316344D01*
X153094501Y-115376673D01*
X153017885Y-115453290D01*
X152905000Y-115340405D01*
X152691432Y-115375692D01*
X152551051Y-115798564D01*
X152580437Y-116205000D01*
X152347890Y-116205000D01*
X152114501Y-116301673D01*
X151935873Y-116480302D01*
X151839200Y-116713691D01*
X145163000Y-116713691D01*
X145066327Y-116480302D01*
X144887699Y-116301673D01*
X144654310Y-116205000D01*
X144410129Y-116205000D01*
X144451149Y-116081436D01*
X144419018Y-115637032D01*
X144310768Y-115375692D01*
X144097200Y-115340405D01*
X143984315Y-115453290D01*
X143907699Y-115376673D01*
X143762051Y-115316344D01*
X143917595Y-115160800D01*
X143882308Y-114947232D01*
X143459436Y-114806851D01*
X143015032Y-114838982D01*
X142753692Y-114947232D01*
X142718405Y-115160800D01*
X142873949Y-115316344D01*
X142728301Y-115376673D01*
X142651685Y-115453290D01*
X142538800Y-115340405D01*
X142325232Y-115375692D01*
X142184851Y-115798564D01*
X142214237Y-116205000D01*
X141981690Y-116205000D01*
X141748301Y-116301673D01*
X141569673Y-116480302D01*
X141473000Y-116713691D01*
X136403000Y-116713691D01*
X136306327Y-116480302D01*
X136127699Y-116301673D01*
X135894310Y-116205000D01*
X135650129Y-116205000D01*
X135691149Y-116081436D01*
X135659018Y-115637032D01*
X135550768Y-115375692D01*
X135337200Y-115340405D01*
X135224315Y-115453290D01*
X135147699Y-115376673D01*
X135002051Y-115316344D01*
X135157595Y-115160800D01*
X135122308Y-114947232D01*
X134699436Y-114806851D01*
X134255032Y-114838982D01*
X133993692Y-114947232D01*
X133958405Y-115160800D01*
X134113949Y-115316344D01*
X133968301Y-115376673D01*
X133891685Y-115453290D01*
X133778800Y-115340405D01*
X133565232Y-115375692D01*
X133424851Y-115798564D01*
X133454237Y-116205000D01*
X133221690Y-116205000D01*
X132988301Y-116301673D01*
X132809673Y-116480302D01*
X132713000Y-116713691D01*
X128703800Y-116713691D01*
X128703800Y-116459691D01*
X128607127Y-116226302D01*
X128428499Y-116047673D01*
X128195110Y-115951000D01*
X127950929Y-115951000D01*
X127991949Y-115827436D01*
X127959818Y-115383032D01*
X127851568Y-115121692D01*
X127638000Y-115086405D01*
X127525115Y-115199290D01*
X127448499Y-115122673D01*
X127302851Y-115062344D01*
X127458395Y-114906800D01*
X127423108Y-114693232D01*
X127000236Y-114552851D01*
X126555832Y-114584982D01*
X126294492Y-114693232D01*
X126259205Y-114906800D01*
X126414749Y-115062344D01*
X126269101Y-115122673D01*
X126192485Y-115199290D01*
X126079600Y-115086405D01*
X125866032Y-115121692D01*
X125725651Y-115544564D01*
X125755037Y-115951000D01*
X125522490Y-115951000D01*
X125289101Y-116047673D01*
X125110473Y-116226302D01*
X125013800Y-116459691D01*
X119943800Y-116459691D01*
X119847127Y-116226302D01*
X119668499Y-116047673D01*
X119435110Y-115951000D01*
X119190929Y-115951000D01*
X119231949Y-115827436D01*
X119199818Y-115383032D01*
X119091568Y-115121692D01*
X118878000Y-115086405D01*
X118765115Y-115199290D01*
X118688499Y-115122673D01*
X118542851Y-115062344D01*
X118698395Y-114906800D01*
X118663108Y-114693232D01*
X118240236Y-114552851D01*
X117795832Y-114584982D01*
X117534492Y-114693232D01*
X117499205Y-114906800D01*
X117654749Y-115062344D01*
X117509101Y-115122673D01*
X117432485Y-115199290D01*
X117319600Y-115086405D01*
X117106032Y-115121692D01*
X116965651Y-115544564D01*
X116995037Y-115951000D01*
X116762490Y-115951000D01*
X116529101Y-116047673D01*
X116350473Y-116226302D01*
X116253800Y-116459691D01*
X112320800Y-116459691D01*
X112320800Y-116332691D01*
X112224127Y-116099302D01*
X112045499Y-115920673D01*
X111812110Y-115824000D01*
X111567929Y-115824000D01*
X111608949Y-115700436D01*
X111576818Y-115256032D01*
X111468568Y-114994692D01*
X111255000Y-114959405D01*
X111142115Y-115072290D01*
X111065499Y-114995673D01*
X110919851Y-114935344D01*
X111075395Y-114779800D01*
X111040108Y-114566232D01*
X110617236Y-114425851D01*
X110172832Y-114457982D01*
X109911492Y-114566232D01*
X109876205Y-114779800D01*
X110031749Y-114935344D01*
X109886101Y-114995673D01*
X109809485Y-115072290D01*
X109696600Y-114959405D01*
X109483032Y-114994692D01*
X109342651Y-115417564D01*
X109372037Y-115824000D01*
X109139490Y-115824000D01*
X108906101Y-115920673D01*
X108727473Y-116099302D01*
X108630800Y-116332691D01*
X103560800Y-116332691D01*
X103464127Y-116099302D01*
X103285499Y-115920673D01*
X103052110Y-115824000D01*
X102807929Y-115824000D01*
X102848949Y-115700436D01*
X102816818Y-115256032D01*
X102708568Y-114994692D01*
X102495000Y-114959405D01*
X102382115Y-115072290D01*
X102305499Y-114995673D01*
X102159851Y-114935344D01*
X102315395Y-114779800D01*
X102280108Y-114566232D01*
X101857236Y-114425851D01*
X101412832Y-114457982D01*
X101151492Y-114566232D01*
X101116205Y-114779800D01*
X101271749Y-114935344D01*
X101126101Y-114995673D01*
X101049485Y-115072290D01*
X100936600Y-114959405D01*
X100723032Y-114994692D01*
X100582651Y-115417564D01*
X100612037Y-115824000D01*
X100379490Y-115824000D01*
X100146101Y-115920673D01*
X99967473Y-116099302D01*
X99870800Y-116332691D01*
X95706000Y-116332691D01*
X95706000Y-111385350D01*
X119227800Y-111385350D01*
X119227800Y-111925910D01*
X119324473Y-112159299D01*
X119503102Y-112337927D01*
X119736491Y-112434600D01*
X120152050Y-112434600D01*
X120310800Y-112275850D01*
X120310800Y-111226600D01*
X119386550Y-111226600D01*
X119227800Y-111385350D01*
X95706000Y-111385350D01*
X95706000Y-109607350D01*
X119218800Y-109607350D01*
X119218800Y-110147910D01*
X119249267Y-110221464D01*
X119227800Y-110273290D01*
X119227800Y-110813850D01*
X119386550Y-110972600D01*
X120310800Y-110972600D01*
X120310800Y-109923350D01*
X120301800Y-109914350D01*
X120301800Y-109448600D01*
X119377550Y-109448600D01*
X119218800Y-109607350D01*
X95706000Y-109607350D01*
X95706000Y-107695435D01*
X118297867Y-107695435D01*
X118564495Y-108274994D01*
X119032615Y-108708402D01*
X119218800Y-108785519D01*
X119218800Y-109035850D01*
X119377550Y-109194600D01*
X120301800Y-109194600D01*
X120301800Y-109174600D01*
X120555800Y-109174600D01*
X120555800Y-109194600D01*
X120575800Y-109194600D01*
X120575800Y-109448600D01*
X120555800Y-109448600D01*
X120555800Y-110497850D01*
X120564800Y-110506850D01*
X120564800Y-110972600D01*
X120584800Y-110972600D01*
X120584800Y-111226600D01*
X120564800Y-111226600D01*
X120564800Y-112275850D01*
X120723550Y-112434600D01*
X121139109Y-112434600D01*
X121372498Y-112337927D01*
X121527423Y-112183003D01*
X121528214Y-112184186D01*
X121819364Y-112378727D01*
X122162799Y-112447040D01*
X122812801Y-112447040D01*
X123156236Y-112378727D01*
X123447386Y-112184186D01*
X123641927Y-111893036D01*
X123710240Y-111549601D01*
X123710240Y-110920750D01*
X141667000Y-110920750D01*
X141667000Y-111336309D01*
X141763673Y-111569698D01*
X141942301Y-111748327D01*
X142175690Y-111845000D01*
X142716250Y-111845000D01*
X142875000Y-111686250D01*
X142875000Y-110762000D01*
X143129000Y-110762000D01*
X143129000Y-111686250D01*
X143287750Y-111845000D01*
X143828310Y-111845000D01*
X144061699Y-111748327D01*
X144240327Y-111569698D01*
X144337000Y-111336309D01*
X144337000Y-110920750D01*
X144178250Y-110762000D01*
X143129000Y-110762000D01*
X142875000Y-110762000D01*
X141825750Y-110762000D01*
X141667000Y-110920750D01*
X123710240Y-110920750D01*
X123710240Y-110649599D01*
X123641927Y-110306164D01*
X123573573Y-110203865D01*
X123632927Y-110115036D01*
X123701240Y-109771601D01*
X123701240Y-108896135D01*
X123731299Y-108876050D01*
X136752100Y-108876050D01*
X136752100Y-109291609D01*
X136848773Y-109524998D01*
X137027401Y-109703627D01*
X137260790Y-109800300D01*
X137801350Y-109800300D01*
X137960100Y-109641550D01*
X137960100Y-108717300D01*
X136910850Y-108717300D01*
X136752100Y-108876050D01*
X123731299Y-108876050D01*
X123885809Y-108772809D01*
X124026157Y-108562765D01*
X124075440Y-108315000D01*
X124075440Y-106315000D01*
X124026157Y-106067235D01*
X123885809Y-105857191D01*
X123675765Y-105716843D01*
X123428000Y-105667560D01*
X121428000Y-105667560D01*
X121180235Y-105716843D01*
X120970191Y-105857191D01*
X120856919Y-106026713D01*
X120743385Y-105921598D01*
X120268434Y-105724876D01*
X120015000Y-105844223D01*
X120015000Y-107188000D01*
X120035000Y-107188000D01*
X120035000Y-107442000D01*
X120015000Y-107442000D01*
X120015000Y-107462000D01*
X119761000Y-107462000D01*
X119761000Y-107442000D01*
X118416681Y-107442000D01*
X118297867Y-107695435D01*
X95706000Y-107695435D01*
X95706000Y-106934565D01*
X118297867Y-106934565D01*
X118416681Y-107188000D01*
X119761000Y-107188000D01*
X119761000Y-105844223D01*
X119507566Y-105724876D01*
X119032615Y-105921598D01*
X118564495Y-106355006D01*
X118297867Y-106934565D01*
X95706000Y-106934565D01*
X95706000Y-105283000D01*
X108441969Y-105283000D01*
X108568864Y-105920945D01*
X108930231Y-106461769D01*
X109471055Y-106823136D01*
X109947969Y-106918000D01*
X110270031Y-106918000D01*
X110746945Y-106823136D01*
X111287769Y-106461769D01*
X111649136Y-105920945D01*
X111776031Y-105283000D01*
X111649136Y-104645055D01*
X111418511Y-104299900D01*
X111566809Y-104200809D01*
X111707157Y-103990765D01*
X111756440Y-103743000D01*
X111756440Y-102997000D01*
X129904969Y-102997000D01*
X130031864Y-103634945D01*
X130393231Y-104175769D01*
X130934055Y-104537136D01*
X131410969Y-104632000D01*
X131733031Y-104632000D01*
X132209945Y-104537136D01*
X132750769Y-104175769D01*
X133112136Y-103634945D01*
X133239031Y-102997000D01*
X133112136Y-102359055D01*
X132881511Y-102013900D01*
X133029809Y-101914809D01*
X133170157Y-101704765D01*
X133219440Y-101457000D01*
X133219440Y-101217000D01*
X133662068Y-101217000D01*
X133789414Y-101407586D01*
X133887313Y-101473000D01*
X133789414Y-101538414D01*
X133594873Y-101829564D01*
X133526560Y-102172999D01*
X133526560Y-102823001D01*
X133594873Y-103166436D01*
X133789414Y-103457586D01*
X134080564Y-103652127D01*
X134423999Y-103720440D01*
X135324001Y-103720440D01*
X135667436Y-103652127D01*
X135958586Y-103457586D01*
X136013993Y-103374664D01*
X136075414Y-103466586D01*
X136366564Y-103661127D01*
X136709999Y-103729440D01*
X137610001Y-103729440D01*
X137953436Y-103661127D01*
X138244586Y-103466586D01*
X138303000Y-103379164D01*
X138361414Y-103466586D01*
X138652564Y-103661127D01*
X138995999Y-103729440D01*
X139896001Y-103729440D01*
X140239436Y-103661127D01*
X140530586Y-103466586D01*
X140725127Y-103175436D01*
X140742225Y-103089476D01*
X140793929Y-103054929D01*
X140836331Y-102991470D01*
X141581473Y-102246329D01*
X141644929Y-102203929D01*
X141711406Y-102104440D01*
X141812904Y-101952538D01*
X141822480Y-101904395D01*
X141857000Y-101730852D01*
X141857000Y-101730848D01*
X141871888Y-101656000D01*
X141857000Y-101581152D01*
X141857000Y-98626820D01*
X141932035Y-98676957D01*
X142179800Y-98726240D01*
X142419801Y-98726240D01*
X142419800Y-103774397D01*
X140863638Y-105330560D01*
X140265999Y-105330560D01*
X139922564Y-105398873D01*
X139631414Y-105593414D01*
X139498054Y-105793000D01*
X139313532Y-105793000D01*
X139171686Y-105580714D01*
X138880536Y-105386173D01*
X138537101Y-105317860D01*
X137637099Y-105317860D01*
X137293664Y-105386173D01*
X137002514Y-105580714D01*
X136869154Y-105780300D01*
X136521440Y-105780300D01*
X136521440Y-105553000D01*
X136472157Y-105305235D01*
X136331809Y-105095191D01*
X136121765Y-104954843D01*
X135874000Y-104905560D01*
X133874000Y-104905560D01*
X133626235Y-104954843D01*
X133416191Y-105095191D01*
X133317100Y-105243489D01*
X132971945Y-105012864D01*
X132495031Y-104918000D01*
X132172969Y-104918000D01*
X131696055Y-105012864D01*
X131155231Y-105374231D01*
X130793864Y-105915055D01*
X130666969Y-106553000D01*
X130793864Y-107190945D01*
X131155231Y-107731769D01*
X131696055Y-108093136D01*
X132172969Y-108188000D01*
X132495031Y-108188000D01*
X132971945Y-108093136D01*
X133317100Y-107862511D01*
X133416191Y-108010809D01*
X133626235Y-108151157D01*
X133874000Y-108200440D01*
X135874000Y-108200440D01*
X136121765Y-108151157D01*
X136331809Y-108010809D01*
X136472157Y-107800765D01*
X136521440Y-107553000D01*
X136521440Y-107300300D01*
X136869154Y-107300300D01*
X137002514Y-107499886D01*
X137003697Y-107500677D01*
X136848773Y-107655602D01*
X136752100Y-107888991D01*
X136752100Y-108304550D01*
X136910850Y-108463300D01*
X137960100Y-108463300D01*
X137960100Y-108443300D01*
X138214100Y-108443300D01*
X138214100Y-108463300D01*
X138234100Y-108463300D01*
X138234100Y-108717300D01*
X138214100Y-108717300D01*
X138214100Y-109641550D01*
X138372850Y-109800300D01*
X138913410Y-109800300D01*
X139146799Y-109703627D01*
X139325427Y-109524998D01*
X139422100Y-109291609D01*
X139422100Y-109197167D01*
X139436873Y-109271436D01*
X139631414Y-109562586D01*
X139922564Y-109757127D01*
X140265999Y-109825440D01*
X141166001Y-109825440D01*
X141509436Y-109757127D01*
X141800586Y-109562586D01*
X141865014Y-109466164D01*
X141917414Y-109544586D01*
X141918597Y-109545377D01*
X141763673Y-109700302D01*
X141667000Y-109933691D01*
X141667000Y-110349250D01*
X141825750Y-110508000D01*
X142875000Y-110508000D01*
X142875000Y-110488000D01*
X143129000Y-110488000D01*
X143129000Y-110508000D01*
X144178250Y-110508000D01*
X144337000Y-110349250D01*
X144337000Y-109933691D01*
X144240327Y-109700302D01*
X144085403Y-109545377D01*
X144086586Y-109544586D01*
X144281127Y-109253436D01*
X144349440Y-108910001D01*
X144349440Y-108609835D01*
X156855067Y-108609835D01*
X157121695Y-109189394D01*
X157589815Y-109622802D01*
X158064766Y-109819524D01*
X158318200Y-109700177D01*
X158318200Y-108356400D01*
X156973881Y-108356400D01*
X156855067Y-108609835D01*
X144349440Y-108609835D01*
X144349440Y-108259999D01*
X144281127Y-107916564D01*
X144235959Y-107848965D01*
X156855067Y-107848965D01*
X156973881Y-108102400D01*
X158318200Y-108102400D01*
X158318200Y-106758623D01*
X158572200Y-106758623D01*
X158572200Y-108102400D01*
X158592200Y-108102400D01*
X158592200Y-108356400D01*
X158572200Y-108356400D01*
X158572200Y-109700177D01*
X158825634Y-109819524D01*
X159300585Y-109622802D01*
X159701701Y-109251429D01*
X159806431Y-109408169D01*
X160347255Y-109769536D01*
X160824169Y-109864400D01*
X161146231Y-109864400D01*
X161623145Y-109769536D01*
X162163969Y-109408169D01*
X162255200Y-109271632D01*
X162346431Y-109408169D01*
X162887255Y-109769536D01*
X163364169Y-109864400D01*
X163686231Y-109864400D01*
X164163145Y-109769536D01*
X164508300Y-109538911D01*
X164607391Y-109687209D01*
X164817435Y-109827557D01*
X165065200Y-109876840D01*
X167065200Y-109876840D01*
X167312965Y-109827557D01*
X167523009Y-109687209D01*
X167663357Y-109477165D01*
X167712640Y-109229400D01*
X167712640Y-107229400D01*
X167663357Y-106981635D01*
X167523009Y-106771591D01*
X167312965Y-106631243D01*
X167065200Y-106581960D01*
X165065200Y-106581960D01*
X164817435Y-106631243D01*
X164607391Y-106771591D01*
X164508300Y-106919889D01*
X164163145Y-106689264D01*
X163686231Y-106594400D01*
X163364169Y-106594400D01*
X162887255Y-106689264D01*
X162346431Y-107050631D01*
X162255200Y-107187168D01*
X162163969Y-107050631D01*
X161623145Y-106689264D01*
X161146231Y-106594400D01*
X160824169Y-106594400D01*
X160347255Y-106689264D01*
X159806431Y-107050631D01*
X159701701Y-107207371D01*
X159300585Y-106835998D01*
X158825634Y-106639276D01*
X158572200Y-106758623D01*
X158318200Y-106758623D01*
X158064766Y-106639276D01*
X157589815Y-106835998D01*
X157121695Y-107269406D01*
X156855067Y-107848965D01*
X144235959Y-107848965D01*
X144086586Y-107625414D01*
X143795436Y-107430873D01*
X143452001Y-107362560D01*
X142551999Y-107362560D01*
X142208564Y-107430873D01*
X141917414Y-107625414D01*
X141852986Y-107721836D01*
X141800586Y-107643414D01*
X141702687Y-107578000D01*
X141800586Y-107512586D01*
X141995127Y-107221436D01*
X142063440Y-106878001D01*
X142063440Y-106280362D01*
X143664276Y-104679527D01*
X143727729Y-104637129D01*
X143770127Y-104573676D01*
X143770129Y-104573674D01*
X143853902Y-104448298D01*
X143895704Y-104385737D01*
X143939800Y-104164052D01*
X143939800Y-104164048D01*
X143954688Y-104089201D01*
X143939800Y-104014354D01*
X143939800Y-98726240D01*
X144179800Y-98726240D01*
X144427565Y-98676957D01*
X144637609Y-98536609D01*
X144736700Y-98388311D01*
X145081855Y-98618936D01*
X145558769Y-98713800D01*
X145880831Y-98713800D01*
X146357745Y-98618936D01*
X146898569Y-98257569D01*
X147259936Y-97716745D01*
X147386831Y-97078800D01*
X147786569Y-97078800D01*
X147913464Y-97716745D01*
X148274831Y-98257569D01*
X148815655Y-98618936D01*
X149292569Y-98713800D01*
X149614631Y-98713800D01*
X150091545Y-98618936D01*
X150436700Y-98388311D01*
X150535791Y-98536609D01*
X150745835Y-98676957D01*
X150993600Y-98726240D01*
X152993600Y-98726240D01*
X153241365Y-98676957D01*
X153451409Y-98536609D01*
X153591757Y-98326565D01*
X153641040Y-98078800D01*
X153641040Y-96773434D01*
X183448876Y-96773434D01*
X183645598Y-97248385D01*
X184079006Y-97716505D01*
X184658565Y-97983133D01*
X184912000Y-97864319D01*
X184912000Y-96520000D01*
X185166000Y-96520000D01*
X185166000Y-97864319D01*
X185419435Y-97983133D01*
X185998994Y-97716505D01*
X186432402Y-97248385D01*
X186629124Y-96773434D01*
X186509777Y-96520000D01*
X185166000Y-96520000D01*
X184912000Y-96520000D01*
X183568223Y-96520000D01*
X183448876Y-96773434D01*
X153641040Y-96773434D01*
X153641040Y-96078800D01*
X153591757Y-95831035D01*
X153451409Y-95620991D01*
X153241365Y-95480643D01*
X152993600Y-95431360D01*
X150993600Y-95431360D01*
X150745835Y-95480643D01*
X150535791Y-95620991D01*
X150436700Y-95769289D01*
X150091545Y-95538664D01*
X149614631Y-95443800D01*
X149292569Y-95443800D01*
X148815655Y-95538664D01*
X148274831Y-95900031D01*
X147913464Y-96440855D01*
X147786569Y-97078800D01*
X147386831Y-97078800D01*
X147259936Y-96440855D01*
X146898569Y-95900031D01*
X146357745Y-95538664D01*
X145880831Y-95443800D01*
X145558769Y-95443800D01*
X145081855Y-95538664D01*
X144736700Y-95769289D01*
X144637609Y-95620991D01*
X144427565Y-95480643D01*
X144179800Y-95431360D01*
X142179800Y-95431360D01*
X141932035Y-95480643D01*
X141857000Y-95530780D01*
X141857000Y-94774448D01*
X141957435Y-94841557D01*
X142205200Y-94890840D01*
X144205200Y-94890840D01*
X144452965Y-94841557D01*
X144663009Y-94701209D01*
X144762100Y-94552911D01*
X145107255Y-94783536D01*
X145584169Y-94878400D01*
X145906231Y-94878400D01*
X146383145Y-94783536D01*
X146923969Y-94422169D01*
X147285336Y-93881345D01*
X147412231Y-93243400D01*
X147334576Y-92853000D01*
X183391560Y-92853000D01*
X183391560Y-94853000D01*
X183440843Y-95100765D01*
X183581191Y-95310809D01*
X183750713Y-95424081D01*
X183645598Y-95537615D01*
X183448876Y-96012566D01*
X183568223Y-96266000D01*
X184912000Y-96266000D01*
X184912000Y-96246000D01*
X185166000Y-96246000D01*
X185166000Y-96266000D01*
X186509777Y-96266000D01*
X186629124Y-96012566D01*
X186432402Y-95537615D01*
X186327287Y-95424081D01*
X186496809Y-95310809D01*
X186637157Y-95100765D01*
X186686440Y-94853000D01*
X186686440Y-92853000D01*
X186637157Y-92605235D01*
X186496809Y-92395191D01*
X186286765Y-92254843D01*
X186039000Y-92205560D01*
X184039000Y-92205560D01*
X183791235Y-92254843D01*
X183581191Y-92395191D01*
X183440843Y-92605235D01*
X183391560Y-92853000D01*
X147334576Y-92853000D01*
X147285336Y-92605455D01*
X146923969Y-92064631D01*
X146383145Y-91703264D01*
X145906231Y-91608400D01*
X145584169Y-91608400D01*
X145107255Y-91703264D01*
X144762100Y-91933889D01*
X144663009Y-91785591D01*
X144452965Y-91645243D01*
X144205200Y-91595960D01*
X142205200Y-91595960D01*
X141957435Y-91645243D01*
X141747391Y-91785591D01*
X141607043Y-91995635D01*
X141557760Y-92243400D01*
X141557760Y-92594917D01*
X141407271Y-92695471D01*
X141364871Y-92758927D01*
X140612528Y-93511271D01*
X140549072Y-93553671D01*
X140506672Y-93617127D01*
X140506671Y-93617128D01*
X140381097Y-93805063D01*
X140322112Y-94101600D01*
X140337001Y-94176452D01*
X140337000Y-99273796D01*
X140272310Y-99247000D01*
X139731750Y-99247000D01*
X139573000Y-99405750D01*
X139573000Y-100330000D01*
X139593000Y-100330000D01*
X139593000Y-100584000D01*
X139573000Y-100584000D01*
X139573000Y-100604000D01*
X139319000Y-100604000D01*
X139319000Y-100584000D01*
X139299000Y-100584000D01*
X139299000Y-100330000D01*
X139319000Y-100330000D01*
X139319000Y-99405750D01*
X139160250Y-99247000D01*
X138619690Y-99247000D01*
X138386301Y-99343673D01*
X138237377Y-99492597D01*
X138160157Y-99441000D01*
X138244586Y-99384586D01*
X138439127Y-99093436D01*
X138507440Y-98750001D01*
X138507440Y-98099999D01*
X138439127Y-97756564D01*
X138244586Y-97465414D01*
X138243403Y-97464623D01*
X138398327Y-97309698D01*
X138495000Y-97076309D01*
X138495000Y-96660750D01*
X138336250Y-96502000D01*
X137287000Y-96502000D01*
X137287000Y-96522000D01*
X137033000Y-96522000D01*
X137033000Y-96502000D01*
X135983750Y-96502000D01*
X135965750Y-96520000D01*
X135001000Y-96520000D01*
X135001000Y-96540000D01*
X134747000Y-96540000D01*
X134747000Y-96520000D01*
X133697750Y-96520000D01*
X133539000Y-96678750D01*
X133539000Y-97094309D01*
X133635673Y-97327698D01*
X133790597Y-97482623D01*
X133789414Y-97483414D01*
X133594873Y-97774564D01*
X133526560Y-98117999D01*
X133526560Y-98768001D01*
X133594873Y-99111436D01*
X133789414Y-99402586D01*
X133853639Y-99445500D01*
X133789414Y-99488414D01*
X133650041Y-99697000D01*
X133219440Y-99697000D01*
X133219440Y-99457000D01*
X133170157Y-99209235D01*
X133029809Y-98999191D01*
X132819765Y-98858843D01*
X132572000Y-98809560D01*
X130572000Y-98809560D01*
X130324235Y-98858843D01*
X130114191Y-98999191D01*
X129973843Y-99209235D01*
X129924560Y-99457000D01*
X129924560Y-101457000D01*
X129973843Y-101704765D01*
X130114191Y-101914809D01*
X130262489Y-102013900D01*
X130031864Y-102359055D01*
X129904969Y-102997000D01*
X111756440Y-102997000D01*
X111756440Y-101743000D01*
X111707157Y-101495235D01*
X111566809Y-101285191D01*
X111356765Y-101144843D01*
X111109000Y-101095560D01*
X109109000Y-101095560D01*
X108861235Y-101144843D01*
X108651191Y-101285191D01*
X108510843Y-101495235D01*
X108461560Y-101743000D01*
X108461560Y-103743000D01*
X108510843Y-103990765D01*
X108651191Y-104200809D01*
X108799489Y-104299900D01*
X108568864Y-104645055D01*
X108441969Y-105283000D01*
X95706000Y-105283000D01*
X95706000Y-101743000D01*
X99698560Y-101743000D01*
X99698560Y-103743000D01*
X99747843Y-103990765D01*
X99888191Y-104200809D01*
X100098235Y-104341157D01*
X100346000Y-104390440D01*
X102346000Y-104390440D01*
X102593765Y-104341157D01*
X102803809Y-104200809D01*
X102902900Y-104052511D01*
X103248055Y-104283136D01*
X103724969Y-104378000D01*
X104047031Y-104378000D01*
X104523945Y-104283136D01*
X105064769Y-103921769D01*
X105426136Y-103380945D01*
X105553031Y-102743000D01*
X105426136Y-102105055D01*
X105064769Y-101564231D01*
X104523945Y-101202864D01*
X104047031Y-101108000D01*
X103724969Y-101108000D01*
X103248055Y-101202864D01*
X102902900Y-101433489D01*
X102803809Y-101285191D01*
X102593765Y-101144843D01*
X102346000Y-101095560D01*
X100346000Y-101095560D01*
X100098235Y-101144843D01*
X99888191Y-101285191D01*
X99747843Y-101495235D01*
X99698560Y-101743000D01*
X95706000Y-101743000D01*
X95706000Y-89325450D01*
X98116700Y-89325450D01*
X98116700Y-89866010D01*
X98213373Y-90099399D01*
X98392002Y-90278027D01*
X98625391Y-90374700D01*
X99040950Y-90374700D01*
X99199700Y-90215950D01*
X99199700Y-89166700D01*
X98275450Y-89166700D01*
X98116700Y-89325450D01*
X95706000Y-89325450D01*
X95706000Y-87318850D01*
X98098700Y-87318850D01*
X98098700Y-87859410D01*
X98181012Y-88058128D01*
X98116700Y-88213390D01*
X98116700Y-88753950D01*
X98275450Y-88912700D01*
X99199700Y-88912700D01*
X99199700Y-87863450D01*
X99181700Y-87845450D01*
X99181700Y-87160100D01*
X98257450Y-87160100D01*
X98098700Y-87318850D01*
X95706000Y-87318850D01*
X95706000Y-86206790D01*
X98098700Y-86206790D01*
X98098700Y-86747350D01*
X98257450Y-86906100D01*
X99181700Y-86906100D01*
X99181700Y-85856850D01*
X99435700Y-85856850D01*
X99435700Y-86906100D01*
X99455700Y-86906100D01*
X99455700Y-87160100D01*
X99435700Y-87160100D01*
X99435700Y-88209350D01*
X99453700Y-88227350D01*
X99453700Y-88912700D01*
X99473700Y-88912700D01*
X99473700Y-89166700D01*
X99453700Y-89166700D01*
X99453700Y-90215950D01*
X99533533Y-90295783D01*
X99496960Y-90479650D01*
X99496960Y-92197150D01*
X99546243Y-92444915D01*
X99686591Y-92654959D01*
X99804446Y-92733708D01*
X99596069Y-93045568D01*
X99480136Y-93628400D01*
X99596069Y-94211232D01*
X99926216Y-94705334D01*
X100028084Y-94773400D01*
X99926216Y-94841466D01*
X99596069Y-95335568D01*
X99480136Y-95918400D01*
X99596069Y-96501232D01*
X99926216Y-96995334D01*
X100420318Y-97325481D01*
X100856031Y-97412150D01*
X101632769Y-97412150D01*
X102068482Y-97325481D01*
X102562584Y-96995334D01*
X102892731Y-96501232D01*
X103008664Y-95918400D01*
X102892731Y-95335568D01*
X102562584Y-94841466D01*
X102460716Y-94773400D01*
X102562584Y-94705334D01*
X102892731Y-94211232D01*
X103008664Y-93628400D01*
X102892731Y-93045568D01*
X102684354Y-92733708D01*
X102802209Y-92654959D01*
X102942557Y-92444915D01*
X102991840Y-92197150D01*
X102991840Y-90479650D01*
X102942557Y-90231885D01*
X102802209Y-90021841D01*
X102592165Y-89881493D01*
X102509502Y-89865051D01*
X102530827Y-89833136D01*
X102599140Y-89489701D01*
X102599140Y-88589699D01*
X102530827Y-88246264D01*
X102381600Y-88022931D01*
X102512827Y-87826536D01*
X102581140Y-87483101D01*
X102581140Y-87376000D01*
X103723479Y-87376000D01*
X103941183Y-87701817D01*
X104260828Y-87915397D01*
X104249584Y-87971924D01*
X104304155Y-88246264D01*
X104318582Y-88318794D01*
X104515068Y-88612857D01*
X104589294Y-88662453D01*
X105888847Y-89962007D01*
X105938443Y-90036233D01*
X106012669Y-90085829D01*
X106232505Y-90232719D01*
X106579376Y-90301716D01*
X106666932Y-90284300D01*
X121358741Y-90284300D01*
X121237843Y-90465235D01*
X121188560Y-90713000D01*
X121188560Y-92413000D01*
X121237843Y-92660765D01*
X121378191Y-92870809D01*
X121501315Y-92953078D01*
X121287161Y-93273582D01*
X121171908Y-93853000D01*
X121287161Y-94432418D01*
X121615375Y-94923625D01*
X121726685Y-94998000D01*
X121615375Y-95072375D01*
X121287161Y-95563582D01*
X121171908Y-96143000D01*
X121287161Y-96722418D01*
X121615375Y-97213625D01*
X122106582Y-97541839D01*
X122539744Y-97628000D01*
X123332256Y-97628000D01*
X123765418Y-97541839D01*
X124256625Y-97213625D01*
X124584839Y-96722418D01*
X124700092Y-96143000D01*
X124610322Y-95691691D01*
X133539000Y-95691691D01*
X133539000Y-96107250D01*
X133697750Y-96266000D01*
X134747000Y-96266000D01*
X134747000Y-95341750D01*
X135001000Y-95341750D01*
X135001000Y-96266000D01*
X136050250Y-96266000D01*
X136068250Y-96248000D01*
X137033000Y-96248000D01*
X137033000Y-95323750D01*
X137287000Y-95323750D01*
X137287000Y-96248000D01*
X138336250Y-96248000D01*
X138495000Y-96089250D01*
X138495000Y-95673691D01*
X138398327Y-95440302D01*
X138219699Y-95261673D01*
X137986310Y-95165000D01*
X137445750Y-95165000D01*
X137287000Y-95323750D01*
X137033000Y-95323750D01*
X136874250Y-95165000D01*
X136333690Y-95165000D01*
X136100301Y-95261673D01*
X136008000Y-95353974D01*
X135933699Y-95279673D01*
X135700310Y-95183000D01*
X135159750Y-95183000D01*
X135001000Y-95341750D01*
X134747000Y-95341750D01*
X134588250Y-95183000D01*
X134047690Y-95183000D01*
X133814301Y-95279673D01*
X133635673Y-95458302D01*
X133539000Y-95691691D01*
X124610322Y-95691691D01*
X124584839Y-95563582D01*
X124256625Y-95072375D01*
X124145315Y-94998000D01*
X124256625Y-94923625D01*
X124584839Y-94432418D01*
X124700092Y-93853000D01*
X124584839Y-93273582D01*
X124370685Y-92953078D01*
X124493809Y-92870809D01*
X124613814Y-92691209D01*
X124845664Y-92846127D01*
X125189099Y-92914440D01*
X125839101Y-92914440D01*
X126182536Y-92846127D01*
X126473686Y-92651586D01*
X126474477Y-92650403D01*
X126629402Y-92805327D01*
X126862791Y-92902000D01*
X127278350Y-92902000D01*
X127437100Y-92743250D01*
X127437100Y-91694000D01*
X127691100Y-91694000D01*
X127691100Y-92743250D01*
X127849850Y-92902000D01*
X128265409Y-92902000D01*
X128498798Y-92805327D01*
X128677427Y-92626699D01*
X128774100Y-92393310D01*
X128774100Y-91852750D01*
X128615350Y-91694000D01*
X127691100Y-91694000D01*
X127437100Y-91694000D01*
X127417100Y-91694000D01*
X127417100Y-91440000D01*
X127437100Y-91440000D01*
X127437100Y-90390750D01*
X127691100Y-90390750D01*
X127691100Y-91440000D01*
X128615350Y-91440000D01*
X128774100Y-91281250D01*
X128774100Y-90833234D01*
X157996000Y-90833234D01*
X157996000Y-91284766D01*
X158168793Y-91701926D01*
X158488074Y-92021207D01*
X158905234Y-92194000D01*
X159356766Y-92194000D01*
X159773926Y-92021207D01*
X160093207Y-91701926D01*
X160266000Y-91284766D01*
X160266000Y-90998801D01*
X161749073Y-89515729D01*
X161812529Y-89473329D01*
X161980504Y-89221937D01*
X162024600Y-89000252D01*
X162024600Y-89000248D01*
X162039488Y-88925401D01*
X162024600Y-88850554D01*
X162024600Y-87985600D01*
X172753871Y-87985600D01*
X172900169Y-88721090D01*
X173316791Y-89344609D01*
X173940310Y-89761231D01*
X174490145Y-89870600D01*
X174861455Y-89870600D01*
X175411290Y-89761231D01*
X176034809Y-89344609D01*
X176451431Y-88721090D01*
X176597729Y-87985600D01*
X176451431Y-87250110D01*
X176107647Y-86735600D01*
X182938360Y-86735600D01*
X182938360Y-89235600D01*
X182987643Y-89483365D01*
X183127991Y-89693409D01*
X183338035Y-89833757D01*
X183585800Y-89883040D01*
X186085800Y-89883040D01*
X186333565Y-89833757D01*
X186543609Y-89693409D01*
X186683957Y-89483365D01*
X186733240Y-89235600D01*
X186733240Y-86735600D01*
X186683957Y-86487835D01*
X186543609Y-86277791D01*
X186333565Y-86137443D01*
X186085800Y-86088160D01*
X183585800Y-86088160D01*
X183338035Y-86137443D01*
X183127991Y-86277791D01*
X182987643Y-86487835D01*
X182938360Y-86735600D01*
X176107647Y-86735600D01*
X176034809Y-86626591D01*
X175411290Y-86209969D01*
X174861455Y-86100600D01*
X174490145Y-86100600D01*
X173940310Y-86209969D01*
X173316791Y-86626591D01*
X172900169Y-87250110D01*
X172753871Y-87985600D01*
X162024600Y-87985600D01*
X162024600Y-87509933D01*
X162226807Y-87307726D01*
X162399600Y-86890566D01*
X162399600Y-86439034D01*
X162226807Y-86021874D01*
X161907526Y-85702593D01*
X161490366Y-85529800D01*
X161038834Y-85529800D01*
X160621674Y-85702593D01*
X160302393Y-86021874D01*
X160129600Y-86439034D01*
X160129600Y-86890566D01*
X160302393Y-87307726D01*
X160504600Y-87509933D01*
X160504601Y-88610597D01*
X159191199Y-89924000D01*
X158905234Y-89924000D01*
X158488074Y-90096793D01*
X158168793Y-90416074D01*
X157996000Y-90833234D01*
X128774100Y-90833234D01*
X128774100Y-90740690D01*
X128677427Y-90507301D01*
X128498798Y-90328673D01*
X128265409Y-90232000D01*
X127849850Y-90232000D01*
X127691100Y-90390750D01*
X127437100Y-90390750D01*
X127278350Y-90232000D01*
X126862791Y-90232000D01*
X126629402Y-90328673D01*
X126474477Y-90483597D01*
X126473686Y-90482414D01*
X126221319Y-90313787D01*
X126259500Y-90221610D01*
X126259500Y-89681050D01*
X126100750Y-89522300D01*
X125176500Y-89522300D01*
X125176500Y-89542300D01*
X124922500Y-89542300D01*
X124922500Y-89522300D01*
X124902500Y-89522300D01*
X124902500Y-89268300D01*
X124922500Y-89268300D01*
X124922500Y-88219050D01*
X124763750Y-88060300D01*
X124348191Y-88060300D01*
X124114802Y-88156973D01*
X123959877Y-88311897D01*
X123959086Y-88310714D01*
X123667936Y-88116173D01*
X123324501Y-88047860D01*
X122674499Y-88047860D01*
X122331064Y-88116173D01*
X122039914Y-88310714D01*
X121909227Y-88506300D01*
X106947612Y-88506300D01*
X106234328Y-87793016D01*
X106370817Y-87701817D01*
X106453640Y-87577863D01*
X106709804Y-87853263D01*
X107307720Y-88126663D01*
X107569000Y-88008466D01*
X107569000Y-86614000D01*
X107549000Y-86614000D01*
X107549000Y-86360000D01*
X107569000Y-86360000D01*
X107569000Y-84965534D01*
X107823000Y-84965534D01*
X107823000Y-86360000D01*
X107843000Y-86360000D01*
X107843000Y-86614000D01*
X107823000Y-86614000D01*
X107823000Y-88008466D01*
X108084280Y-88126663D01*
X108644982Y-87870279D01*
X108728191Y-87994809D01*
X108938235Y-88135157D01*
X109186000Y-88184440D01*
X111286000Y-88184440D01*
X111533765Y-88135157D01*
X111743809Y-87994809D01*
X111884157Y-87784765D01*
X111933440Y-87537000D01*
X111933440Y-87131000D01*
X112914250Y-87131000D01*
X112961414Y-87201586D01*
X113252564Y-87396127D01*
X113595999Y-87464440D01*
X114496001Y-87464440D01*
X114839436Y-87396127D01*
X115130586Y-87201586D01*
X115175352Y-87134589D01*
X115480991Y-87592009D01*
X116104510Y-88008631D01*
X116654345Y-88118000D01*
X117025655Y-88118000D01*
X117575490Y-88008631D01*
X118199009Y-87592009D01*
X118615631Y-86968490D01*
X118761929Y-86233000D01*
X118615631Y-85497510D01*
X118271847Y-84983000D01*
X125102560Y-84983000D01*
X125102560Y-87483000D01*
X125151843Y-87730765D01*
X125292191Y-87940809D01*
X125471021Y-88060300D01*
X125335250Y-88060300D01*
X125176500Y-88219050D01*
X125176500Y-89268300D01*
X126100750Y-89268300D01*
X126259500Y-89109550D01*
X126259500Y-88568990D01*
X126162827Y-88335601D01*
X125984198Y-88156973D01*
X125920142Y-88130440D01*
X128250000Y-88130440D01*
X128497765Y-88081157D01*
X128707809Y-87940809D01*
X128848157Y-87730765D01*
X128897440Y-87483000D01*
X128897440Y-85283800D01*
X130661160Y-85283800D01*
X130661160Y-87283800D01*
X130710443Y-87531565D01*
X130850791Y-87741609D01*
X131060835Y-87881957D01*
X131308600Y-87931240D01*
X133308600Y-87931240D01*
X133556365Y-87881957D01*
X133766409Y-87741609D01*
X133879681Y-87572087D01*
X133993215Y-87677202D01*
X134468166Y-87873924D01*
X134721600Y-87754577D01*
X134721600Y-86410800D01*
X134975600Y-86410800D01*
X134975600Y-87754577D01*
X135229034Y-87873924D01*
X135703985Y-87677202D01*
X136172105Y-87243794D01*
X136438733Y-86664235D01*
X136319919Y-86410800D01*
X134975600Y-86410800D01*
X134721600Y-86410800D01*
X134701600Y-86410800D01*
X134701600Y-86156800D01*
X134721600Y-86156800D01*
X134721600Y-84813023D01*
X134975600Y-84813023D01*
X134975600Y-86156800D01*
X136319919Y-86156800D01*
X136438733Y-85903365D01*
X136172105Y-85323806D01*
X135703985Y-84890398D01*
X135229034Y-84693676D01*
X134975600Y-84813023D01*
X134721600Y-84813023D01*
X134468166Y-84693676D01*
X133993215Y-84890398D01*
X133879681Y-84995513D01*
X133766409Y-84825991D01*
X133556365Y-84685643D01*
X133308600Y-84636360D01*
X131308600Y-84636360D01*
X131060835Y-84685643D01*
X130850791Y-84825991D01*
X130710443Y-85036035D01*
X130661160Y-85283800D01*
X128897440Y-85283800D01*
X128897440Y-84983000D01*
X128848157Y-84735235D01*
X128707809Y-84525191D01*
X128497765Y-84384843D01*
X128250000Y-84335560D01*
X125750000Y-84335560D01*
X125502235Y-84384843D01*
X125292191Y-84525191D01*
X125151843Y-84735235D01*
X125102560Y-84983000D01*
X118271847Y-84983000D01*
X118199009Y-84873991D01*
X117575490Y-84457369D01*
X117025655Y-84348000D01*
X116654345Y-84348000D01*
X116104510Y-84457369D01*
X115480991Y-84873991D01*
X115169339Y-85340411D01*
X115130586Y-85282414D01*
X115129403Y-85281623D01*
X115284327Y-85126698D01*
X115381000Y-84893309D01*
X115381000Y-84477750D01*
X115222250Y-84319000D01*
X114173000Y-84319000D01*
X114173000Y-84339000D01*
X113919000Y-84339000D01*
X113919000Y-84319000D01*
X112869750Y-84319000D01*
X112711000Y-84477750D01*
X112711000Y-84893309D01*
X112807673Y-85126698D01*
X112962597Y-85281623D01*
X112961414Y-85282414D01*
X112914250Y-85353000D01*
X111916732Y-85353000D01*
X111884157Y-85189235D01*
X111743809Y-84979191D01*
X111533765Y-84838843D01*
X111286000Y-84789560D01*
X109186000Y-84789560D01*
X108938235Y-84838843D01*
X108728191Y-84979191D01*
X108644982Y-85103721D01*
X108084280Y-84847337D01*
X107823000Y-84965534D01*
X107569000Y-84965534D01*
X107307720Y-84847337D01*
X106709804Y-85120737D01*
X106453640Y-85396137D01*
X106370817Y-85272183D01*
X105813454Y-84899765D01*
X105321957Y-84802000D01*
X104990043Y-84802000D01*
X104498546Y-84899765D01*
X103941183Y-85272183D01*
X103723479Y-85598000D01*
X101817244Y-85598000D01*
X101557930Y-85649581D01*
X101503934Y-85685660D01*
X101033699Y-85685660D01*
X100690264Y-85753973D01*
X100399114Y-85948514D01*
X100398323Y-85949697D01*
X100243398Y-85794773D01*
X100010009Y-85698100D01*
X99594450Y-85698100D01*
X99435700Y-85856850D01*
X99181700Y-85856850D01*
X99022950Y-85698100D01*
X98607391Y-85698100D01*
X98374002Y-85794773D01*
X98195373Y-85973401D01*
X98098700Y-86206790D01*
X95706000Y-86206790D01*
X95706000Y-83490691D01*
X112711000Y-83490691D01*
X112711000Y-83906250D01*
X112869750Y-84065000D01*
X113919000Y-84065000D01*
X113919000Y-83140750D01*
X114173000Y-83140750D01*
X114173000Y-84065000D01*
X115222250Y-84065000D01*
X115381000Y-83906250D01*
X115381000Y-83490691D01*
X115284327Y-83257302D01*
X115105699Y-83078673D01*
X114872310Y-82982000D01*
X114331750Y-82982000D01*
X114173000Y-83140750D01*
X113919000Y-83140750D01*
X113760250Y-82982000D01*
X113219690Y-82982000D01*
X112986301Y-83078673D01*
X112807673Y-83257302D01*
X112711000Y-83490691D01*
X95706000Y-83490691D01*
X95706000Y-81438750D01*
X139520200Y-81438750D01*
X139520200Y-83819309D01*
X139616873Y-84052698D01*
X139795501Y-84231327D01*
X140028890Y-84328000D01*
X140273071Y-84328000D01*
X140232051Y-84451564D01*
X140264182Y-84895968D01*
X140372432Y-85157308D01*
X140586000Y-85192595D01*
X140698885Y-85079710D01*
X140775501Y-85156327D01*
X140921149Y-85216656D01*
X140765605Y-85372200D01*
X140800892Y-85585768D01*
X141223764Y-85726149D01*
X141668168Y-85694018D01*
X141929508Y-85585768D01*
X141964795Y-85372200D01*
X141809251Y-85216656D01*
X141954899Y-85156327D01*
X142031515Y-85079710D01*
X142144400Y-85192595D01*
X142357968Y-85157308D01*
X142498349Y-84734436D01*
X142468963Y-84328000D01*
X142701510Y-84328000D01*
X142934899Y-84231327D01*
X143113527Y-84052698D01*
X143210200Y-83819309D01*
X143210200Y-81438750D01*
X148280200Y-81438750D01*
X148280200Y-83819309D01*
X148376873Y-84052698D01*
X148555501Y-84231327D01*
X148788890Y-84328000D01*
X149033071Y-84328000D01*
X148992051Y-84451564D01*
X149024182Y-84895968D01*
X149132432Y-85157308D01*
X149346000Y-85192595D01*
X149458885Y-85079710D01*
X149535501Y-85156327D01*
X149681149Y-85216656D01*
X149525605Y-85372200D01*
X149560892Y-85585768D01*
X149983764Y-85726149D01*
X150428168Y-85694018D01*
X150689508Y-85585768D01*
X150724795Y-85372200D01*
X150569251Y-85216656D01*
X150714899Y-85156327D01*
X150791515Y-85079710D01*
X150904400Y-85192595D01*
X151117968Y-85157308D01*
X151258349Y-84734436D01*
X151228963Y-84328000D01*
X151461510Y-84328000D01*
X151694899Y-84231327D01*
X151873527Y-84052698D01*
X151970200Y-83819309D01*
X151970200Y-81438750D01*
X151875800Y-81344350D01*
X155039600Y-81344350D01*
X155039600Y-83724909D01*
X155136273Y-83958298D01*
X155314901Y-84136927D01*
X155548290Y-84233600D01*
X155792471Y-84233600D01*
X155751451Y-84357164D01*
X155783582Y-84801568D01*
X155891832Y-85062908D01*
X156105400Y-85098195D01*
X156218285Y-84985310D01*
X156294901Y-85061927D01*
X156440549Y-85122256D01*
X156285005Y-85277800D01*
X156320292Y-85491368D01*
X156743164Y-85631749D01*
X157187568Y-85599618D01*
X157448908Y-85491368D01*
X157484195Y-85277800D01*
X157328651Y-85122256D01*
X157474299Y-85061927D01*
X157550915Y-84985310D01*
X157663800Y-85098195D01*
X157877368Y-85062908D01*
X158017749Y-84640036D01*
X157988363Y-84233600D01*
X158220910Y-84233600D01*
X158454299Y-84136927D01*
X158632927Y-83958298D01*
X158729600Y-83724909D01*
X158729600Y-81344350D01*
X163799600Y-81344350D01*
X163799600Y-83724909D01*
X163896273Y-83958298D01*
X164074901Y-84136927D01*
X164308290Y-84233600D01*
X164552471Y-84233600D01*
X164511451Y-84357164D01*
X164543582Y-84801568D01*
X164651832Y-85062908D01*
X164865400Y-85098195D01*
X164978285Y-84985310D01*
X165054901Y-85061927D01*
X165200549Y-85122256D01*
X165045005Y-85277800D01*
X165080292Y-85491368D01*
X165503164Y-85631749D01*
X165947568Y-85599618D01*
X166208908Y-85491368D01*
X166244195Y-85277800D01*
X166088651Y-85122256D01*
X166234299Y-85061927D01*
X166310915Y-84985310D01*
X166423800Y-85098195D01*
X166637368Y-85062908D01*
X166777749Y-84640036D01*
X166748363Y-84233600D01*
X166980910Y-84233600D01*
X167214299Y-84136927D01*
X167392927Y-83958298D01*
X167489600Y-83724909D01*
X167489600Y-81344350D01*
X167330850Y-81185600D01*
X165771600Y-81185600D01*
X165771600Y-81205600D01*
X165517600Y-81205600D01*
X165517600Y-81185600D01*
X163958350Y-81185600D01*
X163799600Y-81344350D01*
X158729600Y-81344350D01*
X158570850Y-81185600D01*
X157011600Y-81185600D01*
X157011600Y-81205600D01*
X156757600Y-81205600D01*
X156757600Y-81185600D01*
X155198350Y-81185600D01*
X155039600Y-81344350D01*
X151875800Y-81344350D01*
X151811450Y-81280000D01*
X150252200Y-81280000D01*
X150252200Y-81300000D01*
X149998200Y-81300000D01*
X149998200Y-81280000D01*
X148438950Y-81280000D01*
X148280200Y-81438750D01*
X143210200Y-81438750D01*
X143051450Y-81280000D01*
X141492200Y-81280000D01*
X141492200Y-81300000D01*
X141238200Y-81300000D01*
X141238200Y-81280000D01*
X139678950Y-81280000D01*
X139520200Y-81438750D01*
X95706000Y-81438750D01*
X95706000Y-78942000D01*
X139520200Y-78942000D01*
X139520200Y-80867250D01*
X139520200Y-80867250D01*
G37*
X139520200Y-80867250D02*
X139678950Y-81026000D01*
X141238200Y-81026000D01*
X141238200Y-81006000D01*
X141492200Y-81006000D01*
X141492200Y-81026000D01*
X143051450Y-81026000D01*
X143210200Y-80867250D01*
X143210200Y-78942000D01*
X148280200Y-78942000D01*
X148280200Y-80867250D01*
X148438950Y-81026000D01*
X149998200Y-81026000D01*
X149998200Y-81006000D01*
X150252200Y-81006000D01*
X150252200Y-81026000D01*
X151811450Y-81026000D01*
X151970200Y-80867250D01*
X151970200Y-78942000D01*
X155039600Y-78942000D01*
X155039600Y-80772850D01*
X155198350Y-80931600D01*
X156757600Y-80931600D01*
X156757600Y-80911600D01*
X157011600Y-80911600D01*
X157011600Y-80931600D01*
X158570850Y-80931600D01*
X158729600Y-80772850D01*
X158729600Y-78942000D01*
X163799600Y-78942000D01*
X163799600Y-80772850D01*
X163958350Y-80931600D01*
X165517600Y-80931600D01*
X165517600Y-80911600D01*
X165771600Y-80911600D01*
X165771600Y-80931600D01*
X167330850Y-80931600D01*
X167489600Y-80772850D01*
X167489600Y-78942000D01*
X186742001Y-78942000D01*
X186742000Y-121210000D01*
X182501000Y-121210000D01*
X182501000Y-119614950D01*
X182342250Y-119456200D01*
X180783000Y-119456200D01*
X180783000Y-119476200D01*
X180529000Y-119476200D01*
X180529000Y-119456200D01*
X178969750Y-119456200D01*
X178811000Y-119614950D01*
X178811000Y-121210000D01*
X173741000Y-121210000D01*
X173741000Y-119614950D01*
X173582250Y-119456200D01*
X172023000Y-119456200D01*
X172023000Y-119476200D01*
X171769000Y-119476200D01*
X171769000Y-119456200D01*
X170209750Y-119456200D01*
X170051000Y-119614950D01*
X170051000Y-121210000D01*
X164289200Y-121210000D01*
X164289200Y-119665750D01*
X164130450Y-119507000D01*
X162571200Y-119507000D01*
X162571200Y-119527000D01*
X162317200Y-119527000D01*
X162317200Y-119507000D01*
X160757950Y-119507000D01*
X160599200Y-119665750D01*
X160599200Y-121210000D01*
X155529200Y-121210000D01*
X155529200Y-119665750D01*
X155370450Y-119507000D01*
X153811200Y-119507000D01*
X153811200Y-119527000D01*
X153557200Y-119527000D01*
X153557200Y-119507000D01*
X151997950Y-119507000D01*
X151839200Y-119665750D01*
X151839200Y-121210000D01*
X145163000Y-121210000D01*
X145163000Y-119665750D01*
X145004250Y-119507000D01*
X143445000Y-119507000D01*
X143445000Y-119527000D01*
X143191000Y-119527000D01*
X143191000Y-119507000D01*
X141631750Y-119507000D01*
X141473000Y-119665750D01*
X141473000Y-121210000D01*
X136403000Y-121210000D01*
X136403000Y-119665750D01*
X136244250Y-119507000D01*
X134685000Y-119507000D01*
X134685000Y-119527000D01*
X134431000Y-119527000D01*
X134431000Y-119507000D01*
X132871750Y-119507000D01*
X132713000Y-119665750D01*
X132713000Y-121210000D01*
X128703800Y-121210000D01*
X128703800Y-119411750D01*
X128545050Y-119253000D01*
X126985800Y-119253000D01*
X126985800Y-119273000D01*
X126731800Y-119273000D01*
X126731800Y-119253000D01*
X125172550Y-119253000D01*
X125013800Y-119411750D01*
X125013800Y-121210000D01*
X119943800Y-121210000D01*
X119943800Y-119411750D01*
X119785050Y-119253000D01*
X118225800Y-119253000D01*
X118225800Y-119273000D01*
X117971800Y-119273000D01*
X117971800Y-119253000D01*
X116412550Y-119253000D01*
X116253800Y-119411750D01*
X116253800Y-121210000D01*
X112320800Y-121210000D01*
X112320800Y-119284750D01*
X112162050Y-119126000D01*
X110602800Y-119126000D01*
X110602800Y-119146000D01*
X110348800Y-119146000D01*
X110348800Y-119126000D01*
X108789550Y-119126000D01*
X108630800Y-119284750D01*
X108630800Y-121210000D01*
X103560800Y-121210000D01*
X103560800Y-119284750D01*
X103402050Y-119126000D01*
X101842800Y-119126000D01*
X101842800Y-119146000D01*
X101588800Y-119146000D01*
X101588800Y-119126000D01*
X100029550Y-119126000D01*
X99870800Y-119284750D01*
X99870800Y-121210000D01*
X95706000Y-121210000D01*
X95706000Y-116332691D01*
X99870800Y-116332691D01*
X99870800Y-118713250D01*
X100029550Y-118872000D01*
X101588800Y-118872000D01*
X101588800Y-118852000D01*
X101842800Y-118852000D01*
X101842800Y-118872000D01*
X103402050Y-118872000D01*
X103560800Y-118713250D01*
X103560800Y-116332691D01*
X108630800Y-116332691D01*
X108630800Y-118713250D01*
X108789550Y-118872000D01*
X110348800Y-118872000D01*
X110348800Y-118852000D01*
X110602800Y-118852000D01*
X110602800Y-118872000D01*
X112162050Y-118872000D01*
X112320800Y-118713250D01*
X112320800Y-116459691D01*
X116253800Y-116459691D01*
X116253800Y-118840250D01*
X116412550Y-118999000D01*
X117971800Y-118999000D01*
X117971800Y-118979000D01*
X118225800Y-118979000D01*
X118225800Y-118999000D01*
X119785050Y-118999000D01*
X119943800Y-118840250D01*
X119943800Y-116459691D01*
X125013800Y-116459691D01*
X125013800Y-118840250D01*
X125172550Y-118999000D01*
X126731800Y-118999000D01*
X126731800Y-118979000D01*
X126985800Y-118979000D01*
X126985800Y-118999000D01*
X128545050Y-118999000D01*
X128703800Y-118840250D01*
X128703800Y-116713691D01*
X132713000Y-116713691D01*
X132713000Y-119094250D01*
X132871750Y-119253000D01*
X134431000Y-119253000D01*
X134431000Y-119233000D01*
X134685000Y-119233000D01*
X134685000Y-119253000D01*
X136244250Y-119253000D01*
X136403000Y-119094250D01*
X136403000Y-116713691D01*
X141473000Y-116713691D01*
X141473000Y-119094250D01*
X141631750Y-119253000D01*
X143191000Y-119253000D01*
X143191000Y-119233000D01*
X143445000Y-119233000D01*
X143445000Y-119253000D01*
X145004250Y-119253000D01*
X145163000Y-119094250D01*
X145163000Y-116713691D01*
X151839200Y-116713691D01*
X151839200Y-119094250D01*
X151997950Y-119253000D01*
X153557200Y-119253000D01*
X153557200Y-119233000D01*
X153811200Y-119233000D01*
X153811200Y-119253000D01*
X155370450Y-119253000D01*
X155529200Y-119094250D01*
X155529200Y-116713691D01*
X160599200Y-116713691D01*
X160599200Y-119094250D01*
X160757950Y-119253000D01*
X162317200Y-119253000D01*
X162317200Y-119233000D01*
X162571200Y-119233000D01*
X162571200Y-119253000D01*
X164130450Y-119253000D01*
X164289200Y-119094250D01*
X164289200Y-116713691D01*
X164268158Y-116662891D01*
X170051000Y-116662891D01*
X170051000Y-119043450D01*
X170209750Y-119202200D01*
X171769000Y-119202200D01*
X171769000Y-119182200D01*
X172023000Y-119182200D01*
X172023000Y-119202200D01*
X173582250Y-119202200D01*
X173741000Y-119043450D01*
X173741000Y-116662891D01*
X178811000Y-116662891D01*
X178811000Y-119043450D01*
X178969750Y-119202200D01*
X180529000Y-119202200D01*
X180529000Y-119182200D01*
X180783000Y-119182200D01*
X180783000Y-119202200D01*
X182342250Y-119202200D01*
X182501000Y-119043450D01*
X182501000Y-116662891D01*
X182404327Y-116429502D01*
X182225699Y-116250873D01*
X181992310Y-116154200D01*
X181748129Y-116154200D01*
X181789149Y-116030636D01*
X181757018Y-115586232D01*
X181648768Y-115324892D01*
X181435200Y-115289605D01*
X181322315Y-115402490D01*
X181245699Y-115325873D01*
X181100051Y-115265544D01*
X181255595Y-115110000D01*
X181220308Y-114896432D01*
X180797436Y-114756051D01*
X180353032Y-114788182D01*
X180091692Y-114896432D01*
X180056405Y-115110000D01*
X180211949Y-115265544D01*
X180066301Y-115325873D01*
X179989685Y-115402490D01*
X179876800Y-115289605D01*
X179663232Y-115324892D01*
X179522851Y-115747764D01*
X179552237Y-116154200D01*
X179319690Y-116154200D01*
X179086301Y-116250873D01*
X178907673Y-116429502D01*
X178811000Y-116662891D01*
X173741000Y-116662891D01*
X173644327Y-116429502D01*
X173465699Y-116250873D01*
X173232310Y-116154200D01*
X172988129Y-116154200D01*
X173029149Y-116030636D01*
X172997018Y-115586232D01*
X172888768Y-115324892D01*
X172675200Y-115289605D01*
X172562315Y-115402490D01*
X172485699Y-115325873D01*
X172340051Y-115265544D01*
X172495595Y-115110000D01*
X172460308Y-114896432D01*
X172037436Y-114756051D01*
X171593032Y-114788182D01*
X171331692Y-114896432D01*
X171296405Y-115110000D01*
X171451949Y-115265544D01*
X171306301Y-115325873D01*
X171229685Y-115402490D01*
X171116800Y-115289605D01*
X170903232Y-115324892D01*
X170762851Y-115747764D01*
X170792237Y-116154200D01*
X170559690Y-116154200D01*
X170326301Y-116250873D01*
X170147673Y-116429502D01*
X170051000Y-116662891D01*
X164268158Y-116662891D01*
X164192527Y-116480302D01*
X164013899Y-116301673D01*
X163780510Y-116205000D01*
X163536329Y-116205000D01*
X163577349Y-116081436D01*
X163545218Y-115637032D01*
X163436968Y-115375692D01*
X163223400Y-115340405D01*
X163110515Y-115453290D01*
X163033899Y-115376673D01*
X162888251Y-115316344D01*
X163043795Y-115160800D01*
X163008508Y-114947232D01*
X162585636Y-114806851D01*
X162141232Y-114838982D01*
X161879892Y-114947232D01*
X161844605Y-115160800D01*
X162000149Y-115316344D01*
X161854501Y-115376673D01*
X161777885Y-115453290D01*
X161665000Y-115340405D01*
X161451432Y-115375692D01*
X161311051Y-115798564D01*
X161340437Y-116205000D01*
X161107890Y-116205000D01*
X160874501Y-116301673D01*
X160695873Y-116480302D01*
X160599200Y-116713691D01*
X155529200Y-116713691D01*
X155432527Y-116480302D01*
X155253899Y-116301673D01*
X155020510Y-116205000D01*
X154776329Y-116205000D01*
X154817349Y-116081436D01*
X154785218Y-115637032D01*
X154676968Y-115375692D01*
X154463400Y-115340405D01*
X154350515Y-115453290D01*
X154273899Y-115376673D01*
X154128251Y-115316344D01*
X154283795Y-115160800D01*
X154248508Y-114947232D01*
X153825636Y-114806851D01*
X153381232Y-114838982D01*
X153119892Y-114947232D01*
X153084605Y-115160800D01*
X153240149Y-115316344D01*
X153094501Y-115376673D01*
X153017885Y-115453290D01*
X152905000Y-115340405D01*
X152691432Y-115375692D01*
X152551051Y-115798564D01*
X152580437Y-116205000D01*
X152347890Y-116205000D01*
X152114501Y-116301673D01*
X151935873Y-116480302D01*
X151839200Y-116713691D01*
X145163000Y-116713691D01*
X145066327Y-116480302D01*
X144887699Y-116301673D01*
X144654310Y-116205000D01*
X144410129Y-116205000D01*
X144451149Y-116081436D01*
X144419018Y-115637032D01*
X144310768Y-115375692D01*
X144097200Y-115340405D01*
X143984315Y-115453290D01*
X143907699Y-115376673D01*
X143762051Y-115316344D01*
X143917595Y-115160800D01*
X143882308Y-114947232D01*
X143459436Y-114806851D01*
X143015032Y-114838982D01*
X142753692Y-114947232D01*
X142718405Y-115160800D01*
X142873949Y-115316344D01*
X142728301Y-115376673D01*
X142651685Y-115453290D01*
X142538800Y-115340405D01*
X142325232Y-115375692D01*
X142184851Y-115798564D01*
X142214237Y-116205000D01*
X141981690Y-116205000D01*
X141748301Y-116301673D01*
X141569673Y-116480302D01*
X141473000Y-116713691D01*
X136403000Y-116713691D01*
X136306327Y-116480302D01*
X136127699Y-116301673D01*
X135894310Y-116205000D01*
X135650129Y-116205000D01*
X135691149Y-116081436D01*
X135659018Y-115637032D01*
X135550768Y-115375692D01*
X135337200Y-115340405D01*
X135224315Y-115453290D01*
X135147699Y-115376673D01*
X135002051Y-115316344D01*
X135157595Y-115160800D01*
X135122308Y-114947232D01*
X134699436Y-114806851D01*
X134255032Y-114838982D01*
X133993692Y-114947232D01*
X133958405Y-115160800D01*
X134113949Y-115316344D01*
X133968301Y-115376673D01*
X133891685Y-115453290D01*
X133778800Y-115340405D01*
X133565232Y-115375692D01*
X133424851Y-115798564D01*
X133454237Y-116205000D01*
X133221690Y-116205000D01*
X132988301Y-116301673D01*
X132809673Y-116480302D01*
X132713000Y-116713691D01*
X128703800Y-116713691D01*
X128703800Y-116459691D01*
X128607127Y-116226302D01*
X128428499Y-116047673D01*
X128195110Y-115951000D01*
X127950929Y-115951000D01*
X127991949Y-115827436D01*
X127959818Y-115383032D01*
X127851568Y-115121692D01*
X127638000Y-115086405D01*
X127525115Y-115199290D01*
X127448499Y-115122673D01*
X127302851Y-115062344D01*
X127458395Y-114906800D01*
X127423108Y-114693232D01*
X127000236Y-114552851D01*
X126555832Y-114584982D01*
X126294492Y-114693232D01*
X126259205Y-114906800D01*
X126414749Y-115062344D01*
X126269101Y-115122673D01*
X126192485Y-115199290D01*
X126079600Y-115086405D01*
X125866032Y-115121692D01*
X125725651Y-115544564D01*
X125755037Y-115951000D01*
X125522490Y-115951000D01*
X125289101Y-116047673D01*
X125110473Y-116226302D01*
X125013800Y-116459691D01*
X119943800Y-116459691D01*
X119847127Y-116226302D01*
X119668499Y-116047673D01*
X119435110Y-115951000D01*
X119190929Y-115951000D01*
X119231949Y-115827436D01*
X119199818Y-115383032D01*
X119091568Y-115121692D01*
X118878000Y-115086405D01*
X118765115Y-115199290D01*
X118688499Y-115122673D01*
X118542851Y-115062344D01*
X118698395Y-114906800D01*
X118663108Y-114693232D01*
X118240236Y-114552851D01*
X117795832Y-114584982D01*
X117534492Y-114693232D01*
X117499205Y-114906800D01*
X117654749Y-115062344D01*
X117509101Y-115122673D01*
X117432485Y-115199290D01*
X117319600Y-115086405D01*
X117106032Y-115121692D01*
X116965651Y-115544564D01*
X116995037Y-115951000D01*
X116762490Y-115951000D01*
X116529101Y-116047673D01*
X116350473Y-116226302D01*
X116253800Y-116459691D01*
X112320800Y-116459691D01*
X112320800Y-116332691D01*
X112224127Y-116099302D01*
X112045499Y-115920673D01*
X111812110Y-115824000D01*
X111567929Y-115824000D01*
X111608949Y-115700436D01*
X111576818Y-115256032D01*
X111468568Y-114994692D01*
X111255000Y-114959405D01*
X111142115Y-115072290D01*
X111065499Y-114995673D01*
X110919851Y-114935344D01*
X111075395Y-114779800D01*
X111040108Y-114566232D01*
X110617236Y-114425851D01*
X110172832Y-114457982D01*
X109911492Y-114566232D01*
X109876205Y-114779800D01*
X110031749Y-114935344D01*
X109886101Y-114995673D01*
X109809485Y-115072290D01*
X109696600Y-114959405D01*
X109483032Y-114994692D01*
X109342651Y-115417564D01*
X109372037Y-115824000D01*
X109139490Y-115824000D01*
X108906101Y-115920673D01*
X108727473Y-116099302D01*
X108630800Y-116332691D01*
X103560800Y-116332691D01*
X103464127Y-116099302D01*
X103285499Y-115920673D01*
X103052110Y-115824000D01*
X102807929Y-115824000D01*
X102848949Y-115700436D01*
X102816818Y-115256032D01*
X102708568Y-114994692D01*
X102495000Y-114959405D01*
X102382115Y-115072290D01*
X102305499Y-114995673D01*
X102159851Y-114935344D01*
X102315395Y-114779800D01*
X102280108Y-114566232D01*
X101857236Y-114425851D01*
X101412832Y-114457982D01*
X101151492Y-114566232D01*
X101116205Y-114779800D01*
X101271749Y-114935344D01*
X101126101Y-114995673D01*
X101049485Y-115072290D01*
X100936600Y-114959405D01*
X100723032Y-114994692D01*
X100582651Y-115417564D01*
X100612037Y-115824000D01*
X100379490Y-115824000D01*
X100146101Y-115920673D01*
X99967473Y-116099302D01*
X99870800Y-116332691D01*
X95706000Y-116332691D01*
X95706000Y-111385350D01*
X119227800Y-111385350D01*
X119227800Y-111925910D01*
X119324473Y-112159299D01*
X119503102Y-112337927D01*
X119736491Y-112434600D01*
X120152050Y-112434600D01*
X120310800Y-112275850D01*
X120310800Y-111226600D01*
X119386550Y-111226600D01*
X119227800Y-111385350D01*
X95706000Y-111385350D01*
X95706000Y-109607350D01*
X119218800Y-109607350D01*
X119218800Y-110147910D01*
X119249267Y-110221464D01*
X119227800Y-110273290D01*
X119227800Y-110813850D01*
X119386550Y-110972600D01*
X120310800Y-110972600D01*
X120310800Y-109923350D01*
X120301800Y-109914350D01*
X120301800Y-109448600D01*
X119377550Y-109448600D01*
X119218800Y-109607350D01*
X95706000Y-109607350D01*
X95706000Y-107695435D01*
X118297867Y-107695435D01*
X118564495Y-108274994D01*
X119032615Y-108708402D01*
X119218800Y-108785519D01*
X119218800Y-109035850D01*
X119377550Y-109194600D01*
X120301800Y-109194600D01*
X120301800Y-109174600D01*
X120555800Y-109174600D01*
X120555800Y-109194600D01*
X120575800Y-109194600D01*
X120575800Y-109448600D01*
X120555800Y-109448600D01*
X120555800Y-110497850D01*
X120564800Y-110506850D01*
X120564800Y-110972600D01*
X120584800Y-110972600D01*
X120584800Y-111226600D01*
X120564800Y-111226600D01*
X120564800Y-112275850D01*
X120723550Y-112434600D01*
X121139109Y-112434600D01*
X121372498Y-112337927D01*
X121527423Y-112183003D01*
X121528214Y-112184186D01*
X121819364Y-112378727D01*
X122162799Y-112447040D01*
X122812801Y-112447040D01*
X123156236Y-112378727D01*
X123447386Y-112184186D01*
X123641927Y-111893036D01*
X123710240Y-111549601D01*
X123710240Y-110920750D01*
X141667000Y-110920750D01*
X141667000Y-111336309D01*
X141763673Y-111569698D01*
X141942301Y-111748327D01*
X142175690Y-111845000D01*
X142716250Y-111845000D01*
X142875000Y-111686250D01*
X142875000Y-110762000D01*
X143129000Y-110762000D01*
X143129000Y-111686250D01*
X143287750Y-111845000D01*
X143828310Y-111845000D01*
X144061699Y-111748327D01*
X144240327Y-111569698D01*
X144337000Y-111336309D01*
X144337000Y-110920750D01*
X144178250Y-110762000D01*
X143129000Y-110762000D01*
X142875000Y-110762000D01*
X141825750Y-110762000D01*
X141667000Y-110920750D01*
X123710240Y-110920750D01*
X123710240Y-110649599D01*
X123641927Y-110306164D01*
X123573573Y-110203865D01*
X123632927Y-110115036D01*
X123701240Y-109771601D01*
X123701240Y-108896135D01*
X123731299Y-108876050D01*
X136752100Y-108876050D01*
X136752100Y-109291609D01*
X136848773Y-109524998D01*
X137027401Y-109703627D01*
X137260790Y-109800300D01*
X137801350Y-109800300D01*
X137960100Y-109641550D01*
X137960100Y-108717300D01*
X136910850Y-108717300D01*
X136752100Y-108876050D01*
X123731299Y-108876050D01*
X123885809Y-108772809D01*
X124026157Y-108562765D01*
X124075440Y-108315000D01*
X124075440Y-106315000D01*
X124026157Y-106067235D01*
X123885809Y-105857191D01*
X123675765Y-105716843D01*
X123428000Y-105667560D01*
X121428000Y-105667560D01*
X121180235Y-105716843D01*
X120970191Y-105857191D01*
X120856919Y-106026713D01*
X120743385Y-105921598D01*
X120268434Y-105724876D01*
X120015000Y-105844223D01*
X120015000Y-107188000D01*
X120035000Y-107188000D01*
X120035000Y-107442000D01*
X120015000Y-107442000D01*
X120015000Y-107462000D01*
X119761000Y-107462000D01*
X119761000Y-107442000D01*
X118416681Y-107442000D01*
X118297867Y-107695435D01*
X95706000Y-107695435D01*
X95706000Y-106934565D01*
X118297867Y-106934565D01*
X118416681Y-107188000D01*
X119761000Y-107188000D01*
X119761000Y-105844223D01*
X119507566Y-105724876D01*
X119032615Y-105921598D01*
X118564495Y-106355006D01*
X118297867Y-106934565D01*
X95706000Y-106934565D01*
X95706000Y-105283000D01*
X108441969Y-105283000D01*
X108568864Y-105920945D01*
X108930231Y-106461769D01*
X109471055Y-106823136D01*
X109947969Y-106918000D01*
X110270031Y-106918000D01*
X110746945Y-106823136D01*
X111287769Y-106461769D01*
X111649136Y-105920945D01*
X111776031Y-105283000D01*
X111649136Y-104645055D01*
X111418511Y-104299900D01*
X111566809Y-104200809D01*
X111707157Y-103990765D01*
X111756440Y-103743000D01*
X111756440Y-102997000D01*
X129904969Y-102997000D01*
X130031864Y-103634945D01*
X130393231Y-104175769D01*
X130934055Y-104537136D01*
X131410969Y-104632000D01*
X131733031Y-104632000D01*
X132209945Y-104537136D01*
X132750769Y-104175769D01*
X133112136Y-103634945D01*
X133239031Y-102997000D01*
X133112136Y-102359055D01*
X132881511Y-102013900D01*
X133029809Y-101914809D01*
X133170157Y-101704765D01*
X133219440Y-101457000D01*
X133219440Y-101217000D01*
X133662068Y-101217000D01*
X133789414Y-101407586D01*
X133887313Y-101473000D01*
X133789414Y-101538414D01*
X133594873Y-101829564D01*
X133526560Y-102172999D01*
X133526560Y-102823001D01*
X133594873Y-103166436D01*
X133789414Y-103457586D01*
X134080564Y-103652127D01*
X134423999Y-103720440D01*
X135324001Y-103720440D01*
X135667436Y-103652127D01*
X135958586Y-103457586D01*
X136013993Y-103374664D01*
X136075414Y-103466586D01*
X136366564Y-103661127D01*
X136709999Y-103729440D01*
X137610001Y-103729440D01*
X137953436Y-103661127D01*
X138244586Y-103466586D01*
X138303000Y-103379164D01*
X138361414Y-103466586D01*
X138652564Y-103661127D01*
X138995999Y-103729440D01*
X139896001Y-103729440D01*
X140239436Y-103661127D01*
X140530586Y-103466586D01*
X140725127Y-103175436D01*
X140742225Y-103089476D01*
X140793929Y-103054929D01*
X140836331Y-102991470D01*
X141581473Y-102246329D01*
X141644929Y-102203929D01*
X141711406Y-102104440D01*
X141812904Y-101952538D01*
X141822480Y-101904395D01*
X141857000Y-101730852D01*
X141857000Y-101730848D01*
X141871888Y-101656000D01*
X141857000Y-101581152D01*
X141857000Y-98626820D01*
X141932035Y-98676957D01*
X142179800Y-98726240D01*
X142419801Y-98726240D01*
X142419800Y-103774397D01*
X140863638Y-105330560D01*
X140265999Y-105330560D01*
X139922564Y-105398873D01*
X139631414Y-105593414D01*
X139498054Y-105793000D01*
X139313532Y-105793000D01*
X139171686Y-105580714D01*
X138880536Y-105386173D01*
X138537101Y-105317860D01*
X137637099Y-105317860D01*
X137293664Y-105386173D01*
X137002514Y-105580714D01*
X136869154Y-105780300D01*
X136521440Y-105780300D01*
X136521440Y-105553000D01*
X136472157Y-105305235D01*
X136331809Y-105095191D01*
X136121765Y-104954843D01*
X135874000Y-104905560D01*
X133874000Y-104905560D01*
X133626235Y-104954843D01*
X133416191Y-105095191D01*
X133317100Y-105243489D01*
X132971945Y-105012864D01*
X132495031Y-104918000D01*
X132172969Y-104918000D01*
X131696055Y-105012864D01*
X131155231Y-105374231D01*
X130793864Y-105915055D01*
X130666969Y-106553000D01*
X130793864Y-107190945D01*
X131155231Y-107731769D01*
X131696055Y-108093136D01*
X132172969Y-108188000D01*
X132495031Y-108188000D01*
X132971945Y-108093136D01*
X133317100Y-107862511D01*
X133416191Y-108010809D01*
X133626235Y-108151157D01*
X133874000Y-108200440D01*
X135874000Y-108200440D01*
X136121765Y-108151157D01*
X136331809Y-108010809D01*
X136472157Y-107800765D01*
X136521440Y-107553000D01*
X136521440Y-107300300D01*
X136869154Y-107300300D01*
X137002514Y-107499886D01*
X137003697Y-107500677D01*
X136848773Y-107655602D01*
X136752100Y-107888991D01*
X136752100Y-108304550D01*
X136910850Y-108463300D01*
X137960100Y-108463300D01*
X137960100Y-108443300D01*
X138214100Y-108443300D01*
X138214100Y-108463300D01*
X138234100Y-108463300D01*
X138234100Y-108717300D01*
X138214100Y-108717300D01*
X138214100Y-109641550D01*
X138372850Y-109800300D01*
X138913410Y-109800300D01*
X139146799Y-109703627D01*
X139325427Y-109524998D01*
X139422100Y-109291609D01*
X139422100Y-109197167D01*
X139436873Y-109271436D01*
X139631414Y-109562586D01*
X139922564Y-109757127D01*
X140265999Y-109825440D01*
X141166001Y-109825440D01*
X141509436Y-109757127D01*
X141800586Y-109562586D01*
X141865014Y-109466164D01*
X141917414Y-109544586D01*
X141918597Y-109545377D01*
X141763673Y-109700302D01*
X141667000Y-109933691D01*
X141667000Y-110349250D01*
X141825750Y-110508000D01*
X142875000Y-110508000D01*
X142875000Y-110488000D01*
X143129000Y-110488000D01*
X143129000Y-110508000D01*
X144178250Y-110508000D01*
X144337000Y-110349250D01*
X144337000Y-109933691D01*
X144240327Y-109700302D01*
X144085403Y-109545377D01*
X144086586Y-109544586D01*
X144281127Y-109253436D01*
X144349440Y-108910001D01*
X144349440Y-108609835D01*
X156855067Y-108609835D01*
X157121695Y-109189394D01*
X157589815Y-109622802D01*
X158064766Y-109819524D01*
X158318200Y-109700177D01*
X158318200Y-108356400D01*
X156973881Y-108356400D01*
X156855067Y-108609835D01*
X144349440Y-108609835D01*
X144349440Y-108259999D01*
X144281127Y-107916564D01*
X144235959Y-107848965D01*
X156855067Y-107848965D01*
X156973881Y-108102400D01*
X158318200Y-108102400D01*
X158318200Y-106758623D01*
X158572200Y-106758623D01*
X158572200Y-108102400D01*
X158592200Y-108102400D01*
X158592200Y-108356400D01*
X158572200Y-108356400D01*
X158572200Y-109700177D01*
X158825634Y-109819524D01*
X159300585Y-109622802D01*
X159701701Y-109251429D01*
X159806431Y-109408169D01*
X160347255Y-109769536D01*
X160824169Y-109864400D01*
X161146231Y-109864400D01*
X161623145Y-109769536D01*
X162163969Y-109408169D01*
X162255200Y-109271632D01*
X162346431Y-109408169D01*
X162887255Y-109769536D01*
X163364169Y-109864400D01*
X163686231Y-109864400D01*
X164163145Y-109769536D01*
X164508300Y-109538911D01*
X164607391Y-109687209D01*
X164817435Y-109827557D01*
X165065200Y-109876840D01*
X167065200Y-109876840D01*
X167312965Y-109827557D01*
X167523009Y-109687209D01*
X167663357Y-109477165D01*
X167712640Y-109229400D01*
X167712640Y-107229400D01*
X167663357Y-106981635D01*
X167523009Y-106771591D01*
X167312965Y-106631243D01*
X167065200Y-106581960D01*
X165065200Y-106581960D01*
X164817435Y-106631243D01*
X164607391Y-106771591D01*
X164508300Y-106919889D01*
X164163145Y-106689264D01*
X163686231Y-106594400D01*
X163364169Y-106594400D01*
X162887255Y-106689264D01*
X162346431Y-107050631D01*
X162255200Y-107187168D01*
X162163969Y-107050631D01*
X161623145Y-106689264D01*
X161146231Y-106594400D01*
X160824169Y-106594400D01*
X160347255Y-106689264D01*
X159806431Y-107050631D01*
X159701701Y-107207371D01*
X159300585Y-106835998D01*
X158825634Y-106639276D01*
X158572200Y-106758623D01*
X158318200Y-106758623D01*
X158064766Y-106639276D01*
X157589815Y-106835998D01*
X157121695Y-107269406D01*
X156855067Y-107848965D01*
X144235959Y-107848965D01*
X144086586Y-107625414D01*
X143795436Y-107430873D01*
X143452001Y-107362560D01*
X142551999Y-107362560D01*
X142208564Y-107430873D01*
X141917414Y-107625414D01*
X141852986Y-107721836D01*
X141800586Y-107643414D01*
X141702687Y-107578000D01*
X141800586Y-107512586D01*
X141995127Y-107221436D01*
X142063440Y-106878001D01*
X142063440Y-106280362D01*
X143664276Y-104679527D01*
X143727729Y-104637129D01*
X143770127Y-104573676D01*
X143770129Y-104573674D01*
X143853902Y-104448298D01*
X143895704Y-104385737D01*
X143939800Y-104164052D01*
X143939800Y-104164048D01*
X143954688Y-104089201D01*
X143939800Y-104014354D01*
X143939800Y-98726240D01*
X144179800Y-98726240D01*
X144427565Y-98676957D01*
X144637609Y-98536609D01*
X144736700Y-98388311D01*
X145081855Y-98618936D01*
X145558769Y-98713800D01*
X145880831Y-98713800D01*
X146357745Y-98618936D01*
X146898569Y-98257569D01*
X147259936Y-97716745D01*
X147386831Y-97078800D01*
X147786569Y-97078800D01*
X147913464Y-97716745D01*
X148274831Y-98257569D01*
X148815655Y-98618936D01*
X149292569Y-98713800D01*
X149614631Y-98713800D01*
X150091545Y-98618936D01*
X150436700Y-98388311D01*
X150535791Y-98536609D01*
X150745835Y-98676957D01*
X150993600Y-98726240D01*
X152993600Y-98726240D01*
X153241365Y-98676957D01*
X153451409Y-98536609D01*
X153591757Y-98326565D01*
X153641040Y-98078800D01*
X153641040Y-96773434D01*
X183448876Y-96773434D01*
X183645598Y-97248385D01*
X184079006Y-97716505D01*
X184658565Y-97983133D01*
X184912000Y-97864319D01*
X184912000Y-96520000D01*
X185166000Y-96520000D01*
X185166000Y-97864319D01*
X185419435Y-97983133D01*
X185998994Y-97716505D01*
X186432402Y-97248385D01*
X186629124Y-96773434D01*
X186509777Y-96520000D01*
X185166000Y-96520000D01*
X184912000Y-96520000D01*
X183568223Y-96520000D01*
X183448876Y-96773434D01*
X153641040Y-96773434D01*
X153641040Y-96078800D01*
X153591757Y-95831035D01*
X153451409Y-95620991D01*
X153241365Y-95480643D01*
X152993600Y-95431360D01*
X150993600Y-95431360D01*
X150745835Y-95480643D01*
X150535791Y-95620991D01*
X150436700Y-95769289D01*
X150091545Y-95538664D01*
X149614631Y-95443800D01*
X149292569Y-95443800D01*
X148815655Y-95538664D01*
X148274831Y-95900031D01*
X147913464Y-96440855D01*
X147786569Y-97078800D01*
X147386831Y-97078800D01*
X147259936Y-96440855D01*
X146898569Y-95900031D01*
X146357745Y-95538664D01*
X145880831Y-95443800D01*
X145558769Y-95443800D01*
X145081855Y-95538664D01*
X144736700Y-95769289D01*
X144637609Y-95620991D01*
X144427565Y-95480643D01*
X144179800Y-95431360D01*
X142179800Y-95431360D01*
X141932035Y-95480643D01*
X141857000Y-95530780D01*
X141857000Y-94774448D01*
X141957435Y-94841557D01*
X142205200Y-94890840D01*
X144205200Y-94890840D01*
X144452965Y-94841557D01*
X144663009Y-94701209D01*
X144762100Y-94552911D01*
X145107255Y-94783536D01*
X145584169Y-94878400D01*
X145906231Y-94878400D01*
X146383145Y-94783536D01*
X146923969Y-94422169D01*
X147285336Y-93881345D01*
X147412231Y-93243400D01*
X147334576Y-92853000D01*
X183391560Y-92853000D01*
X183391560Y-94853000D01*
X183440843Y-95100765D01*
X183581191Y-95310809D01*
X183750713Y-95424081D01*
X183645598Y-95537615D01*
X183448876Y-96012566D01*
X183568223Y-96266000D01*
X184912000Y-96266000D01*
X184912000Y-96246000D01*
X185166000Y-96246000D01*
X185166000Y-96266000D01*
X186509777Y-96266000D01*
X186629124Y-96012566D01*
X186432402Y-95537615D01*
X186327287Y-95424081D01*
X186496809Y-95310809D01*
X186637157Y-95100765D01*
X186686440Y-94853000D01*
X186686440Y-92853000D01*
X186637157Y-92605235D01*
X186496809Y-92395191D01*
X186286765Y-92254843D01*
X186039000Y-92205560D01*
X184039000Y-92205560D01*
X183791235Y-92254843D01*
X183581191Y-92395191D01*
X183440843Y-92605235D01*
X183391560Y-92853000D01*
X147334576Y-92853000D01*
X147285336Y-92605455D01*
X146923969Y-92064631D01*
X146383145Y-91703264D01*
X145906231Y-91608400D01*
X145584169Y-91608400D01*
X145107255Y-91703264D01*
X144762100Y-91933889D01*
X144663009Y-91785591D01*
X144452965Y-91645243D01*
X144205200Y-91595960D01*
X142205200Y-91595960D01*
X141957435Y-91645243D01*
X141747391Y-91785591D01*
X141607043Y-91995635D01*
X141557760Y-92243400D01*
X141557760Y-92594917D01*
X141407271Y-92695471D01*
X141364871Y-92758927D01*
X140612528Y-93511271D01*
X140549072Y-93553671D01*
X140506672Y-93617127D01*
X140506671Y-93617128D01*
X140381097Y-93805063D01*
X140322112Y-94101600D01*
X140337001Y-94176452D01*
X140337000Y-99273796D01*
X140272310Y-99247000D01*
X139731750Y-99247000D01*
X139573000Y-99405750D01*
X139573000Y-100330000D01*
X139593000Y-100330000D01*
X139593000Y-100584000D01*
X139573000Y-100584000D01*
X139573000Y-100604000D01*
X139319000Y-100604000D01*
X139319000Y-100584000D01*
X139299000Y-100584000D01*
X139299000Y-100330000D01*
X139319000Y-100330000D01*
X139319000Y-99405750D01*
X139160250Y-99247000D01*
X138619690Y-99247000D01*
X138386301Y-99343673D01*
X138237377Y-99492597D01*
X138160157Y-99441000D01*
X138244586Y-99384586D01*
X138439127Y-99093436D01*
X138507440Y-98750001D01*
X138507440Y-98099999D01*
X138439127Y-97756564D01*
X138244586Y-97465414D01*
X138243403Y-97464623D01*
X138398327Y-97309698D01*
X138495000Y-97076309D01*
X138495000Y-96660750D01*
X138336250Y-96502000D01*
X137287000Y-96502000D01*
X137287000Y-96522000D01*
X137033000Y-96522000D01*
X137033000Y-96502000D01*
X135983750Y-96502000D01*
X135965750Y-96520000D01*
X135001000Y-96520000D01*
X135001000Y-96540000D01*
X134747000Y-96540000D01*
X134747000Y-96520000D01*
X133697750Y-96520000D01*
X133539000Y-96678750D01*
X133539000Y-97094309D01*
X133635673Y-97327698D01*
X133790597Y-97482623D01*
X133789414Y-97483414D01*
X133594873Y-97774564D01*
X133526560Y-98117999D01*
X133526560Y-98768001D01*
X133594873Y-99111436D01*
X133789414Y-99402586D01*
X133853639Y-99445500D01*
X133789414Y-99488414D01*
X133650041Y-99697000D01*
X133219440Y-99697000D01*
X133219440Y-99457000D01*
X133170157Y-99209235D01*
X133029809Y-98999191D01*
X132819765Y-98858843D01*
X132572000Y-98809560D01*
X130572000Y-98809560D01*
X130324235Y-98858843D01*
X130114191Y-98999191D01*
X129973843Y-99209235D01*
X129924560Y-99457000D01*
X129924560Y-101457000D01*
X129973843Y-101704765D01*
X130114191Y-101914809D01*
X130262489Y-102013900D01*
X130031864Y-102359055D01*
X129904969Y-102997000D01*
X111756440Y-102997000D01*
X111756440Y-101743000D01*
X111707157Y-101495235D01*
X111566809Y-101285191D01*
X111356765Y-101144843D01*
X111109000Y-101095560D01*
X109109000Y-101095560D01*
X108861235Y-101144843D01*
X108651191Y-101285191D01*
X108510843Y-101495235D01*
X108461560Y-101743000D01*
X108461560Y-103743000D01*
X108510843Y-103990765D01*
X108651191Y-104200809D01*
X108799489Y-104299900D01*
X108568864Y-104645055D01*
X108441969Y-105283000D01*
X95706000Y-105283000D01*
X95706000Y-101743000D01*
X99698560Y-101743000D01*
X99698560Y-103743000D01*
X99747843Y-103990765D01*
X99888191Y-104200809D01*
X100098235Y-104341157D01*
X100346000Y-104390440D01*
X102346000Y-104390440D01*
X102593765Y-104341157D01*
X102803809Y-104200809D01*
X102902900Y-104052511D01*
X103248055Y-104283136D01*
X103724969Y-104378000D01*
X104047031Y-104378000D01*
X104523945Y-104283136D01*
X105064769Y-103921769D01*
X105426136Y-103380945D01*
X105553031Y-102743000D01*
X105426136Y-102105055D01*
X105064769Y-101564231D01*
X104523945Y-101202864D01*
X104047031Y-101108000D01*
X103724969Y-101108000D01*
X103248055Y-101202864D01*
X102902900Y-101433489D01*
X102803809Y-101285191D01*
X102593765Y-101144843D01*
X102346000Y-101095560D01*
X100346000Y-101095560D01*
X100098235Y-101144843D01*
X99888191Y-101285191D01*
X99747843Y-101495235D01*
X99698560Y-101743000D01*
X95706000Y-101743000D01*
X95706000Y-89325450D01*
X98116700Y-89325450D01*
X98116700Y-89866010D01*
X98213373Y-90099399D01*
X98392002Y-90278027D01*
X98625391Y-90374700D01*
X99040950Y-90374700D01*
X99199700Y-90215950D01*
X99199700Y-89166700D01*
X98275450Y-89166700D01*
X98116700Y-89325450D01*
X95706000Y-89325450D01*
X95706000Y-87318850D01*
X98098700Y-87318850D01*
X98098700Y-87859410D01*
X98181012Y-88058128D01*
X98116700Y-88213390D01*
X98116700Y-88753950D01*
X98275450Y-88912700D01*
X99199700Y-88912700D01*
X99199700Y-87863450D01*
X99181700Y-87845450D01*
X99181700Y-87160100D01*
X98257450Y-87160100D01*
X98098700Y-87318850D01*
X95706000Y-87318850D01*
X95706000Y-86206790D01*
X98098700Y-86206790D01*
X98098700Y-86747350D01*
X98257450Y-86906100D01*
X99181700Y-86906100D01*
X99181700Y-85856850D01*
X99435700Y-85856850D01*
X99435700Y-86906100D01*
X99455700Y-86906100D01*
X99455700Y-87160100D01*
X99435700Y-87160100D01*
X99435700Y-88209350D01*
X99453700Y-88227350D01*
X99453700Y-88912700D01*
X99473700Y-88912700D01*
X99473700Y-89166700D01*
X99453700Y-89166700D01*
X99453700Y-90215950D01*
X99533533Y-90295783D01*
X99496960Y-90479650D01*
X99496960Y-92197150D01*
X99546243Y-92444915D01*
X99686591Y-92654959D01*
X99804446Y-92733708D01*
X99596069Y-93045568D01*
X99480136Y-93628400D01*
X99596069Y-94211232D01*
X99926216Y-94705334D01*
X100028084Y-94773400D01*
X99926216Y-94841466D01*
X99596069Y-95335568D01*
X99480136Y-95918400D01*
X99596069Y-96501232D01*
X99926216Y-96995334D01*
X100420318Y-97325481D01*
X100856031Y-97412150D01*
X101632769Y-97412150D01*
X102068482Y-97325481D01*
X102562584Y-96995334D01*
X102892731Y-96501232D01*
X103008664Y-95918400D01*
X102892731Y-95335568D01*
X102562584Y-94841466D01*
X102460716Y-94773400D01*
X102562584Y-94705334D01*
X102892731Y-94211232D01*
X103008664Y-93628400D01*
X102892731Y-93045568D01*
X102684354Y-92733708D01*
X102802209Y-92654959D01*
X102942557Y-92444915D01*
X102991840Y-92197150D01*
X102991840Y-90479650D01*
X102942557Y-90231885D01*
X102802209Y-90021841D01*
X102592165Y-89881493D01*
X102509502Y-89865051D01*
X102530827Y-89833136D01*
X102599140Y-89489701D01*
X102599140Y-88589699D01*
X102530827Y-88246264D01*
X102381600Y-88022931D01*
X102512827Y-87826536D01*
X102581140Y-87483101D01*
X102581140Y-87376000D01*
X103723479Y-87376000D01*
X103941183Y-87701817D01*
X104260828Y-87915397D01*
X104249584Y-87971924D01*
X104304155Y-88246264D01*
X104318582Y-88318794D01*
X104515068Y-88612857D01*
X104589294Y-88662453D01*
X105888847Y-89962007D01*
X105938443Y-90036233D01*
X106012669Y-90085829D01*
X106232505Y-90232719D01*
X106579376Y-90301716D01*
X106666932Y-90284300D01*
X121358741Y-90284300D01*
X121237843Y-90465235D01*
X121188560Y-90713000D01*
X121188560Y-92413000D01*
X121237843Y-92660765D01*
X121378191Y-92870809D01*
X121501315Y-92953078D01*
X121287161Y-93273582D01*
X121171908Y-93853000D01*
X121287161Y-94432418D01*
X121615375Y-94923625D01*
X121726685Y-94998000D01*
X121615375Y-95072375D01*
X121287161Y-95563582D01*
X121171908Y-96143000D01*
X121287161Y-96722418D01*
X121615375Y-97213625D01*
X122106582Y-97541839D01*
X122539744Y-97628000D01*
X123332256Y-97628000D01*
X123765418Y-97541839D01*
X124256625Y-97213625D01*
X124584839Y-96722418D01*
X124700092Y-96143000D01*
X124610322Y-95691691D01*
X133539000Y-95691691D01*
X133539000Y-96107250D01*
X133697750Y-96266000D01*
X134747000Y-96266000D01*
X134747000Y-95341750D01*
X135001000Y-95341750D01*
X135001000Y-96266000D01*
X136050250Y-96266000D01*
X136068250Y-96248000D01*
X137033000Y-96248000D01*
X137033000Y-95323750D01*
X137287000Y-95323750D01*
X137287000Y-96248000D01*
X138336250Y-96248000D01*
X138495000Y-96089250D01*
X138495000Y-95673691D01*
X138398327Y-95440302D01*
X138219699Y-95261673D01*
X137986310Y-95165000D01*
X137445750Y-95165000D01*
X137287000Y-95323750D01*
X137033000Y-95323750D01*
X136874250Y-95165000D01*
X136333690Y-95165000D01*
X136100301Y-95261673D01*
X136008000Y-95353974D01*
X135933699Y-95279673D01*
X135700310Y-95183000D01*
X135159750Y-95183000D01*
X135001000Y-95341750D01*
X134747000Y-95341750D01*
X134588250Y-95183000D01*
X134047690Y-95183000D01*
X133814301Y-95279673D01*
X133635673Y-95458302D01*
X133539000Y-95691691D01*
X124610322Y-95691691D01*
X124584839Y-95563582D01*
X124256625Y-95072375D01*
X124145315Y-94998000D01*
X124256625Y-94923625D01*
X124584839Y-94432418D01*
X124700092Y-93853000D01*
X124584839Y-93273582D01*
X124370685Y-92953078D01*
X124493809Y-92870809D01*
X124613814Y-92691209D01*
X124845664Y-92846127D01*
X125189099Y-92914440D01*
X125839101Y-92914440D01*
X126182536Y-92846127D01*
X126473686Y-92651586D01*
X126474477Y-92650403D01*
X126629402Y-92805327D01*
X126862791Y-92902000D01*
X127278350Y-92902000D01*
X127437100Y-92743250D01*
X127437100Y-91694000D01*
X127691100Y-91694000D01*
X127691100Y-92743250D01*
X127849850Y-92902000D01*
X128265409Y-92902000D01*
X128498798Y-92805327D01*
X128677427Y-92626699D01*
X128774100Y-92393310D01*
X128774100Y-91852750D01*
X128615350Y-91694000D01*
X127691100Y-91694000D01*
X127437100Y-91694000D01*
X127417100Y-91694000D01*
X127417100Y-91440000D01*
X127437100Y-91440000D01*
X127437100Y-90390750D01*
X127691100Y-90390750D01*
X127691100Y-91440000D01*
X128615350Y-91440000D01*
X128774100Y-91281250D01*
X128774100Y-90833234D01*
X157996000Y-90833234D01*
X157996000Y-91284766D01*
X158168793Y-91701926D01*
X158488074Y-92021207D01*
X158905234Y-92194000D01*
X159356766Y-92194000D01*
X159773926Y-92021207D01*
X160093207Y-91701926D01*
X160266000Y-91284766D01*
X160266000Y-90998801D01*
X161749073Y-89515729D01*
X161812529Y-89473329D01*
X161980504Y-89221937D01*
X162024600Y-89000252D01*
X162024600Y-89000248D01*
X162039488Y-88925401D01*
X162024600Y-88850554D01*
X162024600Y-87985600D01*
X172753871Y-87985600D01*
X172900169Y-88721090D01*
X173316791Y-89344609D01*
X173940310Y-89761231D01*
X174490145Y-89870600D01*
X174861455Y-89870600D01*
X175411290Y-89761231D01*
X176034809Y-89344609D01*
X176451431Y-88721090D01*
X176597729Y-87985600D01*
X176451431Y-87250110D01*
X176107647Y-86735600D01*
X182938360Y-86735600D01*
X182938360Y-89235600D01*
X182987643Y-89483365D01*
X183127991Y-89693409D01*
X183338035Y-89833757D01*
X183585800Y-89883040D01*
X186085800Y-89883040D01*
X186333565Y-89833757D01*
X186543609Y-89693409D01*
X186683957Y-89483365D01*
X186733240Y-89235600D01*
X186733240Y-86735600D01*
X186683957Y-86487835D01*
X186543609Y-86277791D01*
X186333565Y-86137443D01*
X186085800Y-86088160D01*
X183585800Y-86088160D01*
X183338035Y-86137443D01*
X183127991Y-86277791D01*
X182987643Y-86487835D01*
X182938360Y-86735600D01*
X176107647Y-86735600D01*
X176034809Y-86626591D01*
X175411290Y-86209969D01*
X174861455Y-86100600D01*
X174490145Y-86100600D01*
X173940310Y-86209969D01*
X173316791Y-86626591D01*
X172900169Y-87250110D01*
X172753871Y-87985600D01*
X162024600Y-87985600D01*
X162024600Y-87509933D01*
X162226807Y-87307726D01*
X162399600Y-86890566D01*
X162399600Y-86439034D01*
X162226807Y-86021874D01*
X161907526Y-85702593D01*
X161490366Y-85529800D01*
X161038834Y-85529800D01*
X160621674Y-85702593D01*
X160302393Y-86021874D01*
X160129600Y-86439034D01*
X160129600Y-86890566D01*
X160302393Y-87307726D01*
X160504600Y-87509933D01*
X160504601Y-88610597D01*
X159191199Y-89924000D01*
X158905234Y-89924000D01*
X158488074Y-90096793D01*
X158168793Y-90416074D01*
X157996000Y-90833234D01*
X128774100Y-90833234D01*
X128774100Y-90740690D01*
X128677427Y-90507301D01*
X128498798Y-90328673D01*
X128265409Y-90232000D01*
X127849850Y-90232000D01*
X127691100Y-90390750D01*
X127437100Y-90390750D01*
X127278350Y-90232000D01*
X126862791Y-90232000D01*
X126629402Y-90328673D01*
X126474477Y-90483597D01*
X126473686Y-90482414D01*
X126221319Y-90313787D01*
X126259500Y-90221610D01*
X126259500Y-89681050D01*
X126100750Y-89522300D01*
X125176500Y-89522300D01*
X125176500Y-89542300D01*
X124922500Y-89542300D01*
X124922500Y-89522300D01*
X124902500Y-89522300D01*
X124902500Y-89268300D01*
X124922500Y-89268300D01*
X124922500Y-88219050D01*
X124763750Y-88060300D01*
X124348191Y-88060300D01*
X124114802Y-88156973D01*
X123959877Y-88311897D01*
X123959086Y-88310714D01*
X123667936Y-88116173D01*
X123324501Y-88047860D01*
X122674499Y-88047860D01*
X122331064Y-88116173D01*
X122039914Y-88310714D01*
X121909227Y-88506300D01*
X106947612Y-88506300D01*
X106234328Y-87793016D01*
X106370817Y-87701817D01*
X106453640Y-87577863D01*
X106709804Y-87853263D01*
X107307720Y-88126663D01*
X107569000Y-88008466D01*
X107569000Y-86614000D01*
X107549000Y-86614000D01*
X107549000Y-86360000D01*
X107569000Y-86360000D01*
X107569000Y-84965534D01*
X107823000Y-84965534D01*
X107823000Y-86360000D01*
X107843000Y-86360000D01*
X107843000Y-86614000D01*
X107823000Y-86614000D01*
X107823000Y-88008466D01*
X108084280Y-88126663D01*
X108644982Y-87870279D01*
X108728191Y-87994809D01*
X108938235Y-88135157D01*
X109186000Y-88184440D01*
X111286000Y-88184440D01*
X111533765Y-88135157D01*
X111743809Y-87994809D01*
X111884157Y-87784765D01*
X111933440Y-87537000D01*
X111933440Y-87131000D01*
X112914250Y-87131000D01*
X112961414Y-87201586D01*
X113252564Y-87396127D01*
X113595999Y-87464440D01*
X114496001Y-87464440D01*
X114839436Y-87396127D01*
X115130586Y-87201586D01*
X115175352Y-87134589D01*
X115480991Y-87592009D01*
X116104510Y-88008631D01*
X116654345Y-88118000D01*
X117025655Y-88118000D01*
X117575490Y-88008631D01*
X118199009Y-87592009D01*
X118615631Y-86968490D01*
X118761929Y-86233000D01*
X118615631Y-85497510D01*
X118271847Y-84983000D01*
X125102560Y-84983000D01*
X125102560Y-87483000D01*
X125151843Y-87730765D01*
X125292191Y-87940809D01*
X125471021Y-88060300D01*
X125335250Y-88060300D01*
X125176500Y-88219050D01*
X125176500Y-89268300D01*
X126100750Y-89268300D01*
X126259500Y-89109550D01*
X126259500Y-88568990D01*
X126162827Y-88335601D01*
X125984198Y-88156973D01*
X125920142Y-88130440D01*
X128250000Y-88130440D01*
X128497765Y-88081157D01*
X128707809Y-87940809D01*
X128848157Y-87730765D01*
X128897440Y-87483000D01*
X128897440Y-85283800D01*
X130661160Y-85283800D01*
X130661160Y-87283800D01*
X130710443Y-87531565D01*
X130850791Y-87741609D01*
X131060835Y-87881957D01*
X131308600Y-87931240D01*
X133308600Y-87931240D01*
X133556365Y-87881957D01*
X133766409Y-87741609D01*
X133879681Y-87572087D01*
X133993215Y-87677202D01*
X134468166Y-87873924D01*
X134721600Y-87754577D01*
X134721600Y-86410800D01*
X134975600Y-86410800D01*
X134975600Y-87754577D01*
X135229034Y-87873924D01*
X135703985Y-87677202D01*
X136172105Y-87243794D01*
X136438733Y-86664235D01*
X136319919Y-86410800D01*
X134975600Y-86410800D01*
X134721600Y-86410800D01*
X134701600Y-86410800D01*
X134701600Y-86156800D01*
X134721600Y-86156800D01*
X134721600Y-84813023D01*
X134975600Y-84813023D01*
X134975600Y-86156800D01*
X136319919Y-86156800D01*
X136438733Y-85903365D01*
X136172105Y-85323806D01*
X135703985Y-84890398D01*
X135229034Y-84693676D01*
X134975600Y-84813023D01*
X134721600Y-84813023D01*
X134468166Y-84693676D01*
X133993215Y-84890398D01*
X133879681Y-84995513D01*
X133766409Y-84825991D01*
X133556365Y-84685643D01*
X133308600Y-84636360D01*
X131308600Y-84636360D01*
X131060835Y-84685643D01*
X130850791Y-84825991D01*
X130710443Y-85036035D01*
X130661160Y-85283800D01*
X128897440Y-85283800D01*
X128897440Y-84983000D01*
X128848157Y-84735235D01*
X128707809Y-84525191D01*
X128497765Y-84384843D01*
X128250000Y-84335560D01*
X125750000Y-84335560D01*
X125502235Y-84384843D01*
X125292191Y-84525191D01*
X125151843Y-84735235D01*
X125102560Y-84983000D01*
X118271847Y-84983000D01*
X118199009Y-84873991D01*
X117575490Y-84457369D01*
X117025655Y-84348000D01*
X116654345Y-84348000D01*
X116104510Y-84457369D01*
X115480991Y-84873991D01*
X115169339Y-85340411D01*
X115130586Y-85282414D01*
X115129403Y-85281623D01*
X115284327Y-85126698D01*
X115381000Y-84893309D01*
X115381000Y-84477750D01*
X115222250Y-84319000D01*
X114173000Y-84319000D01*
X114173000Y-84339000D01*
X113919000Y-84339000D01*
X113919000Y-84319000D01*
X112869750Y-84319000D01*
X112711000Y-84477750D01*
X112711000Y-84893309D01*
X112807673Y-85126698D01*
X112962597Y-85281623D01*
X112961414Y-85282414D01*
X112914250Y-85353000D01*
X111916732Y-85353000D01*
X111884157Y-85189235D01*
X111743809Y-84979191D01*
X111533765Y-84838843D01*
X111286000Y-84789560D01*
X109186000Y-84789560D01*
X108938235Y-84838843D01*
X108728191Y-84979191D01*
X108644982Y-85103721D01*
X108084280Y-84847337D01*
X107823000Y-84965534D01*
X107569000Y-84965534D01*
X107307720Y-84847337D01*
X106709804Y-85120737D01*
X106453640Y-85396137D01*
X106370817Y-85272183D01*
X105813454Y-84899765D01*
X105321957Y-84802000D01*
X104990043Y-84802000D01*
X104498546Y-84899765D01*
X103941183Y-85272183D01*
X103723479Y-85598000D01*
X101817244Y-85598000D01*
X101557930Y-85649581D01*
X101503934Y-85685660D01*
X101033699Y-85685660D01*
X100690264Y-85753973D01*
X100399114Y-85948514D01*
X100398323Y-85949697D01*
X100243398Y-85794773D01*
X100010009Y-85698100D01*
X99594450Y-85698100D01*
X99435700Y-85856850D01*
X99181700Y-85856850D01*
X99022950Y-85698100D01*
X98607391Y-85698100D01*
X98374002Y-85794773D01*
X98195373Y-85973401D01*
X98098700Y-86206790D01*
X95706000Y-86206790D01*
X95706000Y-83490691D01*
X112711000Y-83490691D01*
X112711000Y-83906250D01*
X112869750Y-84065000D01*
X113919000Y-84065000D01*
X113919000Y-83140750D01*
X114173000Y-83140750D01*
X114173000Y-84065000D01*
X115222250Y-84065000D01*
X115381000Y-83906250D01*
X115381000Y-83490691D01*
X115284327Y-83257302D01*
X115105699Y-83078673D01*
X114872310Y-82982000D01*
X114331750Y-82982000D01*
X114173000Y-83140750D01*
X113919000Y-83140750D01*
X113760250Y-82982000D01*
X113219690Y-82982000D01*
X112986301Y-83078673D01*
X112807673Y-83257302D01*
X112711000Y-83490691D01*
X95706000Y-83490691D01*
X95706000Y-81438750D01*
X139520200Y-81438750D01*
X139520200Y-83819309D01*
X139616873Y-84052698D01*
X139795501Y-84231327D01*
X140028890Y-84328000D01*
X140273071Y-84328000D01*
X140232051Y-84451564D01*
X140264182Y-84895968D01*
X140372432Y-85157308D01*
X140586000Y-85192595D01*
X140698885Y-85079710D01*
X140775501Y-85156327D01*
X140921149Y-85216656D01*
X140765605Y-85372200D01*
X140800892Y-85585768D01*
X141223764Y-85726149D01*
X141668168Y-85694018D01*
X141929508Y-85585768D01*
X141964795Y-85372200D01*
X141809251Y-85216656D01*
X141954899Y-85156327D01*
X142031515Y-85079710D01*
X142144400Y-85192595D01*
X142357968Y-85157308D01*
X142498349Y-84734436D01*
X142468963Y-84328000D01*
X142701510Y-84328000D01*
X142934899Y-84231327D01*
X143113527Y-84052698D01*
X143210200Y-83819309D01*
X143210200Y-81438750D01*
X148280200Y-81438750D01*
X148280200Y-83819309D01*
X148376873Y-84052698D01*
X148555501Y-84231327D01*
X148788890Y-84328000D01*
X149033071Y-84328000D01*
X148992051Y-84451564D01*
X149024182Y-84895968D01*
X149132432Y-85157308D01*
X149346000Y-85192595D01*
X149458885Y-85079710D01*
X149535501Y-85156327D01*
X149681149Y-85216656D01*
X149525605Y-85372200D01*
X149560892Y-85585768D01*
X149983764Y-85726149D01*
X150428168Y-85694018D01*
X150689508Y-85585768D01*
X150724795Y-85372200D01*
X150569251Y-85216656D01*
X150714899Y-85156327D01*
X150791515Y-85079710D01*
X150904400Y-85192595D01*
X151117968Y-85157308D01*
X151258349Y-84734436D01*
X151228963Y-84328000D01*
X151461510Y-84328000D01*
X151694899Y-84231327D01*
X151873527Y-84052698D01*
X151970200Y-83819309D01*
X151970200Y-81438750D01*
X151875800Y-81344350D01*
X155039600Y-81344350D01*
X155039600Y-83724909D01*
X155136273Y-83958298D01*
X155314901Y-84136927D01*
X155548290Y-84233600D01*
X155792471Y-84233600D01*
X155751451Y-84357164D01*
X155783582Y-84801568D01*
X155891832Y-85062908D01*
X156105400Y-85098195D01*
X156218285Y-84985310D01*
X156294901Y-85061927D01*
X156440549Y-85122256D01*
X156285005Y-85277800D01*
X156320292Y-85491368D01*
X156743164Y-85631749D01*
X157187568Y-85599618D01*
X157448908Y-85491368D01*
X157484195Y-85277800D01*
X157328651Y-85122256D01*
X157474299Y-85061927D01*
X157550915Y-84985310D01*
X157663800Y-85098195D01*
X157877368Y-85062908D01*
X158017749Y-84640036D01*
X157988363Y-84233600D01*
X158220910Y-84233600D01*
X158454299Y-84136927D01*
X158632927Y-83958298D01*
X158729600Y-83724909D01*
X158729600Y-81344350D01*
X163799600Y-81344350D01*
X163799600Y-83724909D01*
X163896273Y-83958298D01*
X164074901Y-84136927D01*
X164308290Y-84233600D01*
X164552471Y-84233600D01*
X164511451Y-84357164D01*
X164543582Y-84801568D01*
X164651832Y-85062908D01*
X164865400Y-85098195D01*
X164978285Y-84985310D01*
X165054901Y-85061927D01*
X165200549Y-85122256D01*
X165045005Y-85277800D01*
X165080292Y-85491368D01*
X165503164Y-85631749D01*
X165947568Y-85599618D01*
X166208908Y-85491368D01*
X166244195Y-85277800D01*
X166088651Y-85122256D01*
X166234299Y-85061927D01*
X166310915Y-84985310D01*
X166423800Y-85098195D01*
X166637368Y-85062908D01*
X166777749Y-84640036D01*
X166748363Y-84233600D01*
X166980910Y-84233600D01*
X167214299Y-84136927D01*
X167392927Y-83958298D01*
X167489600Y-83724909D01*
X167489600Y-81344350D01*
X167330850Y-81185600D01*
X165771600Y-81185600D01*
X165771600Y-81205600D01*
X165517600Y-81205600D01*
X165517600Y-81185600D01*
X163958350Y-81185600D01*
X163799600Y-81344350D01*
X158729600Y-81344350D01*
X158570850Y-81185600D01*
X157011600Y-81185600D01*
X157011600Y-81205600D01*
X156757600Y-81205600D01*
X156757600Y-81185600D01*
X155198350Y-81185600D01*
X155039600Y-81344350D01*
X151875800Y-81344350D01*
X151811450Y-81280000D01*
X150252200Y-81280000D01*
X150252200Y-81300000D01*
X149998200Y-81300000D01*
X149998200Y-81280000D01*
X148438950Y-81280000D01*
X148280200Y-81438750D01*
X143210200Y-81438750D01*
X143051450Y-81280000D01*
X141492200Y-81280000D01*
X141492200Y-81300000D01*
X141238200Y-81300000D01*
X141238200Y-81280000D01*
X139678950Y-81280000D01*
X139520200Y-81438750D01*
X95706000Y-81438750D01*
X95706000Y-78942000D01*
X139520200Y-78942000D01*
X139520200Y-80867250D01*
G04 #@! TD*
M02*
