G04 #@! TF.GenerationSoftware,KiCad,Pcbnew,(5.1.4-0)*
G04 #@! TF.CreationDate,2020-02-24T15:23:44-08:00*
G04 #@! TF.ProjectId,3.3V_Rail,332e3356-5f52-4616-996c-2e6b69636164,rev?*
G04 #@! TF.SameCoordinates,Original*
G04 #@! TF.FileFunction,Copper,L2,Bot*
G04 #@! TF.FilePolarity,Positive*
%FSLAX46Y46*%
G04 Gerber Fmt 4.6, Leading zero omitted, Abs format (unit mm)*
G04 Created by KiCad (PCBNEW (5.1.4-0)) date 2020-02-24 15:23:44*
%MOMM*%
%LPD*%
G04 APERTURE LIST*
%ADD10C,2.600000*%
%ADD11R,2.600000X2.600000*%
%ADD12C,0.800000*%
%ADD13C,1.524000*%
%ADD14C,0.406400*%
%ADD15C,0.254000*%
G04 APERTURE END LIST*
D10*
X107850000Y-86550000D03*
D11*
X107850000Y-91550000D03*
X159004000Y-92122000D03*
D10*
X159004000Y-87122000D03*
D12*
X116700000Y-82436000D03*
D13*
X151765000Y-87122000D03*
X113919000Y-89789000D03*
D14*
X116700000Y-82436000D02*
X116700000Y-79769000D01*
X159004000Y-87122000D02*
X151765000Y-87122000D01*
X113919000Y-88773000D02*
X113919000Y-89789000D01*
X111760000Y-86614000D02*
X113919000Y-88773000D01*
X107914000Y-86614000D02*
X111760000Y-86614000D01*
X107850000Y-86550000D02*
X107914000Y-86614000D01*
D15*
G36*
X164719000Y-101092000D02*
G01*
X101981000Y-101092000D01*
X101981000Y-86394443D01*
X106270600Y-86394443D01*
X106270600Y-86705557D01*
X106331295Y-87010694D01*
X106450354Y-87298126D01*
X106623200Y-87556809D01*
X106843191Y-87776800D01*
X107101874Y-87949646D01*
X107389306Y-88068705D01*
X107694443Y-88129400D01*
X108005557Y-88129400D01*
X108310694Y-88068705D01*
X108598126Y-87949646D01*
X108856809Y-87776800D01*
X109076800Y-87556809D01*
X109249646Y-87298126D01*
X109333121Y-87096600D01*
X111560101Y-87096600D01*
X113368111Y-88904611D01*
X113255146Y-88980092D01*
X113110092Y-89125146D01*
X112996123Y-89295712D01*
X112917620Y-89485235D01*
X112877600Y-89686431D01*
X112877600Y-89891569D01*
X112917620Y-90092765D01*
X112996123Y-90282288D01*
X113110092Y-90452854D01*
X113255146Y-90597908D01*
X113425712Y-90711877D01*
X113615235Y-90790380D01*
X113816431Y-90830400D01*
X114021569Y-90830400D01*
X114222765Y-90790380D01*
X114412288Y-90711877D01*
X114582854Y-90597908D01*
X114727908Y-90452854D01*
X114841877Y-90282288D01*
X114920380Y-90092765D01*
X114960400Y-89891569D01*
X114960400Y-89686431D01*
X114920380Y-89485235D01*
X114841877Y-89295712D01*
X114727908Y-89125146D01*
X114582854Y-88980092D01*
X114412288Y-88866123D01*
X114401600Y-88861696D01*
X114401600Y-88796704D01*
X114403935Y-88772999D01*
X114401433Y-88747600D01*
X114394617Y-88678394D01*
X114367022Y-88587423D01*
X114322209Y-88503585D01*
X114261901Y-88430099D01*
X114243488Y-88414988D01*
X112847931Y-87019431D01*
X150723600Y-87019431D01*
X150723600Y-87224569D01*
X150763620Y-87425765D01*
X150842123Y-87615288D01*
X150956092Y-87785854D01*
X151101146Y-87930908D01*
X151271712Y-88044877D01*
X151461235Y-88123380D01*
X151662431Y-88163400D01*
X151867569Y-88163400D01*
X152068765Y-88123380D01*
X152258288Y-88044877D01*
X152428854Y-87930908D01*
X152573908Y-87785854D01*
X152687877Y-87615288D01*
X152692304Y-87604600D01*
X157494369Y-87604600D01*
X157604354Y-87870126D01*
X157777200Y-88128809D01*
X157997191Y-88348800D01*
X158255874Y-88521646D01*
X158543306Y-88640705D01*
X158848443Y-88701400D01*
X159159557Y-88701400D01*
X159464694Y-88640705D01*
X159752126Y-88521646D01*
X160010809Y-88348800D01*
X160230800Y-88128809D01*
X160403646Y-87870126D01*
X160522705Y-87582694D01*
X160583400Y-87277557D01*
X160583400Y-86966443D01*
X160522705Y-86661306D01*
X160403646Y-86373874D01*
X160230800Y-86115191D01*
X160010809Y-85895200D01*
X159752126Y-85722354D01*
X159464694Y-85603295D01*
X159159557Y-85542600D01*
X158848443Y-85542600D01*
X158543306Y-85603295D01*
X158255874Y-85722354D01*
X157997191Y-85895200D01*
X157777200Y-86115191D01*
X157604354Y-86373874D01*
X157494369Y-86639400D01*
X152692304Y-86639400D01*
X152687877Y-86628712D01*
X152573908Y-86458146D01*
X152428854Y-86313092D01*
X152258288Y-86199123D01*
X152068765Y-86120620D01*
X151867569Y-86080600D01*
X151662431Y-86080600D01*
X151461235Y-86120620D01*
X151271712Y-86199123D01*
X151101146Y-86313092D01*
X150956092Y-86458146D01*
X150842123Y-86628712D01*
X150763620Y-86818235D01*
X150723600Y-87019431D01*
X112847931Y-87019431D01*
X112118017Y-86289518D01*
X112102901Y-86271099D01*
X112029415Y-86210791D01*
X111945577Y-86165978D01*
X111854606Y-86138383D01*
X111783707Y-86131400D01*
X111783705Y-86131400D01*
X111760000Y-86129065D01*
X111736295Y-86131400D01*
X109377078Y-86131400D01*
X109368705Y-86089306D01*
X109249646Y-85801874D01*
X109076800Y-85543191D01*
X108856809Y-85323200D01*
X108598126Y-85150354D01*
X108310694Y-85031295D01*
X108005557Y-84970600D01*
X107694443Y-84970600D01*
X107389306Y-85031295D01*
X107101874Y-85150354D01*
X106843191Y-85323200D01*
X106623200Y-85543191D01*
X106450354Y-85801874D01*
X106331295Y-86089306D01*
X106270600Y-86394443D01*
X101981000Y-86394443D01*
X101981000Y-82364397D01*
X115973000Y-82364397D01*
X115973000Y-82507603D01*
X116000938Y-82648058D01*
X116055741Y-82780364D01*
X116135302Y-82899436D01*
X116236564Y-83000698D01*
X116355636Y-83080259D01*
X116487942Y-83135062D01*
X116628397Y-83163000D01*
X116771603Y-83163000D01*
X116912058Y-83135062D01*
X117044364Y-83080259D01*
X117163436Y-83000698D01*
X117264698Y-82899436D01*
X117344259Y-82780364D01*
X117399062Y-82648058D01*
X117427000Y-82507603D01*
X117427000Y-82364397D01*
X117399062Y-82223942D01*
X117344259Y-82091636D01*
X117264698Y-81972564D01*
X117230200Y-81938066D01*
X117230200Y-79742957D01*
X117222528Y-79665063D01*
X117192211Y-79565120D01*
X117142978Y-79473012D01*
X117076722Y-79392278D01*
X116995988Y-79326022D01*
X116903880Y-79276789D01*
X116803937Y-79246472D01*
X116700000Y-79236235D01*
X116596064Y-79246472D01*
X116496121Y-79276789D01*
X116404013Y-79326022D01*
X116323279Y-79392278D01*
X116257023Y-79473012D01*
X116207790Y-79565120D01*
X116177473Y-79665063D01*
X116169801Y-79742957D01*
X116169800Y-81938066D01*
X116135302Y-81972564D01*
X116055741Y-82091636D01*
X116000938Y-82223942D01*
X115973000Y-82364397D01*
X101981000Y-82364397D01*
X101981000Y-76454000D01*
X164719000Y-76454000D01*
X164719000Y-101092000D01*
X164719000Y-101092000D01*
G37*
X164719000Y-101092000D02*
X101981000Y-101092000D01*
X101981000Y-86394443D01*
X106270600Y-86394443D01*
X106270600Y-86705557D01*
X106331295Y-87010694D01*
X106450354Y-87298126D01*
X106623200Y-87556809D01*
X106843191Y-87776800D01*
X107101874Y-87949646D01*
X107389306Y-88068705D01*
X107694443Y-88129400D01*
X108005557Y-88129400D01*
X108310694Y-88068705D01*
X108598126Y-87949646D01*
X108856809Y-87776800D01*
X109076800Y-87556809D01*
X109249646Y-87298126D01*
X109333121Y-87096600D01*
X111560101Y-87096600D01*
X113368111Y-88904611D01*
X113255146Y-88980092D01*
X113110092Y-89125146D01*
X112996123Y-89295712D01*
X112917620Y-89485235D01*
X112877600Y-89686431D01*
X112877600Y-89891569D01*
X112917620Y-90092765D01*
X112996123Y-90282288D01*
X113110092Y-90452854D01*
X113255146Y-90597908D01*
X113425712Y-90711877D01*
X113615235Y-90790380D01*
X113816431Y-90830400D01*
X114021569Y-90830400D01*
X114222765Y-90790380D01*
X114412288Y-90711877D01*
X114582854Y-90597908D01*
X114727908Y-90452854D01*
X114841877Y-90282288D01*
X114920380Y-90092765D01*
X114960400Y-89891569D01*
X114960400Y-89686431D01*
X114920380Y-89485235D01*
X114841877Y-89295712D01*
X114727908Y-89125146D01*
X114582854Y-88980092D01*
X114412288Y-88866123D01*
X114401600Y-88861696D01*
X114401600Y-88796704D01*
X114403935Y-88772999D01*
X114401433Y-88747600D01*
X114394617Y-88678394D01*
X114367022Y-88587423D01*
X114322209Y-88503585D01*
X114261901Y-88430099D01*
X114243488Y-88414988D01*
X112847931Y-87019431D01*
X150723600Y-87019431D01*
X150723600Y-87224569D01*
X150763620Y-87425765D01*
X150842123Y-87615288D01*
X150956092Y-87785854D01*
X151101146Y-87930908D01*
X151271712Y-88044877D01*
X151461235Y-88123380D01*
X151662431Y-88163400D01*
X151867569Y-88163400D01*
X152068765Y-88123380D01*
X152258288Y-88044877D01*
X152428854Y-87930908D01*
X152573908Y-87785854D01*
X152687877Y-87615288D01*
X152692304Y-87604600D01*
X157494369Y-87604600D01*
X157604354Y-87870126D01*
X157777200Y-88128809D01*
X157997191Y-88348800D01*
X158255874Y-88521646D01*
X158543306Y-88640705D01*
X158848443Y-88701400D01*
X159159557Y-88701400D01*
X159464694Y-88640705D01*
X159752126Y-88521646D01*
X160010809Y-88348800D01*
X160230800Y-88128809D01*
X160403646Y-87870126D01*
X160522705Y-87582694D01*
X160583400Y-87277557D01*
X160583400Y-86966443D01*
X160522705Y-86661306D01*
X160403646Y-86373874D01*
X160230800Y-86115191D01*
X160010809Y-85895200D01*
X159752126Y-85722354D01*
X159464694Y-85603295D01*
X159159557Y-85542600D01*
X158848443Y-85542600D01*
X158543306Y-85603295D01*
X158255874Y-85722354D01*
X157997191Y-85895200D01*
X157777200Y-86115191D01*
X157604354Y-86373874D01*
X157494369Y-86639400D01*
X152692304Y-86639400D01*
X152687877Y-86628712D01*
X152573908Y-86458146D01*
X152428854Y-86313092D01*
X152258288Y-86199123D01*
X152068765Y-86120620D01*
X151867569Y-86080600D01*
X151662431Y-86080600D01*
X151461235Y-86120620D01*
X151271712Y-86199123D01*
X151101146Y-86313092D01*
X150956092Y-86458146D01*
X150842123Y-86628712D01*
X150763620Y-86818235D01*
X150723600Y-87019431D01*
X112847931Y-87019431D01*
X112118017Y-86289518D01*
X112102901Y-86271099D01*
X112029415Y-86210791D01*
X111945577Y-86165978D01*
X111854606Y-86138383D01*
X111783707Y-86131400D01*
X111783705Y-86131400D01*
X111760000Y-86129065D01*
X111736295Y-86131400D01*
X109377078Y-86131400D01*
X109368705Y-86089306D01*
X109249646Y-85801874D01*
X109076800Y-85543191D01*
X108856809Y-85323200D01*
X108598126Y-85150354D01*
X108310694Y-85031295D01*
X108005557Y-84970600D01*
X107694443Y-84970600D01*
X107389306Y-85031295D01*
X107101874Y-85150354D01*
X106843191Y-85323200D01*
X106623200Y-85543191D01*
X106450354Y-85801874D01*
X106331295Y-86089306D01*
X106270600Y-86394443D01*
X101981000Y-86394443D01*
X101981000Y-82364397D01*
X115973000Y-82364397D01*
X115973000Y-82507603D01*
X116000938Y-82648058D01*
X116055741Y-82780364D01*
X116135302Y-82899436D01*
X116236564Y-83000698D01*
X116355636Y-83080259D01*
X116487942Y-83135062D01*
X116628397Y-83163000D01*
X116771603Y-83163000D01*
X116912058Y-83135062D01*
X117044364Y-83080259D01*
X117163436Y-83000698D01*
X117264698Y-82899436D01*
X117344259Y-82780364D01*
X117399062Y-82648058D01*
X117427000Y-82507603D01*
X117427000Y-82364397D01*
X117399062Y-82223942D01*
X117344259Y-82091636D01*
X117264698Y-81972564D01*
X117230200Y-81938066D01*
X117230200Y-79742957D01*
X117222528Y-79665063D01*
X117192211Y-79565120D01*
X117142978Y-79473012D01*
X117076722Y-79392278D01*
X116995988Y-79326022D01*
X116903880Y-79276789D01*
X116803937Y-79246472D01*
X116700000Y-79236235D01*
X116596064Y-79246472D01*
X116496121Y-79276789D01*
X116404013Y-79326022D01*
X116323279Y-79392278D01*
X116257023Y-79473012D01*
X116207790Y-79565120D01*
X116177473Y-79665063D01*
X116169801Y-79742957D01*
X116169800Y-81938066D01*
X116135302Y-81972564D01*
X116055741Y-82091636D01*
X116000938Y-82223942D01*
X115973000Y-82364397D01*
X101981000Y-82364397D01*
X101981000Y-76454000D01*
X164719000Y-76454000D01*
X164719000Y-101092000D01*
M02*
