G04 #@! TF.GenerationSoftware,KiCad,Pcbnew,(5.1.4-0)*
G04 #@! TF.CreationDate,2020-02-24T15:23:44-08:00*
G04 #@! TF.ProjectId,3.3V_Rail,332e3356-5f52-4616-996c-2e6b69636164,rev?*
G04 #@! TF.SameCoordinates,Original*
G04 #@! TF.FileFunction,Copper,L1,Top*
G04 #@! TF.FilePolarity,Positive*
%FSLAX46Y46*%
G04 Gerber Fmt 4.6, Leading zero omitted, Abs format (unit mm)*
G04 Created by KiCad (PCBNEW (5.1.4-0)) date 2020-02-24 15:23:44*
%MOMM*%
%LPD*%
G04 APERTURE LIST*
%ADD10C,0.190500*%
%ADD11C,2.600000*%
%ADD12R,2.600000X2.600000*%
%ADD13C,0.100000*%
%ADD14C,1.150000*%
%ADD15R,1.850000X3.400000*%
%ADD16R,1.422400X0.355600*%
%ADD17R,2.997200X3.098800*%
%ADD18C,2.250000*%
%ADD19C,0.800000*%
%ADD20C,1.524000*%
%ADD21C,0.406400*%
%ADD22C,0.304800*%
%ADD23C,1.270000*%
%ADD24C,0.254000*%
G04 APERTURE END LIST*
D10*
X102652285Y-100257428D02*
X102761142Y-100293714D01*
X102942571Y-100293714D01*
X103015142Y-100257428D01*
X103051428Y-100221142D01*
X103087714Y-100148571D01*
X103087714Y-100076000D01*
X103051428Y-100003428D01*
X103015142Y-99967142D01*
X102942571Y-99930857D01*
X102797428Y-99894571D01*
X102724857Y-99858285D01*
X102688571Y-99822000D01*
X102652285Y-99749428D01*
X102652285Y-99676857D01*
X102688571Y-99604285D01*
X102724857Y-99568000D01*
X102797428Y-99531714D01*
X102978857Y-99531714D01*
X103087714Y-99568000D01*
X103523142Y-100293714D02*
X103450571Y-100257428D01*
X103414285Y-100184857D01*
X103414285Y-99531714D01*
X104140000Y-99785714D02*
X104140000Y-100293714D01*
X103813428Y-99785714D02*
X103813428Y-100184857D01*
X103849714Y-100257428D01*
X103922285Y-100293714D01*
X104031142Y-100293714D01*
X104103714Y-100257428D01*
X104140000Y-100221142D01*
X104829428Y-99785714D02*
X104829428Y-100402571D01*
X104793142Y-100475142D01*
X104756857Y-100511428D01*
X104684285Y-100547714D01*
X104575428Y-100547714D01*
X104502857Y-100511428D01*
X104829428Y-100257428D02*
X104756857Y-100293714D01*
X104611714Y-100293714D01*
X104539142Y-100257428D01*
X104502857Y-100221142D01*
X104466571Y-100148571D01*
X104466571Y-99930857D01*
X104502857Y-99858285D01*
X104539142Y-99822000D01*
X104611714Y-99785714D01*
X104756857Y-99785714D01*
X104829428Y-99822000D01*
X105156000Y-100257428D02*
X105264857Y-100293714D01*
X105446285Y-100293714D01*
X105518857Y-100257428D01*
X105555142Y-100221142D01*
X105591428Y-100148571D01*
X105591428Y-100076000D01*
X105555142Y-100003428D01*
X105518857Y-99967142D01*
X105446285Y-99930857D01*
X105301142Y-99894571D01*
X105228571Y-99858285D01*
X105192285Y-99822000D01*
X105156000Y-99749428D01*
X105156000Y-99676857D01*
X105192285Y-99604285D01*
X105228571Y-99568000D01*
X105301142Y-99531714D01*
X105482571Y-99531714D01*
X105591428Y-99568000D01*
X106244571Y-100293714D02*
X106244571Y-99894571D01*
X106208285Y-99822000D01*
X106135714Y-99785714D01*
X105990571Y-99785714D01*
X105918000Y-99822000D01*
X106244571Y-100257428D02*
X106172000Y-100293714D01*
X105990571Y-100293714D01*
X105918000Y-100257428D01*
X105881714Y-100184857D01*
X105881714Y-100112285D01*
X105918000Y-100039714D01*
X105990571Y-100003428D01*
X106172000Y-100003428D01*
X106244571Y-99967142D01*
X106498571Y-99785714D02*
X106788857Y-99785714D01*
X106607428Y-99531714D02*
X106607428Y-100184857D01*
X106643714Y-100257428D01*
X106716285Y-100293714D01*
X106788857Y-100293714D01*
X107550857Y-99531714D02*
X108022571Y-99531714D01*
X107768571Y-99822000D01*
X107877428Y-99822000D01*
X107950000Y-99858285D01*
X107986285Y-99894571D01*
X108022571Y-99967142D01*
X108022571Y-100148571D01*
X107986285Y-100221142D01*
X107950000Y-100257428D01*
X107877428Y-100293714D01*
X107659714Y-100293714D01*
X107587142Y-100257428D01*
X107550857Y-100221142D01*
X108349142Y-100221142D02*
X108385428Y-100257428D01*
X108349142Y-100293714D01*
X108312857Y-100257428D01*
X108349142Y-100221142D01*
X108349142Y-100293714D01*
X108639428Y-99531714D02*
X109111142Y-99531714D01*
X108857142Y-99822000D01*
X108966000Y-99822000D01*
X109038571Y-99858285D01*
X109074857Y-99894571D01*
X109111142Y-99967142D01*
X109111142Y-100148571D01*
X109074857Y-100221142D01*
X109038571Y-100257428D01*
X108966000Y-100293714D01*
X108748285Y-100293714D01*
X108675714Y-100257428D01*
X108639428Y-100221142D01*
X109328857Y-99531714D02*
X109582857Y-100293714D01*
X109836857Y-99531714D01*
X111106857Y-100293714D02*
X110852857Y-99930857D01*
X110671428Y-100293714D02*
X110671428Y-99531714D01*
X110961714Y-99531714D01*
X111034285Y-99568000D01*
X111070571Y-99604285D01*
X111106857Y-99676857D01*
X111106857Y-99785714D01*
X111070571Y-99858285D01*
X111034285Y-99894571D01*
X110961714Y-99930857D01*
X110671428Y-99930857D01*
X111759999Y-100293714D02*
X111759999Y-99894571D01*
X111723714Y-99822000D01*
X111651142Y-99785714D01*
X111505999Y-99785714D01*
X111433428Y-99822000D01*
X111759999Y-100257428D02*
X111687428Y-100293714D01*
X111505999Y-100293714D01*
X111433428Y-100257428D01*
X111397142Y-100184857D01*
X111397142Y-100112285D01*
X111433428Y-100039714D01*
X111505999Y-100003428D01*
X111687428Y-100003428D01*
X111759999Y-99967142D01*
X112122857Y-100293714D02*
X112122857Y-99785714D01*
X112122857Y-99531714D02*
X112086571Y-99568000D01*
X112122857Y-99604285D01*
X112159142Y-99568000D01*
X112122857Y-99531714D01*
X112122857Y-99604285D01*
X112594571Y-100293714D02*
X112521999Y-100257428D01*
X112485714Y-100184857D01*
X112485714Y-99531714D01*
X113392857Y-99785714D02*
X113574285Y-100293714D01*
X113755714Y-99785714D01*
X114445142Y-100293714D02*
X114009714Y-100293714D01*
X114227428Y-100293714D02*
X114227428Y-99531714D01*
X114154857Y-99640571D01*
X114082285Y-99713142D01*
X114009714Y-99749428D01*
X114771714Y-100221142D02*
X114807999Y-100257428D01*
X114771714Y-100293714D01*
X114735428Y-100257428D01*
X114771714Y-100221142D01*
X114771714Y-100293714D01*
X115279714Y-99531714D02*
X115352285Y-99531714D01*
X115424857Y-99568000D01*
X115461142Y-99604285D01*
X115497428Y-99676857D01*
X115533714Y-99822000D01*
X115533714Y-100003428D01*
X115497428Y-100148571D01*
X115461142Y-100221142D01*
X115424857Y-100257428D01*
X115352285Y-100293714D01*
X115279714Y-100293714D01*
X115207142Y-100257428D01*
X115170857Y-100221142D01*
X115134571Y-100148571D01*
X115098285Y-100003428D01*
X115098285Y-99822000D01*
X115134571Y-99676857D01*
X115170857Y-99604285D01*
X115207142Y-99568000D01*
X115279714Y-99531714D01*
D11*
X107850000Y-86550000D03*
D12*
X107850000Y-91550000D03*
D13*
G36*
X117049505Y-79001204D02*
G01*
X117073773Y-79004804D01*
X117097572Y-79010765D01*
X117120671Y-79019030D01*
X117142850Y-79029520D01*
X117163893Y-79042132D01*
X117183599Y-79056747D01*
X117201777Y-79073223D01*
X117218253Y-79091401D01*
X117232868Y-79111107D01*
X117245480Y-79132150D01*
X117255970Y-79154329D01*
X117264235Y-79177428D01*
X117270196Y-79201227D01*
X117273796Y-79225495D01*
X117275000Y-79249999D01*
X117275000Y-80150001D01*
X117273796Y-80174505D01*
X117270196Y-80198773D01*
X117264235Y-80222572D01*
X117255970Y-80245671D01*
X117245480Y-80267850D01*
X117232868Y-80288893D01*
X117218253Y-80308599D01*
X117201777Y-80326777D01*
X117183599Y-80343253D01*
X117163893Y-80357868D01*
X117142850Y-80370480D01*
X117120671Y-80380970D01*
X117097572Y-80389235D01*
X117073773Y-80395196D01*
X117049505Y-80398796D01*
X117025001Y-80400000D01*
X116374999Y-80400000D01*
X116350495Y-80398796D01*
X116326227Y-80395196D01*
X116302428Y-80389235D01*
X116279329Y-80380970D01*
X116257150Y-80370480D01*
X116236107Y-80357868D01*
X116216401Y-80343253D01*
X116198223Y-80326777D01*
X116181747Y-80308599D01*
X116167132Y-80288893D01*
X116154520Y-80267850D01*
X116144030Y-80245671D01*
X116135765Y-80222572D01*
X116129804Y-80198773D01*
X116126204Y-80174505D01*
X116125000Y-80150001D01*
X116125000Y-79249999D01*
X116126204Y-79225495D01*
X116129804Y-79201227D01*
X116135765Y-79177428D01*
X116144030Y-79154329D01*
X116154520Y-79132150D01*
X116167132Y-79111107D01*
X116181747Y-79091401D01*
X116198223Y-79073223D01*
X116216401Y-79056747D01*
X116236107Y-79042132D01*
X116257150Y-79029520D01*
X116279329Y-79019030D01*
X116302428Y-79010765D01*
X116326227Y-79004804D01*
X116350495Y-79001204D01*
X116374999Y-79000000D01*
X117025001Y-79000000D01*
X117049505Y-79001204D01*
X117049505Y-79001204D01*
G37*
D14*
X116700000Y-79700000D03*
D13*
G36*
X114999505Y-79001204D02*
G01*
X115023773Y-79004804D01*
X115047572Y-79010765D01*
X115070671Y-79019030D01*
X115092850Y-79029520D01*
X115113893Y-79042132D01*
X115133599Y-79056747D01*
X115151777Y-79073223D01*
X115168253Y-79091401D01*
X115182868Y-79111107D01*
X115195480Y-79132150D01*
X115205970Y-79154329D01*
X115214235Y-79177428D01*
X115220196Y-79201227D01*
X115223796Y-79225495D01*
X115225000Y-79249999D01*
X115225000Y-80150001D01*
X115223796Y-80174505D01*
X115220196Y-80198773D01*
X115214235Y-80222572D01*
X115205970Y-80245671D01*
X115195480Y-80267850D01*
X115182868Y-80288893D01*
X115168253Y-80308599D01*
X115151777Y-80326777D01*
X115133599Y-80343253D01*
X115113893Y-80357868D01*
X115092850Y-80370480D01*
X115070671Y-80380970D01*
X115047572Y-80389235D01*
X115023773Y-80395196D01*
X114999505Y-80398796D01*
X114975001Y-80400000D01*
X114324999Y-80400000D01*
X114300495Y-80398796D01*
X114276227Y-80395196D01*
X114252428Y-80389235D01*
X114229329Y-80380970D01*
X114207150Y-80370480D01*
X114186107Y-80357868D01*
X114166401Y-80343253D01*
X114148223Y-80326777D01*
X114131747Y-80308599D01*
X114117132Y-80288893D01*
X114104520Y-80267850D01*
X114094030Y-80245671D01*
X114085765Y-80222572D01*
X114079804Y-80198773D01*
X114076204Y-80174505D01*
X114075000Y-80150001D01*
X114075000Y-79249999D01*
X114076204Y-79225495D01*
X114079804Y-79201227D01*
X114085765Y-79177428D01*
X114094030Y-79154329D01*
X114104520Y-79132150D01*
X114117132Y-79111107D01*
X114131747Y-79091401D01*
X114148223Y-79073223D01*
X114166401Y-79056747D01*
X114186107Y-79042132D01*
X114207150Y-79029520D01*
X114229329Y-79019030D01*
X114252428Y-79010765D01*
X114276227Y-79004804D01*
X114300495Y-79001204D01*
X114324999Y-79000000D01*
X114975001Y-79000000D01*
X114999505Y-79001204D01*
X114999505Y-79001204D01*
G37*
D14*
X114650000Y-79700000D03*
D13*
G36*
X116874505Y-94851204D02*
G01*
X116898773Y-94854804D01*
X116922572Y-94860765D01*
X116945671Y-94869030D01*
X116967850Y-94879520D01*
X116988893Y-94892132D01*
X117008599Y-94906747D01*
X117026777Y-94923223D01*
X117043253Y-94941401D01*
X117057868Y-94961107D01*
X117070480Y-94982150D01*
X117080970Y-95004329D01*
X117089235Y-95027428D01*
X117095196Y-95051227D01*
X117098796Y-95075495D01*
X117100000Y-95099999D01*
X117100000Y-95750001D01*
X117098796Y-95774505D01*
X117095196Y-95798773D01*
X117089235Y-95822572D01*
X117080970Y-95845671D01*
X117070480Y-95867850D01*
X117057868Y-95888893D01*
X117043253Y-95908599D01*
X117026777Y-95926777D01*
X117008599Y-95943253D01*
X116988893Y-95957868D01*
X116967850Y-95970480D01*
X116945671Y-95980970D01*
X116922572Y-95989235D01*
X116898773Y-95995196D01*
X116874505Y-95998796D01*
X116850001Y-96000000D01*
X115949999Y-96000000D01*
X115925495Y-95998796D01*
X115901227Y-95995196D01*
X115877428Y-95989235D01*
X115854329Y-95980970D01*
X115832150Y-95970480D01*
X115811107Y-95957868D01*
X115791401Y-95943253D01*
X115773223Y-95926777D01*
X115756747Y-95908599D01*
X115742132Y-95888893D01*
X115729520Y-95867850D01*
X115719030Y-95845671D01*
X115710765Y-95822572D01*
X115704804Y-95798773D01*
X115701204Y-95774505D01*
X115700000Y-95750001D01*
X115700000Y-95099999D01*
X115701204Y-95075495D01*
X115704804Y-95051227D01*
X115710765Y-95027428D01*
X115719030Y-95004329D01*
X115729520Y-94982150D01*
X115742132Y-94961107D01*
X115756747Y-94941401D01*
X115773223Y-94923223D01*
X115791401Y-94906747D01*
X115811107Y-94892132D01*
X115832150Y-94879520D01*
X115854329Y-94869030D01*
X115877428Y-94860765D01*
X115901227Y-94854804D01*
X115925495Y-94851204D01*
X115949999Y-94850000D01*
X116850001Y-94850000D01*
X116874505Y-94851204D01*
X116874505Y-94851204D01*
G37*
D14*
X116400000Y-95425000D03*
D13*
G36*
X116874505Y-92801204D02*
G01*
X116898773Y-92804804D01*
X116922572Y-92810765D01*
X116945671Y-92819030D01*
X116967850Y-92829520D01*
X116988893Y-92842132D01*
X117008599Y-92856747D01*
X117026777Y-92873223D01*
X117043253Y-92891401D01*
X117057868Y-92911107D01*
X117070480Y-92932150D01*
X117080970Y-92954329D01*
X117089235Y-92977428D01*
X117095196Y-93001227D01*
X117098796Y-93025495D01*
X117100000Y-93049999D01*
X117100000Y-93700001D01*
X117098796Y-93724505D01*
X117095196Y-93748773D01*
X117089235Y-93772572D01*
X117080970Y-93795671D01*
X117070480Y-93817850D01*
X117057868Y-93838893D01*
X117043253Y-93858599D01*
X117026777Y-93876777D01*
X117008599Y-93893253D01*
X116988893Y-93907868D01*
X116967850Y-93920480D01*
X116945671Y-93930970D01*
X116922572Y-93939235D01*
X116898773Y-93945196D01*
X116874505Y-93948796D01*
X116850001Y-93950000D01*
X115949999Y-93950000D01*
X115925495Y-93948796D01*
X115901227Y-93945196D01*
X115877428Y-93939235D01*
X115854329Y-93930970D01*
X115832150Y-93920480D01*
X115811107Y-93907868D01*
X115791401Y-93893253D01*
X115773223Y-93876777D01*
X115756747Y-93858599D01*
X115742132Y-93838893D01*
X115729520Y-93817850D01*
X115719030Y-93795671D01*
X115710765Y-93772572D01*
X115704804Y-93748773D01*
X115701204Y-93724505D01*
X115700000Y-93700001D01*
X115700000Y-93049999D01*
X115701204Y-93025495D01*
X115704804Y-93001227D01*
X115710765Y-92977428D01*
X115719030Y-92954329D01*
X115729520Y-92932150D01*
X115742132Y-92911107D01*
X115756747Y-92891401D01*
X115773223Y-92873223D01*
X115791401Y-92856747D01*
X115811107Y-92842132D01*
X115832150Y-92829520D01*
X115854329Y-92819030D01*
X115877428Y-92810765D01*
X115901227Y-92804804D01*
X115925495Y-92801204D01*
X115949999Y-92800000D01*
X116850001Y-92800000D01*
X116874505Y-92801204D01*
X116874505Y-92801204D01*
G37*
D14*
X116400000Y-93375000D03*
D13*
G36*
X125317505Y-84518204D02*
G01*
X125341773Y-84521804D01*
X125365572Y-84527765D01*
X125388671Y-84536030D01*
X125410850Y-84546520D01*
X125431893Y-84559132D01*
X125451599Y-84573747D01*
X125469777Y-84590223D01*
X125486253Y-84608401D01*
X125500868Y-84628107D01*
X125513480Y-84649150D01*
X125523970Y-84671329D01*
X125532235Y-84694428D01*
X125538196Y-84718227D01*
X125541796Y-84742495D01*
X125543000Y-84766999D01*
X125543000Y-85667001D01*
X125541796Y-85691505D01*
X125538196Y-85715773D01*
X125532235Y-85739572D01*
X125523970Y-85762671D01*
X125513480Y-85784850D01*
X125500868Y-85805893D01*
X125486253Y-85825599D01*
X125469777Y-85843777D01*
X125451599Y-85860253D01*
X125431893Y-85874868D01*
X125410850Y-85887480D01*
X125388671Y-85897970D01*
X125365572Y-85906235D01*
X125341773Y-85912196D01*
X125317505Y-85915796D01*
X125293001Y-85917000D01*
X124642999Y-85917000D01*
X124618495Y-85915796D01*
X124594227Y-85912196D01*
X124570428Y-85906235D01*
X124547329Y-85897970D01*
X124525150Y-85887480D01*
X124504107Y-85874868D01*
X124484401Y-85860253D01*
X124466223Y-85843777D01*
X124449747Y-85825599D01*
X124435132Y-85805893D01*
X124422520Y-85784850D01*
X124412030Y-85762671D01*
X124403765Y-85739572D01*
X124397804Y-85715773D01*
X124394204Y-85691505D01*
X124393000Y-85667001D01*
X124393000Y-84766999D01*
X124394204Y-84742495D01*
X124397804Y-84718227D01*
X124403765Y-84694428D01*
X124412030Y-84671329D01*
X124422520Y-84649150D01*
X124435132Y-84628107D01*
X124449747Y-84608401D01*
X124466223Y-84590223D01*
X124484401Y-84573747D01*
X124504107Y-84559132D01*
X124525150Y-84546520D01*
X124547329Y-84536030D01*
X124570428Y-84527765D01*
X124594227Y-84521804D01*
X124618495Y-84518204D01*
X124642999Y-84517000D01*
X125293001Y-84517000D01*
X125317505Y-84518204D01*
X125317505Y-84518204D01*
G37*
D14*
X124968000Y-85217000D03*
D13*
G36*
X123267505Y-84518204D02*
G01*
X123291773Y-84521804D01*
X123315572Y-84527765D01*
X123338671Y-84536030D01*
X123360850Y-84546520D01*
X123381893Y-84559132D01*
X123401599Y-84573747D01*
X123419777Y-84590223D01*
X123436253Y-84608401D01*
X123450868Y-84628107D01*
X123463480Y-84649150D01*
X123473970Y-84671329D01*
X123482235Y-84694428D01*
X123488196Y-84718227D01*
X123491796Y-84742495D01*
X123493000Y-84766999D01*
X123493000Y-85667001D01*
X123491796Y-85691505D01*
X123488196Y-85715773D01*
X123482235Y-85739572D01*
X123473970Y-85762671D01*
X123463480Y-85784850D01*
X123450868Y-85805893D01*
X123436253Y-85825599D01*
X123419777Y-85843777D01*
X123401599Y-85860253D01*
X123381893Y-85874868D01*
X123360850Y-85887480D01*
X123338671Y-85897970D01*
X123315572Y-85906235D01*
X123291773Y-85912196D01*
X123267505Y-85915796D01*
X123243001Y-85917000D01*
X122592999Y-85917000D01*
X122568495Y-85915796D01*
X122544227Y-85912196D01*
X122520428Y-85906235D01*
X122497329Y-85897970D01*
X122475150Y-85887480D01*
X122454107Y-85874868D01*
X122434401Y-85860253D01*
X122416223Y-85843777D01*
X122399747Y-85825599D01*
X122385132Y-85805893D01*
X122372520Y-85784850D01*
X122362030Y-85762671D01*
X122353765Y-85739572D01*
X122347804Y-85715773D01*
X122344204Y-85691505D01*
X122343000Y-85667001D01*
X122343000Y-84766999D01*
X122344204Y-84742495D01*
X122347804Y-84718227D01*
X122353765Y-84694428D01*
X122362030Y-84671329D01*
X122372520Y-84649150D01*
X122385132Y-84628107D01*
X122399747Y-84608401D01*
X122416223Y-84590223D01*
X122434401Y-84573747D01*
X122454107Y-84559132D01*
X122475150Y-84546520D01*
X122497329Y-84536030D01*
X122520428Y-84527765D01*
X122544227Y-84521804D01*
X122568495Y-84518204D01*
X122592999Y-84517000D01*
X123243001Y-84517000D01*
X123267505Y-84518204D01*
X123267505Y-84518204D01*
G37*
D14*
X122918000Y-85217000D03*
D12*
X159004000Y-92122000D03*
D11*
X159004000Y-87122000D03*
D15*
X137300000Y-95575000D03*
X142850000Y-95575000D03*
D13*
G36*
X117174505Y-84126204D02*
G01*
X117198773Y-84129804D01*
X117222572Y-84135765D01*
X117245671Y-84144030D01*
X117267850Y-84154520D01*
X117288893Y-84167132D01*
X117308599Y-84181747D01*
X117326777Y-84198223D01*
X117343253Y-84216401D01*
X117357868Y-84236107D01*
X117370480Y-84257150D01*
X117380970Y-84279329D01*
X117389235Y-84302428D01*
X117395196Y-84326227D01*
X117398796Y-84350495D01*
X117400000Y-84374999D01*
X117400000Y-85025001D01*
X117398796Y-85049505D01*
X117395196Y-85073773D01*
X117389235Y-85097572D01*
X117380970Y-85120671D01*
X117370480Y-85142850D01*
X117357868Y-85163893D01*
X117343253Y-85183599D01*
X117326777Y-85201777D01*
X117308599Y-85218253D01*
X117288893Y-85232868D01*
X117267850Y-85245480D01*
X117245671Y-85255970D01*
X117222572Y-85264235D01*
X117198773Y-85270196D01*
X117174505Y-85273796D01*
X117150001Y-85275000D01*
X116249999Y-85275000D01*
X116225495Y-85273796D01*
X116201227Y-85270196D01*
X116177428Y-85264235D01*
X116154329Y-85255970D01*
X116132150Y-85245480D01*
X116111107Y-85232868D01*
X116091401Y-85218253D01*
X116073223Y-85201777D01*
X116056747Y-85183599D01*
X116042132Y-85163893D01*
X116029520Y-85142850D01*
X116019030Y-85120671D01*
X116010765Y-85097572D01*
X116004804Y-85073773D01*
X116001204Y-85049505D01*
X116000000Y-85025001D01*
X116000000Y-84374999D01*
X116001204Y-84350495D01*
X116004804Y-84326227D01*
X116010765Y-84302428D01*
X116019030Y-84279329D01*
X116029520Y-84257150D01*
X116042132Y-84236107D01*
X116056747Y-84216401D01*
X116073223Y-84198223D01*
X116091401Y-84181747D01*
X116111107Y-84167132D01*
X116132150Y-84154520D01*
X116154329Y-84144030D01*
X116177428Y-84135765D01*
X116201227Y-84129804D01*
X116225495Y-84126204D01*
X116249999Y-84125000D01*
X117150001Y-84125000D01*
X117174505Y-84126204D01*
X117174505Y-84126204D01*
G37*
D14*
X116700000Y-84700000D03*
D13*
G36*
X117174505Y-86176204D02*
G01*
X117198773Y-86179804D01*
X117222572Y-86185765D01*
X117245671Y-86194030D01*
X117267850Y-86204520D01*
X117288893Y-86217132D01*
X117308599Y-86231747D01*
X117326777Y-86248223D01*
X117343253Y-86266401D01*
X117357868Y-86286107D01*
X117370480Y-86307150D01*
X117380970Y-86329329D01*
X117389235Y-86352428D01*
X117395196Y-86376227D01*
X117398796Y-86400495D01*
X117400000Y-86424999D01*
X117400000Y-87075001D01*
X117398796Y-87099505D01*
X117395196Y-87123773D01*
X117389235Y-87147572D01*
X117380970Y-87170671D01*
X117370480Y-87192850D01*
X117357868Y-87213893D01*
X117343253Y-87233599D01*
X117326777Y-87251777D01*
X117308599Y-87268253D01*
X117288893Y-87282868D01*
X117267850Y-87295480D01*
X117245671Y-87305970D01*
X117222572Y-87314235D01*
X117198773Y-87320196D01*
X117174505Y-87323796D01*
X117150001Y-87325000D01*
X116249999Y-87325000D01*
X116225495Y-87323796D01*
X116201227Y-87320196D01*
X116177428Y-87314235D01*
X116154329Y-87305970D01*
X116132150Y-87295480D01*
X116111107Y-87282868D01*
X116091401Y-87268253D01*
X116073223Y-87251777D01*
X116056747Y-87233599D01*
X116042132Y-87213893D01*
X116029520Y-87192850D01*
X116019030Y-87170671D01*
X116010765Y-87147572D01*
X116004804Y-87123773D01*
X116001204Y-87099505D01*
X116000000Y-87075001D01*
X116000000Y-86424999D01*
X116001204Y-86400495D01*
X116004804Y-86376227D01*
X116010765Y-86352428D01*
X116019030Y-86329329D01*
X116029520Y-86307150D01*
X116042132Y-86286107D01*
X116056747Y-86266401D01*
X116073223Y-86248223D01*
X116091401Y-86231747D01*
X116111107Y-86217132D01*
X116132150Y-86204520D01*
X116154329Y-86194030D01*
X116177428Y-86185765D01*
X116201227Y-86179804D01*
X116225495Y-86176204D01*
X116249999Y-86175000D01*
X117150001Y-86175000D01*
X117174505Y-86176204D01*
X117174505Y-86176204D01*
G37*
D14*
X116700000Y-86750000D03*
D16*
X128010400Y-85044999D03*
X128010400Y-85695000D03*
X128010400Y-86345001D03*
X128010400Y-86995000D03*
X128010400Y-87644999D03*
X128010400Y-88295000D03*
X128010400Y-88944999D03*
X133700000Y-88945001D03*
X133700000Y-88295000D03*
X133700000Y-87645001D03*
X133700000Y-86995000D03*
X133700000Y-86345001D03*
X133700000Y-85695000D03*
X133700000Y-85045001D03*
D17*
X130855200Y-86995000D03*
D13*
G36*
X127299505Y-97276204D02*
G01*
X127323773Y-97279804D01*
X127347572Y-97285765D01*
X127370671Y-97294030D01*
X127392850Y-97304520D01*
X127413893Y-97317132D01*
X127433599Y-97331747D01*
X127451777Y-97348223D01*
X127468253Y-97366401D01*
X127482868Y-97386107D01*
X127495480Y-97407150D01*
X127505970Y-97429329D01*
X127514235Y-97452428D01*
X127520196Y-97476227D01*
X127523796Y-97500495D01*
X127525000Y-97524999D01*
X127525000Y-99275001D01*
X127523796Y-99299505D01*
X127520196Y-99323773D01*
X127514235Y-99347572D01*
X127505970Y-99370671D01*
X127495480Y-99392850D01*
X127482868Y-99413893D01*
X127468253Y-99433599D01*
X127451777Y-99451777D01*
X127433599Y-99468253D01*
X127413893Y-99482868D01*
X127392850Y-99495480D01*
X127370671Y-99505970D01*
X127347572Y-99514235D01*
X127323773Y-99520196D01*
X127299505Y-99523796D01*
X127275001Y-99525000D01*
X125224999Y-99525000D01*
X125200495Y-99523796D01*
X125176227Y-99520196D01*
X125152428Y-99514235D01*
X125129329Y-99505970D01*
X125107150Y-99495480D01*
X125086107Y-99482868D01*
X125066401Y-99468253D01*
X125048223Y-99451777D01*
X125031747Y-99433599D01*
X125017132Y-99413893D01*
X125004520Y-99392850D01*
X124994030Y-99370671D01*
X124985765Y-99347572D01*
X124979804Y-99323773D01*
X124976204Y-99299505D01*
X124975000Y-99275001D01*
X124975000Y-97524999D01*
X124976204Y-97500495D01*
X124979804Y-97476227D01*
X124985765Y-97452428D01*
X124994030Y-97429329D01*
X125004520Y-97407150D01*
X125017132Y-97386107D01*
X125031747Y-97366401D01*
X125048223Y-97348223D01*
X125066401Y-97331747D01*
X125086107Y-97317132D01*
X125107150Y-97304520D01*
X125129329Y-97294030D01*
X125152428Y-97285765D01*
X125176227Y-97279804D01*
X125200495Y-97276204D01*
X125224999Y-97275000D01*
X127275001Y-97275000D01*
X127299505Y-97276204D01*
X127299505Y-97276204D01*
G37*
D18*
X126250000Y-98400000D03*
D13*
G36*
X127299505Y-90876204D02*
G01*
X127323773Y-90879804D01*
X127347572Y-90885765D01*
X127370671Y-90894030D01*
X127392850Y-90904520D01*
X127413893Y-90917132D01*
X127433599Y-90931747D01*
X127451777Y-90948223D01*
X127468253Y-90966401D01*
X127482868Y-90986107D01*
X127495480Y-91007150D01*
X127505970Y-91029329D01*
X127514235Y-91052428D01*
X127520196Y-91076227D01*
X127523796Y-91100495D01*
X127525000Y-91124999D01*
X127525000Y-92875001D01*
X127523796Y-92899505D01*
X127520196Y-92923773D01*
X127514235Y-92947572D01*
X127505970Y-92970671D01*
X127495480Y-92992850D01*
X127482868Y-93013893D01*
X127468253Y-93033599D01*
X127451777Y-93051777D01*
X127433599Y-93068253D01*
X127413893Y-93082868D01*
X127392850Y-93095480D01*
X127370671Y-93105970D01*
X127347572Y-93114235D01*
X127323773Y-93120196D01*
X127299505Y-93123796D01*
X127275001Y-93125000D01*
X125224999Y-93125000D01*
X125200495Y-93123796D01*
X125176227Y-93120196D01*
X125152428Y-93114235D01*
X125129329Y-93105970D01*
X125107150Y-93095480D01*
X125086107Y-93082868D01*
X125066401Y-93068253D01*
X125048223Y-93051777D01*
X125031747Y-93033599D01*
X125017132Y-93013893D01*
X125004520Y-92992850D01*
X124994030Y-92970671D01*
X124985765Y-92947572D01*
X124979804Y-92923773D01*
X124976204Y-92899505D01*
X124975000Y-92875001D01*
X124975000Y-91124999D01*
X124976204Y-91100495D01*
X124979804Y-91076227D01*
X124985765Y-91052428D01*
X124994030Y-91029329D01*
X125004520Y-91007150D01*
X125017132Y-90986107D01*
X125031747Y-90966401D01*
X125048223Y-90948223D01*
X125066401Y-90931747D01*
X125086107Y-90917132D01*
X125107150Y-90904520D01*
X125129329Y-90894030D01*
X125152428Y-90885765D01*
X125176227Y-90879804D01*
X125200495Y-90876204D01*
X125224999Y-90875000D01*
X127275001Y-90875000D01*
X127299505Y-90876204D01*
X127299505Y-90876204D01*
G37*
D18*
X126250000Y-92000000D03*
D13*
G36*
X148724505Y-85876204D02*
G01*
X148748773Y-85879804D01*
X148772572Y-85885765D01*
X148795671Y-85894030D01*
X148817850Y-85904520D01*
X148838893Y-85917132D01*
X148858599Y-85931747D01*
X148876777Y-85948223D01*
X148893253Y-85966401D01*
X148907868Y-85986107D01*
X148920480Y-86007150D01*
X148930970Y-86029329D01*
X148939235Y-86052428D01*
X148945196Y-86076227D01*
X148948796Y-86100495D01*
X148950000Y-86124999D01*
X148950000Y-88175001D01*
X148948796Y-88199505D01*
X148945196Y-88223773D01*
X148939235Y-88247572D01*
X148930970Y-88270671D01*
X148920480Y-88292850D01*
X148907868Y-88313893D01*
X148893253Y-88333599D01*
X148876777Y-88351777D01*
X148858599Y-88368253D01*
X148838893Y-88382868D01*
X148817850Y-88395480D01*
X148795671Y-88405970D01*
X148772572Y-88414235D01*
X148748773Y-88420196D01*
X148724505Y-88423796D01*
X148700001Y-88425000D01*
X146949999Y-88425000D01*
X146925495Y-88423796D01*
X146901227Y-88420196D01*
X146877428Y-88414235D01*
X146854329Y-88405970D01*
X146832150Y-88395480D01*
X146811107Y-88382868D01*
X146791401Y-88368253D01*
X146773223Y-88351777D01*
X146756747Y-88333599D01*
X146742132Y-88313893D01*
X146729520Y-88292850D01*
X146719030Y-88270671D01*
X146710765Y-88247572D01*
X146704804Y-88223773D01*
X146701204Y-88199505D01*
X146700000Y-88175001D01*
X146700000Y-86124999D01*
X146701204Y-86100495D01*
X146704804Y-86076227D01*
X146710765Y-86052428D01*
X146719030Y-86029329D01*
X146729520Y-86007150D01*
X146742132Y-85986107D01*
X146756747Y-85966401D01*
X146773223Y-85948223D01*
X146791401Y-85931747D01*
X146811107Y-85917132D01*
X146832150Y-85904520D01*
X146854329Y-85894030D01*
X146877428Y-85885765D01*
X146901227Y-85879804D01*
X146925495Y-85876204D01*
X146949999Y-85875000D01*
X148700001Y-85875000D01*
X148724505Y-85876204D01*
X148724505Y-85876204D01*
G37*
D18*
X147825000Y-87150000D03*
D13*
G36*
X142324505Y-85876204D02*
G01*
X142348773Y-85879804D01*
X142372572Y-85885765D01*
X142395671Y-85894030D01*
X142417850Y-85904520D01*
X142438893Y-85917132D01*
X142458599Y-85931747D01*
X142476777Y-85948223D01*
X142493253Y-85966401D01*
X142507868Y-85986107D01*
X142520480Y-86007150D01*
X142530970Y-86029329D01*
X142539235Y-86052428D01*
X142545196Y-86076227D01*
X142548796Y-86100495D01*
X142550000Y-86124999D01*
X142550000Y-88175001D01*
X142548796Y-88199505D01*
X142545196Y-88223773D01*
X142539235Y-88247572D01*
X142530970Y-88270671D01*
X142520480Y-88292850D01*
X142507868Y-88313893D01*
X142493253Y-88333599D01*
X142476777Y-88351777D01*
X142458599Y-88368253D01*
X142438893Y-88382868D01*
X142417850Y-88395480D01*
X142395671Y-88405970D01*
X142372572Y-88414235D01*
X142348773Y-88420196D01*
X142324505Y-88423796D01*
X142300001Y-88425000D01*
X140549999Y-88425000D01*
X140525495Y-88423796D01*
X140501227Y-88420196D01*
X140477428Y-88414235D01*
X140454329Y-88405970D01*
X140432150Y-88395480D01*
X140411107Y-88382868D01*
X140391401Y-88368253D01*
X140373223Y-88351777D01*
X140356747Y-88333599D01*
X140342132Y-88313893D01*
X140329520Y-88292850D01*
X140319030Y-88270671D01*
X140310765Y-88247572D01*
X140304804Y-88223773D01*
X140301204Y-88199505D01*
X140300000Y-88175001D01*
X140300000Y-86124999D01*
X140301204Y-86100495D01*
X140304804Y-86076227D01*
X140310765Y-86052428D01*
X140319030Y-86029329D01*
X140329520Y-86007150D01*
X140342132Y-85986107D01*
X140356747Y-85966401D01*
X140373223Y-85948223D01*
X140391401Y-85931747D01*
X140411107Y-85917132D01*
X140432150Y-85904520D01*
X140454329Y-85894030D01*
X140477428Y-85885765D01*
X140501227Y-85879804D01*
X140525495Y-85876204D01*
X140549999Y-85875000D01*
X142300001Y-85875000D01*
X142324505Y-85876204D01*
X142324505Y-85876204D01*
G37*
D18*
X141425000Y-87150000D03*
D19*
X116700000Y-82436000D03*
D20*
X151765000Y-87122000D03*
X113919000Y-89789000D03*
D21*
X124900000Y-79700000D02*
X128010400Y-82810400D01*
X116700000Y-79700000D02*
X124900000Y-79700000D01*
X116700000Y-84700000D02*
X116700000Y-82436000D01*
X128010400Y-85044999D02*
X128010400Y-82810400D01*
D22*
X124968000Y-86233000D02*
X124968000Y-85217000D01*
X125730000Y-86995000D02*
X124968000Y-86233000D01*
X128010400Y-86995000D02*
X125730000Y-86995000D01*
D21*
X147825000Y-85775000D02*
X147828000Y-85772000D01*
X147825000Y-87150000D02*
X147825000Y-85775000D01*
X147828000Y-85772000D02*
X147828000Y-82804000D01*
X147828000Y-82804000D02*
X146304000Y-81280000D01*
X146304000Y-81280000D02*
X135382000Y-81280000D01*
X133700000Y-84460801D02*
X133700000Y-85045001D01*
X133700000Y-82962000D02*
X133700000Y-84460801D01*
X135382000Y-81280000D02*
X133700000Y-82962000D01*
D23*
X116700000Y-86750000D02*
X116700000Y-89268000D01*
X116400000Y-93375000D02*
X116400000Y-91127000D01*
D24*
G36*
X116097236Y-88971842D02*
G01*
X116116482Y-88987636D01*
X116138438Y-88999371D01*
X116181799Y-89017332D01*
X116205623Y-89024560D01*
X116230400Y-89027000D01*
X123799600Y-89027000D01*
X123824376Y-89024560D01*
X123848201Y-89017332D01*
X123891562Y-88999371D01*
X123913519Y-88987635D01*
X123932764Y-88971842D01*
X125147606Y-87757000D01*
X125687336Y-87757000D01*
X125701241Y-87760851D01*
X126277879Y-88106834D01*
X126309320Y-88120324D01*
X126356500Y-88133392D01*
X126390400Y-88138000D01*
X128778000Y-88138000D01*
X128778000Y-93599000D01*
X123884483Y-93599000D01*
X122033825Y-91378210D01*
X122016089Y-91360738D01*
X121990129Y-91344503D01*
X121948468Y-91324990D01*
X121924995Y-91316691D01*
X121894600Y-91313000D01*
X111812606Y-91313000D01*
X109327764Y-88828158D01*
X109308518Y-88812364D01*
X109286562Y-88800629D01*
X109243201Y-88782668D01*
X109219377Y-88775440D01*
X109194600Y-88773000D01*
X105537000Y-88773000D01*
X105537000Y-83947000D01*
X111072394Y-83947000D01*
X116097236Y-88971842D01*
X116097236Y-88971842D01*
G37*
X116097236Y-88971842D02*
X116116482Y-88987636D01*
X116138438Y-88999371D01*
X116181799Y-89017332D01*
X116205623Y-89024560D01*
X116230400Y-89027000D01*
X123799600Y-89027000D01*
X123824376Y-89024560D01*
X123848201Y-89017332D01*
X123891562Y-88999371D01*
X123913519Y-88987635D01*
X123932764Y-88971842D01*
X125147606Y-87757000D01*
X125687336Y-87757000D01*
X125701241Y-87760851D01*
X126277879Y-88106834D01*
X126309320Y-88120324D01*
X126356500Y-88133392D01*
X126390400Y-88138000D01*
X128778000Y-88138000D01*
X128778000Y-93599000D01*
X123884483Y-93599000D01*
X122033825Y-91378210D01*
X122016089Y-91360738D01*
X121990129Y-91344503D01*
X121948468Y-91324990D01*
X121924995Y-91316691D01*
X121894600Y-91313000D01*
X111812606Y-91313000D01*
X109327764Y-88828158D01*
X109308518Y-88812364D01*
X109286562Y-88800629D01*
X109243201Y-88782668D01*
X109219377Y-88775440D01*
X109194600Y-88773000D01*
X105537000Y-88773000D01*
X105537000Y-83947000D01*
X111072394Y-83947000D01*
X116097236Y-88971842D01*
G36*
X138811000Y-89808395D02*
G01*
X138811000Y-98066577D01*
X132715000Y-98066577D01*
X132715000Y-88004240D01*
X132715594Y-88005351D01*
X132756457Y-88055144D01*
X132806250Y-88096007D01*
X132863057Y-88126371D01*
X132924697Y-88145069D01*
X132988800Y-88151383D01*
X134411200Y-88151383D01*
X134475303Y-88145069D01*
X134536943Y-88126371D01*
X134593750Y-88096007D01*
X134643543Y-88055144D01*
X134684406Y-88005351D01*
X134714770Y-87948544D01*
X134733468Y-87886904D01*
X134739782Y-87822801D01*
X134739782Y-87666203D01*
X135094022Y-87666203D01*
X138811000Y-89808395D01*
X138811000Y-89808395D01*
G37*
X138811000Y-89808395D02*
X138811000Y-98066577D01*
X132715000Y-98066577D01*
X132715000Y-88004240D01*
X132715594Y-88005351D01*
X132756457Y-88055144D01*
X132806250Y-88096007D01*
X132863057Y-88126371D01*
X132924697Y-88145069D01*
X132988800Y-88151383D01*
X134411200Y-88151383D01*
X134475303Y-88145069D01*
X134536943Y-88126371D01*
X134593750Y-88096007D01*
X134643543Y-88055144D01*
X134684406Y-88005351D01*
X134714770Y-87948544D01*
X134733468Y-87886904D01*
X134739782Y-87822801D01*
X134739782Y-87666203D01*
X135094022Y-87666203D01*
X138811000Y-89808395D01*
G36*
X148463000Y-85585300D02*
G01*
X148465440Y-85610076D01*
X148472667Y-85633901D01*
X148484403Y-85655857D01*
X148500197Y-85675103D01*
X148512897Y-85687803D01*
X148532143Y-85703597D01*
X148554099Y-85715333D01*
X148577924Y-85722560D01*
X148602700Y-85725000D01*
X152387300Y-85725000D01*
X152412076Y-85722560D01*
X152435900Y-85715333D01*
X152457580Y-85706353D01*
X152479537Y-85694617D01*
X152498783Y-85678823D01*
X152960606Y-85217000D01*
X160909000Y-85217000D01*
X160909000Y-89027000D01*
X151396700Y-89027000D01*
X151371924Y-89029440D01*
X151348099Y-89036667D01*
X151326143Y-89048403D01*
X151306897Y-89064197D01*
X151294197Y-89076897D01*
X151278403Y-89096143D01*
X151266667Y-89118099D01*
X151259440Y-89141924D01*
X151257000Y-89166700D01*
X151257000Y-95451394D01*
X149045394Y-97663000D01*
X141605000Y-97663000D01*
X141605000Y-90043000D01*
X146291300Y-90043000D01*
X146316076Y-90040560D01*
X146339901Y-90033333D01*
X146361857Y-90021597D01*
X146381103Y-90005803D01*
X146393803Y-89993103D01*
X146409597Y-89973857D01*
X146421333Y-89951901D01*
X146428560Y-89928076D01*
X146431000Y-89903300D01*
X146431000Y-84201000D01*
X148463000Y-84201000D01*
X148463000Y-85585300D01*
X148463000Y-85585300D01*
G37*
X148463000Y-85585300D02*
X148465440Y-85610076D01*
X148472667Y-85633901D01*
X148484403Y-85655857D01*
X148500197Y-85675103D01*
X148512897Y-85687803D01*
X148532143Y-85703597D01*
X148554099Y-85715333D01*
X148577924Y-85722560D01*
X148602700Y-85725000D01*
X152387300Y-85725000D01*
X152412076Y-85722560D01*
X152435900Y-85715333D01*
X152457580Y-85706353D01*
X152479537Y-85694617D01*
X152498783Y-85678823D01*
X152960606Y-85217000D01*
X160909000Y-85217000D01*
X160909000Y-89027000D01*
X151396700Y-89027000D01*
X151371924Y-89029440D01*
X151348099Y-89036667D01*
X151326143Y-89048403D01*
X151306897Y-89064197D01*
X151294197Y-89076897D01*
X151278403Y-89096143D01*
X151266667Y-89118099D01*
X151259440Y-89141924D01*
X151257000Y-89166700D01*
X151257000Y-95451394D01*
X149045394Y-97663000D01*
X141605000Y-97663000D01*
X141605000Y-90043000D01*
X146291300Y-90043000D01*
X146316076Y-90040560D01*
X146339901Y-90033333D01*
X146361857Y-90021597D01*
X146381103Y-90005803D01*
X146393803Y-89993103D01*
X146409597Y-89973857D01*
X146421333Y-89951901D01*
X146428560Y-89928076D01*
X146431000Y-89903300D01*
X146431000Y-84201000D01*
X148463000Y-84201000D01*
X148463000Y-85585300D01*
G36*
X164719000Y-101169508D02*
G01*
X140022729Y-101219000D01*
X101854000Y-101219000D01*
X101854000Y-99073335D01*
X102132493Y-99073335D01*
X102132493Y-100965635D01*
X116053507Y-100965635D01*
X116053507Y-99073335D01*
X102132493Y-99073335D01*
X101854000Y-99073335D01*
X101854000Y-93049999D01*
X115419249Y-93049999D01*
X115419249Y-93700001D01*
X115429447Y-93803545D01*
X115459650Y-93903110D01*
X115508697Y-93994870D01*
X115574702Y-94075298D01*
X115655130Y-94141303D01*
X115746890Y-94190350D01*
X115846455Y-94220553D01*
X115949999Y-94230751D01*
X116071022Y-94230751D01*
X116220746Y-94276169D01*
X116400000Y-94293824D01*
X116579253Y-94276169D01*
X116728977Y-94230751D01*
X116850001Y-94230751D01*
X116953545Y-94220553D01*
X117053110Y-94190350D01*
X117144870Y-94141303D01*
X117225298Y-94075298D01*
X117291303Y-93994870D01*
X117340350Y-93903110D01*
X117348877Y-93875000D01*
X136046418Y-93875000D01*
X136046418Y-97275000D01*
X136052732Y-97339103D01*
X136071430Y-97400743D01*
X136101794Y-97457550D01*
X136142657Y-97507343D01*
X136192450Y-97548206D01*
X136249257Y-97578570D01*
X136310897Y-97597268D01*
X136375000Y-97603582D01*
X138225000Y-97603582D01*
X138289103Y-97597268D01*
X138350743Y-97578570D01*
X138407550Y-97548206D01*
X138457343Y-97507343D01*
X138498206Y-97457550D01*
X138528570Y-97400743D01*
X138547268Y-97339103D01*
X138553582Y-97275000D01*
X138553582Y-93875000D01*
X141644249Y-93875000D01*
X141644249Y-97275000D01*
X141649644Y-97329772D01*
X141665620Y-97382439D01*
X141691564Y-97430977D01*
X141726479Y-97473521D01*
X141769023Y-97508436D01*
X141817561Y-97534380D01*
X141870228Y-97550356D01*
X141925000Y-97555751D01*
X143775000Y-97555751D01*
X143829772Y-97550356D01*
X143882439Y-97534380D01*
X143930977Y-97508436D01*
X143973521Y-97473521D01*
X144008436Y-97430977D01*
X144034380Y-97382439D01*
X144050356Y-97329772D01*
X144055751Y-97275000D01*
X144055751Y-93875000D01*
X144050356Y-93820228D01*
X144034380Y-93767561D01*
X144008436Y-93719023D01*
X143973521Y-93676479D01*
X143930977Y-93641564D01*
X143882439Y-93615620D01*
X143829772Y-93599644D01*
X143775000Y-93594249D01*
X141925000Y-93594249D01*
X141870228Y-93599644D01*
X141817561Y-93615620D01*
X141769023Y-93641564D01*
X141726479Y-93676479D01*
X141691564Y-93719023D01*
X141665620Y-93767561D01*
X141649644Y-93820228D01*
X141644249Y-93875000D01*
X138553582Y-93875000D01*
X138547268Y-93810897D01*
X138528570Y-93749257D01*
X138498206Y-93692450D01*
X138457343Y-93642657D01*
X138407550Y-93601794D01*
X138350743Y-93571430D01*
X138289103Y-93552732D01*
X138225000Y-93546418D01*
X136375000Y-93546418D01*
X136310897Y-93552732D01*
X136249257Y-93571430D01*
X136192450Y-93601794D01*
X136142657Y-93642657D01*
X136101794Y-93692450D01*
X136071430Y-93749257D01*
X136052732Y-93810897D01*
X136046418Y-93875000D01*
X117348877Y-93875000D01*
X117370553Y-93803545D01*
X117380751Y-93700001D01*
X117380751Y-93049999D01*
X117370553Y-92946455D01*
X117340350Y-92846890D01*
X117314400Y-92798341D01*
X117314400Y-91124999D01*
X124694249Y-91124999D01*
X124694249Y-92875001D01*
X124704447Y-92978545D01*
X124734650Y-93078110D01*
X124783697Y-93169870D01*
X124849702Y-93250298D01*
X124930130Y-93316303D01*
X125021890Y-93365350D01*
X125121455Y-93395553D01*
X125224999Y-93405751D01*
X127275001Y-93405751D01*
X127378545Y-93395553D01*
X127478110Y-93365350D01*
X127569870Y-93316303D01*
X127650298Y-93250298D01*
X127716303Y-93169870D01*
X127765350Y-93078110D01*
X127795553Y-92978545D01*
X127805751Y-92875001D01*
X127805751Y-91124999D01*
X127795553Y-91021455D01*
X127765350Y-90921890D01*
X127716303Y-90830130D01*
X127650298Y-90749702D01*
X127569870Y-90683697D01*
X127478110Y-90634650D01*
X127378545Y-90604447D01*
X127275001Y-90594249D01*
X125224999Y-90594249D01*
X125121455Y-90604447D01*
X125021890Y-90634650D01*
X124930130Y-90683697D01*
X124849702Y-90749702D01*
X124783697Y-90830130D01*
X124734650Y-90921890D01*
X124704447Y-91021455D01*
X124694249Y-91124999D01*
X117314400Y-91124999D01*
X117314400Y-91082082D01*
X117301169Y-90947746D01*
X117248883Y-90775381D01*
X117163974Y-90616529D01*
X117049707Y-90477293D01*
X116910471Y-90363026D01*
X116751619Y-90278117D01*
X116579254Y-90225831D01*
X116400000Y-90208176D01*
X116220747Y-90225831D01*
X116048382Y-90278117D01*
X115889530Y-90363026D01*
X115750294Y-90477293D01*
X115636027Y-90616529D01*
X115551118Y-90775381D01*
X115498832Y-90947746D01*
X115485601Y-91082082D01*
X115485600Y-92798341D01*
X115459650Y-92846890D01*
X115429447Y-92946455D01*
X115419249Y-93049999D01*
X101854000Y-93049999D01*
X101854000Y-89686431D01*
X112877600Y-89686431D01*
X112877600Y-89891569D01*
X112917620Y-90092765D01*
X112996123Y-90282288D01*
X113110092Y-90452854D01*
X113255146Y-90597908D01*
X113425712Y-90711877D01*
X113615235Y-90790380D01*
X113816431Y-90830400D01*
X114021569Y-90830400D01*
X114222765Y-90790380D01*
X114412288Y-90711877D01*
X114582854Y-90597908D01*
X114727908Y-90452854D01*
X114841877Y-90282288D01*
X114920380Y-90092765D01*
X114960400Y-89891569D01*
X114960400Y-89686431D01*
X114920380Y-89485235D01*
X114841877Y-89295712D01*
X114727908Y-89125146D01*
X114582854Y-88980092D01*
X114412288Y-88866123D01*
X114222765Y-88787620D01*
X114021569Y-88747600D01*
X113816431Y-88747600D01*
X113615235Y-88787620D01*
X113425712Y-88866123D01*
X113255146Y-88980092D01*
X113110092Y-89125146D01*
X112996123Y-89295712D01*
X112917620Y-89485235D01*
X112877600Y-89686431D01*
X101854000Y-89686431D01*
X101854000Y-86394443D01*
X106270600Y-86394443D01*
X106270600Y-86705557D01*
X106331295Y-87010694D01*
X106450354Y-87298126D01*
X106623200Y-87556809D01*
X106843191Y-87776800D01*
X107101874Y-87949646D01*
X107389306Y-88068705D01*
X107694443Y-88129400D01*
X108005557Y-88129400D01*
X108310694Y-88068705D01*
X108598126Y-87949646D01*
X108856809Y-87776800D01*
X109076800Y-87556809D01*
X109249646Y-87298126D01*
X109368705Y-87010694D01*
X109429400Y-86705557D01*
X109429400Y-86424999D01*
X115719249Y-86424999D01*
X115719249Y-87075001D01*
X115729447Y-87178545D01*
X115759650Y-87278110D01*
X115785600Y-87326659D01*
X115785601Y-89312918D01*
X115798832Y-89447254D01*
X115851118Y-89619619D01*
X115936027Y-89778471D01*
X116050294Y-89917707D01*
X116189530Y-90031974D01*
X116348382Y-90116883D01*
X116520747Y-90169169D01*
X116700000Y-90186824D01*
X116879254Y-90169169D01*
X117051619Y-90116883D01*
X117210471Y-90031974D01*
X117349707Y-89917707D01*
X117463974Y-89778471D01*
X117548883Y-89619619D01*
X117601169Y-89447254D01*
X117614400Y-89312918D01*
X117614400Y-87326659D01*
X117640350Y-87278110D01*
X117670553Y-87178545D01*
X117680751Y-87075001D01*
X117680751Y-86424999D01*
X117670553Y-86321455D01*
X117640350Y-86221890D01*
X117591303Y-86130130D01*
X117525298Y-86049702D01*
X117444870Y-85983697D01*
X117353110Y-85934650D01*
X117253545Y-85904447D01*
X117150001Y-85894249D01*
X117028977Y-85894249D01*
X116879253Y-85848831D01*
X116700000Y-85831176D01*
X116520746Y-85848831D01*
X116371022Y-85894249D01*
X116249999Y-85894249D01*
X116146455Y-85904447D01*
X116046890Y-85934650D01*
X115955130Y-85983697D01*
X115874702Y-86049702D01*
X115808697Y-86130130D01*
X115759650Y-86221890D01*
X115729447Y-86321455D01*
X115719249Y-86424999D01*
X109429400Y-86424999D01*
X109429400Y-86394443D01*
X109368705Y-86089306D01*
X109249646Y-85801874D01*
X109076800Y-85543191D01*
X108856809Y-85323200D01*
X108598126Y-85150354D01*
X108310694Y-85031295D01*
X108005557Y-84970600D01*
X107694443Y-84970600D01*
X107389306Y-85031295D01*
X107101874Y-85150354D01*
X106843191Y-85323200D01*
X106623200Y-85543191D01*
X106450354Y-85801874D01*
X106331295Y-86089306D01*
X106270600Y-86394443D01*
X101854000Y-86394443D01*
X101854000Y-84374999D01*
X115671418Y-84374999D01*
X115671418Y-85025001D01*
X115682535Y-85137877D01*
X115715460Y-85246414D01*
X115768926Y-85346443D01*
X115840880Y-85434120D01*
X115928557Y-85506074D01*
X116028586Y-85559540D01*
X116137123Y-85592465D01*
X116249999Y-85603582D01*
X117150001Y-85603582D01*
X117262877Y-85592465D01*
X117371414Y-85559540D01*
X117471443Y-85506074D01*
X117559120Y-85434120D01*
X117631074Y-85346443D01*
X117684540Y-85246414D01*
X117717465Y-85137877D01*
X117728582Y-85025001D01*
X117728582Y-84766999D01*
X124064418Y-84766999D01*
X124064418Y-85667001D01*
X124075535Y-85779877D01*
X124108460Y-85888414D01*
X124161926Y-85988443D01*
X124233880Y-86076120D01*
X124321557Y-86148074D01*
X124421586Y-86201540D01*
X124487413Y-86221509D01*
X124486281Y-86233000D01*
X124488600Y-86256545D01*
X124495537Y-86326978D01*
X124522950Y-86417345D01*
X124567465Y-86500629D01*
X124627373Y-86573627D01*
X124645670Y-86588643D01*
X125374361Y-87317335D01*
X125389373Y-87335627D01*
X125431098Y-87369870D01*
X125462371Y-87395535D01*
X125545654Y-87440050D01*
X125636021Y-87467463D01*
X125730000Y-87476719D01*
X125753545Y-87474400D01*
X127018449Y-87474400D01*
X127018449Y-87822799D01*
X127023844Y-87877571D01*
X127039820Y-87930238D01*
X127061073Y-87970000D01*
X127039820Y-88009761D01*
X127023844Y-88062428D01*
X127018449Y-88117200D01*
X127018449Y-88472800D01*
X127023844Y-88527572D01*
X127039820Y-88580239D01*
X127061072Y-88620000D01*
X127039820Y-88659760D01*
X127023844Y-88712427D01*
X127018449Y-88767199D01*
X127018449Y-89122799D01*
X127023844Y-89177571D01*
X127039820Y-89230238D01*
X127065764Y-89278776D01*
X127100679Y-89321320D01*
X127143223Y-89356235D01*
X127191761Y-89382179D01*
X127244428Y-89398155D01*
X127299200Y-89403550D01*
X128721600Y-89403550D01*
X128776372Y-89398155D01*
X128829039Y-89382179D01*
X128877577Y-89356235D01*
X128920121Y-89321320D01*
X128955036Y-89278776D01*
X128980980Y-89230238D01*
X128996956Y-89177571D01*
X129002351Y-89122799D01*
X129002351Y-88767199D01*
X128996956Y-88712427D01*
X128980980Y-88659760D01*
X128959728Y-88620000D01*
X128980980Y-88580239D01*
X128996956Y-88527572D01*
X129002351Y-88472800D01*
X129002351Y-88117200D01*
X132660218Y-88117200D01*
X132660218Y-88472800D01*
X132666532Y-88536903D01*
X132685230Y-88598543D01*
X132696699Y-88620001D01*
X132685230Y-88641458D01*
X132666532Y-88703098D01*
X132660218Y-88767201D01*
X132660218Y-89122801D01*
X132666532Y-89186904D01*
X132685230Y-89248544D01*
X132715594Y-89305351D01*
X132756457Y-89355144D01*
X132806250Y-89396007D01*
X132863057Y-89426371D01*
X132924697Y-89445069D01*
X132988800Y-89451383D01*
X134411200Y-89451383D01*
X134475303Y-89445069D01*
X134536943Y-89426371D01*
X134593750Y-89396007D01*
X134643543Y-89355144D01*
X134684406Y-89305351D01*
X134714770Y-89248544D01*
X134733468Y-89186904D01*
X134739782Y-89122801D01*
X134739782Y-88767201D01*
X134733468Y-88703098D01*
X134714770Y-88641458D01*
X134703301Y-88620001D01*
X134714770Y-88598543D01*
X134733468Y-88536903D01*
X134739782Y-88472800D01*
X134739782Y-88117200D01*
X134733468Y-88053097D01*
X134714770Y-87991457D01*
X134684406Y-87934650D01*
X134643543Y-87884857D01*
X134593750Y-87843994D01*
X134536943Y-87813630D01*
X134475303Y-87794932D01*
X134411200Y-87788618D01*
X132988800Y-87788618D01*
X132924697Y-87794932D01*
X132863057Y-87813630D01*
X132806250Y-87843994D01*
X132756457Y-87884857D01*
X132715594Y-87934650D01*
X132685230Y-87991457D01*
X132666532Y-88053097D01*
X132660218Y-88117200D01*
X129002351Y-88117200D01*
X128996956Y-88062428D01*
X128980980Y-88009761D01*
X128959727Y-87970000D01*
X128980980Y-87930238D01*
X128996956Y-87877571D01*
X129002351Y-87822799D01*
X129002351Y-87467199D01*
X128996956Y-87412427D01*
X128983735Y-87368841D01*
X128994806Y-87355350D01*
X129025170Y-87298543D01*
X129043868Y-87236903D01*
X129050182Y-87172800D01*
X129050182Y-86817200D01*
X129043868Y-86753097D01*
X129025170Y-86691457D01*
X128994806Y-86634650D01*
X128953943Y-86584857D01*
X128904150Y-86543994D01*
X128847343Y-86513630D01*
X128785703Y-86494932D01*
X128721600Y-86488618D01*
X127299200Y-86488618D01*
X127235097Y-86494932D01*
X127173457Y-86513630D01*
X127169771Y-86515600D01*
X125928574Y-86515600D01*
X125579646Y-86166673D01*
X125614443Y-86148074D01*
X125702120Y-86076120D01*
X125774074Y-85988443D01*
X125827540Y-85888414D01*
X125860465Y-85779877D01*
X125871582Y-85667001D01*
X125871582Y-84766999D01*
X125860465Y-84654123D01*
X125827540Y-84545586D01*
X125774074Y-84445557D01*
X125702120Y-84357880D01*
X125614443Y-84285926D01*
X125514414Y-84232460D01*
X125405877Y-84199535D01*
X125293001Y-84188418D01*
X124642999Y-84188418D01*
X124530123Y-84199535D01*
X124421586Y-84232460D01*
X124321557Y-84285926D01*
X124233880Y-84357880D01*
X124161926Y-84445557D01*
X124108460Y-84545586D01*
X124075535Y-84654123D01*
X124064418Y-84766999D01*
X117728582Y-84766999D01*
X117728582Y-84374999D01*
X117717465Y-84262123D01*
X117684540Y-84153586D01*
X117631074Y-84053557D01*
X117559120Y-83965880D01*
X117471443Y-83893926D01*
X117371414Y-83840460D01*
X117262877Y-83807535D01*
X117230200Y-83804317D01*
X117230200Y-82933934D01*
X117264698Y-82899436D01*
X117344259Y-82780364D01*
X117399062Y-82648058D01*
X117427000Y-82507603D01*
X117427000Y-82364397D01*
X117399062Y-82223942D01*
X117344259Y-82091636D01*
X117264698Y-81972564D01*
X117163436Y-81871302D01*
X117044364Y-81791741D01*
X116912058Y-81736938D01*
X116771603Y-81709000D01*
X116628397Y-81709000D01*
X116487942Y-81736938D01*
X116355636Y-81791741D01*
X116236564Y-81871302D01*
X116135302Y-81972564D01*
X116055741Y-82091636D01*
X116000938Y-82223942D01*
X115973000Y-82364397D01*
X115973000Y-82507603D01*
X116000938Y-82648058D01*
X116055741Y-82780364D01*
X116135302Y-82899436D01*
X116169801Y-82933935D01*
X116169800Y-83804317D01*
X116137123Y-83807535D01*
X116028586Y-83840460D01*
X115928557Y-83893926D01*
X115840880Y-83965880D01*
X115768926Y-84053557D01*
X115715460Y-84153586D01*
X115682535Y-84262123D01*
X115671418Y-84374999D01*
X101854000Y-84374999D01*
X101854000Y-79249999D01*
X115796418Y-79249999D01*
X115796418Y-80150001D01*
X115807535Y-80262877D01*
X115840460Y-80371414D01*
X115893926Y-80471443D01*
X115965880Y-80559120D01*
X116053557Y-80631074D01*
X116153586Y-80684540D01*
X116262123Y-80717465D01*
X116374999Y-80728582D01*
X117025001Y-80728582D01*
X117137877Y-80717465D01*
X117246414Y-80684540D01*
X117346443Y-80631074D01*
X117434120Y-80559120D01*
X117506074Y-80471443D01*
X117559540Y-80371414D01*
X117592465Y-80262877D01*
X117595683Y-80230200D01*
X124680385Y-80230200D01*
X127480201Y-83030017D01*
X127480200Y-84538617D01*
X127299200Y-84538617D01*
X127235097Y-84544931D01*
X127173457Y-84563629D01*
X127116650Y-84593993D01*
X127066857Y-84634856D01*
X127025994Y-84684649D01*
X126995630Y-84741456D01*
X126976932Y-84803096D01*
X126970618Y-84867199D01*
X126970618Y-85222799D01*
X126976932Y-85286902D01*
X126995630Y-85348542D01*
X127025994Y-85405349D01*
X127037066Y-85418840D01*
X127023844Y-85462428D01*
X127018449Y-85517200D01*
X127018449Y-85872800D01*
X127023844Y-85927572D01*
X127039820Y-85980239D01*
X127065764Y-86028777D01*
X127100679Y-86071321D01*
X127143223Y-86106236D01*
X127191761Y-86132180D01*
X127244428Y-86148156D01*
X127299200Y-86153551D01*
X128721600Y-86153551D01*
X128776372Y-86148156D01*
X128829039Y-86132180D01*
X128877577Y-86106236D01*
X128920121Y-86071321D01*
X128955036Y-86028777D01*
X128980980Y-85980239D01*
X128996956Y-85927572D01*
X129002351Y-85872800D01*
X129002351Y-85517200D01*
X128996956Y-85462428D01*
X128983734Y-85418840D01*
X128994806Y-85405349D01*
X129025170Y-85348542D01*
X129043868Y-85286902D01*
X129050182Y-85222799D01*
X129050182Y-84867201D01*
X132708049Y-84867201D01*
X132708049Y-85222801D01*
X132713444Y-85277573D01*
X132729420Y-85330240D01*
X132750672Y-85370001D01*
X132729420Y-85409761D01*
X132713444Y-85462428D01*
X132708049Y-85517200D01*
X132708049Y-85872800D01*
X132713444Y-85927572D01*
X132729420Y-85980239D01*
X132750673Y-86020001D01*
X132729420Y-86059762D01*
X132713444Y-86112429D01*
X132708049Y-86167201D01*
X132708049Y-86522801D01*
X132713444Y-86577573D01*
X132729420Y-86630240D01*
X132755364Y-86678778D01*
X132790279Y-86721322D01*
X132832823Y-86756237D01*
X132881361Y-86782181D01*
X132934028Y-86798157D01*
X132988800Y-86803552D01*
X134411200Y-86803552D01*
X134465972Y-86798157D01*
X134518639Y-86782181D01*
X134567177Y-86756237D01*
X134609721Y-86721322D01*
X134644636Y-86678778D01*
X134670580Y-86630240D01*
X134686556Y-86577573D01*
X134691951Y-86522801D01*
X134691951Y-86167201D01*
X134686556Y-86112429D01*
X134670580Y-86059762D01*
X134649327Y-86020001D01*
X134670580Y-85980239D01*
X134686556Y-85927572D01*
X134691951Y-85872800D01*
X134691951Y-85517200D01*
X134686556Y-85462428D01*
X134670580Y-85409761D01*
X134649328Y-85370001D01*
X134670580Y-85330240D01*
X134686556Y-85277573D01*
X134691951Y-85222801D01*
X134691951Y-84867201D01*
X134686556Y-84812429D01*
X134670580Y-84759762D01*
X134644636Y-84711224D01*
X134609721Y-84668680D01*
X134567177Y-84633765D01*
X134518639Y-84607821D01*
X134465972Y-84591845D01*
X134411200Y-84586450D01*
X134182600Y-84586450D01*
X134182600Y-83161899D01*
X135581899Y-81762600D01*
X146104101Y-81762600D01*
X147345401Y-83003900D01*
X147345400Y-85594249D01*
X146949999Y-85594249D01*
X146846455Y-85604447D01*
X146746890Y-85634650D01*
X146655130Y-85683697D01*
X146574702Y-85749702D01*
X146508697Y-85830130D01*
X146459650Y-85921890D01*
X146429447Y-86021455D01*
X146419249Y-86124999D01*
X146419249Y-88175001D01*
X146429447Y-88278545D01*
X146459650Y-88378110D01*
X146508697Y-88469870D01*
X146574702Y-88550298D01*
X146655130Y-88616303D01*
X146746890Y-88665350D01*
X146846455Y-88695553D01*
X146949999Y-88705751D01*
X148700001Y-88705751D01*
X148803545Y-88695553D01*
X148903110Y-88665350D01*
X148994870Y-88616303D01*
X149075298Y-88550298D01*
X149141303Y-88469870D01*
X149190350Y-88378110D01*
X149220553Y-88278545D01*
X149230751Y-88175001D01*
X149230751Y-87019431D01*
X150723600Y-87019431D01*
X150723600Y-87224569D01*
X150763620Y-87425765D01*
X150842123Y-87615288D01*
X150956092Y-87785854D01*
X151101146Y-87930908D01*
X151271712Y-88044877D01*
X151461235Y-88123380D01*
X151662431Y-88163400D01*
X151867569Y-88163400D01*
X152068765Y-88123380D01*
X152258288Y-88044877D01*
X152428854Y-87930908D01*
X152573908Y-87785854D01*
X152687877Y-87615288D01*
X152766380Y-87425765D01*
X152806400Y-87224569D01*
X152806400Y-87019431D01*
X152795861Y-86966443D01*
X157424600Y-86966443D01*
X157424600Y-87277557D01*
X157485295Y-87582694D01*
X157604354Y-87870126D01*
X157777200Y-88128809D01*
X157997191Y-88348800D01*
X158255874Y-88521646D01*
X158543306Y-88640705D01*
X158848443Y-88701400D01*
X159159557Y-88701400D01*
X159464694Y-88640705D01*
X159752126Y-88521646D01*
X160010809Y-88348800D01*
X160230800Y-88128809D01*
X160403646Y-87870126D01*
X160522705Y-87582694D01*
X160583400Y-87277557D01*
X160583400Y-86966443D01*
X160522705Y-86661306D01*
X160403646Y-86373874D01*
X160230800Y-86115191D01*
X160010809Y-85895200D01*
X159752126Y-85722354D01*
X159464694Y-85603295D01*
X159159557Y-85542600D01*
X158848443Y-85542600D01*
X158543306Y-85603295D01*
X158255874Y-85722354D01*
X157997191Y-85895200D01*
X157777200Y-86115191D01*
X157604354Y-86373874D01*
X157485295Y-86661306D01*
X157424600Y-86966443D01*
X152795861Y-86966443D01*
X152766380Y-86818235D01*
X152687877Y-86628712D01*
X152573908Y-86458146D01*
X152428854Y-86313092D01*
X152258288Y-86199123D01*
X152068765Y-86120620D01*
X151867569Y-86080600D01*
X151662431Y-86080600D01*
X151461235Y-86120620D01*
X151271712Y-86199123D01*
X151101146Y-86313092D01*
X150956092Y-86458146D01*
X150842123Y-86628712D01*
X150763620Y-86818235D01*
X150723600Y-87019431D01*
X149230751Y-87019431D01*
X149230751Y-86124999D01*
X149220553Y-86021455D01*
X149190350Y-85921890D01*
X149141303Y-85830130D01*
X149075298Y-85749702D01*
X148994870Y-85683697D01*
X148903110Y-85634650D01*
X148803545Y-85604447D01*
X148700001Y-85594249D01*
X148310600Y-85594249D01*
X148310600Y-82827696D01*
X148312934Y-82803999D01*
X148310600Y-82780302D01*
X148310600Y-82780293D01*
X148303617Y-82709394D01*
X148276022Y-82618423D01*
X148231209Y-82534585D01*
X148170901Y-82461099D01*
X148152482Y-82445983D01*
X146662017Y-80955518D01*
X146646901Y-80937099D01*
X146573415Y-80876791D01*
X146489577Y-80831978D01*
X146398606Y-80804383D01*
X146327707Y-80797400D01*
X146327705Y-80797400D01*
X146304000Y-80795065D01*
X146280295Y-80797400D01*
X135405704Y-80797400D01*
X135381999Y-80795065D01*
X135358294Y-80797400D01*
X135358293Y-80797400D01*
X135287394Y-80804383D01*
X135196423Y-80831978D01*
X135112585Y-80876791D01*
X135039099Y-80937099D01*
X135023983Y-80955518D01*
X133375518Y-82603983D01*
X133357099Y-82619099D01*
X133296791Y-82692585D01*
X133251978Y-82776424D01*
X133224383Y-82867395D01*
X133219760Y-82914337D01*
X133215065Y-82962000D01*
X133217400Y-82985705D01*
X133217401Y-84437085D01*
X133217400Y-84437095D01*
X133217400Y-84586450D01*
X132988800Y-84586450D01*
X132934028Y-84591845D01*
X132881361Y-84607821D01*
X132832823Y-84633765D01*
X132790279Y-84668680D01*
X132755364Y-84711224D01*
X132729420Y-84759762D01*
X132713444Y-84812429D01*
X132708049Y-84867201D01*
X129050182Y-84867201D01*
X129050182Y-84867199D01*
X129043868Y-84803096D01*
X129025170Y-84741456D01*
X128994806Y-84684649D01*
X128953943Y-84634856D01*
X128904150Y-84593993D01*
X128847343Y-84563629D01*
X128785703Y-84544931D01*
X128721600Y-84538617D01*
X128540600Y-84538617D01*
X128540600Y-82836440D01*
X128543165Y-82810400D01*
X128540600Y-82784357D01*
X128532928Y-82706463D01*
X128502611Y-82606520D01*
X128453378Y-82514412D01*
X128387122Y-82433678D01*
X128366891Y-82417075D01*
X125293329Y-79343514D01*
X125276722Y-79323278D01*
X125195988Y-79257022D01*
X125103880Y-79207789D01*
X125003937Y-79177472D01*
X124926043Y-79169800D01*
X124926040Y-79169800D01*
X124900000Y-79167235D01*
X124873960Y-79169800D01*
X117595683Y-79169800D01*
X117592465Y-79137123D01*
X117559540Y-79028586D01*
X117506074Y-78928557D01*
X117434120Y-78840880D01*
X117346443Y-78768926D01*
X117246414Y-78715460D01*
X117137877Y-78682535D01*
X117025001Y-78671418D01*
X116374999Y-78671418D01*
X116262123Y-78682535D01*
X116153586Y-78715460D01*
X116053557Y-78768926D01*
X115965880Y-78840880D01*
X115893926Y-78928557D01*
X115840460Y-79028586D01*
X115807535Y-79137123D01*
X115796418Y-79249999D01*
X101854000Y-79249999D01*
X101854000Y-76200000D01*
X164719000Y-76200000D01*
X164719000Y-101169508D01*
X164719000Y-101169508D01*
G37*
X164719000Y-101169508D02*
X140022729Y-101219000D01*
X101854000Y-101219000D01*
X101854000Y-99073335D01*
X102132493Y-99073335D01*
X102132493Y-100965635D01*
X116053507Y-100965635D01*
X116053507Y-99073335D01*
X102132493Y-99073335D01*
X101854000Y-99073335D01*
X101854000Y-93049999D01*
X115419249Y-93049999D01*
X115419249Y-93700001D01*
X115429447Y-93803545D01*
X115459650Y-93903110D01*
X115508697Y-93994870D01*
X115574702Y-94075298D01*
X115655130Y-94141303D01*
X115746890Y-94190350D01*
X115846455Y-94220553D01*
X115949999Y-94230751D01*
X116071022Y-94230751D01*
X116220746Y-94276169D01*
X116400000Y-94293824D01*
X116579253Y-94276169D01*
X116728977Y-94230751D01*
X116850001Y-94230751D01*
X116953545Y-94220553D01*
X117053110Y-94190350D01*
X117144870Y-94141303D01*
X117225298Y-94075298D01*
X117291303Y-93994870D01*
X117340350Y-93903110D01*
X117348877Y-93875000D01*
X136046418Y-93875000D01*
X136046418Y-97275000D01*
X136052732Y-97339103D01*
X136071430Y-97400743D01*
X136101794Y-97457550D01*
X136142657Y-97507343D01*
X136192450Y-97548206D01*
X136249257Y-97578570D01*
X136310897Y-97597268D01*
X136375000Y-97603582D01*
X138225000Y-97603582D01*
X138289103Y-97597268D01*
X138350743Y-97578570D01*
X138407550Y-97548206D01*
X138457343Y-97507343D01*
X138498206Y-97457550D01*
X138528570Y-97400743D01*
X138547268Y-97339103D01*
X138553582Y-97275000D01*
X138553582Y-93875000D01*
X141644249Y-93875000D01*
X141644249Y-97275000D01*
X141649644Y-97329772D01*
X141665620Y-97382439D01*
X141691564Y-97430977D01*
X141726479Y-97473521D01*
X141769023Y-97508436D01*
X141817561Y-97534380D01*
X141870228Y-97550356D01*
X141925000Y-97555751D01*
X143775000Y-97555751D01*
X143829772Y-97550356D01*
X143882439Y-97534380D01*
X143930977Y-97508436D01*
X143973521Y-97473521D01*
X144008436Y-97430977D01*
X144034380Y-97382439D01*
X144050356Y-97329772D01*
X144055751Y-97275000D01*
X144055751Y-93875000D01*
X144050356Y-93820228D01*
X144034380Y-93767561D01*
X144008436Y-93719023D01*
X143973521Y-93676479D01*
X143930977Y-93641564D01*
X143882439Y-93615620D01*
X143829772Y-93599644D01*
X143775000Y-93594249D01*
X141925000Y-93594249D01*
X141870228Y-93599644D01*
X141817561Y-93615620D01*
X141769023Y-93641564D01*
X141726479Y-93676479D01*
X141691564Y-93719023D01*
X141665620Y-93767561D01*
X141649644Y-93820228D01*
X141644249Y-93875000D01*
X138553582Y-93875000D01*
X138547268Y-93810897D01*
X138528570Y-93749257D01*
X138498206Y-93692450D01*
X138457343Y-93642657D01*
X138407550Y-93601794D01*
X138350743Y-93571430D01*
X138289103Y-93552732D01*
X138225000Y-93546418D01*
X136375000Y-93546418D01*
X136310897Y-93552732D01*
X136249257Y-93571430D01*
X136192450Y-93601794D01*
X136142657Y-93642657D01*
X136101794Y-93692450D01*
X136071430Y-93749257D01*
X136052732Y-93810897D01*
X136046418Y-93875000D01*
X117348877Y-93875000D01*
X117370553Y-93803545D01*
X117380751Y-93700001D01*
X117380751Y-93049999D01*
X117370553Y-92946455D01*
X117340350Y-92846890D01*
X117314400Y-92798341D01*
X117314400Y-91124999D01*
X124694249Y-91124999D01*
X124694249Y-92875001D01*
X124704447Y-92978545D01*
X124734650Y-93078110D01*
X124783697Y-93169870D01*
X124849702Y-93250298D01*
X124930130Y-93316303D01*
X125021890Y-93365350D01*
X125121455Y-93395553D01*
X125224999Y-93405751D01*
X127275001Y-93405751D01*
X127378545Y-93395553D01*
X127478110Y-93365350D01*
X127569870Y-93316303D01*
X127650298Y-93250298D01*
X127716303Y-93169870D01*
X127765350Y-93078110D01*
X127795553Y-92978545D01*
X127805751Y-92875001D01*
X127805751Y-91124999D01*
X127795553Y-91021455D01*
X127765350Y-90921890D01*
X127716303Y-90830130D01*
X127650298Y-90749702D01*
X127569870Y-90683697D01*
X127478110Y-90634650D01*
X127378545Y-90604447D01*
X127275001Y-90594249D01*
X125224999Y-90594249D01*
X125121455Y-90604447D01*
X125021890Y-90634650D01*
X124930130Y-90683697D01*
X124849702Y-90749702D01*
X124783697Y-90830130D01*
X124734650Y-90921890D01*
X124704447Y-91021455D01*
X124694249Y-91124999D01*
X117314400Y-91124999D01*
X117314400Y-91082082D01*
X117301169Y-90947746D01*
X117248883Y-90775381D01*
X117163974Y-90616529D01*
X117049707Y-90477293D01*
X116910471Y-90363026D01*
X116751619Y-90278117D01*
X116579254Y-90225831D01*
X116400000Y-90208176D01*
X116220747Y-90225831D01*
X116048382Y-90278117D01*
X115889530Y-90363026D01*
X115750294Y-90477293D01*
X115636027Y-90616529D01*
X115551118Y-90775381D01*
X115498832Y-90947746D01*
X115485601Y-91082082D01*
X115485600Y-92798341D01*
X115459650Y-92846890D01*
X115429447Y-92946455D01*
X115419249Y-93049999D01*
X101854000Y-93049999D01*
X101854000Y-89686431D01*
X112877600Y-89686431D01*
X112877600Y-89891569D01*
X112917620Y-90092765D01*
X112996123Y-90282288D01*
X113110092Y-90452854D01*
X113255146Y-90597908D01*
X113425712Y-90711877D01*
X113615235Y-90790380D01*
X113816431Y-90830400D01*
X114021569Y-90830400D01*
X114222765Y-90790380D01*
X114412288Y-90711877D01*
X114582854Y-90597908D01*
X114727908Y-90452854D01*
X114841877Y-90282288D01*
X114920380Y-90092765D01*
X114960400Y-89891569D01*
X114960400Y-89686431D01*
X114920380Y-89485235D01*
X114841877Y-89295712D01*
X114727908Y-89125146D01*
X114582854Y-88980092D01*
X114412288Y-88866123D01*
X114222765Y-88787620D01*
X114021569Y-88747600D01*
X113816431Y-88747600D01*
X113615235Y-88787620D01*
X113425712Y-88866123D01*
X113255146Y-88980092D01*
X113110092Y-89125146D01*
X112996123Y-89295712D01*
X112917620Y-89485235D01*
X112877600Y-89686431D01*
X101854000Y-89686431D01*
X101854000Y-86394443D01*
X106270600Y-86394443D01*
X106270600Y-86705557D01*
X106331295Y-87010694D01*
X106450354Y-87298126D01*
X106623200Y-87556809D01*
X106843191Y-87776800D01*
X107101874Y-87949646D01*
X107389306Y-88068705D01*
X107694443Y-88129400D01*
X108005557Y-88129400D01*
X108310694Y-88068705D01*
X108598126Y-87949646D01*
X108856809Y-87776800D01*
X109076800Y-87556809D01*
X109249646Y-87298126D01*
X109368705Y-87010694D01*
X109429400Y-86705557D01*
X109429400Y-86424999D01*
X115719249Y-86424999D01*
X115719249Y-87075001D01*
X115729447Y-87178545D01*
X115759650Y-87278110D01*
X115785600Y-87326659D01*
X115785601Y-89312918D01*
X115798832Y-89447254D01*
X115851118Y-89619619D01*
X115936027Y-89778471D01*
X116050294Y-89917707D01*
X116189530Y-90031974D01*
X116348382Y-90116883D01*
X116520747Y-90169169D01*
X116700000Y-90186824D01*
X116879254Y-90169169D01*
X117051619Y-90116883D01*
X117210471Y-90031974D01*
X117349707Y-89917707D01*
X117463974Y-89778471D01*
X117548883Y-89619619D01*
X117601169Y-89447254D01*
X117614400Y-89312918D01*
X117614400Y-87326659D01*
X117640350Y-87278110D01*
X117670553Y-87178545D01*
X117680751Y-87075001D01*
X117680751Y-86424999D01*
X117670553Y-86321455D01*
X117640350Y-86221890D01*
X117591303Y-86130130D01*
X117525298Y-86049702D01*
X117444870Y-85983697D01*
X117353110Y-85934650D01*
X117253545Y-85904447D01*
X117150001Y-85894249D01*
X117028977Y-85894249D01*
X116879253Y-85848831D01*
X116700000Y-85831176D01*
X116520746Y-85848831D01*
X116371022Y-85894249D01*
X116249999Y-85894249D01*
X116146455Y-85904447D01*
X116046890Y-85934650D01*
X115955130Y-85983697D01*
X115874702Y-86049702D01*
X115808697Y-86130130D01*
X115759650Y-86221890D01*
X115729447Y-86321455D01*
X115719249Y-86424999D01*
X109429400Y-86424999D01*
X109429400Y-86394443D01*
X109368705Y-86089306D01*
X109249646Y-85801874D01*
X109076800Y-85543191D01*
X108856809Y-85323200D01*
X108598126Y-85150354D01*
X108310694Y-85031295D01*
X108005557Y-84970600D01*
X107694443Y-84970600D01*
X107389306Y-85031295D01*
X107101874Y-85150354D01*
X106843191Y-85323200D01*
X106623200Y-85543191D01*
X106450354Y-85801874D01*
X106331295Y-86089306D01*
X106270600Y-86394443D01*
X101854000Y-86394443D01*
X101854000Y-84374999D01*
X115671418Y-84374999D01*
X115671418Y-85025001D01*
X115682535Y-85137877D01*
X115715460Y-85246414D01*
X115768926Y-85346443D01*
X115840880Y-85434120D01*
X115928557Y-85506074D01*
X116028586Y-85559540D01*
X116137123Y-85592465D01*
X116249999Y-85603582D01*
X117150001Y-85603582D01*
X117262877Y-85592465D01*
X117371414Y-85559540D01*
X117471443Y-85506074D01*
X117559120Y-85434120D01*
X117631074Y-85346443D01*
X117684540Y-85246414D01*
X117717465Y-85137877D01*
X117728582Y-85025001D01*
X117728582Y-84766999D01*
X124064418Y-84766999D01*
X124064418Y-85667001D01*
X124075535Y-85779877D01*
X124108460Y-85888414D01*
X124161926Y-85988443D01*
X124233880Y-86076120D01*
X124321557Y-86148074D01*
X124421586Y-86201540D01*
X124487413Y-86221509D01*
X124486281Y-86233000D01*
X124488600Y-86256545D01*
X124495537Y-86326978D01*
X124522950Y-86417345D01*
X124567465Y-86500629D01*
X124627373Y-86573627D01*
X124645670Y-86588643D01*
X125374361Y-87317335D01*
X125389373Y-87335627D01*
X125431098Y-87369870D01*
X125462371Y-87395535D01*
X125545654Y-87440050D01*
X125636021Y-87467463D01*
X125730000Y-87476719D01*
X125753545Y-87474400D01*
X127018449Y-87474400D01*
X127018449Y-87822799D01*
X127023844Y-87877571D01*
X127039820Y-87930238D01*
X127061073Y-87970000D01*
X127039820Y-88009761D01*
X127023844Y-88062428D01*
X127018449Y-88117200D01*
X127018449Y-88472800D01*
X127023844Y-88527572D01*
X127039820Y-88580239D01*
X127061072Y-88620000D01*
X127039820Y-88659760D01*
X127023844Y-88712427D01*
X127018449Y-88767199D01*
X127018449Y-89122799D01*
X127023844Y-89177571D01*
X127039820Y-89230238D01*
X127065764Y-89278776D01*
X127100679Y-89321320D01*
X127143223Y-89356235D01*
X127191761Y-89382179D01*
X127244428Y-89398155D01*
X127299200Y-89403550D01*
X128721600Y-89403550D01*
X128776372Y-89398155D01*
X128829039Y-89382179D01*
X128877577Y-89356235D01*
X128920121Y-89321320D01*
X128955036Y-89278776D01*
X128980980Y-89230238D01*
X128996956Y-89177571D01*
X129002351Y-89122799D01*
X129002351Y-88767199D01*
X128996956Y-88712427D01*
X128980980Y-88659760D01*
X128959728Y-88620000D01*
X128980980Y-88580239D01*
X128996956Y-88527572D01*
X129002351Y-88472800D01*
X129002351Y-88117200D01*
X132660218Y-88117200D01*
X132660218Y-88472800D01*
X132666532Y-88536903D01*
X132685230Y-88598543D01*
X132696699Y-88620001D01*
X132685230Y-88641458D01*
X132666532Y-88703098D01*
X132660218Y-88767201D01*
X132660218Y-89122801D01*
X132666532Y-89186904D01*
X132685230Y-89248544D01*
X132715594Y-89305351D01*
X132756457Y-89355144D01*
X132806250Y-89396007D01*
X132863057Y-89426371D01*
X132924697Y-89445069D01*
X132988800Y-89451383D01*
X134411200Y-89451383D01*
X134475303Y-89445069D01*
X134536943Y-89426371D01*
X134593750Y-89396007D01*
X134643543Y-89355144D01*
X134684406Y-89305351D01*
X134714770Y-89248544D01*
X134733468Y-89186904D01*
X134739782Y-89122801D01*
X134739782Y-88767201D01*
X134733468Y-88703098D01*
X134714770Y-88641458D01*
X134703301Y-88620001D01*
X134714770Y-88598543D01*
X134733468Y-88536903D01*
X134739782Y-88472800D01*
X134739782Y-88117200D01*
X134733468Y-88053097D01*
X134714770Y-87991457D01*
X134684406Y-87934650D01*
X134643543Y-87884857D01*
X134593750Y-87843994D01*
X134536943Y-87813630D01*
X134475303Y-87794932D01*
X134411200Y-87788618D01*
X132988800Y-87788618D01*
X132924697Y-87794932D01*
X132863057Y-87813630D01*
X132806250Y-87843994D01*
X132756457Y-87884857D01*
X132715594Y-87934650D01*
X132685230Y-87991457D01*
X132666532Y-88053097D01*
X132660218Y-88117200D01*
X129002351Y-88117200D01*
X128996956Y-88062428D01*
X128980980Y-88009761D01*
X128959727Y-87970000D01*
X128980980Y-87930238D01*
X128996956Y-87877571D01*
X129002351Y-87822799D01*
X129002351Y-87467199D01*
X128996956Y-87412427D01*
X128983735Y-87368841D01*
X128994806Y-87355350D01*
X129025170Y-87298543D01*
X129043868Y-87236903D01*
X129050182Y-87172800D01*
X129050182Y-86817200D01*
X129043868Y-86753097D01*
X129025170Y-86691457D01*
X128994806Y-86634650D01*
X128953943Y-86584857D01*
X128904150Y-86543994D01*
X128847343Y-86513630D01*
X128785703Y-86494932D01*
X128721600Y-86488618D01*
X127299200Y-86488618D01*
X127235097Y-86494932D01*
X127173457Y-86513630D01*
X127169771Y-86515600D01*
X125928574Y-86515600D01*
X125579646Y-86166673D01*
X125614443Y-86148074D01*
X125702120Y-86076120D01*
X125774074Y-85988443D01*
X125827540Y-85888414D01*
X125860465Y-85779877D01*
X125871582Y-85667001D01*
X125871582Y-84766999D01*
X125860465Y-84654123D01*
X125827540Y-84545586D01*
X125774074Y-84445557D01*
X125702120Y-84357880D01*
X125614443Y-84285926D01*
X125514414Y-84232460D01*
X125405877Y-84199535D01*
X125293001Y-84188418D01*
X124642999Y-84188418D01*
X124530123Y-84199535D01*
X124421586Y-84232460D01*
X124321557Y-84285926D01*
X124233880Y-84357880D01*
X124161926Y-84445557D01*
X124108460Y-84545586D01*
X124075535Y-84654123D01*
X124064418Y-84766999D01*
X117728582Y-84766999D01*
X117728582Y-84374999D01*
X117717465Y-84262123D01*
X117684540Y-84153586D01*
X117631074Y-84053557D01*
X117559120Y-83965880D01*
X117471443Y-83893926D01*
X117371414Y-83840460D01*
X117262877Y-83807535D01*
X117230200Y-83804317D01*
X117230200Y-82933934D01*
X117264698Y-82899436D01*
X117344259Y-82780364D01*
X117399062Y-82648058D01*
X117427000Y-82507603D01*
X117427000Y-82364397D01*
X117399062Y-82223942D01*
X117344259Y-82091636D01*
X117264698Y-81972564D01*
X117163436Y-81871302D01*
X117044364Y-81791741D01*
X116912058Y-81736938D01*
X116771603Y-81709000D01*
X116628397Y-81709000D01*
X116487942Y-81736938D01*
X116355636Y-81791741D01*
X116236564Y-81871302D01*
X116135302Y-81972564D01*
X116055741Y-82091636D01*
X116000938Y-82223942D01*
X115973000Y-82364397D01*
X115973000Y-82507603D01*
X116000938Y-82648058D01*
X116055741Y-82780364D01*
X116135302Y-82899436D01*
X116169801Y-82933935D01*
X116169800Y-83804317D01*
X116137123Y-83807535D01*
X116028586Y-83840460D01*
X115928557Y-83893926D01*
X115840880Y-83965880D01*
X115768926Y-84053557D01*
X115715460Y-84153586D01*
X115682535Y-84262123D01*
X115671418Y-84374999D01*
X101854000Y-84374999D01*
X101854000Y-79249999D01*
X115796418Y-79249999D01*
X115796418Y-80150001D01*
X115807535Y-80262877D01*
X115840460Y-80371414D01*
X115893926Y-80471443D01*
X115965880Y-80559120D01*
X116053557Y-80631074D01*
X116153586Y-80684540D01*
X116262123Y-80717465D01*
X116374999Y-80728582D01*
X117025001Y-80728582D01*
X117137877Y-80717465D01*
X117246414Y-80684540D01*
X117346443Y-80631074D01*
X117434120Y-80559120D01*
X117506074Y-80471443D01*
X117559540Y-80371414D01*
X117592465Y-80262877D01*
X117595683Y-80230200D01*
X124680385Y-80230200D01*
X127480201Y-83030017D01*
X127480200Y-84538617D01*
X127299200Y-84538617D01*
X127235097Y-84544931D01*
X127173457Y-84563629D01*
X127116650Y-84593993D01*
X127066857Y-84634856D01*
X127025994Y-84684649D01*
X126995630Y-84741456D01*
X126976932Y-84803096D01*
X126970618Y-84867199D01*
X126970618Y-85222799D01*
X126976932Y-85286902D01*
X126995630Y-85348542D01*
X127025994Y-85405349D01*
X127037066Y-85418840D01*
X127023844Y-85462428D01*
X127018449Y-85517200D01*
X127018449Y-85872800D01*
X127023844Y-85927572D01*
X127039820Y-85980239D01*
X127065764Y-86028777D01*
X127100679Y-86071321D01*
X127143223Y-86106236D01*
X127191761Y-86132180D01*
X127244428Y-86148156D01*
X127299200Y-86153551D01*
X128721600Y-86153551D01*
X128776372Y-86148156D01*
X128829039Y-86132180D01*
X128877577Y-86106236D01*
X128920121Y-86071321D01*
X128955036Y-86028777D01*
X128980980Y-85980239D01*
X128996956Y-85927572D01*
X129002351Y-85872800D01*
X129002351Y-85517200D01*
X128996956Y-85462428D01*
X128983734Y-85418840D01*
X128994806Y-85405349D01*
X129025170Y-85348542D01*
X129043868Y-85286902D01*
X129050182Y-85222799D01*
X129050182Y-84867201D01*
X132708049Y-84867201D01*
X132708049Y-85222801D01*
X132713444Y-85277573D01*
X132729420Y-85330240D01*
X132750672Y-85370001D01*
X132729420Y-85409761D01*
X132713444Y-85462428D01*
X132708049Y-85517200D01*
X132708049Y-85872800D01*
X132713444Y-85927572D01*
X132729420Y-85980239D01*
X132750673Y-86020001D01*
X132729420Y-86059762D01*
X132713444Y-86112429D01*
X132708049Y-86167201D01*
X132708049Y-86522801D01*
X132713444Y-86577573D01*
X132729420Y-86630240D01*
X132755364Y-86678778D01*
X132790279Y-86721322D01*
X132832823Y-86756237D01*
X132881361Y-86782181D01*
X132934028Y-86798157D01*
X132988800Y-86803552D01*
X134411200Y-86803552D01*
X134465972Y-86798157D01*
X134518639Y-86782181D01*
X134567177Y-86756237D01*
X134609721Y-86721322D01*
X134644636Y-86678778D01*
X134670580Y-86630240D01*
X134686556Y-86577573D01*
X134691951Y-86522801D01*
X134691951Y-86167201D01*
X134686556Y-86112429D01*
X134670580Y-86059762D01*
X134649327Y-86020001D01*
X134670580Y-85980239D01*
X134686556Y-85927572D01*
X134691951Y-85872800D01*
X134691951Y-85517200D01*
X134686556Y-85462428D01*
X134670580Y-85409761D01*
X134649328Y-85370001D01*
X134670580Y-85330240D01*
X134686556Y-85277573D01*
X134691951Y-85222801D01*
X134691951Y-84867201D01*
X134686556Y-84812429D01*
X134670580Y-84759762D01*
X134644636Y-84711224D01*
X134609721Y-84668680D01*
X134567177Y-84633765D01*
X134518639Y-84607821D01*
X134465972Y-84591845D01*
X134411200Y-84586450D01*
X134182600Y-84586450D01*
X134182600Y-83161899D01*
X135581899Y-81762600D01*
X146104101Y-81762600D01*
X147345401Y-83003900D01*
X147345400Y-85594249D01*
X146949999Y-85594249D01*
X146846455Y-85604447D01*
X146746890Y-85634650D01*
X146655130Y-85683697D01*
X146574702Y-85749702D01*
X146508697Y-85830130D01*
X146459650Y-85921890D01*
X146429447Y-86021455D01*
X146419249Y-86124999D01*
X146419249Y-88175001D01*
X146429447Y-88278545D01*
X146459650Y-88378110D01*
X146508697Y-88469870D01*
X146574702Y-88550298D01*
X146655130Y-88616303D01*
X146746890Y-88665350D01*
X146846455Y-88695553D01*
X146949999Y-88705751D01*
X148700001Y-88705751D01*
X148803545Y-88695553D01*
X148903110Y-88665350D01*
X148994870Y-88616303D01*
X149075298Y-88550298D01*
X149141303Y-88469870D01*
X149190350Y-88378110D01*
X149220553Y-88278545D01*
X149230751Y-88175001D01*
X149230751Y-87019431D01*
X150723600Y-87019431D01*
X150723600Y-87224569D01*
X150763620Y-87425765D01*
X150842123Y-87615288D01*
X150956092Y-87785854D01*
X151101146Y-87930908D01*
X151271712Y-88044877D01*
X151461235Y-88123380D01*
X151662431Y-88163400D01*
X151867569Y-88163400D01*
X152068765Y-88123380D01*
X152258288Y-88044877D01*
X152428854Y-87930908D01*
X152573908Y-87785854D01*
X152687877Y-87615288D01*
X152766380Y-87425765D01*
X152806400Y-87224569D01*
X152806400Y-87019431D01*
X152795861Y-86966443D01*
X157424600Y-86966443D01*
X157424600Y-87277557D01*
X157485295Y-87582694D01*
X157604354Y-87870126D01*
X157777200Y-88128809D01*
X157997191Y-88348800D01*
X158255874Y-88521646D01*
X158543306Y-88640705D01*
X158848443Y-88701400D01*
X159159557Y-88701400D01*
X159464694Y-88640705D01*
X159752126Y-88521646D01*
X160010809Y-88348800D01*
X160230800Y-88128809D01*
X160403646Y-87870126D01*
X160522705Y-87582694D01*
X160583400Y-87277557D01*
X160583400Y-86966443D01*
X160522705Y-86661306D01*
X160403646Y-86373874D01*
X160230800Y-86115191D01*
X160010809Y-85895200D01*
X159752126Y-85722354D01*
X159464694Y-85603295D01*
X159159557Y-85542600D01*
X158848443Y-85542600D01*
X158543306Y-85603295D01*
X158255874Y-85722354D01*
X157997191Y-85895200D01*
X157777200Y-86115191D01*
X157604354Y-86373874D01*
X157485295Y-86661306D01*
X157424600Y-86966443D01*
X152795861Y-86966443D01*
X152766380Y-86818235D01*
X152687877Y-86628712D01*
X152573908Y-86458146D01*
X152428854Y-86313092D01*
X152258288Y-86199123D01*
X152068765Y-86120620D01*
X151867569Y-86080600D01*
X151662431Y-86080600D01*
X151461235Y-86120620D01*
X151271712Y-86199123D01*
X151101146Y-86313092D01*
X150956092Y-86458146D01*
X150842123Y-86628712D01*
X150763620Y-86818235D01*
X150723600Y-87019431D01*
X149230751Y-87019431D01*
X149230751Y-86124999D01*
X149220553Y-86021455D01*
X149190350Y-85921890D01*
X149141303Y-85830130D01*
X149075298Y-85749702D01*
X148994870Y-85683697D01*
X148903110Y-85634650D01*
X148803545Y-85604447D01*
X148700001Y-85594249D01*
X148310600Y-85594249D01*
X148310600Y-82827696D01*
X148312934Y-82803999D01*
X148310600Y-82780302D01*
X148310600Y-82780293D01*
X148303617Y-82709394D01*
X148276022Y-82618423D01*
X148231209Y-82534585D01*
X148170901Y-82461099D01*
X148152482Y-82445983D01*
X146662017Y-80955518D01*
X146646901Y-80937099D01*
X146573415Y-80876791D01*
X146489577Y-80831978D01*
X146398606Y-80804383D01*
X146327707Y-80797400D01*
X146327705Y-80797400D01*
X146304000Y-80795065D01*
X146280295Y-80797400D01*
X135405704Y-80797400D01*
X135381999Y-80795065D01*
X135358294Y-80797400D01*
X135358293Y-80797400D01*
X135287394Y-80804383D01*
X135196423Y-80831978D01*
X135112585Y-80876791D01*
X135039099Y-80937099D01*
X135023983Y-80955518D01*
X133375518Y-82603983D01*
X133357099Y-82619099D01*
X133296791Y-82692585D01*
X133251978Y-82776424D01*
X133224383Y-82867395D01*
X133219760Y-82914337D01*
X133215065Y-82962000D01*
X133217400Y-82985705D01*
X133217401Y-84437085D01*
X133217400Y-84437095D01*
X133217400Y-84586450D01*
X132988800Y-84586450D01*
X132934028Y-84591845D01*
X132881361Y-84607821D01*
X132832823Y-84633765D01*
X132790279Y-84668680D01*
X132755364Y-84711224D01*
X132729420Y-84759762D01*
X132713444Y-84812429D01*
X132708049Y-84867201D01*
X129050182Y-84867201D01*
X129050182Y-84867199D01*
X129043868Y-84803096D01*
X129025170Y-84741456D01*
X128994806Y-84684649D01*
X128953943Y-84634856D01*
X128904150Y-84593993D01*
X128847343Y-84563629D01*
X128785703Y-84544931D01*
X128721600Y-84538617D01*
X128540600Y-84538617D01*
X128540600Y-82836440D01*
X128543165Y-82810400D01*
X128540600Y-82784357D01*
X128532928Y-82706463D01*
X128502611Y-82606520D01*
X128453378Y-82514412D01*
X128387122Y-82433678D01*
X128366891Y-82417075D01*
X125293329Y-79343514D01*
X125276722Y-79323278D01*
X125195988Y-79257022D01*
X125103880Y-79207789D01*
X125003937Y-79177472D01*
X124926043Y-79169800D01*
X124926040Y-79169800D01*
X124900000Y-79167235D01*
X124873960Y-79169800D01*
X117595683Y-79169800D01*
X117592465Y-79137123D01*
X117559540Y-79028586D01*
X117506074Y-78928557D01*
X117434120Y-78840880D01*
X117346443Y-78768926D01*
X117246414Y-78715460D01*
X117137877Y-78682535D01*
X117025001Y-78671418D01*
X116374999Y-78671418D01*
X116262123Y-78682535D01*
X116153586Y-78715460D01*
X116053557Y-78768926D01*
X115965880Y-78840880D01*
X115893926Y-78928557D01*
X115840460Y-79028586D01*
X115807535Y-79137123D01*
X115796418Y-79249999D01*
X101854000Y-79249999D01*
X101854000Y-76200000D01*
X164719000Y-76200000D01*
X164719000Y-101169508D01*
M02*
