G04 ================== begin FILE IDENTIFICATION RECORD ==================*
G04 Layout Name:  DevinLNA.brd*
G04 Film Name:    BOTTOM*
G04 File Format:  Gerber RS274X*
G04 File Origin:  Cadence Allegro 17.2-S029*
G04 Origin Date:  Mon May 20 16:53:47 2019*
G04 *
G04 Layer:  ETCH/BOTTOM*
G04 Layer:  PIN/BOTTOM*
G04 Layer:  VIA CLASS/BOTTOM*
G04 *
G04 Offset:    (0.0 0.0)*
G04 Mirror:    No*
G04 Mode:      Positive*
G04 Rotation:  0*
G04 FullContactRelief:  No*
G04 UndefLineWidth:     0.0*
G04 ================== end FILE IDENTIFICATION RECORD ====================*
%FSLAX45Y45*MOIN*%
%IR0*IPPOS*OFA0.00000B0.00000*MIA0B0*SFA1.00000B1.00000*%
%ADD13R,.04X.034*%
%ADD14R,.05X.034*%
%ADD11R,.05X.05*%
%ADD12C,.058*%
%ADD10R,.058X.058*%
%ADD15C,.012*%
%ADD16C,.04*%
%ADD17C,.05*%
%ADD18C,.0744*%
G75*
%LPD*%
G75*
G36*
G01X1193000Y518000D02*
Y644500D01*
X1402000D01*
Y518000D01*
X1193000D01*
G37*
%LPC*%
G75*
G36*
G01X1301690Y622500D02*
Y627500D01*
G02X1302500Y628310I810J0D01*
G01X1307500D01*
G02X1308310Y627500I0J-810D01*
G01Y622500D01*
G02X1307500Y621690I-810J0D01*
G01X1302500D01*
G02X1301690Y622500I0J810D01*
G37*
G36*
G01X1282190Y598300D02*
Y601700D01*
G02X1283000Y602510I810J0D01*
G01X1287000D01*
G02X1287810Y601700I0J-810D01*
G01Y598300D01*
G02X1287000Y597490I-810J0D01*
G01X1283000D01*
G02X1282190Y598300I0J810D01*
G37*
G36*
G01X1308310Y602500D02*
G02X1307500Y601690I-810J0D01*
G01X1302500D01*
G02X1301690Y602500I0J810D01*
G01Y619100D01*
G02X1302500Y619910I810J0D01*
G01X1307500D01*
G02X1308310Y619100I0J-810D01*
G01Y602500D01*
G37*
G36*
G01X1348310Y592500D02*
G02X1347500Y591690I-810J0D01*
G01X1328400D01*
G02X1327590Y592500I0J810D01*
G01Y597500D01*
G02X1328400Y598310I810J0D01*
G01X1347500D01*
G02X1348310Y597500I0J-810D01*
G01Y592500D01*
G37*
G36*
G01X1315330Y591690D02*
X1313730Y593290D01*
X1302500D01*
G02X1301800Y593690I0J813D01*
G01X1301740Y593790D01*
X1300860D01*
X1300510Y593440D01*
X1292500D01*
G02X1291280Y593720I0J2798D01*
G01X1291240Y593740D01*
X1290000D01*
G02X1289190Y594550I0J810D01*
G01Y597950D01*
G02X1290000Y598760I810J0D01*
G01X1291240D01*
X1291280Y598780D01*
G02X1292500Y599060I1220J-2518D01*
G01X1298190D01*
X1298540Y599410D01*
X1301740D01*
X1301800Y599510D01*
G02X1302500Y599910I700J-413D01*
G01X1316470D01*
X1318070Y598310D01*
X1325000D01*
G02X1325810Y597500I0J-810D01*
G01Y592500D01*
G02X1325000Y591690I-810J0D01*
G01X1315330D01*
G37*
G36*
G01X1401210Y592100D02*
G02X1400400Y591290I-810J0D01*
G01X1394600D01*
G02X1393900Y591690I0J812D01*
G01X1350900D01*
G02X1350090Y592500I0J810D01*
G01Y597500D01*
G02X1350900Y598310I810J0D01*
G01X1393900D01*
G02X1394600Y598710I700J-412D01*
G01X1400400D01*
G02X1401210Y597900I0J-810D01*
G01Y592100D01*
G37*
G36*
G01X1258310Y590000D02*
G02X1257500Y589190I-810J0D01*
G01X1238400D01*
G02X1237590Y590000I0J810D01*
G01Y595000D01*
G02X1238400Y595810I810J0D01*
G01X1257500D01*
G02X1258310Y595000I0J-810D01*
G01Y590000D01*
G37*
G36*
G01X1201100Y589190D02*
G02X1200400Y588790I-700J413D01*
G01X1194600D01*
G02X1193790Y589600I0J810D01*
G01Y595400D01*
G02X1194600Y596210I810J0D01*
G01X1200400D01*
G02X1201100Y595810I0J-813D01*
G01X1235000D01*
G02X1235810Y595000I0J-810D01*
G01Y590000D01*
G02X1235000Y589190I-810J0D01*
G01X1201100D01*
G37*
G36*
G01X1288310Y577500D02*
G02X1287500Y576690I-810J0D01*
G01X1282500D01*
G02X1281690Y577500I0J810D01*
G01Y582500D01*
G02X1282090Y583200I812J0D01*
G01X1282190Y583260D01*
Y589690D01*
X1266660D01*
X1266600Y589590D01*
G02X1265900Y589190I-700J413D01*
G01X1260900D01*
G02X1260090Y590000I0J810D01*
G01Y595000D01*
G02X1260900Y595810I810J0D01*
G01X1265900D01*
G02X1266600Y595410I0J-813D01*
G01X1266660Y595310D01*
X1285000D01*
G02X1286220Y595030I0J-2798D01*
G01X1286260Y595010D01*
X1287000D01*
G02X1287810Y594200I0J-810D01*
G01Y583260D01*
X1287910Y583200D01*
G02X1288310Y582500I-413J-700D01*
G01Y577500D01*
G37*
G36*
G01Y555000D02*
G02X1287500Y554190I-810J0D01*
G01X1282500D01*
G02X1281690Y555000I0J810D01*
G01Y574100D01*
G02X1282500Y574910I810J0D01*
G01X1287500D01*
G02X1288310Y574100I0J-810D01*
G01Y555000D01*
G37*
G36*
G01X1288710Y519600D02*
G02X1287900Y518790I-810J0D01*
G01X1282100D01*
G02X1281290Y519600I0J810D01*
G01Y525400D01*
G02X1281690Y526100I813J0D01*
G01Y551600D01*
G02X1282500Y552410I810J0D01*
G01X1287500D01*
G02X1288310Y551600I0J-810D01*
G01Y526100D01*
G02X1288710Y525400I-413J-700D01*
G01Y519600D01*
G37*
G54D18*
X1275000Y522500D03*
%LPD*%
G75*
G54D10*
X1197500Y592500D03*
X1285000Y522500D03*
X1397500Y595000D03*
G54D11*
X1232500Y592500D03*
X1240900D03*
X1255000D03*
X1285000Y557500D03*
Y549100D03*
Y571600D03*
Y580000D03*
X1263400Y592500D03*
X1305000Y596600D03*
Y605000D03*
Y625000D03*
Y616600D03*
X1322500Y595000D03*
X1330900D03*
X1345000D03*
X1353400D03*
G54D12*
X1275000Y522500D03*
G54D13*
X1285000Y600000D03*
Y592500D03*
G54D14*
X1292500Y596250D03*
G54D15*
G01X1275000Y518590D02*
Y522500D01*
G01D02*
Y526410D01*
G01X1271090Y522500D02*
X1275000D01*
G01D02*
X1278910D01*
G01X1285000Y597290D02*
Y600000D01*
G01D02*
Y602710D01*
G01X1281990Y600000D02*
X1285000D01*
G01D02*
X1288010D01*
G01X1305000Y621490D02*
Y625000D01*
G01D02*
Y628510D01*
G01X1301490Y625000D02*
X1305000D01*
G01D02*
X1308510D01*
G54D16*
G01X1263400Y592500D02*
X1285000D01*
G01D02*
Y580000D01*
G01X1292500Y596250D02*
X1299350D01*
X1299700Y596600D01*
X1305000D01*
G54D17*
G01X1197500Y592500D02*
X1232500D01*
G01X1240900D02*
X1255000D01*
G01X1285000Y549100D02*
Y522500D01*
G01Y571600D02*
Y557500D01*
G01X1305000Y596600D02*
X1315100D01*
X1316700Y595000D01*
X1322500D01*
G01X1305000Y605000D02*
Y616600D01*
G01X1330900Y595000D02*
X1345000D01*
G01X1353400D02*
X1397500D01*
M02*
