G04 #@! TF.GenerationSoftware,KiCad,Pcbnew,(5.1.4-0)*
G04 #@! TF.CreationDate,2020-02-24T15:27:03-08:00*
G04 #@! TF.ProjectId,SPV1040,53505631-3034-4302-9e6b-696361645f70,rev?*
G04 #@! TF.SameCoordinates,Original*
G04 #@! TF.FileFunction,Copper,L1,Top*
G04 #@! TF.FilePolarity,Positive*
%FSLAX46Y46*%
G04 Gerber Fmt 4.6, Leading zero omitted, Abs format (unit mm)*
G04 Created by KiCad (PCBNEW (5.1.4-0)) date 2020-02-24 15:27:03*
%MOMM*%
%LPD*%
G04 APERTURE LIST*
%ADD10R,2.100000X2.100000*%
%ADD11C,2.100000*%
%ADD12C,0.100000*%
%ADD13C,1.425000*%
%ADD14R,1.200000X0.400000*%
%ADD15C,1.150000*%
%ADD16R,0.850000X0.650000*%
%ADD17R,0.650000X0.950000*%
%ADD18R,2.000000X1.950000*%
%ADD19R,3.400000X1.850000*%
%ADD20C,0.800000*%
%ADD21C,0.250000*%
%ADD22C,0.317500*%
%ADD23C,0.635000*%
%ADD24C,1.270000*%
%ADD25C,0.254000*%
G04 APERTURE END LIST*
D10*
X49966880Y-56631840D03*
D11*
X49966880Y-51551840D03*
D10*
X95567500Y-70027800D03*
D11*
X95567500Y-64947800D03*
D12*
G36*
X85985004Y-66855304D02*
G01*
X86009273Y-66858904D01*
X86033071Y-66864865D01*
X86056171Y-66873130D01*
X86078349Y-66883620D01*
X86099393Y-66896233D01*
X86119098Y-66910847D01*
X86137277Y-66927323D01*
X86153753Y-66945502D01*
X86168367Y-66965207D01*
X86180980Y-66986251D01*
X86191470Y-67008429D01*
X86199735Y-67031529D01*
X86205696Y-67055327D01*
X86209296Y-67079596D01*
X86210500Y-67104100D01*
X86210500Y-68354100D01*
X86209296Y-68378604D01*
X86205696Y-68402873D01*
X86199735Y-68426671D01*
X86191470Y-68449771D01*
X86180980Y-68471949D01*
X86168367Y-68492993D01*
X86153753Y-68512698D01*
X86137277Y-68530877D01*
X86119098Y-68547353D01*
X86099393Y-68561967D01*
X86078349Y-68574580D01*
X86056171Y-68585070D01*
X86033071Y-68593335D01*
X86009273Y-68599296D01*
X85985004Y-68602896D01*
X85960500Y-68604100D01*
X85035500Y-68604100D01*
X85010996Y-68602896D01*
X84986727Y-68599296D01*
X84962929Y-68593335D01*
X84939829Y-68585070D01*
X84917651Y-68574580D01*
X84896607Y-68561967D01*
X84876902Y-68547353D01*
X84858723Y-68530877D01*
X84842247Y-68512698D01*
X84827633Y-68492993D01*
X84815020Y-68471949D01*
X84804530Y-68449771D01*
X84796265Y-68426671D01*
X84790304Y-68402873D01*
X84786704Y-68378604D01*
X84785500Y-68354100D01*
X84785500Y-67104100D01*
X84786704Y-67079596D01*
X84790304Y-67055327D01*
X84796265Y-67031529D01*
X84804530Y-67008429D01*
X84815020Y-66986251D01*
X84827633Y-66965207D01*
X84842247Y-66945502D01*
X84858723Y-66927323D01*
X84876902Y-66910847D01*
X84896607Y-66896233D01*
X84917651Y-66883620D01*
X84939829Y-66873130D01*
X84962929Y-66864865D01*
X84986727Y-66858904D01*
X85010996Y-66855304D01*
X85035500Y-66854100D01*
X85960500Y-66854100D01*
X85985004Y-66855304D01*
X85985004Y-66855304D01*
G37*
D13*
X85498000Y-67729100D03*
D12*
G36*
X83010004Y-66855304D02*
G01*
X83034273Y-66858904D01*
X83058071Y-66864865D01*
X83081171Y-66873130D01*
X83103349Y-66883620D01*
X83124393Y-66896233D01*
X83144098Y-66910847D01*
X83162277Y-66927323D01*
X83178753Y-66945502D01*
X83193367Y-66965207D01*
X83205980Y-66986251D01*
X83216470Y-67008429D01*
X83224735Y-67031529D01*
X83230696Y-67055327D01*
X83234296Y-67079596D01*
X83235500Y-67104100D01*
X83235500Y-68354100D01*
X83234296Y-68378604D01*
X83230696Y-68402873D01*
X83224735Y-68426671D01*
X83216470Y-68449771D01*
X83205980Y-68471949D01*
X83193367Y-68492993D01*
X83178753Y-68512698D01*
X83162277Y-68530877D01*
X83144098Y-68547353D01*
X83124393Y-68561967D01*
X83103349Y-68574580D01*
X83081171Y-68585070D01*
X83058071Y-68593335D01*
X83034273Y-68599296D01*
X83010004Y-68602896D01*
X82985500Y-68604100D01*
X82060500Y-68604100D01*
X82035996Y-68602896D01*
X82011727Y-68599296D01*
X81987929Y-68593335D01*
X81964829Y-68585070D01*
X81942651Y-68574580D01*
X81921607Y-68561967D01*
X81901902Y-68547353D01*
X81883723Y-68530877D01*
X81867247Y-68512698D01*
X81852633Y-68492993D01*
X81840020Y-68471949D01*
X81829530Y-68449771D01*
X81821265Y-68426671D01*
X81815304Y-68402873D01*
X81811704Y-68378604D01*
X81810500Y-68354100D01*
X81810500Y-67104100D01*
X81811704Y-67079596D01*
X81815304Y-67055327D01*
X81821265Y-67031529D01*
X81829530Y-67008429D01*
X81840020Y-66986251D01*
X81852633Y-66965207D01*
X81867247Y-66945502D01*
X81883723Y-66927323D01*
X81901902Y-66910847D01*
X81921607Y-66896233D01*
X81942651Y-66883620D01*
X81964829Y-66873130D01*
X81987929Y-66864865D01*
X82011727Y-66858904D01*
X82035996Y-66855304D01*
X82060500Y-66854100D01*
X82985500Y-66854100D01*
X83010004Y-66855304D01*
X83010004Y-66855304D01*
G37*
D13*
X82523000Y-67729100D03*
D12*
G36*
X77766504Y-66842604D02*
G01*
X77790773Y-66846204D01*
X77814571Y-66852165D01*
X77837671Y-66860430D01*
X77859849Y-66870920D01*
X77880893Y-66883533D01*
X77900598Y-66898147D01*
X77918777Y-66914623D01*
X77935253Y-66932802D01*
X77949867Y-66952507D01*
X77962480Y-66973551D01*
X77972970Y-66995729D01*
X77981235Y-67018829D01*
X77987196Y-67042627D01*
X77990796Y-67066896D01*
X77992000Y-67091400D01*
X77992000Y-68341400D01*
X77990796Y-68365904D01*
X77987196Y-68390173D01*
X77981235Y-68413971D01*
X77972970Y-68437071D01*
X77962480Y-68459249D01*
X77949867Y-68480293D01*
X77935253Y-68499998D01*
X77918777Y-68518177D01*
X77900598Y-68534653D01*
X77880893Y-68549267D01*
X77859849Y-68561880D01*
X77837671Y-68572370D01*
X77814571Y-68580635D01*
X77790773Y-68586596D01*
X77766504Y-68590196D01*
X77742000Y-68591400D01*
X76817000Y-68591400D01*
X76792496Y-68590196D01*
X76768227Y-68586596D01*
X76744429Y-68580635D01*
X76721329Y-68572370D01*
X76699151Y-68561880D01*
X76678107Y-68549267D01*
X76658402Y-68534653D01*
X76640223Y-68518177D01*
X76623747Y-68499998D01*
X76609133Y-68480293D01*
X76596520Y-68459249D01*
X76586030Y-68437071D01*
X76577765Y-68413971D01*
X76571804Y-68390173D01*
X76568204Y-68365904D01*
X76567000Y-68341400D01*
X76567000Y-67091400D01*
X76568204Y-67066896D01*
X76571804Y-67042627D01*
X76577765Y-67018829D01*
X76586030Y-66995729D01*
X76596520Y-66973551D01*
X76609133Y-66952507D01*
X76623747Y-66932802D01*
X76640223Y-66914623D01*
X76658402Y-66898147D01*
X76678107Y-66883533D01*
X76699151Y-66870920D01*
X76721329Y-66860430D01*
X76744429Y-66852165D01*
X76768227Y-66846204D01*
X76792496Y-66842604D01*
X76817000Y-66841400D01*
X77742000Y-66841400D01*
X77766504Y-66842604D01*
X77766504Y-66842604D01*
G37*
D13*
X77279500Y-67716400D03*
D12*
G36*
X80741504Y-66842604D02*
G01*
X80765773Y-66846204D01*
X80789571Y-66852165D01*
X80812671Y-66860430D01*
X80834849Y-66870920D01*
X80855893Y-66883533D01*
X80875598Y-66898147D01*
X80893777Y-66914623D01*
X80910253Y-66932802D01*
X80924867Y-66952507D01*
X80937480Y-66973551D01*
X80947970Y-66995729D01*
X80956235Y-67018829D01*
X80962196Y-67042627D01*
X80965796Y-67066896D01*
X80967000Y-67091400D01*
X80967000Y-68341400D01*
X80965796Y-68365904D01*
X80962196Y-68390173D01*
X80956235Y-68413971D01*
X80947970Y-68437071D01*
X80937480Y-68459249D01*
X80924867Y-68480293D01*
X80910253Y-68499998D01*
X80893777Y-68518177D01*
X80875598Y-68534653D01*
X80855893Y-68549267D01*
X80834849Y-68561880D01*
X80812671Y-68572370D01*
X80789571Y-68580635D01*
X80765773Y-68586596D01*
X80741504Y-68590196D01*
X80717000Y-68591400D01*
X79792000Y-68591400D01*
X79767496Y-68590196D01*
X79743227Y-68586596D01*
X79719429Y-68580635D01*
X79696329Y-68572370D01*
X79674151Y-68561880D01*
X79653107Y-68549267D01*
X79633402Y-68534653D01*
X79615223Y-68518177D01*
X79598747Y-68499998D01*
X79584133Y-68480293D01*
X79571520Y-68459249D01*
X79561030Y-68437071D01*
X79552765Y-68413971D01*
X79546804Y-68390173D01*
X79543204Y-68365904D01*
X79542000Y-68341400D01*
X79542000Y-67091400D01*
X79543204Y-67066896D01*
X79546804Y-67042627D01*
X79552765Y-67018829D01*
X79561030Y-66995729D01*
X79571520Y-66973551D01*
X79584133Y-66952507D01*
X79598747Y-66932802D01*
X79615223Y-66914623D01*
X79633402Y-66898147D01*
X79653107Y-66883533D01*
X79674151Y-66870920D01*
X79696329Y-66860430D01*
X79719429Y-66852165D01*
X79743227Y-66846204D01*
X79767496Y-66842604D01*
X79792000Y-66841400D01*
X80717000Y-66841400D01*
X80741504Y-66842604D01*
X80741504Y-66842604D01*
G37*
D13*
X80254500Y-67716400D03*
D14*
X79662000Y-56937000D03*
X79662000Y-57587000D03*
X79662000Y-58237000D03*
X79662000Y-58887000D03*
X74262000Y-58887000D03*
X74262000Y-58237000D03*
X74262000Y-56937000D03*
X74262000Y-57587000D03*
D12*
G36*
X74556304Y-67868704D02*
G01*
X74580573Y-67872304D01*
X74604371Y-67878265D01*
X74627471Y-67886530D01*
X74649649Y-67897020D01*
X74670693Y-67909633D01*
X74690398Y-67924247D01*
X74708577Y-67940723D01*
X74725053Y-67958902D01*
X74739667Y-67978607D01*
X74752280Y-67999651D01*
X74762770Y-68021829D01*
X74771035Y-68044929D01*
X74776996Y-68068727D01*
X74780596Y-68092996D01*
X74781800Y-68117500D01*
X74781800Y-69042500D01*
X74780596Y-69067004D01*
X74776996Y-69091273D01*
X74771035Y-69115071D01*
X74762770Y-69138171D01*
X74752280Y-69160349D01*
X74739667Y-69181393D01*
X74725053Y-69201098D01*
X74708577Y-69219277D01*
X74690398Y-69235753D01*
X74670693Y-69250367D01*
X74649649Y-69262980D01*
X74627471Y-69273470D01*
X74604371Y-69281735D01*
X74580573Y-69287696D01*
X74556304Y-69291296D01*
X74531800Y-69292500D01*
X72381800Y-69292500D01*
X72357296Y-69291296D01*
X72333027Y-69287696D01*
X72309229Y-69281735D01*
X72286129Y-69273470D01*
X72263951Y-69262980D01*
X72242907Y-69250367D01*
X72223202Y-69235753D01*
X72205023Y-69219277D01*
X72188547Y-69201098D01*
X72173933Y-69181393D01*
X72161320Y-69160349D01*
X72150830Y-69138171D01*
X72142565Y-69115071D01*
X72136604Y-69091273D01*
X72133004Y-69067004D01*
X72131800Y-69042500D01*
X72131800Y-68117500D01*
X72133004Y-68092996D01*
X72136604Y-68068727D01*
X72142565Y-68044929D01*
X72150830Y-68021829D01*
X72161320Y-67999651D01*
X72173933Y-67978607D01*
X72188547Y-67958902D01*
X72205023Y-67940723D01*
X72223202Y-67924247D01*
X72242907Y-67909633D01*
X72263951Y-67897020D01*
X72286129Y-67886530D01*
X72309229Y-67878265D01*
X72333027Y-67872304D01*
X72357296Y-67868704D01*
X72381800Y-67867500D01*
X74531800Y-67867500D01*
X74556304Y-67868704D01*
X74556304Y-67868704D01*
G37*
D13*
X73456800Y-68580000D03*
D12*
G36*
X74556304Y-70843704D02*
G01*
X74580573Y-70847304D01*
X74604371Y-70853265D01*
X74627471Y-70861530D01*
X74649649Y-70872020D01*
X74670693Y-70884633D01*
X74690398Y-70899247D01*
X74708577Y-70915723D01*
X74725053Y-70933902D01*
X74739667Y-70953607D01*
X74752280Y-70974651D01*
X74762770Y-70996829D01*
X74771035Y-71019929D01*
X74776996Y-71043727D01*
X74780596Y-71067996D01*
X74781800Y-71092500D01*
X74781800Y-72017500D01*
X74780596Y-72042004D01*
X74776996Y-72066273D01*
X74771035Y-72090071D01*
X74762770Y-72113171D01*
X74752280Y-72135349D01*
X74739667Y-72156393D01*
X74725053Y-72176098D01*
X74708577Y-72194277D01*
X74690398Y-72210753D01*
X74670693Y-72225367D01*
X74649649Y-72237980D01*
X74627471Y-72248470D01*
X74604371Y-72256735D01*
X74580573Y-72262696D01*
X74556304Y-72266296D01*
X74531800Y-72267500D01*
X72381800Y-72267500D01*
X72357296Y-72266296D01*
X72333027Y-72262696D01*
X72309229Y-72256735D01*
X72286129Y-72248470D01*
X72263951Y-72237980D01*
X72242907Y-72225367D01*
X72223202Y-72210753D01*
X72205023Y-72194277D01*
X72188547Y-72176098D01*
X72173933Y-72156393D01*
X72161320Y-72135349D01*
X72150830Y-72113171D01*
X72142565Y-72090071D01*
X72136604Y-72066273D01*
X72133004Y-72042004D01*
X72131800Y-72017500D01*
X72131800Y-71092500D01*
X72133004Y-71067996D01*
X72136604Y-71043727D01*
X72142565Y-71019929D01*
X72150830Y-70996829D01*
X72161320Y-70974651D01*
X72173933Y-70953607D01*
X72188547Y-70933902D01*
X72205023Y-70915723D01*
X72223202Y-70899247D01*
X72242907Y-70884633D01*
X72263951Y-70872020D01*
X72286129Y-70861530D01*
X72309229Y-70853265D01*
X72333027Y-70847304D01*
X72357296Y-70843704D01*
X72381800Y-70842500D01*
X74531800Y-70842500D01*
X74556304Y-70843704D01*
X74556304Y-70843704D01*
G37*
D13*
X73456800Y-71555000D03*
D12*
G36*
X83430905Y-58252604D02*
G01*
X83455173Y-58256204D01*
X83478972Y-58262165D01*
X83502071Y-58270430D01*
X83524250Y-58280920D01*
X83545293Y-58293532D01*
X83564999Y-58308147D01*
X83583177Y-58324623D01*
X83599653Y-58342801D01*
X83614268Y-58362507D01*
X83626880Y-58383550D01*
X83637370Y-58405729D01*
X83645635Y-58428828D01*
X83651596Y-58452627D01*
X83655196Y-58476895D01*
X83656400Y-58501399D01*
X83656400Y-59151401D01*
X83655196Y-59175905D01*
X83651596Y-59200173D01*
X83645635Y-59223972D01*
X83637370Y-59247071D01*
X83626880Y-59269250D01*
X83614268Y-59290293D01*
X83599653Y-59309999D01*
X83583177Y-59328177D01*
X83564999Y-59344653D01*
X83545293Y-59359268D01*
X83524250Y-59371880D01*
X83502071Y-59382370D01*
X83478972Y-59390635D01*
X83455173Y-59396596D01*
X83430905Y-59400196D01*
X83406401Y-59401400D01*
X82506399Y-59401400D01*
X82481895Y-59400196D01*
X82457627Y-59396596D01*
X82433828Y-59390635D01*
X82410729Y-59382370D01*
X82388550Y-59371880D01*
X82367507Y-59359268D01*
X82347801Y-59344653D01*
X82329623Y-59328177D01*
X82313147Y-59309999D01*
X82298532Y-59290293D01*
X82285920Y-59269250D01*
X82275430Y-59247071D01*
X82267165Y-59223972D01*
X82261204Y-59200173D01*
X82257604Y-59175905D01*
X82256400Y-59151401D01*
X82256400Y-58501399D01*
X82257604Y-58476895D01*
X82261204Y-58452627D01*
X82267165Y-58428828D01*
X82275430Y-58405729D01*
X82285920Y-58383550D01*
X82298532Y-58362507D01*
X82313147Y-58342801D01*
X82329623Y-58324623D01*
X82347801Y-58308147D01*
X82367507Y-58293532D01*
X82388550Y-58280920D01*
X82410729Y-58270430D01*
X82433828Y-58262165D01*
X82457627Y-58256204D01*
X82481895Y-58252604D01*
X82506399Y-58251400D01*
X83406401Y-58251400D01*
X83430905Y-58252604D01*
X83430905Y-58252604D01*
G37*
D15*
X82956400Y-58826400D03*
D12*
G36*
X83430905Y-56202604D02*
G01*
X83455173Y-56206204D01*
X83478972Y-56212165D01*
X83502071Y-56220430D01*
X83524250Y-56230920D01*
X83545293Y-56243532D01*
X83564999Y-56258147D01*
X83583177Y-56274623D01*
X83599653Y-56292801D01*
X83614268Y-56312507D01*
X83626880Y-56333550D01*
X83637370Y-56355729D01*
X83645635Y-56378828D01*
X83651596Y-56402627D01*
X83655196Y-56426895D01*
X83656400Y-56451399D01*
X83656400Y-57101401D01*
X83655196Y-57125905D01*
X83651596Y-57150173D01*
X83645635Y-57173972D01*
X83637370Y-57197071D01*
X83626880Y-57219250D01*
X83614268Y-57240293D01*
X83599653Y-57259999D01*
X83583177Y-57278177D01*
X83564999Y-57294653D01*
X83545293Y-57309268D01*
X83524250Y-57321880D01*
X83502071Y-57332370D01*
X83478972Y-57340635D01*
X83455173Y-57346596D01*
X83430905Y-57350196D01*
X83406401Y-57351400D01*
X82506399Y-57351400D01*
X82481895Y-57350196D01*
X82457627Y-57346596D01*
X82433828Y-57340635D01*
X82410729Y-57332370D01*
X82388550Y-57321880D01*
X82367507Y-57309268D01*
X82347801Y-57294653D01*
X82329623Y-57278177D01*
X82313147Y-57259999D01*
X82298532Y-57240293D01*
X82285920Y-57219250D01*
X82275430Y-57197071D01*
X82267165Y-57173972D01*
X82261204Y-57150173D01*
X82257604Y-57125905D01*
X82256400Y-57101401D01*
X82256400Y-56451399D01*
X82257604Y-56426895D01*
X82261204Y-56402627D01*
X82267165Y-56378828D01*
X82275430Y-56355729D01*
X82285920Y-56333550D01*
X82298532Y-56312507D01*
X82313147Y-56292801D01*
X82329623Y-56274623D01*
X82347801Y-56258147D01*
X82367507Y-56243532D01*
X82388550Y-56230920D01*
X82410729Y-56220430D01*
X82433828Y-56212165D01*
X82457627Y-56206204D01*
X82481895Y-56202604D01*
X82506399Y-56201400D01*
X83406401Y-56201400D01*
X83430905Y-56202604D01*
X83430905Y-56202604D01*
G37*
D15*
X82956400Y-56776400D03*
D12*
G36*
X62059504Y-51928604D02*
G01*
X62083773Y-51932204D01*
X62107571Y-51938165D01*
X62130671Y-51946430D01*
X62152849Y-51956920D01*
X62173893Y-51969533D01*
X62193598Y-51984147D01*
X62211777Y-52000623D01*
X62228253Y-52018802D01*
X62242867Y-52038507D01*
X62255480Y-52059551D01*
X62265970Y-52081729D01*
X62274235Y-52104829D01*
X62280196Y-52128627D01*
X62283796Y-52152896D01*
X62285000Y-52177400D01*
X62285000Y-53102400D01*
X62283796Y-53126904D01*
X62280196Y-53151173D01*
X62274235Y-53174971D01*
X62265970Y-53198071D01*
X62255480Y-53220249D01*
X62242867Y-53241293D01*
X62228253Y-53260998D01*
X62211777Y-53279177D01*
X62193598Y-53295653D01*
X62173893Y-53310267D01*
X62152849Y-53322880D01*
X62130671Y-53333370D01*
X62107571Y-53341635D01*
X62083773Y-53347596D01*
X62059504Y-53351196D01*
X62035000Y-53352400D01*
X59885000Y-53352400D01*
X59860496Y-53351196D01*
X59836227Y-53347596D01*
X59812429Y-53341635D01*
X59789329Y-53333370D01*
X59767151Y-53322880D01*
X59746107Y-53310267D01*
X59726402Y-53295653D01*
X59708223Y-53279177D01*
X59691747Y-53260998D01*
X59677133Y-53241293D01*
X59664520Y-53220249D01*
X59654030Y-53198071D01*
X59645765Y-53174971D01*
X59639804Y-53151173D01*
X59636204Y-53126904D01*
X59635000Y-53102400D01*
X59635000Y-52177400D01*
X59636204Y-52152896D01*
X59639804Y-52128627D01*
X59645765Y-52104829D01*
X59654030Y-52081729D01*
X59664520Y-52059551D01*
X59677133Y-52038507D01*
X59691747Y-52018802D01*
X59708223Y-52000623D01*
X59726402Y-51984147D01*
X59746107Y-51969533D01*
X59767151Y-51956920D01*
X59789329Y-51946430D01*
X59812429Y-51938165D01*
X59836227Y-51932204D01*
X59860496Y-51928604D01*
X59885000Y-51927400D01*
X62035000Y-51927400D01*
X62059504Y-51928604D01*
X62059504Y-51928604D01*
G37*
D13*
X60960000Y-52639900D03*
D12*
G36*
X62059504Y-54903604D02*
G01*
X62083773Y-54907204D01*
X62107571Y-54913165D01*
X62130671Y-54921430D01*
X62152849Y-54931920D01*
X62173893Y-54944533D01*
X62193598Y-54959147D01*
X62211777Y-54975623D01*
X62228253Y-54993802D01*
X62242867Y-55013507D01*
X62255480Y-55034551D01*
X62265970Y-55056729D01*
X62274235Y-55079829D01*
X62280196Y-55103627D01*
X62283796Y-55127896D01*
X62285000Y-55152400D01*
X62285000Y-56077400D01*
X62283796Y-56101904D01*
X62280196Y-56126173D01*
X62274235Y-56149971D01*
X62265970Y-56173071D01*
X62255480Y-56195249D01*
X62242867Y-56216293D01*
X62228253Y-56235998D01*
X62211777Y-56254177D01*
X62193598Y-56270653D01*
X62173893Y-56285267D01*
X62152849Y-56297880D01*
X62130671Y-56308370D01*
X62107571Y-56316635D01*
X62083773Y-56322596D01*
X62059504Y-56326196D01*
X62035000Y-56327400D01*
X59885000Y-56327400D01*
X59860496Y-56326196D01*
X59836227Y-56322596D01*
X59812429Y-56316635D01*
X59789329Y-56308370D01*
X59767151Y-56297880D01*
X59746107Y-56285267D01*
X59726402Y-56270653D01*
X59708223Y-56254177D01*
X59691747Y-56235998D01*
X59677133Y-56216293D01*
X59664520Y-56195249D01*
X59654030Y-56173071D01*
X59645765Y-56149971D01*
X59639804Y-56126173D01*
X59636204Y-56101904D01*
X59635000Y-56077400D01*
X59635000Y-55152400D01*
X59636204Y-55127896D01*
X59639804Y-55103627D01*
X59645765Y-55079829D01*
X59654030Y-55056729D01*
X59664520Y-55034551D01*
X59677133Y-55013507D01*
X59691747Y-54993802D01*
X59708223Y-54975623D01*
X59726402Y-54959147D01*
X59746107Y-54944533D01*
X59767151Y-54931920D01*
X59789329Y-54921430D01*
X59812429Y-54913165D01*
X59836227Y-54907204D01*
X59860496Y-54903604D01*
X59885000Y-54902400D01*
X62035000Y-54902400D01*
X62059504Y-54903604D01*
X62059504Y-54903604D01*
G37*
D13*
X60960000Y-55614900D03*
D12*
G36*
X57614504Y-51954004D02*
G01*
X57638773Y-51957604D01*
X57662571Y-51963565D01*
X57685671Y-51971830D01*
X57707849Y-51982320D01*
X57728893Y-51994933D01*
X57748598Y-52009547D01*
X57766777Y-52026023D01*
X57783253Y-52044202D01*
X57797867Y-52063907D01*
X57810480Y-52084951D01*
X57820970Y-52107129D01*
X57829235Y-52130229D01*
X57835196Y-52154027D01*
X57838796Y-52178296D01*
X57840000Y-52202800D01*
X57840000Y-53127800D01*
X57838796Y-53152304D01*
X57835196Y-53176573D01*
X57829235Y-53200371D01*
X57820970Y-53223471D01*
X57810480Y-53245649D01*
X57797867Y-53266693D01*
X57783253Y-53286398D01*
X57766777Y-53304577D01*
X57748598Y-53321053D01*
X57728893Y-53335667D01*
X57707849Y-53348280D01*
X57685671Y-53358770D01*
X57662571Y-53367035D01*
X57638773Y-53372996D01*
X57614504Y-53376596D01*
X57590000Y-53377800D01*
X55440000Y-53377800D01*
X55415496Y-53376596D01*
X55391227Y-53372996D01*
X55367429Y-53367035D01*
X55344329Y-53358770D01*
X55322151Y-53348280D01*
X55301107Y-53335667D01*
X55281402Y-53321053D01*
X55263223Y-53304577D01*
X55246747Y-53286398D01*
X55232133Y-53266693D01*
X55219520Y-53245649D01*
X55209030Y-53223471D01*
X55200765Y-53200371D01*
X55194804Y-53176573D01*
X55191204Y-53152304D01*
X55190000Y-53127800D01*
X55190000Y-52202800D01*
X55191204Y-52178296D01*
X55194804Y-52154027D01*
X55200765Y-52130229D01*
X55209030Y-52107129D01*
X55219520Y-52084951D01*
X55232133Y-52063907D01*
X55246747Y-52044202D01*
X55263223Y-52026023D01*
X55281402Y-52009547D01*
X55301107Y-51994933D01*
X55322151Y-51982320D01*
X55344329Y-51971830D01*
X55367429Y-51963565D01*
X55391227Y-51957604D01*
X55415496Y-51954004D01*
X55440000Y-51952800D01*
X57590000Y-51952800D01*
X57614504Y-51954004D01*
X57614504Y-51954004D01*
G37*
D13*
X56515000Y-52665300D03*
D12*
G36*
X57614504Y-54929004D02*
G01*
X57638773Y-54932604D01*
X57662571Y-54938565D01*
X57685671Y-54946830D01*
X57707849Y-54957320D01*
X57728893Y-54969933D01*
X57748598Y-54984547D01*
X57766777Y-55001023D01*
X57783253Y-55019202D01*
X57797867Y-55038907D01*
X57810480Y-55059951D01*
X57820970Y-55082129D01*
X57829235Y-55105229D01*
X57835196Y-55129027D01*
X57838796Y-55153296D01*
X57840000Y-55177800D01*
X57840000Y-56102800D01*
X57838796Y-56127304D01*
X57835196Y-56151573D01*
X57829235Y-56175371D01*
X57820970Y-56198471D01*
X57810480Y-56220649D01*
X57797867Y-56241693D01*
X57783253Y-56261398D01*
X57766777Y-56279577D01*
X57748598Y-56296053D01*
X57728893Y-56310667D01*
X57707849Y-56323280D01*
X57685671Y-56333770D01*
X57662571Y-56342035D01*
X57638773Y-56347996D01*
X57614504Y-56351596D01*
X57590000Y-56352800D01*
X55440000Y-56352800D01*
X55415496Y-56351596D01*
X55391227Y-56347996D01*
X55367429Y-56342035D01*
X55344329Y-56333770D01*
X55322151Y-56323280D01*
X55301107Y-56310667D01*
X55281402Y-56296053D01*
X55263223Y-56279577D01*
X55246747Y-56261398D01*
X55232133Y-56241693D01*
X55219520Y-56220649D01*
X55209030Y-56198471D01*
X55200765Y-56175371D01*
X55194804Y-56151573D01*
X55191204Y-56127304D01*
X55190000Y-56102800D01*
X55190000Y-55177800D01*
X55191204Y-55153296D01*
X55194804Y-55129027D01*
X55200765Y-55105229D01*
X55209030Y-55082129D01*
X55219520Y-55059951D01*
X55232133Y-55038907D01*
X55246747Y-55019202D01*
X55263223Y-55001023D01*
X55281402Y-54984547D01*
X55301107Y-54969933D01*
X55322151Y-54957320D01*
X55344329Y-54946830D01*
X55367429Y-54938565D01*
X55391227Y-54932604D01*
X55415496Y-54929004D01*
X55440000Y-54927800D01*
X57590000Y-54927800D01*
X57614504Y-54929004D01*
X57614504Y-54929004D01*
G37*
D13*
X56515000Y-55640300D03*
D12*
G36*
X72476505Y-54165204D02*
G01*
X72500773Y-54168804D01*
X72524572Y-54174765D01*
X72547671Y-54183030D01*
X72569850Y-54193520D01*
X72590893Y-54206132D01*
X72610599Y-54220747D01*
X72628777Y-54237223D01*
X72645253Y-54255401D01*
X72659868Y-54275107D01*
X72672480Y-54296150D01*
X72682970Y-54318329D01*
X72691235Y-54341428D01*
X72697196Y-54365227D01*
X72700796Y-54389495D01*
X72702000Y-54413999D01*
X72702000Y-55314001D01*
X72700796Y-55338505D01*
X72697196Y-55362773D01*
X72691235Y-55386572D01*
X72682970Y-55409671D01*
X72672480Y-55431850D01*
X72659868Y-55452893D01*
X72645253Y-55472599D01*
X72628777Y-55490777D01*
X72610599Y-55507253D01*
X72590893Y-55521868D01*
X72569850Y-55534480D01*
X72547671Y-55544970D01*
X72524572Y-55553235D01*
X72500773Y-55559196D01*
X72476505Y-55562796D01*
X72452001Y-55564000D01*
X71801999Y-55564000D01*
X71777495Y-55562796D01*
X71753227Y-55559196D01*
X71729428Y-55553235D01*
X71706329Y-55544970D01*
X71684150Y-55534480D01*
X71663107Y-55521868D01*
X71643401Y-55507253D01*
X71625223Y-55490777D01*
X71608747Y-55472599D01*
X71594132Y-55452893D01*
X71581520Y-55431850D01*
X71571030Y-55409671D01*
X71562765Y-55386572D01*
X71556804Y-55362773D01*
X71553204Y-55338505D01*
X71552000Y-55314001D01*
X71552000Y-54413999D01*
X71553204Y-54389495D01*
X71556804Y-54365227D01*
X71562765Y-54341428D01*
X71571030Y-54318329D01*
X71581520Y-54296150D01*
X71594132Y-54275107D01*
X71608747Y-54255401D01*
X71625223Y-54237223D01*
X71643401Y-54220747D01*
X71663107Y-54206132D01*
X71684150Y-54193520D01*
X71706329Y-54183030D01*
X71729428Y-54174765D01*
X71753227Y-54168804D01*
X71777495Y-54165204D01*
X71801999Y-54164000D01*
X72452001Y-54164000D01*
X72476505Y-54165204D01*
X72476505Y-54165204D01*
G37*
D15*
X72127000Y-54864000D03*
D12*
G36*
X74526505Y-54165204D02*
G01*
X74550773Y-54168804D01*
X74574572Y-54174765D01*
X74597671Y-54183030D01*
X74619850Y-54193520D01*
X74640893Y-54206132D01*
X74660599Y-54220747D01*
X74678777Y-54237223D01*
X74695253Y-54255401D01*
X74709868Y-54275107D01*
X74722480Y-54296150D01*
X74732970Y-54318329D01*
X74741235Y-54341428D01*
X74747196Y-54365227D01*
X74750796Y-54389495D01*
X74752000Y-54413999D01*
X74752000Y-55314001D01*
X74750796Y-55338505D01*
X74747196Y-55362773D01*
X74741235Y-55386572D01*
X74732970Y-55409671D01*
X74722480Y-55431850D01*
X74709868Y-55452893D01*
X74695253Y-55472599D01*
X74678777Y-55490777D01*
X74660599Y-55507253D01*
X74640893Y-55521868D01*
X74619850Y-55534480D01*
X74597671Y-55544970D01*
X74574572Y-55553235D01*
X74550773Y-55559196D01*
X74526505Y-55562796D01*
X74502001Y-55564000D01*
X73851999Y-55564000D01*
X73827495Y-55562796D01*
X73803227Y-55559196D01*
X73779428Y-55553235D01*
X73756329Y-55544970D01*
X73734150Y-55534480D01*
X73713107Y-55521868D01*
X73693401Y-55507253D01*
X73675223Y-55490777D01*
X73658747Y-55472599D01*
X73644132Y-55452893D01*
X73631520Y-55431850D01*
X73621030Y-55409671D01*
X73612765Y-55386572D01*
X73606804Y-55362773D01*
X73603204Y-55338505D01*
X73602000Y-55314001D01*
X73602000Y-54413999D01*
X73603204Y-54389495D01*
X73606804Y-54365227D01*
X73612765Y-54341428D01*
X73621030Y-54318329D01*
X73631520Y-54296150D01*
X73644132Y-54275107D01*
X73658747Y-54255401D01*
X73675223Y-54237223D01*
X73693401Y-54220747D01*
X73713107Y-54206132D01*
X73734150Y-54193520D01*
X73756329Y-54183030D01*
X73779428Y-54174765D01*
X73803227Y-54168804D01*
X73827495Y-54165204D01*
X73851999Y-54164000D01*
X74502001Y-54164000D01*
X74526505Y-54165204D01*
X74526505Y-54165204D01*
G37*
D15*
X74177000Y-54864000D03*
D12*
G36*
X82234812Y-62425597D02*
G01*
X82259080Y-62429197D01*
X82282879Y-62435158D01*
X82305978Y-62443423D01*
X82328157Y-62453913D01*
X82349200Y-62466525D01*
X82368906Y-62481140D01*
X82387084Y-62497616D01*
X82403560Y-62515794D01*
X82418175Y-62535500D01*
X82430787Y-62556543D01*
X82441277Y-62578722D01*
X82449542Y-62601821D01*
X82455503Y-62625620D01*
X82459103Y-62649888D01*
X82460307Y-62674392D01*
X82460307Y-63574394D01*
X82459103Y-63598898D01*
X82455503Y-63623166D01*
X82449542Y-63646965D01*
X82441277Y-63670064D01*
X82430787Y-63692243D01*
X82418175Y-63713286D01*
X82403560Y-63732992D01*
X82387084Y-63751170D01*
X82368906Y-63767646D01*
X82349200Y-63782261D01*
X82328157Y-63794873D01*
X82305978Y-63805363D01*
X82282879Y-63813628D01*
X82259080Y-63819589D01*
X82234812Y-63823189D01*
X82210308Y-63824393D01*
X81560306Y-63824393D01*
X81535802Y-63823189D01*
X81511534Y-63819589D01*
X81487735Y-63813628D01*
X81464636Y-63805363D01*
X81442457Y-63794873D01*
X81421414Y-63782261D01*
X81401708Y-63767646D01*
X81383530Y-63751170D01*
X81367054Y-63732992D01*
X81352439Y-63713286D01*
X81339827Y-63692243D01*
X81329337Y-63670064D01*
X81321072Y-63646965D01*
X81315111Y-63623166D01*
X81311511Y-63598898D01*
X81310307Y-63574394D01*
X81310307Y-62674392D01*
X81311511Y-62649888D01*
X81315111Y-62625620D01*
X81321072Y-62601821D01*
X81329337Y-62578722D01*
X81339827Y-62556543D01*
X81352439Y-62535500D01*
X81367054Y-62515794D01*
X81383530Y-62497616D01*
X81401708Y-62481140D01*
X81421414Y-62466525D01*
X81442457Y-62453913D01*
X81464636Y-62443423D01*
X81487735Y-62435158D01*
X81511534Y-62429197D01*
X81535802Y-62425597D01*
X81560306Y-62424393D01*
X82210308Y-62424393D01*
X82234812Y-62425597D01*
X82234812Y-62425597D01*
G37*
D15*
X81885307Y-63124393D03*
D12*
G36*
X80184812Y-62425597D02*
G01*
X80209080Y-62429197D01*
X80232879Y-62435158D01*
X80255978Y-62443423D01*
X80278157Y-62453913D01*
X80299200Y-62466525D01*
X80318906Y-62481140D01*
X80337084Y-62497616D01*
X80353560Y-62515794D01*
X80368175Y-62535500D01*
X80380787Y-62556543D01*
X80391277Y-62578722D01*
X80399542Y-62601821D01*
X80405503Y-62625620D01*
X80409103Y-62649888D01*
X80410307Y-62674392D01*
X80410307Y-63574394D01*
X80409103Y-63598898D01*
X80405503Y-63623166D01*
X80399542Y-63646965D01*
X80391277Y-63670064D01*
X80380787Y-63692243D01*
X80368175Y-63713286D01*
X80353560Y-63732992D01*
X80337084Y-63751170D01*
X80318906Y-63767646D01*
X80299200Y-63782261D01*
X80278157Y-63794873D01*
X80255978Y-63805363D01*
X80232879Y-63813628D01*
X80209080Y-63819589D01*
X80184812Y-63823189D01*
X80160308Y-63824393D01*
X79510306Y-63824393D01*
X79485802Y-63823189D01*
X79461534Y-63819589D01*
X79437735Y-63813628D01*
X79414636Y-63805363D01*
X79392457Y-63794873D01*
X79371414Y-63782261D01*
X79351708Y-63767646D01*
X79333530Y-63751170D01*
X79317054Y-63732992D01*
X79302439Y-63713286D01*
X79289827Y-63692243D01*
X79279337Y-63670064D01*
X79271072Y-63646965D01*
X79265111Y-63623166D01*
X79261511Y-63598898D01*
X79260307Y-63574394D01*
X79260307Y-62674392D01*
X79261511Y-62649888D01*
X79265111Y-62625620D01*
X79271072Y-62601821D01*
X79279337Y-62578722D01*
X79289827Y-62556543D01*
X79302439Y-62535500D01*
X79317054Y-62515794D01*
X79333530Y-62497616D01*
X79351708Y-62481140D01*
X79371414Y-62466525D01*
X79392457Y-62453913D01*
X79414636Y-62443423D01*
X79437735Y-62435158D01*
X79461534Y-62429197D01*
X79485802Y-62425597D01*
X79510306Y-62424393D01*
X80160308Y-62424393D01*
X80184812Y-62425597D01*
X80184812Y-62425597D01*
G37*
D15*
X79835307Y-63124393D03*
D12*
G36*
X70980842Y-66656149D02*
G01*
X71005111Y-66659749D01*
X71028909Y-66665710D01*
X71052009Y-66673975D01*
X71074187Y-66684465D01*
X71095231Y-66697078D01*
X71114936Y-66711692D01*
X71133115Y-66728168D01*
X71149591Y-66746347D01*
X71164205Y-66766052D01*
X71176818Y-66787096D01*
X71187308Y-66809274D01*
X71195573Y-66832374D01*
X71201534Y-66856172D01*
X71205134Y-66880441D01*
X71206338Y-66904945D01*
X71206338Y-69054945D01*
X71205134Y-69079449D01*
X71201534Y-69103718D01*
X71195573Y-69127516D01*
X71187308Y-69150616D01*
X71176818Y-69172794D01*
X71164205Y-69193838D01*
X71149591Y-69213543D01*
X71133115Y-69231722D01*
X71114936Y-69248198D01*
X71095231Y-69262812D01*
X71074187Y-69275425D01*
X71052009Y-69285915D01*
X71028909Y-69294180D01*
X71005111Y-69300141D01*
X70980842Y-69303741D01*
X70956338Y-69304945D01*
X70031338Y-69304945D01*
X70006834Y-69303741D01*
X69982565Y-69300141D01*
X69958767Y-69294180D01*
X69935667Y-69285915D01*
X69913489Y-69275425D01*
X69892445Y-69262812D01*
X69872740Y-69248198D01*
X69854561Y-69231722D01*
X69838085Y-69213543D01*
X69823471Y-69193838D01*
X69810858Y-69172794D01*
X69800368Y-69150616D01*
X69792103Y-69127516D01*
X69786142Y-69103718D01*
X69782542Y-69079449D01*
X69781338Y-69054945D01*
X69781338Y-66904945D01*
X69782542Y-66880441D01*
X69786142Y-66856172D01*
X69792103Y-66832374D01*
X69800368Y-66809274D01*
X69810858Y-66787096D01*
X69823471Y-66766052D01*
X69838085Y-66746347D01*
X69854561Y-66728168D01*
X69872740Y-66711692D01*
X69892445Y-66697078D01*
X69913489Y-66684465D01*
X69935667Y-66673975D01*
X69958767Y-66665710D01*
X69982565Y-66659749D01*
X70006834Y-66656149D01*
X70031338Y-66654945D01*
X70956338Y-66654945D01*
X70980842Y-66656149D01*
X70980842Y-66656149D01*
G37*
D13*
X70493838Y-67979945D03*
D12*
G36*
X68005842Y-66656149D02*
G01*
X68030111Y-66659749D01*
X68053909Y-66665710D01*
X68077009Y-66673975D01*
X68099187Y-66684465D01*
X68120231Y-66697078D01*
X68139936Y-66711692D01*
X68158115Y-66728168D01*
X68174591Y-66746347D01*
X68189205Y-66766052D01*
X68201818Y-66787096D01*
X68212308Y-66809274D01*
X68220573Y-66832374D01*
X68226534Y-66856172D01*
X68230134Y-66880441D01*
X68231338Y-66904945D01*
X68231338Y-69054945D01*
X68230134Y-69079449D01*
X68226534Y-69103718D01*
X68220573Y-69127516D01*
X68212308Y-69150616D01*
X68201818Y-69172794D01*
X68189205Y-69193838D01*
X68174591Y-69213543D01*
X68158115Y-69231722D01*
X68139936Y-69248198D01*
X68120231Y-69262812D01*
X68099187Y-69275425D01*
X68077009Y-69285915D01*
X68053909Y-69294180D01*
X68030111Y-69300141D01*
X68005842Y-69303741D01*
X67981338Y-69304945D01*
X67056338Y-69304945D01*
X67031834Y-69303741D01*
X67007565Y-69300141D01*
X66983767Y-69294180D01*
X66960667Y-69285915D01*
X66938489Y-69275425D01*
X66917445Y-69262812D01*
X66897740Y-69248198D01*
X66879561Y-69231722D01*
X66863085Y-69213543D01*
X66848471Y-69193838D01*
X66835858Y-69172794D01*
X66825368Y-69150616D01*
X66817103Y-69127516D01*
X66811142Y-69103718D01*
X66807542Y-69079449D01*
X66806338Y-69054945D01*
X66806338Y-66904945D01*
X66807542Y-66880441D01*
X66811142Y-66856172D01*
X66817103Y-66832374D01*
X66825368Y-66809274D01*
X66835858Y-66787096D01*
X66848471Y-66766052D01*
X66863085Y-66746347D01*
X66879561Y-66728168D01*
X66897740Y-66711692D01*
X66917445Y-66697078D01*
X66938489Y-66684465D01*
X66960667Y-66673975D01*
X66983767Y-66665710D01*
X67007565Y-66659749D01*
X67031834Y-66656149D01*
X67056338Y-66654945D01*
X67981338Y-66654945D01*
X68005842Y-66656149D01*
X68005842Y-66656149D01*
G37*
D13*
X67518838Y-67979945D03*
D16*
X68557000Y-64398545D03*
D17*
X71937000Y-64398545D03*
D18*
X70612000Y-64398545D03*
D19*
X66802000Y-52705000D03*
X66802000Y-58255000D03*
D12*
G36*
X74667905Y-52245504D02*
G01*
X74692173Y-52249104D01*
X74715972Y-52255065D01*
X74739071Y-52263330D01*
X74761250Y-52273820D01*
X74782293Y-52286432D01*
X74801999Y-52301047D01*
X74820177Y-52317523D01*
X74836653Y-52335701D01*
X74851268Y-52355407D01*
X74863880Y-52376450D01*
X74874370Y-52398629D01*
X74882635Y-52421728D01*
X74888596Y-52445527D01*
X74892196Y-52469795D01*
X74893400Y-52494299D01*
X74893400Y-53144301D01*
X74892196Y-53168805D01*
X74888596Y-53193073D01*
X74882635Y-53216872D01*
X74874370Y-53239971D01*
X74863880Y-53262150D01*
X74851268Y-53283193D01*
X74836653Y-53302899D01*
X74820177Y-53321077D01*
X74801999Y-53337553D01*
X74782293Y-53352168D01*
X74761250Y-53364780D01*
X74739071Y-53375270D01*
X74715972Y-53383535D01*
X74692173Y-53389496D01*
X74667905Y-53393096D01*
X74643401Y-53394300D01*
X73743399Y-53394300D01*
X73718895Y-53393096D01*
X73694627Y-53389496D01*
X73670828Y-53383535D01*
X73647729Y-53375270D01*
X73625550Y-53364780D01*
X73604507Y-53352168D01*
X73584801Y-53337553D01*
X73566623Y-53321077D01*
X73550147Y-53302899D01*
X73535532Y-53283193D01*
X73522920Y-53262150D01*
X73512430Y-53239971D01*
X73504165Y-53216872D01*
X73498204Y-53193073D01*
X73494604Y-53168805D01*
X73493400Y-53144301D01*
X73493400Y-52494299D01*
X73494604Y-52469795D01*
X73498204Y-52445527D01*
X73504165Y-52421728D01*
X73512430Y-52398629D01*
X73522920Y-52376450D01*
X73535532Y-52355407D01*
X73550147Y-52335701D01*
X73566623Y-52317523D01*
X73584801Y-52301047D01*
X73604507Y-52286432D01*
X73625550Y-52273820D01*
X73647729Y-52263330D01*
X73670828Y-52255065D01*
X73694627Y-52249104D01*
X73718895Y-52245504D01*
X73743399Y-52244300D01*
X74643401Y-52244300D01*
X74667905Y-52245504D01*
X74667905Y-52245504D01*
G37*
D15*
X74193400Y-52819300D03*
D12*
G36*
X74667905Y-50195504D02*
G01*
X74692173Y-50199104D01*
X74715972Y-50205065D01*
X74739071Y-50213330D01*
X74761250Y-50223820D01*
X74782293Y-50236432D01*
X74801999Y-50251047D01*
X74820177Y-50267523D01*
X74836653Y-50285701D01*
X74851268Y-50305407D01*
X74863880Y-50326450D01*
X74874370Y-50348629D01*
X74882635Y-50371728D01*
X74888596Y-50395527D01*
X74892196Y-50419795D01*
X74893400Y-50444299D01*
X74893400Y-51094301D01*
X74892196Y-51118805D01*
X74888596Y-51143073D01*
X74882635Y-51166872D01*
X74874370Y-51189971D01*
X74863880Y-51212150D01*
X74851268Y-51233193D01*
X74836653Y-51252899D01*
X74820177Y-51271077D01*
X74801999Y-51287553D01*
X74782293Y-51302168D01*
X74761250Y-51314780D01*
X74739071Y-51325270D01*
X74715972Y-51333535D01*
X74692173Y-51339496D01*
X74667905Y-51343096D01*
X74643401Y-51344300D01*
X73743399Y-51344300D01*
X73718895Y-51343096D01*
X73694627Y-51339496D01*
X73670828Y-51333535D01*
X73647729Y-51325270D01*
X73625550Y-51314780D01*
X73604507Y-51302168D01*
X73584801Y-51287553D01*
X73566623Y-51271077D01*
X73550147Y-51252899D01*
X73535532Y-51233193D01*
X73522920Y-51212150D01*
X73512430Y-51189971D01*
X73504165Y-51166872D01*
X73498204Y-51143073D01*
X73494604Y-51118805D01*
X73493400Y-51094301D01*
X73493400Y-50444299D01*
X73494604Y-50419795D01*
X73498204Y-50395527D01*
X73504165Y-50371728D01*
X73512430Y-50348629D01*
X73522920Y-50326450D01*
X73535532Y-50305407D01*
X73550147Y-50285701D01*
X73566623Y-50267523D01*
X73584801Y-50251047D01*
X73604507Y-50236432D01*
X73625550Y-50223820D01*
X73647729Y-50213330D01*
X73670828Y-50205065D01*
X73694627Y-50199104D01*
X73718895Y-50195504D01*
X73743399Y-50194300D01*
X74643401Y-50194300D01*
X74667905Y-50195504D01*
X74667905Y-50195504D01*
G37*
D15*
X74193400Y-50769300D03*
D12*
G36*
X87489825Y-56322204D02*
G01*
X87514093Y-56325804D01*
X87537892Y-56331765D01*
X87560991Y-56340030D01*
X87583170Y-56350520D01*
X87604213Y-56363132D01*
X87623919Y-56377747D01*
X87642097Y-56394223D01*
X87658573Y-56412401D01*
X87673188Y-56432107D01*
X87685800Y-56453150D01*
X87696290Y-56475329D01*
X87704555Y-56498428D01*
X87710516Y-56522227D01*
X87714116Y-56546495D01*
X87715320Y-56570999D01*
X87715320Y-57221001D01*
X87714116Y-57245505D01*
X87710516Y-57269773D01*
X87704555Y-57293572D01*
X87696290Y-57316671D01*
X87685800Y-57338850D01*
X87673188Y-57359893D01*
X87658573Y-57379599D01*
X87642097Y-57397777D01*
X87623919Y-57414253D01*
X87604213Y-57428868D01*
X87583170Y-57441480D01*
X87560991Y-57451970D01*
X87537892Y-57460235D01*
X87514093Y-57466196D01*
X87489825Y-57469796D01*
X87465321Y-57471000D01*
X86565319Y-57471000D01*
X86540815Y-57469796D01*
X86516547Y-57466196D01*
X86492748Y-57460235D01*
X86469649Y-57451970D01*
X86447470Y-57441480D01*
X86426427Y-57428868D01*
X86406721Y-57414253D01*
X86388543Y-57397777D01*
X86372067Y-57379599D01*
X86357452Y-57359893D01*
X86344840Y-57338850D01*
X86334350Y-57316671D01*
X86326085Y-57293572D01*
X86320124Y-57269773D01*
X86316524Y-57245505D01*
X86315320Y-57221001D01*
X86315320Y-56570999D01*
X86316524Y-56546495D01*
X86320124Y-56522227D01*
X86326085Y-56498428D01*
X86334350Y-56475329D01*
X86344840Y-56453150D01*
X86357452Y-56432107D01*
X86372067Y-56412401D01*
X86388543Y-56394223D01*
X86406721Y-56377747D01*
X86426427Y-56363132D01*
X86447470Y-56350520D01*
X86469649Y-56340030D01*
X86492748Y-56331765D01*
X86516547Y-56325804D01*
X86540815Y-56322204D01*
X86565319Y-56321000D01*
X87465321Y-56321000D01*
X87489825Y-56322204D01*
X87489825Y-56322204D01*
G37*
D15*
X87015320Y-56896000D03*
D12*
G36*
X87489825Y-58372204D02*
G01*
X87514093Y-58375804D01*
X87537892Y-58381765D01*
X87560991Y-58390030D01*
X87583170Y-58400520D01*
X87604213Y-58413132D01*
X87623919Y-58427747D01*
X87642097Y-58444223D01*
X87658573Y-58462401D01*
X87673188Y-58482107D01*
X87685800Y-58503150D01*
X87696290Y-58525329D01*
X87704555Y-58548428D01*
X87710516Y-58572227D01*
X87714116Y-58596495D01*
X87715320Y-58620999D01*
X87715320Y-59271001D01*
X87714116Y-59295505D01*
X87710516Y-59319773D01*
X87704555Y-59343572D01*
X87696290Y-59366671D01*
X87685800Y-59388850D01*
X87673188Y-59409893D01*
X87658573Y-59429599D01*
X87642097Y-59447777D01*
X87623919Y-59464253D01*
X87604213Y-59478868D01*
X87583170Y-59491480D01*
X87560991Y-59501970D01*
X87537892Y-59510235D01*
X87514093Y-59516196D01*
X87489825Y-59519796D01*
X87465321Y-59521000D01*
X86565319Y-59521000D01*
X86540815Y-59519796D01*
X86516547Y-59516196D01*
X86492748Y-59510235D01*
X86469649Y-59501970D01*
X86447470Y-59491480D01*
X86426427Y-59478868D01*
X86406721Y-59464253D01*
X86388543Y-59447777D01*
X86372067Y-59429599D01*
X86357452Y-59409893D01*
X86344840Y-59388850D01*
X86334350Y-59366671D01*
X86326085Y-59343572D01*
X86320124Y-59319773D01*
X86316524Y-59295505D01*
X86315320Y-59271001D01*
X86315320Y-58620999D01*
X86316524Y-58596495D01*
X86320124Y-58572227D01*
X86326085Y-58548428D01*
X86334350Y-58525329D01*
X86344840Y-58503150D01*
X86357452Y-58482107D01*
X86372067Y-58462401D01*
X86388543Y-58444223D01*
X86406721Y-58427747D01*
X86426427Y-58413132D01*
X86447470Y-58400520D01*
X86469649Y-58390030D01*
X86492748Y-58381765D01*
X86516547Y-58375804D01*
X86540815Y-58372204D01*
X86565319Y-58371000D01*
X87465321Y-58371000D01*
X87489825Y-58372204D01*
X87489825Y-58372204D01*
G37*
D15*
X87015320Y-58946000D03*
D12*
G36*
X80189105Y-64528404D02*
G01*
X80213373Y-64532004D01*
X80237172Y-64537965D01*
X80260271Y-64546230D01*
X80282450Y-64556720D01*
X80303493Y-64569332D01*
X80323199Y-64583947D01*
X80341377Y-64600423D01*
X80357853Y-64618601D01*
X80372468Y-64638307D01*
X80385080Y-64659350D01*
X80395570Y-64681529D01*
X80403835Y-64704628D01*
X80409796Y-64728427D01*
X80413396Y-64752695D01*
X80414600Y-64777199D01*
X80414600Y-65677201D01*
X80413396Y-65701705D01*
X80409796Y-65725973D01*
X80403835Y-65749772D01*
X80395570Y-65772871D01*
X80385080Y-65795050D01*
X80372468Y-65816093D01*
X80357853Y-65835799D01*
X80341377Y-65853977D01*
X80323199Y-65870453D01*
X80303493Y-65885068D01*
X80282450Y-65897680D01*
X80260271Y-65908170D01*
X80237172Y-65916435D01*
X80213373Y-65922396D01*
X80189105Y-65925996D01*
X80164601Y-65927200D01*
X79514599Y-65927200D01*
X79490095Y-65925996D01*
X79465827Y-65922396D01*
X79442028Y-65916435D01*
X79418929Y-65908170D01*
X79396750Y-65897680D01*
X79375707Y-65885068D01*
X79356001Y-65870453D01*
X79337823Y-65853977D01*
X79321347Y-65835799D01*
X79306732Y-65816093D01*
X79294120Y-65795050D01*
X79283630Y-65772871D01*
X79275365Y-65749772D01*
X79269404Y-65725973D01*
X79265804Y-65701705D01*
X79264600Y-65677201D01*
X79264600Y-64777199D01*
X79265804Y-64752695D01*
X79269404Y-64728427D01*
X79275365Y-64704628D01*
X79283630Y-64681529D01*
X79294120Y-64659350D01*
X79306732Y-64638307D01*
X79321347Y-64618601D01*
X79337823Y-64600423D01*
X79356001Y-64583947D01*
X79375707Y-64569332D01*
X79396750Y-64556720D01*
X79418929Y-64546230D01*
X79442028Y-64537965D01*
X79465827Y-64532004D01*
X79490095Y-64528404D01*
X79514599Y-64527200D01*
X80164601Y-64527200D01*
X80189105Y-64528404D01*
X80189105Y-64528404D01*
G37*
D15*
X79839600Y-65227200D03*
D12*
G36*
X82239105Y-64528404D02*
G01*
X82263373Y-64532004D01*
X82287172Y-64537965D01*
X82310271Y-64546230D01*
X82332450Y-64556720D01*
X82353493Y-64569332D01*
X82373199Y-64583947D01*
X82391377Y-64600423D01*
X82407853Y-64618601D01*
X82422468Y-64638307D01*
X82435080Y-64659350D01*
X82445570Y-64681529D01*
X82453835Y-64704628D01*
X82459796Y-64728427D01*
X82463396Y-64752695D01*
X82464600Y-64777199D01*
X82464600Y-65677201D01*
X82463396Y-65701705D01*
X82459796Y-65725973D01*
X82453835Y-65749772D01*
X82445570Y-65772871D01*
X82435080Y-65795050D01*
X82422468Y-65816093D01*
X82407853Y-65835799D01*
X82391377Y-65853977D01*
X82373199Y-65870453D01*
X82353493Y-65885068D01*
X82332450Y-65897680D01*
X82310271Y-65908170D01*
X82287172Y-65916435D01*
X82263373Y-65922396D01*
X82239105Y-65925996D01*
X82214601Y-65927200D01*
X81564599Y-65927200D01*
X81540095Y-65925996D01*
X81515827Y-65922396D01*
X81492028Y-65916435D01*
X81468929Y-65908170D01*
X81446750Y-65897680D01*
X81425707Y-65885068D01*
X81406001Y-65870453D01*
X81387823Y-65853977D01*
X81371347Y-65835799D01*
X81356732Y-65816093D01*
X81344120Y-65795050D01*
X81333630Y-65772871D01*
X81325365Y-65749772D01*
X81319404Y-65725973D01*
X81315804Y-65701705D01*
X81314600Y-65677201D01*
X81314600Y-64777199D01*
X81315804Y-64752695D01*
X81319404Y-64728427D01*
X81325365Y-64704628D01*
X81333630Y-64681529D01*
X81344120Y-64659350D01*
X81356732Y-64638307D01*
X81371347Y-64618601D01*
X81387823Y-64600423D01*
X81406001Y-64583947D01*
X81425707Y-64569332D01*
X81446750Y-64556720D01*
X81468929Y-64546230D01*
X81492028Y-64537965D01*
X81515827Y-64532004D01*
X81540095Y-64528404D01*
X81564599Y-64527200D01*
X82214601Y-64527200D01*
X82239105Y-64528404D01*
X82239105Y-64528404D01*
G37*
D15*
X81889600Y-65227200D03*
D12*
G36*
X85970905Y-62532504D02*
G01*
X85995173Y-62536104D01*
X86018972Y-62542065D01*
X86042071Y-62550330D01*
X86064250Y-62560820D01*
X86085293Y-62573432D01*
X86104999Y-62588047D01*
X86123177Y-62604523D01*
X86139653Y-62622701D01*
X86154268Y-62642407D01*
X86166880Y-62663450D01*
X86177370Y-62685629D01*
X86185635Y-62708728D01*
X86191596Y-62732527D01*
X86195196Y-62756795D01*
X86196400Y-62781299D01*
X86196400Y-63431301D01*
X86195196Y-63455805D01*
X86191596Y-63480073D01*
X86185635Y-63503872D01*
X86177370Y-63526971D01*
X86166880Y-63549150D01*
X86154268Y-63570193D01*
X86139653Y-63589899D01*
X86123177Y-63608077D01*
X86104999Y-63624553D01*
X86085293Y-63639168D01*
X86064250Y-63651780D01*
X86042071Y-63662270D01*
X86018972Y-63670535D01*
X85995173Y-63676496D01*
X85970905Y-63680096D01*
X85946401Y-63681300D01*
X85046399Y-63681300D01*
X85021895Y-63680096D01*
X84997627Y-63676496D01*
X84973828Y-63670535D01*
X84950729Y-63662270D01*
X84928550Y-63651780D01*
X84907507Y-63639168D01*
X84887801Y-63624553D01*
X84869623Y-63608077D01*
X84853147Y-63589899D01*
X84838532Y-63570193D01*
X84825920Y-63549150D01*
X84815430Y-63526971D01*
X84807165Y-63503872D01*
X84801204Y-63480073D01*
X84797604Y-63455805D01*
X84796400Y-63431301D01*
X84796400Y-62781299D01*
X84797604Y-62756795D01*
X84801204Y-62732527D01*
X84807165Y-62708728D01*
X84815430Y-62685629D01*
X84825920Y-62663450D01*
X84838532Y-62642407D01*
X84853147Y-62622701D01*
X84869623Y-62604523D01*
X84887801Y-62588047D01*
X84907507Y-62573432D01*
X84928550Y-62560820D01*
X84950729Y-62550330D01*
X84973828Y-62542065D01*
X84997627Y-62536104D01*
X85021895Y-62532504D01*
X85046399Y-62531300D01*
X85946401Y-62531300D01*
X85970905Y-62532504D01*
X85970905Y-62532504D01*
G37*
D15*
X85496400Y-63106300D03*
D12*
G36*
X85970905Y-64582504D02*
G01*
X85995173Y-64586104D01*
X86018972Y-64592065D01*
X86042071Y-64600330D01*
X86064250Y-64610820D01*
X86085293Y-64623432D01*
X86104999Y-64638047D01*
X86123177Y-64654523D01*
X86139653Y-64672701D01*
X86154268Y-64692407D01*
X86166880Y-64713450D01*
X86177370Y-64735629D01*
X86185635Y-64758728D01*
X86191596Y-64782527D01*
X86195196Y-64806795D01*
X86196400Y-64831299D01*
X86196400Y-65481301D01*
X86195196Y-65505805D01*
X86191596Y-65530073D01*
X86185635Y-65553872D01*
X86177370Y-65576971D01*
X86166880Y-65599150D01*
X86154268Y-65620193D01*
X86139653Y-65639899D01*
X86123177Y-65658077D01*
X86104999Y-65674553D01*
X86085293Y-65689168D01*
X86064250Y-65701780D01*
X86042071Y-65712270D01*
X86018972Y-65720535D01*
X85995173Y-65726496D01*
X85970905Y-65730096D01*
X85946401Y-65731300D01*
X85046399Y-65731300D01*
X85021895Y-65730096D01*
X84997627Y-65726496D01*
X84973828Y-65720535D01*
X84950729Y-65712270D01*
X84928550Y-65701780D01*
X84907507Y-65689168D01*
X84887801Y-65674553D01*
X84869623Y-65658077D01*
X84853147Y-65639899D01*
X84838532Y-65620193D01*
X84825920Y-65599150D01*
X84815430Y-65576971D01*
X84807165Y-65553872D01*
X84801204Y-65530073D01*
X84797604Y-65505805D01*
X84796400Y-65481301D01*
X84796400Y-64831299D01*
X84797604Y-64806795D01*
X84801204Y-64782527D01*
X84807165Y-64758728D01*
X84815430Y-64735629D01*
X84825920Y-64713450D01*
X84838532Y-64692407D01*
X84853147Y-64672701D01*
X84869623Y-64654523D01*
X84887801Y-64638047D01*
X84907507Y-64623432D01*
X84928550Y-64610820D01*
X84950729Y-64600330D01*
X84973828Y-64592065D01*
X84997627Y-64586104D01*
X85021895Y-64582504D01*
X85046399Y-64581300D01*
X85946401Y-64581300D01*
X85970905Y-64582504D01*
X85970905Y-64582504D01*
G37*
D15*
X85496400Y-65156300D03*
D12*
G36*
X82243812Y-60139597D02*
G01*
X82268080Y-60143197D01*
X82291879Y-60149158D01*
X82314978Y-60157423D01*
X82337157Y-60167913D01*
X82358200Y-60180525D01*
X82377906Y-60195140D01*
X82396084Y-60211616D01*
X82412560Y-60229794D01*
X82427175Y-60249500D01*
X82439787Y-60270543D01*
X82450277Y-60292722D01*
X82458542Y-60315821D01*
X82464503Y-60339620D01*
X82468103Y-60363888D01*
X82469307Y-60388392D01*
X82469307Y-61288394D01*
X82468103Y-61312898D01*
X82464503Y-61337166D01*
X82458542Y-61360965D01*
X82450277Y-61384064D01*
X82439787Y-61406243D01*
X82427175Y-61427286D01*
X82412560Y-61446992D01*
X82396084Y-61465170D01*
X82377906Y-61481646D01*
X82358200Y-61496261D01*
X82337157Y-61508873D01*
X82314978Y-61519363D01*
X82291879Y-61527628D01*
X82268080Y-61533589D01*
X82243812Y-61537189D01*
X82219308Y-61538393D01*
X81569306Y-61538393D01*
X81544802Y-61537189D01*
X81520534Y-61533589D01*
X81496735Y-61527628D01*
X81473636Y-61519363D01*
X81451457Y-61508873D01*
X81430414Y-61496261D01*
X81410708Y-61481646D01*
X81392530Y-61465170D01*
X81376054Y-61446992D01*
X81361439Y-61427286D01*
X81348827Y-61406243D01*
X81338337Y-61384064D01*
X81330072Y-61360965D01*
X81324111Y-61337166D01*
X81320511Y-61312898D01*
X81319307Y-61288394D01*
X81319307Y-60388392D01*
X81320511Y-60363888D01*
X81324111Y-60339620D01*
X81330072Y-60315821D01*
X81338337Y-60292722D01*
X81348827Y-60270543D01*
X81361439Y-60249500D01*
X81376054Y-60229794D01*
X81392530Y-60211616D01*
X81410708Y-60195140D01*
X81430414Y-60180525D01*
X81451457Y-60167913D01*
X81473636Y-60157423D01*
X81496735Y-60149158D01*
X81520534Y-60143197D01*
X81544802Y-60139597D01*
X81569306Y-60138393D01*
X82219308Y-60138393D01*
X82243812Y-60139597D01*
X82243812Y-60139597D01*
G37*
D15*
X81894307Y-60838393D03*
D12*
G36*
X80193812Y-60139597D02*
G01*
X80218080Y-60143197D01*
X80241879Y-60149158D01*
X80264978Y-60157423D01*
X80287157Y-60167913D01*
X80308200Y-60180525D01*
X80327906Y-60195140D01*
X80346084Y-60211616D01*
X80362560Y-60229794D01*
X80377175Y-60249500D01*
X80389787Y-60270543D01*
X80400277Y-60292722D01*
X80408542Y-60315821D01*
X80414503Y-60339620D01*
X80418103Y-60363888D01*
X80419307Y-60388392D01*
X80419307Y-61288394D01*
X80418103Y-61312898D01*
X80414503Y-61337166D01*
X80408542Y-61360965D01*
X80400277Y-61384064D01*
X80389787Y-61406243D01*
X80377175Y-61427286D01*
X80362560Y-61446992D01*
X80346084Y-61465170D01*
X80327906Y-61481646D01*
X80308200Y-61496261D01*
X80287157Y-61508873D01*
X80264978Y-61519363D01*
X80241879Y-61527628D01*
X80218080Y-61533589D01*
X80193812Y-61537189D01*
X80169308Y-61538393D01*
X79519306Y-61538393D01*
X79494802Y-61537189D01*
X79470534Y-61533589D01*
X79446735Y-61527628D01*
X79423636Y-61519363D01*
X79401457Y-61508873D01*
X79380414Y-61496261D01*
X79360708Y-61481646D01*
X79342530Y-61465170D01*
X79326054Y-61446992D01*
X79311439Y-61427286D01*
X79298827Y-61406243D01*
X79288337Y-61384064D01*
X79280072Y-61360965D01*
X79274111Y-61337166D01*
X79270511Y-61312898D01*
X79269307Y-61288394D01*
X79269307Y-60388392D01*
X79270511Y-60363888D01*
X79274111Y-60339620D01*
X79280072Y-60315821D01*
X79288337Y-60292722D01*
X79298827Y-60270543D01*
X79311439Y-60249500D01*
X79326054Y-60229794D01*
X79342530Y-60211616D01*
X79360708Y-60195140D01*
X79380414Y-60180525D01*
X79401457Y-60167913D01*
X79423636Y-60157423D01*
X79446735Y-60149158D01*
X79470534Y-60143197D01*
X79494802Y-60139597D01*
X79519306Y-60138393D01*
X80169308Y-60138393D01*
X80193812Y-60139597D01*
X80193812Y-60139597D01*
G37*
D15*
X79844307Y-60838393D03*
D12*
G36*
X80128905Y-51487204D02*
G01*
X80153173Y-51490804D01*
X80176972Y-51496765D01*
X80200071Y-51505030D01*
X80222250Y-51515520D01*
X80243293Y-51528132D01*
X80262999Y-51542747D01*
X80281177Y-51559223D01*
X80297653Y-51577401D01*
X80312268Y-51597107D01*
X80324880Y-51618150D01*
X80335370Y-51640329D01*
X80343635Y-51663428D01*
X80349596Y-51687227D01*
X80353196Y-51711495D01*
X80354400Y-51735999D01*
X80354400Y-52386001D01*
X80353196Y-52410505D01*
X80349596Y-52434773D01*
X80343635Y-52458572D01*
X80335370Y-52481671D01*
X80324880Y-52503850D01*
X80312268Y-52524893D01*
X80297653Y-52544599D01*
X80281177Y-52562777D01*
X80262999Y-52579253D01*
X80243293Y-52593868D01*
X80222250Y-52606480D01*
X80200071Y-52616970D01*
X80176972Y-52625235D01*
X80153173Y-52631196D01*
X80128905Y-52634796D01*
X80104401Y-52636000D01*
X79204399Y-52636000D01*
X79179895Y-52634796D01*
X79155627Y-52631196D01*
X79131828Y-52625235D01*
X79108729Y-52616970D01*
X79086550Y-52606480D01*
X79065507Y-52593868D01*
X79045801Y-52579253D01*
X79027623Y-52562777D01*
X79011147Y-52544599D01*
X78996532Y-52524893D01*
X78983920Y-52503850D01*
X78973430Y-52481671D01*
X78965165Y-52458572D01*
X78959204Y-52434773D01*
X78955604Y-52410505D01*
X78954400Y-52386001D01*
X78954400Y-51735999D01*
X78955604Y-51711495D01*
X78959204Y-51687227D01*
X78965165Y-51663428D01*
X78973430Y-51640329D01*
X78983920Y-51618150D01*
X78996532Y-51597107D01*
X79011147Y-51577401D01*
X79027623Y-51559223D01*
X79045801Y-51542747D01*
X79065507Y-51528132D01*
X79086550Y-51515520D01*
X79108729Y-51505030D01*
X79131828Y-51496765D01*
X79155627Y-51490804D01*
X79179895Y-51487204D01*
X79204399Y-51486000D01*
X80104401Y-51486000D01*
X80128905Y-51487204D01*
X80128905Y-51487204D01*
G37*
D15*
X79654400Y-52061000D03*
D12*
G36*
X80128905Y-53537204D02*
G01*
X80153173Y-53540804D01*
X80176972Y-53546765D01*
X80200071Y-53555030D01*
X80222250Y-53565520D01*
X80243293Y-53578132D01*
X80262999Y-53592747D01*
X80281177Y-53609223D01*
X80297653Y-53627401D01*
X80312268Y-53647107D01*
X80324880Y-53668150D01*
X80335370Y-53690329D01*
X80343635Y-53713428D01*
X80349596Y-53737227D01*
X80353196Y-53761495D01*
X80354400Y-53785999D01*
X80354400Y-54436001D01*
X80353196Y-54460505D01*
X80349596Y-54484773D01*
X80343635Y-54508572D01*
X80335370Y-54531671D01*
X80324880Y-54553850D01*
X80312268Y-54574893D01*
X80297653Y-54594599D01*
X80281177Y-54612777D01*
X80262999Y-54629253D01*
X80243293Y-54643868D01*
X80222250Y-54656480D01*
X80200071Y-54666970D01*
X80176972Y-54675235D01*
X80153173Y-54681196D01*
X80128905Y-54684796D01*
X80104401Y-54686000D01*
X79204399Y-54686000D01*
X79179895Y-54684796D01*
X79155627Y-54681196D01*
X79131828Y-54675235D01*
X79108729Y-54666970D01*
X79086550Y-54656480D01*
X79065507Y-54643868D01*
X79045801Y-54629253D01*
X79027623Y-54612777D01*
X79011147Y-54594599D01*
X78996532Y-54574893D01*
X78983920Y-54553850D01*
X78973430Y-54531671D01*
X78965165Y-54508572D01*
X78959204Y-54484773D01*
X78955604Y-54460505D01*
X78954400Y-54436001D01*
X78954400Y-53785999D01*
X78955604Y-53761495D01*
X78959204Y-53737227D01*
X78965165Y-53713428D01*
X78973430Y-53690329D01*
X78983920Y-53668150D01*
X78996532Y-53647107D01*
X79011147Y-53627401D01*
X79027623Y-53609223D01*
X79045801Y-53592747D01*
X79065507Y-53578132D01*
X79086550Y-53565520D01*
X79108729Y-53555030D01*
X79131828Y-53546765D01*
X79155627Y-53540804D01*
X79179895Y-53537204D01*
X79204399Y-53536000D01*
X80104401Y-53536000D01*
X80128905Y-53537204D01*
X80128905Y-53537204D01*
G37*
D15*
X79654400Y-54111000D03*
D20*
X83527900Y-60388500D03*
X83677760Y-63596520D03*
X71120000Y-53086000D03*
X86898480Y-60990480D03*
X77028040Y-62275720D03*
X50800000Y-47244000D03*
X57404000Y-47244000D03*
X64008000Y-47244000D03*
X87998300Y-66700400D03*
X90754200Y-66827400D03*
D21*
X70493838Y-64631345D02*
X70726638Y-64398545D01*
D22*
X74262000Y-58887000D02*
X73862000Y-58887000D01*
D23*
X87015320Y-58946000D02*
X87015320Y-60873640D01*
X87015320Y-60873640D02*
X86898480Y-60990480D01*
X82956400Y-56776400D02*
X86410800Y-56776400D01*
D22*
X82145800Y-57587000D02*
X82956400Y-56776400D01*
X79662000Y-57587000D02*
X82145800Y-57587000D01*
X79665272Y-58233728D02*
X79662000Y-58237000D01*
D23*
X83756400Y-58826400D02*
X82956400Y-58826400D01*
X85496400Y-60566400D02*
X83756400Y-58826400D01*
X85496400Y-63106300D02*
X85496400Y-60566400D01*
D22*
X79695972Y-58203028D02*
X79662000Y-58237000D01*
X82333028Y-58203028D02*
X79695972Y-58203028D01*
X82956400Y-58826400D02*
X82333028Y-58203028D01*
D23*
X78362700Y-50769300D02*
X79654400Y-52061000D01*
X74193400Y-50769300D02*
X78362700Y-50769300D01*
X74193400Y-50769300D02*
X69245700Y-50769300D01*
X74177000Y-52835700D02*
X74193400Y-52819300D01*
X74177000Y-54864000D02*
X74177000Y-52835700D01*
D22*
X74177000Y-56852000D02*
X74262000Y-56937000D01*
X74177000Y-54864000D02*
X74177000Y-56852000D01*
X79662000Y-65049600D02*
X79839600Y-65227200D01*
X79844307Y-63115393D02*
X79835307Y-63124393D01*
X79839600Y-63128686D02*
X79835307Y-63124393D01*
X79844307Y-59069307D02*
X79662000Y-58887000D01*
X79844307Y-60838393D02*
X79844307Y-59069307D01*
D23*
X79839600Y-60843100D02*
X79844307Y-60838393D01*
X79839600Y-65227200D02*
X79839600Y-60843100D01*
D22*
X79654400Y-56929400D02*
X79662000Y-56937000D01*
D21*
X79662000Y-54118600D02*
X79654400Y-54111000D01*
X79662000Y-56937000D02*
X79662000Y-54118600D01*
D24*
X80267200Y-67729100D02*
X80254500Y-67716400D01*
X82523000Y-67729100D02*
X80267200Y-67729100D01*
X81907600Y-65245200D02*
X81889600Y-65227200D01*
X81960500Y-65156300D02*
X81889600Y-65227200D01*
X85496400Y-65156300D02*
X81960500Y-65156300D01*
X85496400Y-67727500D02*
X85498000Y-67729100D01*
X85496400Y-65156300D02*
X85496400Y-67727500D01*
D25*
G36*
X73290263Y-58126806D02*
G01*
X73311363Y-58140021D01*
X73334635Y-58148866D01*
X73366822Y-58153295D01*
X73562484Y-58154956D01*
X73587311Y-58162487D01*
X73662000Y-58169843D01*
X74733563Y-58169843D01*
X74730120Y-58304157D01*
X73662000Y-58304157D01*
X73620543Y-58308240D01*
X73091040Y-58308240D01*
X73066264Y-58310680D01*
X73042439Y-58317907D01*
X73020483Y-58329643D01*
X73002897Y-58343808D01*
X70214772Y-61031640D01*
X64822071Y-61086465D01*
X63373000Y-59637394D01*
X63373000Y-57687980D01*
X63959490Y-56515000D01*
X71203661Y-56515000D01*
X73290263Y-58126806D01*
X73290263Y-58126806D01*
G37*
X73290263Y-58126806D02*
X73311363Y-58140021D01*
X73334635Y-58148866D01*
X73366822Y-58153295D01*
X73562484Y-58154956D01*
X73587311Y-58162487D01*
X73662000Y-58169843D01*
X74733563Y-58169843D01*
X74730120Y-58304157D01*
X73662000Y-58304157D01*
X73620543Y-58308240D01*
X73091040Y-58308240D01*
X73066264Y-58310680D01*
X73042439Y-58317907D01*
X73020483Y-58329643D01*
X73002897Y-58343808D01*
X70214772Y-61031640D01*
X64822071Y-61086465D01*
X63373000Y-59637394D01*
X63373000Y-57687980D01*
X63959490Y-56515000D01*
X71203661Y-56515000D01*
X73290263Y-58126806D01*
G36*
X97993200Y-63908206D02*
G01*
X97993200Y-66012794D01*
X96746794Y-67259200D01*
X93980000Y-67259200D01*
X93955224Y-67261640D01*
X93931399Y-67268867D01*
X93909443Y-67280603D01*
X93890197Y-67296397D01*
X91971594Y-69215000D01*
X85015606Y-69215000D01*
X84378800Y-68578194D01*
X84378800Y-65165506D01*
X85359225Y-64185081D01*
X88088408Y-64147695D01*
X92418645Y-64122298D01*
X92443407Y-64119712D01*
X92467188Y-64112346D01*
X92489076Y-64100481D01*
X92507703Y-64085103D01*
X93638906Y-62953900D01*
X97038894Y-62953900D01*
X97993200Y-63908206D01*
X97993200Y-63908206D01*
G37*
X97993200Y-63908206D02*
X97993200Y-66012794D01*
X96746794Y-67259200D01*
X93980000Y-67259200D01*
X93955224Y-67261640D01*
X93931399Y-67268867D01*
X93909443Y-67280603D01*
X93890197Y-67296397D01*
X91971594Y-69215000D01*
X85015606Y-69215000D01*
X84378800Y-68578194D01*
X84378800Y-65165506D01*
X85359225Y-64185081D01*
X88088408Y-64147695D01*
X92418645Y-64122298D01*
X92443407Y-64119712D01*
X92467188Y-64112346D01*
X92489076Y-64100481D01*
X92507703Y-64085103D01*
X93638906Y-62953900D01*
X97038894Y-62953900D01*
X97993200Y-63908206D01*
G36*
X74777604Y-59919657D02*
G01*
X74780251Y-59944412D01*
X74787676Y-59968176D01*
X74799594Y-59990034D01*
X74815548Y-60009147D01*
X74840919Y-60028481D01*
X78130529Y-61934959D01*
X78142931Y-68979618D01*
X75724971Y-69672200D01*
X70027493Y-69672200D01*
X69532500Y-69204707D01*
X69532500Y-62798308D01*
X73639347Y-58837688D01*
X74768503Y-58826396D01*
X74777604Y-59919657D01*
X74777604Y-59919657D01*
G37*
X74777604Y-59919657D02*
X74780251Y-59944412D01*
X74787676Y-59968176D01*
X74799594Y-59990034D01*
X74815548Y-60009147D01*
X74840919Y-60028481D01*
X78130529Y-61934959D01*
X78142931Y-68979618D01*
X75724971Y-69672200D01*
X70027493Y-69672200D01*
X69532500Y-69204707D01*
X69532500Y-62798308D01*
X73639347Y-58837688D01*
X74768503Y-58826396D01*
X74777604Y-59919657D01*
G36*
X69977000Y-47273980D02*
G01*
X69977000Y-53721000D01*
X48820606Y-53721000D01*
X46863000Y-51763394D01*
X46863000Y-46788606D01*
X48312606Y-45339000D01*
X69009510Y-45339000D01*
X69977000Y-47273980D01*
X69977000Y-47273980D01*
G37*
X69977000Y-47273980D02*
X69977000Y-53721000D01*
X48820606Y-53721000D01*
X46863000Y-51763394D01*
X46863000Y-46788606D01*
X48312606Y-45339000D01*
X69009510Y-45339000D01*
X69977000Y-47273980D01*
M02*
