G04 #@! TF.GenerationSoftware,KiCad,Pcbnew,(5.1.4-0)*
G04 #@! TF.CreationDate,2020-02-24T15:27:03-08:00*
G04 #@! TF.ProjectId,SPV1040,53505631-3034-4302-9e6b-696361645f70,rev?*
G04 #@! TF.SameCoordinates,Original*
G04 #@! TF.FileFunction,Copper,L2,Bot*
G04 #@! TF.FilePolarity,Positive*
%FSLAX46Y46*%
G04 Gerber Fmt 4.6, Leading zero omitted, Abs format (unit mm)*
G04 Created by KiCad (PCBNEW (5.1.4-0)) date 2020-02-24 15:27:03*
%MOMM*%
%LPD*%
G04 APERTURE LIST*
%ADD10R,2.100000X2.100000*%
%ADD11C,2.100000*%
%ADD12C,0.800000*%
%ADD13C,0.635000*%
%ADD14C,0.254000*%
G04 APERTURE END LIST*
D10*
X49966880Y-56631840D03*
D11*
X49966880Y-51551840D03*
D10*
X95567500Y-70027800D03*
D11*
X95567500Y-64947800D03*
D12*
X83527900Y-60388500D03*
X83677760Y-63596520D03*
X71120000Y-53086000D03*
X86898480Y-60990480D03*
X77028040Y-62275720D03*
X50800000Y-47244000D03*
X57404000Y-47244000D03*
X64008000Y-47244000D03*
X87998300Y-66700400D03*
X90754200Y-66827400D03*
D13*
X86498481Y-61390479D02*
X84801761Y-61390479D01*
X86898480Y-60990480D02*
X86498481Y-61390479D01*
X84801761Y-61390479D02*
X83916520Y-62275720D01*
X83916520Y-62275720D02*
X77028040Y-62275720D01*
D14*
G36*
X97992490Y-63908206D02*
G01*
X97992490Y-66012794D01*
X96746084Y-67259200D01*
X93979290Y-67259200D01*
X93954514Y-67261640D01*
X93930689Y-67268867D01*
X93908733Y-67280603D01*
X93889487Y-67296397D01*
X91970884Y-69215000D01*
X85014896Y-69215000D01*
X84378090Y-68578194D01*
X84378090Y-65165506D01*
X85358515Y-64185081D01*
X88087698Y-64147695D01*
X92417935Y-64122298D01*
X92442697Y-64119712D01*
X92466478Y-64112346D01*
X92488366Y-64100481D01*
X92506993Y-64085103D01*
X93638196Y-62953900D01*
X97038184Y-62953900D01*
X97992490Y-63908206D01*
X97992490Y-63908206D01*
G37*
X97992490Y-63908206D02*
X97992490Y-66012794D01*
X96746084Y-67259200D01*
X93979290Y-67259200D01*
X93954514Y-67261640D01*
X93930689Y-67268867D01*
X93908733Y-67280603D01*
X93889487Y-67296397D01*
X91970884Y-69215000D01*
X85014896Y-69215000D01*
X84378090Y-68578194D01*
X84378090Y-65165506D01*
X85358515Y-64185081D01*
X88087698Y-64147695D01*
X92417935Y-64122298D01*
X92442697Y-64119712D01*
X92466478Y-64112346D01*
X92488366Y-64100481D01*
X92506993Y-64085103D01*
X93638196Y-62953900D01*
X97038184Y-62953900D01*
X97992490Y-63908206D01*
G36*
X69977000Y-47273980D02*
G01*
X69977000Y-53721000D01*
X48820606Y-53721000D01*
X46863000Y-51763394D01*
X46863000Y-46788606D01*
X48312606Y-45339000D01*
X69009510Y-45339000D01*
X69977000Y-47273980D01*
X69977000Y-47273980D01*
G37*
X69977000Y-47273980D02*
X69977000Y-53721000D01*
X48820606Y-53721000D01*
X46863000Y-51763394D01*
X46863000Y-46788606D01*
X48312606Y-45339000D01*
X69009510Y-45339000D01*
X69977000Y-47273980D01*
M02*
