G04 #@! TF.GenerationSoftware,KiCad,Pcbnew,(6.0.0-rc1-dev-305-gf0b8b21)*
G04 #@! TF.CreationDate,2020-02-04T16:23:11-08:00*
G04 #@! TF.ProjectId,Citlaly's Surprise,4369746C616C79277320537572707269,rev?*
G04 #@! TF.SameCoordinates,Original*
G04 #@! TF.FileFunction,Copper,L1,Top,Signal*
G04 #@! TF.FilePolarity,Positive*
%FSLAX46Y46*%
G04 Gerber Fmt 4.6, Leading zero omitted, Abs format (unit mm)*
G04 Created by KiCad (PCBNEW (6.0.0-rc1-dev-305-gf0b8b21)) date Tuesday, February 04, 2020 at 04:23:11 PM*
%MOMM*%
%LPD*%
G01*
G04 APERTURE LIST*
G04 #@! TA.AperFunction,NonConductor*
%ADD10C,0.150000*%
G04 #@! TD*
G04 #@! TA.AperFunction,ViaPad*
%ADD11C,0.800000*%
G04 #@! TD*
G04 APERTURE END LIST*
D10*
X150259142Y-73056428D02*
X150259142Y-66198428D01*
X150259142Y-69464142D02*
X154178000Y-69464142D01*
X154178000Y-73056428D02*
X154178000Y-66198428D01*
X160382857Y-73056428D02*
X160382857Y-69464142D01*
X160056285Y-68811000D01*
X159403142Y-68484428D01*
X158096857Y-68484428D01*
X157443714Y-68811000D01*
X160382857Y-72729857D02*
X159729714Y-73056428D01*
X158096857Y-73056428D01*
X157443714Y-72729857D01*
X157117142Y-72076714D01*
X157117142Y-71423571D01*
X157443714Y-70770428D01*
X158096857Y-70443857D01*
X159729714Y-70443857D01*
X160382857Y-70117285D01*
X163648571Y-68484428D02*
X163648571Y-75342428D01*
X163648571Y-68811000D02*
X164301714Y-68484428D01*
X165608000Y-68484428D01*
X166261142Y-68811000D01*
X166587714Y-69137571D01*
X166914285Y-69790714D01*
X166914285Y-71750142D01*
X166587714Y-72403285D01*
X166261142Y-72729857D01*
X165608000Y-73056428D01*
X164301714Y-73056428D01*
X163648571Y-72729857D01*
X169853428Y-68484428D02*
X169853428Y-75342428D01*
X169853428Y-68811000D02*
X170506571Y-68484428D01*
X171812857Y-68484428D01*
X172466000Y-68811000D01*
X172792571Y-69137571D01*
X173119142Y-69790714D01*
X173119142Y-71750142D01*
X172792571Y-72403285D01*
X172466000Y-72729857D01*
X171812857Y-73056428D01*
X170506571Y-73056428D01*
X169853428Y-72729857D01*
X175405142Y-68484428D02*
X177038000Y-73056428D01*
X178670857Y-68484428D02*
X177038000Y-73056428D01*
X176384857Y-74689285D01*
X176058285Y-75015857D01*
X175405142Y-75342428D01*
X136869714Y-76635428D02*
X139155714Y-83493428D01*
X141441714Y-76635428D01*
X146666857Y-83493428D02*
X146666857Y-79901142D01*
X146340285Y-79248000D01*
X145687142Y-78921428D01*
X144380857Y-78921428D01*
X143727714Y-79248000D01*
X146666857Y-83166857D02*
X146013714Y-83493428D01*
X144380857Y-83493428D01*
X143727714Y-83166857D01*
X143401142Y-82513714D01*
X143401142Y-81860571D01*
X143727714Y-81207428D01*
X144380857Y-80880857D01*
X146013714Y-80880857D01*
X146666857Y-80554285D01*
X150912285Y-83493428D02*
X150259142Y-83166857D01*
X149932571Y-82513714D01*
X149932571Y-76635428D01*
X156137428Y-83166857D02*
X155484285Y-83493428D01*
X154178000Y-83493428D01*
X153524857Y-83166857D01*
X153198285Y-82513714D01*
X153198285Y-79901142D01*
X153524857Y-79248000D01*
X154178000Y-78921428D01*
X155484285Y-78921428D01*
X156137428Y-79248000D01*
X156464000Y-79901142D01*
X156464000Y-80554285D01*
X153198285Y-81207428D01*
X159403142Y-78921428D02*
X159403142Y-83493428D01*
X159403142Y-79574571D02*
X159729714Y-79248000D01*
X160382857Y-78921428D01*
X161362571Y-78921428D01*
X162015714Y-79248000D01*
X162342285Y-79901142D01*
X162342285Y-83493428D01*
X164628285Y-78921428D02*
X167240857Y-78921428D01*
X165608000Y-76635428D02*
X165608000Y-82513714D01*
X165934571Y-83166857D01*
X166587714Y-83493428D01*
X167240857Y-83493428D01*
X169526857Y-83493428D02*
X169526857Y-78921428D01*
X169526857Y-76635428D02*
X169200285Y-76962000D01*
X169526857Y-77288571D01*
X169853428Y-76962000D01*
X169526857Y-76635428D01*
X169526857Y-77288571D01*
X172792571Y-78921428D02*
X172792571Y-83493428D01*
X172792571Y-79574571D02*
X173119142Y-79248000D01*
X173772285Y-78921428D01*
X174752000Y-78921428D01*
X175405142Y-79248000D01*
X175731714Y-79901142D01*
X175731714Y-83493428D01*
X181610000Y-83166857D02*
X180956857Y-83493428D01*
X179650571Y-83493428D01*
X178997428Y-83166857D01*
X178670857Y-82513714D01*
X178670857Y-79901142D01*
X178997428Y-79248000D01*
X179650571Y-78921428D01*
X180956857Y-78921428D01*
X181610000Y-79248000D01*
X181936571Y-79901142D01*
X181936571Y-80554285D01*
X178670857Y-81207428D01*
X185202285Y-76635428D02*
X185202285Y-76962000D01*
X184875714Y-77615142D01*
X184549142Y-77941714D01*
X187814857Y-83166857D02*
X188468000Y-83493428D01*
X189774285Y-83493428D01*
X190427428Y-83166857D01*
X190754000Y-82513714D01*
X190754000Y-82187142D01*
X190427428Y-81534000D01*
X189774285Y-81207428D01*
X188794571Y-81207428D01*
X188141428Y-80880857D01*
X187814857Y-80227714D01*
X187814857Y-79901142D01*
X188141428Y-79248000D01*
X188794571Y-78921428D01*
X189774285Y-78921428D01*
X190427428Y-79248000D01*
X159239857Y-93930428D02*
X159239857Y-87072428D01*
X160872714Y-87072428D01*
X161852428Y-87399000D01*
X162505571Y-88052142D01*
X162832142Y-88705285D01*
X163158714Y-90011571D01*
X163158714Y-90991285D01*
X162832142Y-92297571D01*
X162505571Y-92950714D01*
X161852428Y-93603857D01*
X160872714Y-93930428D01*
X159239857Y-93930428D01*
X169037000Y-93930428D02*
X169037000Y-90338142D01*
X168710428Y-89685000D01*
X168057285Y-89358428D01*
X166751000Y-89358428D01*
X166097857Y-89685000D01*
X169037000Y-93603857D02*
X168383857Y-93930428D01*
X166751000Y-93930428D01*
X166097857Y-93603857D01*
X165771285Y-92950714D01*
X165771285Y-92297571D01*
X166097857Y-91644428D01*
X166751000Y-91317857D01*
X168383857Y-91317857D01*
X169037000Y-90991285D01*
X171649571Y-89358428D02*
X173282428Y-93930428D01*
X174915285Y-89358428D02*
X173282428Y-93930428D01*
X172629285Y-95563285D01*
X172302714Y-95889857D01*
X171649571Y-96216428D01*
D11*
G04 #@! TO.N,*
X164084000Y-62484000D03*
G04 #@! TD*
M02*
