G04 ================== begin FILE IDENTIFICATION RECORD ==================*
G04 Layout Name:  PADesignV1.brd*
G04 Film Name:    BOTTOM*
G04 File Format:  Gerber RS274X*
G04 File Origin:  Cadence Allegro 17.2-S029*
G04 Origin Date:  Mon Feb 18 13:22:38 2019*
G04 *
G04 Layer:  ETCH/BOTTOM*
G04 Layer:  PIN/BOTTOM*
G04 Layer:  VIA CLASS/BOTTOM*
G04 *
G04 Offset:    (0.0 0.0)*
G04 Mirror:    No*
G04 Mode:      Positive*
G04 Rotation:  0*
G04 FullContactRelief:  No*
G04 UndefLineWidth:     0.0*
G04 ================== end FILE IDENTIFICATION RECORD ====================*
%FSLAX45Y45*MOIN*%
%IR0*IPPOS*OFA0.00000B0.00000*MIA0B0*SFA1.00000B1.00000*%
%ADD12R,.1X.08*%
%ADD14R,.04X.034*%
%ADD15R,.05X.034*%
%ADD17C,.062*%
%ADD11R,.05X.05*%
%ADD16R,.062X.062*%
%ADD13R,.076X.048*%
%ADD10R,.058X.058*%
%ADD18C,.012*%
%ADD19C,.05*%
%ADD20C,.034*%
%ADD21C,.0784*%
G75*
%LPD*%
G75*
G36*
G01X877000Y990000D02*
Y998290D01*
X882900D01*
G03X883600Y998690I0J813D01*
G01X897500D01*
G03X898310Y999500I0J810D01*
G01Y1004500D01*
G03X897500Y1005310I-810J0D01*
G01X883600D01*
G03X882900Y1005710I-700J-413D01*
G01X877000D01*
Y1077000D01*
X1113000D01*
Y1043710D01*
X1107100D01*
G03X1106400Y1043310I0J-812D01*
G01X1096810D01*
Y1044000D01*
G03X1096000Y1044810I-810J0D01*
G01X1086000D01*
G03X1085190Y1044000I0J-810D01*
G01Y1036000D01*
G03X1086000Y1035190I810J0D01*
G01X1096000D01*
G03X1096810Y1036000I0J810D01*
G01Y1036690D01*
X1106400D01*
G03X1107100Y1036290I700J413D01*
G01X1113000D01*
Y990000D01*
X877000D01*
G37*
%LPC*%
G75*
G36*
G01X1085190Y998000D02*
Y1006000D01*
G02X1086000Y1006810I810J0D01*
G01X1096000D01*
G02X1096810Y1006000I0J-810D01*
G01Y998000D01*
G02X1096000Y997190I-810J0D01*
G01X1086000D01*
G02X1085190Y998000I0J810D01*
G37*
G36*
G01X1059290Y1052500D02*
Y1057500D01*
G02X1060100Y1058310I810J0D01*
G01X1065100D01*
G02X1065910Y1057500I0J-810D01*
G01Y1052500D01*
G02X1065100Y1051690I-810J0D01*
G01X1060100D01*
G02X1059290Y1052500I0J810D01*
G37*
G36*
G01X1016190Y1034900D02*
Y1038300D01*
G02X1017000Y1039110I810J0D01*
G01X1021000D01*
G02X1021810Y1038300I0J-810D01*
G01Y1034900D01*
G02X1021000Y1034090I-810J0D01*
G01X1017000D01*
G02X1016190Y1034900I0J810D01*
G37*
G36*
G01Y996900D02*
Y1000300D01*
G02X1017000Y1001110I810J0D01*
G01X1021000D01*
G02X1021810Y1000300I0J-810D01*
G01Y996900D01*
G02X1021000Y996090I-810J0D01*
G01X1017000D01*
G02X1016190Y996900I0J810D01*
G37*
G36*
G01X999690Y1010100D02*
Y1015100D01*
G02X1000500Y1015910I810J0D01*
G01X1005500D01*
G02X1006310Y1015100I0J-810D01*
G01Y1010100D01*
G02X1005500Y1009290I-810J0D01*
G01X1000500D01*
G02X999690Y1010100I0J810D01*
G37*
G36*
G01X980390Y1010600D02*
Y1015400D01*
G02X981200Y1016210I810J0D01*
G01X988800D01*
G02X989610Y1015400I0J-810D01*
G01Y1010600D01*
G02X988800Y1009790I-810J0D01*
G01X981200D01*
G02X980390Y1010600I0J810D01*
G37*
G36*
G01X912190Y1036000D02*
Y1044000D01*
G02X913000Y1044810I810J0D01*
G01X923000D01*
G02X923810Y1044000I0J-810D01*
G01Y1036000D01*
G02X923000Y1035190I-810J0D01*
G01X913000D01*
G02X912190Y1036000I0J810D01*
G37*
G36*
G01X1048810D02*
G02X1048000Y1035190I-810J0D01*
G01X1038000D01*
G02X1037190Y1036000I0J810D01*
G01Y1037490D01*
X1034460D01*
X1034160Y1037790D01*
X1024400D01*
G02X1023590Y1038600I0J810D01*
G01Y1042000D01*
G02X1024400Y1042810I810J0D01*
G01X1036240D01*
X1036540Y1042510D01*
X1037190D01*
Y1044000D01*
G02X1038000Y1044810I810J0D01*
G01X1048000D01*
G02X1048810Y1044000I0J-810D01*
G01Y1036000D01*
G37*
G36*
G01X971810D02*
G02X971000Y1035190I-810J0D01*
G01X961000D01*
G02X960190Y1036000I0J810D01*
G01Y1044000D01*
G02X961000Y1044810I810J0D01*
G01X971000D01*
G02X971810Y1044000I0J-810D01*
G01Y1043310D01*
X986630D01*
X989660Y1046340D01*
G02X994160Y1046510I2342J-2340D01*
G01X1021000D01*
G02X1021810Y1045700I0J-810D01*
G01Y1042300D01*
G02X1021000Y1041490I-810J0D01*
G01X994170D01*
X989370Y1036690D01*
X971810D01*
Y1036000D01*
G37*
G36*
G01X1048810Y1017000D02*
G02X1048000Y1016190I-810J0D01*
G01X1038000D01*
G02X1037190Y1017000I0J810D01*
G01Y1017690D01*
X1021500D01*
G02X1020690Y1018500I0J810D01*
G01Y1023500D01*
G02X1021500Y1024310I810J0D01*
G01X1037190D01*
Y1025000D01*
G02X1038000Y1025810I810J0D01*
G01X1048000D01*
G02X1048810Y1025000I0J-810D01*
G01Y1024310D01*
X1057630D01*
X1067690Y1034370D01*
Y1057500D01*
G02X1068490Y1058310I810J0D01*
G03X1068690Y1058510I0J200D01*
G01Y1063110D01*
X1068570Y1063160D01*
G02X1068090Y1063900I330J740D01*
G01Y1070100D01*
G02X1068900Y1070910I810J0D01*
G01X1075100D01*
G02X1075910Y1070100I0J-810D01*
G01Y1063900D01*
G02X1075430Y1063160I-810J0D01*
G01X1075310Y1063110D01*
Y1054630D01*
X1074310Y1053630D01*
Y1031630D01*
X1060370Y1017690D01*
X1048810D01*
Y1017000D01*
G37*
G36*
G01X971810D02*
G02X971000Y1016190I-810J0D01*
G01X961000D01*
G02X960190Y1017000I0J810D01*
G01Y1025000D01*
G02X961000Y1025810I810J0D01*
G01X971000D01*
G02X971810Y1025000I0J-810D01*
G01Y1024310D01*
X975670D01*
X975770Y1024210D01*
X995730D01*
X995830Y1024310D01*
X1018100D01*
G02X1018910Y1023500I0J-810D01*
G01Y1018500D01*
G02X1018100Y1017690I-810J0D01*
G01X998570D01*
X998470Y1017590D01*
X973030D01*
X972930Y1017690D01*
X971810D01*
Y1017000D01*
G37*
G36*
G01X1048810Y998000D02*
G02X1048000Y997190I-810J0D01*
G01X1038000D01*
G02X1037190Y998000I0J810D01*
G01Y999490D01*
X1034460D01*
X1034160Y999790D01*
X1024400D01*
G02X1023590Y1000600I0J810D01*
G01Y1004000D01*
G02X1024400Y1004810I810J0D01*
G01X1036240D01*
X1036540Y1004510D01*
X1037190D01*
Y1006000D01*
G02X1038000Y1006810I810J0D01*
G01X1048000D01*
G02X1048810Y1006000I0J-810D01*
G01Y998000D01*
G37*
G36*
G01X971810D02*
G02X971000Y997190I-810J0D01*
G01X961000D01*
G02X960190Y998000I0J810D01*
G01Y1006000D01*
G02X961000Y1006810I810J0D01*
G01X971000D01*
G02X971810Y1006000I0J-810D01*
G01Y1005310D01*
X1007760D01*
X1010960Y1008510D01*
X1021000D01*
G02X1021810Y1007700I0J-810D01*
G01Y1004300D01*
G02X1021000Y1003490I-810J0D01*
G01X1013040D01*
X1011300Y1001750D01*
Y1001680D01*
G02X1008000Y998690I-3300J326D01*
G01X971810D01*
Y998000D01*
G37*
G36*
G01X923810D02*
G02X923000Y997190I-810J0D01*
G01X913000D01*
G02X912190Y998000I0J810D01*
G01Y998690D01*
X900900D01*
G02X900090Y999500I0J810D01*
G01Y1004500D01*
G02X900900Y1005310I810J0D01*
G01X912190D01*
Y1006000D01*
G02X913000Y1006810I810J0D01*
G01X923000D01*
G02X923810Y1006000I0J-810D01*
G01Y998000D01*
G37*
G54D21*
X1062000Y1067000D03*
%LPD*%
G75*
G54D10*
X880000Y1002000D03*
X1110000Y1040000D03*
G54D20*
G01X1008000Y1002000D02*
X1012000Y1006000D01*
X1019000D01*
G01X992000Y1044000D02*
X1019000D01*
G01X1026900Y1002300D02*
X1035200D01*
X1035500Y1002000D01*
X1043000D01*
G01X1026900Y1040300D02*
X1035200D01*
X1035500Y1040000D01*
X1043000D01*
G54D11*
X895000Y1002000D03*
X903400D03*
X1003000Y1021000D03*
Y1012600D03*
X1015600Y1021000D03*
X1024000D03*
X1071000Y1055000D03*
X1062600D03*
G54D12*
X918000Y1002000D03*
Y1040000D03*
X966000Y1021000D03*
Y1002000D03*
Y1040000D03*
X1043000Y1002000D03*
Y1021000D03*
Y1040000D03*
X1091000Y1002000D03*
Y1040000D03*
G54D13*
X985000Y1013000D03*
Y1020900D03*
G54D14*
X1019000Y1006000D03*
Y998600D03*
Y1044000D03*
Y1036600D03*
G54D15*
X1026900Y1002300D03*
Y1040300D03*
G54D16*
X1072000Y1067000D03*
G54D17*
X1062000D03*
G54D18*
G01X918000Y1034990D02*
Y1040000D01*
G01D02*
Y1045010D01*
G01X911990Y1040000D02*
X918000D01*
G01D02*
X924010D01*
G01X985000Y1009590D02*
Y1013000D01*
G01D02*
Y1016410D01*
G01X980190Y1013000D02*
X985000D01*
G01D02*
X989810D01*
G01X1019000Y995890D02*
Y998600D01*
G01D02*
Y1001310D01*
G01X1015990Y998600D02*
X1019000D01*
G01D02*
X1022010D01*
G01X1003000Y1009090D02*
Y1012600D01*
G01D02*
Y1016110D01*
G01X999490Y1012600D02*
X1003000D01*
G01D02*
X1006510D01*
G01X1019000Y1033890D02*
Y1036600D01*
G01D02*
Y1039310D01*
G01X1015990Y1036600D02*
X1019000D01*
G01D02*
X1022010D01*
G01X1062000Y1062890D02*
Y1067000D01*
G01D02*
Y1071110D01*
G01X1057890Y1067000D02*
X1062000D01*
G01D02*
X1066110D01*
G01X1062600Y1051490D02*
Y1055000D01*
G01D02*
Y1058510D01*
G01X1059090Y1055000D02*
X1062600D01*
G01D02*
X1066110D01*
G01X1091000Y996990D02*
Y1002000D01*
G01D02*
Y1007010D01*
G01X1084990Y1002000D02*
X1091000D01*
G01D02*
X1097010D01*
G54D19*
G01X895000D02*
X880000D01*
G01X903400D02*
X918000D01*
G01X966000D02*
X1008000D01*
G01X985000Y1020900D02*
X997100D01*
X997200Y1021000D01*
X1003000D01*
G01X985000Y1020900D02*
X974400D01*
X974300Y1021000D01*
X966000D01*
G01Y1040000D02*
X988000D01*
X992000Y1044000D01*
G01X1015600Y1021000D02*
X1003000D01*
G01X1024000D02*
X1043000D01*
G01X1071000Y1055000D02*
Y1033000D01*
X1059000Y1021000D01*
X1043000D01*
G01X1072000Y1067000D02*
Y1056000D01*
X1071000Y1055000D01*
G01X1110000Y1040000D02*
X1091000D01*
M02*
